<svg id="Layer_1" data-name="Layer 1" xmlns="http://www.w3.org/2000/svg" viewBox="0 0 212.07 270"><defs><style>.cls-1{fill:#122233;}</style></defs><title>logo_phillips</title><path class="cls-1" d="M107.61,270h-1a4.13,4.13,0,0,0-.53-.24,138.63,138.63,0,0,1-25.65-10.9C55.76,245.31,35,227.14,17.61,205A110,110,0,0,1,2.89,181.23,32.94,32.94,0,0,1,0,167.4c.21-13.32.21-26.63.29-39.95L.53,81.39q.12-23,.24-46.07c0-6.84,0-13.68,0-20.52,0-3.88,0-7.76,0-11.64,0-.93.27-1.21,1.23-1.22q9.84,0,19.67-.22Q34.86,1.48,48,1.16C62.29.8,76.59.3,90.89.08c10.59-.16,21.19,0,31.79.06,8.11.09,16.22.34,24.33.55,11.94.3,23.89.68,35.83.94,8.95.19,17.91.25,26.86.31,1.18,0,1.57.24,1.58,1.5,0,15.07.13,30.15.21,45.22l.24,46.19q.12,22.91.23,45.82c0,9.36,0,18.72.11,28.08a25,25,0,0,1-1.57,8.79,85.8,85.8,0,0,1-9.8,18.62,204.14,204.14,0,0,1-46.59,49.1,154.9,154.9,0,0,1-39.55,22.25C112.25,268.37,109.92,269.17,107.61,270ZM119,88.29h-.15c.16-18.51.29-37,.49-55.53,0-3.92.36-7.83.54-11.74a1.48,1.48,0,0,1,1.3-1.65c2.25-.5,4.46-1.22,6.72-1.74a64.14,64.14,0,0,1,29.23-.34c10.17,2.38,17.75,8.09,21.84,17.85,3.6,8.56,3.72,17.46,1.52,26.36-3.65,14.75-15.63,24.21-30.8,24.68a63.94,63.94,0,0,1-14.85-1.75c-1.28-.26-2.09.53-1.76,1.77.5,1.85,1.07,3.69,1.54,5.54a1.18,1.18,0,0,0,1.14,1,86.44,86.44,0,0,0,16.69,1.43,55.19,55.19,0,0,0,28.31-8.21c14.38-8.9,23.39-21.31,24.87-38.51A34.45,34.45,0,0,0,201.54,27C196.28,17.78,188.28,12.12,178,9.58,167.5,7,156.83,7,146.15,7.26c-9.11.25-18.21.67-27.32.83-6.31.11-12.63,0-18.94-.14-4.76-.08-9.51-.25-14.27-.39-3.43-.1-6.86-.23-10.3-.31-1.26,0-1.74.47-1.75,1.7,0,1.4,0,2.8,0,4.2a1.46,1.46,0,0,0,1.52,1.61c.56.05,1.12,0,1.68.09,4.14.33,8.33.37,12.4,1.07,5.25.89,6,2.27,6.47,6.35.5,4.48.7,9,.79,13.51q.3,15,.33,30.1c0,17.48,0,35-.06,52.43,0,7.56,0,15.12-.1,22.68,0,3.75-.08,7.52-.34,11.26a56.91,56.91,0,0,1-1.13,7.31,4.57,4.57,0,0,1-3.79,3.73,55,55,0,0,1-6.24,1.08c-3.3.33-6.61.48-9.92.69-1.11.06-1.68.52-1.62,1.72s0,2.63,0,3.95.59,1.87,1.92,1.83c4.59-.15,9.18-.37,13.78-.44,9-.14,18-.31,27-.24,8,.06,15.89.44,23.84.68,1.62.05,2.08-.39,2.09-2V167c0-1.53-.23-1.81-1.77-1.91-2.52-.17-5.05-.16-7.54-.45a87.91,87.91,0,0,1-8.83-1.48,4.68,4.68,0,0,1-3.66-4,52,52,0,0,1-.92-7.23q-.35-14.38-.43-28.78C119,111.49,119,99.89,119,88.29Z"/></svg>