<?xml version="1.0" encoding="utf-8"?>
<!-- Generator: Adobe Illustrator 21.0.0, SVG Export Plug-In . SVG Version: 6.00 Build 0)  -->
<svg version="1.1" id="Layer_1" xmlns="http://www.w3.org/2000/svg" xmlns:xlink="http://www.w3.org/1999/xlink" x="0px" y="0px"
	 viewBox="0 0 300 300" style="enable-background:new 0 0 300 300;" xml:space="preserve">
<style type="text/css">
	.st0{fill:#999999;}
</style>
<path class="st0" d="M150.7,284.3c-3,0-6.2,0.4-9.1-0.1c-3.4-0.7-6.9-0.2-10.1-1c-1.9-0.5-3.8-0.5-5.7-0.8c-0.3,0-0.6-0.2-0.9-0.3
	c-0.4-0.2-0.8-0.5-1.2-0.5c-0.8-0.1-1.7,0-2.5-0.1c-0.4-0.1-0.8-0.3-1.3-0.5c-0.5-0.2-1-0.3-1.6-0.4c-0.9-0.2-2,0.3-2.7-0.8
	c-0.2-0.2-0.8-0.1-1.1-0.2c-0.9-0.2-2,0.3-2.7-0.9c-0.1-0.2-0.6-0.1-0.9-0.1c-0.8-0.1-1.7,0.3-2.2-0.8c-0.1-0.1-0.4-0.1-0.7-0.2
	c-0.8-0.1-1.9,0.2-2.4-0.8c-1.5,0.3-2.6-0.9-4-1.2c-1.3-0.3-2.5-1-3.7-1.5c-0.3-0.1-0.6-0.2-0.9-0.3c-0.6-0.3-1.2-0.6-1.8-0.8
	c-0.1,0-0.2-0.1-0.3-0.2c-1.7-0.7-3.5-1.3-5.2-2.1c-1-0.4-1.8-1.1-2.7-1.6c-0.9-0.5-1.9-0.7-2.7-1.3c-0.9-0.7-2.3-0.6-2.9-1.7
	c-0.1-0.1-0.3-0.2-0.4-0.2c-1.2,0-1.8-0.9-2.5-1.6c-0.1-0.1-0.2-0.2-0.4-0.3c-1.4-0.7-2.9-1.3-4.2-2.2c-1.2-0.8-2.3-1.8-3.4-2.7
	c-0.7-0.5-1.5-0.8-2.3-1.3c-0.4-0.3-0.9-0.6-1.1-0.9c-0.9-1.2-2.5-1.3-3.4-2.7c-0.7-1-2.1-1.5-3.1-2.3c-0.9-0.8-1.8-1.7-2.6-2.6
	c-0.7-0.7-1.5-1.4-2.3-2.1c-0.5-0.4-1-0.8-1.5-1.3c-0.9-0.9-1.8-1.8-2.6-2.7c-1.1-1.2-2.2-2.5-3.4-3.7c-1.2-1.2-2.5-2.3-3.6-3.5
	c-0.5-0.6-0.9-1.4-1.3-2.1c-0.3-0.5-0.6-0.9-1-1.3c-0.7-0.8-1.4-1.5-2.1-2.3c-0.3-0.3-0.5-0.7-0.8-1.1c-0.4-0.6-0.8-1.2-1.2-1.7
	c-0.6-0.8-1.2-1.7-1.8-2.5c-0.9-1.2-1.8-2.4-2.7-3.6c-0.5-0.7-0.8-1.5-1.3-2.2c-0.6-0.9-1.2-1.7-1.7-2.6c-0.4-0.8-0.7-1.6-1.2-2.4
	c-0.5-0.9-1.1-1.7-1.7-2.6c0-0.1-0.1-0.1-0.1-0.2c-0.4-1-0.7-2.1-1.2-3.1c-0.4-0.9-1-1.7-1.5-2.6c-0.1-0.1-0.1-0.3-0.2-0.4
	c-0.4-1.3-0.8-2.6-1.4-3.8c-0.4-1-1.1-1.9-1.6-2.9c-0.2-0.4-0.1-1-0.3-1.4c-0.1-0.4-0.4-0.7-0.6-1.1c-0.1-0.1-0.2-0.1-0.2-0.2
	c-0.4-1.4-0.7-2.8-1.1-4.1c-0.1-0.5-0.4-1-0.6-1.4c-0.1-0.2-0.2-0.3-0.2-0.5c-0.1-1-0.3-1.9-0.8-2.9c-0.8-1.4-0.8-3.3-1.2-5
	c-0.1-0.6-0.5-1.2-0.7-1.8c-0.1-0.4-0.2-0.9-0.2-1.3c-0.2-1.3,0.3-2.7-0.8-3.8c-0.3-0.3-0.1-1-0.2-1.5c-0.1-1.4,0.1-2.9-0.8-4.3
	c-0.2-0.3-0.1-0.9-0.2-1.4c-0.1-1.9,0.2-3.8-0.2-5.6c-1.4-5.6-0.4-11.3-0.7-16.9c-0.1-1.4-0.3-2.9,0.2-4.2c1-2.9,0.2-6,1-8.8
	c0.6-2,0.2-4.2,1-6c0.6-1.4,0.3-3,0.9-4.2c0.7-1.3,0.4-2.7,0.9-3.8c0.6-1.3,0.5-2.9,1-4c0.5-1,0.4-2.3,0.9-2.9c0.8-1,0.4-2.3,1-3.1
	c0.7-0.9,0.5-1.9,0.9-2.8c0.4-0.8,0.9-1.6,1.1-2.5c0.2-0.6,0.5-1.2,0.7-1.8c0.5-1.1,1.1-2.2,1.6-3.3c0.1-0.1,0.2-0.2,0.2-0.3
	c0.4-1.2,0.8-2.4,1.3-3.6c0.4-1,1-1.9,1.5-2.8c0.4-0.8,0.8-1.6,1.3-2.4c0.5-0.9,1.1-1.8,1.7-2.7c0.1-0.1,0.2-0.2,0.2-0.3
	c0-1.3,1.1-2,1.8-3c0.5-0.8,0.8-1.7,1.3-2.5c0.4-0.7,1-1.4,1.5-2c0.1-0.1,0.2-0.2,0.2-0.3c0.4-0.8,0.8-1.6,1.3-2.3
	c0.5-0.8,1.2-1.5,1.8-2.3c0.8-1,1.6-2,2.3-3c0.6-0.8,1.1-1.7,1.7-2.4c0.7-0.9,1.6-1.6,2.4-2.4c0.1-0.1,0.2-0.1,0.3-0.2
	c1-2.5,3.2-3.8,5-5.7c1.1-1.2,2.1-2.4,3.2-3.5c0.8-0.8,1.8-1.5,2.6-2.3c0.8-0.8,1.5-1.6,2.4-2.4c0.6-0.5,1.3-0.9,1.9-1.4
	c1-0.8,1.9-1.7,2.9-2.6c0.6-0.5,1.4-0.9,2.1-1.5c1-0.8,1.9-1.6,2.8-2.5c0.1-0.1,0.3-0.3,0.5-0.3c1.2-0.1,1.8-1,2.6-1.7
	c0.1-0.1,0.1-0.1,0.2-0.2c0.7-0.4,1.5-0.7,2.2-1.2c1.2-0.8,2.3-1.7,3.5-2.6c0.7-0.5,1.4-0.8,2.1-1.2c1-0.5,2-0.8,2.9-1.3
	c0.5-0.3,1-0.7,1.5-0.9c1.2-0.6,2.7-1,3.5-2c0.8-1,2.2-0.4,2.7-1.6c0-0.1,0.4-0.1,0.5-0.2c0.4-0.2,0.9-0.5,1.3-0.7
	c0.1,0,0.1-0.1,0.2-0.1c1.4,0.2,2.4-0.9,3.6-1.2c1.1-0.3,2.1-1,3.1-1.5c0.1-0.1,0.2-0.2,0.3-0.2c1.3-0.4,2.7-0.8,4-1.2
	c1.5-0.5,2.9-1.1,4.4-1.7c0.3-0.1,0.7-0.1,1-0.2c0.7-0.3,1.4-0.6,2.1-0.8c0.4-0.1,0.8-0.2,1.2-0.2c0.9-0.2,2,0.2,2.7-0.8
	c0.1-0.2,0.6-0.1,0.9-0.1c0.8-0.2,1.5-0.5,2.3-0.7c0.9-0.2,1.9-0.2,2.8-0.3c0.6-0.1,1.4,0.1,1.7-0.7c0.1-0.2,0.5-0.2,0.8-0.2
	c0.9,0,1.8,0,2.8-0.1c0.5-0.1,0.9-0.4,1.3-0.6c0.4-0.1,0.7-0.3,1.1-0.3c1.2-0.1,2.3,0,3.5-0.1c0.9,0,1.8,0.2,2.5-0.7
	c0.2-0.2,0.7-0.2,1-0.2c2.9,0,5.8-0.1,8.6-0.1c0.7,0,1.5,0.2,2-0.7c0.1-0.2,0.5-0.2,0.8-0.2c2.8,0,5.7,0,8.5,0c0.2,0,0.4-0.1,0.5,0
	c2.3,1.6,4.9,0.5,7.3,0.8c0.9,0.1,1.9,0,2.9,0.1c1,0.1,2-0.2,2.8,0.7c0.2,0.2,0.7,0.2,1,0.2c1.3,0,2.6,0,4,0.1c0.5,0,1,0.4,1.5,0.6
	c0.3,0.1,0.6,0.3,0.9,0.3c0.9,0.1,1.8,0,2.6,0.1c0.5,0.1,1,0.4,1.5,0.6c0.3,0.1,0.7,0.2,1,0.3c1.4,0.2,2.9-0.3,4.1,0.9
	c0.2,0.2,0.5,0.1,0.8,0.1c0.8,0,1.7-0.1,2.3,0.7c0.1,0.2,0.5,0.2,0.8,0.2c1.1,0.1,2.3-0.2,3,0.9c0,0,0.1,0,0.1,0
	c1.5,0.4,3.2,0.5,4.6,1.3c1.3,0.7,2.8,0.4,4,1.6c0.5,0.6,1.6,0.7,2.4,1c1.2,0.4,2.4,0.8,3.6,1.2c0.3,0.1,0.5,0.3,0.7,0.5
	c0.1,0.1,0.3,0.3,0.4,0.4c1.2,0.4,2.5,0.7,3.6,1.2c0.9,0.4,1.8,1.1,2.7,1.7c0.7,0.4,1.4,0.7,2.2,1.1c1.5,0.7,3,1.4,4.5,2.2
	c1.2,0.6,2.4,1.3,3.6,2c0.4,0.2,0.7,0.6,1,0.9c1.1,1,2.8,1.2,3.6,2.6c0.1,0.1,0.3,0.2,0.4,0.2c1.2,0.1,1.8,1,2.5,1.7
	c0.5,0.5,1.3,0.8,2,1.3c0.6,0.4,1.2,0.7,1.7,1.1c1.6,1.2,3.1,2.5,4.7,3.8c1.3,1.1,2.4,2.4,4,3.2c0.9,0.5,1.5,1.7,2.3,2.5
	c1.1,1.1,2.3,2.1,3.4,3.2c1.2,1.2,2.3,2.5,3.4,3.7c0.4,0.5,1,0.9,1.4,1.3c0.2,0.2,0.3,0.4,0.4,0.6c0.5,0.7,0.8,1.4,1.4,2
	c0.8,1,1.7,1.9,2.6,2.9c1.3,1.5,2.5,2.9,3.7,4.4c0.5,0.6,0.8,1.3,1.2,2c0.5,0.7,1.1,1.2,1.6,1.8c0.1,0.1,0.2,0.2,0.2,0.3
	c0.1,1.3,1.1,2,1.8,2.9c0.8,1.2,1.3,2.6,2.2,3.7c0.7,0.9,0.7,2.1,1.7,2.9c0.5,0.4,0.4,1.4,1.1,2.1c0.7,0.7,0.8,1.9,1.2,2.8
	c0.5,1,1.1,1.8,1.6,2.8c0.5,0.9,0.8,2,1.2,2.9c0.2,0.4,0.4,0.7,0.6,1c0,0.1,0.2,0.1,0.2,0.1c-0.2,1.2,0.9,1.8,1.1,2.8
	c0.1,0.7-0.2,1.6,0.8,2c0.1,0.1,0,0.5,0.2,0.8c0.2,0.4,0.4,0.8,0.6,1.1c0.1,0.1,0.2,0.2,0.2,0.2c0.4,1.4,0.7,2.7,1.1,4.1
	c0.2,0.5,0.4,1,0.6,1.5c0.1,0.3,0.2,0.6,0.3,1c0.1,0.8-0.2,1.7,0.8,2.1c0,0,0.1,0.1,0.1,0.2c0.4,1.8,0.7,3.5,1.1,5.3
	c0.2,0.8,0.5,1.6,0.7,2.4c0.1,0.5,0.1,0.9,0.2,1.4c0.2,2.9,1.6,5.6,1.3,8.6c1.1,1.6,0.6,3.4,0.8,5.1c0.2,2.3,0.7,4.5,0.8,6.8
	c0.1,4.6,0.2,9.3,0,13.9c-0.1,3.3-0.6,6.7-1,10c-0.3,2.3-0.3,4.8-1,7c-0.5,1.5-0.6,3-0.9,4.4c-0.4,1.7-1,3.3-1.5,4.9
	c-0.2,0.6-0.2,1.2-0.3,1.8c-0.1,0.6,0.1,1.4-0.7,1.7c-0.1,0.1-0.2,0.4-0.2,0.7c-0.1,0.9-0.2,1.8-0.8,2.8c-0.7,1.3-0.8,2.9-1.3,4.3
	c-0.1,0.4-0.4,0.7-0.6,1c-0.1,0.1-0.2,0.2-0.2,0.3c-0.4,1.3-0.7,2.6-1.1,3.9c-0.1,0.3-0.3,0.5-0.4,0.7c-0.1,0.1-0.4,0.3-0.4,0.4
	c0,0.9-0.5,1.4-0.9,2.1c-0.6,1-0.7,2.5-1.4,3.5c-0.6,0.9-0.5,2.2-1.6,2.9c-0.6,0.4-0.8,1.4-1.1,2.1c-0.7,1.5-1.2,3.1-2.2,4.3
	c-0.9,1.1-1,2.9-2.6,3.5c-0.1,0-0.1,0.2-0.1,0.3c0.1,1.2-1.1,1.8-1.6,2.7c-0.8,1.3-1.6,2.7-2.5,4c-0.4,0.6-0.8,1.1-1.2,1.6
	c-0.5,0.7-1.1,1.3-1.6,2c-0.5,0.6-0.9,1.3-1.3,1.9c-0.9,1.2-1.8,2.3-2.7,3.4c-0.4,0.5-0.7,0.9-1.1,1.4c-1.2,1.3-2.5,2.7-3.8,3.9
	c-0.8,0.8-1.7,1.4-2.5,2.2c-0.8,0.7-1.5,1.6-2.3,2.3c-0.9,0.9-1.8,1.7-2.6,2.6c-0.5,0.5-0.8,1.2-1.4,1.7c-0.8,0.7-1.8,1.4-2.6,2.1
	c-1.1,0.9-2.2,1.9-3.3,2.8c-0.6,0.5-1.4,0.8-2.1,1.3c-0.5,0.3-1.2,0.6-1.5,1.1c-0.9,1.4-2.5,1.8-3.8,2.8c-1.2,0.9-2.3,1.8-3.5,2.6
	c-0.8,0.5-1.7,0.9-2.6,1.4c-0.7,0.4-1.5,0.6-1.9,1.2c-0.4,0.7-1,0.6-1.6,0.9c-0.9,0.4-1.7,1-2.5,1.6c-0.1,0.1-0.2,0.2-0.3,0.2
	c-1.6,0.7-3.2,1.4-4.8,2.2c-1.7,0.8-3.2,1.8-4.9,2.6c-1.2,0.6-2.5,0.8-3.7,1.3c-1.1,0.4-2.1,1-3.1,1.5c-0.4,0.2-0.8,0.2-1.2,0.4
	c-0.5,0.2-1,0.5-1.6,0.8c-0.2,0.1-0.5,0.2-0.8,0.2c-0.8,0.2-1.8-0.3-2.3,0.8c-0.1,0.2-0.7,0.1-1,0.1c-0.7,0.1-1.5-0.2-1.8,0.8
	c0,0.1-0.4,0.1-0.7,0.2c-0.9,0.1-2-0.2-2.7,0.8c-0.2,0.2-0.8,0.1-1.3,0.2c-0.9,0.1-1.8-0.2-2.5,0.8c-0.2,0.3-1.1,0.2-1.7,0.2
	c-0.8,0.1-1.6-0.1-2.3,0.7c-0.2,0.2-0.8,0.1-1.3,0.2c-1.3,0.2-2.7-0.4-3.8,0.9c-0.1,0.1-0.3,0.1-0.5,0.1c-1.9,0.2-3.8,0.1-5.8,0.8
	c-1.8,0.6-4,0-5.9,0.4C159.6,284.4,155.1,284.5,150.7,284.3z M150.8,21.9C150.8,21.9,150.8,21.9,150.8,21.9c-2.8-0.1-5.7-0.1-8.5,0
	c-1.4,0-2.9-0.1-4.1,0.3c-1.2,0.5-2.4,0.5-3.7,0.6c-1.1,0-2.2,0.1-3.4,0.1c-0.4,0-0.8,0-1,0.2c-1,0.9-2.2,0.7-3.4,0.8
	c-0.8,0.1-1.6,0.1-2.4,0.3c-0.9,0.2-1.8,0.5-2.7,0.7c-1.7,0.4-3.5,0.7-5.3,1.1c-0.1,0-0.1,0.1-0.2,0.1c-1.7,0.6-3.4,1.2-5.1,1.7
	c-1.5,0.4-3,0.8-4.5,1.1c-0.1,0-0.3,0.1-0.3,0.2c-0.2,0.9-1,0.6-1.6,0.7c-0.5,0.1-1,0.2-1.4,0.4c-0.4,0.1-0.7,0.4-1.1,0.6
	c-1.2,0.4-2.8,0.4-3.5,1.2c-0.9,1-2.1,0.6-3,1.5c-0.7,0.8-2.3,0.9-3.5,1.3c-0.2,0.1-0.4,0.1-0.6,0.2c-0.9,0.5-1.7,1.1-2.5,1.6
	c-1.6,0.9-3.3,1.9-4.9,2.8c-0.8,0.4-1.6,0.8-2.4,1.2c-0.8,0.4-1.5,0.8-2.3,1.3c-0.8,0.5-1.6,1.1-2.4,1.6c-0.7,0.4-1.6,0.7-2.3,1.2
	c-1.3,0.9-2.5,1.8-3.7,2.7c-0.7,0.5-1.5,1-2.2,1.6c-0.9,0.7-1.6,1.6-2.5,2.2c-1.4,1.1-3,2.1-4.4,3.2c-1.2,1-2.2,2.3-3.3,3.5
	c-0.4,0.4-0.8,0.9-1.3,1.1c-1.5,0.5-2.2,1.8-3.2,2.8c-0.7,0.7-1.2,1.5-1.9,2.2c-0.7,0.8-1.5,1.6-2.2,2.3c-0.8,0.9-1.7,1.8-2.5,2.6
	c-0.4,0.5-0.9,0.9-1.2,1.4c-0.8,1.1-1.5,2.3-2.3,3.4c-0.9,1.2-1.8,2.3-2.7,3.4c-0.3,0.3-0.6,0.6-0.9,1c-0.8,1.4-1.5,2.8-2.4,4.1
	c-0.8,1.2-1.9,2.3-2.5,3.5c-0.7,1.4-1.9,2.6-2.1,4.3c0,0.1-0.1,0.2-0.2,0.3c-0.5,0.9-1.2,1.7-1.6,2.6c-0.5,0.9-0.8,1.9-1.2,2.9
	c0,0.1-0.1,0.1-0.2,0.2c-0.5,0.9-1.1,1.9-1.6,2.8c-0.4,1-0.7,2.1-1.1,3.1c-0.5,1.2-1.3,2.3-1.8,3.5c-0.6,1.7-1.1,3.4-1.9,5.1
	c-0.7,1.4-0.6,3.3-1.3,4.7c-0.6,1.3-0.8,2.7-1,4.1c0,0.1-0.1,0.3-0.2,0.3c-0.9,0.3-0.6,1.1-0.7,1.7c-0.1,0.7,0.2,1.8-0.1,2.1
	c-1.3,1.1-0.6,2.5-0.8,3.8c-0.1,0.5-0.1,1-0.2,1.4c-0.2,0.7-0.6,1.4-0.7,2.1c-0.1,1.2-0.1,2.4-0.1,3.6c0,0.3,0,0.8-0.2,0.9
	c-1,0.6-0.7,1.6-0.7,2.5c-0.1,2.7-0.2,5.4-0.3,8c0,3.6-0.3,7.2,0.1,10.7c0.4,3.4-0.6,6.9,0.9,10.4c0.9,2-0.2,4.6,1,6.9
	c0.4,0.8,0.1,2,0.2,3c0,0.3,0,0.8,0.2,0.9c0.9,0.4,0.6,1.2,0.7,1.9c0.1,0.7-0.1,1.7,0.2,2c1,0.8,0.7,1.7,0.8,2.6
	c0.1,0.5,0,1.2,0.3,1.3c0.7,0.4,0.5,1.1,0.7,1.7c0.3,1.4,0.7,2.8,1.1,4.2c0,0.1,0.2,0.2,0.2,0.3c0.2,0.4,0.5,0.8,0.7,1.3
	c0.4,1.4,0.8,2.8,1.3,4.2c0,0.1,0.1,0.2,0.2,0.3c0.5,0.9,1.1,1.8,1.5,2.7c0.5,1.2,0.8,2.4,1.2,3.6c0.1,0.2,0.2,0.3,0.3,0.5
	c0.5,0.8,1.1,1.7,1.5,2.6c0.4,1,0.8,2,1.1,3c0,0.1,0.1,0.2,0.1,0.2c1.3,1.3,2.2,3,2.7,4.7c0,0.1,0.1,0.2,0.1,0.3
	c0.9,1.1,2,2.2,2.6,3.5c0.8,1.7,2,3.1,3,4.6c1,1.4,1.6,3,3,4.1c0.4,0.3,0.7,0.9,1,1.4c0.5,0.7,0.9,1.5,1.4,2.1
	c0.8,0.9,1.7,1.8,2.5,2.7c0.6,0.7,1.2,1.5,1.8,2.2c1.1,1.3,2.2,2.5,3.3,3.7c0.7,0.8,1.4,1.5,2.2,2.2c0.9,0.9,1.9,1.7,2.9,2.6
	c0.8,0.7,1.6,1.5,2.4,2.2c1.1,0.9,2.1,1.7,3.2,2.6c0.9,0.8,1.8,1.6,2.8,2.3c0.6,0.5,1.6,0.7,2,1.3c0.8,1.5,2.5,1.6,3.6,2.6
	c0.6,0.6,1.5,1,2.2,1.5c1.2,0.8,2.4,1.7,3.6,2.6c0.4,0.3,0.7,0.7,1.1,0.8c1.1,0.2,1.9,1.1,2.8,1.7c0.7,0.5,1.4,1,2.2,1.3
	c1,0.5,2,0.8,3,1.2c0.1,0,0.2,0.1,0.2,0.1c0.1,0.9,0.8,0.7,1.4,0.8c0.2,0,0.5,0.1,0.5,0.1c0.2,0.9,0.9,0.7,1.5,0.8
	c0.2,0,0.4,0.2,0.6,0.3c0.3,0.2,0.6,0.4,1,0.6c0.2,0.1,0.7,0,0.8,0.2c0.5,1.3,2,0.9,2.8,1.7c0.9,0.8,2.4,0.9,3.6,1.3
	c0.1,0,0.4,0.1,0.4,0.2c0.8,1.2,2.3,1,3.4,1.6c1.3,0.7,2.9,0.8,4.3,1.2c0.1,0,0.2,0.1,0.3,0.2c0.5,0.2,1.1,0.6,1.6,0.7
	c1.6,0.4,3.2,0.8,4.8,1.1c0,0,0.1,0,0.1,0c1.3,1.3,3.2,0.8,4.7,1.6c1.1,0.6,2.8-0.3,3.9,1c0.1,0.2,0.5,0.1,0.8,0.1
	c1,0,1.9,0,2.9,0.1c0.3,0,0.6,0.1,0.9,0.2c0.6,0.2,1.3,0.6,1.9,0.7c1.3,0.1,2.6,0.1,3.8,0.1c0.4,0,0.7,0.2,1.1,0.3
	c0.5,0.2,1,0.5,1.5,0.5c3.5,0.1,7,0.3,10.4,0.3c6.3,0,12.6-0.2,18.8-0.3c0.4,0,1,0,1.1-0.2c0.7-0.9,1.6-0.7,2.5-0.7
	c1.2,0,2.3,0,3.5-0.1c0.3,0,0.7-0.1,1-0.2c0.6-0.2,1.2-0.5,1.8-0.6c1-0.1,2.3,0.3,2.9-0.2c1.4-1.1,2.9-0.6,4.3-0.9
	c0.3-0.1,0.6-0.2,0.9-0.3c0.5-0.2,0.9-0.5,1.4-0.6c1.7-0.4,3.5-0.6,5-1.3c0.9-0.4,1.7-0.6,2.7-0.7c0.2,0,0.5,0,0.7-0.2
	c1.2-1.1,3-1,4.4-1.7c1.1-0.5,2.3-0.7,3.5-1.2c1.2-0.5,2.4-1.2,3.6-1.8c1-0.4,2.1-0.7,3.2-1.1c0.1,0,0.2-0.1,0.2-0.1
	c0.1-0.9,0.8-0.7,1.4-0.8c0.2,0,0.4-0.3,0.6-0.4c0.3-0.2,0.5-0.4,0.8-0.5c1-0.4,2-0.8,3-1.1c0.1,0,0.1-0.1,0.1-0.2
	c0.9-0.5,1.7-1.1,2.6-1.6c1-0.5,2.1-0.9,3-1.5c0.9-0.5,1.5-1.5,2.6-1.6c0.1,0,0.3-0.1,0.4-0.2c1.2-0.9,2.5-1.6,3.6-2.7
	c0.8-0.8,2.1-0.7,2.7-1.8c0.3-0.5,1.1-0.7,1.7-1.1c0.7-0.4,1.3-0.8,2-1.3c0.7-0.5,1.2-1.1,1.9-1.6c0.6-0.5,1.4-0.7,1.9-1.3
	c1.4-1.4,2.8-2.9,4.5-4c0.5-0.3,1-0.7,1.4-1.2c1.1-1.1,2.2-2.3,3.3-3.4c0.8-0.8,1.8-1.4,2.6-2.3c1.2-1.3,2.1-2.9,3.3-4.2
	c1.4-1.5,2.9-2.9,4.3-4.4c0.5-0.5,0.8-1,1.2-1.6c0.5-0.7,0.8-1.4,1.3-2.1c0.9-1.3,1.9-2.5,2.8-3.8c0.5-0.6,0.8-1.4,1.3-2
	c0.9-1.3,1.8-2.5,2.6-3.8c0.4-0.7,0.8-1.5,1.2-2.2c0.5-0.8,1.1-1.6,1.7-2.5c0.3-0.5,0.6-1,0.8-1.6c0.4-0.8,0.8-1.6,1.2-2.4
	c0.1-0.2,0.1-0.4,0.2-0.5c0.5-0.9,1.2-1.7,1.6-2.6c0.8-1.9,1.5-3.9,2.2-5.8c0-0.1,0.1-0.2,0.2-0.3c1-1,1.2-2.3,1.7-3.5
	c0.5-1.3,0.8-2.6,1.1-3.9c0-0.1,0.1-0.2,0.1-0.2c1-0.3,0.7-1.2,0.8-1.9c0-0.3,0-0.8,0.1-0.9c1.1-0.6,0.7-1.7,0.8-2.5
	c0-0.2,0-0.6,0.2-0.7c1.1-0.5,0.6-1.5,0.8-2.3c0.1-0.5-0.1-1.3,0.2-1.5c1-0.6,0.7-1.4,0.8-2.2c0.1-0.6-0.1-1.3,0.2-1.6
	c0.9-1,0.6-2.2,0.7-3.3c0.1-0.6,0.1-1.2,0.3-1.8c0.2-0.6,0.5-1.2,0.6-1.8c0.1-1.3,0.1-2.6,0.2-3.8c0-0.4,0.1-0.7,0.2-1
	c0.2-0.7,0.6-1.3,0.6-2c0.1-8.4,0.1-16.8,0.1-25.2c0-1.1-0.1-2.2-0.3-3.2c-0.2-1-0.5-2-0.7-2.9c-0.2-1-0.1-2.1-0.2-3.1
	c-0.2-1-0.6-1.9-0.8-2.9c-0.4-2.1-0.8-4.3-1.1-6.5c0-0.1,0-0.2-0.1-0.2c-1.1-0.6-0.7-1.7-0.8-2.6c-0.2-1.4-1.4-2.6-1.1-4.2
	c-1.1-0.6-0.7-1.7-0.9-2.6c0-0.2,0-0.4-0.1-0.4c-1.4-0.8-0.7-2.6-1.7-3.8c-0.8-1-0.8-2.5-1.3-3.8c-0.3-0.8-0.8-1.6-1.2-2.4
	c-0.5-1-1-2-1.5-3c-0.5-1-0.9-2.1-1.4-3.1c-0.3-0.6-0.5-1.3-0.9-1.9c-0.5-0.8-1.2-1.6-1.7-2.5c-0.5-0.9-0.8-2-1.2-3
	c0-0.1-0.1-0.1-0.1-0.2c-0.9-1.3-1.8-2.5-2.6-3.8c-0.4-0.7-0.6-1.6-1.2-2.1c-0.8-0.8-1.4-1.7-2-2.7c-0.6-1.1-1.6-1.9-2.2-3.1
	c-0.5-1-1.7-1.6-2.4-2.5c-1.1-1.4-2-2.9-3.1-4.2c-0.7-0.9-1.6-1.6-2.4-2.4c-0.5-0.5-0.9-1-1.3-1.5c-0.9-1-1.6-2.2-2.6-3.2
	c-0.9-0.9-2-1.5-3-2.3c-0.3-0.2-0.5-0.6-0.8-0.9c-0.8-0.9-1.7-1.7-2.6-2.6c-0.8-0.7-1.6-1.5-2.4-2.2c-0.8-0.6-1.6-1.1-2.4-1.7
	c-1-0.8-1.9-1.6-2.9-2.4c-0.6-0.5-1.4-0.8-2-1.3c-0.8-0.6-1.3-1.6-2.4-1.7c-0.2,0-0.3-0.2-0.5-0.3c-0.5-0.5-1-1-1.6-1.4
	c-1.3-0.8-2.7-1.5-4-2.2c-0.5-0.3-1-0.7-1.5-1.1c-0.9-0.6-1.7-1.2-2.6-1.7c-0.9-0.5-2-0.8-2.9-1.4c-1-0.7-1.8-1.5-3-1.8
	c-0.8-0.2-1.5-0.7-2.2-1.1c-1.2-0.6-2.3-1.2-3.5-1.7c-1-0.4-2.1-0.7-3.2-1.1c0,0-0.1,0-0.1-0.1c-0.4-1-1.3-0.8-2-0.9
	c-0.3-0.1-0.6-0.2-0.8-0.4c-0.4-0.2-0.8-0.4-1.2-0.5c-0.3-0.1-0.7,0-0.8-0.1c-0.5-1-1.5-0.8-2.3-0.9c-0.2,0-0.6,0-0.7-0.1
	c-1-1.4-2.8-1-4.1-1.7c-1.6-0.8-3.4-0.9-5.2-1.3c-0.1,0-0.3,0-0.3-0.1c-0.6-0.9-1.6-0.7-2.5-0.8c-0.4-0.1-1,0.1-1.3-0.2
	c-0.9-0.9-2.1-0.6-3.1-0.8c-0.4,0-0.8,0.1-1.1-0.1c-1.2-1-2.6-0.7-3.9-0.8c-0.6-0.1-1.3-0.1-1.9-0.2c-1-0.2-2-0.6-3-0.7
	c-2-0.3-4.1,0.3-6.1-0.8c-0.2-0.1-0.6-0.1-0.9-0.1C158.3,21.9,154.6,21.9,150.8,21.9z"/>
<path class="st0" d="M198.2,113c-0.1,0.9,0.3,1.8-0.7,2.1c-0.1,0-0.2,0.3-0.2,0.4c-0.1,0.7-0.4,1.3-0.8,2c-0.7,1.1-0.8,2.5-1.2,3.7
	c-0.1,0.3-0.3,0.5-0.4,0.7c-0.1,0.1-0.3,0.2-0.4,0.3c-0.4,1.1-0.7,2.2-1.1,3.3c-0.6,1.4-0.8,3-1.8,4.3c-0.5,0.6-0.7,1.5-1,2.3
	c-0.4,1.3-0.8,2.5-1.3,3.8c-0.5,1.3-1.2,2.5-1.7,3.7c0,0.1-0.1,0.1-0.1,0.2c-0.4,1.1-0.5,2.4-1.1,3.3c-0.8,0.9-0.7,1.9-1,2.9
	c-0.3,1-1,1.8-1.6,2.7c-0.1,0.2-0.2,0.5-0.2,0.8c-0.1,0.7,0.2,1.6-0.9,1.9c0,0,0,0.1-0.1,0.1c-0.4,1.2-0.7,2.4-1.1,3.6
	c-0.4,1.1-1,2.1-1.5,3.2c-0.1,0.1-0.2,0.3-0.2,0.4c-0.4,1.3-0.5,2.8-1.3,3.8c-0.9,1.1-0.3,2.8-1.7,3.6c-0.2,0.1-0.1,0.5-0.2,0.8
	c-0.2,0.4-0.4,0.8-0.6,1.1c-0.1,0.1-0.2,0.2-0.2,0.3c-0.4,1.2-0.7,2.5-1.1,3.7c-0.1,0.3-0.3,0.5-0.5,0.8c-0.1,0.1-0.3,0.2-0.3,0.3
	c0.3,1.5-1,2.4-1.1,3.8c0,0.3-0.2,0.5-0.4,0.8c-0.1,0.1-0.3,0.2-0.4,0.3c-0.4,1.2-0.7,2.4-1.2,3.5c-0.5,1.1-1.1,2.2-1.6,3.3
	c0,0.1-0.1,0.1-0.1,0.2c-0.4,1.3-0.8,2.6-1.3,3.9c-0.1,0.4-0.4,0.7-0.7,1.3c0.7,0.1,1.3,0.3,2,0.3c11.1,0,22.2,0,33.4,0
	c9.9,0,19.8,0,29.8,0c0.4,0,0.9,0,1.3,0c0.3,0,0.7-0.2,1-0.3c-0.2-0.3-0.3-0.6-0.5-1c-0.2-0.4-0.2-0.8-0.4-1.2
	c-0.2-0.5-0.5-0.9-0.7-1.4c-0.1-0.2-0.2-0.5-0.3-0.7c-0.1-0.5,0.1-1.3-0.7-1.4c-0.1,0-0.2-0.2-0.2-0.3c0-0.8-0.4-1.4-0.8-2
	c-0.7-1.1-0.8-2.5-1.3-3.7c-0.4-1-1-1.9-1.5-2.9c-0.1-0.1-0.2-0.2-0.2-0.3c-0.4-1.2-0.7-2.5-1.2-3.7c-0.5-1.2-1.1-2.3-1.7-3.5
	c-0.5-1.1-0.6-2.5-1.4-3.3c-0.9-1.1-0.4-2.8-1.7-3.7c-0.2-0.1-0.1-0.5-0.2-0.8c-0.2-0.4-0.4-0.7-0.7-1.1c0-0.1-0.2-0.1-0.2-0.1
	c-0.4-1-0.7-2.1-1.1-3.1c-0.2-0.5-0.5-1.1-0.7-1.6c0-0.1-0.1-0.1-0.2-0.2c-0.4-1.1-0.7-2.2-1.1-3.3c-0.5-1.2-1.2-2.3-1.7-3.5
	c-0.1-0.2,0-0.6-0.1-0.8c-0.2-0.4-0.4-0.8-0.6-1.1c-0.1-0.1-0.2-0.2-0.3-0.4c-0.4-1.2-0.7-2.4-1.2-3.6c-0.5-1.1-1.1-2.1-1.7-3.1
	c-0.1-0.1-0.1-0.3-0.1-0.5c-0.4-1.2-0.5-2.8-1.3-3.6c-0.8-0.9-0.3-2.4-1.6-2.9c-0.2-0.1,0-0.8-0.2-1.1c-0.2-0.5-0.4-0.9-0.6-1.4
	c0-0.1-0.2-0.1-0.2-0.1c-0.4-1-0.7-2.1-1.1-3.1c-0.1-0.2-0.2-0.5-0.3-0.7c-0.2-0.4-0.5-0.7-0.6-1.1c-0.4-1.4-0.9-2.8-1.7-4
	c-0.4-0.7-0.4-1.5-1-2.3c-0.7-0.9-0.8-2.3-1.3-3.4c-0.5-1.1-1.1-2.1-1.6-3.2c-0.2-0.4-0.4-0.9-0.4-1.4c-0.1-1.1-0.1-2.2,0-3.2
	c0-0.9-0.3-1.2-1.1-1.1c-0.4,0-0.9,0-1.3,0c-13,0-26.1,0-39.1,0c-0.4,0-0.9-0.1-1.7-0.1c1.2-1.1,2.1-2,2.9-2.9
	c0.1-0.1,0.1-0.5,0.2-0.7c0.2-0.4,0.5-0.7,0.6-1.1c0.1-0.3,0.3-0.5,0.3-0.8c0-2,0-4.1,0-6.1c0-0.3-0.4-0.7-0.6-1
	c-0.1-0.2-0.2-0.3-0.3-0.5c-0.5-1.9-1.9-2.7-3.5-3.5c-1-0.6-2-0.9-3.1-0.9c-1.5,0-2.9,0-4.4,0.1c-0.3,0-0.6,0.3-0.8,0.5
	c-0.2,0.1-0.3,0.4-0.5,0.4c-1.8,0.5-2.7,1.8-3.6,3.3c-1.4,2.3-0.9,4.6-0.9,7c0,1,1.1,2.7,1.8,3.5c0.7,0.7,1.3,1.6,2.1,2.6
	c-0.5,0-0.9,0.1-1.4,0.1c-13.1,0-26.2,0-39.4,0c-2.4,0-2.4,0-2.4,2.4c0,0.6,0.1,1.2,0,1.8c-0.1,0.4-0.3,0.7-0.5,1.1
	c-0.2,0.3-0.4,0.7-0.4,1.1c-0.2,0.7,0.3,1.6-0.8,1.8c0,0,0,0.1-0.1,0.1c-0.4,1.1-0.7,2.3-1.1,3.4c-0.1,0.4-0.4,0.8-0.6,1.2
	c-0.1,0.1-0.2,0.1-0.3,0.2c-0.4,1-0.7,2.1-1.1,3.1c-0.6,1.3-1.2,2.5-1.8,3.7c-0.4,0.8-0.7,1.5-1,2.3c-0.3,0.7-0.6,1.4-0.9,2.1
	c-0.4,1.2-0.8,2.5-1.3,3.8c-0.4,0.9-0.9,1.8-1.4,2.7c-0.2,0.3-0.3,0.7-0.4,1.1c-0.1,0.7,0.1,1.5-0.8,1.8c-0.1,0-0.1,0.4-0.2,0.7
	c-0.2,0.4-0.5,0.9-0.7,1.3c-0.1,0.1-0.2,0.3-0.2,0.4c-0.1,0.7-0.7,1.5-0.7,1.9c-0.1,1.4-1,2.4-1.4,3.7c-0.4,1.3-1.1,2.4-1.6,3.7
	c0,0.1-0.1,0.2-0.2,0.3c-0.6,1.4-1.3,2.7-1.8,4.1c-0.5,1.2-0.8,2.4-1.3,3.6c-0.4,1-1,1.9-1.5,2.9c-0.1,0.1-0.2,0.3-0.2,0.4
	c-0.4,1.3-0.7,2.6-1.2,3.8c-0.4,1-1.1,1.8-1.6,2.8c-0.2,0.3-0.2,0.8-0.3,1.1c-0.1,0.6,0.2,1.4-0.8,1.6c0,0-0.1,0.1-0.1,0.1
	c-0.4,1-0.7,2.1-1.1,3.1c-0.5,1.2-1.1,2.5-1.7,3.7c0,0.1-0.1,0.1-0.1,0.2c-0.7,2-1.4,4-2.2,6c-0.4,1-1,1.9-1.5,2.9
	c-0.2,0.4-0.3,0.9-0.4,1.3c-0.2,0.4-0.4,0.8-0.6,1.2c-0.1,0.2-0.3,0.5-0.2,0.7c0.1,0.2,0.4,0.3,0.6,0.4c0.5,0.1,1,0.1,1.4,0.1
	c21.1,0,42.2,0,63.2,0c0.7,0,1.4-0.2,2-0.3c-0.3-0.8-0.5-1.5-0.7-2.1c-0.1-0.3-0.3-0.5-0.5-0.7c-0.1-0.1-0.3-0.2-0.3-0.3
	c0-1.2-0.5-2.1-1-3.1c-0.8-1.4-1.3-2.9-1.9-4.4c-0.4-1-0.6-2.2-1.2-3.1c-0.8-1.2-0.5-2.8-1.7-3.9c-0.5-0.5-0.7-1.4-0.9-2.2
	c-0.4-1.3-0.8-2.6-1.3-3.8c-0.5-1.3-1.2-2.4-1.7-3.7c-0.1-0.2-0.1-0.5-0.2-0.8c-0.1-0.5,0.1-1.2-0.7-1.3c-0.1,0-0.2-0.1-0.2-0.2
	c-0.1-1.2-0.3-2.2-1-3.3c-0.8-1.3-1.2-2.8-1.8-4.2c-0.1-0.2-0.1-0.5-0.2-0.7c-0.2-0.5-0.5-1-0.7-1.5c-0.1-0.1-0.2-0.3-0.2-0.4
	c-0.4-1.3-0.7-2.6-1.2-3.9c-0.4-1-1-1.9-1.5-2.9c-0.1-0.1-0.1-0.3-0.2-0.4c-0.4-1.2-0.4-2.8-1.3-3.6c-1.1-1.1-0.2-2.8-1.7-3.5
	c-0.2-0.1-0.1-0.6-0.2-0.9c-0.1-0.4-0.4-0.7-0.6-1c-0.1-0.2-0.3-0.5-0.3-0.7c-0.1-0.8,0.1-1.8-0.9-2.3c-0.2-0.1,0-0.6-0.1-0.9
	c-0.1-0.3-0.3-0.6-0.5-0.9c-0.1-0.1-0.3-0.2-0.3-0.3c-0.4-1-0.7-2-1-3c-0.6-1.5-1.3-3-1.9-4.5c-0.4-1.1-0.7-2.2-1.1-3.2
	c-0.5-1.3-0.8-2.6-1.8-3.7c-0.3-0.3-0.2-1-0.3-1.7c0.6,0,1-0.1,1.4-0.1c12.9,0,25.8,0,38.8,0c2,0,2,0,2,2c0,42.2,0,84.3,0,126.5
	c0,1.9,0,1.9-2,1.9c-2,0-4.1,0-6.1-0.1c-1,0-2,0.1-3-0.6c-0.7-0.5-2-0.2-3-0.3c-1-0.1-2,0.2-2.9-0.7c-0.4-0.4-1.6-0.2-2.4-0.3
	c-0.8-0.1-1.7,0.3-2.2-0.8c0-0.1-0.1-0.1-0.2-0.1c-1.6-0.4-3.2-0.7-4.9-1.1c-0.6-0.1-1.1-0.5-1.7-0.7c-0.3-0.1-0.6-0.2-0.9-0.2
	c-0.8-0.1-1.7,0.1-2.1-0.9c0,0-0.1,0-0.1-0.1c-1.2-0.4-2.4-0.7-3.6-1.1c-1.1-0.4-2.1-1-3.1-1.6c-0.1-0.1-0.2-0.2-0.3-0.2
	c-1-0.4-2.1-0.7-3.1-1.1c-0.9-0.4-1.7-1.1-2.5-1.6c-0.2-0.1-0.5-0.2-0.7-0.3c-0.5-0.1-1.2,0.1-1.2-0.8c0-0.1-0.2-0.2-0.3-0.2
	c-1.3,0-2-1.1-3-1.8c-1.3-0.9-2.7-1.5-4-2.3c-0.4-0.2-0.7-0.7-1-1c-1.5-1.2-3.3-2-4.5-3.7c-0.3-0.5-1-0.8-1.6-1.1
	c-1.3-0.7-2.2-1.8-3.2-2.8c-0.8-0.8-1.8-1.5-2.6-2.3c-0.8-0.8-1.5-1.7-2.3-2.6c-0.8-0.8-1.8-1.6-2.6-2.4c-0.4-0.4-0.5-1-0.9-1.5
	c-1-1.2-2.1-2.2-3.1-3.4c-0.5-0.6-0.8-1.4-1.2-2.1c-0.3-0.5-0.7-0.9-1-1.4c-1-1.7-1.9-3.5-3.1-4.9c-0.5-0.6-0.5-1.5-0.9-1.6
	c-1.1-0.6-0.5-2.1-1.7-2.6c-0.5-0.2-0.7-1.2-1-1.8c-0.4-1-0.7-2-1.1-3c-0.4-1-0.9-1.9-1.4-2.9c-0.1-0.2-0.3-0.3-0.4-0.4
	c-0.4-1.4-0.7-2.8-1.2-4.2c-0.5-1.5-1.1-2.9-1.7-4.3c-0.1-0.3-0.2-0.7-0.2-1c-0.1-1,0.1-2.1-0.8-3c-0.3-0.2-0.1-0.9-0.2-1.4
	c-0.1-0.9,0.1-1.8-0.8-2.5c-0.2-0.1-0.2-0.6-0.2-0.9c0-1,0-2-0.1-3c0-0.7,0.1-1.5-0.7-2c-0.2-0.1-0.2-0.7-0.2-1c0-7,0-13.9,0-20.9
	c0-0.5,0.4-1,0.6-1.4c0.1-0.3,0.2-0.7,0.3-1c0.1-1.1,0-2.2,0.1-3.2c0.1-0.6,0.4-1.1,0.6-1.6c0.1-0.4,0.2-0.9,0.3-1.4
	c0.2-1.2-0.3-2.6,0.9-3.6c0.1-0.1,0.1-0.4,0.1-0.6c0.1-0.9-0.2-1.9,0.8-2.5c0,0,0-0.1,0-0.1c0.4-1.6,0.6-3.3,1.4-4.8
	c0.7-1.2,0.6-2.6,1.6-3.8c0.7-0.8,0.8-2.1,1.3-3.1c0.4-0.9,0.8-1.8,1.2-2.7c0.5-1.1,0.9-2.4,1.8-3.2c0.8-0.8,0.6-2,1.6-2.7
	c0.5-0.4,0.6-1.4,1.2-2.1c1.1-1.1,1.4-2.8,2.7-3.8c0.5-0.4,0.8-1.1,1.2-1.7c0.4-0.7,0.8-1.3,1.3-2c0.6-0.8,1.2-1.6,1.8-2.4
	c0.3-0.4,0.6-0.9,1-1.3c1.2-1.1,2.4-2.2,3.5-3.3c0.8-0.8,1.4-1.7,2.2-2.6c0.7-0.7,1.4-1.4,2.2-2.1c0.9-0.8,1.7-1.5,2.6-2.2
	c0.8-0.7,1.6-1.3,2.4-1.9c0.6-0.5,1.1-1,1.6-1.5c0.1-0.1,0.3-0.3,0.4-0.3c1.2-0.1,1.7-1.1,2.5-1.7c0.6-0.5,1.4-0.9,2.1-1.3
	c0.5-0.3,1.1-0.6,1.6-1c0.8-0.5,1.5-1.2,2.3-1.7c0.7-0.4,1.4-0.8,2.2-1.2c1-0.6,2-1.2,3-1.7c1.1-0.5,2.2-0.9,3.3-1.3
	c0.4-0.2,0.7-0.4,1.1-0.6c0.3-0.1,0.5-0.3,0.8-0.4c0.4-0.2,0.9-0.5,1.3-0.7c0.2-0.1,0.5-0.2,0.8-0.2c0.5-0.1,1.2,0.1,1.3-0.7
	c0-0.1,0.2-0.2,0.4-0.2c1-0.2,1.8-0.2,2.8-0.9c1.1-0.8,2.8-0.8,4.3-1.2c0.5-0.1,0.9-0.4,1.3-0.6c0.4-0.1,0.7-0.3,1.1-0.3
	c1-0.1,2.1,0.1,2.9-0.9c0.2-0.2,0.8-0.1,1.2-0.2c1.1-0.2,2.1-0.5,3.1-0.8c0.3-0.1,0.5-0.1,0.8-0.1c1.8-0.1,3.5-0.3,5.3-0.8
	c1.9-0.5,4-0.2,6.1-0.4c1.2-0.1,2.3-0.4,3.4-0.6c0.3-0.1,0.6-0.1,1-0.1c1.9,0,3.8,0,5.8,0c1,0,2.1-0.3,2.9,0.6
	c0.2,0.2,0.7,0.1,1,0.1c2.5,0.1,5-0.2,7.4,0.4c1.9,0.4,3.8,0.3,5.5,0.9c1.3,0.5,2.8,0.3,3.8,0.9c1.6,1,3.6,0.3,5,1.6
	c0,0,0.1,0,0.1,0c1.5,0.4,3.1,0.8,4.6,1.2c0.2,0.1,0.6,0.1,0.6,0.2c0.3,0.9,1.1,0.6,1.7,0.7c0.5,0.1,1.2-0.1,1.3,0.7
	c0,0.1,0.1,0.1,0.2,0.2c1.1,0.4,2.3,0.7,3.4,1.1c1,0.4,1.9,0.9,2.9,1.3c1.1,0.5,2.2,1.1,3.2,1.6c0.6,0.3,1.1,0.7,1.6,1
	c1.5,0.9,2.9,1.9,4.4,2.8c0.8,0.5,1.6,0.8,2.4,1.2c0.4,0.2,0.9,0.5,1.2,0.9c0.9,1.2,2.6,1.3,3.4,2.7c0.7,1,2.1,1.5,3.1,2.3
	c0.9,0.7,1.7,1.6,2.6,2.4c0.9,0.8,1.8,1.6,2.7,2.5c0.8,0.8,1.5,1.7,2.2,2.6c0.7,0.7,1.4,1.4,2.1,2.1c0.9,0.8,1.8,1.6,2.5,2.6
	c1.3,1.5,2.6,3.1,3.8,4.7c0.5,0.7,0.8,1.6,1.3,2.3c0.8,1.2,1.8,2.4,2.6,3.6c0.5,0.8,0.8,1.7,1.2,2.5c0.4,0.7,0.8,1.4,1.2,2.1
	c0.5,0.9,1.1,1.8,1.6,2.7c0.3,0.5,0.7,1.1,0.9,1.7c0.5,1.2,0.8,2.5,1.3,3.8c0.5,1.2,1.1,2.4,1.7,3.7c0.1,0.3,0.1,0.6,0.2,0.9
	c0.2,0.4,0.4,0.7,0.6,1.1c0.2,0.3,0.3,0.7,0.4,1.1c0.2,1-0.3,2.2,0.9,2.9c0.1,0.1,0.1,0.5,0.1,0.8c0.1,0.8-0.1,1.5,0.7,2.2
	c0.4,0.4,0.1,1.5,0.3,2.3c0.1,0.6,0.4,1.1,0.6,1.6c0.1,0.3,0.2,0.7,0.3,1c0.1,1.1-0.2,2.3,0.2,3.2c1.5,4.1,0.7,8.3,0.9,12.4
	c0.1,4.2,0,8.3-0.1,12.5c0,0.8,0.2,1.6-0.7,2.2c-0.2,0.1-0.2,0.6-0.2,0.9c-0.1,1.1-0.1,2.2-0.1,3.4c0,0.3,0,0.8-0.1,0.9
	c-1.1,0.8-0.7,1.9-0.8,2.9c-0.1,0.6,0.1,1.2-0.6,1.7c-0.3,0.2-0.2,0.9-0.3,1.4c-0.1,0.6,0.2,1.4-0.7,1.7c-0.1,0-0.1,0.1-0.1,0.2
	c-0.4,1.5-0.8,2.9-1.2,4.4c-0.1,0.4-0.4,0.7-0.5,1.1c-0.1,0.2-0.2,0.3-0.3,0.5c-0.4,1.3-0.7,2.6-1.1,3.8c-0.3,0.9-0.9,1.7-1.4,2.5
	c-0.2,0.4-0.4,0.7-0.6,1.1c-0.4,0.9-0.8,1.8-1.2,2.7c-0.2,0.5-0.5,0.9-0.8,1.4c-0.5,0.9-1.1,1.7-1.6,2.6c-0.1,0.2-0.1,0.4-0.3,0.5
	c-0.5,0.8-1.1,1.7-1.7,2.5c-0.1,0.2-0.2,0.3-0.3,0.5c-0.2,1.1-1,1.7-1.7,2.4c-0.5,0.6-0.8,1.4-1.3,2c-0.5,0.6-1,1.2-1.5,1.8
	c-0.4,0.5-0.9,1.1-1.3,1.6c-0.6,0.7-1.2,1.5-1.8,2.2c-0.7,0.8-1.4,1.7-2.2,2.5c-0.8,0.9-1.7,1.7-2.6,2.6c-0.8,0.8-1.5,1.7-2.4,2.5
	c-0.8,0.8-1.8,1.5-2.6,2.3c-1.3,1.4-3.3,2-4.4,3.7c-0.4,0.5-1.2,0.7-1.8,1.1c-0.7,0.4-1.3,0.9-2,1.3c-1,0.6-2.1,1.2-3.1,1.9
	c-0.6,0.4-1.2,0.9-1.8,1.4c-0.1,0.1-0.1,0.2-0.2,0.3c-1,0.4-1.9,0.7-2.9,1.2c-0.8,0.4-1.6,0.8-2.5,1.3c-1.1,0.5-2.1,1.1-3.2,1.6
	c-1,0.5-2.1,1.1-3.1,1.7c-0.1,0.1-0.3,0.1-0.4,0.2c-1.3,0.4-3,0.4-3.8,1.3c-1.1,1.3-2.7,0.6-3.9,1.5c-1.2,0.9-3.2,0.9-4.8,1.2
	c-0.7,0.1-1.5-0.1-1.8,0.8c-0.1,0.2-0.6,0.2-0.9,0.2c-1.4,0.2-2.8-0.3-4.2,0.8c-0.6,0.5-1.9,0.1-2.8,0.2c-0.8,0-1.6-0.2-2.1,0.7
	c-0.1,0.1-0.5,0.2-0.8,0.2c-2,0-4.1,0.1-6.1,0.1c-1,0-1.4-0.3-1.4-1.4c0-42.5,0-85,0-127.6c0-1.3,0.6-1.4,1.6-1.4c5.5,0,11,0,16.6,0
	c7.4,0,14.8,0,22.2,0C197.1,113,197.6,113,198.2,113z M119.1,74c0.1,0,0.3,0,0.4-0.1c0.8,1.2,1.6,2.5,2.5,3.7
	c1.2,1.5,2.5,2.8,3.7,4.3c1.1,1.3,2.1,2.7,3,4.1c0.4,0.6,0.5,0.7,1,0.1c0.7-0.9,3.2-0.6,4,0.1c0.3,0.3,1.1,0.1,1.7,0.2
	c0-1,0.7-1.8,1.1-2.7c0.4-0.9,0.7-1.9,1.1-2.9c0-0.1,0.1-0.1,0.2-0.2c0.7-0.6,5.4-1,6.1-0.6c0.1,0.1,0.2,0.2,0.2,0.2
	c1.5,1,1.6,2.8,2.1,4.2c0.7,1.9,1.4,2.4,3.1,1.2c0.1,0,0.2,0,0.2-0.1c0.7-0.4,1-2.4,0.5-3c-0.6-0.9-1.2-1.8-1.6-2.8
	c-0.5-1.2-0.9-2.5-1.3-3.7c-0.3-0.7-0.7-1.4-1.1-2.1c-0.5-1.1-1.1-2.1-1.6-3.2c-0.4-0.9-0.6-1.9-1.2-2.8c-0.3-0.5-0.9-0.9-1.5-1.1
	c-1.1-0.3-2.2,0.7-2.4,1.9c0,0.3-0.2,0.6-0.3,0.8c-0.2,0.4-0.5,0.8-0.7,1.2c-0.1,0.2-0.1,0.5-0.2,0.8c-0.2,0.5-0.5,1-0.7,1.5
	c-0.1,0.2,0,0.4-0.1,0.6c-0.5,0.9-1.2,1.7-1.6,2.6c-0.7,1.5-1.4,3-2,4.6c-0.5,1.2-0.9,2.4-1.3,3.5c0,0.1-0.2,0.1-0.5,0.2
	c-0.1-0.7-0.1-1.3-0.1-1.9c0-4.1,0-8.2,0-12.4c0-2.8-0.1-2.9-2.9-2.5c-0.4,0.1-1,0.3-1,0.6c-0.1,0.5,0.1,1,0.2,1.6
	c0.1,0.3,0.4,0.5,0.4,0.8c0,2.4,0,4.8,0,7.2c0,0.2-0.4,0.6-0.6,0.6c-0.3,0-1-0.2-1-0.4c-0.1-1.6-1.6-2.1-2.3-3.3
	c-0.7-1.2-1.8-2.2-2.7-3.3c-0.3-0.4-0.7-0.7-0.9-1.1c-0.9-1.1-1.7-2.3-2.5-3.4c-0.4,0.3-0.7,0.7-1,0.7c-1.8-0.2-1.7,1-1.7,2.2
	c0,4.9,0,9.8,0,14.6c0,0.4,0,0.9,0.1,1.3c0.1,0.2,0.3,0.5,0.5,0.6c1.7,0.6,2.6,0,2.6-1.8c0-3.1,0-6.2,0-9.2
	C119,75,119.1,74.5,119.1,74z M168.7,230.6c0.6,2.9-0.1,3.8-2.7,3.9c-0.5,0-1,0-1.4,0.1c-2.8,0.1-2.8,0.1-2.6,3c0.1,0.7,0.3,1,1,1
	c1.5-0.1,2.9,0.1,4.4-0.7c1.3-0.6,2.7-0.8,3.8-2c1-1.1,1.9-2,1.7-3.5c0-0.4,0-0.8,0-1.2c0-0.2,0.3-0.3,0.4-0.4
	c0.1,0,0.3,0.2,0.3,0.4c0.1,0.4,0,1.1,0.2,1.3c1.3,0.9,2.5,2.2,4.3,2.3c0.5,0,1,0,1.6,0c2.2,0.3,4-0.4,5.5-1.9
	c0.5-0.5,1.1-1,1.2-1.6c0.4-2.3,0.6-4.6-1.5-6.3c-0.1-0.1,0-0.6,0.1-0.8c0.5-0.9,1.6-1.5,1.5-2.7c-0.1-0.9,0.5-2.1-0.9-2.6
	c-0.1,0-0.1-0.2-0.1-0.3c0-1.7-1.6-1.8-2.6-2.2c-1.1-0.5-2.6-0.2-3.9-0.3c-1.6-0.1-3.1,0.5-4,1.5c-1.2,1.3-1.9,3-1.4,4.9
	c0.1,0.3,0.3,0.5,0.5,0.7c0.7,0.5,1,2.3,0.4,2.8c-1.1,0.9-1.4,2.2-1.9,3.4c-0.1,0.2-0.6,0.5-0.7,0.4c-0.4-0.3-0.7-0.8-1.1-1.2
	c-0.8-1-2-1.4-3.1-1.6c-1.8-0.3-1.8-0.2-1.8-2c0-0.2,0-0.3,0-0.5c0-0.9,0.4-1.4,1.4-1.3c1.5,0.1,3,0.1,4.4,0c0.4,0,1-0.4,1-0.6
	c0.1-0.8,0-1.6,0-2.4c-3.7,0-7.2,0-10.8,0c0,3.3,0,6.4,0,9.4C164.4,229.8,166.6,230.2,168.7,230.6z M164.8,76.9
	C164.8,76.9,164.8,76.9,164.8,76.9c0,1.1,0,2.2,0,3.2c0,1.7,0,3.4,0,5.2c0,0.6,0,1.1,0.9,1.3c3,0.5,5.7-0.8,8.6-1.1
	c0.6-0.1,1.3-0.9,2.1-1c0.1,0,0.2-0.2,0.2-0.2c0.8-0.9,1.7-1.6,2.4-2.6c0.7-0.9,1.4-1.8,1.6-2.9c0.5-2.6,0-5-1.8-7.2
	c-1.2-1.4-2.6-2.3-4.3-2.8c-0.2-0.1-0.4-0.2-0.6-0.3c-0.4-0.2-0.9-0.5-1.3-0.6c-2.2-0.1-4.4,0-6.6-0.1c-1,0-1.3,0.4-1.3,1.3
	C164.8,71.7,164.8,74.3,164.8,76.9z M134,239.2c0.3-0.3,0.6-0.5,0.9-0.8c0.6-0.6,1.1-1.1,1.6-1.7c0.3-0.3,0.5-0.7,0.8-1
	c0.7-0.8,1.5-1.5,2.2-2.3c0.8-0.9,1.5-1.8,2.1-2.8c0.6-1,1.4-2.1,1.6-3.2c0.5-2.2,0-4.1-1.7-5.8c-1-1-1.7-1.9-3.3-1.8
	c-0.2,0-0.4-0.1-0.7-0.2c-0.5-0.2-1-0.7-1.5-0.6c-1.2,0.2-2.3,0.6-3.5,1c-0.1,0-0.1,0.2-0.2,0.3c-0.5,0.5-1,1-1.5,1.5
	c-0.8,0.8-1.7,1.4-1.6,2.8c0.1,1,0.1,2,0,3c-0.1,1.5,0.8,2.3,1.8,3.1c0.9,0.7,1.9,1.3,2.9,2c0.6,0.4,0.6,0.7,0.1,1.1
	c-0.8,0.7-1.7,1.4-2.3,2.2c-0.4,0.5-1,1.3,0.2,1.9C132.8,238.1,133.4,238.7,134,239.2z M162.7,67c-0.7,0-1.8-0.2-2.2,0.2
	c-1,1-2.1,0.5-3.1,0.8c-1,0.3-2.1,0.7-3,1.1c-0.7,0.3-1.4,0.8-1.9,1.4c-1.1,1.3-2.5,2.6-2.3,4.6c0,0.2-0.4,0.4-0.4,0.6
	c-0.1,0.6-0.3,1.3-0.3,1.9c0,0.2,0.6,0.4,0.7,0.7c0.2,1.2,0,2.4,1,3.3c0.6,0.5,0.8,1.5,1.4,2c1.6,1,3.1,2.3,5.1,2.2
	c0.1,0,0.2,0,0.2,0c1.1,1.2,2.6,0.8,4,0.8c2,0.1,2.8-1.1,2.2-3c-0.1-0.4-0.6-0.8-0.9-0.8c-2.1-0.3-4.2,0-6.3-1.1
	c-1.5-0.8-2.3-1-2.6-2.7c-0.1-0.4-0.5-0.9-0.5-1.3c-0.1-0.6-0.1-1.2,0-1.8c0-0.3,0.4-0.6,0.4-0.9c0.2-1.4,1.4-2.4,2.4-2.8
	c1.5-0.7,3.2-1.6,5.1-1.2c0.4,0.1,0.9,0,1.3-0.1c1-0.2,1.3-0.9,0.9-1.7C163.5,68.5,163.1,67.8,162.7,67z M182.5,77
	c0,2.7,0,5.4,0,8.2c0,1,0.3,1.5,1.5,1.4c2.6-0.1,5.1,0,7.7,0c3,0,3,0,2.7-3c-0.1-0.7-0.3-1-1-0.9c-1.9,0-3.8,0-5.6,0
	c-1,0-1.3-0.3-1.3-1.3c0-3.6,0-7.1,0-10.7c0-2.9,0-2.9-2.9-2.8c-0.8,0-1,0.3-1,1.1C182.6,71.6,182.5,74.3,182.5,77z M124.7,223.7
	c0,2,0,3.7,0,5.4c0,0.1-0.1,0.2-0.2,0.3c-1.1,1.3-1,3.7,0.3,4.6c0.6,0.4,1.7,0.3,2.6,0.3c0.2,0,0.4-0.9,0.4-1.4c0-2.9,0-5.8,0-8.6
	c0-1.2,0-2.3-0.1-3.5c0-0.3-0.3-0.8-0.6-0.9c-0.6-0.2-1.4,0-1.6-0.9c0,0-0.5,0-0.6,0.2c-0.9,1.2-2.3,1.8-3.6,2.5
	c-1.4,0.7-1.9,1.7-1.5,3.1c0.3,1,1.1,1,1.7,0.7C122.5,225.2,123.4,224.5,124.7,223.7z"/>
<path class="st0" d="M242.7,206c1,0.3,1.9,0.6,2.9,0.9c0.1,0,0.3,0.1,0.5,0.1c2.7,0,5.3,0,8.1,0c-0.1-0.3,0-0.7-0.2-0.8
	c-1.5-1.3-2.9-2.7-4-4.5c-0.6-1-1.6-1.7-2.4-2.6c-0.2-0.2-0.3-0.6-0.3-1c-0.1-1,1.7-2.3,2.5-1.8c0.6,0.5,1,1.3,1.5,2
	c0.8,1,1.6,2,2.5,3c0.5,0.6,0.9,1.1,1.4,1.7c0.5,0.7,0.8,1.4,1.3,2c1,1.1,2.1,2,2.8,3.3c0.5,1,1.5,1.7,2.2,2.6c0.8,1,1.6,2,2.2,3.1
	c0.1,0.2-0.7,1.1-1.2,1.5c-0.3,0.2-1.1,0.3-1.3,0.1c-1.1-1.4-2.1-2.9-3.2-4.3c-0.2-0.3-0.7-0.5-1.1-0.6c-3.7-1.2-7.6-0.8-11.4-0.9
	c-0.4,0-0.9,0-1.3,0.1c-0.3,0.1-0.5,0.3-0.7,0.4c0.2,0.2,0.4,0.3,0.5,0.5c0.1,0.2,0.2,0.4,0.3,0.6c0.5,0.8,1.1,1.7,1.6,2.5
	c0.1,0.2,0.3,0.3,0.3,0.5c0.1,1.2,0.9,1.8,1.7,2.5c0.1,0.1,0.2,0.2,0.3,0.4c0.4,0.7,0.7,1.5,1.1,2.2c0.5,0.8,1.2,1.6,1.8,2.4
	c0,0.1,0.1,0.1,0.1,0.2c0.4,1.2-0.9,1.5-1.3,2.3c-0.1,0.2-1-0.1-1.6-0.2c-0.1,0-0.2-0.3-0.3-0.3c-1.1-0.3-2.3-0.3-3.4-1.1
	c-0.7-0.5-1.9,0-2.6-0.9c-0.2-0.2-0.9,0-1.4,0.1c0.1,0.6,0.2,1.2,0.4,1.7c0.4,0.9,1.4,1.4,1.6,2.5c0.1,0.6,0.7,1.1,1.1,1.6
	c0.3,0.4,0.5,0.8,0.7,1.2c0.1,0.2,0.2,0.6,0.4,0.7c0.6,0.4,0.7,1.3,0.1,1.7c-0.3,0.3-0.6,0.6-1,1c-0.5,0-1.3,0.4-1.6-0.7
	c0-0.1-0.3-0.1-0.4-0.1c-1-0.1-1.8-0.3-2.8-0.8c-1.4-0.8-3.1-0.8-4.7-1.2c-0.2,0-0.4,0-0.5,0c-0.8-1.3-2.2-0.8-3.3-1.1
	c-1.4-0.3-1.8-1.1-1.1-2.4c0.2-0.3,0.2-0.8,0.5-1.5c0.6,0.2,1.2,0.5,1.9,0.7c0.1,0,0.1,0.1,0.2,0.1c1.5,0.4,3,0.8,4.5,1.3
	c0.4,0.1,0.7,0.5,1.1,0.6c0.6,0.1,1.3,0.1,1.9,0.1c-0.1-0.6-0.2-1.2-0.5-1.7c-0.4-0.8-1-1.6-1.5-2.3c-0.5-0.8-0.9-1.6-1.5-2.4
	c-0.4-0.5-0.9-1-1.3-1.5c0,0-0.1-0.1,0-0.1c0.4-0.8,0.7-1.7,1.3-2.3c0.4-0.4,1.2-0.4,1.5,0.5c0,0.1,0.2,0.2,0.3,0.2
	c1.5,0.4,3,0.7,4.5,1.1c0.4,0.1,0.7,0.4,1.1,0.6c0.6,0.2,1.2,0.3,1.9,0.5c0-1,0.2-1.6-0.7-2.2c-0.6-0.4-0.8-1.4-1.2-2.1
	c-0.3-0.5-0.6-1.1-1-1.6c-0.4-0.5-0.8-1-1.1-1.5c-1.2-1.9-1.1-2.2,1.2-2.8c0-1.1,0-2.3,0-3.5C242.5,206.2,242.6,206.1,242.7,206z"/>
<path class="st0" d="M119.2,52.1c0.3-1.6,0.6-3.1,1-4.6c0.2-0.6,0.5-1.2,0.7-1.8c0.2-0.5,0.4-1,0.6-1.6c0-0.1,0.1-0.2,0.1-0.3
	c0.4-1.7,0.8-3.4,1.2-5.1c0.1-0.5,0.4-1,0.6-1.5c0.1-0.4,0.3-0.7,0.3-1.1c0.2-0.9-0.3-2.1,0.9-2.7c0.2-0.1,0.2-0.8,0.1-1.1
	c0-1,0.3-1.4,1.4-1.4c1.3-0.1,1.9,0.7,2.5,1.6c1.1,1.8,2.4,3.6,3.7,5.4c0.5,0.7,0.7,1.7,1.3,2.3c1.1,1.1,1.1,2.8,2.7,3.6
	c0.6,0.3,0.7,1.4,1.2,2.1c0.6,1,1.1,2,2.6,1.7c0.8-0.2,1.8,0.1,2.6-0.1c0.9-0.2,1.8-0.5,2.6-1.1c0.3-0.2,0.2-1.2,0-1.8
	c-0.1-0.4-0.7-0.9-1-0.9c-1.2,0.2-1.8-1-2.8-1.1c-1-0.2-1.7-1-1.8-1.9c-0.2-1.1-0.2-2.2,0-3.3c0-0.5,0.5-0.9,0.9-1.3
	c0.8-0.7,1.4-1.5,2.7-1.5c1.1,0.1,2.2-0.5,3.3-0.6c1.8-0.1,1.9,0,1.9,1.8c0,0.2,0,0.5-0.1,0.8c-0.4,0-0.9,0.2-1.3,0.1
	c-1.4-0.3-2.6,0.5-3.8,1.1c-0.3,0.2-0.5,0.7-0.6,1.2c0,0.2,0.5,0.5,0.7,0.7c0.8,1.1,2.5,0.5,3.1,1.8c0,0.1,0.1,0.1,0.2,0.1
	c1.1,0,1.3,0.8,1.9,1.5c0.9,1,0.6,2,0.7,3c0.2,1.2-0.9,1.6-1.4,2.3c-0.7,0.9-2,0.7-2.7,1.3c-1.5,1-3.1,0.6-4.6,0.7
	c-0.3,0-0.6-0.4-1-0.6c-0.3-0.1-0.9-0.3-0.9-0.2c-0.7,1.2-1.7,0.9-2.4,0.8c-0.9-1.2-1.7-2.1-2.3-3.1c-0.4-0.8-0.5-1.7-1.3-2.2
	c-0.3-0.2-0.6-0.6-0.9-0.6c-1.6,0-3.2-0.1-4.8,0.1c-1,0.1-1.9,0.6-2.8,1c-0.3,0.1-0.3,0.8-0.4,1.2c-0.2,0.7-0.5,1.3-0.7,2
	c-0.2,0.7-0.2,1.3-0.3,2c-0.1,0.5-0.3,1.1-0.6,1.6c-0.4,0.7-0.8,1.4-1.5,0.1C120.5,52.2,119.7,52.2,119.2,52.1z M129.6,41.5
	c0.1-0.9,0.1-1.6-0.7-2.3c-0.6-0.5-0.8-1.5-1.2-2.3c-0.1-0.2-0.4-0.3-0.5-0.3c-0.2,0-0.4,0.3-0.4,0.4c-0.1,0.4-0.1,0.9-0.3,1.1
	c-1.3,1-0.5,2.2-0.7,3.3C127.1,41.5,128.4,41.5,129.6,41.5z"/>
<path class="st0" d="M48,130.8c-0.7-0.3-1.3-0.6-1.9-0.8c-0.4-0.2-0.8-0.2-1.3-0.3c-0.9-0.2-2,0.2-2.5-0.9c0,0-0.1,0-0.1,0
	c-1.6-0.4-3.2-0.7-4.7-1.1c-0.7-0.1-1.6,0.2-2.1-0.8c0,0-0.1-0.1-0.1,0c-1.6,0.3-2.8-1-4.3-1.1c-1.4-0.1-2.1-0.7-2.2-2.1
	c0-0.5,0-1,0-1.5c1.4-0.5,2.8-0.8,4.1-1.4c1-0.4,1.9-1.1,2.8-1.6c0.1-0.1,0.3-0.1,0.5-0.1c1.7-0.2,3.1-1,4.5-1.9
	c1-0.6,2.2-0.8,3.3-1.2c0.4-0.1,0.8-0.2,1.2-0.4c-1.3-0.5-2.1-1.9-3.8-1.6c-0.3,0.1-0.8-0.3-1.2-0.5c-0.4-0.1-0.7-0.3-1.1-0.4
	c-1-0.2-2.1,0.2-2.9-0.8c-0.3-0.3-1.2-0.2-1.9-0.2c-1.8-0.1-1.8-0.1-1.8-2c0-0.6,0.1-1.1,0.1-2c0.8,0.3,1.5,0.5,2.2,0.7
	c0.3,0.1,0.6,0.3,1,0.4c1,0.2,2.2-0.2,2.9,0.9c1.6-0.3,2.8,0.9,4.4,1.1c0.8,0.1,1.9-0.3,2.4,0.8c0,0,0.1,0.1,0.1,0.1
	c1.7-0.4,3.1,1,4.7,1.1c1.1,0,1.8,0.9,1.8,2.1c0,0.8-0.7,1.5-1.8,1.7c-0.4,0.1-0.8,0.4-1.3,0.6c-0.1,0.1-0.2,0.2-0.4,0.3
	c-1.3,0.4-2.6,0.7-3.9,1.2c-1.2,0.5-2.4,1.2-3.6,1.8c-0.7,0.4-1.5,0.7-2.3,1c-1,0.4-2.1,0.7-3.1,1.1c-0.2,0.1-0.4,0.4-0.4,0.6
	c0,0.1,0.2,0.3,0.4,0.4c0.6,0.3,1.1,0.6,1.7,0.8c0.4,0.1,0.9,0.1,1.3,0.2c0.7,0.1,1.3-0.1,1.9,0.7c0.2,0.3,1.2,0.2,1.8,0.3
	c0.7,0.1,1.5-0.2,1.9,0.7c0.1,0.2,0.7,0.2,1,0.2C48.6,126.7,48.7,127.4,48,130.8z"/>
<path class="st0" d="M47.9,193.5c0.5,0.8,0.9,1.4,1.1,2c0.1,0.4-0.2,0.9-0.3,1.5c0.4,0.3,1,0.6,1.4,1c0.7,0.8,1.5,1.6,1.9,2.6
	c0.3,0.7,0.2,1.6,0.1,2.5c-0.1,1.2,0.2,2,1.5,2.3c0.5,0.1,1.1,0.6,1.3,1c0.8,1.7,1.8,3.5,1.1,5.3c-0.4,0.9-1.5,1.6-2.3,2.2
	c-0.8,0.7-1.7,1.2-2.7,1.7c-0.9,0.5-1.8,0.8-2.7,1.2c-0.9,0.4-1.9,0.7-2.8,1.2c-0.3,0.1-0.5,0.6-0.8,0.7c-0.4,0.1-1.1,0.1-1.2-0.1
	c-0.4-0.8-1.6-1.3-1-2.3c0.3-0.5,0.9-1,1.4-1.3c0.6-0.2,1.2-0.3,1.8-0.9c0.7-0.7,1.9-0.8,2.9-1.2c1.7-0.8,3.3-1.6,4.4-3.2
	c0.1-0.1,0.1-0.5-0.1-0.6c-0.9-1-1.7-2.1-2.7-2.9c-0.4-0.3-1.2,0-1.9,0.1c-0.1,0-0.2,0.4-0.3,0.5c-1,0.4-2,0.8-3,1.1
	c-0.3,0.1-0.5,0.3-0.7,0.4c-0.1,0.1-0.1,0.3-0.2,0.4c-1,0.4-1.9,0.8-2.9,1.1c-0.2,0.1-0.5,0-0.6,0.2c-0.3,0.4-0.5,1.1-1.1,0.6
	c-0.8-0.6-1.3-1.4-1.1-2.4c0.1-0.7,0.4-1.2,1.3-1.2c0.3,0,0.6-0.3,0.9-0.5c0.1-0.1,0.2-0.2,0.4-0.3c1-0.4,2-0.7,3-1.2
	c0.9-0.4,1.8-1,2.7-1.6c0.1-0.1,0.3-0.2,0.4-0.2c1.7-0.6,1.8-2,0.6-3.4c-1-1.2-2-2.2-3.7-1.6c-1,0.4-1.8,1.1-2.7,1.6
	c-0.6,0.3-1.2,0.6-1.8,0.9c-1.3,0.5-2.6,1.1-4,1.5c-1.1,0.3-1.1-0.7-1.1-1.4c0-0.6-0.4-1.4,0.8-1.7c1.1-0.3,2.1-1.1,3.2-1.6
	c1-0.5,2-0.8,3-1.3c1-0.5,1.9-1.2,2.9-1.6C45.6,194.2,46.5,192.8,47.9,193.5z"/>
<path class="st0" d="M107.9,264.9c-1.4,0-2.4,0-3.3,0c-0.6,0-1.2,0.1-1.6-0.6c-0.2-0.3-1-0.4-1.6-0.3c-1,0.1-1.6-0.5-1.9-1.1
	c-0.3-0.6-0.2-1.4,0.6-1.9c0.1,0,0.1-0.1,0.1-0.2c0.4-1.6,0.7-3.2,1.1-4.7c0.1-0.4,0.4-0.7,0.6-1.1c0.2-0.6,0.3-1.3,0.4-2
	c0.1-0.7-0.2-1.5,0.7-2c0.3-0.1,0.2-1,0.2-1.5c0.1-0.8-0.2-1.7,0.8-2.4c0.3-0.2,0.3-1.1,0.3-1.7c0-0.9,0.4-1.3,1.2-1.1
	c1.1,0.2,2.3-0.3,3.2,0.8c0.1,0.1,0.2,0.1,0.3,0.1c1.2,0.4,2.7,0.4,3.6,1.2c1.1,0.9,2.3,1.6,3.4,2.5c1.6,1.3,2,3,2.5,4.6
	c0.5,1.4,0.9,3.3-0.4,4.8c-0.2,0.2-0.3,0.5-0.3,0.8c0,1.3-0.9,2.1-1.8,3c-1,1.1-2.4,1.3-3.5,2.1
	C110.9,265.4,109.2,264.6,107.9,264.9z M103.5,260.8c0.8,1.9,2.6,1.3,4.2,1.3c0.6,0,1.2,0.1,1.7,0c1.2-0.4,2.3-0.8,3.5-1.4
	c0.4-0.2,1-0.5,1-0.8c0-1.3,1.5-2.1,1.2-3.6c-0.2-0.6-0.1-1.4,0-2c0.2-2-1.4-2.8-2.5-4c-0.6-0.7-1.7-0.8-2.1-1.3
	c-0.8-0.9-1.7-0.6-2.6-0.8c-0.2,0-0.6,0.2-0.7,0.4c-0.6,1.2-1.3,2.3-1.1,3.8c0,0.3,0,0.7-0.1,0.8c-1.1,0.5-0.6,1.4-0.8,2.2
	c-0.1,0.5,0,1.3-0.2,1.5c-0.8,0.6-0.6,1.3-0.7,2C104,259.3,103.8,259.9,103.5,260.8z"/>
<path class="st0" d="M78,73.1c-0.4,0.7-0.7,1.4-1.1,2c-0.3,0.6,0.2,1.5-0.8,1.8c-0.1,1.5-1.5,1.6-2.3,2.5c-0.1,0.1-0.1,0.2-0.2,0.2
	c-1.7,0.2-3.3,1.7-4.9,0.9c-0.9-0.5-2.1-0.4-2.9-1.5c-0.6-0.9-1.7-1.3-2.4-2.1c-0.6-0.7-1.5-1.4-1.5-2.6c0-0.4-0.3-0.9-0.4-1.3
	c-0.1-0.6-0.3-1.2-0.2-1.7c0.2-0.9,0.4-1.8,0.8-2.6c0.6-0.9,1.3-1.9,2.1-2.6c0.9-0.7,2-1.5,3.1-1.7c1.1-0.3,2.5-0.8,3.5,0.5
	c0.1,0.1,0.3,0.1,0.4,0.2c1,0.4,2,0.7,3,1.1c0.4,0.2,0.9,0.6,1.1,1.1c0.5,1,0.9,2,1.3,3C77.2,71.1,77.6,72.1,78,73.1z M70.2,76.9
	c3.1,0.1,3.9-0.7,3.8-3.8c0-1-0.3-1.8-0.8-2.7c-1.1-1.9-2.6-2.6-4.6-2.6c-0.6,0-1.2,0-1.8,0.1c-0.2,0-0.5,0-0.7,0.2
	c-1,0.8-1.4,1.9-1.3,3.1c0.1,0.9,0.2,1.9,0.6,2.7c0.3,0.6,1,0.9,1.4,1.4c0.8,1,1.5,1.8,2.9,1.6C69.9,76.9,70.1,76.9,70.2,76.9z"/>
<path class="st0" d="M243.6,73.9c-0.3,0.7-0.7,1.3-1,2c-0.1,0.1-0.1,0.2-0.1,0.3c-0.4,2.2-1.9,3.3-3.7,4.5c-0.9,0.6-1.6,0.7-2.5,0.8
	c-0.3,0.1-0.6,0.2-0.8,0.4c-0.6,0.7-1.2,0.5-1.9,0.1c-0.3-0.2-0.6-0.4-0.9-0.4c-2,0-2.9-1.4-4-2.7c-1.2-1.4-1.4-3.1-1.7-4.7
	c-0.1-0.4,0.3-0.9,0.5-1.4c0.1-0.1,0.2-0.3,0.2-0.4c0.1-1.6,1.2-2.8,2.1-4c0.1-0.2,0.4-0.3,0.6-0.4c1.1-0.2,1.6-1.6,2.9-1.3
	c0.8-1.3,2-0.7,3.1-0.8c0.4,0,0.9,0.3,1.3,0.5c0.1,0.1,0.3,0.2,0.4,0.2c1.8,0.1,2.7,1.6,4,2.4c0.1,0.1,0.2,0.3,0.2,0.5
	c0.1,0.8,0.1,1.6,0.9,2.2c0.3,0.3,0.1,1.1,0.2,1.7C243.4,73.8,243.5,73.9,243.6,73.9z M230.2,74.9c0.1,0,0.2,0.1,0.3,0.1
	c0,1.9,0.4,3.3,1.4,3.5c1.3,0.3,2.6,0.2,3.9,0.1c0.3,0,0.6-0.5,0.9-0.7c0.4-0.4,0.8-0.7,1.2-1.1c0.8-0.6,1.6-1.2,1.6-2.4
	c0-0.2,0.3-0.4,0.4-0.6c0.1-0.3,0.4-0.7,0.3-0.8c-0.7-1.1-1.2-2.3-2.1-3.1c-1-0.9-5.6,0.1-6.4,1.3C231.1,72.4,230.8,73.7,230.2,74.9
	z"/>
<path class="st0" d="M77.6,239.8c0.6-1.9-0.4-2.6-1.5-3.4c-1-0.7-1.8-1.6-2.7-2.4c0.4-0.5,1-1.3,1.6-2c0.1-0.1,0.5-0.1,0.6-0.1
	c0.8,1.5,2.6,1.7,3.7,2.8c0.6,0.6,1,1.4,1.4,2.2c0.2,0.5,0.2,1.1,0.5,1.6c0.5,0.8,0.7,1.4-0.2,2c-0.1,0.1-0.1,0.2-0.2,0.3
	c-0.4,1-0.7,2.1-1.2,3.1c-0.3,0.6-0.9,1-1.4,1.5c-0.5,0.6-1,1.2-1.4,1.9c-0.6,0.7-1.3,1.3-1.7,2.1c-0.4,0.7-0.7,1.2-1.5,1
	c-0.2,0-0.4-0.1-0.5-0.2c-0.8-0.6-1.7-1.2-2.5-1.9c-0.9-0.8-1.6-2-2.6-2.4c-1.2-0.6-0.5-2.1-1.7-2.7c-0.5-0.2-0.1-2.3,0.4-2.8
	c0.1-0.1,0.2-0.1,0.2-0.2c-0.1-1.6,1.5-1.9,2.3-2.2c1.1-0.5,2.6,0,3.9,0c0.1,0,0.1,0.2,0.1,0.2C74.6,238.6,76.1,239.2,77.6,239.8z
	 M69.5,242.4c0.3,1.3,1.8,3.5,2.9,3.8c0.4,0.1,1.1,0,1.2-0.2c0.5-1.1,1.1-2.1,2.1-2.8c0.1-0.1,0-0.6-0.1-0.6
	c-0.8-0.3-1.1-1.4-2.2-1.2c-0.2,0-0.5-0.1-0.5-0.2c-0.5-1.1-1.5-1-2.2-0.6C70.1,240.9,69.9,241.8,69.5,242.4z"/>
<path class="st0" d="M89.6,50.5c0-0.9-0.3-1.7-0.1-2.3c0.2-0.6,0.9-1.3,1.5-1.5c1.9-0.5,3.6-1.6,5.7-1.3c1.1,0.1,1.8,0.7,2.5,1.3
	c0.6,0.5,1.1,1.1,1.6,1.7c0.1,0.1,0.1,0.1,0.2,0.2c0.4,1,0.5,2.2,1.1,2.9c0.8,0.9,0.4,2.3,1.6,2.9c0.1,0,0.1,0.3,0.2,0.4
	c0.1,0.7,0,1.3,0.8,1.7c0.2,0.1,0.1,0.9,0.2,1.1c-1.1,0.8-2.1,1.5-3.1,2.2c-0.1,0-0.1,0.1-0.2,0.1c-2.5,0.8-4.9,1.6-7.6,1.1
	c-0.6-0.1-1.2-0.7-1.7-1.1c-1-0.9-1.1-2-1.1-3.3c0-1.5,0.6-2.4,1.7-3.3c0.9-0.7,1.6-1.6,2.5-2.4c0.3-0.2,0.7-0.3,1-0.5
	c0.2-0.2,0.5-0.6,0.5-0.8c-0.3-1-1.9-1.4-2.8-0.9C94,48.9,93.5,49,93,49.2c-0.6,0.3-1.1,0.6-1.7,0.9C90.9,50.3,90.3,50.3,89.6,50.5z
	 M101,56.8c-0.6-1.3-1.2-2.6-1.7-3.9c-0.2-0.5-0.3-0.9-0.9-0.5c-0.9,0.6-1.9,1.1-2.6,1.8c-0.6,0.7-1,1.6-1.5,2.5c0,0,0,0.1,0,0.1
	c0.8,0.2,0.9,1.3,2,1.4C98.3,58.4,99.5,57.4,101,56.8z"/>
<path class="st0" d="M163,43.2c0-0.7-0.2-1.6,0-2.3c0.5-1.7,1.1-3.3,2.7-4.4c1.7-1.1,3.3-2.2,5.4-1.8c1.7,0.3,3.2,1.1,4.5,2.3
	c2.8,2.5,2.1,5.8,1.8,8.8c-0.1,1.2-1.2,2.4-2.2,3.4c-0.8,0.8-1.8,1.3-2.8,1.9c-0.7,0.4-4.3,0.1-4.9-0.5c-0.6-0.5-1.4-0.5-2.1-1.1
	C163.6,47.8,162.7,45.9,163,43.2z M174.8,43.3c-0.1-1.5-0.5-2.4-0.8-3.3c-0.6-1.7-2-1.7-3.1-2.3c-0.7-0.5-1.5,0.3-2.3,0.8
	c-1.7,1-2,2.7-2.5,4.3c-0.4,1.2,0.1,2.3,0.7,3.4c0.5,0.9,2,2.2,3,2.3c1.5,0.2,2.4-0.6,3.3-1.7C174.1,45.6,175,44.5,174.8,43.3z"/>
<path class="st0" d="M256.9,102.2c0.7,0,1.1,0.1,1.5,0c1.4-0.2,2.5,0.4,3.4,1.2c0.7,0.6,1.5,1.1,1.9,1.9c0.5,1,0.9,2.1,1.1,3.2
	c0.2,0.6,0.1,1.4,0,2c-0.2,1.3-0.9,2.4-1.6,3.5c-0.8,1.3-2.3,1.6-3.2,2.6c-0.2,0.2-0.5,0.1-0.8,0.2c-0.9,0.1-1.8-0.2-2.5,0.8
	c-0.1,0.2-1-0.1-1.5-0.2c-0.4-0.1-0.7-0.5-1-0.4c-1.8,0.2-2.9-1-3.9-2.1c-1.2-1.5-2.3-3.3-1.9-5.3c0.2-1.2,0.7-2.3,1.2-3.4
	c0.7-1.4,2.2-2,3.3-3C254.3,101.8,255.8,102.7,256.9,102.2z M255.8,114.1c0.7,0,1.4,0.1,2-0.2c0.9-0.4,1.8-1.1,2.6-1.8
	c0.8-0.7,1.7-1.5,1.5-2.7c-0.1-0.7-0.6-1.3-0.7-2c-0.3-1.7-1.9-1.8-2.9-2.2c-2-0.6-3.6,0.6-5.2,1.7c-0.8,0.6-0.8,1.4-1.3,2
	c-0.5,0.8-0.2,3.4,0.6,4C253.5,113.7,254.5,114.4,255.8,114.1z"/>
<path class="st0" d="M43.3,104c-1.9,0.2-3-0.7-2.7-2.1c0.3-1,0.9-2,1.4-2.9c0.4-0.7,0.9-1.4,1.4-2.1c0.6-0.8,1.2-1.6,2.4-1.6
	c1,0,2.1-0.2,3.1,0.1c1.2,0.3,2.3,1,3.4,1.6c0.1,0,0.1,0.1,0.2,0.2c1.1,0.4,2.1,0.8,3.2,1.2c1,0.4,2,0.7,2.9,1.2
	c0.2,0.1,0.1,1,0,1.5c0,0.2-0.4,0.2-0.5,0.4c-0.4,1.1-0.6,2.2-1.1,3.2c-0.4,0.9-1.1,1.6-1.6,2.4c-0.2,0.3-0.6,0.6-0.7,1
	c-0.6,1.3-2,0.8-2.8,1.6c-0.1,0.1-0.5,0.2-0.7,0.1c-0.9-0.3-2-0.3-2.6-0.9c-0.6-0.6-1.2-1.2-1.5-2.2c-0.4-1.3-0.6-2.5-0.5-3.7
	c0.1-0.9,0.5-1.8,0.7-2.8c0,0,0-0.1,0-0.1c-0.1-0.6-0.2-1.2-0.4-1.8c-0.5,0.3-1.2,0.5-1.6,1c-0.8,0.9-1.4,2-2,3
	C43.3,102.9,43.4,103.5,43.3,104z M50.4,100.3c-0.2,0.8-0.1,1.4-0.4,1.9c-0.7,1.2-0.8,2,0.1,3.3c0.5,0.8,1,0.8,1.7,0.8
	c0.8,0,1.3-0.4,1.6-1.1c0.3-0.7,0.9-1.3,1.3-2c0.2-0.4,0.4-0.9,0.4-1.3c0-0.2-0.5-0.4-0.9-0.5c-0.3-0.1-0.8,0-0.9-0.2
	C52.6,99.8,51.4,100.4,50.4,100.3z"/>
<path class="st0" d="M199.5,51.8c1.6-1.7,3.7-1.4,5.6-1.3c0.4,0,0.8,0.4,1.3,0.4c1.1,0.2,2.2,0.3,3.3,0.3c0.1,0,0.3-0.5,0.3-0.5
	c-0.7-0.8-1.4-1.7-2.3-2.4c-0.9-0.7-2-1-2.9-1.7c-0.8-0.6-0.6-1.8,0.4-2c1-0.2,2.2-0.5,3,0.5c0.1,0.2,0.5,0.2,0.7,0.3
	c0.7,0.5,1.5,1,2.2,1.6c0.7,0.7,1.2,1.5,1.7,2.2c0.5,0.7,0.2,3.4-0.4,4.1c-0.1,0.1-0.2,0.2-0.2,0.3c-0.4,1.1-0.5,2.4-1.2,3.1
	c-1,1-0.3,2.7-1.8,3.4c0,0-0.1,0.1-0.1,0.2c0.1,1.1-0.5,1.8-1.6,1.7c-0.8-0.1-1.8,0.3-2.3-0.7c-0.1-0.2-0.4-0.3-0.6-0.3
	c-2.1-0.4-3.7-1.7-5-3.2c-0.8-1-1.7-2.5-1.2-4C198.6,53.1,199.2,52.3,199.5,51.8z M208.2,54.6c-0.8-0.5-1.4-1-2-1.2
	c-0.8-0.2-1.6-0.2-2.4-0.1c-0.6,0-1.5,0.3-1.6,0.5c-0.1,1-0.3,2.6,0.2,3c1.2,0.8,2.6,2.3,4.3,1.2C207.3,56.8,207.8,55.6,208.2,54.6z
	"/>
<path class="st0" d="M148.5,263.2c0.3,1,0.5,1.6,0.8,2.3c0.2,0.5,0.6,1.1,1,1.3c0.9,0.5,2,1,3,1.1c1.2,0.2,2.5,0.1,3.7,0
	c0.8,0,1.1,0.2,1,1c-0.2,1.8-0.2,1.8-2,1.8c-0.9,0-1.8,0-2.8,0c-0.9,0-1.8,0.2-2.5-0.7c-0.2-0.2-0.7-0.3-1-0.3
	c-1.1,0-1.7-0.9-2.3-1.5c-0.7-0.7-1.2-1.7-1.8-2.5c-0.1-0.1-0.1-0.2-0.1-0.3c0-1.9-0.4-4,0.2-5.7c0.5-1.4,1.3-2.8,3.1-3.8
	c2.2-1.2,4.1-0.6,6.2-0.7c0.7,0,1.5,0.9,2.2,1.5c0.9,0.7,1,1.8,1.1,2.9c0.1,0.8,0.5,1.5,0.7,2.3c0.2,0.8-0.1,1.1-0.9,1
	c-2.6,0-5.2,0-7.8,0C149.6,263,149,263.1,148.5,263.2z M152.1,260.2C152.1,260.3,152.1,260.3,152.1,260.2c0.8,0,1.7,0,2.5-0.1
	c0.2,0,0.5-0.8,0.5-0.9c-0.8-0.6-1.3-1.6-2.6-1.4c-1,0.2-2.1-0.2-2.6,1.1c-0.1,0.3-0.4,0.6-0.5,0.9c0.3,0.1,0.6,0.4,0.9,0.4
	C150.8,260.3,151.4,260.2,152.1,260.2z"/>
<path class="st0" d="M78.6,60c-0.1,1.4,0.9,2.2,1.7,3.1c0.5,0.5,0.9,1.1,1.3,1.6c0.5,0.7,0.8,1.5,1.3,2.2c0.5,0.8,1.1,1.5,1.6,2.2
	c0.1,0.1,0.1,0.2,0,0.3c-0.3,1-2.2,1.8-3.1,1.2c-0.2-0.1-0.3-0.3-0.4-0.4c-0.3-1.1-1-1.9-2-2.6c-0.1-0.1-0.1-0.2-0.1-0.3
	c-0.1-1.2-0.9-1.9-1.7-2.5c-0.1-0.1-0.2-0.3-0.2-0.5c-0.1-1.1-1-1.6-1.6-2.4c-0.5-0.6-0.9-1.2-1.4-1.9c-0.1-0.2-0.1-0.4-0.2-0.6
	c-0.2-0.4-0.5-0.9-0.7-1.3c0.8-0.4,1.4-1.5,2.5-1.2c1.3,0.4,2-0.9,2.1-1.3c0.1-1,1-1.4,1.2-2.2c0,0,0-0.1,0-0.1
	c1.5-0.2,2.9-1.9,4.4-1c1.3,0.8,3.1,1.3,3.5,3.2c0.1,0.5,0.6,0.8,0.9,1.3c0.9,1.1,1.9,2.2,2.7,3.4c0.5,0.7,0.8,1.5,1.2,2.3
	c0,0,0,0.1,0,0.1c0.3,0.3,0.6,0.6,0.9,0.8c-0.3,0.2-0.5,0.5-0.8,0.7c-0.3,0.3-0.6,0.5-0.8,0.8c-0.1,0.1-0.2,0.3-0.3,0.4
	c-0.1,0.2-0.3,0.3-0.4,0.4c-0.1-0.2-0.3-0.3-0.4-0.5c-0.9-1.2-1.8-2.3-2.7-3.5c-0.1-0.1-0.2-0.3-0.2-0.4c-0.1-1.2-1-1.7-1.7-2.5
	c-0.5-0.6-1-1.2-1.4-1.9c-0.7-1.2-2.3-1.4-3.2-0.4c-0.5,0.5-1.2,0.9-1.6,1.5C78.7,58.7,78.7,59.4,78.6,60z"/>
<path class="st0" d="M63.5,220.1c0.6,0.7,1.3,1.6,2.2,2.8c-0.3,0.9,1,1.3,2,1.8c0.9,0.5,1.6,1.1,2.2,1.8c0.8,0.9,0.8,1.8,0.8,2.8
	c0,0.8-1.1,2.7-1.7,3.3c-0.8,0.8-1.5,1.7-2.2,2.5c-0.1,0.1-0.1,0.2-0.1,0.2c-2.2,0.6-3.2,2.7-4.7,4c-0.2,0.2-0.8,0.3-1,0.2
	c-0.7-0.4-1.4-0.8-1.8-1.4c-0.3-0.5,0.1-1,0.7-1.5c1.5-1.1,2.7-2.5,4.1-3.7c0.9-0.8,2-1.4,2.6-2.3c0.4-0.7,0.6-2.2,0.2-2.6
	c-1-0.9-2-2.1-3.6-2.2c-1-0.1-1.2,0.6-1.7,1.1c-0.9,0.9-1.7,1.8-2.6,2.7c-0.8,0.8-1.9,1.4-2.6,2.3c-0.7,1-1.4,1.1-2.4,0.9
	c-0.6-0.1-1.6-1.4-1.5-2.1c0-0.2,0.2-0.6,0.3-0.6c2-0.4,2.8-2.3,4.2-3.3c1.7-1.2,2.9-3,4.3-4.5C62,221.3,62.8,220.7,63.5,220.1z"/>
<path class="st0" d="M235.5,86.8c1.2-0.7,2.5-1.3,3.5-2.3c1.1-1,2.8-1.1,3.5-2.6c0-0.1,0.1-0.1,0.2-0.1c0.8-0.4,1.6-0.7,2.3-1.1
	c0.8-0.5,1.5-1.2,2.4-1.8c0.4-0.3,0.9-0.5,1.5-0.8c0.3,1.1,1.5,2.1,1.4,3.6c0,0.3,0.3,0.8,0.6,0.9c1.5,0.2,1.9,1.8,3.1,2.3
	c0.1,0.1,0.1,0.4,0.1,0.7c0,1,0.1,1.9,0.1,2.9c0,1.7-0.6,2.5-2.2,3.1c-0.5,0.2-0.8,0.6-1.3,0.9c-1.2,0.8-2.4,1.7-3.6,2.5
	c-0.7,0.5-1.5,0.9-2.2,1.4c-0.2,0.2-0.5,0.3-0.7,0.6c-0.6,0.7-1.3,0.7-1.8-0.2c-0.3-0.5-0.7-0.9-1-1.4c-0.1-0.2,0.1-0.6,0.3-0.8
	c1.5-1,3-2,4.5-3c1.5-1,3.1-2.1,4.6-3.1c0.6-0.4,0.6-1.4,0-1.9c-0.8-0.7-1.6-1.5-2.3-2.3c-0.7-0.7-2-0.9-2.8-0.4
	c-0.3,0.2-0.6,0.5-0.9,0.7c-1.2,0.9-2.4,1.7-3.6,2.6c-0.8,0.5-1.6,1-2.3,1.4c-0.1,0.1-0.3,0-0.3,0.1c-0.9,1.9-1.3-0.1-1.8-0.3
	c-0.4-0.2-0.6-0.8-0.9-1.2C235.7,87,235.6,86.9,235.5,86.8z"/>
<path class="st0" d="M220,236.2c0-0.2-0.1-0.5-0.1-0.7c-0.5-1.4,0.4-2.1,1.3-2.9c0.6-0.6,1.2-1.1,1.8-1.7c0.2-0.1,0.4-0.2,0.6-0.3
	c0.8-0.3,1.6-0.6,2.4-0.8c0.4-0.1,1.1-0.2,1.2,0c0.6,0.8,1.4,0.6,2.1,0.9c0.5,0.2,0.9,0.7,1.3,1.1c0.9,0.9,1.9,1.8,2.7,2.8
	c0.8,0.9,1.5,2,2.3,3c0.2,0.3,0.6,0.5,0.7,0.8c0.1,0.6,0.4,1.6,0.1,1.9c-1.1,1.1-2.7,1.9-3.5,3.1c-0.7,1.1-1.8,0.7-2.6,1.6
	c-0.4,0.5-2,0.1-3.1,0.2c-1.2,0.1-1.7-0.9-2.5-1.5c-1.5-1.1-0.8-2.6-0.9-4c0-0.4,0.4-0.9,0.7-1.3c0-0.1,0.2-0.1,0.2-0.2
	c0-1.6,1.5-2.2,2.1-3.4c0.1-0.1,0.1-0.2,0.2-0.3c0.2-0.3,0.5-0.5,0.7-0.7c-0.4-0.1-0.8-0.4-1.2-0.4c-1.6-0.1-2.7,0.5-3.8,1.8
	C222.1,235.9,221.4,237.1,220,236.2z M228.5,242.5c1.2-0.5,2.1-0.8,3-1.3c0.4-0.2,0.9-0.6,1-0.9c0.1-0.6,0-1.3-0.3-1.8
	c-0.3-0.6-1-1-1.4-1.6c-0.5-0.7-1.6-0.7-2,0c-0.4,0.8-0.7,1.8-1.3,2.2c-0.9,0.6-0.9,1.4-0.6,1.9
	C227.1,241.8,227.9,242.1,228.5,242.5z"/>
<path class="st0" d="M133.3,262.5c-0.8-0.2-1.5-0.4-2.2-0.4c-1.4-0.1-2.8-0.1-4.2-0.2c-0.4,0-0.8-0.4-1.3-0.5
	c-0.5-0.1-1.1-0.3-1.6-0.2c-0.2,0.1-0.4,0.7-0.4,1.1c-0.3,1.3,0.7,1.9,1.4,2.7c0.4,0.4,1,0.6,1.3,1c1,1.4,2.4,0.7,3.7,0.9
	c0.4,0.1,0.9,0,1.5,0c-0.1,0.9-0.1,1.8-0.2,2.8c-1.5,0-2.9,0.1-4.3,0c-1-0.1-2.1-0.5-3-1c-0.8-0.5-1.6-1.2-2.1-2
	c-1.2-1.6-2.2-3.4-2-5.5c0.1-2,1-3.6,2.2-5.1c0.5-0.6,1.1-1.2,1.7-1.8c0.1-0.1,0.4-0.1,0.6-0.1c0.5-0.2,1-0.6,1.5-0.7
	c0.9-0.1,1.8,0,2.7,0.2c0.3,0,0.6,0.4,0.9,0.4c1.7,0,2.3,1.1,3.2,2.3c1.3,1.7,0.5,3.5,0.8,5.2C133.6,261.9,133.4,262.3,133.3,262.5z
	 M128.2,259.2C128.2,259.2,128.2,259.1,128.2,259.2c0.2,0,0.3,0,0.5,0c0.6-0.1,1.3-0.2,1.9-0.4c-0.3-0.4-0.5-0.8-0.8-1.3
	c0,0,0-0.1,0-0.1c-0.8-0.5-1.3-1.4-2.5-1.3c-0.8,0.1-1.3,0.6-1.9,0.9c-0.8,0.4-0.7,0.9-0.5,1.3c0.1,0.3,0.6,0.7,0.9,0.7
	C126.6,259.1,127.4,259.1,128.2,259.2z"/>
<path class="st0" d="M256.9,195c2.1,1.1,3.3-0.2,4.7-0.8c0.7-0.3,1.1-1.3,1.4-2c0.5-1.1,0.9-2.3,1.4-3.6c1.6-0.4,3.1,0.8,2.4,2.2
	c-0.8,1.5-0.6,3.6-2.5,4.7c-1,0.5-1.6,1.7-2.5,2.5c-0.2,0.2-0.6,0.2-0.9,0.2c-1.9,0-3.8,0.1-5.7-0.1c-0.7-0.1-1.4-0.7-2-1.2
	c-0.9-0.8-1.8-1.8-2.6-2.7c-0.1-0.1-0.1-0.2-0.1-0.3c0-1.9-0.3-3.9,0.2-5.7c0.3-1.1,1.5-2.1,2.9-2.9c1.5-0.9,3-0.7,4.5-0.7
	c0.7,0,1.6,0.6,2,1.2c0.2,0.3-0.3,1.2-0.5,1.9c0,0.1-0.1,0.2-0.2,0.3c-0.4,1.4-0.8,2.8-1.2,4.1c-0.1,0.3-0.2,0.6-0.3,0.9
	C257.4,193.8,257.1,194.4,256.9,195z M256.3,189.1c-0.2-0.7-0.4-1.1-0.5-1.5c-0.3,0.2-0.6,0.4-1,0.6c-0.1,0.1-0.3,0.1-0.5,0.1
	c-0.9,0.3-1.3,0.8-1.3,1.7c0,0.7,0,1.4,0,2.1c0.1,0.5-0.1,1.2,0.8,1.2c0.8,0,1.2-0.4,1.2-1.3c0-0.5,0.1-1.1,0.3-1.6
	C255.6,190,256,189.5,256.3,189.1z"/>
<path class="st0" d="M200.9,253.8c-0.6,0.4-1.2,0.8-1.8,1.1c-0.3,0.1-0.6,0.1-0.9,0.1c-0.7,0.1-1.6-0.3-1.9,0.8
	c0,0.1-0.4,0.1-0.7,0.2c-1,0.3-2.1,0.6-3,1.1c-0.3,0.2-0.3,1.5,0.1,1.7c0.8,0.6,1.5,1.4,2.8,1.3c0.9-0.1,1.9,0,2.9-0.1
	c0.7-0.1,1.3-0.5,1.9-0.7c0.5-0.2,1.1-0.3,1.6-0.2c0.2,0,0.4,0.7,0.4,1.1c0.1,0.9,0,1.4-1.1,2c-2.2,1.2-4.5,0.5-6.7,0.8
	c-1.5,0.2-2.3-0.9-3.6-1.3c-0.5-0.1-0.8-1.3-1.3-1.7c-1.3-1.2-0.7-3-1.7-4.3c-0.1-0.1-0.1-0.3-0.1-0.3c0.6-1.4,0.2-3.1,1.5-4.3
	c0.7-0.7,1.4-1.5,2.2-2.2c0,0,0-0.1,0.1-0.1c0.9-0.9,6-0.8,6.9,0.2c0.5,0.5,1,0.9,1.6,1.4c0,0,0.1,0,0.1,0c0.5,1.1,0.9,2.3,1.4,3.4
	C201.2,253.8,201,253.8,200.9,253.8z M196.4,251.4c-2.4-0.6-2.4-0.4-4.4,0.7c-0.8,0.5-0.6,1-0.7,1.6c0,0.2,0.3,0.6,0.4,0.6
	c0.6-0.1,1.2-0.3,1.8-0.5c0.4-0.1,0.7-0.3,1-0.4c0.5-0.1,1.1-0.1,1.7-0.1C196.3,252.5,196.3,252,196.4,251.4z"/>
<path class="st0" d="M25.8,172.5c0.4-2.2,0.4-4.2,1.2-5.8c1-1.8,2-3.7,4.2-4.9c2.7-1.4,5.2-0.6,7.7-0.7c0.8,0,1.7,0.9,2.4,1.5
	c0.9,0.7,1.7,1.6,2.6,2.4c0.1,0.1,0.2,0.1,0.2,0.2c0.4,1,0.5,2.2,1.2,3c1.1,1.2,0.6,2.7,1,4c0.2,0.7,0.2,1.4-0.9,1.5
	c-1.8,0.1-2.2,0-2-1.2c0.3-1.7-0.6-3.1-1.3-4.2c-0.9-1.4-2-3.3-4.2-3.6c-0.6-0.1-1.1-0.9-1.9-0.8c-1.5,0.1-2.7,0.7-3.7,1.7
	c-0.9,0.8-1.7,1.6-2.5,2.6c-0.2,0.3-0.3,0.8-0.3,1.3c0,2,0,4.1,0,6.1c0,0.6,0.1,1.4-0.9,1.3c-0.8-0.1-2,0.7-2.1-1
	C26.5,174.6,26.1,173.4,25.8,172.5z"/>
<path class="st0" d="M165.5,269.6c-0.7,0.9-1.9,1.4-3.5,0.9c0-1.8,0-3.7,0-5.6c0-0.4-0.3-0.8-0.5-1.2c-0.1-0.3-0.3-0.6-0.3-0.9
	c-0.1-2.3-0.1-4.6-0.2-6.8c0-0.6,0.2-1,0.9-0.9c0.8,0,1.5,0.1,2.3,0.1c0.7,0,1.6,0.3,2.1-0.7c0.1-0.2,0.5-0.2,0.7-0.2
	c1.2,0,2.3,0,3.5-0.1c1.3-0.1,1.7,0.9,2.5,1.5c1.5,1.3,0.6,2.8,0.9,4.3c0.1,0.8-0.2,1.8,0.7,2.4c0.1,0.1,0.1,0.3,0.1,0.4
	c0,2,0,3.9,0,5.9c-0.7,0.3-1.5,0.6-2.6,1c-0.1-0.7-0.2-1.4-0.2-2.1c-0.1-1,0.4-2.2-0.8-3c-0.1-0.1-0.1-0.5-0.1-0.8
	c0-1.4-0.1-2.8-0.1-4.2c-0.1-2.3-1.8-3.2-3.5-2.4c-1.1,0.5-2.5,0.9-3.2,2.1c-0.1,0.2-0.1,0.5-0.1,0.5c1.1,0.8,0.6,2.1,0.7,3.1
	c0.1,1.2,0,2.5,0.1,3.7C165,267.6,165.3,268.4,165.5,269.6z"/>
<path class="st0" d="M134.8,255.2c0.2,0,0.3-0.1,0.4-0.1c2.1-0.1,2-0.1,2.4-2.2c0.2-0.8,0.8-1.5,1.4-2.5c1.3-0.5,2.9-1.1,4.6-1.8
	c1.1-0.4,1.8,0.2,2.3,0.9c0.3,0.5,0.3,1.3,0.2,2c0,0.2-0.6,0.4-0.9,0.5c-1.2,0.1-2.4,0.2-3.4,0.2c-0.4,0.9-0.7,1.5-0.9,2.2
	c0,0.2,0.4,0.7,0.7,0.7c1.2,0.1,2.5,0,3.8,0c0,1,0,1.8,0,2.9c-1.3,0-2.5,0-3.8,0c-0.8,0-1.1,0.3-1.1,1.1c0,3.1-0.1,6.1-0.1,9.2
	c0,1.6-0.9,2.9-2.7,2.3c-0.4-0.1-0.9-0.6-0.9-0.9c-0.1-2.3-0.3-4.7,0.1-6.9c0.3-1.2,0.7-2.4,0.7-3.8c0-0.7-0.2-1-0.9-1.1
	C134.8,257.6,134.5,257.1,134.8,255.2z"/>
<path class="st0" d="M275.6,125.6c-1.9,0.4-2.5,0-2.8-1.8c-0.2-1.4-2.7-2.7-3.6-1.8c-0.4,0.4-0.1,1.7,0,2.5c0.1,0.7,0.5,1.3,0.7,1.9
	c-1.1,0.4-1.8,0.7-2.7,1c-0.4-1.4-0.7-2.9-1.2-4.6c-1.3,0.2-2.4-0.4-3.3,0.9c-0.2,0.3-1,0.1-1.5,0.2c-0.8,0.1-1.8-0.3-2.4,0.8
	c-0.1,0.2-0.8,0.1-1.3,0.2c-0.9,0.1-1.9-0.3-2.6,0.8c-0.2,0.3-1,0.1-1.6,0.2c0-0.4-0.1-0.6-0.1-0.9c-0.2-2.7-0.2-2.7,2.6-3
	c0.5,0,0.9-0.4,1.4-0.6c0.4-0.1,0.8-0.2,1.2-0.3c1-0.1,2.1,0.2,3-0.8c0.3-0.4,1.2-0.2,1.9-0.2c1.6-0.1,1.7-0.2,1.7-1.9
	c0-0.4-0.1-0.8,0.1-1.2c0.1-0.3,0.5-0.6,0.8-0.7c0.4-0.1,0.9,0,1.1,0.2c0.4,0.5,0.7,1.2,1,1.8c0.2,0.7,0.6,0.7,1,0.3
	c0.7-0.6,1.2-0.6,1.9,0c0.2,0.2,0.6,0.3,0.9,0.3c1.6,0.2,2.4,1.1,3.2,2.5C275.8,122.9,275.7,124.1,275.6,125.6z"/>
<path class="st0" d="M214.5,254.8c-1.1-1.6-2.2-3.1-3.2-4.7c-0.5-0.7-0.7-1.7-1.3-2.2c-0.9-0.8-0.6-2.2-1.8-2.7
	c-0.1,0-0.1-0.3-0.1-0.4c-0.1-1.2-0.9-1.8-1.6-2.5c-0.2-0.1-0.2-0.4-0.3-0.6c-0.5-0.9-1.1-1.8-1.6-2.8c0.5-0.8,1.3-1.5,2.6-1.4
	c0.2,0,0.6,0,0.7,0.1c0.4,0.7,0.8,1.4,1.2,2.2c0.5,0.8,0.9,1.7,1.4,2.5c0.6,0.8,1.5,1.5,1.6,2.6c0,0.2,0.6,0.4,0.7,0.7
	c0.7,1.2,1.4,2.5,2.1,3.8c0.4,0.6,0.7,1.3,1.2,1.8c0.1,0.1,0.5,0.2,0.7,0.1c0.6-0.2,1.4-0.4,1.6-0.9c0.5-0.9,1.5-0.9,2.3-1.4
	c0.8-0.5,1.6-1.1,2.4-1.6c0.8-0.4,1.3-0.2,1.9,0.6c0.7,1,0.3,1.8-0.8,2.4c-0.9,0.5-1.7,1.1-2.6,1.7c-0.1,0.1-0.3,0.1-0.4,0.2
	c-0.8,0.4-1.8,0.6-2.2,1.3c-0.4,0.6-0.9,0.6-1.4,0.8c-0.4,0.2-0.7,0.7-1.1,0.8c-0.7,0.1-1.5,0-2.2,0
	C214.3,255,214.4,254.9,214.5,254.8z"/>
<path class="st0" d="M220.9,49.7c1.7-1,2.6,0.2,3.7,1.1c-0.5,0.5-1,1-1.5,1.6c-0.2,0.2-0.2,0.7-0.1,0.8c0.9,0.8,1.6,1.8,2.9,2.1
	c0.3,0.1,0.7,1,0.6,1.3c-0.2,0.5-0.7,1.1-1.3,1.4c-0.5,0.2-1.2,0.2-1.6-0.6c-0.2-0.5-0.9-0.9-1.5-1.2c-0.8-0.4-1.8,0.3-2.4,1.2
	c-0.9,1.2-1.3,2.8-2.6,3.8c-0.8,0.7-0.5,3.2,0.4,3.9c0.7,0.6,1.3,1.2,2,1.9c0.1,0.1,0.2,0.4,0.2,0.5c-0.4,0.5-0.8,1.1-1.4,1.3
	c-0.5,0.2-1.3,0.4-1.6-0.5c0-0.1-0.4-0.3-0.6-0.3c-1.2-0.3-1.7-1.2-2.3-2.1c-0.7-1.1-1.1-2.2-0.8-3.4c0.3-1.1,0.9-2.1,1.4-3.1
	c0.4-0.8,1-1.6,1.6-2.4c0.4-0.6,0.9-1.2,1.4-1.8c0.5-0.5,0.4-1.5-0.1-2c-0.3-0.3-0.5-0.9-0.4-1.2c0.2-0.6,0.7-1,1.1-1.5
	c0,0,0.5,0.4,0.8,0.5c0.4,0.1,0.8,0.3,1.2,0.2c0.2,0,0.5-0.4,0.6-0.7C220.9,50.3,220.9,50,220.9,49.7z"/>
<path class="st0" d="M44.6,86.1c0.8-0.8,1.5-1.5,2.2-2.2c0.8,0.6,1.4,1.1,2.2,1.7c0.5-0.7,0.8-1.6,1.5-2.2c0.7-0.6,0.7-2.1,2-1.7
	c0.6,0.2,1.1,0.7,1.6,1.2c0.1,0.1,0.1,0.3,0,0.5c-0.5,0.8-1.1,1.5-1.6,2.2c-0.5,0.6-0.3,1.6,0.4,2.1c1.2,0.8,2.3,1.8,3.5,2.6
	c0.2,0.2,0.5,0.1,0.8,0.2c0.3,0.2,0.6,0.5,1,0.6c0.6,0.2,1.4,0.5,1.8,0.2c0.8-0.6,1.5-1.4,2.1-2.2c0.5-0.7,1.5-0.8,2-0.2
	c1,1.3,0.9,2.3-0.4,3.4c-0.6,0.5-1.2,1.1-1.8,1.7c-0.1,0.1-0.3,0.2-0.4,0.2c-1.6,0-3.3,0.3-4.9-0.1c-1.3-0.3-2.3-1.5-3.5-2.3
	c-0.3-0.2-0.6-0.3-0.9-0.4c-0.3-0.2-0.6-0.4-0.9-0.6c-0.5-0.6-1.8-0.5-2.2,0.2c-0.3,0.6-1.6,0.8-2,0.1c-0.3-0.5-1.8-1.1-0.1-1.9
	c0.1-0.1-0.1-1.4-0.2-1.4C45.8,87.7,45.4,86.7,44.6,86.1z"/>
<path class="st0" d="M157.1,46.3c0.3-1.7-0.1-2.2-1.6-3c-1.5-0.8-3.2-1.6-4-3.3c-0.4-0.9-0.6-1.9,0.2-2.8c0.6-0.6,0.9-1.4,1.4-2.1
	c0.1-0.2,0.4-0.5,0.5-0.5c2-0.1,3.9-1.2,6-0.9c0.9,0.1,1.2,0.4,1.2,1.2c0,0.1,0,0.2,0,0.4c0,2.2-0.2,2.3-2.2,1.4
	c-1-0.4-3.1,0.1-3.6,0.8c-0.3,0.5,0,1.6,0.5,1.9c0.9,0.6,1.8,1.2,2.7,1.8c0.4,0.2,0.9,0.2,1.4,0.3c0.4,1.4,1.5,2.5,1.3,4.3
	c-0.2,1.1-1,1.6-1.5,2.3c-0.8,1.1-2.2,0.6-3.1,1.2c-1.1,0.7-2.1,0.7-3.2,0.6c-1.7-0.1-2.4-1-2.1-2.6c0.2-0.8,0.9-1.3,1.6-0.8
	c1,0.7,1.8,0.6,2.8-0.1C156,46.4,156.6,46.4,157.1,46.3z"/>
<path class="st0" d="M268.9,168c-0.7-0.1-1.2-0.2-1.7-0.2c-1.1-0.1-1.4,1.1-2,1.7c-0.6,0.5-0.8,1.3-1.3,2c-0.1,0.2-0.4,0.3-0.7,0.4
	c-0.5,0.2-1,0.5-1.5,0.7c-0.4,0.1-0.9,0.1-1.3,0c-0.6-0.1-1.1-0.4-1.6-0.7c-0.7-0.5-1.5-0.9-1.6-1.9c-0.1-0.8,0.1-1.6-0.8-2.1
	c-0.1-0.1-0.2-0.6-0.1-0.6c1.1-0.8,0.8-2,0.8-3.1c0-1.6,1.1-1,1.9-1c0.9-0.1,1.1,0.3,1,1.2c-0.1,1.2-0.1,2.5-0.1,3.7
	c0,1,0.9,1.5,1.7,0.9c0.5-0.4,1.2-0.9,1.3-1.5c0.3-1.5,1.6-2.1,2.5-3c0.7-0.8,3.6-0.3,4.4,0.5c0.5,0.5,1.1,0.9,1.5,1.4
	c0.2,0.3,0.4,0.7,0.4,1.1c0,1.8,0.1,3.6,0,5.4c-0.1,1.5-2,2.6-3.3,1.8c-0.3-0.2-0.3-1.4-0.2-1.5c0.8-0.4,0.7-1,0.7-1.6
	C268.9,170.3,268.9,169.2,268.9,168z"/>
<path class="st0" d="M178.9,268.1c-0.1-0.6-0.2-0.9-0.2-1.3c-0.1-1.4,0.2-1.9,1.5-1.7c1.6,0.2,2.6-0.6,3.8-1.3
	c0.8-0.5,0.5-1-0.1-1.7c-1-1.2-2.2-1-3.4-1.1c-2.7-0.2-4.8-3.7-3.5-6.1c0.7-1.2,1.6-2.5,3.4-2.6c0.4,0,0.9-0.5,1.3-0.6
	c0.9-0.2,2-0.5,2.6-0.2c0.7,0.4,1.6,1.3,1,2.6c-1.1,0.1-2.3,0-3.3,0.4c-0.9,0.4-1.6,1.4-2.5,2.2c1.5,0.6,2.5,1.5,4.1,1.6
	c1,0,1.9,1,2.8,1.6c1.8,1.3,0.8,3.1,0.8,4.8c0,0.3-0.5,0.7-0.8,0.9c-0.7,0.5-1,1.5-2.1,1.4c-0.2,0-0.5,0-0.6,0.1
	C182.4,268.7,180.5,267.4,178.9,268.1z"/>
<path class="st0" d="M192.2,42.7c-0.8-0.3-1.4-0.7-2-0.9c-0.6-0.2-1.2-0.2-1.9-0.3c-2.3-0.3-3.6,0.9-5,2.6c-0.8,1-1,1.8-0.8,2.7
	c0.2,0.9,0.7,1.8,1.4,2.4c0.8,0.8,1.8,1.4,2.7,1.9c0.5,0.3,1.2,0.3,1.8,0.2c1,0,1.2,0.5,1.1,1.3c-0.1,0.8-0.3,1.5-0.4,2.1
	c-0.8-0.2-1.5-0.4-2.2-0.6c-0.6-0.1-1.4,0.3-1.6-0.8c0,0-0.1-0.1-0.2-0.1c-1.3,0.3-1.9-1-2.9-1.4c-0.8-0.3-1.2-1.4-1.8-2.1
	c-1.5-1.9-0.8-3.9-0.8-5.9c0-1.7,1.3-2.5,2.4-3.4c0.8-0.7,1.8-1.2,2.8-1.7c0.3-0.1,0.6-0.2,0.9-0.2c1.2,0,2.3,0,3.5,0
	C192.2,38.7,192.7,39.4,192.2,42.7z"/>
<path class="st0" d="M37.6,143c-0.1,0.8-0.1,1.7-0.5,2.3c-1,1.6-2.7,2.6-4.5,2.9c-0.9,0.2-2.2-0.5-3-1.1c-1.3-1.1-2.1-2.5-2-4.4
	c0.1-1.5,0.6-2.8,1.4-3.7c0.7-0.8,2.2-1.3,3.4-1.3c1.1,0,2.3,0.6,3.2,1.3C36.9,139.9,37.9,141.1,37.6,143z"/>
<path class="st0" d="M269.8,143.2c0.2,1.3-0.6,2.2-1.6,3.4c-0.8,1-2.3,0.4-2.7,1.6c0,0.1-0.5,0.1-0.7,0c-1.2-0.9-2.8-0.9-3.9-2.3
	c-1.3-1.7-0.9-3.4-0.6-5.1c0.1-0.7,0.9-1.5,1.7-2c0.9-0.5,1.5-1.6,2.8-1.3c1.6,0.3,2.9,1.2,4.2,2.2
	C269.9,140.6,269.7,141.7,269.8,143.2z"/>
<path class="st0" d="M78.5,252.9c0.3-0.3,0.5-0.5,0.7-0.7c0.1-0.1,0.3-0.1,0.4-0.3c0.4-0.9,0.8-1.9,1.3-2.8c0.3-0.6,0.7-1.2,1-1.8
	c0.6-0.8,1.2-1.6,1.7-2.4c0.4-0.6,0.6-1.3,1-1.9c0.6-1,1.3-1.9,1.8-2.9c0.5-0.9,0.7-1.9,1.3-2.8c0.6-1,1.3-1.9,2.1-2.7
	c0.1-0.2,0.7,0,1,0.1c1.2,0.3,1.9,1.8,1.3,2.5c-0.3,0.3-0.5,0.7-0.7,1c-0.6,0.8-1.1,1.5-1.7,2.3c-0.1,0.1-0.1,0.2-0.1,0.3
	c0.1,1.3-1,1.8-1.7,2.6c-0.1,0.1-0.2,0.2-0.2,0.3c-0.4,2-1.8,3.4-2.9,5.1c-0.6,0.9-0.8,1.9-1.3,2.8c-0.6,1.2-1.3,2.3-2,3.4
	c-0.1,0.1-0.5,0.1-0.5,0c-0.2-0.9-1-0.7-1.6-0.9C79,253.9,78.9,253.3,78.5,252.9z"/>
<path class="st0" d="M108.4,56.2c-0.5-1.9-0.9-3.5-1.5-5.1c-0.4-1.1-1-2.1-1.6-3.1c0,0,0-0.1,0-0.1c-0.4-1.5-0.8-3-1.2-4.4
	c-0.1-0.4-0.4-0.7-0.6-1c-0.1-0.1-0.3-0.2-0.3-0.2c0.3-1.5-0.8-2.6-1.1-3.9c-0.1-0.7,0.2-1.5-0.8-1.8c-0.1,0-0.2-0.5-0.1-0.6
	c0.6-0.4,1.2-1,1.9-1.2c1.3-0.3,1.6,0.1,1.8,1.4c0.1,0.6,0.4,1.1,0.7,1.6c0.1,0.2,0.2,0.3,0.2,0.5c0.2,0.9,0.2,1.8,0.8,2.7
	c0.8,1,0.8,2.6,1.2,3.9c0.5,1.5,1.1,3,1.7,4.6c0,0.1,0.1,0.1,0.1,0.2c0.4,1.5,0.9,3,1.2,4.6c0.3,1.7,0.1,1.9-1.6,2
	C109.1,56.2,108.7,56.2,108.4,56.2z"/>
<path class="st0" d="M29.1,183.6c-0.5-0.8-0.8-1.4-1.2-2.1c-0.3-0.5,0.7-1.6,1.4-1.7c0.5-0.1,1.1,0,1.5-0.1c1.6-0.5,3.2-1.4,4.8-1.6
	c2.5-0.2,4.8-1.9,7.7-1.2c0,0.7,0,1.4,0,2.1c0,0.2-0.2,0.6-0.4,0.7c-0.7,0.3-0.6,0.6-0.1,1.1c0.6,0.6,1.5,1.1,1.6,2.1
	c0,0.2,0.3,0.5,0.5,0.7c0.2,0.3,0.4,0.7,0.4,1.1c0,0.3-0.4,0.7-0.7,0.8c-1.4,0.4-2.4-0.1-3.1-1.3c-0.6-1.1-1.4-2.1-2.2-3
	c-0.3-0.3-1.1-0.1-1.7,0c-0.5,0.1-1,0.5-1.5,0.6c-0.9,0.2-2-0.2-2.7,0.9c-0.1,0.2-0.7,0.1-1,0.1c-0.7,0.1-1.5-0.3-1.9,0.7
	C30.3,183.6,29.5,183.5,29.1,183.6z"/>
<path class="st0" d="M268.7,184.5c-1.1,0-2.4,0.4-3.1-0.1c-1.3-0.9-2.8-0.4-3.9-1c-1.1-0.6-2.4-0.4-3.2-0.9c-1.3-0.9-2.6-0.7-3.9-1
	c-0.4-0.1-0.9-0.5-1.2-0.9c-0.5-0.6,0.2-0.7,0.5-1c0.3-0.4,0.2-1,0.4-1.6c0.2-0.1,0.5-0.1,0.7-0.2c0.7-0.2,1.3-0.2,0.5-1.4
	c-0.9-1.2-0.4-2.9-0.2-4.3c0.8,0.2,1.5,0.4,2.1,0.7c0.3,0.1,0.6,0.6,0.6,0.9c0.4,1.7,0.6,3.4,1.1,5.1c0.1,0.4,0.9,0.8,1.4,0.9
	c0.9,0.2,2.1-0.2,2.8,0.9c0.1,0.2,0.6,0.2,0.8,0.1c1.6-0.4,2.8,0.9,4.3,1.1c0.2,0,0.4,0.5,0.4,0.7
	C268.9,183.1,268.8,183.7,268.7,184.5z"/>
<path class="st0" d="M232.4,60.5c-0.7,0.8-1.3,1.5-1.8,2.2c-0.9,1.1-1.8,2.2-2.7,3.3c-1.1,1.4-2.2,2.9-3.4,4.4
	c-0.6,0.8-1.3,1.6-2,2.3c-0.1,0.1-0.4,0.1-0.5,0c-0.7-0.5-1.3-1.1-1.9-1.7c-0.2-0.2-0.1-0.7,0-0.9c0.5-0.7,1.2-1.2,1.8-1.9
	c0.7-0.7,1.2-1.6,1.9-2.3c0.8-0.9,1.6-1.8,2.4-2.8c0.6-0.7,1-1.4,1.6-2.1c0.5-0.6,0.9-1.4,1.5-1.6c0.8-0.3,1.8-0.4,2.3,0.7
	C231.7,60.2,232.2,60.4,232.4,60.5z"/>
<path class="st0" d="M55.6,76.2c1.2-1,1.6,0.5,2.4,1c0.8,0.4,1.5,1.1,2.2,1.6c0.5,0.3,0.9,0.7,1.4,1.1c1.8,1.5,3.6,3,5.5,4.5
	c0.4,0.3,1,0.5,1.7,0.7c-0.6,0.7-1.4,1.2-1.7,1.9c-0.5,1.1-1.2,0.5-1.6,0.2c-0.9-0.7-1.6-1.6-2.5-2.3c-0.5-0.4-1-0.7-1.5-1.1
	c-1.1-0.8-2.2-1.6-3.3-2.4c-0.8-0.6-1.6-1.1-2.4-1.7c-0.5-0.4-0.9-0.8-1.4-1.2c-0.1-0.1-0.1-0.4,0-0.6
	C54.8,77.3,55.2,76.8,55.6,76.2z"/>
<path class="st0" d="M199.3,41.8c-0.3,1,0.4,2.2-0.8,3.1c0,0,0,0.1-0.1,0.1c-0.4,1.5-0.8,3-1.3,4.5c-0.1,0.3-0.3,0.6-0.5,0.9
	c-0.1,0.2-0.3,0.3-0.3,0.5c-0.4,1.7-0.8,3.4-1.3,5.2c-0.9,0-2,0.1-3,0c-0.6,0-0.7-1.3-0.2-1.7c0.2-0.2,0.5-0.3,0.5-0.4
	c-0.3-1.5,0.7-2.7,1.2-3.9c0.6-1.3,0.4-2.9,1.6-4c0.1-0.1,0.1-0.1,0.1-0.2c0.4-1.5,0.8-2.9,1.2-4.4c0.1-0.3,0.2-0.5,0.3-0.8
	c0.2,0.2,0.4,0.4,0.6,0.5C197.9,41.4,198.5,41.5,199.3,41.8z"/>
<path class="st0" d="M46.2,186.8c-0.1,1,0.9,2.3-0.6,3.1c-0.3,0.2-0.6,0.3-0.9,0.4c-0.8,0.2-1.8,0-2.3,0.9c0,0-0.1,0.1-0.1,0.1
	c-1.2,0.4-2.5,0.7-3.7,1.1c-0.4,0.1-0.8,0.4-1.2,0.5c-0.4,0.2-0.8,0.3-1.2,0.4c-0.6,0.1-1.2,0.2-1.7,0.7c-0.5,0.5-1.6,0.3-2.6,0.4
	c-0.1-0.9-0.4-1.7-0.1-2.2c0.4-0.7,1.2-1.3,1.9-1.6c1.5-0.5,3.1-0.6,4.5-1.3c1.8-0.8,3.7-1.5,5.6-2
	C44.5,187.1,45.1,186.2,46.2,186.8z"/>
<path class="st0" d="M49.5,225.8c-1.2,0-2.4-1.6-2.1-2.4c0.1-0.2,0.4-0.4,0.6-0.5c1.2-0.9,2.4-1.8,3.5-2.7c0.2-0.1,0.4-0.2,0.6-0.3
	c0.7-0.5,1.5-1.1,2.2-1.6c0.1-0.1,0.3-0.3,0.5-0.3c1.1-0.1,1.7-1,2.4-1.7c0.5-0.4,0.9-0.9,1.5-1.2c1.1-0.6,1.7,0.4,2.2,1
	c0.3,0.4,0.8,1.3-0.4,1.9c-1,0.5-1.7,1.5-2.9,1.9c-0.6,0.2-0.9,1-1.5,1.4c-0.6,0.5-1.4,0.9-2.1,1.4c-1.2,0.8-2.4,1.7-3.6,2.5
	C50.1,225.5,49.7,225.7,49.5,225.8z"/>
<path class="st0" d="M65.9,214.6c-0.5,0.4-0.9,0.6-1.3,1c-0.9,0.8-2.2,0.5-2.6-0.6c-0.1-0.1-0.1-0.3-0.2-0.5
	c-0.2-0.4-0.7-1.1-0.5-1.3c0.9-1.1,2.5-1.7,3.1-1C65.1,212.9,66.4,213.4,65.9,214.6z"/>
<path class="st0" d="M230.8,56.8c0.6-0.7,1.2-1.4,1.8-2.1c0.2-0.2,0.5-0.4,0.6-0.3c0.7,0.7,1.4,1.4,2.2,2.1c0,0,0,0.2,0,0.2
	c0.1,1-1.3,2.6-2.3,2.3c-0.6-0.2-1.1-0.8-1.6-1.2C231.3,57.5,231.1,57.1,230.8,56.8z"/>
<path class="st0" d="M200,40.1c-1-0.3-1.8-0.6-2.6-0.9c-0.3-1.6,0.2-3.4,1.2-3.4c0.9,0,1.9,0.5,2.5,1.1c0.3,0.3,0.1,1.3-0.1,1.9
	C200.9,39.5,200.3,39.9,200,40.1z"/>
<path class="st0" d="M51.1,184.8c0.1,0.6,0.1,1.2,0.2,1.9c0.2,1.1,0.2,2-1.3,2c-0.4,0-0.8,0.5-1.4,0.8c-0.1-0.7-0.1-1.4-0.4-1.9
	c-0.9-1.2-1.2-2,0.8-2.2c0.6-0.1,1.1-0.6,1.7-1C50.9,184.5,51,184.6,51.1,184.8z"/>
<path class="st0" d="M52.8,77.6c-0.7-0.6-1.4-1.2-2.1-1.7c-0.5-0.4-0.6-1.5,0-1.9c0.4-0.3,0.7-0.6,1.1-1.1c1.2-0.1,2.6,0.9,2.4,2
	c0,0.3-0.4,0.6-0.6,1C53.4,76.4,53.1,77,52.8,77.6z"/>
<path class="st0" d="M141,76.8c-0.3,0-0.6,0-0.8,0c-0.2,0-0.5-0.2-0.5-0.3c-0.1-0.2,0.1-0.4,0.2-0.6c0.2-0.4,0.4-0.8,0.6-1.1
	c0.2-0.3,0.4-0.6,0.5-0.9c0.4,0.3,0.9,0.5,1.2,0.8c0.1,0.1,0.1,0.4,0.1,0.6C142.6,76.8,142.6,76.8,141,76.8z"/>
<path class="st0" d="M183.5,229.1c-0.7,0.8-1.2,1.7-2,2.1c-0.8,0.4-1.9,0.4-2.7,0.1c-0.7-0.3-1.3-1.1-1.9-1.7
	c-0.1-0.1-0.2-0.4-0.2-0.7c0-1,1.2-2.2,2.2-2.3c1.5,0,3,0.2,3.8,1.8C182.9,228.8,183.2,228.9,183.5,229.1z"/>
<path class="st0" d="M180,218.9c2,0,2.8,0.9,2.6,2.7c-0.1,0.8-0.5,1.1-1.2,1.2c-1.3,0.1-2.6,0-3.3-1.2c-0.3-0.5-0.2-1.5,0-2.2
	c0.1-0.3,0.7-0.4,1.1-0.6C179.4,218.8,179.7,218.9,180,218.9z"/>
<path class="st0" d="M168.1,76.9c0-1.6,0-3.1,0-4.7c0-0.8,0.4-1.2,1.1-1.2c1,0.1,2.1-0.3,3,0.6c0.2,0.2,0.6,0.2,0.9,0.3
	c1.4,0.1,2,1.1,2.7,2.1c0.9,1.1,0.8,2.3,0.8,3.6c0.1,1.4-0.6,2.3-1.7,3.2c-1.6,1.3-3.2,1.9-5.2,1.9c-1.4,0-1.6-0.2-1.6-1.6
	C168.1,79.7,168.1,78.3,168.1,76.9z"/>
<path class="st0" d="M138.3,229.6c-0.9,0.1-1.6,0.2-2.2-0.6c-0.4-0.6-1.5-0.6-2.1-1.1c-0.5-0.4-0.9-1-1.2-1.6
	c-0.4-0.8,1.1-3.3,2-3.4c0.9-0.1,1.9-0.2,2.9,0c0.6,0.1,1.4,0.7,1.5,1.2c0.2,1.1,0.1,2.4,0.1,3.5c0,0.3-0.5,0.5-0.7,0.8
	C138.4,228.8,138.4,229.2,138.3,229.6z"/>
</svg>
