<?xml version="1.0" encoding="utf-8"?>
<!-- Generator: Adobe Illustrator 21.0.0, SVG Export Plug-In . SVG Version: 6.00 Build 0)  -->
<svg version="1.1" id="Layer_1" xmlns="http://www.w3.org/2000/svg" xmlns:xlink="http://www.w3.org/1999/xlink" x="0px" y="0px"
	 viewBox="0 0 125.1 125" style="enable-background:new 0 0 125.1 125;" xml:space="preserve">
<style type="text/css">
	.st0{fill:#6F7072;}
	.st1{fill:#1C3664;}
	.st2{fill:#5B595E;}
	.st3{fill:#122233;}
	.st4{fill:#F1F1F1;}
</style>
<path class="st1" d="M68.9,124.5c-17.1,2.4-32.3-2.6-45.5-13.2C1.2,93.5-6,63.7,5.2,37.8C16,12.5,43.1-3,70.2,0.5
	c28.5,3.7,50.4,25.4,54.4,53.8c0.5,3.9,0.8,8,0.1,11.9c-2.3-0.2-3.3-2.1-4.7-3.4c-9.8-9.4-18.9-19.6-29.2-28.6
	c-0.7-0.9-1.3-1.8-2-2.8c-0.2-0.6-0.5-0.9-1-0.2c-1.7,0.4-3.3,0.4-5,0c-0.8-1.1-2-1-3.2-1c-11.6,0-23.2,0-34.8,0
	c-1.2,0-2.3,0-3.1,1.1c-5.4,2-7.3,5.8-7.2,11.6c0.3,13.4,0.2,26.9,0,40.3c-0.1,4.9,1.6,8.3,6.2,10.1c0,2.1,1.8,3.1,3,4.4
	c7.2,7.3,14.6,14.6,21.8,21.9C67.1,121,68.9,122.2,68.9,124.5z"/>
<path class="st3" d="M90.8,34.2c10.3,9,19.4,19.2,29.2,28.6c1.4,1.3,2.5,3.2,4.7,3.4c0.5,24.8-20.3,50.4-46.5,56.9
	c-3.1,0.8-6.1,1.6-9.3,1.3c0-2.3-1.8-3.4-3.2-4.8c-7.3-7.3-14.6-14.6-21.8-21.9c-1.2-1.3-3-2.2-3-4.4c13.8,0,27.7,0.1,41.5,0.1
	c6.4,0,8.2-1.9,8.3-8.5c0.1-11.7-0.1-23.3,0.1-35c0.1-4.7-1.9-6.6-6.6-6.5c-12.5,0.2-25,0.1-37.5,0.1c-2.5,0-5.6,0.3-5.6-3.3
	c0-3.6,3.1-3.2,5.6-3.2c12.8,0,25.7,0,38.5,0C87.6,37.2,89.9,37.1,90.8,34.2z"/>
<path class="st4" d="M90.8,34.2c-0.9,2.9-3.2,2.9-5.6,2.9c-12.8,0-25.7,0-38.5,0c-2.5,0-5.6-0.5-5.6,3.2c0,3.6,3.1,3.3,5.6,3.3
	c12.5,0,25,0.1,37.5-0.1c4.7-0.1,6.6,1.8,6.6,6.5c-0.2,11.7,0,23.3-0.1,35c0,6.6-1.8,8.4-8.3,8.5c-13.8,0.1-27.7,0-41.5-0.1
	c-4.7-1.8-6.3-5.2-6.2-10.1c0.2-13.4,0.3-26.9,0-40.3c-0.1-5.8,1.8-9.6,7.2-11.6c13.7,0,27.4,0,41.1-0.1c1.7,0.4,3.3,0.4,5,0
	c0.3,0.1,0.6,0.2,1,0.2C89.5,32.4,90.1,33.3,90.8,34.2z M75.8,66.3c0.1-0.9,0.5-1.9-1-2c0.1-3.8-1.6-5.4-5.4-4.9
	c-1.3,0.2-2.6-0.4-3.9-0.5c-7.3-0.7-9.9,0.6-10.6,5.5c-0.9-0.3-1,0.3-1,1c-1.1,0.5-1.3,1.2-0.5,2.1c-0.1,0.3-0.3,0.5-0.6,0.6
	c-0.6-0.9-0.7-0.2-0.9,0.3c-0.9,2.9,1.2,3.9,3.2,4.6c2.1,0.7,3.9-0.3,5.1-2c1.1-1.4,1-2.7-0.9-3.5c0.8-0.9,0.2-1.5-0.5-2.1
	c-0.3-0.7-0.7-1.3-1-2c0.5-3,2.8-1.5,4.3-1.5c1.3,0,1.7,1.3,1.6,2.6c0,2.2-0.1,4.3,0,6.5c0.1,2.9,0.3,5.8-4.1,5.2
	c-1.1-0.2-2,0.3-2,1.6c0,1.3,0.9,1.6,2,1.6c3.3,0,6.6,0,9.9,0c1,0,2.1,0,2.2-1.4c0.2-1.7-1.1-2-2.3-1.8c-3.7,0.6-4-1.6-3.9-4.4
	c0.1-2.3,0-4.6,0-7c0-1.4,0.2-3,1.9-2.9c1.5,0.1,3.8-1.5,4.3,1.6c-0.8,0.5-1.1,1.1-1,2c-1.1,0.3-1.1,1.1-1,2c-0.7-0.1-0.9,0.4-0.9,1
	c-0.9,2.9,1.1,3.8,3.1,4.6c2.1,0.8,3.8-0.3,5.1-2c1.1-1.4,1.1-2.7-0.8-3.5C76.7,66.7,76.8,66.2,75.8,66.3z"/>
<path class="st2" d="M82.9,31.3c-13.7,0-27.4,0-41.1,0.1c0.8-1.1,2-1.1,3.1-1.1c11.6,0,23.2,0,34.8,0C80.9,30.3,82,30.2,82.9,31.3z"
	/>
<path class="st2" d="M88.8,31.5c-0.3,0-0.7,0-1-0.2C88.3,30.5,88.6,30.9,88.8,31.5z"/>
<path class="st3" d="M54.9,64.3c0.7-4.9,3.3-6.2,10.6-5.5c1.3,0.1,2.6,0.7,3.9,0.5c3.9-0.5,5.6,1.2,5.4,4.9c0,0,0.1-0.1,0.1-0.1
	c-0.9-0.8-1.9-1.1-3.1-1l0.1,0c-0.5-3.1-2.8-1.5-4.3-1.6c-1.7-0.1-1.9,1.5-1.9,2.9c0,2.3,0.1,4.6,0,7c-0.2,2.8,0.1,5,3.9,4.4
	c1.2-0.2,2.4,0.1,2.3,1.8c-0.1,1.3-1.2,1.4-2.2,1.4c-3.3,0-6.6,0-9.9,0c-1.1,0-2-0.3-2-1.6c0-1.3,0.9-1.8,2-1.6
	c4.5,0.7,4.2-2.2,4.1-5.2c-0.1-2.2-0.1-4.3,0-6.5c0-1.3-0.3-2.6-1.6-2.6c-1.5,0-3.8-1.5-4.3,1.5c0,0,0.1,0,0.1,0
	C56.7,63.2,55.6,63.3,54.9,64.3L54.9,64.3z"/>
<path class="st2" d="M59.3,67.4c1.9,0.7,2,2,0.9,3.5c-1.3,1.7-3,2.7-5.1,2c-2-0.7-4.1-1.7-3.2-4.6c0.3,0,0.6-0.1,0.9-0.3
	c0.3-0.1,0.5-0.3,0.6-0.6c0,0-0.1-0.1-0.1-0.1C55.3,69.3,57.3,69.1,59.3,67.4L59.3,67.4z"/>
<path class="st2" d="M76.4,67.4c1.9,0.8,1.9,2.1,0.8,3.5c-1.3,1.7-3,2.7-5.1,2c-2-0.7-4.1-1.7-3.1-4.6c0.3,0,0.7,0,1,0
	C72.1,68.4,74.5,69.4,76.4,67.4L76.4,67.4z"/>
<path class="st0" d="M70.9,65.3c-0.1-0.9,0.2-1.6,1-2c0,0-0.1,0-0.1,0C72,64.2,72.1,65,70.9,65.3L70.9,65.3z"/>
<path class="st0" d="M57.8,63.3c0.3,0.7,0.7,1.3,1,2c0,0,0.1,0,0.1,0C57.5,65.1,57.7,64.1,57.8,63.3L57.8,63.3z"/>
<path class="st0" d="M69.9,67.3c-0.1-0.9-0.1-1.7,1-2c0,0-0.1-0.1-0.1-0.1C71,66.1,71,67,69.9,67.3L69.9,67.3z"/>
<path class="st0" d="M59.3,67.4C59.3,67.4,59.3,67.3,59.3,67.4c-0.1-0.8-0.3-1.5-0.4-2.1c0,0-0.1,0-0.1,0
	C59.5,65.8,60.2,66.4,59.3,67.4z"/>
<path class="st0" d="M53.3,67.3c0,0,0.1,0.1,0.1,0.1c-0.8-0.9-0.6-1.6,0.5-2.1l-0.1-0.1C53.6,65.9,53.5,66.6,53.3,67.3z"/>
<path class="st0" d="M74.8,64.3c1.4,0.1,1.1,1.1,1,2c0,0,0.1-0.1,0.1-0.1C75.1,65.8,74.9,65.1,74.8,64.3L74.8,64.3z"/>
<path class="st0" d="M69.9,68.2c-0.3,0-0.7,0-1,0c0-0.6,0.2-1.1,0.9-1c0,0-0.1-0.1-0.1-0.1C69.8,67.6,69.9,67.9,69.9,68.2z"/>
<path class="st0" d="M52.8,68c-0.3,0.1-0.6,0.2-0.9,0.3C52.1,67.8,52.2,67.1,52.8,68z"/>
<path class="st0" d="M76.4,67.4C76.4,67.4,76.3,67.3,76.4,67.4c-0.2-0.4-0.3-0.8-0.5-1.1c0,0-0.1,0.1-0.1,0.1
	C76.8,66.2,76.7,66.7,76.4,67.4z"/>
<path class="st0" d="M53.9,65.3c0.1-0.6,0.1-1.3,1-1c0,0-0.1-0.1-0.1-0.1C54.7,64.8,54.7,65.4,53.9,65.3L53.9,65.3z"/>
<path class="st4" d="M53.8,65.2c0.9,0.2,0.9-0.4,1-1c0.8-1,1.9-1.1,3.1-1c-0.2,0.9-0.4,1.9,1,2c0.1,0.7,0.3,1.4,0.4,2.1
	c-2,1.8-4,2-6,0C53.5,66.6,53.6,65.9,53.8,65.2z"/>
<path class="st4" d="M75.9,66.2c0.2,0.3,0.3,0.7,0.5,1c-1.9,2.2-4.2,1.1-6.4,0.9c0-0.3-0.1-0.7-0.1-1c1.2-0.3,1.2-1.1,1-2
	c1.3-0.2,1.2-1.1,1-2c1.2-0.1,2.2,0.2,3.1,1C74.9,65.1,75.1,65.8,75.9,66.2z"/>
</svg>
