<?xml version="1.0" encoding="utf-8"?>
<!-- Generator: Adobe Illustrator 23.1.0, SVG Export Plug-In . SVG Version: 6.00 Build 0)  -->
<svg version="1.1" id="Capa_1" xmlns="http://www.w3.org/2000/svg" xmlns:xlink="http://www.w3.org/1999/xlink" x="0px" y="0px"
	 viewBox="0 0 512 512" style="enable-background:new 0 0 512 512;" xml:space="preserve">
<style type="text/css">
	.st0{fill:#B6946F;}
	.st1{fill:#A88767;}
	.st2{fill:#BF9D80;}
</style>
<path class="st0" d="M35.8,145.7c-1.9-4.4,1.1-7.6,2.9-10.8c39.2-70.3,98-113.8,177.2-128.4c65.7-12.1,126.8,0.7,183,36.7
	c7.7,4.9,14.9,10.6,22.2,16.2c5.2,4,5.9,7.7,0.6,13c-20.6,20.4-41,41.2-61.1,62.1c-4.4,4.5-7.2,4.8-12.5,1.1
	c-82-56.2-185.8-26.4-225.3,64.5c-1.2,2.8-1.8,6.1-5,7.5C90.4,186.9,63.1,166.3,35.8,145.7z"/>
<path class="st0" d="M117.7,303.7c3.9,2.1,4.3,6.4,5.8,9.8c27.2,64.9,94,101.1,164,90c20.8-3.3,39.9-10.3,58.5-19.6
	c18.3,14,36.9,27.5,54.6,42.2c8,6.6,18.1,10.9,23.5,20.4c-27.3,28-61.1,44.2-98.3,54c-110.6,29.2-224.7-17.7-283-115.9
	c-3.1-5.3-7.2-10.3-7.5-16.9C62.8,346.3,90.3,325,117.7,303.7z"/>
<path class="st1" d="M424.1,446.4c-5.5-9.5-15.6-13.8-23.5-20.4c-17.7-14.6-36.3-28.2-54.6-42.2c22.4-16.9,39.9-37.2,48.3-64.7
	c2.8-9.2,1.9-12.4-8.7-12.3c-38.5,0.6-76.9,0-115.4,0.5c-7.6,0.1-9.2-2.1-9.1-9.1c0.4-26.7,0.4-53.4,0-80.1c-0.1-7.6,2.4-9,9.4-9
	c72.6,0.2,145.2,0.2,217.9,0c6.3,0,10.2,0.9,11.2,8.2c11.8,84.1-7.8,158.6-66.4,221.5C430.5,441.8,427.2,443.9,424.1,446.4z"/>
<path class="st2" d="M117.7,303.7c-27.5,21.3-54.9,42.6-82.4,63.9c-16.1-30.4-24.1-62.6-26.5-97.1c-2.8-41,4.7-79.5,20.3-117
	c1.3-3.2,2.7-6.6,6.6-7.8c27.3,20.6,54.7,41.2,82,61.8c0.1,10.6-3.7,20.5-5.4,30.8c-3.1,18.6-0.5,36.1,4.1,53.9
	C117.5,295.9,117.4,299.9,117.7,303.7z"/>
</svg>
