<?xml version="1.0" encoding="utf-8"?>
<!-- Generator: Adobe Illustrator 21.0.0, SVG Export Plug-In . SVG Version: 6.00 Build 0)  -->
<svg version="1.1" id="Layer_1" xmlns="http://www.w3.org/2000/svg" xmlns:xlink="http://www.w3.org/1999/xlink" x="0px" y="0px"
	 viewBox="0 0 301 108" style="enable-background:new 0 0 301 108;" xml:space="preserve">
<style type="text/css">
	.st0{fill:#999999;}
</style>
<g>
	<path class="st0" d="M214.3,22.4c2.2,0,4.5,0,6.7,0c1.7,0,2.6,1.2,2.1,2.9c-0.2,0.6-0.4,0.9-1,1c-0.8,0-1,0.5-0.9,1.2
		c0.2,1.1,0,2.3,0.8,3.3c0.4,0.5,0.3,1.2,0.3,1.9c0.1,1.5-0.3,3,0.7,4.4c0.3,0.4,0.2,1.1,0.2,1.6c0,0.9,0,1.8,0.1,2.8
		c0,0.7,0.3,0.9,1,0.9c0.6,0,0.8-0.3,0.8-0.9c0-0.8,0-1.6,0-2.4c0-0.7-0.1-1.4,0.7-1.9c0.4-0.3,0.2-0.9,0.2-1.4
		c0.1-1-0.2-2.1,0.8-2.9c0.2-0.2,0.2-0.8,0.2-1.3c0.1-1.2,0-2.4,0.8-3.5c0.8-1.1-0.3-2-1-2.5c-0.7-0.6-0.9-1.2-0.6-1.8
		c0.3-0.7,1-1.2,1.7-1.2c1.4-0.1,2.9-0.1,4.3,0c1.3,0.1,2.3,1.3,2,2.3c-0.2,0.7-0.9,1.1-1.4,1.5c-0.4,0.3-0.6,0.6-0.6,1
		c0,0.5-0.1,0.9-0.6,1.2c-0.5,0.3-0.3,0.9-0.4,1.4c-0.2,1.2,0.4,2.6-0.8,3.7c-0.2,0.2-0.1,0.8-0.1,1.3c0,0.9,0,1.8-0.8,2.6
		c-0.2,0.2-0.2,0.5-0.2,0.8c-0.1,1.2,0.1,2.5-0.8,3.5c-0.2,0.3-0.1,0.8-0.1,1.3c-0.1,0.9,0,1.8-0.8,2.6c-0.3,0.3-0.2,0.7-0.2,1
		c-0.2,1,0,2.1-0.9,3c-0.5,0.4-0.2,1.3-0.2,2c0,0.7,0.1,1.4-0.7,1.9c-0.5,0.3-0.2,1-0.3,1.5c-0.1,1,0.2,2-0.8,2.7
		c-0.4,0.3-0.2,1.1-0.2,1.6c0,0.8,0.1,1.6-0.7,2.1c-0.4,0.3-0.2,1-0.3,1.5c-0.1,0.9,0.1,1.9-0.7,2.7c-0.5,0.4-0.3,1.3-0.2,2
		c0.2,1.7-1,2.8-1.3,4.3c-0.1,0.4-0.6,0.4-0.9,0.4c-1.6,0-3.2,0-4.8,0c-0.4,0-1,0-1.1-0.5c-0.1-0.5-0.2-1.1,0.3-1.5
		c0.8-0.7,0.9-1.8,1.5-2.7c0.9-1.3,0.9-3.1,1.9-4.4c0.1-0.1,0.1-0.4,0.2-0.6c0.3-1.7,1-3.2,1.9-4.6c0.3-0.5,0.3-1.1-0.2-1.5
		c-0.2-0.2-0.6-0.3-0.5-0.6c0.3-1.9-0.9-3.4-1.1-5.1c-0.1-1,0-2-0.9-2.8c-0.1,0-0.1-0.2-0.1-0.2c0.2-2.3-1.4-4.4-1.2-6.7
		c0.1-0.6,0-1.2-0.6-1.6c-0.5-0.3-0.3-0.9-0.4-1.5c-0.1-1,0.2-2-0.8-2.9c-0.5-0.4-0.2-1.2-0.2-1.9c0-0.8,0-1.5-0.7-2.2
		c-0.5-0.5-0.3-1.4-0.2-2.1c0.2-1.2-0.8-1.6-1.2-2.5c-0.1-0.3-0.5-0.2-0.7,0.1c-0.4,0.6-1,1-1,1.8c0,1.1-0.1,2.2-0.7,3.3
		c-0.5,0.9-0.3,2.1-0.4,3.2c-0.1,0.6,0,1.2-0.6,1.6c-0.4,0.2-0.3,0.6-0.3,1c0,0.9,0,1.8-0.1,2.6c0,0.3,0,0.8-0.1,0.9
		c-1.1,0.9-0.7,2.1-0.8,3.2c-0.1,0.9,0.2,1.8-0.8,2.5c-0.3,0.2-0.2,0.8-0.2,1.1c-0.2,1.4,0.4,2.9-0.8,4.1c-0.3,0.2-0.1,0.9-0.1,1.4
		c-0.1,3.1-0.1,3.2-3.3,3.2c-1.2,0-2.5,0.1-3.7-0.1c-0.8-0.1-1.2-0.5-1.2-1.3c0-1.1,0.2-2.3-0.8-3.4c-0.5-0.6-0.2-1.8-0.2-2.7
		c0-0.7,0.1-1.4-0.6-1.8c-0.4-0.2-0.3-0.7-0.3-1.1c0-1,0-2-0.1-3c0-0.3,0-0.6-0.4-0.6c-0.3,0-0.4,0.2-0.4,0.5c0,1.9-1.5,3.4-1,5.4
		c0,0.1,0,0.3-0.1,0.3c-1.2,1.2-0.8,2.7-0.9,4.2c-0.1,1.2-1.1,2-1.1,3.2c0,0.3-0.5,0.4-0.8,0.4c-1.6,0-3.3,0-4.9,0
		c-1,0-1.4-0.5-1.4-1.5c0-0.6,0-1.3-0.6-1.7c-0.4-0.2-0.2-0.7-0.3-1.1c-0.2-1.4,0.4-3-0.8-4.3c-0.4-0.5-0.2-1.5-0.3-2.3
		c0-0.5-0.1-0.9-0.5-1.3c-0.2-0.2-0.4-0.5-0.3-0.7c0.2-2.7-1.3-5-1.2-7.7c0-0.6,0-1.3-0.6-1.7c-0.4-0.3-0.3-0.8-0.3-1.2
		c-0.2-1.3,0.4-2.8-0.8-3.9c-0.3-0.3-0.1-1-0.1-1.5c0-0.7-0.2-1-1-1.1c-0.9-0.1-1.3-1-1.2-2.3c0.1-0.9,0.3-1.5,1.4-1.5
		c2.9,0,5.8,0,8.6,0c1.4,0,2.3,1,2.1,2.2c-0.1,0.7-0.8,0.9-1.2,1.4c-0.6,0.8-1.1,2.3-0.5,3c0.9,1.1,0.7,2.4,0.8,3.7
		c0.1,1-0.2,2.1,0.8,3c0.5,0.6,0.2,1.6,0.2,2.5c0.1,0.9-0.2,1.8,0.7,2.5c0.3,0.2,0.2,0.7,0.2,1.1c0,1.2,0,2.4,0.1,3.6
		c0,0.3,0.1,0.6,0.5,0.6c0.3,0,0.3-0.3,0.4-0.5c0-0.6,0-1.1,0-1.7c0-0.6,0-1.2,0.6-1.6c0.4-0.3,0.3-0.8,0.3-1.2
		c0.1-1.2-0.3-2.6,0.2-3.7c1.2-2.2,0.5-4.6,0.8-6.9c0.3-2.2-0.7-3.6-2.2-4.9c-0.6-0.5-0.9-1.1-0.6-1.7c0.3-0.7,0.9-1.3,1.7-1.4
		c3.1-0.1,6.2-0.1,9.4,0c0.9,0,1.6,0.8,1.8,1.6c0.3,1.2-0.8,1.8-1.7,2.1c-1,0.4-1.4,0.6-0.5,1.6c0.4,0.5,0.3,1.2,0.3,1.9
		c0.2,1.4-0.4,2.9,0.8,4.3c0.5,0.6,0.1,1.9,0.2,2.8c0.1,1-0.3,2,0.8,2.7c0.2,0.2,0.2,0.7,0.2,1c0,1.3,0,2.6,0.1,3.8
		c0,0.3-0.1,0.7,0.3,0.8c0.4,0.2,0.4-0.3,0.7-0.5c1-0.8,0.9-1.9,0.9-2.9c0-1.4,0-2.8,0.8-4c0.3-0.5,0.1-1.2,0.2-1.9
		c0.1-1.3,0.1-2.6,0.8-3.8c0.4-0.8,0.3-1.9,0.4-2.9c0-0.4-0.1-1.1,0.1-1.3c1.3-1.1,0.1-1.7-0.5-2.2c-0.7-0.6-1.1-1.3-0.7-2
		c0.5-0.7,1.3-1.3,2.3-1.2C209.8,22.4,212.1,22.4,214.3,22.4z"/>
	<path class="st0" d="M151.8,78.3c46.5,0,92.9,0,139.4,0c0.8,0,1.9-0.3,2,1.2c0.1,1.5-0.2,1.9-1.7,1.9c-0.3,0-0.6,0-1,0
		c-92.8,0-185.6,0-278.4,0c-0.9,0-2,0.3-2-1.3c0-1.7,0.1-1.8,1.9-1.8C58.6,78.3,105.2,78.3,151.8,78.3z"/>
	<path class="st0" d="M80.3,39c0,1.5,0,3,0,4.6c0,1,0.1,2-0.7,2.8c-0.1,0.1-0.2,0.4-0.2,0.7c0.1,3.2-1.7,5.4-3.8,7.5
		c-1.7,1.7-3.5,2.7-5.8,2.7c-0.6,0-1.1,0-1.6-0.5c-0.4-0.4-1-0.5-1.6-0.3c-0.6,0.2-0.4,0.9-0.4,1.4c0,3.4,0,6.8,0,10.2
		c0,1.1,0,2,1.4,2.4c0.8,0.2,0.8,1.1,0.6,1.9c-0.1,0.7-0.5,1-1.2,1c-3.2,0-6.3,0-9.5,0c-0.6,0-1.2-0.1-1.2-0.9c0-0.8-0.4-1.8,0.7-2
		c1.2-0.3,1.2-1,1.2-1.9c0-12.5,0-25,0-37.5c0-0.9-0.1-1.6-1.3-1.7c-0.7-0.1-1.4-0.8-1.7-1.5c-0.3-0.6-0.3-1.5,0.8-1.6
		c1.1-0.1,1.9-1,2.9-1.3c1.2-0.4,2.3-1.4,3.5-1.8c0.3-0.1,0.6-0.2,0.7-0.5c0.3-0.6,0.9-0.5,1.4-0.4c0.6,0.1,0.6,0.6,0.6,1
		c0,0.1,0,0.2,0,0.2c0.2,0.5-0.4,1.4,0.3,1.6c0.6,0.2,1-0.7,1.4-1.1c1.7-1.7,5.6-2.7,7.7-1.5c1.1,0.6,2,1.6,2.7,2.8
		c0.6,1,0.9,2.2,1.7,3.1c0.4,0.5,0.3,1.1,0.3,1.7c0.1,0.8-0.2,1.8,0.7,2.4c0.3,0.2,0.2,0.7,0.2,1.1C80.3,35.4,80.3,37.2,80.3,39
		C80.3,39,80.3,39,80.3,39z M72.1,39.8c-0.1-3.6,0.5-7.2-1-10.7c-0.5-1.1-1.7-2.3-2.6-1.5c-1.2,1.1-2,2.5-2.2,4.1
		c-0.4,5-0.2,10.1-0.3,15.1c0,1.2,0.1,2.3,0.2,3.5c0.1,0.5,1.8,2.6,2.3,2.7c0.1,0,0.3,0,0.4-0.1c1-0.9,2.3-1.6,2.1-3.3
		c0-0.3,0-0.8,0.2-0.9c1-0.7,0.7-1.8,0.8-2.7C72.1,43.8,72.1,41.8,72.1,39.8z"/>
	<path class="st0" d="M20.7,5.1C21.8,5,22.9,5,23.9,5.3C25,5.6,25.8,6.1,27,5.4c0.5-0.4,1.8-0.5,2.5,0.5c0.4,0.6,0.8,1,0.1,1.6
		c-0.2,0.2-0.2,0.5-0.2,0.8c-0.1,1.8-0.2,3.6-0.2,5.4c-0.1,2-0.9,2.8-2.9,2.7c-0.8,0-1.3-0.4-1.2-1.2c0.3-1.6-0.5-3-1-4.4
		c-0.5-1.4-3-1.9-3.9-0.8c-1,1.2-1.9,2.5-1.9,4.2c0,0.8,0.9,1.2,0.8,1.9c-0.1,1.4,0.7,2.6,1.3,3.6c0.5,0.9,0.7,1.9,1.4,2.7
		c0.5,0.7,0.8,1.8,1.3,2.6c0.7,1.1,1.3,2.2,1.8,3.3c0.4,1,1.1,1.9,1.3,2.9c0.2,0.9,0.9,1.6,1.2,2.5c0.6,1.6,1.4,3.2,2.1,4.8
		c0.7,1.6,0.5,3.1,0.9,4.6c0.3,1.2,0.3,2.2,0,3.3c-0.2,0.7-0.1,1.4-0.1,2.1c0.1,1.8-0.9,3.2-1.9,4.6c-1.4,2-3.3,2.9-5.6,3.3
		c-0.9,0.2-1.7,0.8-2.7,0.7c-0.7-0.1-1.4-0.1-2.1-0.6c-1-0.7-2.1-0.3-3,0.4c-0.8,0.7-1.9,0.4-2.9,0.2c-0.8-0.1-1-0.8-1-1.6
		c0-1,0-2.1-0.1-3.1c0-1,0-1.8-0.7-2.8c-0.6-0.8-0.6-2.2,0-3.1c0.7-1,2-0.7,3.1-0.5c0.9,0.1,0.7,0.9,0.8,1.5c0.2,1.7,1,3,2.2,4.2
		c0.2,0.2,0.7,0.3,1.1,0.3c1.5,0.1,3,0.3,4.1-1.1c0.1-0.1,0.2-0.1,0.3-0.2c0.5-1.6,1.6-3.1,1.1-4.9c-0.1-0.3-0.1-0.6-0.4-0.8
		c-0.3-0.2-0.5-0.5-0.5-0.8c0.3-1.7-0.4-3.2-1.2-4.4c-0.6-0.9-0.7-2.2-1.7-2.9c-0.6-0.4-0.4-1.3-0.9-2c-0.5-0.8-1.2-1.7-1.4-2.7
		c-0.1-1.1-1-1.9-1.4-2.9c-0.4-1.1-1.2-2.2-1.7-3.3c-0.5-1-1-1.9-1.6-2.9c-0.2-0.3-0.3-0.5-0.4-0.8c0-0.3,0-0.7-0.1-0.8
		c-1.4-1.1-0.7-2.7-0.9-4c-0.1-0.5,0.1-1.1-0.5-1.5c-0.1,0-0.2-0.3-0.1-0.3c1.1-1.2,0.3-2.7,0.6-4c0.4-1.8,1.1-3.4,2.7-4.6
		C15.9,5.5,18.2,4.9,20.7,5.1z"/>
	<path class="st0" d="M53.4,37.2c0,4.4,0.1,8.9,0,13.3c0,1.3,0.9,2.3,1.9,2.7c1.1,0.4,1.2,1.1,0.4,2c-0.7,0.8-1.6,1-2.6,1
		c-1.7,0.1-3.4-0.2-5,0.6c-0.5,0.3-0.6-0.2-0.7-0.5c-0.3-0.7-0.1-1.4-0.1-2.1c0-0.3,0-0.6-0.3-0.7c-0.4-0.1-0.4,0.2-0.6,0.4
		c-1.7,1.8-3.5,3.3-6.2,3.2c-1.9-0.1-3.6-0.9-4.8-2.3c-1.3-1.6-2-3.4-2-5.5c0.1-6.2,0-12.4,0-18.6c0-0.9,0.1-1.7-1.4-1.5
		c-0.8,0.1-1.5-0.8-1.7-1.7c-0.2-1,0.5-1,1.2-1.5c1-0.7,2.3-0.5,3-1.5c0.1-0.1,0.3-0.2,0.4-0.2c1.4-0.1,2.4-1.2,3.6-1.7
		c0.5-0.2,1-0.5,1.5-0.3c0.5,0.2,0.4,0.8,0.4,1.3c0,8,0,16.1,0,24.1c0,0.9,1.2,3.5,1.8,4c0.4,0.3,0.6,0.3,1,0.1
		c1.6-0.9,2.1-2.6,3-3.9c0.2-0.2,0.1-0.6,0.1-0.9c0-5.4,0-10.9,0-16.3c0-1-0.3-1.4-1.3-1.3c-0.8,0-1.6-0.2-1.7-1.2
		c-0.1-0.8-0.3-1.5,0.7-2.1c0.8-0.5,1.5-0.6,2.4-0.9c1-0.3,2-0.7,2.8-1.3c1-0.7,2.2-1.1,3.2-1.6c1-0.5,1.2,0.4,1.2,1.2
		c0,3.4,0,6.8,0,10.2C53.4,34.9,53.4,36,53.4,37.2z"/>
	<path class="st0" d="M143.2,31c0,6.5,0,13,0,19.6c0,1.8,0,1.7,1.7,1.6c0.9-0.1,1.7,0.2,2.6,0c1.9-0.3,3.4-1.9,3.5-3.9
		c0-0.7,1.1-1.9,1.7-1.9c0.6,0,1.5,1.1,1.5,2c0,1.9-0.1,3.8,0,5.6c0.1,1.2-0.5,2.1-1.1,3c-0.3,0.5-2.4,0.6-2.8,0
		c-0.6-0.7-1.2-0.6-1.9-0.6c-4.7,0-9.4,0-14.2,0c-1.7,0-2.3-0.6-2-2c0.1-0.6,0.4-1,1-1.2c1.7-0.5,2-0.9,2-2.6c0-13.1,0-26.2,0-39.2
		c0-1.1,0-2-1.5-2.2c-1.1-0.2-1.8-1.3-1.6-2.2c0.2-0.8,1.3-1.6,2.2-1.6c3.2,0,6.4,0,9.6,0c1,0,2.2,0.9,2.3,1.7
		c0.1,0.8-0.6,2-1.7,2.2c-1.2,0.2-1.4,0.8-1.4,1.9C143.2,17.7,143.2,24.4,143.2,31z"/>
	<path class="st0" d="M175.3,40.1c0,3.6,0,7.1,0,10.7c0,0.9,0,1.6,1.2,1.6c0.7,0,1.2,2.1,0.6,2.6c-0.6,0.6-1.2,1.2-2.3,1.2
		c-1.6,0.1-3.2-0.2-4.8,0.7c-0.7,0.4-1-0.6-1.3-0.9c-0.6-0.7-0.9-1-1.7-0.1c-1.4,1.5-4.2,1.5-6.1,0.7c-1.8-0.8-3.1-1.9-4.2-3.5
		c-0.4-0.5-0.6-1.1-0.6-1.7c0-2.4,0-4.8,0-7.2c0-0.9,0.3-1.6,0.9-2.3c1.1-1.3,1.8-2.9,3.1-4.1c0.9-0.8,2-1.1,3-1.6
		c1.5-0.8,3.2-1.4,4.7-2.3c0.8-0.5,0.6-1.7,0.1-2.5c-0.4-0.7-0.7-1.4-0.6-2.1c0.2-1.3-0.5-2.2-1.4-2.6c-0.9-0.4-2-0.3-3,0.4
		c-0.9,0.6-1.8,1-2.6,1.7c-0.5,0.4-0.7,0-1.1-0.1c-0.8-0.3-1.1-1-1.4-1.6c-0.4-0.7,0.5-1.3,1-1.7c1-1,2.6-1.4,3.7-2.2
		c2.1-1.6,4.5-0.8,6.8-0.9c1.2-0.1,2,0.9,2.9,1.5c1.5,0.9,2.2,2.6,2.9,4.1c0.3,0.6,0.3,1.2,0.3,1.9
		C175.3,33.2,175.3,36.6,175.3,40.1C175.3,40.1,175.3,40.1,175.3,40.1z M168.1,43.7c0-1.4,0-2.8,0-4.2c0-0.4,0.2-1.1-0.5-1.2
		c-0.5-0.1-1.1,0-1.4,0.5c-0.1,0.3-0.3,0.4-0.6,0.6c-1.3,0.9-2,2.4-2.2,3.6c-0.4,2.4-0.2,4.9-0.1,7.3c0,0.9,0.8,1.3,1.5,1.7
		c0.5,0.3,1.1,0,1.5-0.6c0.9-1.3,1.8-2.6,1.7-4.3C168.1,46,168.1,44.9,168.1,43.7z"/>
	<path class="st0" d="M82.2,40.2c0-1.6,0-2.8,0-4c0-0.8-0.1-1.6,0.7-2.3c0.5-0.4,0.2-1.3,0.3-2c0-0.7,0.1-1.2,0.7-1.8
		c0.6-0.6,0.7-1.6,1.1-2.4c1.1-2.2,2.9-3.4,4.8-4.7c2-1.4,4-0.9,5.9-0.7c1.3,0.2,2.6,1.3,3.7,2.3c1.3,1.2,2.3,2.6,2.7,4.1
		c0.5,1.9,1.2,3.7,1.3,5.7c0,0.4-0.1,0.7-0.4,0.9c-1,0.8-2,1.5-3.1,2.1c-2,1.1-4.1,1.9-6,3.1c-0.9,0.6-2.3,0.6-2.9,1.8
		c-0.1,0.1-0.3,0.2-0.3,0.3c-0.1,1.9-0.5,3.8,0.2,5.5c0.2,0.6,0.5,1.1,0.6,1.8c0.2,1.6,2.4,3.4,3.9,3.1c1.2-0.3,2.1-1.2,2.8-2
		c0.5-0.6,1.2-1.1,1.3-2.2c0.1-0.8,1-0.7,1.6-0.5c1.2,0.4,1.9,2.3,1.2,3.3c-1.2,1.6-2.7,3-4.1,4.4c-0.1,0.1-0.2,0.1-0.3,0.1
		c-1,0.2-2.1,0.3-3.1,0.9c-0.7,0.3-1.7,0.4-2.4-0.3c-0.3-0.3-0.7-0.2-1-0.3c-0.8-0.1-1.6-0.2-2.2-0.9c-0.5-0.5-1.4-0.5-2.1-1.2
		c-1.3-1.3-2-2.9-2.9-4.4c-0.8-1.3-0.3-2.9-1-3.9C81.6,44,82.5,41.8,82.2,40.2z M90.4,33.4c0,1.1,0,1.9,0,2.7c0,0.4-0.1,1,0.5,1.1
		c0.5,0.1,1,0.2,1.3-0.3c0.3-0.4,0.6-0.5,1.1-0.6c1-0.2,1.8-1.2,1.9-2.2c0.1-2.5,0.1-5-1.1-7.3c-0.3-0.5-0.7-1.5-1.5-1.2
		c-0.5,0.1-1.2,1-1.2,1.5C91.4,29.3,89.9,31.3,90.4,33.4z"/>
	<path class="st0" d="M243.2,22.1c0.7,0,1.2,0.1,1.6,0c1.5-0.3,2.5,0.7,3.4,1.5c1.2,1.1,2.5,2.3,3.5,3.7c0.1,0.2,0.4,0.3,0.4,0.4
		c0.6,2.4,1.8,4.8,1.2,7.4c-0.1,0.7-0.5,0.9-1.1,1.2c-1,0.4-2,1-3,1.5c-1,0.5-1.8,1.4-3,1.5c-0.9,0.1-1.6,0.8-2.2,1.1
		c-0.9,0.5-2.1,0.7-2.9,1.6c-0.8,0.9-0.8,1.9-0.4,2.6c0.7,1.4,0.7,2.9,0.8,4.4c0.1,2,2,4,3.8,3.9c1.6-0.1,3.7-1.7,4.2-3.3
		c0.5-1.6,1.7-1.8,3.1-0.9c1.4,0.9,1,1.6,0.2,2.4c-0.9,1-1.3,2.3-2.2,3.3c-0.7,0.7-1.7,0.9-2.5,1.4c-1.1,0.6-2.6,1.2-3.8,1
		c-2.1-0.2-4.4-0.4-6-2.4c-0.5-0.7-1.3-1.1-1.9-1.7c-1.1-1.2-1.4-2.8-2.2-4c-1-1.6-0.7-3.2-0.9-4.8c0-0.2,0-0.5-0.1-0.6
		c-1.6-1.7-0.5-3.8-0.8-5.7c1.5-1.7,0.7-3.7,0.9-5.6c0.1-0.4,0-0.8,0.5-1c0.5-0.3,0.5-0.7,0.5-1.1c0-1.2,0.8-2.1,1.5-3
		c0.7-1,1.2-2.1,2.2-2.9C239.5,22.8,241.2,21.7,243.2,22.1z M245.2,31.3c0-3.3,0-3.3-1-5.5c-0.2-0.4-0.4-0.4-0.8-0.4
		c-0.4,0-0.8-0.1-0.9,0.4c-0.3,1.4-1.6,2.6-1.1,4.2c0.1,0.4-0.1,0.9-0.1,1.4c0,1.6-1.2,3.1-0.8,4.7c0.1,0.4-0.1,1,0.5,1.1
		c0.5,0.1,1.1,0.2,1.4-0.4c0.2-0.3,0.5-0.4,0.8-0.5c1.5-0.4,2.1-1.1,2.1-2.6C245.2,32.9,245.2,32.1,245.2,31.3z"/>
	<path class="st0" d="M291.2,26.7c0,1.2,0,2.3,0,3.5c0,0.7-0.3,1.1-1,1.1c0,0-0.1,0-0.1,0c-2.8,0.3-3.2,0.1-2.9-2.6
		c0.2-2-1.3-2.3-2.3-3.2c0,0-0.2-0.1-0.2-0.1c-0.6,0.7-1.6,0.7-2.2,1.2c-0.7,0.5-0.5,4,0.2,4.6c1.5,1.2,2.2,3,3.5,4.4
		c0.8,0.9,1.7,1.7,2.5,2.6c1,1.1,2,2.1,2.7,3.6c0.5,1,0.4,2.3,1,3c1.1,1.3,0.6,2.7,0.7,4.1c0.1,0.6,0,1.2-0.6,1.6
		c-0.1,0.1-0.2,0.3-0.2,0.4c0,1.8-1.6,2.5-2.5,3.6c-2.2,2.7-5.3,2.1-8.2,2c-1,0-1.8-0.2-2.6,0.8c-0.7,0.9-2.7,0.1-2.8-1
		c-0.2-1.8-1.5-3.4-1.1-5.3c0-0.2-0.1-0.4-0.2-0.5c-1-1.3-0.9-1.8,0.7-2.1c0.2,0,0.4-0.1,0.6-0.2c0.3-0.2,0.5-0.9,0.9-0.6
		c0.5,0.5,1.2,0.7,1.3,1.6c0.4,2.4,4.5,4.2,6.6,2.9c1.6-1,1.7-3.5,0.7-4.8c-0.5-0.7-0.9-1.6-1.2-2.3c-0.8-2-2.6-3-3.8-4.5
		c-0.9-1.1-2-2.1-2.7-3.5c-0.5-1.1-1.7-1.7-2.3-2.8c-0.2-0.4-0.5-0.7-0.5-1.2c0-1.9-0.2-3.9,0-5.7c0.1-1.3,1.6-2,2.4-2.9
		c0.8-0.9,2-0.9,2.8-1.9c0.2-0.3,0.7-0.3,1-0.3c1.5,0,3,0.1,4.6,0c0.8-0.1,1.1,0.8,1.7,0.8c0.6,0,0.9-0.8,1.7-0.8
		c1.7,0,1.9,0.1,1.9,1.9c0,0.5,0,1,0,1.4C291.3,25.8,291.3,26.3,291.2,26.7C291.3,26.7,291.3,26.7,291.2,26.7z"/>
	<path class="st0" d="M110.9,56.4c-1.5,0-3,0-4.4,0c-0.7,0-1.3-0.3-1.3-1.2c0.1-0.8-0.3-1.8,1-2c0.8-0.1,1-0.6,0.9-1.3
		c0-7.2,0-14.3,0-21.5c0-0.8-0.3-1.2-1.1-1.2c-0.7,0-1.6,0.3-1.8-0.7c-0.2-0.9-0.6-1.8,0.7-2.6c1.2-0.7,2.5-1.1,3.7-1.8
		c0.9-0.5,1.8-0.9,2.6-1.5c0.7-0.5,1.4-0.7,2.2-0.4c0.9,0.3,0.6,1.1,0.6,1.8c0,0.4-0.1,0.9,0.4,1c0.5,0.2,0.5-0.4,0.8-0.6
		c0.9-0.5,1.5-1.2,2.2-1.9c0.4-0.4,1-0.5,1.6-0.4c5.1,0,4.2-0.7,4.2,3.9c0,1.3,0,2.6,0,4c0,0.4,0,0.9-0.4,1.2
		c-0.6,0.5-1.1,1.5-2,0.9c-0.8-0.5-2-1-1.7-2.4c0.1-0.4,0.1-1-0.5-1.2c-0.5-0.2-1-0.1-1.5,0.4c-1,1-1.6,2.1-2.2,3.5
		c-0.7,1.8-0.6,3.5-0.6,5.2c0,4.6,0,9.3,0,13.9c0,0.9,0.1,1.6,1.2,1.8c1.2,0.3,0.7,1.3,0.7,2.1c0.1,0.8-0.5,1-1.2,1
		C113.7,56.4,112.3,56.4,110.9,56.4C110.9,56.4,110.9,56.4,110.9,56.4z"/>
	<path class="st0" d="M257.2,41c0-3.5,0-7,0-10.6c0-0.9-0.1-1.5-1.3-1.2c-0.6,0.1-1.4,0-1.5-0.8c-0.1-0.8-0.4-1.6,0.4-2.3
		c0.7-0.7,1.5-0.9,2.4-1c1-0.1,1.9-0.7,2.5-1.2c0.9-0.7,2.1-0.5,2.8-1.6c0.3-0.6,1.5,0.1,1.6,0.9c0.1,0.7,0,1.4,0,2
		c0,0.3,0,0.7,0.4,0.8c0.5,0.1,0.5-0.4,0.5-0.7c-0.1-1.1,0.9-1.3,1.4-1.7c1.8-1.6,3.9-1.8,6.2-1.4c0.5,0.1,0.6,0.4,0.6,0.9
		c0,2.5,0,5-0.1,7.4c0,0.8-0.9,1.2-1.4,1.6c-0.5,0.3-1-0.1-1.6-0.5c-0.8-0.6-1-1.1-0.9-2c0-0.4,0-1-0.6-1.2c-0.6-0.1-1,0-1.5,0.5
		c-1.3,1.1-1.6,2.4-2,4c-1.6,6.1-0.3,12.3-0.7,18.4c-0.1,1,0.6,1.8,1.6,1.9c1.3,0.1,1.2,0.9,1.3,1.8c0,1.1-0.7,1.3-1.5,1.3
		c-2.3,0.1-4.6,0-7,0c-0.8,0-1.7,0-2.5-0.1c-0.7,0-1.1-0.4-1.1-1.2c0.1-0.7-0.3-1.7,0.9-1.9c0.9-0.2,1.1-0.7,1.1-1.5
		C257.1,48.1,257.2,44.6,257.2,41z"/>
	<path class="st0" d="M194.3,94.6c0,2.4,0,4.7,0,7.1c0,1.1-0.3,1.7-1.5,1.5c-0.6-0.1-1.1,0-1.7,0c-0.3,0-0.7,0-0.8-0.4
		c-1-2.5-2.8-4.4-4.5-6.4c-0.6-0.8-0.7-2-1.6-2.5c-0.2-0.1-0.2-0.7-0.6-0.5c-0.4,0.1-0.3,0.5-0.3,0.8c0,1.3,0,2.6,0,4
		c0,1.2,0,2.4,0,3.6c0,0.5,0.2,1.3-0.6,1.4c-0.8,0.2-1.7,0.4-2.4-0.2c-0.7-0.6-1.2-1.3-1.2-2.4c0.1-4.2,0-8.5,0-12.7
		c0-1.5,0.2-1.6,1.7-1.7c0.4,0,0.8,0.1,1.2,0c1.5-0.3,2.3,0.7,3,1.7c1.3,1.9,2.2,4,3.9,5.6c0.3,0.3,0.2,0.7,0.3,1
		c0,0.3,0,0.7,0.4,0.7c0.5,0,0.5-0.5,0.5-0.8c0-2,0-4.1,0-6.1c0-0.6-0.3-1.5,0.4-1.9c1-0.4,2.2-0.4,3.3-0.1c0.5,0.1,0.4,0.7,0.4,1.2
		C194.3,89.8,194.3,92.2,194.3,94.6z"/>
	<path class="st0" d="M263.2,94.6c0-2.4,0-4.7,0-7.1c0-1,0.3-1.4,1.3-1.4c3.2,0,6.3,0,9.5,0c1,0,2.3,1,2.4,2c0.1,0.8,1,1.2,1,2.2
		c0.2,2.4-1,4.2-2.6,5.8c-0.6,0.5-0.2,0.6,0,1.1c0.6,1.6,2.5,2.4,2.7,4.3c0,0.1,0.1,0.2,0.1,0.3c0.7,1.2,0.7,1.2-0.8,1.3
		c-0.6,0-1.3,0-1.9,0c-1,0-1.7-0.1-1.7-1.3c0-0.7-0.7-0.8-1-1.2c-1-1.2-1.4-2.7-2.7-3.6c-0.3-0.2-0.4-1-0.8-0.6
		c-0.5,0.4-1.3,0.7-1.3,1.6c0,1.2-0.1,2.4,0,3.6c0.1,1.2-0.4,1.6-1.6,1.6c-2.5,0-2.5,0-2.5-2.6C263.2,98.7,263.2,96.6,263.2,94.6z
		 M270.3,89.3c-3.3,0-3-0.4-3,2.7c0,0.1,0,0.2,0,0.2c-0.1,0.8,0.3,1.1,1.1,1.1c1.2,0,2.3,0,3.5-0.2c0.5-0.1,1.3,0.1,1.3-0.7
		c0.1-0.8,0.3-1.5-0.3-2.3C272,89.2,271,89.3,270.3,89.3z"/>
	<path class="st0" d="M134.1,94.4c0-2.3,0-4.6,0-6.8c0-1,0.4-1.4,1.4-1.4c2.6,0,5.2,0.1,7.8,0c1.4-0.1,2.2,0.6,3,1.4
		c0.6,0.6,1.1,1.2,1.1,2.1c0,0.6,0.8,0.8,0.9,1.5c0.2,1.4-0.6,2.3-1.4,3.2c-0.4,0.4-0.7,0.9-1.2,1.2c-0.6,0.4-0.6,2.1,0.1,2.5
		c1.3,0.8,1.5,2.4,2.4,3.5c0.6,0.8,0,1.7-1.1,1.7c-1.2,0-2.6,0.3-3.4-1c-0.1-0.1-0.3-0.2-0.3-0.3c0.1-1-0.6-1.7-1.2-2.2
		c-1-0.7-0.5-2.2-1.8-2.6c-0.4-0.1-0.4-1-1-0.6c-0.5,0.4-1,0.8-1,1.5c0,1,0,1.9,0,2.9c0,2.1-1.7,3.1-3.6,2.2
		c-0.7-0.4-0.6-1.2-0.7-1.8C134,99,134.1,96.7,134.1,94.4z M140.5,93.4c0.6,0,1.3,0,1.9-0.2c1.7-0.5,2-1.8,1-3.2
		c-0.7-0.9-1.4-0.7-2.2-0.7c-3.1,0-2.8-0.5-2.8,3c0,0.7,0.3,1.1,1.1,1.1C139.8,93.4,140.1,93.4,140.5,93.4z"/>
	<path class="st0" d="M206.7,89.3c-0.9,0-1.8,0-2.6,0c-1.9,0-2.7,0.8-2.8,2.7c0,0.6-0.1,1-0.6,1.5c-0.6,0.5-0.6,1.3,0,1.8
		c0.4,0.4,0.5,0.8,0.5,1.3c0.1,1.6,0.7,2.3,2.2,2.7c0.9,0.3,1.6,1,2.7,0.9c0.8-0.1,1.2-0.3,1.2-1.1c0-0.7,0-1.4,0-2.2
		c0-1.7,0.9-2.5,2.6-2.5c1,0,1.4,0.4,1.5,1.3c0,1.9,0.1,3.8,0,5.8c-0.1,1-0.9,1.7-1.9,1.8c-2.1,0.1-4.2,0.3-6.2,0
		c-1.5-0.3-3-1.1-4.1-2.3c-0.5-0.6-1-1.2-1.6-1.8c-0.1-0.1-0.2-0.1-0.2-0.2c0.1-1.7-1.4-3-1.2-4.8c0.1-0.4,0.1-0.7,0.5-0.9
		c0.2-0.1,0.4-0.3,0.4-0.4c-0.2-1.4,0.8-2.5,1.1-3.7c0.3-1,2.3-2.6,3.7-2.8c0.6-0.1,1.1-0.1,1.4-0.7c0.2-0.3,0.6-0.3,1-0.3
		c1.2,0,2.3,0,3.5,0c0.6,0,1.1,0,1.5,0.6c0.1,0.2,0.4,0.3,0.6,0.3c0.5,0.1,1.1-0.1,1.3,0.5c0.2,0.7,0.2,1.4,0,2.1
		c-0.1,0.6-0.6,0.5-1.1,0.5C209,89.4,207.8,89.4,206.7,89.3C206.7,89.3,206.7,89.3,206.7,89.3z"/>
	<path class="st0" d="M165.4,89.3c-1,0-2,0-3,0c-0.5,0-0.9,0.2-1.1,0.7c-0.1,0.6,0.1,0.8,0.5,1.3c0.8,0.7,1.5,0.9,2.5,0.9
		c0.4,0,0.7,0.1,0.9,0.4c0.2,0.4,0.6,0.5,1,0.5c2.6,0.3,3.9,2,4.1,4.6c0.2,2.3-1.3,3.4-2.7,4.7c-1.4,1.3-3,0.7-4.5,0.9
		c-0.6,0.1-1.1-0.1-1.7,0c-1.5,0.4-2.5-1-3.8-1.2c-0.5-0.1-0.7-1-0.4-1.4c0.4-0.7,0.7-1.7,1.9-1.6c1.2,0.1,2.4,0,3.6,0.8
		c0.9,0.6,2.9-0.1,3.4-1.1c0.4-0.8-0.6-2.3-1.6-2.5c-0.4-0.1-0.9,0-1.3,0c-2.6-0.1-4.4-1.6-5.8-3.6c-1-1.5-0.1-4.4,1.3-5.6
		c1.7-1.4,3.6-2.1,5.8-1.9c0.7,0.1,1.4-0.1,1.9,0.7c0.3,0.4,1,0.2,1.5,0.3c1.3,0.1,1.4,0.2,1.5,1.7c0,1.2-0.4,1.6-1.6,1.5
		C167,89.3,166.2,89.4,165.4,89.3C165.4,89.4,165.4,89.3,165.4,89.3z"/>
	<path class="st0" d="M227.4,89.3c-1,0-2.1,0-3.1,0c-0.8,0-1.3,0.9-0.8,1.5c0.6,0.6,1,1.5,2.2,1.4c0.7-0.1,1.4,0,1.9,0.7
		c0.2,0.3,0.6,0.2,0.9,0.3c2.2,0.2,3.8,1.9,3.8,4.1c0,0.2,0,0.4,0,0.6c0.4,2.2-1.3,3.3-2.6,4.5c-1.6,1.4-3.3,0.6-5,0.9
		c-1.8,0.4-3.3-0.7-4.9-1.1c-0.6-0.2-0.6-1-0.4-1.3c0.4-0.7,0.8-1.7,1.9-1.7c1.1,0,2.3,0,3.3,0.7c1,0.7,3,0,3.5-1.1
		c0.4-0.8-0.6-2.3-1.6-2.4c-0.5-0.1-1,0-1.4,0c-0.7,0-1.4,0.1-1.8-0.7c-0.1-0.2-0.4-0.2-0.6-0.3c-1.7-0.4-3.1-2.2-3.3-4
		c-0.3-2.1,0.8-3.6,2.1-4.9c0.2-0.2,0.5-0.2,0.8-0.3c0.3,0,0.7,0,0.8-0.1c1.6-1.6,3.6-0.7,5.3-0.7c0.9,0,1.7,0.7,2.6,1.1
		c0.8,0.3,0.4,1.5,0.4,2.3c0,0.7-0.6,0.6-1.1,0.6C229.2,89.4,228.3,89.4,227.4,89.3C227.4,89.3,227.4,89.3,227.4,89.3z"/>
	<path class="st0" d="M287.3,89.3c-1,0-2,0-3,0c-1,0-1.2,0.8-0.9,1.4c0.4,0.7,0.9,1.5,1.9,1.5c0.8,0,1.7-0.1,2.3,0.7
		c0.2,0.3,0.8,0.2,1.1,0.2c1.8,0.3,3.4,2,3.5,3.9c0,0.2,0,0.5,0,0.7c0.4,2.3-1.2,3.3-2.7,4.6c-1,0.9-2.1,0.9-3.3,0.9
		c-1.1,0-2.2-0.1-3.4,0c-1.3,0.1-2.1-1.3-3.4-1.2c-0.1,0-0.2-0.3-0.3-0.5c-0.3-1,0.7-2.4,1.7-2.4c1.2,0,2.4-0.1,3.4,0.7
		c1,0.7,3.1,0,3.6-1.1c0.4-0.8-0.6-2.3-1.7-2.4c-0.6-0.1-1.1,0-1.7-0.1c-0.6,0-1.1,0-1.5-0.6c-0.2-0.3-0.4-0.3-0.7-0.3
		c-1.7-0.3-3.1-2.2-3.3-3.9c-0.3-2.2,0.6-3.9,2.2-4.9c0.9-0.6,2-1.5,3.4-1.3c0.8,0.1,1.6,0,2.4,0c0.3,0,0.7-0.1,0.9,0.2
		c0.5,0.8,1.3,0.7,2.1,0.8c0.4,0,1.9,1.5,1.7,1.6c-0.7,0.5-0.6,1.7-1.8,1.6C289.2,89.3,288.3,89.4,287.3,89.3
		C287.3,89.3,287.3,89.3,287.3,89.3z"/>
	<path class="st0" d="M253.8,86.2c0.5,0,1,0,1.6,0c0.3,0,0.7,0.1,0.7,0.3c-0.1,1.3,1.2,2,1.2,3.2c0,0.6,0.1,1.2,0.7,1.5
		c0.1,0.1,0.3,0.3,0.3,0.4c-0.3,1.5,0.6,2.7,1.2,3.8c0.7,1.4,0.6,2.9,1.6,4.2c0.6,0.8,0.4,2.1,0.1,3.1c-0.2,0.6-2.4,0.6-2.9,0.1
		c-0.6-0.6-1.3-1.2-1.1-2.3c0.1-0.8-0.3-1.2-1.2-1.2c-1.5,0-3,0-4.6,0c-0.8,0-1.1,0.3-1.2,1.1c-0.1,2.1-1.1,3-3.2,2.7
		c-0.5-0.1-0.9-0.2-0.9-0.7c-0.1-1-0.2-2,0.3-2.8c0.8-1.6,0.9-3.5,1.9-4.8c1-1.2,0.3-3,1.7-4c0.2-0.1,0.1-0.7,0.1-1
		c0-0.6,0-1.2,0.6-1.6c0.1-0.1,0.2-0.2,0.3-0.4C251.7,86.1,251.7,86.1,253.8,86.2z M255.3,94.6c-0.3-1.1-1.3-2.3-1.3-3.8
		c0-0.1-0.2-0.3-0.3-0.3c-0.2,0-0.3,0.3-0.3,0.5c-0.1,0.8,0,1.7-0.5,2.3c-0.6,0.7-0.5,1.5-0.4,2.3c0,0.5,0.3,0.8,0.7,0.2
		c0.3-0.4,0.6-0.5,1-0.2c0.3,0.2,0.3,0.8,0.8,0.5C255.4,95.8,255.1,95.3,255.3,94.6z"/>
	<path class="st0" d="M238.1,96.2c0-1.9,0-3.8,0-5.6c0-0.9-0.3-1.2-1.2-1.2c-0.9,0-1.8,0-2.6,0c-1.1,0-1.2-0.7-1.2-1.5
		c0-0.8-0.1-1.7,1.1-1.7c3.7,0,7.4,0,11.1,0c1.1,0,1,0.8,1,1.5c0,0.7,0.2,1.6-1,1.6c-0.1,0-0.2,0-0.4,0c-2.7,0.1-2.7,0.1-2.7,2.9
		c0,2.9,0,5.8,0,8.7c0,2-2,2.7-3.6,2.2c-0.6-0.2-0.5-0.8-0.5-1.2C238.1,100,238.1,98.1,238.1,96.2z"/>
	<path class="st0" d="M151.1,94.6c0-2.4,0-4.7,0-7.1c0-1,0.4-1.4,1.4-1.4c2.7,0,2.7-0.1,2.7,2.6c0,4.1,0,8.1,0,12.2
		c0,2-2,2.7-3.6,2.2c-0.6-0.2-0.5-0.8-0.5-1.2C151.1,99.5,151.1,97,151.1,94.6z"/>
	<path class="st0" d="M176.3,94.7c0,2.3,0,4.6,0,7c0,0.5,0.2,1.3-0.5,1.5c-0.8,0.2-1.8,0.4-2.5-0.2c-0.8-0.6-1.1-1.3-1.1-2.4
		c0.1-4.3,0.1-8.6,0-12.8c0-1.2,0.4-1.5,1.5-1.6c2.6-0.1,2.6-0.1,2.6,2.5C176.3,90.6,176.3,92.7,176.3,94.7z"/>
	<path class="st0" d="M298.2,25.4c0,2.3-0.7,2.9-3.1,2.9c-2.1,0-2.9-0.9-2.9-3.2c0-2,1-3,3.1-3C297.3,22.2,298.2,23.1,298.2,25.4z"
		/>
</g>
</svg>
