<?xml version="1.0" encoding="utf-8"?>
<!-- Generator: Adobe Illustrator 21.0.0, SVG Export Plug-In . SVG Version: 6.00 Build 0)  -->
<svg version="1.1" id="Layer_1" xmlns="http://www.w3.org/2000/svg" xmlns:xlink="http://www.w3.org/1999/xlink" x="0px" y="0px"
	 viewBox="0 0 298.5 300" style="enable-background:new 0 0 298.5 300;" xml:space="preserve">
<style type="text/css">
	.st0{fill:#0E2031;}
	.st1{fill:#221E1F;}
	.st2{fill:#F8F8F9;}
	.st3{fill:#626363;}
	.st4{fill:#636464;}
</style>
<path class="st0" d="M128.2,300c-38,0-76,0-114,0C6,296.8,0.6,291.3,0,282.1c0.1-1.3,0.2-2.7,0.2-4c0-85.1,0-170.1,0-255.2
	c0-1.3-0.1-2.6-0.2-4C0.5,8.4,7.1,3.1,16.2,0c42.7,0,85.3,0,128,0c-0.3,0.9-0.5,1.9-0.9,2.8c-13.4,28.9-26.8,57.8-40.1,86.8
	c-1.2,2.6-3.1,3.6-5.6,4.4c-13.8,4.4-27.5,8.8-41.2,13.3c13.9-0.3,27.2-4.4,41.4-6.4c-13.2,28.7-26,56.7-39.1,85.1
	c2.8-0.3,2.8-2,3.4-3c13.7-26.6,27.4-53.2,41.2-79.7c1-1.9,1.4-4.2,4-4.7c8.8-1.8,17.6-3.6,26.4-5.5c2.9-0.6,2.9,0.8,2.7,2.9
	c-0.5,6.3-0.8,12.6-1.5,18.9c-4.3,44.1-5.7,88.3-6.5,132.6c-0.1,3.5,0.1,6.8-3.9,8.2c1.3,1.2,3.9-1.3,3.9,2
	C128.3,271.8,128.3,285.9,128.2,300z"/>
<path class="st1" d="M284.2,300c-50,0-100,0-150,0c1.8-16.2,3.7-32.4,5.5-48.5c0.2-2.3,1.8-2.9,3.4-3.8
	c12.1-6.5,24.4-12.9,36.3-19.8c23.8-13.7,47.4-27.8,67.9-46.3c6.9-6.3,13.5-12.9,17.4-21.6c4.2-9.3,1.8-18.2-6.4-23.8
	c-3.3-2.3-7-3.9-10.8-5c-10-2.9-20.3-3.7-30.6-4.1c-4.5-0.1-9,0-14.6,0c4.9-3.4,8.7-5.8,12.3-8.5c7.4-5.5,14.2-11.6,18.3-20.1
	c4.8-9.9,1.3-19.1-8.8-23.4c-4.5-1.9-9.2-2.9-14-3.1c-18.4-1-36.5,1.5-54.4,5.7c-3.8,0.9-5.3,0.5-5-3.9c0.7-10,0.9-19.9,1.4-29.9
	c0.7-14.6,1.4-29.2,2.1-43.8c42.7,0,85.3,0,128,0c9.1,3.1,15.8,8.4,16.2,18.9c-0.1,1.3-0.2,2.6-0.2,4c0,85.1,0,170.1,0,255.2
	c0,1.3,0.1,2.7,0.2,4C297.9,291.3,292.4,296.8,284.2,300z"/>
<path class="st2" d="M154.2,0c-0.7,14.6-1.5,29.2-2.1,43.8c-0.5,10-0.7,20-1.4,29.9c-0.3,4.4,1.2,4.8,5,3.9
	c17.9-4.2,36-6.7,54.4-5.7c4.9,0.3,9.6,1.2,14,3.1c10.1,4.3,13.5,13.5,8.8,23.4c-4.1,8.5-11,14.6-18.3,20.1
	c-3.6,2.7-7.4,5.1-12.3,8.5c5.6,0,10.1-0.1,14.6,0c10.3,0.3,20.6,1.2,30.6,4.1c3.8,1.1,7.5,2.7,10.8,5c8.1,5.5,10.5,14.5,6.4,23.8
	c-3.9,8.7-10.5,15.4-17.4,21.6c-20.5,18.5-44.1,32.7-67.9,46.3c-12,6.9-24.2,13.2-36.3,19.8c-1.6,0.9-3.2,1.5-3.4,3.8
	c-1.8,16.2-3.6,32.4-5.5,48.5c-2,0-4,0-6,0c0-14.1,0.1-28.2,0.2-42.4c0-3.3-2.6-0.8-3.9-2c4-1.5,3.9-4.7,3.9-8.2
	c0.8-44.3,2.2-88.5,6.5-132.6c0.6-6.3,0.9-12.6,1.5-18.9c0.2-2.1,0.2-3.6-2.7-2.9c-8.8,1.9-17.6,3.7-26.4,5.5
	c-2.6,0.5-3.1,2.8-4,4.7c-13.7,26.6-27.4,53.2-41.2,79.7c-0.6,1.1-0.6,2.7-3.4,3c13.1-28.4,25.9-56.4,39.1-85.1
	c-14.3,2-27.5,6.1-41.4,6.4c13.7-4.4,27.5-8.9,41.2-13.3c2.5-0.8,4.3-1.7,5.6-4.4c13.3-29,26.7-57.9,40.1-86.8
	c0.4-0.9,0.6-1.8,0.9-2.8C147.6,0,150.9,0,154.2,0z M217.4,139.8c-25.1,0.1-45.2,2.1-65.1,5.4c-2.7,0.5-4.2,1.1-4.4,4.5
	c-0.6,14.5-1.6,28.9-2.8,43.3c-1.2,15.3-2.7,30.5-4.2,45.8c-0.2,1.7-1.9,3.7,0,4.9c1.7,1.1,3.4-0.7,4.9-1.6
	c6.1-3.8,12.2-7.6,18.1-11.5c26-16.9,51.9-33.8,74.7-55c6.1-5.7,11.9-11.7,15.3-19.6c2.4-5.6,1.2-8.6-4.3-11.4
	c-2.1-1-4.3-1.9-6.5-2.4C233.1,139.9,222.8,139.6,217.4,139.8z M150.2,110.6c-0.4,0-0.8,0-1.2,0c0,5.6,0.3,11.3-0.1,16.9
	c-0.3,4.2,1,4.8,4.7,4c20.2-4.2,38.6-12.2,55-24.7c4.9-3.7,9.4-7.9,12.4-13.5c1.9-3.5,1.1-6-2.8-7.4c-3.6-1.3-7.4-2-11.2-2.2
	c-18.3-1.1-36.1,2.2-53.9,5.1c-2.5,0.4-2.9,1.7-2.9,3.7C150.2,98.7,150.2,104.7,150.2,110.6z M110.9,88.5c0.3,0.4,0.5,0.7,0.8,1.1
	c7.4-2.1,14.8-4.4,22.3-6.3c2.9-0.7,3.8-2.2,3.9-4.8c0.2-4.1,0.6-8.3,0.9-12.4c0.9-11.7,1.7-23.3,2.6-35c-0.3-0.1-0.7-0.2-1-0.3
	C130.6,50,120.7,69.2,110.9,88.5z"/>
<path class="st3" d="M217.4,139.8c5.4-0.2,15.7,0.1,25.8,2.6c2.2,0.5,4.5,1.4,6.5,2.4c5.5,2.7,6.8,5.7,4.3,11.4
	c-3.4,7.8-9.2,13.9-15.3,19.6c-22.8,21.2-48.7,38.1-74.7,55c-6,3.9-12.1,7.7-18.1,11.5c-1.5,1-3.2,2.7-4.9,1.6
	c-1.9-1.2-0.2-3.2,0-4.9c1.5-15.2,2.9-30.5,4.2-45.8c1.1-14.4,2.1-28.9,2.8-43.3c0.2-3.5,1.7-4.1,4.4-4.5
	C172.2,141.9,192.2,139.9,217.4,139.8z"/>
<path class="st4" d="M150.2,110.6c0-6,0-11.9,0-17.9c0-2,0.4-3.3,2.9-3.7c17.9-2.9,35.7-6.2,53.9-5.1c3.9,0.2,7.6,0.9,11.2,2.2
	c3.9,1.4,4.7,3.9,2.8,7.4c-3,5.6-7.5,9.7-12.4,13.5c-16.4,12.5-34.8,20.5-55,24.7c-3.7,0.8-5,0.1-4.7-4c0.4-5.6,0.1-11.3,0.1-16.9
	C149.4,110.6,149.8,110.6,150.2,110.6z"/>
<path class="st4" d="M110.9,88.5c9.8-19.2,19.7-38.5,29.5-57.7c0.3,0.1,0.7,0.2,1,0.3c-0.9,11.7-1.7,23.3-2.6,35
	c-0.3,4.1-0.7,8.3-0.9,12.4c-0.2,2.6-1.1,4.1-3.9,4.8c-7.5,1.9-14.9,4.2-22.3,6.3C111.4,89.2,111.2,88.8,110.9,88.5z"/>
</svg>
