<svg id="Layer_1" data-name="Layer 1" xmlns="http://www.w3.org/2000/svg" viewBox="0 0 213.99 194.43"><title>oklahoma-bar-association</title><path d="M113.12,211a88.08,88.08,0,0,1-26.79-3.85,91.85,91.85,0,0,1-16.19-6.72,87.52,87.52,0,0,1-16.89-11.62A88.92,88.92,0,0,1,39.79,174,85.3,85.3,0,0,1,25,141.12a77.63,77.63,0,0,1-2-16.67,103.52,103.52,0,0,1,1-14.6,107.48,107.48,0,0,1,2.69-12.22c2-7.59,5.46-14.52,9.51-21.16A82.08,82.08,0,0,1,46.51,62.91c2.58-2.72,5.36-5.27,8.17-7.77a80.7,80.7,0,0,1,15.63-10.6A77.75,77.75,0,0,1,86.08,38.1a90,90,0,0,1,12.06-2.78,122.35,122.35,0,0,1,15.06-1.13,84.22,84.22,0,0,1,23.6,3.19A89.2,89.2,0,0,1,157,45.66,87.73,87.73,0,0,1,173.5,57.58,90.4,90.4,0,0,1,187.21,73.3a84.05,84.05,0,0,1,8.6,15.63,88.09,88.09,0,0,1,5.94,22.45,83.89,83.89,0,0,1,.22,19.84,117.79,117.79,0,0,1-2.21,13.34,74.82,74.82,0,0,1-9,21.88c-2.44,4-5.2,7.89-8,11.68a69.19,69.19,0,0,1-12.68,12.68c-3,2.39-6.25,4.5-9.45,6.64a80.4,80.4,0,0,1-17.23,8.35,95.64,95.64,0,0,1-9.28,2.69A92.29,92.29,0,0,1,116.94,211C115.67,211,114.39,211,113.12,211ZM111.59,35.82A92.51,92.51,0,0,0,90.5,38.63a91.4,91.4,0,0,0-21.62,8.64A85.17,85.17,0,0,0,51.16,60.5,82.47,82.47,0,0,0,36.62,79c-2,3.5-3.69,7.19-5.36,10.86a47.91,47.91,0,0,0-2.94,7.67,113.76,113.76,0,0,0-2.89,13.62,91.9,91.9,0,0,0-.78,14A94.09,94.09,0,0,0,26,137.41a52.24,52.24,0,0,0,1.85,7.89c1.22,3.88,2.51,7.77,4.09,11.52a70.49,70.49,0,0,0,4.67,9.06,106.1,106.1,0,0,0,6.32,9.38c2,2.65,4.33,5.06,6.52,7.56a20.08,20.08,0,0,0,1.83,1.86c2.38,2,4.68,4.21,7.21,6a127.83,127.83,0,0,0,11,7.33,69,69,0,0,0,16.88,7.16c4.56,1.2,9.13,2.44,13.78,3.19a77.28,77.28,0,0,0,15.44.84,99.36,99.36,0,0,0,16.22-1.94,88.4,88.4,0,0,0,28.41-11.48,84.14,84.14,0,0,0,18.52-15.48,64.76,64.76,0,0,0,5.95-7.47,140.47,140.47,0,0,0,7.58-12.56,63.46,63.46,0,0,0,6-16.8c1-5,1.73-10,2.29-15a88.63,88.63,0,0,0,.11-9.08,71.36,71.36,0,0,0-2.62-18.62,85.74,85.74,0,0,0-5.37-14.76,74.89,74.89,0,0,0-9.22-15c-3.17-4-6.73-7.64-10.27-11.3a72,72,0,0,0-12.82-10.09,82.14,82.14,0,0,0-16.75-8.29,88.62,88.62,0,0,0-15.32-4.13A99.64,99.64,0,0,0,111.59,35.82Z" transform="translate(-5.83 -16.56)"/><path d="M37.74,51.85,39,55.25c.52,1.41,1,2.85,1.59,4.24.44,1-.43,1.43-.82,2a1.12,1.12,0,0,1-1.38.55c-2.28-.51-4.61-.87-6.92-1.26a9.5,9.5,0,0,0-1.36,0c1.26,1.09,2.28,2,3.32,2.85a25.22,25.22,0,0,1,2,1.64,1.2,1.2,0,0,1,.15,1.14,19.64,19.64,0,0,1-1.71,2.09L25.1,61.08c1.14-1.36,2.15-2.63,3.26-3.82a1.56,1.56,0,0,1,1.19-.18c2.15.37,4.29.81,6.44,1.22a5.15,5.15,0,0,0,.71,0c-.44-1.27-.84-2.44-1.27-3.59a13.75,13.75,0,0,0-1-2.54,2.13,2.13,0,0,1,.45-2.93c.83-.86,1.57-1.8,2.43-2.8,1.7,1.4,3.38,2.76,5,4.15,1.06.9,2,1.92,3.15,2.73.58.42.51.74.21,1.15-.5.66-1.06,1.28-1.72,2.06l-5.9-4.91Z" transform="translate(-5.83 -16.56)"/><path d="M66.48,26.43c3.64-1.34,7.16-2.67,10.71-3.94a2.63,2.63,0,0,1,3.09.5A3.33,3.33,0,0,1,81,26.73a1.21,1.21,0,0,0-.07.33,3.35,3.35,0,0,1,2.75,3.68A2.45,2.45,0,0,1,81.83,33c-2.68,1.13-5.39,2.18-8.09,3.26-.7.28-1.42.49-2.11.81s-1,.1-1.31-.62C69.1,33.18,67.83,29.93,66.48,26.43ZM79.54,29c-2.61,1-4.64,1.81-6.64,2.66a1,1,0,0,0-.27.94c.24.3.79.65,1.08.56,1.43-.46,2.82-1,4.2-1.61a8.68,8.68,0,0,0,1.65-.88c.17-.12.18-.53.16-.8A4.26,4.26,0,0,0,79.54,29Zm-2.23-3.49a5,5,0,0,0-.56,0c-1.85.7-3.71,1.38-5.54,2.14a1.06,1.06,0,0,0-.2,1c.16.29.71.64.95.56,1.86-.65,3.71-1.36,5.53-2.13a1.05,1.05,0,0,0,.44-.93C77.86,25.86,77.43,25.64,77.31,25.52Z" transform="translate(-5.83 -16.56)"/><path d="M12.3,159.38c-.15-2,1.32-2.85,2.66-3.6a21.1,21.1,0,0,1,4.42-1.64,2.44,2.44,0,0,1,3.15,1.19c1.26,2.5,2.64,5,3.66,7.56,1.62,4.1,1.2,4.9-2.85,6.75-.82.38-1.66.74-2.51,1.07-1.92.75-3.44.4-4.38-1.41-1.48-2.88-2.72-5.89-4-8.86A3.67,3.67,0,0,1,12.3,159.38Zm7.68-1.6c-1.12.47-2.14.81-3.07,1.3a1.74,1.74,0,0,0-.87,2.59c.53,1.28,1.14,2.53,1.71,3.8.7,1.54,1.54,1.85,3.13,1.15.39-.17.8-.29,1.2-.45,1.41-.53,1.81-1.3,1.25-2.67-.65-1.58-1.38-3.12-2.16-4.63C20.94,158.43,20.41,158.16,20,157.78Z" transform="translate(-5.83 -16.56)"/><path d="M15.56,77.91c.58-1.41,1.1-2.86,1.78-4.23.8-1.6,1.74-3.13,2.61-4.71,1.42-2.61,3.21-3.12,5.8-1.65,1.06.6,2.14,1.16,3.24,1.71,1.66.83,2.41,2.91,1.39,5.08A75.27,75.27,0,0,1,26,82c-1,1.68-2.17,2-4,1.28a30,30,0,0,1-4.94-2.63C16,80,15.8,79.33,15.56,77.91Zm3.6-1.21c.33.56.48,1.12.84,1.38a17,17,0,0,0,2.5,1.33,1.51,1.51,0,0,0,2.09-.58c.55-.87,1.06-1.78,1.55-2.69,1.83-3.35,1.72-3.67-1.74-5.3a1.7,1.7,0,0,0-2.32.54,11.19,11.19,0,0,0-1,1.47C20.42,74.1,19.81,75.38,19.16,76.7Z" transform="translate(-5.83 -16.56)"/><path d="M219.78,130.67c-.33,2.68-.61,5.37-1,8-.37,2.42-1.72,3.42-4.16,3.19-1.46-.13-2.92-.32-4.38-.53a3.23,3.23,0,0,1-2.83-3.44c.21-3.18.51-6.35,1-9.5.32-2.21,1.51-3.1,3.74-3a26.4,26.4,0,0,1,5.26.78c1.8.49,2.25,1.4,2.22,3.32v1.07Zm-3,1.2c0-1.59-.49-2.15-2-2.44a12.63,12.63,0,0,0-1.62-.23,2,2,0,0,0-2.43,2.12c-.12,1.34-.27,2.68-.38,4s.26,2.42,2.06,2.56l1.9.15a1.64,1.64,0,0,0,2-1.57C216.44,134.94,216.59,133.4,216.77,131.87Z" transform="translate(-5.83 -16.56)"/><path d="M178.63,52.58a11.67,11.67,0,0,1,1.31-2.27A43.38,43.38,0,0,1,183.5,47c1.48-1.27,3.07-1.43,4.42-.09a81.4,81.4,0,0,1,6.55,7.22c1.36,1.69,1.05,3.06-.48,4.63a38.23,38.23,0,0,1-3.24,3.13,3.27,3.27,0,0,1-4.75-.12c-2.21-2.17-4.28-4.48-6.32-6.81A9.25,9.25,0,0,1,178.63,52.58ZM186.46,50c-1.28,0-3.82,2.19-3.87,3.24A1.81,1.81,0,0,0,183,54.3c.78,1,1.62,1.85,2.45,2.76,2.39,2.61,2.58,2.53,5.25,0a4.31,4.31,0,0,0,.39-.46,1.55,1.55,0,0,0,0-2.17c-1.25-1.38-2.54-2.72-3.85-4A2.22,2.22,0,0,0,186.46,50Z" transform="translate(-5.83 -16.56)"/><path d="M206.21,156.71c2.14.71,4.27,1.43,6.42,2.1.75.24,1.07.55.71,1.37a23.76,23.76,0,0,0-.77,2.37L201.62,159c.58-1.77,1.12-3.44,1.72-5.1.08-.22.47-.36.75-.47l8.13-3.11a4.7,4.7,0,0,0,.76-.53l-7.57-2.52,1.05-3.35,10.93,3.51a24.24,24.24,0,0,1-1.76,5.11c-.47.79-2,1-3,1.39-2.12.83-4.26,1.63-6.39,2.44Z" transform="translate(-5.83 -16.56)"/><path d="M163.94,33.42c-.81-.39-1.57-.73-2.31-1.12-.22-.11-.54-.38-.52-.55.09-1.05-.7-1.36-1.4-1.72-1-.53-2.07-1-3.12-1.51a2.28,2.28,0,0,0-1-.29,1.33,1.33,0,0,0-.94.5,1,1,0,0,0,.34.92c1.81,1.07,3.67,2.07,5.51,3.09a2,2,0,0,0,.23.07c3.29,1.68,3,3.72.84,6.5-.87,1.12-2.25.7-3.34.2-2.5-1.13-5-2.32-7.42-3.58-2.17-1.13-2.46-2.41-1.17-4.74.88.39,1.78.77,2.66,1.2a.67.67,0,0,1,.31.54c-.16,1,.41,1.33,1.18,1.66,1.42.62,2.78,1.36,4.21,1.93.35.14.88-.17,1.33-.27-.2-.46-.28-1.13-.63-1.34-1.59-1-3.27-1.8-4.91-2.68l-.43-.2c-3.39-1.58-2.83-3.73-.94-6.26.85-1.14,2.15-.9,3.18-.43a75,75,0,0,1,7.75,3.92C165.07,30.3,165.11,31.53,163.94,33.42Z" transform="translate(-5.83 -16.56)"/><path d="M179.45,44c-.79-.54-1.59-1.1-2.39-1.67-.06,0-.16-.12-.15-.17.29-2.14-1.75-2.39-2.81-3.42a6.34,6.34,0,0,0-1.8-1.17c-.31-.14-.77.06-1.17.11.06.46,0,1.07.21,1.37a11.75,11.75,0,0,0,1.76,1.42c1.41,1.09,2.85,2.15,4.21,3.3a2.76,2.76,0,0,1,.54,3.36,10.6,10.6,0,0,1-1.2,1.77,2.43,2.43,0,0,1-3.45.38c-2.47-1.66-4.93-3.36-7.31-5.17-1.85-1.4-1.87-2.78-.2-4.79.76.53,1.54,1,2.28,1.62a.69.69,0,0,1,.22.61c-.33.88.18,1.36.79,1.79,1.23.88,2.43,1.81,3.72,2.58a1.69,1.69,0,0,0,1.56,0c.64-.57.12-1.13-.42-1.55l-5.25-4.16c-1.43-1.13-1.7-2.29-.81-3.84a7.81,7.81,0,0,1,1.05-1.44,2.21,2.21,0,0,1,3-.65c2,1.21,3.86,2.52,5.75,3.82a14.13,14.13,0,0,1,1.93,1.6C180.88,41.07,180.88,42.39,179.45,44Z" transform="translate(-5.83 -16.56)"/><path d="M117.52,23.57c1.92,1,1.58,2.69,1.62,4.39l-3.24.19c-.07-.1-.16-.16-.16-.22-.17-2.77-.22-2.83-3-2.82-1.07,0-2.13.1-3.2.1-.87,0-1.24.33-1.07,1.24a15.1,15.1,0,0,1,.12,1.82c-1,0-2,0-3,0-.15,0-.38-.38-.39-.6-.11-1.79-.2-3.57-.24-5.36s0-3.57,0-5.46c1.65-.1,3.26-.26,4.87-.26,2.28,0,4.57.06,6.85.15a2.07,2.07,0,0,1,2.16,1.83C119.09,20.34,119.53,22.22,117.52,23.57Zm-9-1.36c2,0,4,0,6,0,.91,0,1.31-.65,1.21-1.56s-.67-1.17-1.49-1.16c-1.11,0-2.22,0-3.32,0-3.28-.11-2.61-.09-2.36,2.78C108.53,22.27,108.57,22.3,108.5,22.21Z" transform="translate(-5.83 -16.56)"/><path d="M204.11,75c-.5-.75-1-1.49-1.5-2.27-.12-.22-.13-.74,0-.82.76-.5.41-1.08.11-1.56-.87-1.42-1.81-2.8-2.73-4.19a1.41,1.41,0,0,0-.41-.43c-.88-.54-3.19.29-4.4,1.72-.69.81-.39,1.63.23,2.46.89,1.21,1.63,2.53,2.47,3.78.16.25.57.64.69.58,1.79-.81,1.83.94,2.53,1.7a3.43,3.43,0,0,1,.45.82c-2.09,1.69-4,1.94-5.47-.54s-3.21-5.21-4.56-7.94c-.74-1.51.1-3,1.55-3.92,1.08-.65,2.14-1.35,3.19-2.05,1.74-1.16,3.88-1.14,5,.68,1.59,2.55,3.36,5,4.77,7.63C207.05,72.5,206.23,74,204.11,75Z" transform="translate(-5.83 -16.56)"/><path d="M22.4,90.79c-1.06-.33-2-.61-2.95-.92s-1.32-.14-1.59.82a50.94,50.94,0,0,1-1.62,5c-.28.72,0,1,.53,1.18.77.3,1.56.57,2.34.85.15.05.37,0,.45.13.91,1.08-.38,1.93-.38,2.93,0,.14-.66.45-.92.37-3.16-1-6.3-2-9.43-3-.25-.08-.63-.43-.6-.57a12.38,12.38,0,0,1,.88-2.68c.11-.2,1-.16,1.4,0,3,.89,2.48,1,3.44-1.87.4-1.2.75-2.42,1.14-3.63.18-.57,0-.93-.59-1a2.35,2.35,0,0,1-.35-.11c-2.9-1-2.92-1-1.72-3.75a1,1,0,0,1,.86-.43q4.77,1.52,9.5,3.16a1.08,1.08,0,0,1,.46.94A25.13,25.13,0,0,1,22.4,90.79Z" transform="translate(-5.83 -16.56)"/><path d="M16.51,120.52c-3.55-2.45-6.86-4.71-10.14-7a1.86,1.86,0,0,1-.53-1.2c-.06-.42.22-.87.17-1.29-.21-2.08.91-3,2.74-3.68,2.83-1,5.56-2.33,8.34-3.5.38-.16.79-.25,1.24-.39,0,.74-.06,1.32-.11,1.89-.1,1.21-.25,2.35-1.81,2.64-.31.06-.67.72-.74,1.15-.25,1.61-.39,3.24-.57,4.85-.08.78-.08,1.56.79,1.93a1.56,1.56,0,0,1,.92,1.94C16.69,118.66,16.62,119.48,16.51,120.52Zm-3.33-11.25-4.41,1.78,3.93,2.47Z" transform="translate(-5.83 -16.56)"/><path d="M61.68,42.2a34.38,34.38,0,0,1-2.87,2.09c-.29.18-.9,0-1.28-.23a1.63,1.63,0,0,0-2.12.31c-1.25,1.09-2.68,2-4,3-.37.31-.79,1-.68,1.35.4,1.39-.33,2.08-1.33,2.71-.49.31-.95.67-1.54,1.09-.45-3.05-.88-5.91-1.3-8.77a13.36,13.36,0,0,0-.33-2.47c-.49-1.36.09-2.12,1.12-2.88,1.28-.94,2.31-1.86,4.16-.89C54.74,39.23,58.1,40.58,61.68,42.2Zm-12-1.61-.35.21.88,4.27,3.47-2.68Z" transform="translate(-5.83 -16.56)"/><path d="M9.59,152.5c-.9-3.33-.9-3.32,2.1-4.16.38-.11,1.05-.44,1-.56a2.63,2.63,0,0,0-.67-1.53c-1.27-1-2.66-1.88-4-2.83a1.4,1.4,0,0,1-.59-.67c-.35-1.41-.64-2.83-1-4.43,2,1.44,3.87,2.73,5.7,4.05,1.13.82,1.21.77,1.86-.53,1.08-2.16,2.23-4.28,3.5-6.41,0,2.07,1.77,4,.22,6.17a21.74,21.74,0,0,0-2,3.79,2.25,2.25,0,0,0,0,1.69c.11.22,1,.09,1.52.1.07,0,.14-.07.22-.09,2.65-.57,3-.27,3.12,2.47,0,.24-.29.58-.54.73a3.39,3.39,0,0,1-1,.26Z" transform="translate(-5.83 -16.56)"/><path d="M103.13,28.22c-1.31.25-2.39.49-3.48.63-.25,0-.63-.29-.8-.54a2.17,2.17,0,0,0-2.6-.87,39.85,39.85,0,0,1-4.45.9,1.51,1.51,0,0,0-1.49,1.41A1.38,1.38,0,0,1,89,31l-2.63.42c.55-1.88,1.06-3.61,1.58-5.35.6-2,1.22-4,1.8-5.94a2.27,2.27,0,0,1,1.67-1.58c2.46-.94,3.93-.11,5.37,1.92C98.64,23.12,100.85,25.48,103.13,28.22ZM96,24.9l-3.16-3.81c-.45,1.75-.81,3.14-1.23,4.75Z" transform="translate(-5.83 -16.56)"/><path d="M146.08,33.78c-1.16-.36-2.14-.64-3.11-1-.23-.08-.57-.33-.57-.5,0-2-1.64-2.21-3-2.61-.88-.25-1.81-.33-2.67-.6-1.2-.38-2.28-.65-3.07.74-.12.2-.73.26-1.08.19-.93-.17-1.84-.45-2.92-.73,1.09-1.23,2.07-2.37,3.09-3.47,1.68-1.8,3.36-3.61,5.11-5.34a2.12,2.12,0,0,1,1.52-.55,8.76,8.76,0,0,1,3,.88,2.87,2.87,0,0,1,1.07,1.7c.91,3.5,1.74,7,2.59,10.52C146,33.19,146,33.35,146.08,33.78ZM140,22.85l-3.33,3.69,4.55,1.08C140.83,26,140.47,24.58,140,22.85Z" transform="translate(-5.83 -16.56)"/><path d="M206.72,103c-.22-.67-.41-1.35-.65-2a1.8,1.8,0,0,1,.55-2.39A1.82,1.82,0,0,0,207,97c-.43-1.88-1-3.74-1.57-5.58a1.18,1.18,0,0,0-.84-.62,2.11,2.11,0,0,1-2.06-2.08,20,20,0,0,0-.46-2c1,.2,1.92.35,2.81.55,3,.66,6.06,1.3,9.07,2a1.74,1.74,0,0,1,1,1,15.23,15.23,0,0,1,.87,3,1.81,1.81,0,0,1-.41,1.36c-2.77,2.78-5.6,5.52-8.41,8.27C206.94,102.94,206.85,102.94,206.72,103ZM208,91.51l1.24,4.14.35.22,2.57-3.58Z" transform="translate(-5.83 -16.56)"/><path d="M217.22,115.24c-.2-1.29-.46-2.57-.58-3.86-.08-.79-.35-1-1.14-.9-2.2.35-4.41.6-6.61,1-.81.12-1.12-.07-1.23-.94-.3-2.54-.33-2.51,2.21-2.81,1.74-.21,3.47-.51,5.21-.71.67-.08.9-.32.8-1-.16-1-.25-2.06-.39-3.09-.09-.61-.1-1.22.72-1.15s1.75-.74,1.93.77c.27,2.21.61,4.42.93,6.63.23,1.63.47,3.27.72,4.91.1.63-.06,1-.77,1S217.91,115.17,217.22,115.24Z" transform="translate(-5.83 -16.56)"/><path d="M5.88,133.51v-3.29l6.47-.47c1.86-.12,1.88-.11,1.81-1.88-.06-1.54-.16-3.09-.29-4.63s-.13-1.62,1.43-1.67h1.6c0,1.44-.07,2.81,0,4.18.13,2.21.36,4.41.52,6.62.07,1-.8.88-1.35.93-1.38.13-2.77.18-4.16.2C10,133.53,8,133.51,5.88,133.51Z" transform="translate(-5.83 -16.56)"/><path d="M219.81,118.76v3.42H208.47v-3.42Z" transform="translate(-5.83 -16.56)"/><path d="M209.46,77,211.08,80l-10.46,4.9-1.52-3.08Z" transform="translate(-5.83 -16.56)"/><path d="M198.41,176.69a3.91,3.91,0,0,1,.2-7.82,3.91,3.91,0,0,1-.2,7.82Zm-2.5-3.53a2.86,2.86,0,0,0,3.35,2.27,2.81,2.81,0,0,0,1.92-3.37,2.74,2.74,0,0,0-3.62-1.68c.93.52,1.8,1,2.61,1.5.29.2.68.76.59.93a5.45,5.45,0,0,1-1.33,1.8c-.64.51-1.3.2-1.65-.53a3.75,3.75,0,0,1-.18-.92Zm1-2.73a2.89,2.89,0,0,0-1.27,2.12l2.43-.41Z" transform="translate(-5.83 -16.56)"/><path d="M24.28,174.44a2.71,2.71,0,0,1,2.33-2.57,2.74,2.74,0,0,1,2.67,2.74A2.5,2.5,0,0,1,26.7,177,2.56,2.56,0,0,1,24.28,174.44Z" transform="translate(-5.83 -16.56)"/><path d="M203.55,168.34a2.27,2.27,0,0,1-2.32-2.32,2.45,2.45,0,1,1,4.89-.07A2.37,2.37,0,0,1,203.55,168.34Z" transform="translate(-5.83 -16.56)"/><path d="M161.66,87.11c3.36,5.73,6.56,11.14,9.71,16.58,2.35,4.06,4.63,8.16,6.93,12.25,1.07,1.91,2.11,3.83,3.18,5.74.74,1.32-.13,2.42-.63,3.43a27.48,27.48,0,0,1-6.36,8.84,21.64,21.64,0,0,1-13.12,5.58,22.88,22.88,0,0,1-22-11.64c-.83-1.4-1.51-2.89-2.31-4.31a2.31,2.31,0,0,1,.13-2.63c4.08-6.67,8.09-13.38,12.13-20.07,2.43-4,4.89-8,7.34-12.06.22-.36.38-.75.62-1.24-1.75-.2-3.35-.34-4.94-.56a25.1,25.1,0,0,1-15.11-7.43c-2.67-2.77-5.36-5.6-8.84-7.43a26,26,0,0,0-9.87-2.54,5.87,5.87,0,0,0,.32,1c2.78,4.72,5.61,9.41,8.36,14.14,2.27,3.92,4.45,7.9,6.7,11.84,1.31,2.3,2.68,4.57,4,6.85.91,1.55.89,1.55-.26,2.53a32.64,32.64,0,0,1-11.63,6.11,35.72,35.72,0,0,1-10.87,1.58,36.88,36.88,0,0,1-11-1.54,36.44,36.44,0,0,1-12.42-6.44c-2-1.67-2-1.71-.64-4q5.27-8.67,10.51-17.36c2.84-4.7,5.65-9.42,8.47-14.13a3.56,3.56,0,0,0,.2-.53,2.19,2.19,0,0,0-.66-.18c-4.49.56-9,1.24-12.58,4.29-2.34,2-4.54,4.11-6.75,6.23-3.07,2.92-6.42,5.3-10.68,6.13l-6.41,1.28a3.93,3.93,0,0,0-.64.31c1,1.82,2,3.59,3,5.34,2.84,4.88,5.71,9.75,8.56,14.63,1.82,3.11,3.48,6.34,5.5,9.32,1.39,2.06,1.09,3.8.1,5.79a28,28,0,0,1-6.36,8.7A21.4,21.4,0,0,1,73,136.68a24.08,24.08,0,0,1-12.82-1,20.6,20.6,0,0,1-8-5.35A30.06,30.06,0,0,1,46.11,121a2.71,2.71,0,0,1,.2-2.76c2.43-3.88,4.76-7.82,7.13-11.74l8.4-13.89C62.9,90.8,63.93,89,65,87.13c-5.16-2-9.53-4.76-12.12-9.63l.27-.34.85.65A24.74,24.74,0,0,0,65.8,82.67a2.42,2.42,0,0,0,2.44-.55,1,1,0,0,1,1-.06c1,1.42,2.39.64,3.56.49a22.34,22.34,0,0,0,9.45-3.4,17.24,17.24,0,0,0,5-4.86c1.84-2.69,3.56-5.47,5.59-8a21.32,21.32,0,0,1,11.67-7.21,42.11,42.11,0,0,1,9.5-1.46,29.87,29.87,0,0,1,11.18,2,23.41,23.41,0,0,1,9.27,5.82,36.42,36.42,0,0,1,4.22,5.53c2.25,3.68,4.73,7.14,8.66,9.1a24.79,24.79,0,0,0,13.29,2.66c5.75-.47,8.32-1.49,14.43-5.7-1.1,3-3.27,4.76-5.54,6.49A19.55,19.55,0,0,1,161.66,87.11ZM132.77,97.7c-2.21-3.81-4.35-7.52-6.51-11.22-3.13-5.35-6.34-10.66-9.38-16.06-.9-1.6-2.16-1.18-3.38-1.1a2.16,2.16,0,0,0-1.48.93c-2.27,3.73-4.44,7.53-6.68,11.28-2.93,4.9-5.88,9.79-8.91,14.82a29.48,29.48,0,0,0,15.06,6.71C119.15,104.16,126.08,101.7,132.77,97.7Zm5.72,24.18.24.39h19.92v-33l-.37-.11Q148.38,105.5,138.49,121.88Zm22.18-33.43-.37.16c0,.27-.06.54-.06.81q0,12.6-.05,25.21c0,2.19,0,4.38.05,6.57,0,.49,0,1,.8,1,5.1,0,10.19,0,15.29,0h3.79ZM88.84,119.52c-.32-.72-.45-1.14-.66-1.5-2.05-3.5-4.14-7-6.16-10.49-3-5.24-6-10.51-9-15.76-.7-1.2-1.39-2.42-2.17-3.57-.22-.32-.76-.44-1.16-.65a3.14,3.14,0,0,0-.39,1q-.11,6.6-.15,13.21,0,6.94,0,13.9c0,1.24.13,2.49.21,3.87Zm-41.29-.11c1.46.07,2.67.16,3.89.18s2.57,0,3.86,0c1.83,0,3.66.05,5.49.06s3.92,0,5.88,0c.64,0,.84-.18.85-.8,0-3.52.15-7,.18-10.55,0-4.17,0-8.34,0-12.51,0-2.47,0-4.94,0-7.4,0-.33-.31-.65-.48-1-.24.17-.56.29-.7.53-1.2,1.92-2.37,3.86-3.53,5.8q-5.33,8.9-10.65,17.8C50.79,114.06,49.25,116.6,47.55,119.41Zm64.26-54.67a2.13,2.13,0,0,0,2.28,2.19,2,2,0,0,0,2.14-2.05,2.39,2.39,0,0,0-2.35-2.33A2.33,2.33,0,0,0,111.81,64.74Z" transform="translate(-5.83 -16.56)"/><path d="M120.86,152.69h-8c-2.63,0-5.27,0-7.91-.08-2-.09-2.81-1.23-2.42-3.37.42-2.31,1-4.6,1.34-6.91.71-4.6,1.3-9.23,2-13.83.5-3.38,1.09-6.75,1.65-10.12a6,6,0,0,1,.28-.91,2.78,2.78,0,0,1,3.12-2c2,.06,4,.08,6,.2a2.35,2.35,0,0,1,2.3,1.95c1.95,6.74,2.61,13.71,3.73,20.6.68,4.23,1.18,8.48,1.83,12.71.13.88-.14,1.32-1,1.43C122.83,152.51,121.77,152.59,120.86,152.69Z" transform="translate(-5.83 -16.56)"/><path d="M92.57,189.18c0-1,0-2,0-3,0-2.38.82-3.3,3.19-3.29,4.73,0,9.47.1,14.21.12,7,0,14,0,21,0,1,0,2.05-.06,3.07,0a3.31,3.31,0,0,1,3.41,3.49c0,2.23,0,4.46,0,6.68a3.21,3.21,0,0,1-3.5,3c-2.75-.11-5.5-.2-8.25-.2-9.86,0-19.73,0-29.6,0-2.08,0-4.09-1.28-3.54-3.65a14,14,0,0,0,0-3.11Z" transform="translate(-5.83 -16.56)"/><path d="M133.89,181.6c-5.29,0-10.58,0-15.87,0-4.82,0-9.65.11-14.48.15-3,0-6,0-8.93,0a1.52,1.52,0,0,1-.48,0c-.45-.19-.89-.4-1.34-.61a5.23,5.23,0,0,1,.67-1.21c2.33-2.38,4.7-4.71,7-7.08a28.72,28.72,0,0,1,2.18-2.35c1.62-1.3,3.59-1.14,5.52-1.12q3.21,0,6.44,0c2.8,0,5.61-.14,8.41-.08,2.26.06,3.9,1.43,5.34,3s3.07,3.51,4.62,5.24c.7.78,1.5,1.46,2.17,2.26a6,6,0,0,1,.7,1.44c-.5.16-1,.32-1.51.46a1.92,1.92,0,0,1-.48,0Z" transform="translate(-5.83 -16.56)"/><path d="M114.4,167.55c-2.86,0-5.72,0-8.57,0a6.56,6.56,0,0,1-2.48-.25,2.2,2.2,0,0,1-1.21-1.51c-.12-3.18-.14-6.38,0-9.57,0-1.51.84-1.71,3-1.72,3.11,0,6.23,0,9.35,0,2.82,0,5.65,0,8.47,0a1.93,1.93,0,0,1,2,2.14c0,3.06,0,6.13,0,9.2,0,1.57-.26,1.72-1.86,1.71C120.21,167.54,117.31,167.55,114.4,167.55Z" transform="translate(-5.83 -16.56)"/><path d="M117.81,52.14A3.68,3.68,0,0,1,114,55.93a3.64,3.64,0,0,1-3.51-3.76c.14-2.21,1.33-3.74,3.67-3.71S117.52,49.7,117.81,52.14Z" transform="translate(-5.83 -16.56)"/><path d="M114.3,72.26c2,2.47,4,4.87,5.87,7.28a1.49,1.49,0,0,1,.25.88c0,3.7,0,7.41,0,11.11,0,2.91,0,5.82.07,8.74a1.4,1.4,0,0,1-1.53,1.62c-3,0-6.06,0-9.08-.08-1.5,0-1.91-.61-1.86-2.12q.16-6.52.26-13c0-2-.07-3.9.06-5.84a4.29,4.29,0,0,1,.87-2.12c1.51-2.09,3.1-4.1,4.67-6.14C114,72.47,114.07,72.42,114.3,72.26Z" transform="translate(-5.83 -16.56)"/></svg>