<?xml version="1.0" encoding="utf-8"?>
<!-- Generator: Adobe Illustrator 21.0.0, SVG Export Plug-In . SVG Version: 6.00 Build 0)  -->
<svg version="1.1" id="Layer_1" xmlns="http://www.w3.org/2000/svg" xmlns:xlink="http://www.w3.org/1999/xlink" x="0px" y="0px"
	 viewBox="0 0 125.1 125" style="enable-background:new 0 0 125.1 125;" xml:space="preserve">
<style type="text/css">
	.st0{fill:#6F7072;}
	.st1{fill:#1C3664;}
	.st2{fill:#5B595E;}
	.st3{fill:#122233;}
	.st4{fill:#F1F1F1;}
</style>
<path class="st1" d="M67.2,124.6c-32.8,3.7-64.5-22.8-67-55.9C-2.8,30,26.1-0.7,64.9,0c33,0.6,61.1,30.1,60.2,63
	c0,0.6-0.3,1.3-0.4,1.9c-2.4,0.2-3.5-1.7-4.9-3c-8.1-8.1-16.2-16.2-24.3-24.2c-1.4-1.4-2.6-3.2-5-2.8c-1.4-5.3-4.8-7.4-10.3-7.3
	c-11.8,0.2-23.6,0.1-35.4,0.1c-7.5,0-10.5,3-10.5,10.6c0,15.3,0.1,30.6-0.1,45.8c0,4.4,1.2,7.8,5.1,10.1c0.1,0.5,0.1,1.1,0.4,1.4
	c7.9,8,15.8,16,23.6,24C64.9,121.1,66.9,122.2,67.2,124.6z"/>
<path class="st3" d="M67.2,124.6c-0.3-2.4-2.4-3.5-3.8-5c-7.9-8-15.8-16-23.6-24c-0.3-0.3-0.3-0.9-0.4-1.4c4.3,1.2,8.6,0.4,12.9,0.6
	c2.4,0.1,4.5,0.4,4.5-3.3c0-3.4-1.2-4.4-4.4-4.1c-2.3,0.2-4.7-0.1-7,0.1c-3.1,0.3-4-0.9-4-4c0.1-14.8,0.1-29.6,0-44.4
	c0-3,0.9-4.1,4-4c11.3,0.2,22.6,0.2,33.9,0c3.5-0.1,4.1,1.3,4,4.4c-0.1,14.5-0.2,29,0,43.4c0.1,3.4-1,4.9-4.2,5.1
	c-0.9-2-0.1-3.7,0.7-5.6c1.4-3.7-0.3-7.3-2.3-9.5c-6.7-7.3-16.6-4.9-19.9,4.3c-1.8,5.1-0.3,9.5,5.5,13.3c3.7,2.4,7.8,2.7,11.7-0.6
	c1.2-1,2.6-2.4,4.5-2c0,1,0.2,2,0.1,3c-0.5,4.5,2,4.7,5.1,3.6c4.4-1.5,6-4.8,6-9.3c-0.1-16.8,0-33.5,0-50.3c2.4-0.4,3.6,1.4,5,2.8
	c8.1,8.1,16.2,16.2,24.3,24.2c1.4,1.4,2.5,3.2,4.9,3c0.9,25.3-19.7,51.2-46.2,58C74.8,123.9,71.1,124.9,67.2,124.6z M62.8,51.4
	c-4.5,0-9,0-13.5,0c-1.5,0-3.2-0.2-3.1,2.1c0,1.9,1.4,2,2.7,2c9,0,18,0,26.9,0c1.4,0,2.8-0.1,2.9-1.9c0.1-2.2-1.4-2.3-3-2.3
	C71.4,51.4,67.1,51.4,62.8,51.4z M59.3,92c0,4.2-0.1,7.4,0,10.7c0.1,3.2,1.8,3.2,3.9,1.6c1-0.8,2-1.8,2.8-2.8c1.6-2.1,3.1-2,4.7,0
	c0.8,1,1.8,2,2.8,2.8c2.3,1.6,3.7,1.2,3.8-1.9c0-3.1,0-6.2,0-9.5C72,96.5,64.1,96.3,59.3,92z M62.7,46c4.3,0,8.6,0,13,0
	c1.5,0,3.2,0.3,3.1-2.1c-0.1-1.8-1.4-2-2.8-2C67,42,58,42,49,42c-1.4,0-2.7,0-2.8,1.9C46,46.4,47.8,46,49.2,46
	C53.7,46.1,58.2,46,62.7,46z M62.3,65.2c4.5,0,9,0,13.5,0c1.3,0,2.9,0.2,3-1.7c0.1-2-1.2-2.4-2.9-2.4c-9,0-18,0-26.9,0
	c-1.4,0-2.7,0.2-2.7,2.1c-0.1,2,1.3,2,2.7,2C53.3,65.2,57.8,65.2,62.3,65.2z"/>
<path class="st4" d="M79.2,88c3.2-0.2,4.2-1.7,4.2-5.1c-0.2-14.5-0.2-28.9,0-43.4c0-3.1-0.5-4.5-4-4.4c-11.3,0.2-22.6,0.2-33.9,0
	c-3.1,0-4,1-4,4c0.1,14.8,0.1,29.6,0,44.4c0,3,0.9,4.2,4,4c2.3-0.2,4.7,0.1,7-0.1c3.1-0.3,4.3,0.7,4.4,4.1c0,3.7-2.1,3.5-4.5,3.3
	c-4.3-0.2-8.7,0.6-12.9-0.6c-3.9-2.3-5.1-5.7-5.1-10.1c0.1-15.3,0-30.6,0.1-45.8c0-7.6,3-10.6,10.5-10.6c11.8,0,23.6,0.2,35.4-0.1
	c5.5-0.1,8.9,2,10.3,7.3c0,16.8-0.1,33.5,0,50.3c0,4.5-1.6,7.8-6,9.3c-3.1,1-5.7,0.8-5.1-3.6C79.5,89.9,79.3,88.9,79.2,88L79.2,88z"
	/>
<path class="st4" d="M79.3,87.9c-2-0.4-3.3,1-4.5,2c-3.8,3.3-8,3-11.7,0.6c-5.8-3.8-7.3-8.2-5.5-13.3c3.3-9.2,13.2-11.6,19.9-4.3
	c2.1,2.2,3.8,5.9,2.3,9.5C79.1,84.2,78.3,86,79.3,87.9C79.2,88,79.3,87.9,79.3,87.9z"/>
<path class="st4" d="M62.8,51.4c4.3,0,8.7,0,13,0c1.6,0,3.2,0.1,3,2.3c-0.1,1.8-1.5,1.9-2.9,1.9c-9,0-18,0-26.9,0
	c-1.4,0-2.7-0.1-2.7-2c0-2.3,1.6-2.1,3.1-2.1C53.8,51.4,58.3,51.4,62.8,51.4z"/>
<path class="st4" d="M59.3,92c4.8,4.3,12.7,4.5,18.1,0.9c0,3.4,0,6.5,0,9.5c0,3.1-1.5,3.4-3.8,1.9c-1.1-0.8-2-1.7-2.8-2.8
	c-1.6-2.1-3.1-2.1-4.7,0c-0.8,1-1.8,2-2.8,2.8c-2.1,1.6-3.8,1.6-3.9-1.6C59.2,99.4,59.3,96.2,59.3,92z"/>
<path class="st4" d="M62.7,46c-4.5,0-9,0-13.4,0c-1.4,0-3.2,0.3-3.1-2.1C46.3,42,47.7,42,49,42c9,0,17.9,0,26.9,0
	c1.4,0,2.7,0.1,2.8,2c0.1,2.3-1.6,2.1-3.1,2.1C71.3,46.1,67,46,62.7,46z"/>
<path class="st4" d="M62.3,65.2c-4.5,0-9,0-13.5,0c-1.4,0-2.7-0.1-2.7-2c0.1-1.9,1.3-2.1,2.7-2.1c9,0,18,0,26.9,0
	c1.7,0,3,0.4,2.9,2.4c-0.1,2-1.7,1.7-3,1.7C71.3,65.2,66.8,65.2,62.3,65.2z"/>
</svg>
