<?xml version="1.0" encoding="utf-8"?>
<!-- Generator: Adobe Illustrator 23.1.0, SVG Export Plug-In . SVG Version: 6.00 Build 0)  -->
<svg version="1.1" id="Layer_1" xmlns="http://www.w3.org/2000/svg" xmlns:xlink="http://www.w3.org/1999/xlink" x="0px" y="0px"
	 viewBox="0 0 360 358.6" style="enable-background:new 0 0 360 358.6;" xml:space="preserve">
<path d="M0,179.5c0-1.3,0-2.6,0-3.8c0.1-0.3,0.2-0.5,0.2-0.8c0.4-2.8,1.5-5.3,3.2-7.5c2.2-2.9,4.4-5.8,6.4-8.8
	c4.1-6,5.5-12.6,4.1-19.6c-0.9-4.4-2.4-8.7-3.6-13c-1.8-6.6,1.1-14.1,6.7-17.9c3.3-2.2,6.7-4.4,9.9-6.7c5.7-4.2,9.1-9.8,10.2-16.8
	c0.7-4.2,0.8-8.4,1-12.7c0.4-7.2,5.6-13.7,12.7-15.4c3.8-0.9,7.6-1.8,11.3-2.9c7.5-2.2,13-6.9,16.4-13.9c1.6-3.3,3-6.8,4.5-10.2
	c2.4-5.5,6.8-8.6,12.6-9.8c3.1-0.7,6.2,0.2,9.3,0.4c3.8,0.3,7.6,1.2,11.5,0.6c5.7-0.9,10.8-2.9,15-7c2.9-2.8,5.6-5.7,8.3-8.6
	c4.8-5,12.8-6.5,19.1-3.4c3.6,1.7,7.1,3.6,10.8,5.2c7,3,14,3,20.9-0.1c3.6-1.6,7.1-3.5,10.7-5.2c6.1-2.9,14.1-1.6,18.8,3.2
	c2.8,2.8,5.4,5.7,8.2,8.4c5.2,5.1,11.5,7.6,18.7,7.6c4,0,8-0.6,11.9-1.2c8.8-1.3,16.2,4.3,18.4,10.2c1.3,3.4,2.8,6.7,4.4,10
	c3.4,7,9,11.7,16.5,13.8c3.8,1.1,7.7,1.9,11.6,2.9c5.9,1.5,11.2,7.3,11.9,13.3c0.5,4.2,0.6,8.4,1,12.5c0.7,7.9,4.3,14.3,10.7,19
	c3.3,2.4,6.9,4.5,10.2,7c5.4,4.1,7.6,9.7,6.4,16.3c-0.8,4.3-2.4,8.4-3.5,12.7c-2,7.7-0.6,14.8,3.8,21.4c2.2,3.2,4.6,6.3,6.8,9.4
	c3.9,5.5,3.9,13.7,0,19.1c-2.4,3.2-4.8,6.4-7,9.7c-3.9,5.8-5.3,12.3-4,19.2c0.9,4.4,2.4,8.6,3.6,12.9c1.9,6.6-0.9,14.2-6.5,18.1
	c-3.2,2.2-6.4,4.3-9.5,6.4c-5.6,3.9-9.2,9.3-10.5,15.9c-0.9,4.6-1,9.4-1.2,14.1c-0.4,6.8-5.6,13.3-12.2,15.1
	c-3.7,1-7.5,1.8-11.3,2.9c-7.8,2.1-13.4,6.9-16.9,14.1c-1.7,3.4-3,7-4.6,10.4c-3,6.3-8.2,9.5-15.1,9.7c-2.7,0.1-5.5-0.5-8.2-0.7
	c-3.5-0.3-7-1-10.6-0.4c-5.4,1-10.3,3-14.3,6.9c-2.9,2.9-5.7,5.8-8.5,8.8c-4.6,4.8-12.7,6.3-18.7,3.4c-3.7-1.8-7.4-3.8-11.2-5.4
	c-6.9-2.9-13.9-2.9-20.8,0.1c-3.7,1.6-7.2,3.5-10.8,5.2c-6,2.9-14,1.5-18.7-3.2c-2.4-2.5-4.8-5-7.2-7.5c-5.6-5.9-12.5-8.8-20.6-8.5
	c-4,0.2-8,0.8-12,1.2c-6.9,0.8-14.1-3.3-16.9-9.6c-1.6-3.6-3.1-7.4-4.9-10.9c-3.4-6.8-8.8-11.3-16-13.5c-3.9-1.2-8-1.9-11.9-3.1
	c-6.6-2-10.7-6.5-11.9-13.3c-0.7-4-0.6-8.2-1-12.3c-0.7-8-4.3-14.5-10.8-19.2c-3.3-2.4-6.9-4.4-10.1-6.9c-5.4-4-7.6-9.6-6.5-16.1
	c0.7-4.3,2.3-8.4,3.4-12.6c2-7.8,0.7-15-3.7-21.6c-2.2-3.2-4.6-6.2-6.8-9.4c-1-1.4-1.6-3.1-2.3-4.7C0.3,181.5,0.2,180.5,0,179.5z
	 M243.6,203.2c-2.1,0.6-4.1,1.2-6,1.7c-7.1,1.7-14.3,2.5-21.6,1.1c-8.6-1.7-14-7.1-15.3-15.6c-1.3-9-0.2-17.7,3.3-26.1
	c4.1-9.7,11.4-15.5,22-16.9c8.1-1.1,15.9,0,23.6,2.5c2,0.7,3.9,1.5,6,2.3c2.2-6.4,4.3-12.8,6.5-19.3c-2.4-1.1-4.7-2.2-7-3.1
	c-11.9-4.3-24.1-5-36.4-2.8c-13.3,2.3-24.4,8.8-32.1,20c-10.5,15.2-13.2,32.1-9.7,49.9c3.3,16.7,14.8,27.2,31.4,29.9
	c6.7,1.1,13.5,1,20.2,0.2c6-0.7,11.8-2.2,17.4-4.4c0.6-0.2,0.8-0.5,0.7-1.2c-0.4-2.1-0.7-4.3-1-6.4
	C244.9,211.1,244.3,207.2,243.6,203.2z M115.2,127.8c-5.7,32.7-11.5,65.3-17.2,98.1c2.4,0,4.6,0,6.7,0c19,0,38.1,0,57.1,0
	c1,0,1.5-0.1,1.7-1.3c0.5-3.4,1.2-6.8,1.8-10.1c0.6-3.2,1.1-6.3,1.7-9.7c-13.7,0-27.3,0-41.1,0c4.5-25.7,9-51.3,13.5-76.9
	C131.4,127.8,123.4,127.8,115.2,127.8z M263.6,172.9c-0.1,0.2-0.3,0.4-0.4,0.5c0.4,0.2,0.9,0.3,1.2,0.6c2.7,2.6,5.4,5.2,8.1,7.9
	c0.3,0.3,0.5,1,0.5,1.4c-0.2,1.9-0.6,3.8-0.9,5.7c-0.4,2.2-0.7,4.5-1.1,6.9c0.6-0.3,0.9-0.4,1.3-0.6c3.3-1.7,6.6-3.4,9.8-5.2
	c0.7-0.4,1.2-0.4,1.9,0c1.9,1.1,3.8,2,5.7,3c1.8,0.9,3.5,1.8,5.4,2.8c0-0.4,0-0.6-0.1-0.8c-0.7-3.8-1.4-7.6-2-11.4
	c-0.1-0.5,0-1.3,0.4-1.7c2.1-2.2,4.2-4.2,6.4-6.3c0.9-0.8,1.8-1.6,3-2.6c-0.7-0.2-1-0.3-1.3-0.3c-3.6-0.5-7.2-1-10.8-1.5
	c-1.1-0.1-1.8-0.5-2.4-1.6c-1.5-3.3-3.2-6.5-4.8-9.8c-0.2-0.3-0.4-0.6-0.6-1.1c-1.9,3.8-3.7,7.5-5.4,11.1c-0.4,0.9-1,1.2-1.9,1.3
	C271.5,171.7,267.6,172.3,263.6,172.9z M69.7,158.6c-1.4,2.8-2.6,5.4-3.9,8c-0.7,1.4-1.1,3.3-2.3,4.1c-1.2,0.8-3.1,0.7-4.6,0.9
	c-2.8,0.4-5.6,0.9-8.6,1.3c0.3,0.3,0.4,0.6,0.6,0.8c2.8,2.7,5.5,5.4,8.4,8.1c0.5,0.5,0.7,1,0.6,1.7c-0.3,1.7-0.6,3.4-0.9,5.1
	c-0.4,2.4-0.8,4.8-1.2,7.4c0.5-0.2,0.9-0.4,1.2-0.5c3.4-1.8,6.7-3.6,10.1-5.3c0.4-0.2,1.2-0.2,1.6,0c2,1,4,2.1,6,3.1
	c1.7,0.9,3.4,1.8,5.4,2.8c-0.7-4.2-1.4-8.1-2.1-12c-0.2-0.9-0.1-1.7,0.7-2.3c0.8-0.6,1.5-1.4,2.2-2.2c2.1-2.2,4.2-4.3,6.3-6.5
	c-0.2-0.1-0.5-0.1-0.8-0.2c-3.6-0.5-7.3-1-10.9-1.5c-1.1-0.1-1.8-0.5-2.3-1.5C73.4,166,71.6,162.4,69.7,158.6z M138.8,306.3
	c-1.5-5.3-3-10.3-4.5-15.4c0.6-0.1,1.1-0.1,1.5-0.2c4.2-0.8,7-3.2,8.3-7.3c1.3-4.1,0.8-7.8-2.5-10.7c-1.4-1.2-3.3-2.1-5.1-2.8
	c-3.4-1.3-6.9-2.3-10.3-3.4c-1.4-0.4-2.8-0.9-4.2-1.3c-3.5,10.8-7,21.4-10.5,32.2c2.1,0.7,4,1.3,6.1,2c1.3-4,2.6-7.9,3.9-12
	c1.7,0.5,3.2,1.1,4.8,1.5c0.9,0.2,1.3,0.7,1.5,1.6c1,4.2,2.1,8.3,3.2,12.4c0.1,0.4,0.4,0.9,0.8,1
	C133.9,304.8,136.2,305.5,138.8,306.3z M234.9,278.9c-1-0.5-1.9-1.1-2.8-1.4c-5-1.7-10.7,1.7-11.5,7c-0.2,1.5-0.2,3,0,4.5
	c0.6,4.2,2.1,8,5.1,11.1c4.5,4.6,12,2.2,14.1-1.9c0.4-0.8,0.7-1.6,1.1-2.5c0.4,1.1,0.8,2.1,1.2,3.2c1.6-0.6,3.1-1.1,4.6-1.6
	c0.9-0.3,1-0.7,0.7-1.5c-2.7-7.8-5.4-15.5-8.1-23.3c-0.9-2.5-1.7-5-2.7-7.7c-2,0.7-4,1.4-5.9,2.1C232.2,271,233.5,274.9,234.9,278.9
	z M151.1,289.9c0.5-0.1,0.8-0.2,1.2-0.3c2.5-0.7,5-0.8,7.6-0.4c3.3,0.6,4.3,2.2,3.5,5.5c-0.5,0-1-0.1-1.5-0.1
	c-2.1-0.2-4.1-0.5-6.2-0.7c-4.4-0.4-7.4,1.6-8.4,5.5c-1.1,4.1,0.4,7.6,3.9,8.9c3.6,1.4,7.1,1.1,10.2-1.3c0.2-0.2,0.5-0.3,0.9-0.6
	c-0.1,1.1-0.2,2-0.3,3c2,0.2,3.9,0.5,5.8,0.7c0.1-0.3,0.2-0.5,0.2-0.7c0.7-5.3,1.3-10.5,1.9-15.8c0.5-4.3-1.1-7.2-4.8-8.6
	c-4.5-1.7-9.1-1.7-13.6-0.3c-0.3,0.1-0.7,0.6-0.7,1C150.8,287.1,150.9,288.4,151.1,289.9z M201.3,298.8c5.1-0.8,10.2-1.6,15.5-2.5
	c-0.2-1.3-0.4-2.6-0.6-3.8c-1.2-6.9-5.2-10.2-11.6-9.5c-5.6,0.6-9.4,4-10.1,9.4c-0.5,3.8,0.1,7.5,2,10.9c1.8,3.2,4.5,4.9,8.1,5.2
	c1.7,0.1,3.4,0,5.1-0.3c3-0.5,5.7-1.6,8.2-3.4c-0.6-1.4-1.2-2.7-1.7-4c-0.6,0.4-1.1,0.7-1.7,1c-2.6,1.3-5.2,2.2-8.2,2
	C203.7,303.4,201.8,301.6,201.3,298.8z M137.2,65.1c-0.4-0.3-0.6-0.4-0.7-0.5c-4.4-2.6-10.3,0-10.9,5.1c-0.6,5,1.1,9.4,4.8,12.9
	c1.5,1.4,3.3,1.8,5.3,1.5c3.2-0.5,5.5-2.2,6.4-5.6c0.4,1,0.7,1.8,1,2.7c1.6-0.6,3.1-1.1,4.6-1.7c-3.1-8.7-6.3-17.3-9.4-25.9
	c-1.7,0.6-3.2,1.2-4.8,1.8C134.9,58.6,136,61.7,137.2,65.1z M178.5,290.9c0,2.1,0,4.1,0,6c0.1,2.9,0.1,5.8,0.3,8.7
	c0.2,2.7,1.8,4.5,4.4,4.8c2,0.2,4.1-0.2,6.2-0.4c0.2,0,0.6-0.5,0.6-0.8c0-1.3-0.1-2.6-0.2-3.9c-0.9,0.1-1.8,0.2-2.6,0.2
	c-1.6,0-2.2-0.6-2.3-2.1c-0.1-0.9-0.1-1.8-0.1-2.8c0-3.2,0-6.4,0-9.9c1.6,0,3.3,0,4.9,0c0-1.9,0-3.6,0-5.3c-1.8,0-3.4,0-5.3,0
	c0-2.1,0-4.1,0-6.1c-2.2,0-4.2,0-6.3,0c0,2.2,0,4.2,0,6.4c-1.1,0-2.1,0-3.1,0c0,1.8,0,3.5,0,5.2
	C176.2,290.9,177.2,290.9,178.5,290.9z M178.1,48.4c-1.6-0.3-3.2-0.7-4.7-0.8c-9.1-0.6-15.3,4.2-15.7,12.7c-0.2,4.4,0.7,8.6,3.8,12
	c5,5.5,13.8,4.2,18.4,1.8c0.2-0.1,0.4-0.5,0.3-0.6c-0.3-1.2-0.6-2.4-0.9-3.3c-2.4,0.5-4.6,1.1-6.8,1.3c-4.6,0.4-7.9-2-9.1-6.3
	c-0.3-1-0.4-2-0.5-3.1c-0.5-5.5,2.4-9.3,7.9-9.9c2.2-0.3,4.6,0.1,7,0.1C177.8,51.4,177.9,50,178.1,48.4z M106.8,82
	c1.9-1.5,3.6-3.1,5.5-4.3c2.4-1.5,3.8-0.9,5.1,1.7c-1.3,0.7-2.6,1.4-3.8,2.2c-1.2,0.8-2.4,1.6-3.4,2.6c-1.8,1.8-1.8,4-0.8,6.2
	c1.1,2.3,2.6,3.9,5.4,3.9c3,0,6.2-2.5,7.3-5.5c0.1-0.4,0.3-0.8,0.4-1.3c0.5,0.8,0.9,1.4,1.3,2.1c1.4-0.8,2.8-1.6,4.2-2.5
	c-2.5-4.2-4.8-8.3-7.3-12.3c-1.3-2.1-3.2-3.2-5.7-2.8c-4.7,0.7-8,3.5-10.7,7.3C105.2,80.3,106.1,81.3,106.8,82z M107.3,94.1
	c-0.3,0.5-0.5,0.8-0.7,1.2c-1.1,1.9-2.6,3.6-4.5,4.7c-2.2,1.3-4.4,0.9-5.9-1c3.2-2.7,6.4-5.4,9.8-8.3c-1.5-1.5-2.8-3-4.4-4.3
	C99,84.3,96,84,93.1,85.8c-3.2,2-5.6,4.7-5.1,8.8c0.6,4.8,3.4,8.1,7.7,10.1c1.2,0.5,2.7,0.7,3.9,0.5c5.2-0.9,8.2-4.6,10.6-9
	C109.3,95.5,108.3,94.8,107.3,94.1z M272.8,109.6c0.2-0.1,0.4-0.2,0.6-0.2c1.2-1.5,2.6-2.8,3.6-4.4c1.8-2.7,2.1-5.7,0.2-8.5
	c-2.2-3.1-5.2-5.4-9.2-4.6c-5,1-8.1,4.4-9.7,9.1c-0.3,0.9-0.3,2-0.1,3c0.6,4.2,5.6,9.1,10.2,10.1c0.6-0.9,1.1-1.9,1.7-3
	c-0.5-0.2-0.8-0.4-1.2-0.5c-2.1-1-3.9-2.3-5.2-4.1c-1.4-2-1.3-4.1,0.7-6.2C267.2,103.4,270,106.5,272.8,109.6z M238.8,91.4
	c1.3-2.5,2.5-4.9,3.6-7.3c1.1-2.3,2.3-4.6,3.1-7c0.9-2.5,0.1-4.6-2.1-6.1c-2.6-1.8-5.2-2.3-8.1-0.7c-0.1,0-0.2,0-0.4,0
	c0.4-0.9,0.8-1.7,1.2-2.6c-1.5-0.7-3-1.4-4.5-2.2c-3,6.1-5.9,12-8.8,18c1.6,0.8,3,1.5,4.5,2.2c0.3-0.5,0.5-0.9,0.7-1.3
	c1.4-2.8,2.8-5.7,4.2-8.5c0.4-0.8,1-1.6,1.7-2.3c1.4-1.3,3.5-1.2,5.2,0.1c1.2,1,1.4,2.2,0.4,4.1c-0.7,1.3-1.3,2.6-2,4
	c-1.2,2.4-2.3,4.7-3.5,7.2C235.7,89.9,237.2,90.6,238.8,91.4z M181.9,66.9c0.1,0.7,0.1,1.6,0.3,2.5c0.8,3.7,3,6,6.7,6.8
	c3.8,0.8,7.3,0.3,9.8-3c2.2-2.8,2.6-6.1,2.2-9.6c-0.4-3.4-2-6-5.3-7.2c-3.5-1.3-7-1.3-10.1,1.2C182.7,59.9,182.1,63.2,181.9,66.9z
	 M207.9,58.1c-1.3,4.8-2.7,9.4-3.9,14.1c-0.5,2-0.3,4,1.2,5.6c2.3,2.3,6.4,2.7,9.1,0.8c0.3-0.2,0.5-0.4,1-0.7
	c-0.3,1.1-0.5,1.9-0.7,2.9c1.6,0.4,3.1,0.9,4.8,1.3c1.8-6.5,3.6-12.9,5.4-19.3c-1.7-0.5-3.3-0.9-4.9-1.4c-0.2,0.6-0.3,1-0.4,1.5
	c-0.8,2.9-1.6,5.9-2.5,8.8c-0.4,1.1-1,2.3-1.7,3.2c-1.1,1.3-3.1,1.4-4.7,0.5c-1.2-0.7-1.5-1.8-1-3.7c0.5-2,1.1-4,1.7-6
	c0.6-2,1.1-4,1.7-6.2C211.1,59.1,209.6,58.6,207.9,58.1z M85.2,115.8c-5.9-5-11.7-9.9-17.5-14.9c-1.2,1.4-2.3,2.7-3.4,4
	c7,6,14,11.9,21,17.9c3.9-4.6,7.7-9,11.6-13.5c-1.2-1-2.3-2-3.5-3C90.6,109.5,87.9,112.6,85.2,115.8z M264.1,85.9
	c-2.1-3.4-4.9-5.8-8.5-7c-2.3-0.8-4.3-0.1-5.9,1.8c-1.6,1.9-2,4-0.7,6.2c1.1,1.8,2.4,3.5,3.5,5.3c0.6,0.9,0.9,1.7,0.1,2.6
	c-0.8,0.9-1.9,0.8-2.7,0.1c-1.5-1.3-2.9-2.8-4.4-4.2c-0.3-0.3-0.5-0.7-0.8-1c-1.1,0.8-2,1.6-3.2,2.5c1.5,1.6,2.8,3.2,4.3,4.6
	c1.5,1.4,3.2,2.5,5.3,2.8c2.6,0.4,4.6-0.6,6.1-2.6c1.4-1.9,1.3-3.9,0.2-6c-0.6-1-1.2-1.9-1.9-2.8c-0.6-0.9-1.3-1.8-1.9-2.8
	c-0.4-0.7-0.4-1.5,0.3-1.9c0.5-0.3,1.4-0.5,1.8-0.2c1.1,0.6,2.2,1.5,3.1,2.3c0.9,0.8,1.5,1.8,2.3,2.7
	C262.2,87.5,263.1,86.8,264.1,85.9z M290.8,100.6c-0.2,0.1-0.3,0.1-0.3,0.1c-5.8,4.6-11.7,9.2-17.5,13.8c-3,2.4-3.1,5.1-0.4,7.9
	c1.6,1.7,1.6,1.7,3.4,0.2c0.4-0.4,0.8-0.7,1.3-1.1c-0.2-0.2-0.3-0.3-0.4-0.5c-1.5-1.5-1.4-2,0.2-3.2c2.4-1.9,4.8-3.8,7.2-5.6
	c3.2-2.5,6.5-5.1,9.8-7.7C292.8,103.2,291.8,101.9,290.8,100.6z M327.2,181.9c0,0-0.1,0-0.1,0c0,0.7,0,1.4,0,2.2
	c0,0.8-0.1,1.5-0.1,2.3c-0.1,1.6,0.8,2.8,2.2,2.8c1.4,0.1,2.4-0.9,2.5-2.5c0.1-3.1,0.2-6.1,0.3-9.2c0-1.6-1-2.6-2.3-2.6
	c-1.4,0-2.3,1-2.4,2.6C327.2,178.9,327.2,180.4,327.2,181.9z M179.8,30.5c1.4,0,2.9,0,4.3,0c1.6,0,2.6-0.9,2.7-2.3
	c0-1.4-1-2.4-2.5-2.4c-3,0-6,0-9,0c-1.5,0-2.5,1-2.5,2.4c0,1.4,1,2.4,2.6,2.4C176.8,30.5,178.3,30.5,179.8,30.5z M229.7,34
	c-1.4,0-2.3,0.8-2.6,1.8c-0.3,1.2,0.4,2.3,1.6,2.8c2.8,1.1,5.6,2.2,8.4,3.2c1.4,0.5,2.7,0,3.2-1.3c0.5-1.3,0-2.6-1.4-3.1
	c-2.8-1.1-5.6-2.2-8.4-3.2C230.2,34.1,229.8,34.1,229.7,34z M83,61.4c-0.7,0.2-1.3,0.2-1.6,0.5c-2.6,2.3-5.1,4.6-7.6,6.9
	c-0.9,0.8-0.7,2.3,0.2,3.2c0.8,0.8,2.2,1,3.1,0.2c2.5-2.2,4.9-4.4,7.3-6.7c0.7-0.7,0.8-1.7,0.3-2.5C84.4,62.3,83.6,61.9,83,61.4z
	 M307.6,258.7c0.3-0.2,1.1-0.4,1.4-0.9c1.7-2.9,3.4-5.8,5-8.7c0.6-1.1,0-2.3-1-2.9c-1.1-0.6-2.5-0.4-3.1,0.7
	c-1.7,2.8-3.3,5.6-4.9,8.5C304.2,256.9,305.5,258.8,307.6,258.7z M286.6,70.2c-0.4-0.8-0.5-1.4-0.9-1.8c-2.4-2.2-4.7-4.4-7.2-6.5
	c-1-0.8-2.4-0.6-3.2,0.3c-0.8,0.9-0.8,2.4,0.1,3.3c2.3,2.2,4.7,4.3,7.1,6.4c0.8,0.7,1.7,0.8,2.6,0.2
	C285.6,71.6,286.1,70.9,286.6,70.2z M92.5,297.1c-0.5-0.8-0.7-1.5-1.1-1.9c-2.4-2.1-4.9-4.1-7.4-6c-1-0.8-2.3-0.6-3.1,0.3
	c-0.8,0.9-0.9,2.4,0.1,3.2c2.5,2.1,5.1,4.2,7.8,6.2c0.5,0.4,1.7,0.4,2.3,0.1C91.6,298.7,92,297.8,92.5,297.1z M267.5,297.1
	c0.6,0.7,1,1.5,1.6,2c0.9,0.6,1.9,0.4,2.7-0.3c2.4-1.9,4.8-3.8,7.2-5.8c1.1-0.9,1.2-2.4,0.3-3.4c-0.9-1-2.3-1.1-3.4-0.1
	c-2.3,1.9-4.7,3.7-7,5.7C268.3,295.5,268,296.2,267.5,297.1z M330.9,196c-0.1-1.4-0.9-2.4-2.2-2.5c-1.3-0.1-2.4,0.7-2.6,2
	c-0.1,0.8-0.2,1.7-0.4,2.5c-0.3,2.2-0.7,4.4-1,6.6c-0.2,1.4,0.6,2.5,1.8,2.8c1.3,0.3,2.5-0.5,2.7-1.9
	C329.9,202.3,330.4,199.1,330.9,196z M309.4,98.4c-0.1-0.2-0.1-0.6-0.3-0.9c-1.8-2.7-3.6-5.5-5.4-8.2c-0.7-1-2.2-1.1-3.1-0.4
	c-1,0.7-1.4,2-0.7,3.1c1.7,2.7,3.5,5.4,5.4,8.1c0.6,0.9,1.7,1.1,2.7,0.7C308.9,100.4,309.4,99.6,309.4,98.4z M94.8,302.4
	c0.4,0.6,0.7,1.4,1.2,1.8c2.7,1.7,5.4,3.4,8.1,5c1.2,0.7,2.5,0.3,3.1-0.8c0.6-1.1,0.4-2.5-0.7-3.2c-2.7-1.7-5.4-3.4-8.1-5
	C96.9,299.3,95,300.5,94.8,302.4z M41.7,114.9c0,1.5,0.7,2.3,1.8,2.6c1.2,0.3,2.2-0.3,2.8-1.5c1.2-2.5,2.5-5.1,3.7-7.6
	c0.7-1.5,0.4-2.9-0.8-3.5c-1.3-0.7-2.6-0.2-3.4,1.4c-1.3,2.5-2.5,5.1-3.8,7.6C41.9,114.2,41.8,114.7,41.7,114.9z M30.6,149.7
	c0,1.7,0.8,2.7,2,2.9c1.3,0.2,2.4-0.6,2.7-2c0.4-2,0.8-3.9,1.2-5.9c0.2-1.1,0.5-2.1,0.7-3.2c0.2-1.4-0.6-2.5-1.9-2.7
	c-1.3-0.2-2.3,0.4-2.7,1.8c-0.1,0.5-0.3,1-0.4,1.5C31.6,144.9,31.1,147.6,30.6,149.7z M46.5,240.3c0-0.2,0-0.4-0.1-0.5
	c-1.3-3.2-2.6-6.3-4-9.4c-0.5-1-1.8-1.3-2.8-0.9c-1,0.4-1.8,1.6-1.4,2.6c1.3,3.2,2.6,6.3,4,9.5c0.5,1,1.5,1.2,2.6,0.9
	C45.9,242.1,46.4,241.4,46.5,240.3z M63.4,86.4c0.5-0.3,1.2-0.4,1.6-0.8c2.1-2.4,4.3-4.9,6.3-7.3c0.8-0.9,0.5-2.4-0.3-3.1
	c-0.9-0.8-2.3-0.9-3.1-0.1c-2.3,2.5-4.5,5.1-6.6,7.7C60.3,84.2,61.5,86.2,63.4,86.4z M331.7,167.8c-0.3-3.1-0.6-6.2-1-9.3
	c-0.2-1.4-1.3-2.3-2.7-2.1c-1.3,0.2-2.1,1.2-2,2.6c0.3,3,0.6,6,0.9,9c0.1,1.4,1.3,2.4,2.6,2.3C330.7,170.3,331.7,169.2,331.7,167.8z
	 M28.1,182.2C28.1,182.2,28.1,182.2,28.1,182.2c0.1,1.6,0.2,3.3,0.3,4.9c0.1,1.4,1.2,2.3,2.5,2.2c1.3-0.1,2.2-1,2.2-2.4
	c0-3.1-0.1-6.1-0.3-9.2c-0.1-1.5-1.1-2.3-2.5-2.3c-1.3,0.1-2.2,1-2.2,2.5C28.1,179.3,28.1,180.8,28.1,182.2z M287.8,76.2
	c0.3,0.8,0.4,1.3,0.7,1.7c2.1,2.5,4.2,4.9,6.3,7.4c0.8,0.9,2.2,0.9,3.2,0.1c0.9-0.8,1.2-2.1,0.4-3.1c-2.1-2.6-4.3-5.1-6.5-7.5
	c-0.7-0.7-1.7-0.9-2.5-0.3C288.7,74.9,288.3,75.6,287.8,76.2z M259.9,52.9c0.4,0.6,0.6,1.3,1.1,1.7c2.5,1.9,5.1,3.6,7.6,5.4
	c1.1,0.7,2.5,0.4,3.2-0.6c0.7-1,0.7-2.4-0.3-3.1c-2.6-2-5.3-3.9-8-5.7C262,49.7,260.1,50.9,259.9,52.9z M31.6,193.7
	c-1.5,0-2.5,1-2.3,2.6c0.4,3.2,0.9,6.3,1.4,9.5c0.2,1.3,1.6,2.1,2.8,1.9c1.2-0.2,2-1.3,1.8-2.7c-0.4-3.1-0.9-6.2-1.4-9.3
	C33.7,194.4,32.7,193.7,31.6,193.7z M97.1,50.6c-0.2,0-0.6,0-0.9,0.2c-2.7,1.9-5.5,3.8-8.2,5.8c-1,0.7-1,2.1-0.3,3
	c0.7,1,2,1.4,3.1,0.7c2.7-1.8,5.4-3.7,8-5.7c0.9-0.6,1-1.6,0.7-2.6C99.2,51.1,98.4,50.6,97.1,50.6z M319.4,228.9
	c-0.6,0.5-1.6,0.9-1.9,1.6c-1.4,2.9-2.6,5.8-3.8,8.8c-0.5,1.2,0.1,2.5,1.2,3c1.2,0.5,2.5,0.1,3-1.1c1.3-2.9,2.6-5.8,3.7-8.8
	C322.4,230.7,321.3,229.2,319.4,228.9z M57.9,261.3c-0.8,0.6-1.7,1-1.9,1.6c-0.3,0.7-0.3,1.9,0.1,2.4c1.8,2.6,3.7,5,5.6,7.5
	c0.9,1.1,2.4,1.2,3.4,0.4c1-0.8,1.1-2.2,0.2-3.3c-1.8-2.4-3.6-4.8-5.4-7.2C59.4,262.2,58.7,261.9,57.9,261.3z M50.4,98.6
	c0,1.4,0.6,2.2,1.6,2.6c1.1,0.4,2.1,0,2.8-1.1c1.6-2.4,3.2-4.9,4.8-7.3c0.9-1.3,0.7-2.7-0.4-3.5c-1.1-0.8-2.6-0.5-3.5,0.8
	c-1.6,2.4-3.2,4.8-4.8,7.2C50.6,97.8,50.5,98.4,50.4,98.6z M238.4,317.7c0.1,0,0.4,0,0.5-0.1c3.1-1.4,6.3-2.8,9.3-4.4
	c1-0.5,1.1-1.9,0.6-2.9c-0.5-1-1.8-1.6-2.9-1.1c-3,1.3-5.9,2.7-8.8,4.1c-1,0.5-1.4,1.6-1.1,2.7C236.5,317.1,237.2,317.6,238.4,317.7
	z M301.8,261.6c-0.2,0.1-0.9,0.2-1.2,0.7c-2.1,2.6-4.1,5.2-6,7.9c-0.7,1-0.3,2.3,0.6,3c0.9,0.7,2.3,0.7,3.1-0.2
	c2.1-2.6,4.2-5.3,6.1-8C305.3,263.5,304,261.6,301.8,261.6z M67,278.1c0.3,0.8,0.3,1.4,0.7,1.8c2.2,2.4,4.5,4.8,6.8,7.1
	c0.9,0.9,2.3,0.7,3.2-0.1c0.8-0.8,0.9-2.3,0.1-3.2c-2.2-2.3-4.4-4.6-6.7-6.9c-0.7-0.7-1.7-0.9-2.5-0.4
	C67.9,276.8,67.5,277.5,67,278.1z M188.4,329.3C188.4,329.3,188.4,329.3,188.4,329.3c1.8-0.1,3.7-0.3,5.5-0.4
	c1.5-0.1,2.4-1.1,2.3-2.5c-0.1-1.4-1.2-2.3-2.6-2.2c-3,0.2-6,0.4-9,0.6c-1.4,0.1-2.3,1.1-2.3,2.4c0,1.4,1.1,2.3,2.5,2.3
	C186,329.4,187.2,329.3,188.4,329.3z M322.4,225.3c1.3-0.1,2.1-0.5,2.4-1.4c0.9-3.1,1.8-6.3,2.7-9.4c0.3-1.2-0.5-2.3-1.7-2.6
	c-1.2-0.3-2.4,0.3-2.8,1.5c-0.9,3.1-1.8,6.1-2.6,9.2C319.9,223.9,321.1,225.3,322.4,225.3z M171.6,329.3
	C171.6,329.3,171.6,329.3,171.6,329.3c1.2,0,2.5,0.1,3.7,0.1c1.5,0,2.5-0.9,2.6-2.3c0-1.4-0.9-2.3-2.4-2.4c-3-0.2-5.9-0.4-8.9-0.5
	c-1.5-0.1-2.6,0.8-2.6,2.2c-0.1,1.3,0.9,2.4,2.2,2.5C168,329,169.8,329.2,171.6,329.3z M37.4,134.7c1,0,1.8-0.4,2.2-1.4
	c1.1-3,2.1-5.9,3.1-8.9c0.4-1.3-0.3-2.5-1.4-2.9c-1.2-0.4-2.5,0.1-3,1.3c-1.1,3-2.2,6-3.2,9C34.6,133.3,35.8,134.7,37.4,134.7z
	 M156.6,32.2c3.6-0.4,6.8-0.8,10-1.2c1.2-0.2,1.9-1.3,1.8-2.5c-0.1-1.2-1-2.2-2.2-2.1c-3.3,0.3-6.6,0.7-9.8,1.2
	c-1.3,0.2-1.9,1.4-1.7,2.7C154.7,31.4,155.7,32.2,156.6,32.2z M102.4,48c0.2,2,2,3.1,3.7,2.2c2.7-1.4,5.4-2.8,8-4.3
	c1.2-0.7,1.6-2,1.1-3.2c-0.6-1.2-1.9-1.7-3.2-1.1c-2.8,1.4-5.6,2.9-8.3,4.5C103.2,46.5,102.9,47.3,102.4,48z M292.9,278.8
	c0-1.4-0.4-2.1-1.4-2.5c-1-0.5-2-0.2-2.7,0.6c-2,2.1-4.1,4.2-6.1,6.3c-1.1,1.1-1.2,2.5-0.3,3.5c0.9,1,2.5,1,3.6-0.1
	c2.1-2.1,4.2-4.3,6.2-6.4C292.6,279.7,292.7,279.1,292.9,278.8z M138.9,323.8c1.4,0,2.4-0.8,2.6-2c0.2-1.2-0.4-2.2-1.7-2.7
	c-2.8-0.9-5.6-1.8-8.3-2.7c-1.5-0.5-2.8,0.1-3.2,1.4c-0.5,1.3,0.2,2.6,1.7,3.1c2.8,0.9,5.5,1.8,8.3,2.7
	C138.5,323.8,138.8,323.8,138.9,323.8z M139.2,36.1c3-0.8,6.4-1.6,9.7-2.5c1-0.3,1.4-1.7,1.1-2.7c-0.3-1-1.4-1.9-2.5-1.6
	c-3.2,0.7-6.4,1.5-9.6,2.4c-1.1,0.3-1.6,1.5-1.4,2.7C136.8,35.4,137.7,36.1,139.2,36.1z M156.9,327.9c1.4-0.1,2.4-0.9,2.5-2.2
	c0.2-1.3-0.7-2.4-2-2.6c-2.9-0.5-5.8-1.1-8.7-1.6c-1.4-0.3-2.5,0.4-2.9,1.7c-0.3,1.3,0.3,2.5,1.7,2.8
	C150.7,326.7,153.8,327.3,156.9,327.9z M309.3,106.7c0,0.2,0.1,0.5,0.2,0.8c1.4,2.8,2.8,5.7,4.2,8.4c0.6,1.1,1.9,1.5,3,1
	c1.1-0.5,1.8-1.8,1.2-2.9c-1.4-3-2.9-6-4.5-8.9c-0.5-1-1.6-1.2-2.6-0.8C309.9,104.7,309.4,105.5,309.3,106.7z M194.6,26.3
	C194.6,26.3,194.6,26.3,194.6,26.3c-0.1,0.1-0.2,0.1-0.4,0c-1.7-0.2-2.8,0.6-2.9,2.1c-0.1,1.5,0.7,2.4,2.4,2.6
	c2.8,0.3,5.5,0.7,8.3,1c1.6,0.2,2.7-0.5,3-1.9c0.2-1.5-0.6-2.6-2.2-2.8C200,27,197.3,26.6,194.6,26.3z M223,33.1
	c0-0.7-0.6-1.5-1.7-1.8c-3-0.8-6-1.6-9-2.3c-1.3-0.3-2.5,0.5-2.8,1.6c-0.3,1.4,0.3,2.6,1.7,2.9c3,0.8,5.9,1.5,8.9,2.2
	C221.7,36.3,223.1,35.1,223,33.1z M319.9,120.9c-2.2,0-3.2,1.5-2.7,3.2c1,2.8,1.9,5.6,2.9,8.4c0.5,1.4,1.7,2,3,1.7
	c1.3-0.4,2-1.6,1.5-3.1c-1-2.9-2-5.8-3.1-8.7C321.3,121.4,320.5,120.9,319.9,120.9z M124.4,315.1c-0.5-0.6-0.9-1.5-1.6-1.8
	c-2.7-1.4-5.5-2.6-8.2-3.8c-1.3-0.6-2.6-0.1-3.2,1.1c-0.6,1.2-0.2,2.5,1.1,3.2c0.6,0.4,1.3,0.6,1.9,0.9c2.1,1,4.2,1.9,6.3,2.8
	C122.5,318.2,124.2,317.1,124.4,315.1z M254.3,50.2c1.4,0,2.3-0.6,2.6-1.6c0.3-1.1,0-2.2-1.1-2.8c-2.6-1.5-5.3-2.9-7.9-4.3
	c-1.4-0.7-2.8-0.3-3.4,0.9c-0.6,1.2-0.1,2.6,1.3,3.3c2.5,1.3,4.9,2.6,7.4,4C253.6,50,254,50.1,254.3,50.2z M39.9,223.1
	c0-0.1,0-0.2,0-0.4c-0.9-3.1-1.7-6.3-2.7-9.4c-0.3-1.1-1.6-1.6-2.8-1.3c-1.1,0.3-2,1.5-1.7,2.7c0.8,3.2,1.7,6.3,2.7,9.4
	c0.3,1.1,1.5,1.6,2.6,1.3C39.1,225.2,39.9,224.2,39.9,223.1z M132.3,36.6c0-1.8-1.5-2.8-3.4-2.1c-2.7,1-5.4,2.1-8.1,3.2
	c-1.5,0.6-2,1.9-1.5,3.2c0.5,1.3,1.8,1.8,3.3,1.2c2.7-1,5.4-2.1,8.1-3.2C131.7,38.5,132.3,37.7,132.3,36.6z M255,309.5
	c0.1,0,0.4,0,0.7-0.1c2.9-1.8,5.7-3.5,8.5-5.3c1-0.7,1-2,0.3-3c-0.6-0.9-2-1.4-3-0.7c-2.7,1.6-5.5,3.3-8.1,5.1
	c-0.9,0.6-1.2,1.6-0.8,2.7C253,309,253.8,309.5,255,309.5z M28.4,167.4c-0.1,2.3,0.7,3.4,2.2,3.5c1.5,0.1,2.4-0.9,2.6-2.7
	c0.2-2.7,0.5-5.5,0.7-8.2c0.1-1.6-0.6-2.7-2-2.8c-1.5-0.2-2.5,0.7-2.7,2.4C28.8,162.4,28.6,165.2,28.4,167.4z M214.4,324.1
	c0-1.8-1.2-2.9-2.8-2.6c-3,0.5-6,1.1-9,1.7c-1.2,0.2-2,1.4-1.8,2.6c0.2,1.3,1.2,2.2,2.5,2c3.2-0.5,6.4-1.1,9.5-1.8
	C213.8,325.7,214.3,324.9,214.4,324.1z M329.5,149.7c-0.8-3.3-1.5-6.6-2.3-9.9c-0.3-1.2-1.7-1.7-2.8-1.3c-1.1,0.3-1.9,1.4-1.6,2.6
	c0.7,3.1,1.4,6.2,2.1,9.3c0.3,1.2,1.4,1.8,2.6,1.6C328.5,151.9,329.3,150.9,329.5,149.7z M48.5,246c-2.1,0.3-3.2,2-2.2,3.7
	c1.4,2.7,3,5.3,4.5,7.9c0.8,1.3,2.2,1.6,3.3,0.9c1.1-0.7,1.4-2,0.7-3.4c-1.4-2.5-2.9-5.1-4.4-7.5C50,246.9,49.1,246.5,48.5,246z
	 M220.9,323.8c0.2,0,0.3,0,0.5,0c3.1-1,6.3-1.9,9.4-3c1.1-0.4,1.5-1.8,1-2.9c-0.4-1.1-1.6-1.8-2.8-1.4c-1.3,0.4-2.5,0.8-3.7,1.2
	c-1.7,0.5-3.4,1-5,1.5c-1.2,0.4-1.8,1.5-1.6,2.6C218.9,323.1,219.8,323.8,220.9,323.8z"/>
<path d="M123,282.5c1.2-3.5,2.3-6.9,3.4-10.5c3.1,1.1,6.2,2,9.1,3.2c2.6,1.1,3.3,3.6,2.4,6.4c-1,2.8-3.3,4.3-6,3.6
	C128.9,284.5,126.1,283.5,123,282.5z"/>
<path d="M238.6,290.6c0,3.4-1.3,5.2-3.6,6c-2.5,0.8-4.5,0-6-2.5c-1.3-2.1-2.1-4.4-2.4-6.9c-0.3-2.5,0.7-4.3,2.8-5.3
	c2.3-1,4.6-0.6,6.2,1.4C237.6,285.6,238.5,288.3,238.6,290.6z"/>
<path d="M162.8,299.1c0.1,4.6-4,7.2-8,5.3c-1.3-0.6-1.9-1.8-1.6-3.3c0.3-1.6,1.1-2.6,2.6-2.6C158.1,298.6,160.5,298.9,162.8,299.1z"
	/>
<path d="M200.6,294.4c-0.6-3.9,1.1-6.6,4.3-7.1c3-0.4,4.8,1.5,5.3,5.5C207,293.4,203.8,293.9,200.6,294.4z"/>
<path d="M130.5,71.7c0-2.4,0.8-3.6,2.5-4.2c1.7-0.7,3.4-0.4,4.6,1c1.8,2,2.7,4.4,2.6,7.1c-0.1,2-1.3,3.3-3.2,3.9
	c-1.7,0.5-3.2-0.1-4.3-1.8C131.4,75.7,130.6,73.6,130.5,71.7z"/>
<path d="M119.1,82.5c1.2,1.3,1.7,2.7,1,4.3c-0.8,1.7-2.1,2.8-4,3c-1.1,0.1-2-0.7-2.4-1.9c-0.4-1.1,0-2,0.8-2.6
	C116,84.3,117.6,83.5,119.1,82.5z"/>
<path d="M99.8,91.2c-2,1.7-4,3.4-6,5c-2-2.2-2.1-4.8-0.1-6.6C95.6,88,97.6,88.5,99.8,91.2z"/>
<path d="M266.8,97.7c2.3-2.1,4.7-2.3,6.5-0.3c1.7,1.8,1.3,3.8-1.1,6C270.4,101.5,268.7,99.6,266.8,97.7z"/>
<path d="M196.1,65.4c-0.3,1.5-0.5,3.1-1,4.5c-0.6,1.9-2.2,2.8-4.1,2.6c-2.1-0.2-3.4-1.4-3.8-3.4c-0.4-2.2-0.2-4.3,0.5-6.4
	c0.8-2.2,2.4-3.2,4.5-2.9c2.1,0.3,3.4,1.6,3.6,4c0,0.5,0,1,0,1.6C195.9,65.4,196,65.4,196.1,65.4z"/>
</svg>
