<svg id="Layer_1" data-name="Layer 1" xmlns="http://www.w3.org/2000/svg" viewBox="0 0 591.22 509.77"><defs><style>.cls-1{fill:#afaeaf;}</style></defs><title>threebest</title><path class="cls-1" d="M81.07,398.84a7.65,7.65,0,0,1-2.8-.57,1.19,1.19,0,0,1-.74-1.89,11.14,11.14,0,0,1,.74-1.23c4.15-6.06,7.81-12.44,12.19-18.36,2.67-3.61,2.34-4.41-2-5.44-2.63-.62-5.36-.78-8-1.38-5.21-1.2-10.47-2.08-15.74-3a7.86,7.86,0,0,1-1.15-.32c-1.26-.39-1.49-.77-.74-1.83A34.76,34.76,0,0,1,66,361c4.65-4.94,8.5-10.58,13.35-15.35a4.78,4.78,0,0,0,.63-.72c1.12-1.65.84-2.6-1.05-3.21-4.11-1.32-8.23-2.58-12.34-3.85-4.35-1.34-8.72-2.64-13.06-4-2-.65-2.23-1.62-.58-3q7.27-6,14.59-12c2-1.67,4.09-3.31,6.11-5,1.19-1,1-2.1-.37-2.79L50,299.53c-.21-.11-.44-.2-.65-.32-1.85-1-1.88-1.57-.11-2.81,4.63-3.27,9.31-6.47,13.91-9.8,2.64-1.92,5.15-4,8-5.71,1-.62,1-1.38,0-2-6.45-3.69-12.37-8.22-18.86-11.84-1.33-.74-2.63-1.53-3.88-2.39s-1.26-1.46.15-2.2c3.74-2,7.48-4,11.3-5.81,2.17-1,4.35-2,6.42-3.22a25.18,25.18,0,0,1,4.32-2.06,18.15,18.15,0,0,0,2.82-1.33c1.61-.93,1.69-1.75.24-2.9-1.19-.94-2.45-1.79-3.7-2.65a32.61,32.61,0,0,1-5-4.08,6.08,6.08,0,0,0-1.42-1.27c-4.34-2.31-7.82-5.8-11.75-8.66a6.78,6.78,0,0,1-.9-.8c-.7-.71-.5-1.28.33-1.68a15.77,15.77,0,0,1,2-.88q11.49-4.15,23-8.28c.38-.14.76-.26,1.13-.41,1.59-.68,1.82-1.57.67-2.93-.88-1-1.77-2.06-2.66-3.08-3.87-4.47-7.82-8.86-11.73-13.29-1-1.14-2-2.27-3-3.44s-.81-1.89.86-2.27a67.6,67.6,0,0,1,7-1.41c5-.61,9.9-1.63,14.81-2.65,1.4-.3,2.82-.5,4.23-.77,1.71-.33,1.79-.58.87-2.17-4.24-7.34-9-14.34-13.76-21.35-1.82-2.71-1.64-3.22,1.61-3.68a14.53,14.53,0,0,0,4.1-1.19,9.49,9.49,0,0,1,4.19-.83c5.52.13,11-.74,16.52-.53a4.59,4.59,0,0,0,1.64-.27c1.24-.44,1.42-.87.93-2.18-.34-.89-.69-1.79-1.12-2.65q-4.76-9.42-9.54-18.83l-.13-.2c-1.31-2.79-.67-3.36,2-3.26a6.58,6.58,0,0,0,2.84-.34,13.56,13.56,0,0,1,7.33-.42c2.53.37,5.08.47,7.61.69a54.89,54.89,0,0,0,6.66.57c2-.07,2.35-.56,1.61-2.33a52.2,52.2,0,0,1-1.8-6.2c-1.32-4.87-3.27-9.52-4.77-14.32-.36-1.14-.74-2.28-1-3.45s.09-1.55,1.21-1.29a6.47,6.47,0,0,0,4.41-.43,7.47,7.47,0,0,1,4.49-.12A81.18,81.18,0,0,1,138,107.53a6.41,6.41,0,0,0,3.06.42,1.26,1.26,0,0,0,1.25-1.64c-.71-5-1.33-10.1-2.41-15.09a79.29,79.29,0,0,1-1.22-9c-.2-2,0-2.18,2.08-1.73a2.75,2.75,0,0,0,2.07-.28A6.75,6.75,0,0,1,149,80c4.77,1.83,9.62,3.46,14.43,5.17l.91.3c2.8.91,3.1.71,3.11-2.12,0-4.08.08-8.16,0-12.24-.08-2.78-.77-5.53-.51-8.34,0-.48,0-1,0-1.44.09-2.35.36-2.56,2.53-1.75a3,3,0,0,0,2.76.06c1.69-1,3.19-.49,4.71.41q7.41,4.41,14.85,8.77c2.12,1.25,2.76.83,3-1.53.72-6,.89-12,1.76-18,.19-1.34.08-2.72.14-4.07.09-2.22.29-2.44,2.48-2.21a1.87,1.87,0,0,0,1.47-.58c2.44-2,3.13-2.06,5.7-.31,3.63,2.46,7.2,5,10.79,7.54,1.89,1.33,3.74,2.72,5.66,4,1.26.85,1.66.64,2.24-.84.89-2.25.85-4.68,1.38-7,1-4.35,1.89-8.72,2.88-13.08.53-2.38,1-2.58,3-1.21a1.41,1.41,0,0,0,1.93,0c1.52-1.26,2.73-.86,4.27.2a17.73,17.73,0,0,1,4.37,4,11.28,11.28,0,0,0,3.37,3,14.73,14.73,0,0,1,4.33,4.07,25.14,25.14,0,0,0,2.77,3c1.11,1,1.86,1,2.4-.37A60,60,0,0,0,258.4,39c1.49-5.48,3.84-10.67,5.62-16,.48-1.45.89-1.56,2-.5s1.83,1.28,3.11.39c1.51-1.05,2.4-.87,3.5.51q3.27,4.13,6.4,8.36A13.87,13.87,0,0,0,280.82,34a13.67,13.67,0,0,1,3.23,4.42,10.52,10.52,0,0,0,1.75,2.57c.9,1,1.75,1,2.48-.11s1.5-2.46,2.18-3.73q4.4-8.25,8.75-16.53l.56-1.06c.51-1,1.19-1.11,1.81-.19s1.26.84,2.13.2c2-1.44,3.44-1.1,4.73,1,.83,1.37,1.58,2.78,2.34,4.19,2.53,4.72,5,9.44,7.57,14.16a7.29,7.29,0,0,0,.77,1.21c.48.58,1.15.79,1.6.09.92-1.42,2.36-2.37,3.26-3.82,3-4.75,6.66-9,10-13.49.63-.87,1.34-1.76,2.35-.31.27.38.69.31,1.07.09a11.82,11.82,0,0,1,1.45-.84c1.66-.69,2.78-.35,3.54,1.28,1.06,2.23,2,4.54,2.92,6.83,1.84,4.51,3.64,9,5.48,13.54.81,2,1.64,2.22,3.12.67,4.2-4.38,8.32-8.84,12.48-13.27.93-1,1.87-2,2.82-2.94.48-.48,1.21-.93,1.7-.46.94.92,1.86.5,2.86.36,1.86-.26,2.87.47,3.38,2.56.58,2.4,1,4.84,1.51,7.26q1.49,7.13,3,14.26a11.7,11.7,0,0,0,.35,1.15c.31,1,1,1.23,1.82.67,1.68-1.08,3.39-2.13,5-3.32,3.91-2.9,7.76-5.88,11.63-8.84.57-.43,1.09-1,1.64-1.4.31-.25.76-.7,1-.62,1.62.64,3.14-.28,4.71-.18,1.8.11,2.8,1.34,3,3.71.14,2,.31,4,.38,6,.12,3.51.63,7,.65,10.51,0,1.59.28,3.17.46,4.76.12,1.07.82,1.44,1.84,1.47a5.86,5.86,0,0,0,3.31-1.23c4.89-3,10.11-5.51,15-8.48,2.33-1.41,4.5-.51,6.71-.27,1.12.12,1.41,1.42,1.42,2.51a35,35,0,0,1-.07,6.23,63.2,63.2,0,0,0-.39,9.32C440,76,440,78,440,80.12c0,2.3.78,2.84,3,2.09,2.87-1,5.71-2,8.56-3.09,3.22-1.18,6.47-2.29,9.59-3.74a8.27,8.27,0,0,1,5.18-.32c2,.39,2.46,1.84,2.25,3.36-.79,5.51-1.74,11-2.56,16.51a51.08,51.08,0,0,0-.59,6.18c-.05,2.21,1.52,3.23,3.67,2.65,4.39-1.19,8.82-2.23,13.18-3.55A36.5,36.5,0,0,1,490,98.54a5.36,5.36,0,0,1,2.11.12c1.95.61,2.49,1.4,2,3.38-.79,3-1.63,6-2.55,9a91.42,91.42,0,0,1-3.45,10.46,7,7,0,0,0-.31.91c-.9,3.21.25,4.84,3.53,4.71,2.86-.12,5.72-.43,8.56-.78,1.82-.23,3.66-.26,5.48-.42,2.77-.24,5.54-.71,8.34-.7s4.33,2.11,3.38,4.79a10.32,10.32,0,0,1-.62,1.3c-2,3.9-3.91,7.88-6,11.76a64.74,64.74,0,0,0-2.73,6.38c-1.27,3.25-.43,4.47,3,4.55,2.4.06,4.8,0,7.2,0,4.47,0,8.92.5,13.39.59,3.5.08,5,1.4,2.76,5.07-3.24,5.32-6.38,10.71-10,15.78a20.28,20.28,0,0,0-1.92,4.6c-.47,1.19,0,1.92,1.46,2.23,2.65.58,5.31,1.06,8,1.49,3.61.59,7.24,1.07,10.85,1.67a11.89,11.89,0,0,0,2.37.28,5.88,5.88,0,0,1,2.56.53,3,3,0,0,1,1.62,4.15,8.38,8.38,0,0,1-1.61,2.36c-4.54,4.93-8.68,10.21-12.94,15.38a3.89,3.89,0,0,0-.28.39c-1.5,2.33-1.1,3.65,1.51,4.53,2.2.73,4.43,1.33,6.66,1.95,4.77,1.31,9.57,2.53,14.32,3.91,3.95,1.15,4.07,3,1.41,5.79-2,2.14-4.32,4-6.53,6-3.23,2.85-6.57,5.59-9.73,8.51-2.8,2.6-2.63,3.92.76,5.45,2.56,1.16,4.64,3.06,7.21,4.16a18.14,18.14,0,0,0,2.86,1.18,33.13,33.13,0,0,1,9,3.78,7.49,7.49,0,0,1,1.17.83c1.27,1.16,1.3,2,.14,3.26a27,27,0,0,1-5.33,4.43c-4.54,3-9.2,5.79-13.55,9a6.92,6.92,0,0,0-1.13.87,1.81,1.81,0,0,0,.14,2.92,11.6,11.6,0,0,0,2.13,1.55c5.91,3.33,11.27,7.53,17.19,10.85a3.53,3.53,0,0,1,1.86,3.62c-.12,1.5-1.17,2.1-2.41,2.66-6.35,2.86-12.36,6.39-18.57,9.5-2.62,1.32-2.76,3.05-.56,5.06,3,2.73,6,5.46,9.17,8,2.18,1.73,4.25,3.6,6.44,5.34,2.76,2.19,2.12,5.27-1.28,6.3s-6.65,2.28-9.9,3.51-6.38,2-9.41,3.42-3.68,3.65-1.18,6.15a164.61,164.61,0,0,1,13.54,15.49,6.94,6.94,0,0,1,.59.75c1,1.68.75,2.89-1.06,3.68a20,20,0,0,1-6.19,1.76c-5.21.49-10,2.53-15.11,3.48a6.42,6.42,0,0,0-1.58.54c-1.68.8-2.06,1.8-1.25,3.46a57.62,57.62,0,0,0,5.29,8.26c2.2,3.05,4.1,6.29,6.17,9.41a2.25,2.25,0,0,1,.12.21c1.74,3.21.77,5.17-2.82,5.37-1.92.1-3.76.76-5.7.65-.26,0-.53.28-.8.44L525.8,394c-1.68-.49-2-.34-2.09,1.33a44.75,44.75,0,0,0,.11,6.95c1,8,2,16,3.66,23.85a26.12,26.12,0,0,1,.35,3.32,1.31,1.31,0,0,1-.73,1.4c-.6.29-1.06,0-1.48-.45a15,15,0,0,1-2.44-3.53c-.29-.51-.38-1.22-1.28-1.37-.45.9-.14,1.87-.23,2.78-.06.65-.06,1.38-.8,1.57s-1.08-.53-1.31-1.12a10.56,10.56,0,0,1-.63-2.05c-1.24-7.48-2.26-15-2.95-22.53-.34-3.65-.65-7.31-1-11-.12-1.27-.49-1.5-1.7-1.34-4.89.67-9.69,1.8-14.5,2.87-6.29,1.41-12.44,3.41-18.86,4.2a8.76,8.76,0,0,1,2.15-6.19,74.65,74.65,0,0,0,7.61-12.44c2-4.09,4.15-8.11,5.93-12.3,2.31-5.44,4.76-10.81,6.7-16.39a201.56,201.56,0,0,0,7.61-27.16c1-5.22,2-10.46,2.67-15.75.4-3,.6-6,1-9a67.56,67.56,0,0,0,.74-9.26c0-7.74.38-15.48-.29-23.23-.47-5.38-.82-10.77-1.48-16.14-.83-6.72-2.25-13.33-3.73-19.92a189.35,189.35,0,0,0-9.33-29.9,131,131,0,0,0-7.71-16.72c-.7-1.2-1.43-1.87-2.82-1.66-.05-.39-.13-.78-.15-1.17-.24-4.78-2.42-8.25-6.93-10.11a27.15,27.15,0,0,0-3.13-6.43c-3-4.8-6.62-9.16-10-13.72a113.87,113.87,0,0,0-14.24-16.69,4.53,4.53,0,0,1-.81-.89c-1.39-2.34-3.73-3.65-5.72-5.34-.92-.78-1.48-.63-2.41.12-3.68,3-6.72,6.61-10.26,9.71a4.48,4.48,0,0,0-1.5,4.7c.36,1.79.79,3.57,1.15,5.36.55,2.72,1.11,5.44,1.57,8.18.27,1.58-.78,2.42-2.3,1.87a27,27,0,0,1-3.72-1.59c-2.88-1.54-5.74-3.11-8.55-4.78a4.82,4.82,0,0,0-5-.17c-4,1.93-8,4-11.88,6.19-1.93,1.05-2.77.62-3-1.54a4.3,4.3,0,0,1,.16-1.89c1.25-3.56,1-7.38,2-11a5.58,5.58,0,0,0-2-6.21,57.42,57.42,0,0,1-4.74-4.75c-.53-.56-1.27-1-1.32-1.92a42.68,42.68,0,0,1,4.84-5.56l0,.05.36-.42a13.74,13.74,0,0,1,5.58-1.08,4.23,4.23,0,0,0,4.17-2.3c2-4.26,4.82-8.09,6.42-12.54.24-.64.31-1.44,1.31-1.47a1.86,1.86,0,0,1,1.93,1.09c1.32,2.56,2.71,5.07,4,7.63.65,1.28,1.2,2.61,1.76,3.93a5.39,5.39,0,0,0,4.95,3.57c3.12.11,6.11,1.24,9.24,1.08.8,0,1.81,1.07,2.33-.1.44-1-.69-1.5-1.28-2.08A146.32,146.32,0,0,0,426.63,110,231.2,231.2,0,0,0,396.1,91.24a145.44,145.44,0,0,0-15.48-7c-4.61-1.79-9.16-3.77-13.87-5.22-7.61-2.33-15.31-4.39-23.11-6a181.66,181.66,0,0,0-22.17-3.12,56.14,56.14,0,0,1-7.83-.72,18.09,18.09,0,0,0-5.25-.06c-1.64.12-2,.91-1.37,2.47.21.52.49,1,.72,1.52,2.63,5.82,5.95,11.31,8.41,17.21A4.13,4.13,0,0,0,319.56,93q8.51,1.18,17,2.4c4.49.64,9,1.28,13.47,2,1.83.27,2.25,1.34,1.11,2.82a13.26,13.26,0,0,1-1.16,1.21c-2.37,2.39-4.72,4.78-7.11,7.15a6.57,6.57,0,0,0-1.73,2.55,11.14,11.14,0,0,0-5.68,4.71c-.37.61-.77,1.21-.28,2a13.24,13.24,0,0,0-5.75,3.76,6,6,0,0,0-1.6,5.54c.94,4.77,2,9.51,2.56,14.35.61,5.22,1.61,10.39,2.42,15.58a1.48,1.48,0,0,1-1.84,1.75,6.24,6.24,0,0,1-1.3-.58c-3.83-1.82-7.61-3.73-11.26-5.88-2.82-1.66-5.81-3-8.48-4.9a2.2,2.2,0,0,1,2.73-.8c1.43.5,2.88.93,4.31,1.42a2.54,2.54,0,0,0,2.45-.06,15.94,15.94,0,0,0-3.63-2.33c-1.42-.71-2.9-1.31-4.31-2-2.6-1.36-5.12-2.87-7.75-4.17s-5.17-.76-7.35,1.41c.92.67,1.63-.06,2.39-.34.45-.16.93-.47,1.31,0s.08,1-.31,1.45a2.27,2.27,0,0,0-.87,1.88c-.64.32-1.29.63-1.91,1-8.18,4.7-16.43,9.25-24.9,13.42a8,8,0,0,1-1.29.61c-1.28.38-2-.15-2.11-1.45a5.34,5.34,0,0,1,.07-1.2c1.08-6.53,2.07-13.07,3.27-19.57a109.89,109.89,0,0,1,2.51-11.93c2.12-.79,2.12-.79,3.73,1.27.89-3.32.65-4.41-1.55-6.58a38,38,0,0,0-2.84-2.55,25.52,25.52,0,0,1-4.12-4c-1.75-2.2-4.22-3.57-6.16-5.54-.05,0-.27.08-.42.12-.24.44.06.77.27,1.07,1.36,2,2,4.54,3.9,6.23a.77.77,0,0,1,.06,1.25c-.37.3-.75.06-1.06-.21s-.72-.63-1.07-1a24.77,24.77,0,0,0-4.77-3.88,25.6,25.6,0,0,0-4-4.45,75.61,75.61,0,0,1-5.72-5.46c-.66-.63-1.25-1.34-.8-2.31a2.44,2.44,0,0,1,2.14-1.3c2.45-.31,4.89-.68,7.33-1,6.54-.94,13.08-1.94,19.63-2.8,5.05-.67,5.34-.74,7.55-5.35,1.62-3.38,3-6.89,4.74-10.2a100.4,100.4,0,0,0,4.72-9.67c.63-1.56.26-2.39-1.36-2.48a41.22,41.22,0,0,0-6.94.07,59.64,59.64,0,0,1-8.54.82,10.15,10.15,0,0,0-1.91.08c-3.68.64-7.38,1.1-11.06,1.77a229.27,229.27,0,0,0-27.84,6.7A233.72,233.72,0,0,0,206,88c-4.82,2.34-9.46,5-14,7.75-7.87,4.74-15.47,9.88-22.91,15.25-6.15,4.44-11.4,10-17,15.07-3.4,3.13-6.58,6.51-9.68,10-3.79,4.21-7.33,8.62-10.81,13.06a165.61,165.61,0,0,0-14.74,22c-4.1,7.41-8.14,14.83-11.74,22.5-4.12,8.75-6.59,18.11-10.23,27a56.07,56.07,0,0,0-3,12.26c-.79,5-1.62,9.89-2.18,14.88-.27,2.31-.24,4.63-.5,6.92a94.91,94.91,0,0,0-.87,10.24q0,9.46,0,18.95a28.7,28.7,0,0,0,.11,3.35,71.9,71.9,0,0,1,.84,10.24,39.87,39.87,0,0,0,.65,6.66,223.18,223.18,0,0,0,4.6,22.18,204.76,204.76,0,0,0,12,34.57,207.91,207.91,0,0,0,17.3,31.74,53,53,0,0,1,3.82,5.47,20.9,20.9,0,0,1-3.74-.71c-7.76-2.1-15.49-4.33-23.52-5.19-2.19-.23-3.33.48-3.6,2.67-.23,1.82-.32,3.66-.5,5.48-.4,4-.85,7.93-1.22,11.9a123.83,123.83,0,0,1-2.51,15.32,4.42,4.42,0,0,1-.9,2.17c-.27.29-.58.59-1,.5s-.48-.57-.49-1c0-.64,0-1.28,0-1.92,0-.39,0-.87-.49-.94s-.69.31-.9.66a29.87,29.87,0,0,1-1.63,2.65c-.77,1-1.54.95-2.2-.17a3.26,3.26,0,0,1-.47-2.07c.13-1.18.18-2.39.39-3.56,1.42-8,2.83-16,3.51-24.12.16-1.82.16-3.67.19-5.5,0-.89-.31-1.3-1.33-.95C84.34,394.32,81.94,395.71,81.07,398.84Zm254.6-291c-2.67,2-5.59,2.19-8.34,2.9-.47.11-1,.2-1.29-.3s.09-1,.57-1.38a.71.71,0,0,1,.21-.11c3.15-1.23,4.81-4.11,7-6.38a1.44,1.44,0,0,0-.49-2.51,5.22,5.22,0,0,0-1.15-.26c-2.71-.64-5.5-.73-8.23-1.34a39.51,39.51,0,0,0-8.5-1.1,2,2,0,0,1-2.21-1.71,14.38,14.38,0,0,0-2-4.32,44.3,44.3,0,0,1-2.79-5.55c-2-4.53-4.5-8.83-6.45-13.39-.55-1.29-1.6-1.27-2.27,0-1,1.84-1.79,3.75-2.68,5.62-2.78,5.84-5.58,11.68-8.35,17.53a2.86,2.86,0,0,1-2.6,1.82,37.44,37.44,0,0,0-4.74.6,34.86,34.86,0,0,0-6.81,1.14c-1.56.54-1.74,1.23-.56,2.37a48.67,48.67,0,0,0,5.23,4.91c1.8,1.3,3.09,3.22,5,4.49a1.56,1.56,0,0,1,.6,1c.19,1.91,1.58,2.13,3.06,2.29a24.8,24.8,0,0,0,3.31.44c6.54-.07,13.07.19,19.63-.28,5.35-.39,10.58-1.34,15.83-2.19,2.58-.41,5.24-.7,7.54-2.18C334.76,109.52,335.62,109.31,335.67,107.81Zm109.27,19.1c-1.57-.32-2.5-.54-3.44-.69-3.29-.54-6.59-1-9.87-1.63a7.65,7.65,0,0,0-4,0,1.73,1.73,0,0,1-2.33-1c-.56-1.06-1-2.16-1.54-3.24-1.17-2.54-2.31-5.09-3.51-7.6-.47-1-1.18-1-1.82-.08a5.27,5.27,0,0,0-.42.86c-1.38,3.13-2.83,6.25-4.11,9.43a4.78,4.78,0,0,1-3.6,3.11c-1.09.27-2.39.16-3.27,1.24a7.66,7.66,0,0,0,1.9,2.17c1,.91,2.1,1.7,3.08,2.63s1.08,1.11-.44,2.31c3.26.56,6.39,1.18,9.56.79a42,42,0,0,1,5-.34,43.71,43.71,0,0,0,10.52-1.9,3.25,3.25,0,0,0,1.63-.95A21.15,21.15,0,0,1,444.94,126.91Zm-108.2-19.23a4.75,4.75,0,0,0,2.31-2,.6.6,0,0,0-.16-.84.75.75,0,0,0-.64.11A4.21,4.21,0,0,0,336.74,107.68Z" transform="translate(-10.34 -18.65)"/><path class="cls-1" d="M81.07,398.84c.87-3.13,3.27-4.52,6.11-5.49,1-.35,1.34.06,1.33.95,0,1.83,0,3.68-.19,5.5-.68,8.11-2.09,16.12-3.51,24.12-.21,1.17-.26,2.38-.39,3.56a3.26,3.26,0,0,0,.47,2.07c.66,1.12,1.43,1.21,2.2.17a29.87,29.87,0,0,0,1.63-2.65c.21-.35.46-.73.9-.66s.48.55.49.94c0,.64,0,1.28,0,1.92,0,.39,0,.85.49,1s.75-.21,1-.5a4.42,4.42,0,0,0,.9-2.17,123.83,123.83,0,0,0,2.51-15.32c.37-4,.82-7.93,1.22-11.9.18-1.82.27-3.66.5-5.48.27-2.19,1.41-2.9,3.6-2.67,8,.86,15.76,3.09,23.52,5.19a20.9,20.9,0,0,0,3.74.71,46.59,46.59,0,0,0,13.91,2.15c4,.13,4,.1,4.23-3.87a70.3,70.3,0,0,0-1.2-19.31c-.29-1.35-.46-2.82.44-3.87a10.91,10.91,0,0,1,6.25-4.09c.93-.18,1.85-.48,2.77-.73a11.93,11.93,0,0,1,1,3.92,179.75,179.75,0,0,1-.64,20.1q-.44,6.09-.83,12.18c0,.39-.23,1,.69,1.08.31-2.76,2.7-4.38,3.81-6.75a.55.55,0,0,1,.8-.28.83.83,0,0,1,.34.56,4,4,0,0,1,0,1.42c-.67,2.28-.26,4.61-.35,6.91,0,.46-.07,1,.63,1.23,1.37-1,1.43-2.63,1.55-4,.46-5.25.84-10.5,1-15.76s.05-10.71,0-16.06c0-3.76,0-3.76,3.54-4.65,3.06.53,6.13,1.05,9.19,1.59,2.66.47,5.37.79,8,1.48a135.85,135.85,0,0,0,26.17,4.43c9,.58,18,1.64,27,2.5,6.45.62,12.91.79,19.36,1.33,8.19.69,16.43.83,24.64,1.41,6.61.47,13.26.52,19.89.53,12.71,0,25.42-.22,38.11-.92,3.27-.18,6.56-.19,9.81-.54,5.89-.62,11.8-.59,17.7-1,2.79-.19,5.58-.39,8.36-.63,8-.71,16.07-1.56,24.12-2.15a173.14,173.14,0,0,0,26.05-3.72,200,200,0,0,1,23.27-4.27A3.22,3.22,0,0,1,449.8,372c-.31,10.39.08,20.77.65,31.14a18.12,18.12,0,0,0,.93,4.2,1.1,1.1,0,0,0,1,.89c.67,0,.55-.65.58-1.1a9.61,9.61,0,0,0,0-1.2c-.1-2.47.3-4.95-.39-7.39a.74.74,0,0,1,.28-.85.56.56,0,0,1,.8.28c.33,1,.58,2,.86,3s1.95.61,2.25,1.9a3.64,3.64,0,0,0,1.32,2.26A11.73,11.73,0,0,0,458,401a38.48,38.48,0,0,1-.83-8.08,67.38,67.38,0,0,0-.22-7.66,70.48,70.48,0,0,1-.17-11.25,15.45,15.45,0,0,1,1-5.64c1.88.12,3.49,1.06,5.21,1.67,2.44.87,3.6,2.78,4.07,5.19a11.86,11.86,0,0,1-.18,4.52,69.65,69.65,0,0,0-.77,16.94c.05.79.23,1.58.32,2.37s.42,1.16,1.22,1.15c4.14,0,8.31.21,12.28-1.34,6.42-.79,12.57-2.79,18.86-4.2,4.81-1.07,9.61-2.2,14.5-2.87,1.21-.16,1.58.07,1.7,1.34.36,3.65.67,7.31,1,11,.69,7.55,1.71,15.05,2.95,22.53a10.56,10.56,0,0,0,.63,2.05c.23.59.49,1.32,1.31,1.12s.74-.92.8-1.57c.09-.91-.22-1.88.23-2.78.9.15,1,.86,1.28,1.37a15,15,0,0,0,2.44,3.53c.42.41.88.74,1.48.45a1.31,1.31,0,0,0,.73-1.4,26.12,26.12,0,0,0-.35-3.32c-1.69-7.88-2.68-15.87-3.66-23.85a44.75,44.75,0,0,1-.11-6.95c0-1.67.41-1.82,2.09-1.33l2.05.62c2,1.2,2.53,3.05,2.53,5.3a91.86,91.86,0,0,0,1.22,16.47c.23,1.23.56,1.82,1.91,1.68,5.93-.62,11.84,0,17.7.58a79.48,79.48,0,0,1,17.09,3.32,37,37,0,0,1,9.36,4.15c3.8,2.59,5.78,6.06,5.53,10.74-1.06,19.34,3.74,37.38,12.17,54.6a47.86,47.86,0,0,0,4.41,7.95,9.77,9.77,0,0,1,1.36,2.79,7,7,0,0,1-6.15,9.55,24.8,24.8,0,0,1-9-.79,140.59,140.59,0,0,1-22.51-8.12,33.2,33.2,0,0,0-12-3.2c-3.64-.19-4.33,0-7.3,1.9-.14-2.7-.26-5.31-.42-7.93a37.61,37.61,0,0,0-.33-3.82c-.25-1.52-.74-2.05-2.24-1.91a28.11,28.11,0,0,1-7.61-.67c-4-.69-7.44-2.33-9.8-5.8a5,5,0,0,1-.88-3.62c.71-4.95.27-9.9,0-14.85-.16-2.8-.55-3-3.26-2.38-7,1.69-14,3.43-20.95,5.1a95.12,95.12,0,0,1-17.78,2.45c-.79-.05-1.59-.12-2.38-.15a24,24,0,0,1-13.25-4.26c-2.67-1.87-3.34-3.78-2.29-6.78a11.43,11.43,0,0,0,.62-3.52,123.85,123.85,0,0,0-.52-18.17c-.13-1.05-.45-1.31-1.46-1.31-2.24,0-4.45.45-6.67.52a46.8,46.8,0,0,0-8.65,1.45,6,6,0,0,0-2.38.15c-3.28.69-6.54,1.45-9.83,2.12-3.75.77-7.42,1.9-11.21,2.53-5,.85-10.1,1.38-15.17,2-1.27.15-2.54.32-3.81.36-6.4.21-12.76.9-19.1,1.67-2.06.24-4.2.12-6.16.68a16.81,16.81,0,0,1-4.65.59c-2.47,0-5,.07-7.42.29-4.78.42-9.56.86-14.35,1-12.94.42-25.88,1-38.83,1.19-10.63.11-21.26.18-31.89-.27-13.42-.58-26.81-1.71-40.24-1.75-2.83,0-5.54-.7-8.33-.92a66.35,66.35,0,0,1-8.13-.79c-4.92-1-10-1-15-1.65-7.43-.95-15-1.08-22.3-2.88-6.74-1.65-13.64-2.58-20.35-4.41a13.88,13.88,0,0,0-5.43-.7,54.08,54.08,0,0,0-11.42-1.12,1.25,1.25,0,0,0-1.44,1.24,58.38,58.38,0,0,0-.57,13.14c-.19,3.44-.31,6.84,1.05,10.15.75,1.82-.3,3.27-1.62,4.42a19.14,19.14,0,0,1-6.92,3.73c-4.9,1.55-9.91,1.58-15,1.15-8.16-.71-16-3-24-4.81-3.34-.77-6.66-1.66-10-2.48-2.27-.57-2.61-.29-2.81,2.07a100.28,100.28,0,0,0-.42,10.54,15.84,15.84,0,0,0,.22,3.59c.91,3.47-.81,5.72-3.39,7.49a19.78,19.78,0,0,1-10.84,3.56c-1.6,0-3.19.24-4.79.26-1,0-1.34.44-1.38,1.44-.11,3.12-.31,6.23-.51,9.34a4.69,4.69,0,0,1-.48,2.67c-3.85-2.4-8-2.08-12.11-1a82,82,0,0,0-11.44,4.28,109.73,109.73,0,0,1-20.7,6.71,19.09,19.09,0,0,1-6.44.32A7.16,7.16,0,0,1,11,501.58a22.62,22.62,0,0,1,1.44-2.76A123.21,123.21,0,0,0,26.18,465a91,91,0,0,0,2.53-26.17,27,27,0,0,1,0-4.31,11.18,11.18,0,0,1,4.08-7.38A19.35,19.35,0,0,1,37.91,424a67.78,67.78,0,0,1,11.61-3.66,85.71,85.71,0,0,1,10.37-1.66c5.71-.51,11.44-1.22,17.22-.74,2.79.23,2.85.15,3.3-2.65C81.29,409.84,82,404.37,81.07,398.84ZM227.43,394a6.64,6.64,0,0,0-5.64,5.09,26.13,26.13,0,0,0-.56,3.3,29.48,29.48,0,0,1-1.8,7.92c-.31.7-.49,1.69-1.53,1.54s-1-1.09-1.23-1.86a13.7,13.7,0,0,1-.29-5.48c.6-4.24,2.13-8,6-10.42a7.37,7.37,0,0,0,2.56-2c-.85-.75-1.49-.28-2.13,0a17.37,17.37,0,0,0-11.59,18c.47,6.43,5.75,12.53,12.11,13.45,5.73.83,11-.52,15.06-5a9.39,9.39,0,0,0,.9-1.12.7.7,0,0,0-.09-.88.64.64,0,0,0-.86-.13,3.94,3.94,0,0,0-1,.63c-2.2,2.19-5,2.66-7.92,2.87-2.08.15-2.44-.29-2.33-2.29.2-3.44,1.14-6.77,1.41-10.21.16-2,1.44-2.68,3.42-2.37,1,.14,1.89.35,2.82.57a4.59,4.59,0,0,0,2.36-.18,2.94,2.94,0,0,0,1.85-2.83c-.12-1.32-1.14-1.07-2-1.13-.54,0-1.23.09-1.45-.53s.43-1.13.89-1.53c1.21-1,2.48-2,3.66-3.09.78-.7,1.76-1.3,2-2.46-1.34-.3-2.53-.5-3.68-.82a12.68,12.68,0,0,1-3.36-1.8,17.88,17.88,0,0,0-2.39-1.1,1,1,0,0,0-1.12.06c-1.34,1.32-3.24,2-4.13,3.84Zm170,21.52a2.45,2.45,0,0,0-1.67.94c-.61.63-1.16,1.33-2.2,1.23a11.34,11.34,0,0,1-4.33-1.29c-1-.54-.86-3.78,0-5.19a5.28,5.28,0,0,1,1.07-1.28c1.85-1.44,2.92-3.57,4.64-5.14,1.06-1,1-1.59-.08-2.65a29.21,29.21,0,0,0-2.72-2.35c-4.12-3.21-2.38-2.88-6.8-.25-2.51,1.49-3.38,3.93-3.07,6.79a12.37,12.37,0,0,0,.46,2.35A59.61,59.61,0,0,1,384,415a6.18,6.18,0,0,1-1.07,5.23,50.61,50.61,0,0,1,7.43,1.48,2.06,2.06,0,0,0,1.79-.51A28.06,28.06,0,0,0,397.4,415.54Zm-57.18,8.24-.4-.38c-.73.3-1.45.61-2.18.9a6.32,6.32,0,0,1-4.87-.42c-1.78-.76-2-3.2-.5-4.91a44.23,44.23,0,0,1,6.31-5.84c2-1.51,2-2.15.23-4-1.28-1.32-2.55-2.64-3.83-4a1.71,1.71,0,0,0-2.66-.18,6,6,0,0,1-2.14,1.47c-2.9.92-3.93,3-3.82,5.89,0,1,0,2.08.16,3.11.43,3.24,1,6.47-.09,9.69-.2.6-.11,1.16.53,1.4a26.79,26.79,0,0,0,6.34,2,2.35,2.35,0,0,0,1.63-.25A26.37,26.37,0,0,0,340.22,423.78Zm-51.82,5.76a8,8,0,0,0,3.41-1.67c.95-.66.85-1.25-.19-1.73-.65-.3-1.36-.46-2-.74-2.43-1-3.06-2.95-1.78-5.25a4.84,4.84,0,0,1,2-2c2.15-1.11,3.81-2.89,5.82-4.18a1.72,1.72,0,0,0,.53-2.84c-1.12-1.55-2.31-3.07-3.57-4.5s-1.64-1.44-3.34-.73c-1.53.64-3,1.37-4.54,2a2.29,2.29,0,0,0-1.55,2.42c0,.8-.08,1.6-.13,2.39-.19,3.27-.36,6.53-.59,9.79-.08,1.18-1,2.34-.59,3.47s2.12,1.28,3.05,2.15c0,.05.09.16.16.17C286.21,428.62,287.18,429.4,288.4,429.54ZM310,426.37c-3.46-1.27-3.75-1.77-3.74-5.15,0-4.63-.05-9.27-.11-13.9a29.76,29.76,0,0,1,1-8.29c.13-.49.64-1.1.05-1.53s-1.22.05-1.75.37a7.35,7.35,0,0,0-1.09.93,1.78,1.78,0,0,1-2.39.26,7.15,7.15,0,0,0-1-.61.7.7,0,0,0-.88.12c-.25.31-.06.59.14.84,1.14,1.4,1.21,3.06,1.2,4.77q0,8.15,0,16.29a7.26,7.26,0,0,1-.61,3.73,2.07,2.07,0,0,0,.06,2.28c1.15,1.66,3.07,2.19,4.74,3.06a1.13,1.13,0,0,0,.91-.15C307.81,428.62,309.22,428,310,426.37Zm12.81-.36c-3.43-1.39-3.63-1.7-3.69-5.68,0-2.32-.09-4.63-.14-6.95-.1-4.83-1.29-9.68.15-14.49a1.29,1.29,0,0,0,0-.48c0-.39,0-.83-.4-1a1,1,0,0,0-1.1.28,4.79,4.79,0,0,0-.67.68c-.85,1-1.76,1.29-2.88.37a1.83,1.83,0,0,0-2.14-.43c1.8,2.81,1.82,2.87,2,6.55,0,.56.08,1.11.1,1.67.28,5.59.18,11.18.21,16.77,0,1.12-1.21,2.28-.62,3.12s2,1.17,3,1.78C319.45,429.82,321.5,429.11,322.85,426Zm45.84-4.1a17,17,0,0,1,5.94,1.5,2.93,2.93,0,0,0,3.45-.77,7,7,0,0,0,1.66-2.15c-1.52-.34-2.83-.67-4.16-.92a1.63,1.63,0,0,1-1.44-1.61c-.41-2.84-.92-5.66-1.33-8.5-.22-1.48-.77-2.93-.42-4.46,1.16-.28,2.05.46,3.06.61a1.85,1.85,0,0,0,2.32-1.51c.41-1.35.05-2.29-1.15-2.73-1-.39-2.12-.68-3.2-1a2.23,2.23,0,0,0-2,.4,8.06,8.06,0,0,0-3.59,8.07c.15,1.18.41,2.35.66,3.52C369.12,415.45,369.6,418.5,368.69,421.91Zm-91.62,4.26a2.77,2.77,0,0,0-1.48-.91c-2.94-1-3.19-1.35-3.06-4.51.11-2.71.32-5.42.44-8.13.14-2.92.12-2.92,2.92-2.09a2.88,2.88,0,0,0,3.56-1.94c.56-1.42-.67-1.79-1.48-2.32a25.4,25.4,0,0,0-2.52-1.36,1.65,1.65,0,0,0-1.39-.21c-2.32,1-4.53,2.06-5.31,4.77a20.81,20.81,0,0,0-.55,4c-.27,3.4,0,6.88-1.24,10.16a1.14,1.14,0,0,0,.8,1.68,8.73,8.73,0,0,1,4.25,2.95c.43.55,1.17,1.06,1.9.54C275,428.05,276,427.13,277.07,426.17Zm-32.91-20c2.79-.39,3-.32,4.14,1.76a23.58,23.58,0,0,1,2.94,7c.79,4.33,3.3,7.9,4.94,11.86.2.47.5.88,1.05.79,2.06-.34,4-.89,5.3-3.26-2.48.2-3.33-1.46-4.2-3.1a56.23,56.23,0,0,1-3.11-7.23c-.89-2.48-1.86-4.92-2.84-7.36a10.23,10.23,0,0,0-2.26-3.62,1.61,1.61,0,0,0-2.15-.37A8.85,8.85,0,0,0,244.16,406.13Zm120.49,15.81c-2.58-.15-2.58-.15-2.95-2.61-.05-.31-.15-.62-.19-.94-.42-3.48-1.33-6.91-1.13-10.45.08-1.41.27-2.82.43-4.5-1.47,1-2.61,1-3.72-.23-.45-.49-1.32-1-1.94-.38a21.14,21.14,0,0,0-3.87,4.31c.39.29.57.09.77,0,2.1-1.24,2.95-.88,3.45,1.5a13.78,13.78,0,0,1,.18,1.42c.46,3.8.91,7.6,1.39,11.4a6.79,6.79,0,0,0,1.92,4c.59.6,1.37,1.11,2.12.55C362.55,424.93,364,423.82,364.65,421.94Zm-13.56-14.16c-1-.43-1.68-.76-1.82-1.85s-1-1.57-1.83-2.11a1.41,1.41,0,0,0-1.78,0,24.43,24.43,0,0,0-3.72,3.8c2.82.06,2.77.07,3.22,2.62a44.56,44.56,0,0,1,.82,13.08,4.21,4.21,0,0,0,.66,3c1,1.51,1.61,1.68,3.13.75.68-.42,1.31-.91,2-1.36a1.41,1.41,0,0,0,.5-2.21,11.45,11.45,0,0,1-1.56-5.7,41.75,41.75,0,0,0-.48-5.71A5.2,5.2,0,0,1,351.09,407.78ZM245.45,426.15c1,0,2.33-1.37,2.58-2.46a1.41,1.41,0,0,0-1-1.88,13.14,13.14,0,0,1-1.9-1,1.51,1.51,0,0,0-2.11.49,2.16,2.16,0,0,0-.53,2.43C243.19,425,244.49,425.53,245.45,426.15ZM261,409.08c.94-.07,2.13-1.78,2.05-2.92-.08-1-2.28-2.56-3.45-2.49-.81.05-1.85,1.53-1.78,2.53S260,409.17,261,409.08Z" transform="translate(-10.34 -18.65)"/><path class="cls-1" d="M148.28,448.3a58.38,58.38,0,0,1,.57-13.14,1.25,1.25,0,0,1,1.44-1.24A54.08,54.08,0,0,1,161.71,435a2.19,2.19,0,0,0,1.08,2c3.5,2.77,7,5.6,10.51,8.32a220.74,220.74,0,0,0,24.14,16,209,209,0,0,0,33.91,15.56,188.92,188.92,0,0,0,33.21,9c6.59,1.1,13.21,2,19.88,2.66,2.38.23,4.77.3,7.15.52,4.76.43,9.54,1,14.31.73,3.11-.18,6.21-.31,9.32-.39a3.85,3.85,0,0,0,.48,0c5.37-.7,10.77-1.06,16.13-1.8,7-1,14-2.18,20.92-3.72a211.41,211.41,0,0,0,31.51-9.83,203.22,203.22,0,0,0,30.1-14.68,243.58,243.58,0,0,0,20.58-14c4-3,8-5.85,11.35-9.53a46.8,46.8,0,0,1,8.65-1.45c2.22-.07,4.43-.52,6.67-.52,1,0,1.33.26,1.46,1.31a123.85,123.85,0,0,1,.52,18.17,11.43,11.43,0,0,1-.62,3.52c-1.05,3-.38,4.91,2.29,6.78a24,24,0,0,0,13.25,4.26c.79,0,1.59.1,2.38.15-.17.53-.6.64-1.09.79a15.11,15.11,0,0,1-11.56-.86c-4.21-2.09-8.68-3.68-13-5.47a13.21,13.21,0,0,0-2.26-.8c-1.2-.25-1.76.26-1.9,1.51-.12,1.07.42,2,.43,3.07q0,9,0,18a6.21,6.21,0,0,1-.24,1.41c-.62,2.64-.87,2.84-3.53,2.85-.4,0-.87-.15-1.19,0-2.08,1.05-3.68-.12-5.28-1.12-4.95-3.1-10.32-5.43-15.33-8.43-1.56-.93-2.25-.61-2.73,1.14a10.37,10.37,0,0,0-.43,2.83,68.28,68.28,0,0,1-.84,9c-.31,2.53.06,5.12-.6,7.63-.22.84-.28,1.73-.54,2.56a2.6,2.6,0,0,1-2.53,2.17,3.35,3.35,0,0,0-3.55,2c-3.4-2.66-6.59-5.16-9.79-7.65-2.83-2.21-5.66-4.43-8.51-6.61-1.13-.87-1.67-.75-2.13.56a43.48,43.48,0,0,0-1.18,4.38c-1.35,5.58-2.68,11.17-4,16.75a12.88,12.88,0,0,1-.5,1.6c-.81,2.12-1.88,2.64-4.12,2-1-.3-1.94-.8-2.66.53-.26.48-.86.36-1.26,0s-.95-.86-1.4-1.32l-13.2-13.27c-.4-.39-.77-.82-1.2-1.17-1.32-1.08-2.31-.95-3.09.56a33.09,33.09,0,0,0-1.69,4c-1.64,4.5-3.24,9-4.86,13.52-.13.38-.25.76-.4,1.13-1.21,2.81-2.13,3.24-5,2.08-1-.41-1.6-.37-2,.76-.3.8-1,.78-1.52.21a15.69,15.69,0,0,1-1.56-1.81c-3.66-5-7.29-10.1-10.94-15.15-1.24-1.71-2.39-1.74-3.52,0S328,511.07,327,512.9c-1.88,3.53-3.72,7.08-5.59,10.61-.45.84-.92,1.68-1.45,2.48-1.41,2.15-2.36,2.45-4.56,1.16-1-.58-1.41-.56-2.05.45-.76,1.18-1.68,1-2.34-.18-1.75-3.23-3.46-6.48-5.19-9.72-1.31-2.47-2.62-4.94-4-7.39a17.73,17.73,0,0,0-1.29-2c-1.42-1.89-2.07-1.91-3.78-.21-1.88,1.86-3.27,4.12-5,6.14-2.25,2.69-4.35,5.5-6.53,8.25-.3.38-.66.7-1,1-1.14,1.23-2.44,1.77-4.07,1a2.27,2.27,0,0,0-2.45.1c-1.35.83-1.95.56-2.54-1-.9-2.3-1.75-4.63-2.53-7-1.44-4.32-3.11-8.55-4.87-12.75a3.75,3.75,0,0,0-.82-1.44,1.24,1.24,0,0,0-1.73-.18,7.41,7.41,0,0,0-1.05,1c-4.37,4.77-8.75,9.53-13.07,14.34-1.58,1.76-2.9,2.19-4.79,1-1-.65-1.68-.81-2.32.34a1.35,1.35,0,0,1-1.59.77,1.47,1.47,0,0,1-1-1.47c-.15-4.25-1.88-8.23-2.12-12.48-.11-2.12-1.18-4.13-1.45-6.28-.19-1.5-.53-3-.82-4.46-.46-2.37-1.49-2.77-3.47-1.31-2.18,1.62-4.31,3.3-6.46,5-2.78,2.14-5.6,4.24-8.33,6.43-1.61,1.3-3.24,2.05-5.24,1-1.14-.6-1.95.08-2.85.61-1.11.65-1.66.43-1.85-.8a43.82,43.82,0,0,1-.56-5.22c-.1-2.4-.11-4.8,0-7.2.15-3.61-.63-7.15-.56-10.76,0-1.77-1-2.3-2.5-1.47-5.12,2.79-10.22,5.62-15.32,8.44a17.86,17.86,0,0,1-3.27,1.49,2.59,2.59,0,0,1-1.87.19,4.9,4.9,0,0,0-4.95-.06c-.53.29-1.1-.19-1.22-.81a8.51,8.51,0,0,1-.09-1.67c0-4.8.08-9.6,0-14.4,0-2.58.56-5.08.54-7.64s-1-3.36-3.4-2.47c-5.1,1.85-10.18,3.77-15.27,5.65-1,.36-2,.7-2.95,1a2.59,2.59,0,0,1-1.39.22,9.81,9.81,0,0,0-5.58-.52c-1,.23-1.29-.81-1.16-1.67.17-1.18.44-2.35.72-3.51,1.24-5.2,2.64-10.36,3.63-15.61.37-2-.47-2.94-2.39-2.54A24.22,24.22,0,0,0,148.28,448.3Z" transform="translate(-10.34 -18.65)"/><path class="cls-1" d="M489,182.83a5.86,5.86,0,0,0,0,1.67c1,3.77-.05,7.45-.5,11.13-.55,4.56-4.25,7.83-9.4,7.52a7.82,7.82,0,0,1-6.8-4.21c-.49-.81-.76-1.63,0-2.39a2,2,0,0,1,2.78-.06c.55.46,1,1,1.53,1.51,2.34,2.1,5.15,2,7.07-.44,1.46-1.86,2.6-4,1.72-6.64a23.25,23.25,0,0,1-4.7.76c-4.17,0-7.13-1.12-8.56-5-.79-2.11-.49-4.37-.5-6.58a6.79,6.79,0,0,1,.92-3.41c2.05-3.73,5.07-5.62,9.4-5.19,4.51,1.86,6.69,5.33,6.93,10.11C488.87,182.05,489,182.44,489,182.83ZM474.73,182a7.76,7.76,0,0,0,1.59,4.37,4.59,4.59,0,0,0,7.43.16,7,7,0,0,0,1.8-4.82c0-3.28-2.55-6.31-5.29-6.42-2.57-.11-5,2.46-5.48,5.7C474.74,181.32,474.75,181.64,474.73,182Z" transform="translate(-10.34 -18.65)"/><path class="cls-1" d="M274.56,124.61c-1.15-2.82-3.36-4.71-5.69-6.51a1.87,1.87,0,0,0-2.88.14,11.94,11.94,0,0,1-1.09.91c-2.69-2.63-5.39-5.27-8.07-7.91-.1-.1-.1-.29-.15-.44l3.85,0a24.77,24.77,0,0,1,4.77,3.88c.35.33.7.66,1.07,1s.69.51,1.06.21a.77.77,0,0,0-.06-1.25c-1.93-1.69-2.54-4.19-3.9-6.23-.21-.3-.51-.63-.27-1.07.15,0,.37-.17.42-.12,1.94,2,4.41,3.34,6.16,5.54a25.52,25.52,0,0,0,4.12,4,38,38,0,0,1,2.84,2.55c2.2,2.17,2.44,3.26,1.55,6.58C276.68,123.82,276.68,123.82,274.56,124.61Z" transform="translate(-10.34 -18.65)"/><path class="cls-1" d="M310,147.37c-1.66-.89-3.31-1.79-5-2.66-1.9-1-3.85-1.81-6.05-1a2.27,2.27,0,0,1,.87-1.88c.39-.41.79-.9.31-1.45s-.86-.13-1.31,0c-.76.28-1.47,1-2.39.34,2.18-2.17,4.68-2.72,7.35-1.41s5.15,2.81,7.75,4.17c1.41.74,2.89,1.34,4.31,2a15.94,15.94,0,0,1,3.63,2.33A2.54,2.54,0,0,1,317,148c-1.43-.49-2.88-.92-4.31-1.42A2.2,2.2,0,0,0,310,147.37Z" transform="translate(-10.34 -18.65)"/><path class="cls-1" d="M341.16,111.09l3.86-.28c-.18.87-.95,1.24-1.52,1.75a21.41,21.41,0,0,0-3.66,3.71,9.53,9.53,0,0,1-3,2.89l-1.6-1.41c-.49-.74-.09-1.34.28-2A11.14,11.14,0,0,1,341.16,111.09Z" transform="translate(-10.34 -18.65)"/><path class="cls-1" d="M398.81,125.12c.79.18,1.61-.58,2.38.09a42.68,42.68,0,0,0-4.84,5.56l-2.3-1.27a1.36,1.36,0,0,1,.13-1.36C395.43,126.68,396.66,125.2,398.81,125.12Z" transform="translate(-10.34 -18.65)"/><path class="cls-1" d="M401.16,125.26c-.22-.43.17-.34.36-.42Z" transform="translate(-10.34 -18.65)"/><path class="cls-1" d="M154,368.37a2.49,2.49,0,0,1,1.73-.72c3,0,5.91,0,8.87,0a1,1,0,0,1,.94.62c-3.58.89-3.56.89-3.54,4.65,0,5.35.14,10.71,0,16.06s-.55,10.51-1,15.76c-.12,1.4-.18,3.05-1.55,4-.7-.24-.65-.77-.63-1.23.09-2.3-.32-4.63.35-6.91a4,4,0,0,0,0-1.42.83.83,0,0,0-.34-.56.55.55,0,0,0-.8.28c-1.11,2.37-3.5,4-3.81,6.75-.92-.08-.71-.69-.69-1.08q.39-6.09.83-12.18a179.75,179.75,0,0,0,.64-20.1A11.93,11.93,0,0,0,154,368.37Z" transform="translate(-10.34 -18.65)"/><path class="cls-1" d="M447.18,368.31c.08-.14.14-.37.24-.39,3.49-.74,7-1.27,10.34.46a15.45,15.45,0,0,0-1,5.64,70.48,70.48,0,0,0,.17,11.25,67.38,67.38,0,0,1,.22,7.66A38.48,38.48,0,0,0,458,401a11.73,11.73,0,0,1,.11,4.06,3.64,3.64,0,0,1-1.32-2.26c-.3-1.29-1.94-.78-2.25-1.9s-.53-2-.86-3a.56.56,0,0,0-.8-.28.74.74,0,0,0-.28.85c.69,2.44.29,4.92.39,7.39a9.61,9.61,0,0,1,0,1.2c0,.45.09,1.07-.58,1.1a1.1,1.1,0,0,1-1-.89,18.12,18.12,0,0,1-.93-4.2c-.57-10.37-1-20.75-.65-31.14A3.22,3.22,0,0,0,447.18,368.31Z" transform="translate(-10.34 -18.65)"/><path class="cls-1" d="M141.45,259.59c2.08,0,4.16,0,6.24,0,1.78-.05,2.12-.53,1.68-2.24-.6-2.31-1.42-4.55-1.83-6.93a9.55,9.55,0,0,1,.21-4.23,26.34,26.34,0,0,1,2.64-6.4c1.17-2,2.44-2.16,4.05-.59a6,6,0,0,1,2,4.71c-.41,6.74,2.62,12,7,16.71,1,1.11,2.12,2.17,3.19,3.25.69.69,1.41.77,2-.06,1.2-1.59,2.86-1.83,4.7-1.79,3,.07,6.07,0,9.11,0A11.07,11.07,0,0,1,193,269.93a19.6,19.6,0,0,1,.09,11.79c-1.62,5.07-5.41,7.65-10.49,8.13-3.64.34-7.34.07-11,.08a3.19,3.19,0,0,1-2.76-1.59c-1.21-1.71-1.36-1.71-3.28-.67a6.13,6.13,0,0,1-3,.75c-7.28,0-14.55.05-21.82,0-3,0-3.66-.69-3.64-3.7a16.38,16.38,0,0,0-1-5.38A76.11,76.11,0,0,1,133,268.57a26.21,26.21,0,0,0-1.67-4.72,2.42,2.42,0,0,1,1-3.29,5.48,5.48,0,0,1,3.15-1c2,0,4,0,6,0Z" transform="translate(-10.34 -18.65)"/><path class="cls-1" d="M398.81,125.12c-2.15.08-3.38,1.56-4.63,3a1.36,1.36,0,0,0-.13,1.36c-3.21,1.26-4.18,3-3.41,6.27,1.47,6.2,2.15,12.53,3.33,18.78a8.56,8.56,0,0,1,.47,3.06c-.24,1.49-.92,1.93-2.29,1.24-3-1.5-6-2.95-8.83-4.69-2-1.23-4.37-1.86-6.15-3.49.68-1.22,1.65-.86,2.68-.59,1.23.32,2.36,1.13,3.79.94-.28-.87-1.06-.81-1.53-1.2-3.17-2.61-7.08-3.87-10.69-5.65a3.11,3.11,0,0,0-3.78.57c1,.94,2.51,1.09,3,2.42a24.66,24.66,0,0,0-4.85,2q-8.86,4.77-17.79,9.42c-1.81.94-2.51.51-2.46-1.52a21.93,21.93,0,0,1,.5-3.3,107.74,107.74,0,0,0,2-12.27,44.38,44.38,0,0,1,1.44-6.53c.16-.7.27-1.4.41-2.11a20.79,20.79,0,0,0,2.62-.08c.87-.14,1.2-.75.81-1.6a5.58,5.58,0,0,0-.77-1.2,106.21,106.21,0,0,0-11.88-11.06c-.21-.17-.4-.24-.83.12a14.34,14.34,0,0,0,2.28,2.53c1.2,1.33,2.29,2.68,1.91,4.65a23.15,23.15,0,0,1-7.19-7,9.53,9.53,0,0,0,3-2.89,21.41,21.41,0,0,1,3.66-3.71c.57-.51,1.34-.88,1.52-1.75,1.89-1.21,4.15-.88,6.21-1.4a33.3,33.3,0,0,1,4.26-.56,3.72,3.72,0,0,0,3.11-2.31c1.12-2.38,2.25-4.76,3.37-7.15,1.69-3.61,3.82-7,5.23-10.76a6.45,6.45,0,0,1,1.94-2.71c.9-.74,1.53-.67,2.19.3a13,13,0,0,1,.9,1.69c2.78,5.76,5.94,11.33,8.38,17.25,1.29,3.13,4.12,3.75,7,4.17,4.26.61,8.51,1.17,12.77,1.75l5,.67a11.51,11.51,0,0,1,1.18.13c2.12.47,2.59,1.83,1.09,3.4-1.87,2-3.85,3.84-5.78,5.76-.73.73-1.45,1.48-2.21,2.19A2.17,2.17,0,0,0,398.81,125.12Zm7.59-11.72a19,19,0,0,0-2.32-.54c-6.32-.76-12.58-1.88-18.87-2.81-1.51-.22-3.15-.62-4.49.82-.73.77-1.3.14-1.58-.63a18.13,18.13,0,0,0-2.75-5,6.29,6.29,0,0,1-1-2.15c-.8-3-2.65-5.61-3.74-8.52a4.57,4.57,0,0,0-.94-1.38c-.74-.83-1.36-.77-1.78.3-1.11,2.83-3,5.3-3.95,8.19s-2.72,5.59-3.94,8.46a3,3,0,0,1-2.09,1.79c-2.14.59-4.18,1.6-6.51,1.34a1.25,1.25,0,0,0-1.41.67c-.26.65.29,1,.67,1.41a43.48,43.48,0,0,0,6.57,5.93c.72.48,1.43,1,1.07,1.89-.63,1.49.42,1.63,1.33,1.85a9.52,9.52,0,0,0,2.14.18c3.75,0,7.52-.16,11.27,0,6.31.36,12.35-1.16,18.41-2.48a7.63,7.63,0,0,0,4.43-2.19A24.88,24.88,0,0,1,406.4,113.4Z" transform="translate(-10.34 -18.65)"/><path class="cls-1" d="M256.68,110.8c.05.15.05.34.15.44,2.68,2.64,5.38,5.28,8.07,7.91a24.73,24.73,0,0,1-7.26,7,4.47,4.47,0,0,1,1.12-3.3,10.12,10.12,0,0,0,2.16-3.28,5.18,5.18,0,0,0-2.37,1.49c-2.77,2.29-5.12,5-7.66,7.57-.76.78-2.51,1.31-1.9,2.63s2.15.54,3.31.54A84.55,84.55,0,0,0,254,143.37c.79,4.37,1.08,8.82,2.11,13.16.36,1.55-.72,2.37-2.27,1.94-2.79-.78-5.19-2.4-7.72-3.73-4.85-2.56-9.38-5.74-14.59-7.62,1.36-1.52,2.45-1.68,4.36-.6.85.49,1.56,1.35,3.21,1-2.23-1.22-4.11-2.2-5.93-3.29a3,3,0,0,0-3.16-.07q-4.33,2.3-8.71,4.52a17.4,17.4,0,0,1-3.26,1.5c-2,.55-3.6,2-5.45,2.83a.49.49,0,0,0-.17.81c.58.33,1.05-.11,1.56-.28,2-.67,3.92-1.33,5.87-2a4.15,4.15,0,0,1,2.8-.15c-2.23,1.69-4.87,2.67-7.25,4.11-1.56,1-3.22,1.75-4.84,2.62a6.77,6.77,0,0,1-.85.43c-2,.77-2.75.19-2.41-1.93.46-2.74,1-5.48,1.45-8.21q1.31-7.15,2.65-14.3c.35-1.8-.75-2.84-1.94-3.8a7.15,7.15,0,0,0-1.74-.75,2.64,2.64,0,0,0-1-2.51,8.35,8.35,0,0,0-3.39-2,5.13,5.13,0,0,0-1.59-2.07c-2.42-2.44-4.87-4.85-7.3-7.28-1.74-1.76-1.62-2.38.66-3.43a10.39,10.39,0,0,1,3.69-1c3.91-.22,7.69-1.3,11.58-1.67,1.82-.17,3.62-.68,5.43-.71a5.39,5.39,0,0,0,5.06-3.4c2.21-4.52,4.32-9.09,6.47-13.64.62-1.3,1.24-2.6,1.84-3.91a4.52,4.52,0,0,1,1.17-1.5c1.23-1.06,2.26-.9,3.15.44a50.38,50.38,0,0,1,4,7.64c1.59,3.68,3.65,7.13,5.14,10.83,1.13,2.83,3.15,3.84,5.93,3.91,2,.06,3.91.72,5.93.65A2.83,2.83,0,0,1,256.68,110.8Zm-61,2.8c3.7,1.31,6.26,4,8.87,6.72a12.7,12.7,0,0,0,7,3.41c1.88.37,3.79.45,5.68.67a69.24,69.24,0,0,0,7.59.79h13.67a44.44,44.44,0,0,0,7.08-.94c1.07-.17,1.58-.67,1.53-1.73a2.82,2.82,0,0,1,.8-2.17c1.36-1.45,2.65-3,4-4.45,1.16-1.28,1-2-.68-2.47a22.53,22.53,0,0,0-4-.64c-3.64-.26-6.5-1.34-7.82-5.29a99.17,99.17,0,0,0-6.09-13.26c-.31-.62-.42-1.52-1.28-1.58-1-.08-1.18.91-1.57,1.57-.24.42-.43.86-.64,1.29q-3.27,6.8-6.56,13.59a12.27,12.27,0,0,1-.9,1.68c-.72,1-1.13,1-1.89,0a1.82,1.82,0,0,0-1.81-.86,25.88,25.88,0,0,0-2.62.2c-3.52.62-7,1.26-10.59,1.69A52.05,52.05,0,0,0,195.69,113.6Z" transform="translate(-10.34 -18.65)"/><path class="cls-1" d="M177.65,314.21c.19,0-.14,0-.45,0-5.95.38-11.07-1.83-15.86-5.06-.86-.58-1.8-1-2.67-1.61a17.46,17.46,0,0,1-6.28-6.35c-1-1.91-2.33-3.63-3.44-5.48a16.76,16.76,0,0,1-1.32-2.81c-.61-1.63-.34-2,1.38-2s3.52.11,5.27,0a2.19,2.19,0,0,1,2.24,1.32,27.66,27.66,0,0,0,12.62,11.36A23.53,23.53,0,0,0,185.26,305c11.82-3.08,18.35-11.18,21-22.57,2.11-9.13.57-17.84-5.23-25.44-3.88-5.07-8.78-9-15.11-10.41-8-1.8-15.56-.57-22.18,4.69-3,2.39-3.38,2.23-4.38-1.55-.1-.39-.22-.77-.3-1.16-.66-3,0-4.87,2.68-6.55a33.25,33.25,0,0,1,11.08-4.39,38.33,38.33,0,0,1,12.64-.41,23.61,23.61,0,0,1,5.91,1.91c12,4.87,19.16,13.88,22.26,26.32a37.76,37.76,0,0,1,1.26,11.87c-.65,9-2.92,17.47-8.92,24.56a47.16,47.16,0,0,1-7.87,7C192.13,313.39,185.35,314.52,177.65,314.21Z" transform="translate(-10.34 -18.65)"/><path class="cls-1" d="M376.86,236.78c0-6.16,0-12.31,0-18.47,0-2.44-.44-2.19,2.32-2.57a55.6,55.6,0,0,1,9.57-.44c1.52,0,3,.12,4.55.22a12.87,12.87,0,0,1,8,3.39A8.32,8.32,0,0,1,404,228c-.74,2.46-1.71,4.78-4.26,6.07-1.37.69-1.31,1.79.13,2.44a9,9,0,0,1,5,5.2,13,13,0,0,1,.31,8.48c-1,3.37-3.58,5.59-6.78,7a22.68,22.68,0,0,1-7.69,1.68,68.68,68.68,0,0,1-10.54,0c-3.06-.22-3.38-.62-3.38-3.66q0-9.23,0-18.46Zm8.21,9.18h.1c0,1.44,0,2.87,0,4.31a1.89,1.89,0,0,0,1.78,2.15,10.44,10.44,0,0,0,7.14-1.35,6,6,0,0,0,.15-10.25,9.19,9.19,0,0,0-7.09-1.38c-1.58.27-2.08,1-2.07,2.7C385.08,243.41,385.07,244.69,385.07,246Zm.06-18.61h.1c0,1.28,0,2.56,0,3.83a1.76,1.76,0,0,0,1.8,1.87c2.41,0,4.8-.23,6.82-1.74a4.86,4.86,0,0,0,2-4.84,4.7,4.7,0,0,0-3.31-4,11,11,0,0,0-5.43-.44c-1.43.22-1.91.8-2,2.23C385.09,225.28,385.13,226.32,385.13,227.35Z" transform="translate(-10.34 -18.65)"/><path class="cls-1" d="M177.52,152.82c-1.23,1.18-9,5.41-10.54,5.81-.73.19-1.42.38-2-.18s-.32-1.3,0-2a3.72,3.72,0,0,0,.48-1.84,29.14,29.14,0,0,1,.95-6.83,3.91,3.91,0,0,1,1-2,4.75,4.75,0,0,0-.38-6.23c-2.56-2.76-5.59-5-8.21-7.71-.72-.74-1.47-1.46-2.18-2.22s-1.46-1.45-1.16-2.49a2.89,2.89,0,0,1,2.58-1.87c2.44-.39,4.89-.67,7.33-1,2-.29,4.07-.72,6.13-.88a3.62,3.62,0,0,0,3.15-2.21q3.06-6.11,6.08-12.24a7.48,7.48,0,0,1,.5-1.07c.79-1.09,1.76-1.1,2.47,0a23.45,23.45,0,0,1,2.1,3.75c1.25,3.13,2.9,6.05,4.33,9.08a4.9,4.9,0,0,0,4.76,3,20.57,20.57,0,0,1,6.31,1.2c-.11,1.32.87,2,1.68,2.68a7.18,7.18,0,0,1,2.43,3.66c-1.35,2.32-3.54,3.88-5.26,5.87-1,1.2-2.76,2.06-3.08,3.55s.37,3,.68,4.44c.67,3.28.93,6.63,1.82,9.87a4.3,4.3,0,0,1,.12,1.19c0,.85.25,1.82-.66,2.4s-1.48-.23-2.17-.55c-4.55-2.14-8.73-5-13.47-6.8-.2-.07-.35-.31-.52-.47,0-.53.15-.95.82-.85.49.07,1,.47,1.47.07a3.48,3.48,0,0,0-4.51-1c-2.16,1-4.27,2.07-6.37,3.18-.44.23-1.07.4-1.15,1.1.72.53,1.35.09,2-.19A3,3,0,0,1,177.52,152.82ZM195.28,127a7.32,7.32,0,0,0-2.19-.69c-3.14.16-4.59-1.7-5.44-4.34a4.11,4.11,0,0,0-.15-.46c-1.33-2.9-2.63-5.81-4-8.69-.5-1-1.07-1.08-1.75-.2a9.83,9.83,0,0,0-.82,1.45l-4.29,8.57c-1,2-1,2-3.34,1.75a2.48,2.48,0,0,0-.72,0c-2.74.51-5.52.66-8.26,1-2.22.31-4.55.41-6.85,1.7,1.58,1.11,3.25,1.78,4.35,3.17,2.31,2.94,5.55,3.65,9.05,4.14,2.61.37,5.23.34,7.84.69a47.84,47.84,0,0,0,8.12.05c.78,0,1.9,0,2.14-1.15a4.69,4.69,0,0,1,2.53-3A10.6,10.6,0,0,0,195.28,127Z" transform="translate(-10.34 -18.65)"/><path class="cls-1" d="M263.1,236V217.29a15.55,15.55,0,0,1,0-2.16,2,2,0,0,1,2.08-1.92c1.36,0,2.72-.05,4.08,0,1.89.09,2.2.39,2.22,2.32,0,3.92,0,7.84,0,11.76,0,.48,0,1,0,1.44.1,1.52.69,1.81,1.95.88a13,13,0,0,1,5.35-2.57,8.17,8.17,0,0,1,9.29,4.7,21.31,21.31,0,0,1,1.94,9.08c.15,5.19.05,10.4,0,15.59,0,1.75-.38,2.05-2.16,2.1-1.36,0-2.72.05-4.08,0-1.9,0-2.3-.39-2.32-2.23,0-3.6,0-7.2,0-10.79,0-1.84,0-3.68,0-5.52a8.47,8.47,0,0,0-.35-2.12,4.79,4.79,0,0,0-4.27-3.66,4.86,4.86,0,0,0-4.51,3,8.93,8.93,0,0,0-.8,3.95q0,7.2,0,14.4c0,2.56-.39,2.93-2.89,3-1,0-2.08,0-3.12,0-2.12-.08-2.41-.39-2.42-2.61q0-5.52,0-11Z" transform="translate(-10.34 -18.65)"/><path class="cls-1" d="M362.66,245.74c-2.55,0-5.11,0-7.67,0-1.18,0-1.57.56-1.44,1.64.29,2.45,1.9,3.8,4.06,4.56a15.84,15.84,0,0,0,7.34.44,6.58,6.58,0,0,1,.94-.2c1.06.05,2.36-1.18,3.11,0a8,8,0,0,1,1,4.35,1.65,1.65,0,0,1-1.35,1.51c-5.66,1.79-11.28,2.18-16.75-.64a11.35,11.35,0,0,1-5.62-6.6,20.3,20.3,0,0,1,1.14-16.91c2.95-5.48,8.79-8.18,15.77-6.42a9.8,9.8,0,0,1,6.23,4.91,19,19,0,0,1,2.37,11.07c-.18,2.17-.34,2.27-2.44,2.28s-4.48,0-6.72,0Zm-3.1-6.08h3c1.11,0,1.55-.7,1.6-1.67.16-3.21-3.93-6.1-6.9-4.85a7.29,7.29,0,0,0-3.73,3.53c-1,1.94,0,3.39,2.13,3.13C356.9,239.65,358.16,239.74,359.56,239.66Z" transform="translate(-10.34 -18.65)"/><path class="cls-1" d="M332.55,245.7c-2.4,0-4.8,0-7.2,0-1.54,0-2.1.79-1.78,2.3a4.21,4.21,0,0,0,1.8,2.45c2.8,2.16,6,2.43,9.35,2a7.85,7.85,0,0,1,1.4-.27c1.07,0,2.42-1.15,3.13,0a9.79,9.79,0,0,1,1.1,4.09c.12,1.09-.87,1.58-1.8,2a18.41,18.41,0,0,1-12.44.59c-6.89-1.91-10.55-6.65-10.81-13.78a20.67,20.67,0,0,1,2.91-11.93,12.64,12.64,0,0,1,14-6,11.56,11.56,0,0,1,7.64,5.73A17.78,17.78,0,0,1,342,243.44c-.21,2.14-.36,2.24-2.49,2.25C337.18,245.71,334.86,245.7,332.55,245.7Zm-3.24-6c1.12,0,2.24,0,3.36,0s1.56-.66,1.56-1.7a4.72,4.72,0,0,0-1.6-3.61c-1.44-1.29-3.09-2.08-5-1.26a6.72,6.72,0,0,0-4.23,4.57,1.79,1.79,0,0,0,2.13,2.18A34.69,34.69,0,0,1,329.31,239.67Z" transform="translate(-10.34 -18.65)"/><path class="cls-1" d="M426.89,245.71c-2.31,0-4.63,0-6.95,0-.86,0-1.74-.1-2.23,1a2.28,2.28,0,0,0,.62,2.6,8.48,8.48,0,0,0,6.19,3.19A20.18,20.18,0,0,0,431,252c2-.54,2.81,0,3.2,2,.59,2.94-.77,4.69-3.74,5-3.18.36-6.34.77-9.54.1A14.64,14.64,0,0,1,409.41,246a24.07,24.07,0,0,1,1.87-11c2.61-6.29,8.19-9,15.5-7.73,4.21.75,6.34,3.66,8,7.1a17,17,0,0,1,1.25,9.59c-.14,1.25-.63,1.81-2,1.75-2.39-.1-4.8,0-7.2,0Zm-4.05-6h3.34c1.89,0,2.74-1.14,2.23-2.94a6.09,6.09,0,0,0-5.39-4c-2.33.12-5.1,2.54-5.4,4.71-.23,1.62.5,2.51,2.13,2.34A20,20,0,0,1,422.84,239.72Z" transform="translate(-10.34 -18.65)"/><path class="cls-1" d="M240.93,240.91c0-5,0-9.92,0-14.87,0-2.25-.6-2.87-2.88-2.75-1.84.1-3.67-.21-5.51.07-1.2.19-1.91-.41-2.26-1.62a11.18,11.18,0,0,1,.12-5.21,1.1,1.1,0,0,1,1.17-1l1.68,0h23.51c3.5,0,3.57.08,3.57,3.7,0,.64,0,1.28,0,1.92-.11,1.59-.44,2-2,2-1.76.08-3.52.08-5.27.05-2.81-.07-3.64.64-3.64,3.43,0,9,0,17.92,0,26.87,0,.88.05,1.77,0,2.64-.14,1.63-.8,2.3-2.42,2.39-1.19.06-2.4,0-3.59,0-2.29-.09-2.49-.26-2.5-2.51,0-5,0-10.07,0-15.11Z" transform="translate(-10.34 -18.65)"/><path class="cls-1" d="M233.61,288c0-5.92,0-11.84,0-17.76,0-3.16.59-3.64,3.74-3.9a47.81,47.81,0,0,1,9.79,0c4.55.53,8.25,2.28,9.89,6.76,1.73,4.75,1.24,9.28-2.48,13.08-.61.62-1.33,1.15-2,1.75-.92.84-1.13,1.75-.24,2.44,3,2.34,3.49,5.79,4.32,9.1.63,2.56,1.13,5.15,1.72,7.71.23,1,.8,2-.73,2.55s-3,.28-3.63-.87a6.59,6.59,0,0,1-.64-1.79c-.7-2.87-1.34-5.76-2-8.63-1.47-6.08-4.18-7.9-10.83-7.48-1.4.08-1.55,1-1.65,2.16-.4,4.31-.31,8.62-.33,12.94,0,.4,0,.8,0,1.2-.08,2-.45,2.39-2.14,2.45-1.88.06-2.72-.6-2.74-2.49-.05-6.4,0-12.8,0-19.2Zm4.92-9.19c0,1.86,0,3.38,0,4.9-.07,2.34.45,3.68,3.79,3.72a11.6,11.6,0,0,0,8.46-3.41,7.9,7.9,0,0,0-2-12.72c-2.33-1.19-4.79-1.14-7.27-1-1.77.07-2.14.48-2.6,2.2C238.26,274.62,238.68,276.87,238.53,278.76Z" transform="translate(-10.34 -18.65)"/><path class="cls-1" d="M356.72,305.45a20,20,0,0,1-2.62,2.71,10.9,10.9,0,0,1-16.87-4.31c-2.16-4.9-3-10.11-1.34-15.4,1.21-3.92,3.33-7.27,7-9.31,3.92-2.14,7.69-1.61,11.25.92.39.27.7.67,1.11.91.58.34,1.11.27,1.23-.51a11.75,11.75,0,0,0,.06-1.68c0-3.51,0-7,0-10.55a8.3,8.3,0,0,1,.18-2.38,2.16,2.16,0,0,1,2.37-1.89,2.35,2.35,0,0,1,2.59,2,10.27,10.27,0,0,1,.08,1.67l.06,39.34c0,2.27-.55,2.81-2.58,2.66-1.14-.08-1.79-.59-1.84-1.76A3.27,3.27,0,0,0,356.72,305.45Zm-16.52-11.3a15.29,15.29,0,0,0,1.74,7.73c1.33,2.62,4.68,4.51,7.27,4.2a8.47,8.47,0,0,0,7.38-7.62,36.54,36.54,0,0,0,0-9,8.2,8.2,0,0,0-6-7,7.45,7.45,0,0,0-8.13,3.67A14,14,0,0,0,340.2,294.15Z" transform="translate(-10.34 -18.65)"/><path class="cls-1" d="M451.69,226.87a15.75,15.75,0,0,1,5.64.92,1.9,1.9,0,0,1,1.43,2.18,9.22,9.22,0,0,1-.12,1.19c-.73,2.89-.67,3.69-3.87,2.44a8.06,8.06,0,0,0-3.77-.47,3,3,0,0,0-2.88,2.43c-.22,1.25.19,2,1.68,2.84,1.12.61,2.3,1.12,3.47,1.62a15.21,15.21,0,0,1,4.12,2.41,9.21,9.21,0,0,1-1.72,15.16c-2.85,1.47-5.91,2.43-9.23,1.62-1.66-.41-3.41,0-5.05-.89-2-1.11-2.44-1.79-1.72-4.07.19-.59.42-1.17.61-1.76.45-1.33.66-1.48,1.92-.93A22.92,22.92,0,0,0,446,252.8a8.53,8.53,0,0,0,3.1.14,3.22,3.22,0,0,0,2.8-2.8c.14-1.28-.73-1.92-1.76-2.45a49.54,49.54,0,0,1-6.54-3.59,8.16,8.16,0,0,1-3.62-6.57c-.11-2.78.25-5.32,2.19-7.52a5.43,5.43,0,0,1,2.25-1.63A21.57,21.57,0,0,1,451.69,226.87Z" transform="translate(-10.34 -18.65)"/><path class="cls-1" d="M474.5,222.71c0,.48,0,1,0,1.44.06,2.78.64,3.37,3.37,3.42,2.38,0,2.4.07,2.3,2.43,0,.08,0,.16,0,.24-.1,1.18.58,2.59-.2,3.48s-2.27.28-3.43.42-1.9.55-1.89,1.74c.05,4.14-.54,8.29.22,12.42.5,2.69,1.18,3.42,3.86,3.62,1.32.1,1.75.54,1.35,1.77-.31,1,.17,1.89.22,2.84.11,2-.3,2.6-2.18,3.08-5.6,1.44-10.79-2.26-11.53-8.41-.33-2.77-.27-5.58-.35-8.37-.06-2.24-.12-4.47-.1-6.71,0-1.21-.26-1.91-1.67-2.05-1.86-.17-1.85-.28-1.86-2.22a3.85,3.85,0,0,1,0-.48c.08-.94-.6-1.86-.08-2.81s1.66-.8,2.51-1.17a2.48,2.48,0,0,0,1.43-2.53c.13-4.24.15-4.24,4.2-5.36.47-.13.92-.28,1.37-.43,1.77-.57,2.5-.11,2.61,1.73a17.33,17.33,0,0,1-.08,1.91Z" transform="translate(-10.34 -18.65)"/><path class="cls-1" d="M284.57,298.75c0,2.8,0,5.6,0,8.4,0,1.93-.24,2.25-1.55,2.45-1.67.26-2.25-.07-2.88-1.65-.48-1.22-.79-1.37-1.84-.41A11.78,11.78,0,0,1,273,310.2a8.43,8.43,0,0,1-10.68-8.4,10.43,10.43,0,0,1,6.84-10.23,22.38,22.38,0,0,1,5.35-1.25,23,23,0,0,0,2.59-.44c2-.5,2.63-1.61,2-3.54a5.5,5.5,0,0,0-4.59-4.07,11.16,11.16,0,0,0-7,.87c-1.2.65-1.88.44-2.41-.5a1.94,1.94,0,0,1,.58-2.74c4.21-2.48,12-3.94,16.11,1.67a15.49,15.49,0,0,1,2.67,8.79c.15,2.79,0,5.6,0,8.39Zm-17.32,2.11c0,3.21,2.34,5.82,5.2,5.74,3.1-.1,6.22-2.94,6.86-6,.31-1.54-.09-3,0-4.51.05-1.72-.37-2.18-2.06-2.25a11.55,11.55,0,0,0-7.46,2.12A5.92,5.92,0,0,0,267.25,300.86Z" transform="translate(-10.34 -18.65)"/><path class="cls-1" d="M322,295.17c-2.48,0-5,0-7.43,0-2.29.05-3,1-2.43,3.24,1.49,6.35,6.59,8.3,12.25,7.64a25.07,25.07,0,0,0,2.81-.59c1.88-.43,2.5-.2,2.85,1.11s-.23,2.29-1.88,2.8a19.45,19.45,0,0,1-11.08.55,11.9,11.9,0,0,1-8.79-8,20.36,20.36,0,0,1-.93-3.46c-.74-5.19-.32-10.19,2.6-14.76,3.78-5.91,11.5-7.6,16.94-3.7a9.26,9.26,0,0,1,2.65,3,18.77,18.77,0,0,1,2.57,9.13c0,2.43-.55,3-2.93,3s-4.8,0-7.2,0Zm-2.56-3.87h0c1.75,0,3.51,0,5.27,0,2.14-.06,2.85-1,2.37-3.08a8.88,8.88,0,0,0-1.26-3.09c-1.57-2.25-3.69-3.59-6.49-3.28-3.1.34-6.78,4.08-7.28,7.17-.25,1.58.23,2.23,1.87,2.28C315.72,291.35,317.56,291.3,319.4,291.3Z" transform="translate(-10.34 -18.65)"/><path class="cls-1" d="M192.07,353a17.45,17.45,0,0,0,2.19-5.53c1.18-4.56,3.05-8.91,4-13.56.3-1.56,3.6-2.51,4.77-1.48.56.49.41,1.16.41,1.79q0,6.48,0,13c0,3.2,0,6.39,0,9.59,0,1.09-.08,2.12-1.52,2.28s-2.18-.43-2.22-2.33c-.06-3.35-.05-6.71-.09-10.07,0-1.31-.11-2.63-.17-4.27a2.58,2.58,0,0,0-1.13,1.85c-1.24,4.13-2.44,8.27-3.66,12.41-.07.23-.15.45-.22.68a2.17,2.17,0,0,1-2.32,1.67,2.14,2.14,0,0,1-2.24-1.77c-.77-2.52-1.51-5.05-2.31-7.56a31,31,0,0,0-2.84-7.11c0,.59-.09,1.17-.1,1.75,0,4.16,0,8.32,0,12.47,0,1.69-.47,2.19-1.81,2.22s-1.91-.46-1.92-1.83c0-7.52-.05-15,0-22.55,0-.93-.27-2.15,1.23-2.46,1.89-.4,3.56.09,4.2,1.41a13.45,13.45,0,0,1,.76,2.27C188.68,341.36,190.32,347,192.07,353Z" transform="translate(-10.34 -18.65)"/><path class="cls-1" d="M120.6,186.66c0-4.63,0-9.26,0-13.89,0-2,0-2,2-2,3,0,6.07,0,9.1.08a7.92,7.92,0,0,1,6.9,3.52,8.29,8.29,0,0,1,.45,9.22c-.9,1.67-1,2.84.08,4.28,2.39,3.16,2.13,6.58.63,9.94a7.62,7.62,0,0,1-6.24,4.69c-4,.46-8,0-12,.06-.74,0-1-.41-1-1.06s0-1.12,0-1.67Zm9,1.39v0c-1.2,0-2.39,0-3.59,0a1.94,1.94,0,0,0-2.08,1.9,33.44,33.44,0,0,0,0,6.93,1.78,1.78,0,0,0,1.68,1.75c2.62.15,5.26.59,7.87,0a5.44,5.44,0,0,0,4-5.55,5.24,5.24,0,0,0-4.83-5.06C131.67,188,130.63,188.05,129.59,188.05Zm-.2-13.36v0c-1.12,0-2.25-.06-3.36,0-1.53.11-2,.53-2.12,2a40.29,40.29,0,0,0,0,5.27,2.07,2.07,0,0,0,2.33,2.2,58.86,58.86,0,0,0,6.23-.07,4.74,4.74,0,0,0-.19-9.46C131.31,174.64,130.35,174.69,129.39,174.69Z" transform="translate(-10.34 -18.65)"/><path class="cls-1" d="M206.91,187c0-4.4,0-8.8,0-13.2,0-2.57.4-2.94,2.88-2.95,2.32,0,4.64,0,7,0a15.53,15.53,0,0,1,3.33.38A8,8,0,0,1,226,182.1a8.92,8.92,0,0,0,.33,7.65c3.39,6.36-1.46,11.11-6.12,12.71a6.91,6.91,0,0,1-2.14.11c-3.12,0-6.24-.07-9.36,0-1.25,0-1.66-.38-1.65-1.63.06-4.64,0-9.27,0-13.91Zm9.14,1c-1.24-.1-2.27-.24-3.3-.25-1.58,0-2.48.7-2.6,2.22a27.23,27.23,0,0,0,.18,6.44A2.66,2.66,0,0,0,212.8,199a19.86,19.86,0,0,0,7.37-.34,5.43,5.43,0,0,0,3.8-5.71,5.24,5.24,0,0,0-4.78-4.85A27.63,27.63,0,0,0,216.05,188Zm-.58-3.77v0c1.12,0,2.24.07,3.35,0a4.68,4.68,0,0,0,4.49-4.71A4.63,4.63,0,0,0,219,174.7c-2.31-.15-4.63,0-6.95,0a1.48,1.48,0,0,0-1.66,1.61c0,2.08-.06,4.15-.05,6.23a1.61,1.61,0,0,0,1.83,1.74C213.23,184.27,214.35,184.26,215.47,184.26Z" transform="translate(-10.34 -18.65)"/><path class="cls-1" d="M296.35,242.68q0-5.87,0-11.75c0-3.31.18-3.48,3.58-3.41h.24c2.63.07,2.92.32,3.33,3,.06.39.05.8.13,1.19.13.68.61.74,1,.33a9.74,9.74,0,0,0,1.09-1.57,7,7,0,0,1,5.69-3.5c1.46-.09,1.94.31,2,1.69s.16,2.71.14,4.06c0,1.85-.71,2.59-2.55,2.84-.24,0-.48,0-.72,0-3.38.36-5.1,2.17-5.36,5.61-.33,4.47-.42,8.95-.31,13.43a17.35,17.35,0,0,1,0,1.91,2,2,0,0,1-2,2,36.47,36.47,0,0,1-4.31-.08,1.8,1.8,0,0,1-1.82-1.86c0-.79-.12-1.59-.12-2.39Q296.35,248.44,296.35,242.68Z" transform="translate(-10.34 -18.65)"/><path class="cls-1" d="M273.74,344.49c.82.88,1.58,1.59,2.21,2.4,1.79,2.34,2.38,4.89.9,7.6s-3.44,4.56-6.79,4.46c-2.55-.09-5.11,0-7.67,0s-3.1-.47-3.06-3.27c.05-3.51.1-7,.1-10.54s-.09-6.71-.12-10.07c0-2.49.45-2.95,2.89-2.94s5-.08,7.43,0a7,7,0,0,1,6.77,7.69C276.24,341.26,275.86,341.94,273.74,344.49Zm-6.33,10.77h0c.88,0,1.76,0,2.64,0,2.25-.09,3.37-1.16,3.77-3.54a3.88,3.88,0,0,0-2.52-4.39,17,17,0,0,0-6.63-.67,1.58,1.58,0,0,0-1.65,1.87c.05,1.44-.09,2.88,0,4.32.06,1.87.46,2.91,2.76,2.44A9.42,9.42,0,0,1,267.41,355.26Zm.52-12.13v-.05a12.17,12.17,0,0,0,1.91,0,3.64,3.64,0,0,0,3.1-3.44c.07-1.63-.7-2.65-2.55-3.27a14.8,14.8,0,0,0-5.4-.81,1.89,1.89,0,0,0-1.93,1.13c-1.37,3.69-.1,6.21,3.68,6.44C267.13,343.15,267.53,343.13,267.93,343.13Z" transform="translate(-10.34 -18.65)"/><path class="cls-1" d="M309.05,340.47c-.76.72-.44,1.57-.44,2.32,0,4.64,0,9.27,0,13.91,0,.88.06,1.8-1.05,2.16A1.79,1.79,0,0,1,305,357c0-5.27,0-10.55,0-15.82,0-2.16,0-4.32,0-6.48,0-.86-.41-1.78.58-2.37a3.58,3.58,0,0,1,3.39.44,6.56,6.56,0,0,1,1.39,1.94q3.88,6.75,7.78,13.5a5,5,0,0,0,1.53,2.08c.75-.49.46-1.18.46-1.75,0-4.72,0-9.44,0-14.16,0-1.8.37-2.24,1.69-2.28s1.95.43,2,1.78c.07,1.92,0,3.84,0,5.76,0,5.44,0,10.88,0,16.31,0,1,.58,2.36-1,2.87s-2.74-.16-3.73-1.82c-2.58-4.33-5.13-8.66-7.73-13A15.23,15.23,0,0,0,309.05,340.47Z" transform="translate(-10.34 -18.65)"/><path class="cls-1" d="M231,347.16c3.49,3.18,5.07,7.23,7.17,11-3,1.37-3.7,1.18-5.25-1.5-1.24-2.14-2.51-4.26-3.69-6.43a6,6,0,0,0-4.12-3c-2.32-.55-3.78.37-4,2.79s0,4.63-.1,6.94c0,1.52-.64,2.06-2,2a1.53,1.53,0,0,1-1.67-1.63c0-1.19,0-2.39,0-3.59q0-9.46,0-18.92c0-2.6.06-2.65,2.72-2.65,3.19,0,6.38,0,9.57,0,3.68.09,5.6,1.53,6.61,4.76a7.2,7.2,0,0,1-2.66,8.5C232.86,346,232,346.48,231,347.16Zm-5.21-3.4a20.31,20.31,0,0,0,4-.23c2.06-.5,3-2,2.83-4.34s-1.23-3.34-3.49-3.41c-2-.06-4,0-6,.08-1.53.09-2,.54-2.1,2.06a22,22,0,0,0-.07,3.81c.11,1.51.63,1.94,2.12,2C224,343.8,224.92,343.76,225.8,343.76Z" transform="translate(-10.34 -18.65)"/><path class="cls-1" d="M487.1,344.58a18.77,18.77,0,0,1-2,8.88c-1.27,2.4-1.27,2.44,1,3.94a1.94,1.94,0,0,1,.91,2.45c-.42,1.28-1.34,1.61-2.32.68-2.17-2.06-4.38-2.28-7.24-1.29-3.36,1.16-6.5-.22-9-2.57-3.58-3.37-4.54-7.79-4.22-12.51a16.14,16.14,0,0,1,2.71-8.09,9.77,9.77,0,0,1,9.52-4.45c3.28.4,6.57,1.83,8.24,5.35C486,339.73,487.22,342.48,487.1,344.58Zm-10,11c0-.89-.66-.87-1-1.19A1.54,1.54,0,0,1,476,352a1.39,1.39,0,0,1,2.11-.2c.39.28.76.6,1.17.84,1.28.75,1.93.65,2.5-.65,2-4.57,2.27-9.18-.46-13.54a6.75,6.75,0,0,0-11.93.56,14.76,14.76,0,0,0-.36,12.54,6.22,6.22,0,0,0,5.56,4C475.39,355.62,476.19,355.55,477.09,355.55Z" transform="translate(-10.34 -18.65)"/><path class="cls-1" d="M390.74,346.94c1.43,1.9,2.78,3.57,3.89,5.4a42.5,42.5,0,0,1,2.67,5.09c.47,1.1.27,1.38-.91,1.51a4,4,0,0,1-4.09-2.36c-1.26-2.22-2.44-4.49-3.74-6.7-1.48-2.53-3.37-3.23-6.06-2.56a1.86,1.86,0,0,0-1.64,2.2c.11,2.39.14,4.79.18,7.19,0,1.72-.37,2.22-1.69,2.29s-2-.5-2-2.29c0-5,0-10.07,0-15.11,0-2.32,0-4.64,0-7s.38-2.52,2.51-2.53c3.12,0,6.24,0,9.36,0a7.31,7.31,0,0,1,7,5.2c.84,2.71-.74,6.79-3.28,8.41C392.33,346.14,391.68,346.44,390.74,346.94Zm-5.58-3.25c1.59,0,3.28.16,4.88-.47a3.93,3.93,0,0,0,2.47-4.39,3.32,3.32,0,0,0-3.21-3,35.19,35.19,0,0,0-6.41,0,1.81,1.81,0,0,0-1.84,1.82c-.06.63-.05,1.27-.06,1.9C381,344.57,380.87,343.51,385.16,343.69Z" transform="translate(-10.34 -18.65)"/><path class="cls-1" d="M333.37,340.25c-.61,1.07-.4,2.28-.4,3.45,0,4.23,0,8.47,0,12.71,0,.4,0,.8,0,1.2-.06.89-.61,1.25-1.43,1.3s-1.44-.27-1.55-1.14a17.26,17.26,0,0,1-.08-2.16c0-7.2,0-14.39,0-21.59,0-.76-.07-1.52.82-1.76a2.52,2.52,0,0,1,2.7.4,9.12,9.12,0,0,1,1.05,1.59c2.94,4.95,5.85,9.91,8.8,14.86.38.63.62,1.44,1.59,1.84a5.11,5.11,0,0,0,.24-2.41c0-4.72,0-9.44,0-14.16,0-1.73.45-2.23,1.77-2.28s1.92.46,1.93,2.06c0,4.64,0,9.28,0,13.92q0,4.2,0,8.4c0,.82.4,1.8-.75,2.27a3.45,3.45,0,0,1-3.56-.62,11.6,11.6,0,0,1-1-1.61l-9-15.29C334.2,340.85,334.07,340.33,333.37,340.25Z" transform="translate(-10.34 -18.65)"/><path class="cls-1" d="M140,332h2.63a9.27,9.27,0,0,1,9,5.63,16.62,16.62,0,0,1,1.52,7.43,37,37,0,0,1-.9,7.36c-.69,3.34-4.44,6.31-8.3,6.53a74,74,0,0,1-7.88-.06,2.64,2.64,0,0,1-2.24-1.86,6.3,6.3,0,0,1-.38-2.11c0-6.78-.06-13.56,0-20.35,0-2.09.39-2.36,2.53-2.5.71,0,1.43,0,2.15,0H140Zm-2.89,13.51c0,2.47,0,4.95,0,7.43,0,2,.17,2.14,2.21,2.22,1.12,0,2.24,0,3.35,0a6,6,0,0,0,6.33-5.37,23.13,23.13,0,0,0-.34-9.51,5.47,5.47,0,0,0-4.12-4.25,13.89,13.89,0,0,0-5.22-.37c-2,.27-2.18.47-2.21,2.4C137.08,340.6,137.11,343.07,137.11,345.55Z" transform="translate(-10.34 -18.65)"/><path class="cls-1" d="M354.21,345.45c0-3.59,0-7.19,0-10.79,0-2.15.39-2.55,2.49-2.55q6.46,0,12.94,0c1.7,0,2.12.32,2.26,1.51.17,1.5-.37,2.17-2.07,2.2-2.8.06-5.59,0-8.39,0-.48,0-1-.07-1.44,0-1.62.12-2.07.6-2.11,2.26,0,.88,0,1.75,0,2.63,0,1.87.53,2.43,2.42,2.45,2.8,0,5.6,0,8.39,0,1.1,0,1.88.3,2,1.52s-.46,2.07-1.91,2.11c-2.24.07-4.48,0-6.72,0-4.18,0-4.18,0-4.23,4.24-.05,3.77.33,4.18,4,4.23,2.88,0,5.75,0,8.63,0,1.54,0,1.93.43,2,1.77s-.39,1.89-1.8,1.92c-1.92,0-3.84,0-5.76,0-2.56,0-5.11,0-7.67,0-2.91,0-3-.11-3-2.93,0-3.51,0-7,0-10.55Z" transform="translate(-10.34 -18.65)"/><path class="cls-1" d="M292.66,294c0-2.72,0-5.43,0-8.15,0-2.24-.34-2.57-2.54-3-1.62-.34-2.19-.85-2.16-2s.79-1.78,1.91-2.11c2.79-.84,2.78-.87,2.8-3.77,0-.64,0-1.28,0-1.92a2.6,2.6,0,0,1,2.06-2.6c1.4-.44,2.16,0,2.33,1.46.15,1.27.26,2.54.38,3.81.19,2.06.6,2.47,2.58,2.7,1,.11,2.05.3,3.08.4,1.2.12,1.63.81,1.64,1.94a1.76,1.76,0,0,1-1.56,2,26.46,26.46,0,0,1-3.32.44c-1.64.11-2,.51-2.43,2.09a6.51,6.51,0,0,0-.16,3.31c.46,1.75-.24,3.47-.24,5.23,0,2.65.37,5.25.52,7.88s1.48,3.82,4.34,4.05c1.8.15,2.23.47,2.37,1.75.19,1.65-.23,2.27-1.91,2.77-4.85,1.47-9.3-1.88-9.63-7.41-.18-2.94,0-5.91,0-8.87Z" transform="translate(-10.34 -18.65)"/><path class="cls-1" d="M451.81,359.55c-6.58.11-9.19-3.63-10.16-7.75-.15-.63-.54-1.51.37-1.89a2.21,2.21,0,0,1,2.47.37,8.41,8.41,0,0,1,1.35,2.24,6.47,6.47,0,0,0,8.68,2.68,3.85,3.85,0,0,0,2.39-3.81,3.42,3.42,0,0,0-2.75-3.22c-2.2-.7-4.42-1.38-6.6-2.15-4.32-1.53-6.32-5.22-4.88-9.52a6.39,6.39,0,0,1,3.71-4.1,10.72,10.72,0,0,1,11.07,1.52c1.67,1.3,1.75,3.33,2.29,5.13.18.57-.33.81-.82,1-1.62.52-2.32.18-3.41-1.65-1.82-3.07-4.76-3.91-7.73-2.24a2.83,2.83,0,0,0-1.59,2.71,2.75,2.75,0,0,0,1.64,2.91c1.18.48,2.39.9,3.61,1.29s2.47.66,3.66,1.11c3.69,1.41,5.93,4.62,5.55,7.81a8.82,8.82,0,0,1-7.61,7.53C452.5,359.55,451.93,359.54,451.81,359.55Z" transform="translate(-10.34 -18.65)"/><path class="cls-1" d="M456.12,187.13c-.3,3.53.12,6.61-1.18,9.49a16.37,16.37,0,0,1-1.94,3.56,7.69,7.69,0,0,1-11.09,1.19,10.27,10.27,0,0,1-3.61-6.06,40.21,40.21,0,0,1,0-15.95,10.14,10.14,0,0,1,4.12-6.52,8,8,0,0,1,9.73.77,11.61,11.61,0,0,1,3.67,8.07C456,183.67,456,185.67,456.12,187.13Zm-15.05.65a28.24,28.24,0,0,0,.44,6.15,12.26,12.26,0,0,0,.63,2.06c1,2.39,2.73,3.63,4.9,3.53,2.37-.09,4-1.42,4.73-4a28.84,28.84,0,0,0,1.09-10.2,24.77,24.77,0,0,0-1.33-6.81,4.84,4.84,0,0,0-8.75-.78,10,10,0,0,0-1.33,3.57A38.66,38.66,0,0,0,441.07,187.78Z" transform="translate(-10.34 -18.65)"/><path class="cls-1" d="M420,345.16c0-3.28,0-6.55,0-9.83,0-2.47.64-3.14,3.14-3.19,4-.08,8,0,12,0a1.76,1.76,0,0,1,1.89,1.95,1.7,1.7,0,0,1-1.9,1.67c-2.64,0-5.27,0-7.91,0a19.3,19.3,0,0,0-2.15.06,1.69,1.69,0,0,0-1.57,2,24.7,24.7,0,0,1,.17,3.32c0,1.6.34,1.94,2,2,2.39.05,4.79,0,7.19,0,.56,0,1.12,0,1.68,0,1.27.1,1.82.63,1.83,1.72a1.61,1.61,0,0,1-1.79,1.77c-1.91.07-3.83,0-5.75,0-1.11,0-2.23.12-3.34.25a2.18,2.18,0,0,0-2,2.22,30,30,0,0,0,.25,5c.07,1.07,1,1.09,1.81,1.09l7.43-.07c1,0,2.08,0,3.12,0s1.6.68,1.6,1.92c0,1-.44,1.78-1.5,1.78-4.47,0-9,.4-13.41-.2-2.12-.29-2.7-1-2.76-3.48-.09-3.36,0-6.71,0-10.07Z" transform="translate(-10.34 -18.65)"/><path class="cls-1" d="M128.36,359c-1.73,0-2.51-.47-3.09-2.3-.28-.87-.49-1.76-.84-2.62-.88-2.18-1.94-3-4.19-3-1.36,0-2.72.06-4.07.08a2.15,2.15,0,0,0-2.24,1.76c-.36,1.31-.81,2.59-1.19,3.89a2.8,2.8,0,0,1-2,2.2c-1.79.48-2.54-.25-2.09-2a28.34,28.34,0,0,1,.78-2.77c2.31-6.24,4.25-12.6,6.24-18.93.8-2.54,1.81-3.29,3.93-3.27a1.66,1.66,0,0,1,1.89,1.41c.88,4.08,2.77,7.82,4.11,11.74,1.18,3.46,2.34,6.95,3.73,10.33a11.48,11.48,0,0,1,.57,1.58C130.33,358.67,130.11,358.93,128.36,359Zm-9-21.22-.52,0a41.8,41.8,0,0,0-2.56,8.09c-.22,1,.35,1.68,1.47,1.68a10.67,10.67,0,0,0,4.6-.75C121.35,343.72,120.36,340.73,119.37,337.74Z" transform="translate(-10.34 -18.65)"/><path class="cls-1" d="M175.73,359a2.3,2.3,0,0,1-2.66-1.88,39.68,39.68,0,0,1-1.28-4.1,2.18,2.18,0,0,0-2.07-1.91,27.67,27.67,0,0,0-7.16.15c-.87.1-1.21.63-1.39,1.4-.28,1.24-.62,2.47-.91,3.71a4.27,4.27,0,0,1-.77,1.74c-.65.83-2.57,1.34-3.26.78-.84-.69-.43-1.66-.17-2.44.94-2.79,2-5.54,3-8.33s1.83-5.62,2.6-8.46c.53-2,1.45-3.81,2.1-5.75.49-1.48,1.44-1.9,3-1.89s2.06.91,2.48,2.15c2.5,7.4,5,14.78,7.84,22.08a5.35,5.35,0,0,1,.24.67C177.71,358.52,177.35,359,175.73,359Zm-9.09-21.3-.46,0c-.84,2.54-1.74,5.06-2.5,7.62-.46,1.53-.05,2,1.6,2.1a23.78,23.78,0,0,0,2.39,0c1.59-.05,2-.57,1.57-2.08C168.44,342.77,167.51,340.25,166.64,337.71Z" transform="translate(-10.34 -18.65)"/><path class="cls-1" d="M281.89,358.93c-1.55,0-2-.56-1.49-2.14.84-2.66,1.77-5.3,2.65-8,1.61-4.84,3.19-9.7,4.82-14.53.67-2,1.32-2.35,3.12-2.2,1.35.12,1.88.95,2.28,2.1,1.86,5.26,3.76,10.51,5.66,15.76.86,2.4,1.77,4.79,2.62,7.2.47,1.33.2,1.67-1.22,1.75a2.75,2.75,0,0,1-3.09-2.1,29.1,29.1,0,0,1-.74-3.26,2.81,2.81,0,0,0-2.53-2.45,21.36,21.36,0,0,0-6.91.08,1.93,1.93,0,0,0-1.71,1.71c-.32,1.4-.62,2.8-1,4.18A2.18,2.18,0,0,1,281.89,358.93Zm8.88-21.87c-.29.35-.41.44-.46.57-.46,1.35-.93,2.7-1.35,4.06a35.05,35.05,0,0,0-1.12,3.88c-.26,1.32.11,1.78,1.43,1.87a24.53,24.53,0,0,0,3.32,0c.86-.06,1.37-.58,1.1-1.45C292.77,343,291.78,340.12,290.77,337.06Z" transform="translate(-10.34 -18.65)"/><path class="cls-1" d="M425.63,203.1c-2.16,0-4.32.06-6.47,0-1.61-.05-1.62-.21-1.72-1.87-.28-4.87,1.79-8.78,4.9-12.28a5.31,5.31,0,0,1,1.37-.92,20.21,20.21,0,0,0,4.64-3.75,6.48,6.48,0,0,0,1.7-3.11,4.56,4.56,0,0,0-6.94-5,21.46,21.46,0,0,0-1.69,1.33c-1.2.89-2.12.85-3-.07s-.7-1.45.39-2.65a8.67,8.67,0,0,1,6.74-3.1,7.4,7.4,0,0,1,7.86,7.05,9.9,9.9,0,0,1-2.82,8.33,43.15,43.15,0,0,1-4.55,3.88,13,13,0,0,0-4.31,5.35c-1,2.4-.54,3.11,2,3.14,2.07,0,4.15,0,6.22-.13a5.18,5.18,0,0,1,2.35.3,2.54,2.54,0,0,1,1.06,3.08c-.3.53-.81.42-1.27.42h-6.46Z" transform="translate(-10.34 -18.65)"/><path class="cls-1" d="M145,191.93c0-3.05.19-6,1.82-8.76A8.44,8.44,0,0,1,158.54,180a5.82,5.82,0,0,1,1.2,9.07,7.81,7.81,0,0,1-5.07,2.43c-1.2.09-2.4.05-3.59.11-2.08.11-2.53.78-2,2.74,1,3.33,4.71,5.74,8.51,2.82,1.68-1.28,2.48-1.32,3.3-.38s.56,1.81-.94,3.24a8.27,8.27,0,0,1-3.2,2c-2.76.83-5.29.76-7.53-1.46-1.29-1.3-2.23-2.89-3.64-4.08a2.5,2.5,0,0,1-.59-2C145.05,193.69,145,192.81,145,191.93Zm7-4a10,10,0,0,0,3.89-.47,2.57,2.57,0,0,0,1.88-2.48c0-1.26-.88-1.77-1.89-2.15-2.17-.8-4.39.11-6.12,2.48-.48.65-.95,1.34-.51,2.16s1.25.48,1.94.46Z" transform="translate(-10.34 -18.65)"/><path class="cls-1" d="M308,191.58l-.24,0c-1.11-.1-2.32-.37-3,.9a2.89,2.89,0,0,0,.67,3.31,12.58,12.58,0,0,0,1.83,1.89,4.16,4.16,0,0,0,5.5.16c.45-.33.82-.77,1.26-1.11,1.09-.88,1.71-.87,2.47,0a1.77,1.77,0,0,1,0,2.75c-4.86,4.7-9.58,3.69-12.9-.29-4.23-5-3.49-14.06,1.45-18.34a7.54,7.54,0,0,1,9.51-.57,5.77,5.77,0,0,1,.24,9.45A9.9,9.9,0,0,1,308,191.58Zm-3.3-3.76c2.14,0,4,0,5.91,0a3.62,3.62,0,0,0,2-.77,2.32,2.32,0,0,0-.31-4.09,4.57,4.57,0,0,0-5.31.84A8.62,8.62,0,0,0,304.66,187.82Z" transform="translate(-10.34 -18.65)"/><path class="cls-1" d="M388.33,191.15a12.51,12.51,0,0,1-3.75,9.52,8.18,8.18,0,0,1-11.41.1c-5.21-4.85-4.82-15.08.75-19.52,2.92-2.33,6.23-2.54,9.27-.33C387.05,183.72,388.24,186.48,388.33,191.15Zm-15.51-.51a9.4,9.4,0,0,0,2,6.64c2.33,2.89,5.79,2.93,8.23.12a9.82,9.82,0,0,0-.1-12.37,5,5,0,0,0-8.08.2A9.71,9.71,0,0,0,372.82,190.64Z" transform="translate(-10.34 -18.65)"/><path class="cls-1" d="M280.58,193.84c0-2.16,0-4.31,0-6.46a10,10,0,0,1,.33-2.37A8,8,0,0,1,289,178.9c3.41.26,6.36,3.27,6.95,7.2a56,56,0,0,1,.37,10.28c-.05,1.51,0,3-.11,4.55-.09,1.28-.57,1.6-1.87,1.6-1.14,0-1.58-.61-1.58-1.64,0-3.91,0-7.83,0-11.74a9.48,9.48,0,0,0-.48-3.54,4.13,4.13,0,0,0-7.84-.32,7.91,7.91,0,0,0-.67,3.49c0,3.91-.06,7.83-.11,11.74,0,.78.15,1.66-.92,1.95-1.29.36-2.15-.23-2.18-1.68-.07-2.32,0-4.63,0-6.95Z" transform="translate(-10.34 -18.65)"/><path class="cls-1" d="M328.46,203.11a8.39,8.39,0,0,1-6.84-2.85c-1.18-1.35-1.23-2-.3-2.86s1.59-.89,2.83.33a5.87,5.87,0,0,0,6.19,1.39,3.1,3.1,0,0,0,2.28-2.24,2.32,2.32,0,0,0-1.48-3.1c-1.09-.49-2.26-.8-3.38-1.2a30,30,0,0,1-3.12-1.2,5.91,5.91,0,0,1-3.56-6.21,6.27,6.27,0,0,1,5-5.48,8.61,8.61,0,0,1,8.65,3.4,1.44,1.44,0,0,1-.22,2.12c-.72.61-1.48,1-2.34.27-.48-.42-.89-.93-1.38-1.33a4.36,4.36,0,0,0-4.52-.6,2.54,2.54,0,0,0-1.7,2.4,2.2,2.2,0,0,0,1.5,2.23c1,.43,2.1.75,3.15,1.11s1.85.54,2.72.92c2.89,1.23,4.37,3.36,4.27,6a6.75,6.75,0,0,1-4.69,6.32A9.67,9.67,0,0,1,328.46,203.11Z" transform="translate(-10.34 -18.65)"/><path class="cls-1" d="M347.62,203.12c-3.34,0-5.69-1-7.44-3.23a1.76,1.76,0,0,1,.62-3c.91-.47,1.51,0,2.08.64a5.75,5.75,0,0,0,6.14,1.6,3.53,3.53,0,0,0,1.82-1.09,2.54,2.54,0,0,0-.87-4.31c-.86-.4-1.81-.63-2.71-1-1.2-.44-2.43-.82-3.58-1.37-2.89-1.37-4.16-3.7-3.66-6.56a6.44,6.44,0,0,1,5.89-5.41c3.26-.29,5.69,1.2,7.68,3.63a1.32,1.32,0,0,1-.19,2.08c-.71.6-1.46,1.07-2.34.35-.43-.35-.76-.83-1.17-1.2a4.36,4.36,0,0,0-4.26-1,2.61,2.61,0,0,0-2.17,2.28,2.34,2.34,0,0,0,1.63,2.62c.81.34,1.66.58,2.49.85a25.46,25.46,0,0,1,4.05,1.47c5,2.61,3.89,8.8.66,11A8.63,8.63,0,0,1,347.62,203.12Z" transform="translate(-10.34 -18.65)"/><path class="cls-1" d="M260.18,202.54c-3.4,0-5.68-1-7.44-3.06-1-1.18-1-1.87-.14-2.7s1.6-.88,2.65.18a5.93,5.93,0,0,0,5.69,1.71,4,4,0,0,0,2.13-1,2.66,2.66,0,0,0-.7-4.51c-1.08-.49-2.26-.77-3.38-1.18a29.3,29.3,0,0,1-3.33-1.34,5.67,5.67,0,0,1-3.27-6.1,6,6,0,0,1,4.28-5.25,8.46,8.46,0,0,1,9.33,3.22,1.42,1.42,0,0,1-.26,2.11c-.71.59-1.45,1.08-2.32.29-.47-.42-.88-.93-1.37-1.33a4.32,4.32,0,0,0-4.52-.6,2.54,2.54,0,0,0-1.74,2.37,2.25,2.25,0,0,0,1.5,2.24c.95.41,1.95.7,2.93,1s2.29.71,3.37,1.2a5.73,5.73,0,0,1,3.79,5.57,6.45,6.45,0,0,1-3.73,6.19A8,8,0,0,1,260.18,202.54Z" transform="translate(-10.34 -18.65)"/><path class="cls-1" d="M172.18,202.55a8.55,8.55,0,0,1-7-2.94c-1-1.09-1-2-.31-2.75s1.77-1,2.86.15a5.9,5.9,0,0,0,6.19,1.47,3.22,3.22,0,0,0,2.49-2.9c.07-1.24-.57-2-2.31-2.67-1.57-.58-3.2-1-4.75-1.63-4.11-1.62-5.65-4.88-4.14-8.56,1.3-3.19,5.37-4.74,8.94-3.43a9.84,9.84,0,0,1,4.18,3.11,1.4,1.4,0,0,1,0,2.12c-.86.86-1.66,1-2.52.32-.43-.34-.78-.79-1.21-1.15a4.46,4.46,0,0,0-4.52-.75,2.47,2.47,0,0,0-1.75,2.34,2.12,2.12,0,0,0,1.43,2.27c1.7.67,3.46,1.23,5.2,1.8a6.65,6.65,0,0,1-.79,13C173.35,202.49,172.55,202.52,172.18,202.55Z" transform="translate(-10.34 -18.65)"/><path class="cls-1" d="M234.55,187.53c0,2,0,4,0,6a5.58,5.58,0,0,0,.84,2.95,3.86,3.86,0,0,0,4.12,2.24,4.26,4.26,0,0,0,3.76-3.52,42,42,0,0,0,.33-5.5c0-2.95,0-5.91,0-8.87,0-1.57.39-2,1.69-2s1.76.48,1.77,2c0,4.07.08,8.15,0,12.23a11.23,11.23,0,0,1-2.18,6.5,7,7,0,0,1-11.89-.5,10.73,10.73,0,0,1-1.62-5.46c-.07-4.24,0-8.48-.06-12.72,0-1,.16-1.93,1.5-2s1.76.4,1.8,1.93c0,2.24,0,4.48,0,6.72Z" transform="translate(-10.34 -18.65)"/><path class="cls-1" d="M183.75,184.39V173.61a9.76,9.76,0,0,1,0-1.43,1.46,1.46,0,0,1,1.72-1.28c.91,0,1.56.42,1.57,1.42,0,1.52,0,3,0,4.55,0,1.93.46,2.34,2.42,2.39a7.61,7.61,0,0,1,1.66.08,2.33,2.33,0,0,1,1.11,3.33.94.94,0,0,1-.86.29c-.64,0-1.28-.11-1.91-.07-1.59.08-2.39.78-2.42,2.36-.05,2.79-.07,5.59.08,8.38a5.21,5.21,0,0,0,3.72,5.05c.61.2,1.27.33,1.54,1a2.87,2.87,0,0,1-.21,2.55c-.38.63-1.31.37-2,.2-3.1-.73-4.76-3.12-6.28-5.6-.29-.48-.11-1.26-.11-1.9,0-3.51,0-7,0-10.54Z" transform="translate(-10.34 -18.65)"/><path class="cls-1" d="M393.71,190.36c0-3.51-.1-7,0-10.54.14-3.36,1.48-6.09,4.73-7.61a9.47,9.47,0,0,1,3-.64,1.53,1.53,0,0,1,1.88,1.6c.08,1-.09,1.93-1.38,2.09a9.87,9.87,0,0,0-3.29,1.31,1.73,1.73,0,0,0-.9,2c.17,1,1,.86,1.7.83a7.58,7.58,0,0,1,1.43,0,1.76,1.76,0,0,1,1.53,1.84,1.74,1.74,0,0,1-1.69,1.89c-3.73.36-3.78.41-3.8,4.07,0,4.8-.08,9.59-.05,14.39,0,1.11-.31,1.54-1.49,1.54s-1.51-.41-1.49-1.53c.05-3.76,0-7.51,0-11.27Z" transform="translate(-10.34 -18.65)"/><path class="cls-1" d="M166.88,227.58a11.94,11.94,0,0,1,.39-1.35c1-2.31.15-4.18-1.43-5.87a10.71,10.71,0,0,1-1.89-2.14c-.65-1.21-.39-1.77,1-1.84,3.65-.17,6-1.92,6.8-5.53a2.24,2.24,0,0,1,.25-.65c.62-1,1.32-1.07,1.92,0a27.94,27.94,0,0,1,1.28,2.57,4.71,4.71,0,0,0,4.85,3.17,3.75,3.75,0,0,1,1.41.17c1.32.45,1.58,1.49.68,2.59a7.57,7.57,0,0,1-1.34,1.37c-2.21,1.55-2.26,3.68-1.65,6a7.28,7.28,0,0,1,.29,2.36c-.09,1.42-.62,1.71-1.8,1-.89-.54-1.7-1.2-2.6-1.69-2.13-1.18-3.11-1-4.9.59a5.91,5.91,0,0,1-1.1.91C167.76,229.87,166.84,229.28,166.88,227.58Zm6.52-16.08a1.76,1.76,0,0,0-1.23,1.34c-.89,2.61-2.44,4.4-5.4,4.66-.87.07-.93.85-.49,1.44a4.54,4.54,0,0,0,2.11,1.5,14.08,14.08,0,0,0,9.35.07,4.65,4.65,0,0,0,1.79-1.16c1.11-1.11,1-1.63-.53-2a5.82,5.82,0,0,1-4.68-4.23A3.23,3.23,0,0,0,173.4,211.5Z" transform="translate(-10.34 -18.65)"/><path class="cls-1" d="M466.12,187.38c0,4.64,0,9.27,0,13.9a2,2,0,0,1-3.06,1.64c-.67-.42-.47-1.13-.47-1.74,0-6.16,0-12.31.05-18.47,0-.56,0-1.12,0-1.68-.06-1.94-.06-1.94-2-2.66-1.46-.54-1.83-1.26-1-2.51a15.36,15.36,0,0,1,2.95-3.68,3.74,3.74,0,0,1,1.67-.77c1.32-.29,2,.21,2,1.58s0,3,0,4.56v9.83Z" transform="translate(-10.34 -18.65)"/><path class="cls-1" d="M147.7,227.85a.65.65,0,0,1,0-.24c1.24-3,0-5.13-2.25-7.07-1.07-.9-.64-1.9.72-2.18.39-.08.8,0,1.2-.09,2.08-.29,3.86-.89,4.18-3.41a1.8,1.8,0,0,1,1.7-1.74c.93,0,1.42.71,1.62,1.51.61,2.4,2.45,3.18,4.58,3.64a9.09,9.09,0,0,1,1.4.24c.8.31.93,1,.35,1.71a4.24,4.24,0,0,1-.55.47c-2.2,1.83-2.72,4.2-2.22,6.9a5.3,5.3,0,0,1,.23,1.16c0,.66-.42,1.08-1.08.95a3,3,0,0,1-1.75-.7c-1.55-1.7-3.23-1.27-5-.37-.35.18-.64.48-1,.63C148.5,229.84,147.68,229.3,147.7,227.85Zm5.57-5.25c.46,0,.94,0,1.42,0a7.17,7.17,0,0,0,4.07-1.8c.48-.4.67-1.16-.08-1.29a6,6,0,0,1-4.33-3.36,1,1,0,0,0-1.63-.13,4.34,4.34,0,0,0-.93,1.08c-.56,1.12-1.19,2-2.66,2a1.21,1.21,0,0,0-1.29,1.17,1.52,1.52,0,0,0,1,1.46A8.06,8.06,0,0,0,153.27,222.6Z" transform="translate(-10.34 -18.65)"/><path class="cls-1" d="M187.56,226.91a5.35,5.35,0,0,1,.13-1.37,2.7,2.7,0,0,0-.77-2.84c-.77-.91-1.55-1.82-2.26-2.78-.54-.71-.51-1.33.51-1.6s1.83-.54,2.76-.78a4.83,4.83,0,0,0,3.5-3,7.29,7.29,0,0,1,.64-1.28c.41-.61.89-.65,1.31,0a5.71,5.71,0,0,1,.44.85,7.11,7.11,0,0,0,4.27,4c.37.14.76.24,1.12.4,2,.82,2.15,1.43.39,2.66s-2.14,3.06-1.89,5.06c.06.55.32,1.08.35,1.63a1.31,1.31,0,0,1-2,1.37,5.1,5.1,0,0,1-.78-.56c-2.21-1.56-2.63-1.58-4.92-.13-.72.45-1.39,1.3-2.34.67S187.65,227.73,187.56,226.91Zm5.32-4.32a7.7,7.7,0,0,0,4.16-.9,1.46,1.46,0,0,0,1-1.45c0-.76-.59-.82-1.16-.93a3.64,3.64,0,0,1-2.46-2.06c-1.3-2.32-2.07-2.32-3.38-.08-.58,1-1.17,1.92-2.4,2.15-.56.1-1.2.14-1.32.8s.47,1.17,1,1.52A7.08,7.08,0,0,0,192.88,222.59Z" transform="translate(-10.34 -18.65)"/><path class="cls-1" d="M211.09,217.4a10.13,10.13,0,0,0,4.31,2.48c1.1.26,1.28.8.65,1.73a8.65,8.65,0,0,0-1.65,3.15,5.45,5.45,0,0,0-.11,3.05c.2.56.46,1.36-.21,1.75s-1.18-.26-1.71-.59c-.34-.21-.65-.48-1-.66a2.94,2.94,0,0,0-3.56.29,6.09,6.09,0,0,1-.55.46c-.59.37-1.18,1-1.93.46s-.37-1.32-.11-2c.86-2.15.24-3.78-1.45-5.31-1.45-1.3-1.21-2,.67-2.48a6.94,6.94,0,0,0,4.37-3.46c.3-.51.42-1.4,1.3-1.09s.33,1.13.5,1.7h0c-2.08.24-2.13,2.32-3.13,3.54-.29.36.11.76.56.77,1.11.05,2.22.09,3.32,0s1.32-.46.63-1.28a3.36,3.36,0,0,1-.89-2.59Z" transform="translate(-10.34 -18.65)"/><path class="cls-1" d="M131.91,226.24a4,4,0,0,0-2.08-4.19c-1.17-.72-.92-2,.37-2.53a3.09,3.09,0,0,1,1.17-.19,3.33,3.33,0,0,0,3.31-2.27,2.14,2.14,0,0,1,.1-.22c.43-.73.62-1.8,1.7-1.8s1.09,1.2,1.46,1.93c.69,1.35,1.55,2.41,3.26,2.37a3.94,3.94,0,0,1,1.17.2c.84.26,1.21.69.58,1.56a11.79,11.79,0,0,0-2.13,5.25,15.1,15.1,0,0,0,.12,2.35c0,.89-.69,1.25-1.47.82-.2-.12-.35-.32-.55-.46-2-1.44-2.73-1.47-4.74-.21-.14.08-.26.2-.39.27-.48.27-.93.79-1.51.53-.75-.34-.4-1.11-.44-1.7C131.81,227.55,131.87,227.15,131.91,226.24Zm9.66-5c-1.09-.55-1.87-.91-2.61-1.34-1.05-.6-1.43-2.43-2.52-2.31s-1.77,1.7-2.94,2.26a3.91,3.91,0,0,0-.6.4c-1.37,1.07-1.26,1.86.4,2.52C136.23,224,138.88,223.44,141.57,221.26Z" transform="translate(-10.34 -18.65)"/><path class="cls-1" d="M272.07,190.75c0-3.34,0-6.69,0-10,0-1.48.57-1.94,1.85-1.82a1.34,1.34,0,0,1,1.38,1.34c0,.4,0,.8,0,1.2v18.41c0,.4,0,.8,0,1.2-.08,1.07-.69,1.52-1.75,1.49a1.37,1.37,0,0,1-1.49-1.49c0-1.51,0-3,0-4.54v-5.75Z" transform="translate(-10.34 -18.65)"/><path class="cls-1" d="M222.64,151.37a4.15,4.15,0,0,0-2.8.15c-2,.71-3.91,1.37-5.87,2-.51.17-1,.61-1.56.28a.49.49,0,0,1,.17-.81c1.85-.87,3.41-2.28,5.45-2.83a17.4,17.4,0,0,0,3.26-1.5q4.36-2.23,8.71-4.52a3,3,0,0,1,3.16.07c1.82,1.09,3.7,2.07,5.93,3.29-1.65.33-2.36-.53-3.21-1-1.91-1.08-3-.92-4.36.6A92.61,92.61,0,0,0,222.64,151.37Z" transform="translate(-10.34 -18.65)"/><path class="cls-1" d="M344,126.21c.38-2-.71-3.32-1.91-4.65A14.34,14.34,0,0,1,339.8,119c.43-.36.62-.29.83-.12A106.21,106.21,0,0,1,352.51,130a5.58,5.58,0,0,1,.77,1.2c.39.85.06,1.46-.81,1.6a20.79,20.79,0,0,1-2.62.08,4.36,4.36,0,0,0-1.37-2.15Z" transform="translate(-10.34 -18.65)"/><path class="cls-1" d="M378.88,272.46c1.83.23,2.57-1,3.09-2.4a6.32,6.32,0,0,0-1.48-6.68,6,6,0,0,0-6.33-1.78,6.56,6.56,0,0,0-3.38,2.55c-.54.7-.76,1.77-1.86,2.07.2-3.75,3.35-6.35,7.38-6.2a7.56,7.56,0,0,1,7.16,8,7.73,7.73,0,0,1-7.52,7.49c-3.84,0-6.72-2.36-6.76-5.65.92,1,1.7,2,2.61,2.86a5.44,5.44,0,0,0,6.22,1c.58-.24,1.23-.52.95-1.39l.06.14Z" transform="translate(-10.34 -18.65)"/><path class="cls-1" d="M370.62,147.16c-.47-1.33-2-1.48-3-2.42a3.11,3.11,0,0,1,3.78-.57c3.61,1.78,7.52,3,10.69,5.65.47.39,1.25.33,1.53,1.2-1.43.19-2.56-.62-3.79-.94-1-.27-2-.63-2.68.59A50.22,50.22,0,0,1,370.62,147.16Z" transform="translate(-10.34 -18.65)"/><path class="cls-1" d="M252.3,131.84c-1.16,0-2.75.68-3.31-.54s1.14-1.85,1.9-2.63c2.54-2.54,4.89-5.28,7.66-7.57a5.18,5.18,0,0,1,2.37-1.49,10.12,10.12,0,0,1-2.16,3.28,4.47,4.47,0,0,0-1.12,3.3A77,77,0,0,0,252.3,131.84Z" transform="translate(-10.34 -18.65)"/><path class="cls-1" d="M379,272.38a4,4,0,0,1-2.66-2.11c-.38-.69-.83-1.5-1.83-1.15s-.66,1.17-.74,1.86a6.3,6.3,0,0,1-.15.62c-.94-.66-.82-1.68-1-2.5a12.92,12.92,0,0,1-.06-3.11c.07-.91-.06-2,1-2.52.8-.41,3.4.18,4.09.83a1.24,1.24,0,0,1,.39,1.52c-1.47,2.47-.37,4.56.87,6.64l.13.06Zm-2.2-6.31a1.46,1.46,0,0,0-1.59-1.47,1.29,1.29,0,0,0-1.38,1.31,1.34,1.34,0,0,0,1.41,1.53A1.45,1.45,0,0,0,376.76,266.07Z" transform="translate(-10.34 -18.65)"/><path class="cls-1" d="M405.41,357.92c0,2.1-.09,4.18-1.92,5.64-.39.31-.77.92-1.41.36s-.44-.92-.05-1.45a3.44,3.44,0,0,0,.27-3.41,12.31,12.31,0,0,1-.56-2.06c-.25-1.56.22-2.25,1.54-2.34,1.58-.12,2.06.35,2.12,2.07C405.42,357.13,405.41,357.52,405.41,357.92Z" transform="translate(-10.34 -18.65)"/><path class="cls-1" d="M177.52,152.82a3,3,0,0,0-2.51.28c-.62.28-1.25.72-2,.19.08-.7.71-.87,1.15-1.1,2.1-1.11,4.21-2.21,6.37-3.18a3.48,3.48,0,0,1,4.51,1c-.5.4-1,0-1.47-.07-.67-.1-.81.32-.82.85-.45-.14-1-.29-1.35,0C180.25,151.7,178.76,152,177.52,152.82Z" transform="translate(-10.34 -18.65)"/><path class="cls-1" d="M205.32,131.26a7.18,7.18,0,0,0-2.43-3.66c-.81-.72-1.79-1.36-1.68-2.68a5.83,5.83,0,0,0,2.16.13,8.35,8.35,0,0,1,3.39,2,2.64,2.64,0,0,1,1,2.51A9.88,9.88,0,0,0,205.32,131.26Z" transform="translate(-10.34 -18.65)"/><path class="cls-1" d="M245.36,357c-.07,1.61-.68,2.09-2.49,2-1.37-.09-1.88-.8-1.8-2.5.06-1.42.65-1.86,2.46-1.81C245.11,354.67,245.44,355.09,245.36,357Z" transform="translate(-10.34 -18.65)"/><path class="cls-1" d="M273.55,170.9a2.22,2.22,0,0,1,2.26,2.27,2.07,2.07,0,0,1-2,2.25,2,2,0,0,1-2.23-2A2.24,2.24,0,0,1,273.55,170.9Z" transform="translate(-10.34 -18.65)"/><path class="cls-1" d="M491.67,356.83c0-2.12.05-2.23,1.48-2.26,1.7-.05,2.45.6,2.47,2.15S495,359,493.54,359C491.84,359,491.68,358.85,491.67,356.83Z" transform="translate(-10.34 -18.65)"/><path class="cls-1" d="M210.61,216.91l.48.49h0l-.49-.48Z" transform="translate(-10.34 -18.65)"/><path class="cls-1" d="M227.4,394.06a3.08,3.08,0,0,1,2.38-.58,69.75,69.75,0,0,1-1.06,8c-.82,5.28-1.72,10.55-2.58,15.82-.3,1.85-1.16,2.29-2.78,1.37a15.12,15.12,0,0,1-4-3.44c-1.1-1.29-.92-2.15.59-3.1.67-.42,1.29-.95,2-1.32,2.38-1.31,3.11-3.48,3.5-5.94.59-3.62,1.09-7.26,2-10.83Z" transform="translate(-10.34 -18.65)"/><path class="cls-1" d="M230.77,394.28a25.76,25.76,0,0,1,6.14,3.36,69.74,69.74,0,0,1-6.24,4.91c-.67.48-1.22.08-1.09-.86C229.91,399.27,230.35,396.86,230.77,394.28Z" transform="translate(-10.34 -18.65)"/><path class="cls-1" d="M392.08,406.06a3.47,3.47,0,0,1-1.5,2.32c-.75.66-1.39,2-2.38,1.67s-.8-1.74-.94-2.72A21.45,21.45,0,0,0,386,402c-.16-.41-.2-.78.16-1.07a.68.68,0,0,1,.88,0,40.07,40.07,0,0,1,4.43,3.58A2,2,0,0,1,392.08,406.06Z" transform="translate(-10.34 -18.65)"/><path class="cls-1" d="M330.57,408.16a4,4,0,0,1,3.64,1.86c2.47,3.17,2.47,3.17-.36,5.86l-.35.33c-.53.45-1,1.13-1.84.76s-.38-1.12-.38-1.71A21.6,21.6,0,0,0,330.57,408.16Z" transform="translate(-10.34 -18.65)"/><path class="cls-1" d="M287.52,414.59c-.29-1.5.64-3.21.1-5-.19-.62.34-.84.88-.73a2.49,2.49,0,0,1,1.07.49,7.66,7.66,0,0,1,1.29,1.38c2.29,3.29,1.88,4.78-1.75,6.49-1.19.55-1.54.34-1.59-1C287.51,415.79,287.52,415.31,287.52,414.59Z" transform="translate(-10.34 -18.65)"/></svg>