<svg id="Layer_1" data-name="Layer 1" xmlns="http://www.w3.org/2000/svg" viewBox="0 0 146.32 203.4"><title>oklahoma-association-for-justice</title><path d="M148.82,167.65a15.64,15.64,0,0,0-1.1,2.52c-.78,1.85-1.52,3.72-2.26,5.59a.85.85,0,0,1-.92.54c-.42,0-.51-.24-.65-.56-.62-1.37-1.1-2.8-1.74-4.17-.55-1.15-1-2.36-1.42-3.55-.08-.2-.17-.4-.3-.7a1.18,1.18,0,0,0-.15.8c0,2.5,0,5,0,7.5,0,.83-.49.62-.93.66s-.73-.05-.73-.65c0-3.44,0-6.88,0-10.32,0-.48.14-.62.62-.62,1.7,0,1.71,0,2.35,1.46.94,2.21,1.85,4.42,2.78,6.63.06.15.07.35.27.34s.23-.21.29-.35l1.62-3.94c.51-1.22,1-2.43,1.53-3.66a.66.66,0,0,1,.7-.48c1.89,0,1.89,0,1.89,1.84v9.08c0,.24.09.58-.24.63a2.19,2.19,0,0,1-1.34-.05c-.18-.1-.07-.39-.08-.59v-7.9Z" transform="translate(-38.64 -12.19)"/><path d="M162.89,186.59a1.13,1.13,0,0,0-.14.81c0,2.57,0,5.14,0,7.71,0,.78-.46.6-.88.63s-.74,0-.74-.65c0-3.39,0-6.79,0-10.18,0-.53.13-.78.69-.72a5.41,5.41,0,0,0,.9,0,.86.86,0,0,1,.84.46c1.22,1.87,2.46,3.74,3.7,5.6.57.85,1.16,1.69,1.76,2.53.09.13.13.4.37.31s.14-.31.14-.48v-7.5a1,1,0,0,1,1.45-.89c.2.09.17.24.17.4q0,5.3,0,10.59c0,.37-.1.49-.49.54a2.16,2.16,0,0,1-2.35-1.17c-1.57-2.52-3.28-5-4.95-7.41A6.33,6.33,0,0,0,162.89,186.59Z" transform="translate(-38.64 -12.19)"/><path d="M79.61,209.56a6,6,0,1,1-6.14-6.17A5.84,5.84,0,0,1,79.61,209.56Zm-6-4.64a4.56,4.56,0,0,0,0,9.11,4.29,4.29,0,0,0,4.33-4.48A4.35,4.35,0,0,0,73.65,204.92Z" transform="translate(-38.64 -12.19)"/><path d="M98,190.06a5.85,5.85,0,0,1-6.31,6A5.78,5.78,0,0,1,86,189.91a6,6,0,1,1,12.05.15Zm-10.32-.14A4.25,4.25,0,0,0,92,194.54a4.57,4.57,0,0,0,0-9.12A4.28,4.28,0,0,0,87.69,189.92Z" transform="translate(-38.64 -12.19)"/><path d="M157.9,190a6,6,0,1,1-12.05,0,6,6,0,0,1,6.15-6A5.86,5.86,0,0,1,157.9,190Zm-6,4.56a4.56,4.56,0,0,0,0-9.11c-2.42,0-4.2,2-4.25,4.6A4.3,4.3,0,0,0,151.89,194.53Z" transform="translate(-38.64 -12.19)"/><path d="M67.13,164.48a5.84,5.84,0,0,1,6,6.42,6,6,0,0,1-6.29,5.69,5.9,5.9,0,0,1-5.75-6.29A5.77,5.77,0,0,1,67.13,164.48Zm4.27,6a4.33,4.33,0,0,0-4.35-4.59c-2.45.1-4.36,1.83-4.26,4.89a4.15,4.15,0,0,0,4.36,4.27A4.25,4.25,0,0,0,71.4,170.49Z" transform="translate(-38.64 -12.19)"/><path d="M123.4,170.53a6,6,0,1,1,6.41,6.05A6,6,0,0,1,123.4,170.53Zm10.33,0a4.35,4.35,0,0,0-4.28-4.66,4.59,4.59,0,0,0-.12,9.16A4.28,4.28,0,0,0,133.73,170.57Z" transform="translate(-38.64 -12.19)"/><path d="M91.12,215.24c-.64,0-1.16,0-1.69,0a.54.54,0,0,1-.53-.34c-.77-1.35-1.55-2.69-2.31-4a1.51,1.51,0,0,0-1.83-.67c-.3.14-.24.42-.25.66,0,1.26,0,2.52,0,3.78,0,.48-.14.69-.62.61s-1.08.28-1.07-.62c0-3.46,0-6.92,0-10.38,0-.26,0-.53.37-.52,1.86.07,3.77-.32,5.58.32a3,3,0,0,1,1.37,4.57,2.81,2.81,0,0,1-1.64,1.26c-.56.14-.54.37-.28.74,1,1.38,1.69,2.92,2.71,4.27A2.79,2.79,0,0,1,91.12,215.24Zm-6.67-8.32v1.37c0,.23,0,.5.33.5a9.26,9.26,0,0,0,3.19-.23A1.55,1.55,0,0,0,89,207a1.53,1.53,0,0,0-.9-1.61,4.1,4.1,0,0,0-1.8-.31C84.45,205.09,84.45,205.08,84.45,206.92Z" transform="translate(-38.64 -12.19)"/><path d="M78,169.66c1.3-1.1,2.33-2.23,3.43-3.29.49-.47,1-1,1.45-1.44a4.26,4.26,0,0,1,2.13-.21c.32.19,0,.34-.07.46l-2.63,2.51c-.67.65-1.32,1.33-2,2-.39.35-.35.58,0,.94,1.58,1.59,3.13,3.21,4.69,4.82a1.75,1.75,0,0,1,.56.77A3,3,0,0,1,82.13,175,41.58,41.58,0,0,0,78,170.74v2.51c0,.8,0,1.6,0,2.4,0,.49-.17.68-.64.63a1.87,1.87,0,0,0-.41,0c-.52.08-.66-.14-.66-.65,0-2.82,0-5.64,0-8.46,0-.64,0-1.28,0-1.93,0-.41.12-.6.55-.54a1.93,1.93,0,0,0,.48,0c.5,0,.69.12.67.66,0,1.21,0,2.43,0,3.64Z" transform="translate(-38.64 -12.19)"/><path d="M159.93,210.07c0-1.91,0-3.81,0-5.71,0-.4.07-.66.55-.66l6.59,0c.35,0,.45.24.4.5s.29.88-.33,1a3.13,3.13,0,0,1-.75.07c-1.4,0-2.8,0-4.19,0-.45,0-.62.15-.6.6,0,.69,0,1.38,0,2.06,0,.52.2.68.7.67,1.4,0,2.79,0,4.19,0,.59,0,.61.28.61.72s0,.81-.6.8c-1.42,0-2.85,0-4.27,0-.46,0-.65.13-.63.63,0,.8,0,1.6,0,2.4,0,.48.15.66.63.65,1.67,0,3.34,0,5,0,.37,0,.64,0,.53.44s.39,1-.45,1c-2.31,0-4.62,0-6.94,0-.31,0-.43-.08-.43-.43,0-1.58,0-3.16,0-4.74Z" transform="translate(-38.64 -12.19)"/><path d="M120.16,170.52c0,1.69,0,3.39,0,5.09,0,.54-.13.75-.69.68s-1,.14-1-.71c.07-1.28,0-2.57,0-3.85,0-.49-.11-.71-.65-.7-1.58,0-3.16,0-4.74,0-.42,0-.56.15-.56.57,0,1.37,0,2.75,0,4.12,0,.79-.5.54-.87.57s-.77.11-.77-.54c0-3.48,0-7,0-10.45,0-.66.39-.6.81-.59s.83-.07.81.6c0,1.19,0,2.38,0,3.57,0,.49.16.64.63.63,1.56,0,3.12,0,4.68,0,.47,0,.65-.16.64-.64,0-1.21,0-2.43,0-3.64,0-.41.1-.55.49-.52a2.57,2.57,0,0,0,.48,0c.5-.06.68.14.68.66,0,1.72,0,3.44,0,5.16Z" transform="translate(-38.64 -12.19)"/><path d="M164.55,176.23l-.08,0c-2.07,0-1.62.32-2.32-1.51-.47-1.25-.46-1.25-1.77-1.25s-2.34,0-3.51,0c-.5,0-.81.1-.94.64s-.38.84-.49,1.28a1.07,1.07,0,0,1-1.29.89c-1-.07-1,0-.61-.9q2.18-4.93,4.34-9.85a1.23,1.23,0,0,1,1.55-.85c.28,0,.38.22.47.43l2.82,6.62c.5,1.16,1,2.31,1.51,3.46A2.49,2.49,0,0,1,164.55,176.23Zm-5.67-4.17h0c.53,0,1.05,0,1.58,0s.57-.07.38-.51c-.3-.71-.56-1.44-.85-2.16s-.51-1.32-.77-2c-.06-.14-.11-.34-.28-.36s-.2.21-.25.34c-.57,1.34-1.11,2.7-1.71,4-.25.57-.08.68.46.65S158.4,172.06,158.88,172.06Z" transform="translate(-38.64 -12.19)"/><path d="M107.32,176.29c-.6.17-.89-.19-1.1-.8-.68-2-.7-2-2.76-2-.94,0-1.88,0-2.82,0a.83.83,0,0,0-1,.67,14,14,0,0,0-.55,1.4c-.14.61-.45.77-1,.74-1.16-.06-1.22-.05-.71-1.07,1-2,1.85-4.18,2.82-6.24.55-1.17,1.08-2.36,1.52-3.58.15-.41.34-.75.87-.72s.94,0,1.2.61c.74,1.89,1.56,3.75,2.36,5.62.63,1.46,1.29,2.92,1.91,4.38C108.46,176.26,108.44,176.27,107.32,176.29ZM102.8,167c-.11.07-.17.08-.19.12-.64,1.52-1.29,3-1.92,4.59-.14.33.13.38.38.38h3.28c.4,0,.48-.13.32-.5C104,170.05,103.43,168.52,102.8,167Z" transform="translate(-38.64 -12.19)"/><path d="M128.18,195.73c-.68.22-1-.26-1.16-.89-.63-1.91-.63-1.91-2.61-1.91-1,0-2,0-3,0a.81.81,0,0,0-.88.59c-.2.56-.47,1.09-.63,1.66s-.38.59-.84.57c-1.35-.06-1.43.3-.74-1.23.76-1.7,1.47-3.43,2.22-5.14s1.45-3.16,2.13-4.76c.27-.62.76-.34,1.17-.41s.59.14.72.48c1,2.49,2.16,4.89,3.1,7.39.36.94.88,1.81,1.23,2.76S129.29,195.73,128.18,195.73Zm-4.63-4.17h1.64c.34,0,.49-.12.36-.45q-.87-2.16-1.75-4.31c-.14-.33-.33-.4-.49,0-.58,1.44-1.15,2.88-1.73,4.31-.15.35,0,.47.32.47Z" transform="translate(-38.64 -12.19)"/><path d="M53.44,195.73h-.33c-.79,0-.78,0-.47-.7l3.79-8.65c.22-.5.44-1,.65-1.51a1,1,0,0,1,1-.7c.67,0,.9.25,1.13.8,1.24,2.94,2.51,5.87,3.76,8.8.22.51.43,1,.66,1.5s0,.47-.31.46h-.07c-1.71,0-1.26.29-1.87-1.27s-.53-1.52-2.13-1.52c-1.08,0-2.16,0-3.23,0-.47,0-.78.08-.93.58s-.37.89-.51,1.35C54.39,195.5,54.08,195.93,53.44,195.73ZM58,191.56h0c.55,0,1.1,0,1.65,0,.39,0,.49-.18.36-.51-.56-1.42-1.13-2.84-1.7-4.26,0-.11-.15-.27-.26-.29s-.21.15-.26.28q-.87,2.15-1.75,4.31c-.14.33,0,.47.32.47Z" transform="translate(-38.64 -12.19)"/><path d="M117.57,207.92c0,1,0,2,0,3a4.48,4.48,0,1,1-9,.27c-.06-2.32,0-4.63,0-6.95,0-.76.51-.59,1-.62s.72,0,.71.61c0,2.22-.06,4.45,0,6.67s1.42,3.45,3.66,3a3,3,0,0,0,2-3c0-2.16.06-4.31,0-6.47,0-.93.55-.64,1-.71s.63.24.62.7c0,1.16,0,2.33,0,3.5Z" transform="translate(-38.64 -12.19)"/><path d="M79.32,196.09a5.47,5.47,0,0,1-3.22-1.15c-.37-.33-.33-.6,0-.9l0,0c.47-.41.78-.85,1.49-.11A2.53,2.53,0,0,0,81,194a1.55,1.55,0,0,0-.42-2.81c-.67-.28-1.38-.47-2.07-.72a3.29,3.29,0,0,1-.29-6.28,5.15,5.15,0,0,1,4.74.64c.32.31.37.54,0,.8a1.36,1.36,0,0,0-.24.24c-.36.46-.63.59-1.17.09a2.44,2.44,0,0,0-3.51.42,1.55,1.55,0,0,0,.68,2.22c.93.51,2,.63,3,1.09a2.71,2.71,0,0,1,1.78,2.52,3.29,3.29,0,0,1-1.66,3.23A4.58,4.58,0,0,1,79.32,196.09Z" transform="translate(-38.64 -12.19)"/><path d="M123.91,215.52a4.49,4.49,0,0,1-3.08-1c-.41-.33-.58-.66,0-1a1,1,0,0,0,.27-.22c.36-.45.6-.45,1,0a2.84,2.84,0,0,0,3.48.23,1.47,1.47,0,0,0-.16-2.65,11.17,11.17,0,0,0-2.17-.83,3.32,3.32,0,0,1-2.61-3.48,3.12,3.12,0,0,1,2.16-2.82,4.69,4.69,0,0,1,4.52.44c.65.42.64.59.06,1.12-.12.11-.29.17-.37.3-.23.39-.38.34-.69,0a2.59,2.59,0,0,0-3.44-.1,1.55,1.55,0,0,0,.41,2.58,9.63,9.63,0,0,0,2,.75,3.81,3.81,0,0,1,2.16,1.23,3.07,3.07,0,0,1,.41,3.06A3.72,3.72,0,0,1,123.91,215.52Z" transform="translate(-38.64 -12.19)"/><path d="M70.3,183.94a3.93,3.93,0,0,1,2.48.76c.44.35.56.63.08,1l-.15.13c-.37.41-.62.66-1.22.14a2.48,2.48,0,0,0-2.6-.33,1.64,1.64,0,0,0-1.13,1.49,1.56,1.56,0,0,0,1,1.56c.92.48,1.94.66,2.89,1.05,2.25.92,2.1,3.69,1,5A4.2,4.2,0,0,1,68.36,196a4.83,4.83,0,0,1-2.19-.92c-.39-.32-.48-.61-.06-1,.75-.72.73-.74,1.58-.08a2.72,2.72,0,0,0,3.14.17,1.73,1.73,0,0,0,.84-1.69,1.58,1.58,0,0,0-1.21-1.27,15.24,15.24,0,0,1-3.11-1.26,3.18,3.18,0,0,1-1-4C67.08,184.52,68.14,184,70.3,183.94Z" transform="translate(-38.64 -12.19)"/><path d="M148.61,209.47a4.39,4.39,0,0,0,2.39,4.14c1.23.62,3.59.61,4.57-.8a.41.41,0,0,1,.64-.11c.89.51,1,1.06.26,1.63a6,6,0,0,1-8.36-1.12,6.43,6.43,0,0,1,1-8.58,6.16,6.16,0,0,1,7.39,0c.42.38.45.57,0,1-.63.55-1,.42-1.58-.05a3.83,3.83,0,0,0-5.26.88A5.28,5.28,0,0,0,148.61,209.47Z" transform="translate(-38.64 -12.19)"/><path d="M100.58,190c.07-4.33,3.45-6.89,7.76-5.87a4.41,4.41,0,0,1,2,1.21c.22.21.29.41,0,.62l-.65.5a.49.49,0,0,1-.73-.05c-1.63-1.71-5-1.09-6.17,1.33a4.79,4.79,0,0,0,1.88,6.39,4,4,0,0,0,4.32-.58c.19-.2.37-.59.71-.42a2.8,2.8,0,0,1,1,.78c.19.25-.15.54-.37.73a5.51,5.51,0,0,1-3.36,1.39A5.9,5.9,0,0,1,100.58,190Z" transform="translate(-38.64 -12.19)"/><path d="M58,209.49c0-1.68,0-3.35,0-5,0-.55.12-.77.72-.76,2,0,4,0,5.91,0,.6,0,.75.19.72.74s.07.78-.65.79c-1.46,0-2.93,0-4.39,0-.46,0-.67.14-.65.63,0,.73,0,1.47,0,2.2,0,.53.16.74.7.72,1.31-.05,2.61,0,3.92-.07.66,0,.72.31.74.84s-.2.71-.73.7c-1.28,0-2.56,0-3.84,0-.58,0-.79.21-.78.76,0,1.19,0,2.38,0,3.57,0,.83-.51.61-.95.66s-.74-.11-.73-.68C58,212.88,58,211.18,58,209.49Z" transform="translate(-38.64 -12.19)"/><path d="M134,210.21c0-1.47,0-2.94,0-4.4,0-.48-.12-.61-.63-.57-.91.07-1.83,0-2.74,0a.33.33,0,0,1-.37-.39,6.26,6.26,0,0,0,0-.75c0-.39.19-.46.52-.45,2.65.13,5.3.11,8,0,.37,0,.53.1.56.5.07,1.1.08,1.11-1,1.11-.6,0-1.2,0-1.79,0s-.87.16-.86.83c0,2.8,0,5.59,0,8.39,0,.24.16.63-.2.71a2.38,2.38,0,0,1-1.35,0c-.2-.06-.11-.37-.11-.57Z" transform="translate(-38.64 -12.19)"/><path d="M133.87,184.2h3.92c.29,0,.74,0,.59.41s.41,1.18-.59,1.16c-.82,0-1.65,0-2.47,0-.56,0-.71.16-.71.71,0,2.84,0,5.68,0,8.53,0,.24.17.63-.2.7a2.42,2.42,0,0,1-1.28,0c-.14,0-.1-.25-.1-.38-.13-3-.08-6,0-9,0-.42-.1-.51-.47-.51-.89,0-1.79,0-2.68,0-.61,0-.61-.31-.59-.74s-.12-.85.56-.84C131.17,184.22,132.52,184.2,133.87,184.2Z" transform="translate(-38.64 -12.19)"/><path d="M88.16,170.57c0-1.74,0-3.48,0-5.22,0-.82.49-.61.94-.66s.71.11.7.68c0,2.88,0,5.77,0,8.65,0,.59.18.74.74.73,1.33,0,2.66,0,4,0,.5,0,.67.18.62.65s.15.93-.63.91c-1.92,0-3.84,0-5.77,0-.46,0-.6-.11-.58-.64.06-1.69,0-3.38,0-5.08Z" transform="translate(-38.64 -12.19)"/><path d="M103.34,208c0-1.24,0-2.48,0-3.71,0-.86.59-.55,1-.6s.68.08.65.6c-.12,2-.08,4.07,0,6.11a16.18,16.18,0,0,1-.07,2.2,3.31,3.31,0,0,1-4.47,2.72,2.69,2.69,0,0,1-1.86-1.74c-.17-.46-.11-.72.43-.83s1-.23,1.28.51a1.24,1.24,0,0,0,1.44.71c.64-.1,1.18-.3,1.36-1a6.91,6.91,0,0,0,.25-1.75c0-1.06,0-2.11,0-3.17Z" transform="translate(-38.64 -12.19)"/><path d="M142,209.45c0-1.72,0-3.44,0-5.15,0-.52.15-.71.66-.65s1.05-.17,1,.68c0,3.44,0,6.87,0,10.31,0,.5-.18.61-.64.61-1.06,0-1.06,0-1.06-1.06C142,212.61,142,211,142,209.45Z" transform="translate(-38.64 -12.19)"/><path d="M142.6,190c0,1.68,0,3.35,0,5,0,.6-.19.79-.74.71a2.57,2.57,0,0,0-.48,0c-.35,0-.48-.12-.48-.48q0-5.26,0-10.52c0-.39.15-.52.53-.53,1.15-.06,1.15-.07,1.15,1.07Z" transform="translate(-38.64 -12.19)"/><path d="M115.25,190v5.14c0,.34,0,.72-.48.57s-1.14.41-1.14-.58c0-3.45,0-6.91,0-10.36,0-.8.52-.54.93-.6s.71,0,.7.61C115.22,186.54,115.25,188.28,115.25,190Z" transform="translate(-38.64 -12.19)"/><path d="M105.44,59.68c-3.64-4.86-6.28-10.12-9.31-15.12-4.79-7.89-9.42-15.86-14.2-23.75-.9-1.48-.73-2.14.86-2.87A73.46,73.46,0,0,1,105,12.22c1.36-.16,1.89.24,1.86,1.63-.14,7.35-.27,14.7-.33,22,0,1.47-1,1.63-2,1.86C98.7,39,98.68,39,100.47,44.68,102,49.64,104.24,54.39,105.44,59.68Z" transform="translate(-38.64 -12.19)"/><path d="M118.19,59.5c0-15.19,0-30.38,0-45.58,0-1.61.63-1.69,1.84-1.54a75.23,75.23,0,0,1,22.79,6.5c1.26.59.94,1.18.46,2-3.75,6.3-7.52,12.58-11.22,18.91-.67,1.14-1.29,1.22-2.5.8-6.16-2.16-6.09-2.1-7.25,4.34-.89,4.9-2,9.76-3,14.64Z" transform="translate(-38.64 -12.19)"/><path d="M86.48,77.66a5.65,5.65,0,0,1-2.91.5c-14,.22-28,.39-42,.69-2.3.05-2.91-.44-2.61-2.89a80.54,80.54,0,0,1,6-21.09c.67-1.63,1.36-1.85,2.84-.95q8.7,5.3,17.5,10.46c1.67,1,2.21,1.75,1.4,4-2.25,6.12-2.06,4.94,3.15,5.91,2.8.53,5.58,1.12,8.37,1.69Z" transform="translate(-38.64 -12.19)"/><path d="M137.16,91.74q22.77,0,45.54,0c1.59,0,2.08.41,1.86,2.11a87.43,87.43,0,0,1-5.81,21.12c-.72,1.8-1.32,2.7-3.47,1.35-5.84-3.66-11.82-7.09-17.78-10.55-1.43-.83-1.75-1.53-1-3.23,2.33-5.23,2.2-5.27-3.35-6.44-5.34-1.12-10.68-2.28-16-3.43Z" transform="translate(-38.64 -12.19)"/><path d="M105.18,110.51c0,15.27,0,30.53,0,45.8,0,1.56-.5,1.95-2,1.75a80.49,80.49,0,0,1-22-6.24c-1.43-.63-1.71-1.09-.79-2.59,3.74-6.09,7.34-12.27,10.88-18.48.74-1.28,1.46-1.48,2.7-.93s2.55,1,3.84,1.52,2.24.24,2.53-1.43c1-5.43,2-10.84,3.11-16.26.22-1.09.6-2.14.91-3.21Z" transform="translate(-38.64 -12.19)"/><path d="M88.45,111.34c-2.87,5.21-5.71,10.42-8.59,15.61-3,5.49-6.16,10.94-9.18,16.43-.73,1.33-1.17,1.68-2.63.6a71.69,71.69,0,0,1-16.31-16.76c-.84-1.21-.35-1.57.63-2.11,6.1-3.37,12.22-6.72,18.26-10.2,1.64-1,2.62-.9,3.9.62,3.56,4.24,3.63,4.17,7.3-.06,2.18-2.53,4.39-5,6.59-7.54a2,2,0,0,1,1.15,1.13l-.84,1.69C88.64,111,88.54,111.14,88.45,111.34Z" transform="translate(-38.64 -12.19)"/><path d="M135.2,107l2.57,1.48a.89.89,0,0,0,1.12.54c10.47,5.83,20.92,11.68,31.42,17.45,1.32.73,1,1.29.34,2.17a74.12,74.12,0,0,1-16.89,16.6c-.94.68-1.43.49-2-.53q-5.46-9.84-11.06-19.6c-.54-.94-.19-1.36.46-1.92,1.18-1,2.25-2.16,3.47-3.11s1.07-1.89-.06-2.85a35,35,0,0,1-5.11-4.7,1.49,1.49,0,0,0-1.69-1.32l-.36-.41a1.59,1.59,0,0,0-1.53-1.24l-.65-.47h0l-2.13-2c.21-.48.68-.5,1.1-.6l0,0A.84.84,0,0,0,135.2,107Z" transform="translate(-38.64 -12.19)"/><path d="M87.45,63.13q-9.2-5.1-18.39-10.2c-5.12-2.86-10.18-5.81-15.36-8.57-1.77-.94-1.66-1.8-.62-3.13A76.05,76.05,0,0,1,69.15,25.61c1.26-.88,2-1,2.78.48,2.88,5.29,6,10.48,8.74,15.82.78,1.48,2.68,2.89,2.14,4.43s-2.33,2.43-3.64,3.54c-1.47,1.23-1.87,2.1,0,3.55,2.59,2,4.83,4.4,7.22,6.63,0,.6.34.86.92.83l.11.11C87.45,61.71,87.45,62.42,87.45,63.13Z" transform="translate(-38.64 -12.19)"/><path d="M134.78,59.28q6.76-12.06,13.52-24.12c1.47-2.64,2.93-5.28,4.31-8,.69-1.35,1.36-1.79,2.74-.76A69,69,0,0,1,171.52,43c.61.91.88,1.6-.35,2.27q-9.28,5.11-18.53,10.33c-1.47.82-2.41.86-3.63-.72-3.44-4.47-3.55-4.37-7.31-.05-1.63,1.87-3.38,3.63-5.07,5.44C135.62,60.68,135.24,59.91,134.78,59.28Z" transform="translate(-38.64 -12.19)"/><path d="M121.77,122c-.2-.65-.4-1.3-.61-2,.53-1-.85-2.4.78-3.07q7.73,13,15.46,26,2.11,3.54,4.28,7.07c.66,1.06.78,1.78-.68,2.34-7.2,2.74-14.47,5.11-22.22,5.77-1.67.15-2.33-.2-2.27-2q.31-10.62.39-21.25c0-1.6.64-2,2.09-2.22,6.09-.92,6.07-1,4.05-6.62-.29-.81-.5-1.65-.75-2.48C122.37,123,122.4,122.38,121.77,122Z" transform="translate(-38.64 -12.19)"/><path d="M68.3,102.3c-7.18,4.29-14.39,8.52-21.51,12.9-1.34.83-1.76.46-2.25-.71a75.93,75.93,0,0,1-5.88-22.71c-.13-1.49.45-1.75,1.74-1.72q10.76.21,21.51.3c1.32,0,2.14.3,2.17,1.83a14,14,0,0,0,.52,2.53c.79,3.57.79,3.57,4.32,2.49a5.62,5.62,0,0,0,2.74-.55c1.8-.56,3.46-1.51,5.39-1.65,1-.08,1.77,0,1.52,1.29a1,1,0,0,1-.34.31h.07l-1.25.52A2.42,2.42,0,0,0,75,98.29l-1.3.83A7.86,7.86,0,0,0,68.3,102.3Z" transform="translate(-38.64 -12.19)"/><path d="M182.92,68.05c.18.77.35,1.54.52,2.31l0,.22.1,1.14c0,.89-.29,1.82.46,2.58,0,.33.07.66.11,1a6,6,0,0,0-.08,1.52c.49,2.46-.8,3.17-2.95,3.15-1.27,0-2.54.07-3.81.11h-1.58c-.78-.79-1.78-.47-2.69-.48-4.47,0-8.94,0-13.4,0a10.86,10.86,0,0,1-.57-3.58c-.08-1.48.52-3.31-1.83-3.68l-1.73.52a12.47,12.47,0,0,0-5.76,2l-1.64.52c-.92-.15-1.95.4-3.18-.49,1-.67,2.2-.79,2.32-2a1.11,1.11,0,0,1,.43-.15c1.54.07,2.42-.93,3.24-2l.65-.44c1.3-.46,2.77-.65,3.4-2.16,7.16-4.23,14.34-8.42,21.45-12.74,1.45-.88,2-.73,2.55.85.82,2.43,2.14,4.69,2.49,7.29C181.78,65.05,181.51,66.82,182.92,68.05Z" transform="translate(-38.64 -12.19)"/><path d="M78.57,96.3C78.82,95,78,94.93,77.05,95c-1.93.14-3.59,1.09-5.39,1.65a5.62,5.62,0,0,1-2.74.55,46.84,46.84,0,0,1,10.31-3.87C82,92.58,84.54,91,87.61,91,84.48,92.63,81.92,95.13,78.57,96.3Z" transform="translate(-38.64 -12.19)"/><path d="M147.24,72.86c-.12,1.17-1.36,1.29-2.32,2,1.23.89,2.26.34,3.18.49A42.55,42.55,0,0,1,137.22,79,35.36,35.36,0,0,1,147.24,72.86Z" transform="translate(-38.64 -12.19)"/><path d="M134.78,59.28c.46.63.84,1.4,1.85,1-1.3,3-4.18,4.78-6.12,7.35A24.1,24.1,0,0,1,134.78,59.28Z" transform="translate(-38.64 -12.19)"/><path d="M121.94,117c-1.63.67-.25,2.12-.78,3.07-2.21-2.94-2.58-6.55-3.5-10A23.62,23.62,0,0,1,121.94,117Z" transform="translate(-38.64 -12.19)"/><path d="M87.45,63.13c0-.71,0-1.42,0-2.13,3,.91,4.34,3.9,6.76,5.59C91.56,66.18,89.51,64.64,87.45,63.13Z" transform="translate(-38.64 -12.19)"/><path d="M159.63,79.53c4.46,0,8.93,0,13.4,0,.91,0,1.91-.31,2.69.48-5.22.55-10.45,0-15.67,0C159.91,80.1,159.77,79.73,159.63,79.53Z" transform="translate(-38.64 -12.19)"/><path d="M89.57,109.06a2,2,0,0,0-1.15-1.13l4.65-5.61A13,13,0,0,1,89.57,109.06Z" transform="translate(-38.64 -12.19)"/><path d="M177.3,80.07c1.27,0,2.54-.12,3.81-.11,2.15,0,3.44-.69,2.95-3.15a6,6,0,0,1,.08-1.52c1.24,1.27.69,2.87.78,4.34a1,1,0,0,1-1,1C181.73,80.53,179.42,81.35,177.3,80.07Z" transform="translate(-38.64 -12.19)"/><path d="M134.21,106.48c-.42.1-.89.12-1.1.6-1.87-.42-2.67-2.15-4-3.31A9.72,9.72,0,0,1,134.21,106.48Z" transform="translate(-38.64 -12.19)"/><path d="M68.3,102.3a7.86,7.86,0,0,1,5.37-3.18A11.12,11.12,0,0,1,68.3,102.3Z" transform="translate(-38.64 -12.19)"/><path d="M149.74,74.79a12.47,12.47,0,0,1,5.76-2A9.71,9.71,0,0,1,149.74,74.79Z" transform="translate(-38.64 -12.19)"/><path d="M182.92,68.05c-1.41-1.23-1.14-3-1.47-4.57A5.9,5.9,0,0,1,182.92,68.05Z" transform="translate(-38.64 -12.19)"/><path d="M150.91,70.68c-.82,1.1-1.7,2.1-3.24,2A4,4,0,0,1,150.91,70.68Z" transform="translate(-38.64 -12.19)"/><path d="M157.23,72.27c2.35.37,1.75,2.2,1.83,3.68C158,75,158.43,73.21,157.23,72.27Z" transform="translate(-38.64 -12.19)"/><path d="M155,68.08c-.63,1.51-2.1,1.7-3.4,2.16C152.35,69,153.67,68.56,155,68.08Z" transform="translate(-38.64 -12.19)"/><path d="M184,74.3c-.75-.76-.49-1.69-.46-2.58A1.91,1.91,0,0,1,184,74.3Z" transform="translate(-38.64 -12.19)"/><path d="M75,98.29a2.42,2.42,0,0,1,2.08-1.15A1.9,1.9,0,0,1,75,98.29Z" transform="translate(-38.64 -12.19)"/><path d="M135.89,109.59a1.59,1.59,0,0,1,1.53,1.24C136.51,110.91,136.11,110.37,135.89,109.59Z" transform="translate(-38.64 -12.19)"/><path d="M137.78,111.24a1.49,1.49,0,0,1,1.69,1.32C138.71,112.37,138,112.1,137.78,111.24Z" transform="translate(-38.64 -12.19)"/><path d="M121.77,122c.63.38.6,1,.52,1.58C122,123.11,121.33,122.73,121.77,122Z" transform="translate(-38.64 -12.19)"/><path d="M138.89,109.05a.89.89,0,0,1-1.12-.54C138.37,108.23,138.7,108.49,138.89,109.05Z" transform="translate(-38.64 -12.19)"/><path d="M88.45,111.34c.09-.2.19-.39.28-.59.32,0,.47.2.33.44S88.66,111.3,88.45,111.34Z" transform="translate(-38.64 -12.19)"/><path d="M87.33,60.89c-.58,0-.91-.23-.92-.83C87.12,59.89,87.08,60.55,87.33,60.89Z" transform="translate(-38.64 -12.19)"/><path d="M135.2,107a.84.84,0,0,1-.95-.53C134.7,106.44,135,106.73,135.2,107Z" transform="translate(-38.64 -12.19)"/><path d="M78.3,96.62h0Z" transform="translate(-38.64 -12.19)"/><polygon points="144.83 58.39 144.8 58.17 144.98 58.26 144.83 58.39"/></svg>