<?xml version="1.0" encoding="utf-8"?>
<!-- Generator: Adobe Illustrator 21.0.0, SVG Export Plug-In . SVG Version: 6.00 Build 0)  -->
<svg version="1.1" id="Layer_1" xmlns="http://www.w3.org/2000/svg" xmlns:xlink="http://www.w3.org/1999/xlink" x="0px" y="0px"
	 viewBox="0 0 178 174" style="enable-background:new 0 0 178 174;" xml:space="preserve">
<style type="text/css">
	.st0{fill:#999999;}
</style>
<g>
	<path class="st0" d="M19.4,139.1c-0.2-0.9-0.1-1.8-0.1-2.7c0-0.5-0.1-1-0.4-1.4c0.9-2.1-0.1-4-0.9-5.9c-1.3-3-3.8-4.8-6.5-6.4
		c-2.1-1.3-4.2-2.5-5.2-5c-0.2-0.4,0-1.1-0.6-1.4c-0.3-2.6,0.2-5.1,1.3-7.5c0.3-0.6,0.1-1.5,0.8-2c0.9-2.3,0.3-4.5-0.5-6.6
		c-0.7-2.2-2.4-4-3.8-5.8c-1.6-2-2.7-4.1-2.3-6.8c0-0.3,0-0.7,0-1.1c0.2-1.6,1.3-2.7,2-4c0.9-1.6,2.2-2.9,3.3-4.4
		c0.3-0.4,0.1-0.9,0.6-1.2c0,0,0,0.1,0,0.1c0.1-0.2,0.1-0.3,0.2-0.5c-0.2-0.4,0.4-0.4,0.3-0.7c0.1-0.3,0.1-0.7,0.2-1
		C8,74.5,8,74,8.1,73.5c0.4-2.5-0.7-4.7-1.4-6.9c-0.3-1-0.5-2.1-1.1-3c-0.4-3.2,0.4-5.9,3-7.9c1.7-1.3,3.7-2.4,5.5-3.7
		c2.5-1.8,3.9-4.2,4.7-7.2c0.5-1.9,0.5-3.8,0.4-5.6c-0.1-1.7,0.8-3,1.5-4.5c1.3-2.5,3.7-3.1,6.2-3.6c1.8-0.4,3.7-0.7,5.4-1.5
		c2.9-1.4,5.7-3.2,7-6.4c0.8-2.1,1.9-4,2.8-6c1-0.1,1.2-1,1.7-1.5c0.2-0.1,0.3-0.1,0.5-0.2c0.9-0.1,1.1-1.1,2.1-1.2
		c1.6-0.2,3.1-0.2,4.7-0.2c0.7,0,1.4,0,2,0c0.9,0,1.8,0.1,2.7,0.4c1.4,0.4,2.8-0.3,4.2-0.6c3.6-0.8,5.5-3.8,7.9-6.1
		c2.6-2.5,5.7-3.6,9.2-2.9c1.8,0.4,3.3,1.4,5,2.2c1.6,0.7,3.3,1.1,4.9,1.6c3.6,1.1,6.4-0.7,9.3-1.9c1.4-0.6,2.7-1.4,4.1-1.9
		c1-0.4,2.2-0.2,3.3-0.1c2.6,0.3,4.4,1.8,6.2,3.5c1.6,1.5,3.3,3,5.2,4.3c2.2,1.5,4.6,1.9,7.2,2c1,0,2,0.2,3-0.3
		c0.5-0.1,1-0.1,1.4-0.2c0.5,0,1.1-0.1,1.6,0c1,0.1,2.1-0.3,3.1,0.2c2.1,0.6,3.6,1.6,4.8,3.6c1.2,2,1.7,4.2,3,6.1
		c0.6,0.9,1.2,1.6,1.9,2.4c1.4,1.3,2.6,2.9,4.5,3.5c1.7,0.6,3.5,1,5.4,1.3c2.1,0.3,4,0.8,5.4,2.5c1.1,1.4,2.1,2.9,2.1,4.9
		c0,1.4-0.4,2.8,0.3,4.1c-0.7,0.7-0.4,1.5,0,2.2c0.9,2.5,2.1,4.9,4.2,6.8c1.1,1,2.5,1.6,3.7,2.4c1.8,1.2,3.6,2.3,4.6,4.2
		c0.5,0.8,0.9,1.7,0.8,2.7c0,1.1,0,2.2,0,3.4c0,1.5-0.1,3-1,4.3c-0.2,0.4,0.3,1-0.5,1.1c-0.2-0.3,0.2-0.7-0.5-1.1
		c0.2,1.1-0.7,1.9,0.3,2.7c-0.8,1.7-0.3,3.4,0.3,5.1c0.7,2.1,2.2,3.6,3.5,5.3c1.9,2.4,3.2,5,2.6,8.2c-0.6,0.9-0.7,2-1.4,2.9
		c-1,1.3-2,2.6-2.9,3.9c-1.5,1.9-2.7,4-2.5,6.6c-0.1,2.5,0.3,4.9,1.1,7.2c0.1,0.2,0.3,0.5,0.4,0.7c0,0.2,0.1,0.5,0.1,0.7
		c0.1,0.4,0.2,0.8,0.3,1.2c0.2,1.1,0.2,2.3,0,3.4c-0.7,1.3-1.1,2.9-2.4,3.9c-1.1,0.9-2.3,1.7-3.5,2.4c-5.1,2.9-8.1,7.1-7.7,13.2
		c0,1.2-0.1,2.4-0.1,3.6c-0.3,0.1-0.3,0.4-0.4,0.7c-1,2.4-2.6,4.2-5.1,5c-1.8,0.6-3.8,1-5.7,1.4c-2.7,0.5-4.8,2-6.7,3.9
		c-1.9,1.9-2.7,4.4-3.7,6.7c-1.3,3.3-4.7,5.9-8.8,5.5c-2.6-0.3-5.1-0.7-7.7-0.5c-1.8,0.1-3.5,0.7-5.1,1.6c-2.5,1.4-4.3,3.7-6.3,5.7
		c-2.2,2.1-4.8,2.7-7.7,2.2c-2.2-0.4-4.2-1.7-6.2-2.6c-3.1-1.5-6.4-1.7-9.6-0.8c-2.1,0.6-4,1.6-6,2.6c-2,1-4,1.1-6.1,0.7
		c-2.7-0.5-4.4-2.4-6.1-4.3c-3.9-4.4-8.7-6-14.4-4.8c-1.8,0.4-3.6,0.5-5.4,0.1c-2.2-0.5-4.2-1.7-5.3-3.8c-0.6-1.2-1.1-2.4-1.6-3.6
		c-1.3-3-3.1-5.6-6.1-7.3c-2.3-1.3-4.8-1.7-7.2-2.2c-2.6-0.5-4.5-1.7-6.1-3.8C20.1,141.1,20.1,139.9,19.4,139.1z M107.8,111.9
		c3.2,0.3,6.4-0.3,9.6-1c1.2-0.3,2.6-0.4,3.6-1.2c0.2-0.2,0.6-0.2,0.5-0.7c-0.4-1.7-0.7-3.5-0.9-5.2c-0.4-3.5-0.5-3.4-3.7-2.5
		c-3.5,0.9-7.1,1.3-10.8,0.5c-4.6-1-6.8-3.8-7.3-7.8c-0.5-4,0.1-8,1.9-11.8c1-2,2.2-3.7,3.9-5c4-3,8.7-3.2,13.4-2.6
		c2.3,0.3,4.4,0.9,6.6,1.8c0.9,0.4,1.4,0.3,1.7-0.8c0.5-1.7,1.3-3.3,1.7-5.1c0.2-1,1.5-1.8,0.6-2.9c-0.7-0.8-1.9-1-3-1.4
		c-5.9-2-12-2.4-18.1-1.3c-6.2,1.1-11.4,4.1-15.4,9c-3.5,4.4-4.9,9.7-5.4,15.2c-0.2,2.6-0.2,5.3,0.4,7.9c0.5,2.1,0.9,4.3,2.1,6.2
		c1.6,2.5,3.5,4.7,6.1,6.2C99.3,111.2,103.4,112.2,107.8,111.9z M64.9,111.3C64.9,111.3,64.9,111.3,64.9,111.3c4.9,0,9.8,0,14.6,0
		c1,0,1.5-0.4,1.6-1.4c0.3-2.2,0.8-4.5,1.2-6.7c0.5-2.3,0.5-2.1-1.6-2.1c-5.6,0-11.1,0-16.7,0c-0.4,0-1.2,0.1-1.1-0.4
		c0.1-0.9-0.3-1.9,0.1-2.8c0.4-1.1,0.5-2.3,0.8-3.5c0.4-2.3,0.8-4.5,1.2-6.8c0.6-3.1,1.2-6.3,1.7-9.4c0.7-4,1.4-7.9,2.2-11.9
		c0.2-1.3,0.3-1.4-1.1-1.4c-3.1,0-6.2,0-9.4,0c-0.9,0-1.4,0.3-1.5,1.2c-1.2,6.9-2.5,13.7-3.8,20.5c-0.9,4.5-1.6,8.9-2.5,13.4
		c-0.6,3.2-1,6.5-1.6,9.7c-0.3,1.3,0.3,1.4,1.3,1.4C55.2,111.3,60.1,111.3,64.9,111.3z M139.4,94.3c0.1,0,0.4,0.1,0.6,0.2
		c1.4,0.7,2.9,1.5,4.3,2.3c0.2,0.1,0.5,0.4,0.7,0.1c0.2-0.2,0.3-0.4,0.2-0.7c-0.6-1-0.3-2.2-0.7-3.2c-0.6-1.6-0.4-2.3,0.8-3.4
		c0.9-0.8,1.8-1.7,2.7-2.5c0.2-0.2,0.6-0.3,0.5-0.8c-0.1-0.4-0.5-0.4-0.8-0.4c-1.6,0-3.1-0.6-4.7-0.6c-0.5,0-0.9-0.3-1.1-0.8
		c-0.7-1.4-1.3-2.8-2-4.1c-0.2-0.3-0.3-0.7-0.7-0.8c-0.5-0.1-0.5,0.4-0.7,0.7c-0.7,1.3-1.3,2.6-2,4c-0.3,0.6-0.7,1-1.3,1
		c-1.5,0-3,0.6-4.5,0.6c-0.3,0-0.7,0-0.8,0.4c-0.2,0.5,0.2,0.7,0.5,0.9c1.3,0.8,2.2,2.1,3.3,3c0.4,0.4,0.8,0.8,0.5,1.5
		c-0.5,1.2-0.2,2.6-0.9,3.8c-0.2,0.3,0,0.9,0.3,1.2c0.3,0.2,0.6-0.1,0.9-0.2c1.2-0.5,2.4-1.2,3.5-1.7
		C138.5,94.5,138.8,94.3,139.4,94.3z M40.9,96c0-1.2-0.4-2.6-0.8-3.9c-0.2-0.8-0.1-1.4,0.4-1.9c1.1-1,2.2-2.1,3.3-3.1
		c0.2-0.2,0.6-0.1,0.5-0.5c-0.1-0.3-0.5-0.2-0.7-0.3c-1.6-0.6-3.2-0.7-4.9-0.7c-0.5,0-0.9-0.1-1.1-0.7c-0.4-1.6-1.5-2.9-2.1-4.4
		c-0.1-0.2-0.1-0.5-0.4-0.5c-0.3,0-0.4,0.2-0.5,0.4c-0.7,1.5-1.5,3-2.2,4.5c-0.2,0.4-0.3,0.4-0.7,0.5c-1.8,0.3-3.5,0.5-5.3,0.8
		c-0.3,0-0.6-0.1-0.7,0.3c-0.1,0.4,0.2,0.5,0.4,0.7c1,0.9,1.9,2,3,2.8c0.8,0.6,1,1.3,0.9,2.3c-0.2,1.2-0.5,2.4-0.7,3.6
		c-0.1,0.3-0.4,0.7,0,1c0.3,0.2,0.7,0.1,1-0.1c1.3-0.6,2.5-1.3,3.8-2c0.7-0.4,1.2-0.4,1.9,0c1.3,0.7,2.7,1.4,4.1,2.1
		C40.5,96.9,41,97.1,40.9,96z M68.5,148.8c0.2-0.5,0-0.9-0.1-1.3c-0.5-1.6-1-3.3-1.5-4.9c-0.2-0.6-0.2-0.9,0.6-1.1
		c2.2-0.4,4-2.3,4.2-4.4c0.2-2.5-0.8-4.2-3.2-5.1c-2.2-0.8-4.6-1.5-6.8-2.3c-0.9-0.3-1.3,0-1.6,0.8c-1.4,4-2.7,8.1-4.1,12.1
		c-0.7,1.9-1,1.9,1.4,2.7c0.9,0.3,1.2,0,1.5-0.7c0.3-1,0.7-2,1-3.1c0.2-0.6,0.3-1.6,1-1.4c0.9,0.3,2.2,0.2,2.6,1.6
		c0.4,1.7,0.9,3.4,1.4,5.2c0.1,0.6,0.4,0.9,1,1.1C66.7,148.3,67.6,148.6,68.5,148.8z M113.3,135c-2.6,0.3-4.6,1.6-4.7,4.5
		c-0.1,1.9,0.6,3.5,1.5,5c2.2,3.5,5.7,3.2,7.8,1.1c0.5-0.5,0.7-1.7,1.5-0.3c0.1,0.1,0.4,0.1,0.6,0.1c2-0.3,2.3-0.9,1.5-2.8
		c-0.1-0.1-0.1-0.3-0.2-0.4c-1.3-3.6-2.5-7.2-3.8-10.8c-0.8-2.3-0.9-2.3-3.1-1.3c-0.6,0.3-0.8,0.5-0.5,1.2c0.4,0.9,0.7,1.9,1,2.8
		c0.1,0.4,0.5,0.9,0.3,1.2c-0.4,0.4-0.8-0.1-1.2-0.2C113.7,135,113.5,135,113.3,135z M84,143.9c0-0.5,0-0.9,0.1-1.2
		c0.2-1.8-0.5-3.1-2.1-3.7c-2.1-0.8-4.2-1-6.5-0.4c-1.4,0.4-0.8,1.3-0.8,2c0,0.9,0.8,0.5,1.3,0.5c1,0,2,0,3,0c0.6,0,1.1,0.3,1.4,0.7
		c0.3,0.4,0.5,0.9,0.2,1.3c-0.2,0.5-0.7,0.3-1.1,0.2c-0.7-0.1-1.3-0.2-2-0.3c-1.5-0.1-2.9,0-4,1.3c-1.1,1.3-1.3,4.4,0.7,5.3
		c1.7,0.8,3.3,0.9,4.9,0.1c0.3-0.1,0.7-0.4,0.8,0c0.4,1.4,1.5,0.6,2.3,0.9c0.5,0.1,0.8-0.1,0.9-0.7C83.4,147.8,84,145.8,84,143.9z
		 M101.8,150c1.9,0,3.6-0.5,5.2-1.4c0.9-0.5,0.3-0.9,0.1-1.4c-0.2-0.6-0.5-1-1.2-0.6c-0.6,0.3-1.3,0.6-2,0.8c-1.5,0.5-3.1,0.2-4-0.8
		c-0.6-0.7-0.4-1.1,0.5-1.3c1.3-0.2,2.7-0.4,4-0.6c2.6-0.4,2.6-0.4,2.1-3c-0.4-1.8-2.1-3.6-3.7-3.9c-2.2-0.3-5.2,0.8-6.1,2.4
		c-0.9,1.6-1,3.1-0.6,4.9C96.8,148.3,98.1,150,101.8,150z M62.4,38.7c-0.3,0.8,0.2,1.7,0.6,2.6c1.3,3.3,4.7,4.4,7.1,1.6
		c0.2-0.3,0.5-0.5,1-0.2c0.7,0.4,1.5-0.1,2.1-0.5c0.4-0.4,0-0.9-0.2-1.4c-1.2-3.1-2.3-6.1-3.4-9.2c-0.6-1.7-0.5-1.6-2.2-1.1
		c-0.9,0.3-1,0.6-0.6,1.3c0.2,0.5,0.4,1.1,0.6,1.7c0.5,1.3,0.5,1.3-0.9,1.3C63.8,34.8,62.4,36.1,62.4,38.7z M88,144.7
		c0.1,1.4,0.1,2.7,0.3,4c0.1,0.8,0.5,1.5,1.3,1.9c1.3,0.6,2.6,0.4,3.8,0.2c0.7-0.1,0.5-0.9,0.4-1.4c0-0.6-0.3-0.9-0.9-0.8
		c-1.3,0.2-1.6-0.6-1.6-1.7c0-1.2,0-2.3,0-3.5c-0.1-1.6-0.1-1.7,1.5-1.7c1.1,0,0.9-0.7,0.9-1.4c0-0.7-0.1-1.1-0.9-1.1
		c-1.6,0-1.6-0.1-1.7-1.7c0-0.4,0.2-1-0.4-1.1c-0.9-0.2-1.8-0.2-2.6,0.1c-0.6,0.3-0.3,1.1-0.3,1.6c0,0.7-0.1,1.1-1,1.2
		c-1.1,0.2-0.4,1.2-0.5,1.8c-0.1,0.5,0.2,0.8,0.8,0.7c1-0.1,1.1,0.4,1,1.1C88.1,143.6,88,144.2,88,144.7z M85.1,27.4
		C85,27.3,85,27.3,85.1,27.4c-0.8,0-1.5-0.1-2.3,0.1c-4.8,1.2-6.6,7.5-3.2,11.2c2.3,2.6,5.4,2.4,8.3,1.6c0.2-0.1,0.5-0.1,0.7-0.3
		c0.8-0.5,0.3-1.1,0.2-1.7c-0.1-0.5-0.5-0.5-1-0.3c-0.7,0.3-1.4,0.4-2.1,0.5c-1.7,0.3-3.5-0.5-4.3-1.9c-1-1.8-1-4.2,0.1-5.4
		c1.4-1.6,3.2-1.8,5.1-1.5c0.7,0.1,1.4,0.2,1.5-0.9c0.1-1-0.4-1.4-1.3-1.4C86.2,27.4,85.6,27.4,85.1,27.4z M103.8,42.5
		c0.2,0,0.7,0.1,1-0.1c0.7-0.4,0.9-0.3,1.3,0.4c0.6,1,2.1,0.7,2.5-0.4c0.4-1.2,0.8-2.4,1.2-3.6c0.4-1.2,0.8-2.4,1-3.7
		c0.2-1.3-1-1-1.7-1.3c-0.7-0.2-1,0.2-1,0.8c0,0.7-0.3,1.2-0.6,1.8c-0.4,1.2-0.5,2.7-1.6,3.7c-0.6,0.6-1.3,0.6-2,0.2
		c-0.7-0.4-0.7-1-0.5-1.7c0.5-1.5,0.8-3.1,1.4-4.6c0.8-1.9-0.9-1.3-1.6-1.7c-0.8-0.5-0.9,0.4-1,0.8c-0.5,1.5-1,3.1-1.4,4.7
		C100.1,40.6,100.8,42.3,103.8,42.5z M57.4,38.7c-2.2,0.3-3.9,1.3-5.2,3c-0.5,0.6,0.1,1,0.5,1.4c0.4,0.4,0.7,0.3,1.1-0.1
		c0.8-0.7,1.6-1.4,2.6-1.8c0.8-0.3,1.3,0,1.6,0.6c0.3,0.7-0.4,0.8-0.8,1c-0.5,0.2-1,0.4-1.5,0.7c-1.8,1.2-2.1,2.7-1,4.4
		c1,1.5,2.7,1.7,4.4,0.5c0.5-0.3,1-0.8,1.2-1.3c0.3-0.5,0.5-0.6,1.1-0.5c0.8,0.1,1.5-0.4,1.8-1c0.3-0.5-0.3-1.1-0.7-1.3
		c-0.4-0.3-0.5-0.6-0.6-1c-0.5-1.2-1.2-2.3-1.9-3.3C59.5,39.2,58.6,38.6,57.4,38.7z M48.4,44.8c-3.5,0-5.5,3.4-3.8,6.5
		c1.7,3,4.3,3.9,7.1,2.4c1.3-0.7,1.9-2,2.9-2.9c0.4-0.3,0.2-0.8-0.2-1.1c-0.7-0.6-1.3-0.6-1.8,0.3c-1,1.6-2.5,2.5-3.7,2.1
		c-0.3-0.1-0.7-0.1-0.7-0.5c0-0.4,0.3-0.5,0.5-0.6c1.1-0.9,2.2-1.8,3.3-2.7c0.5-0.4,0.7-0.7,0.3-1.3C51.3,45.8,50.1,44.8,48.4,44.8z
		 M121.2,40.4c0-1.7-1.9-3-3.9-2.8c-0.5,0.1-0.8,0.2-1-0.6c-0.2-0.8-1.1-0.9-1.8-1c-0.6-0.1-0.7,0.5-1,0.9c-1.3,2.1-2.1,4.5-3.4,6.5
		c-0.3,0.5-0.4,1.3,0.4,1.3c0.6,0.1,1.4,1.4,2-0.1c0.7-1.5,1.5-3,2.4-4.4c0.6-1,1.8-1.2,2.7-0.6c0.8,0.5,1,1.4,0.3,2.4
		c-0.8,1.2-1.4,2.6-2,3.9c-0.3,0.6-0.4,1.1,0.4,1.4c0.6,0.3,1.1,0.8,1.8-0.1c1.2-1.6,1.7-3.4,2.6-5.1C121,41.6,121.4,41,121.2,40.4z
		 M132.7,48.1c-1.9-0.3-5.2,2.3-5.5,4.2c-0.2,1.3-0.1,2.4,0.7,3.4c0.9,1.1,1.8,2,3.1,2.6c0.7,0.3,1.1,0.5,1.6-0.4
		c0.5-0.9-0.2-1-0.7-1.3c-1.2-0.7-2.5-1.3-2.3-3.1c0-0.3-0.1-0.7,0.3-0.9c0.4-0.2,0.7,0.1,0.9,0.3c1,0.9,2.1,1.8,3,2.8
		c0.4,0.4,0.7,0.5,1.1,0.2c1.6-1,2.5-3.2,2.1-4.9C136.6,49.6,134.4,48.1,132.7,48.1z M94.7,31.2c-3.5-0.2-4.9,2.2-4.9,5
		c0,2.9,1.7,4.7,4.7,4.8c2.9,0.2,4.6-2.5,4.7-5.1C99.3,33.5,97.8,30.9,94.7,31.2z M125.1,41.9c-2.4,0-3.5,1.9-2.4,4.1
		c0.4,0.7,0.9,1.3,1.3,1.9c0.2,0.4,0.9,0.8,0.3,1.3c-0.5,0.5-1.1,0.3-1.5-0.1c-0.6-0.4-1.2-0.8-1.6-1.5c-0.3-0.6-0.8-0.6-1.3-0.2
		c-0.3,0.3-1.1,0.6-0.5,1.3c1,1,1.8,2.1,3.2,2.7c1.7,0.7,3,0.5,4.1-0.8c0.9-1,0.8-2.2-0.2-3.7c-0.4-0.6-0.9-1.1-1.3-1.7
		c-0.2-0.4-0.2-0.7,0.2-1.1c0.5-0.5,0.6,0,0.8,0.2c0.8,0.4,1.4,1.2,1.9,1.9c0.4,0.5,0.8,0.4,1.1,0c0.3-0.4,1.3-0.4,0.7-1.2
		C128.7,43.4,127.3,42,125.1,41.9z M48.2,56.4c-0.3-0.6-0.7-0.9-1.2-1.2c-0.4-0.2-0.8-0.1-1.1,0.2c-0.8,0.9-1.6,1.8-2.4,2.7
		c-1,1.2-1,1.2-2.1,0.2c-2.2-1.8-4.4-3.6-6.5-5.4c-1-0.8-1.5-0.1-2.1,0.5c-0.7,0.7-0.2,1.1,0.3,1.6c2.9,2.3,5.7,4.7,8.6,7
		c0.5,0.4,0.9,0.6,1.4,0.1c1.6-1.8,3.1-3.6,4.7-5.4C48,56.6,48.1,56.5,48.2,56.4z M133.1,60.5c0,0.8,1.2,2.4,1.8,2.5
		c0.6,0.1,0.9-0.4,1.3-0.7c0.5-0.3,0-0.5-0.1-0.7c-0.3-0.5-0.2-0.9,0.3-1.3c2.5-1.8,4.9-3.7,7.4-5.6c0.6-0.4,0.9-0.9,0.3-1.4
		c-0.5-0.5-0.8-1.7-1.9-0.7c-1.1,0.9-2.3,1.7-3.4,2.6c-1.6,1.3-3.3,2.5-4.9,3.8C133.5,59.5,133.1,60,133.1,60.5z M152.2,51.3
		c0-0.9-2.5-4.5-3.2-4.8c-0.6-0.3-1,0.1-1.4,0.4c-0.4,0.4-0.5,0.9-0.2,1.4c0.9,1.2,1.7,2.5,2.6,3.7c0.4,0.5,1,0.5,1.5,0.4
		C152.1,52.2,152.2,51.8,152.2,51.3z M17.3,90.8C17.3,90.8,17.2,90.8,17.3,90.8c-0.1-0.7,0-1.4-0.1-2.1c-0.1-0.7-0.4-1.3-1.3-1.3
		c-0.8,0-1.3,0.4-1.3,1.1c0,1.5-0.2,3.1,0.3,4.6c0.2,0.8,0.8,1,1.5,0.9c0.7-0.1,1-0.6,1-1.3C17.3,92,17.3,91.4,17.3,90.8z
		 M163.3,90.4c0-0.8,0-1.5,0-2.1c0-0.7-0.5-1.1-1.1-1.2c-0.5-0.1-1.2,0-1.2,0.6c-0.1,1.7-0.4,3.5-0.2,5.2c0.1,0.5,0.5,0.8,1,0.8
		c0.5,0,1-0.1,1.3-0.7C163.5,92.2,163.3,91.2,163.3,90.4z M160.8,102.5c0.7,0,1-0.4,1.2-1c0.2-1.1,0.4-2.3,0.7-3.4
		c0.2-0.9-0.1-1.9-0.8-2.2c-0.7-0.2-1.5,0.3-1.7,1.4c-0.3,1.2-0.2,2.4-0.6,3.6C159.2,101.8,159.9,102.5,160.8,102.5z M162,75
		c-0.2-1.3-0.5-2.6-0.9-3.8c-0.3-0.9-0.7-1.5-1.7-1.2c-0.9,0.2-1.1,1.1-0.8,2.1c0.3,1,0.6,2,0.8,3.1c0.1,1,0.8,1.3,1.5,1.3
		C161.7,76.4,162.1,75.8,162,75z M125.8,150.4c-0.1,0,0.1,0,0.2-0.1c1.2-0.8,2.6-1.3,3.7-2.2c0.6-0.5,1-1,0.6-1.7
		c-0.4-0.6-1.1-0.8-1.8-0.4c-1.3,0.7-2.6,1.5-3.9,2.3c-0.5,0.3-0.7,0.8-0.5,1.3C124.5,150.2,124.9,150.5,125.8,150.4z M157.4,109.5
		c0,0.6,0.2,1.1,0.8,1.3c0.7,0.2,1.3-0.1,1.6-0.7c0.5-1.4,1-2.8,1.2-4.3c0.1-0.6-0.1-1.1-0.8-1.3c-0.7-0.2-1.3,0.1-1.6,0.7
		C158.2,106.6,157.8,108.1,157.4,109.5z M19.2,110.9c1,0,1.5-0.5,1.2-1.5c-0.3-1.3-0.7-2.5-1.1-3.8c-0.2-0.8-0.7-1.2-1.5-1.1
		c-0.8,0.2-1.2,0.8-1,1.6c0.4,1.4,0.8,2.9,1.4,4.3C18.5,110.9,18.8,110.9,19.2,110.9z M100.6,159.1c1.4-0.3,2.8-0.5,4.2-0.8
		c0.7-0.2,1-0.7,0.9-1.4c-0.1-0.8-0.7-1-1.4-0.9c-1.3,0.2-2.7,0.4-4,0.7c-0.8,0.2-1.3,0.6-1.2,1.5C99.2,159,99.8,159.1,100.6,159.1z
		 M25.7,55.3c0.1-0.7-0.3-1.1-0.9-1.2c-0.7-0.2-1.2,0.1-1.5,0.7c-0.6,1.1-1.2,2.3-1.8,3.5c-0.4,0.8-0.4,1.5,0.3,1.9
		c0.8,0.4,1.5,0,1.9-0.8c0.5-1,1-1.9,1.5-2.9C25.4,56.1,25.8,55.8,25.7,55.3z M51.1,27.5c0,0.9,0.8,1.6,1.5,1.2
		c1.5-0.7,3-1.5,4.5-2.4c0.7-0.4,0.6-1.3-0.1-1.7c-0.5-0.3-1-0.3-1.5-0.1c-1.3,0.6-2.5,1.3-3.8,2C51.4,26.7,51,27,51.1,27.5z
		 M43.7,32.4c0,1.1,0.8,1.5,1.8,0.9c1.1-0.7,2.1-1.5,3.2-2.1c0.8-0.5,1.2-1.1,0.8-1.9c-0.5-0.8-1.4-0.6-2-0.3
		c-1.1,0.6-2.1,1.4-3.2,2.2C43.9,31.4,43.7,31.8,43.7,32.4z M77.2,159c1.1,0.1,1.8-0.2,1.9-1c0.1-0.8-0.5-1.3-1.2-1.4
		c-1.4-0.3-2.8-0.5-4.2-0.7c-0.6-0.1-1.1,0.1-1.3,0.8c-0.2,0.7,0,1.2,0.8,1.5C74.5,158.7,76,158.8,77.2,159z M120.2,25.7
		c0,0.2,0.1,0.5,0.6,0.7c1.3,0.6,2.6,1.3,3.9,2c0.8,0.5,1.3,0.2,1.7-0.4c0.5-0.7,0.2-1.3-0.4-1.6c-1.4-0.8-2.9-1.5-4.3-2.2
		C121,24,120.2,24.6,120.2,25.7z M22.1,63.1c-0.1-0.3-0.2-0.5-0.4-0.7c-0.7-0.8-1.8-0.6-2.3,0.7c-0.5,1.2-0.8,2.5-1.3,3.7
		c-0.3,0.7,0.1,1.1,0.5,1.4c0.5,0.4,1.1,0.4,1.5-0.2C21,66.5,21.3,64.7,22.1,63.1z M145.8,45.3c1,0,1.6-1,1.1-1.7
		c-1-1.3-2.1-2.4-3.2-3.6c-0.6-0.6-1.2-0.3-1.8,0.2c-0.6,0.6-0.3,1.2,0.1,1.7c0.9,1,1.8,2,2.7,2.9C145,45.1,145.4,45.4,145.8,45.3z
		 M52.4,150.5c0.5,0.1,0.9-0.1,1.1-0.6c0.2-0.5,0.2-1-0.3-1.4c-1.3-0.9-2.6-1.7-4-2.4c-0.7-0.3-1.3-0.1-1.6,0.5
		c-0.4,0.7,0,1.2,0.5,1.5c1.1,0.8,2.2,1.4,3.3,2C51.7,150.2,51.9,150.6,52.4,150.5z M117.9,154.3c1.5-0.4,3.1-1.2,4.6-2.1
		c0.4-0.2,0.4-0.9,0.1-1.3c-0.3-0.4-0.6-0.9-1.1-0.7c-1.5,0.6-3,1.4-4.6,2.1c-0.6,0.3-0.7,0.8-0.5,1.4
		C116.6,154.2,117,154.3,117.9,154.3z M140.9,37.8c0-0.1,0-0.3-0.1-0.4c-1.2-1.5-2.6-2.7-4.2-3.6c-0.5-0.3-1,0.2-1.4,0.7
		c-0.3,0.5-0.3,0.8,0.1,1.1c1.2,1.1,2.5,2.3,3.8,3.3C139.9,39.4,140.9,38.8,140.9,37.8z M15.8,75.1c0,0.8,0.2,1.4,0.9,1.6
		c0.6,0.2,1.3-0.2,1.5-0.8c0.4-1.4,0.8-2.9,1.1-4.3c0.2-0.7-0.3-1.1-0.9-1.3c-0.6-0.2-1.3-0.1-1.5,0.6
		C16.5,72.3,16.2,73.7,15.8,75.1z M39.3,138.9c0-0.3-0.1-0.5-0.3-0.7c-1.1-1.1-2.2-2.2-3.3-3.3c-0.5-0.5-1-0.4-1.4,0
		c-0.5,0.4-0.7,0.9-0.2,1.6c1,1.2,2.1,2.4,3.4,3.4c0.4,0.3,0.9,0.3,1.2,0.1C39,139.7,39.4,139.5,39.3,138.9z M60.5,154.4
		c0.7,0.1,1.2-0.3,1.3-0.9c0.2-0.7-0.4-1.2-0.9-1.4c-1.4-0.5-2.7-1.4-4.2-1.8c-0.6-0.2-1,0.2-1.3,0.5c-0.4,0.4-0.4,1,0.1,1.3
		C57,153.2,58.7,153.7,60.5,154.4z M98.6,19.9c0.5,0,0.9,0.1,1.2,0.1c0.6,0,1.1,0,1.3-0.7c0.2-0.8-0.2-1.4-0.8-1.5
		c-1.6-0.3-3.3-0.5-4.9-0.6c-0.6,0-1.1,0.6-1.1,1.3c0,0.7,0.5,0.9,1.1,1C96.6,19.6,97.6,20,98.6,19.9z M14.9,82.4c0,0.5,0,1.1,0,1.6
		c0,0.7,0.3,1.1,1,1.3c0.7,0.2,1.2-0.3,1.3-0.9c0.3-1.5,0.4-3,0.5-4.5c0-0.6-0.4-1.1-1.1-1.2c-0.7-0.1-1,0.2-1.3,0.9
		C14.8,80.5,15.1,81.5,14.9,82.4z M151.1,126.5c0.4,0,0.8-0.1,1-0.5c0.7-1.2,1.6-2.3,2.2-3.6c0.3-0.6,0.4-1.3-0.4-1.8
		c-0.7-0.5-1.3-0.2-1.7,0.4c-0.8,1.2-1.5,2.5-2.2,3.8C149.6,125.8,150,126.5,151.1,126.5z M136.2,140.7c0,0-0.3,0-0.5,0.2
		c-1.2,0.9-2.4,1.8-3.5,2.8c-0.4,0.3-0.9,0.7-0.3,1.4c0.5,0.6,1,0.9,1.7,0.4c1.3-0.9,2.5-1.9,3.7-2.8c0.4-0.4,0.4-0.8,0.2-1.3
		C137.3,140.9,137,140.6,136.2,140.7z M34.9,40c-0.5,0-0.9,0.2-1.2,0.5c-0.9,1-1.7,2.1-2.6,3.1c-0.5,0.6-0.6,1.1,0,1.6
		c0.6,0.5,1.3,0.5,1.8,0c1-1,2-2.1,2.9-3.2c0.4-0.4,0.3-1,0.1-1.5C35.7,40,35.3,40.1,34.9,40z M84.5,159.8c1,0,1.7,0,2.4,0
		c0.6,0,0.9-0.4,0.9-1c0-0.6-0.2-1.1-0.8-1.1c-1.6-0.2-3.3-0.2-4.9-0.3c-0.6,0-1,0.4-1.1,1c-0.1,0.7,0.3,1,0.9,1.2
		C82.9,159.8,83.9,159.7,84.5,159.8z M69,22c1.4-0.4,2.8-0.7,4.2-1.1c0.8-0.2,1.5-0.7,1.2-1.4c-0.3-0.8-1.1-1.2-1.9-0.8
		c-0.5,0.2-0.9,0.2-1.4,0.3c-0.9,0.2-1.9,0.4-2.7,0.7c-0.6,0.3-0.9,0.8-0.7,1.4C67.8,21.8,68.4,21.9,69,22z M65.7,22.1
		c0-0.9-0.8-1.4-1.8-1c-1.3,0.5-2.5,0.9-3.8,1.4c-0.8,0.3-1.3,0.8-0.9,1.6c0.3,0.7,0.9,0.9,1.7,0.7c1.4-0.5,2.7-1.1,4.1-1.6
		C65.5,23,65.8,22.6,65.7,22.1z M79,20c1.2,0,2.3-0.3,3.4-0.5c0.5-0.1,0.8-0.4,0.9-0.8c0.2-0.5-0.2-0.8-0.5-1.1
		c-0.5-0.4-1.1-0.6-1.7-0.3c-0.9,0.4-1.8,0.3-2.7,0.3c-0.5,0-1,0.2-1.5,0.4c-0.6,0.3-0.6,0.8-0.5,1.3c0.1,0.5,0.5,0.7,1,0.7
		C77.9,20,78.5,20,79,20z M113.4,20.9c-0.8-0.1-1.3,0.2-1.5,0.7c-0.2,0.5-0.2,1,0.3,1.3c1.6,0.8,3.3,1.4,5,1.8
		c0.5,0.1,1-0.1,1.1-0.7c0.1-0.5,0.2-1.1-0.4-1.4C116.5,21.8,114.8,21.4,113.4,20.9z M108.2,21.8c0.9,0.1,1.5,0,1.7-0.8
		c0.2-0.7-0.1-1.3-0.7-1.5c-1.5-0.4-3.1-0.8-4.7-1.1c-0.7-0.1-1.1,0.3-1.3,1c-0.1,0.6,0.1,1.1,0.7,1.3
		C105.4,21.2,107,21.5,108.2,21.8z M154.1,117.9c0,0.6,0.3,1,0.8,1.1c0.7,0.2,1.2-0.2,1.5-0.7c0.7-1.3,1.2-2.7,1.8-4.1
		c0.3-0.6-0.1-1.1-0.6-1.4c-0.6-0.3-1.2-0.3-1.6,0.3c-0.3,0.6-0.7,1.2-0.8,1.8C155,116,154.2,116.8,154.1,117.9z M32,133.6
		c1,0,1.6-0.8,1-1.7c-0.8-1.3-1.8-2.5-2.9-3.6c-0.4-0.5-1-0.5-1.5-0.1c-0.6,0.4-0.7,1-0.3,1.6c0.8,1.2,1.6,2.3,2.6,3.4
		C31.3,133.4,31.6,133.5,32,133.6z M68.7,157.3c0.7-0.1,1.4-0.2,1.5-1c0.1-0.8-0.4-1.2-1.1-1.4c-0.5-0.1-0.9-0.2-1.4-0.4
		c-0.9-0.3-1.9-0.6-2.9-0.8c-0.7-0.1-1.2,0.2-1.4,0.9c-0.2,0.6,0.2,1,0.7,1.2C65.7,156.3,67.2,156.8,68.7,157.3z M93,159.8
		C93,159.8,93,159.8,93,159.8c1,0,1.9-0.1,2.9-0.2c0.7-0.1,1.2-0.5,1.2-1.1c0-0.6-0.5-1.2-1.3-1.2c-1.6,0.1-3.2,0.1-4.8,0.3
		c-0.7,0.1-0.9,0.6-0.9,1.2c0,0.6,0.4,1,1,1C91.7,159.8,92.3,159.8,93,159.8z M88.8,17c-0.8,0-1.5,0.1-2.3,0
		c-0.9-0.1-1.2,0.5-1.2,1.1c0,0.7,0.5,1.2,1.2,1.2c1.6,0,3.1,0,4.7,0c0.7,0,1.2-0.5,1.1-1.1c0-0.7-0.3-1.2-1.2-1.2
		C90.3,17,89.6,17,88.8,17z M40.3,142c0,0.1,0,0.4,0.2,0.5c1.3,1.2,2.6,2.4,4.2,3.1c0.6,0.3,1.1-0.1,1.4-0.5c0.3-0.5,0.2-1-0.3-1.4
		c-1.2-1-2.5-2-3.8-2.9C41.3,140.3,40.3,140.9,40.3,142z M23.7,117.7c0.1-0.5-0.3-0.9-0.5-1.3c-0.4-1-0.7-2.2-1.4-3.1
		c-0.4-0.6-1-0.6-1.6-0.4c-0.6,0.2-0.7,0.8-0.5,1.4c0.5,1.5,1.1,2.9,1.9,4.2c0.3,0.6,0.8,0.6,1.4,0.4
		C23.5,118.8,23.8,118.4,23.7,117.7z M158.5,68c0.8,0,1.4-0.5,1.3-1.1c-0.4-1.6-0.9-3.2-1.8-4.6c-0.4-0.6-1-0.6-1.6-0.3
		c-0.4,0.2-0.8,0.5-0.6,1.1c0.5,1.4,1.1,2.8,1.6,4.3C157.7,67.8,158,68,158.5,68z M144.2,135.8c-0.1-0.5-0.4-0.8-0.8-1.1
		c-0.4-0.3-0.7-0.2-1.1,0.1c-1.1,1.1-2.3,2.1-3.4,3.2c-0.4,0.4-0.6,1-0.1,1.5c0.5,0.4,1,0.8,1.8,0.2c1.2-1,2.3-2.1,3.3-3.3
		C144,136.2,144.2,136.1,144.2,135.8z M36.9,38.1c-0.1,0.3,0,0.7,0.5,0.9c0.5,0.2,1,0.1,1.4-0.3c1.1-1,2.2-1.9,3.3-2.9
		c0.3-0.3,0.6-0.7,0.3-1.1c-0.2-0.4-0.5-0.8-1.1-0.9C40.5,33.8,36.9,36.9,36.9,38.1z M26.9,126.5c0.5,0.1,0.8-0.3,1.1-0.7
		c0.3-0.4,0.1-0.8-0.2-1.2c-0.7-1.1-1.4-2.1-2-3.3c-0.4-0.7-0.8-1.2-1.7-0.7c-0.8,0.4-0.9,1.1-0.5,1.9c0.7,1.1,1.4,2.3,2.1,3.4
		C26,126.4,26.3,126.5,26.9,126.5z M148.5,127.9c-0.5-0.1-0.8,0.3-1.1,0.6c-0.8,1-1.5,2-2.3,3c-0.4,0.5-0.5,1.2-0.1,1.6
		c0.5,0.5,1.3,0.5,1.8,0c1.1-1,2-2.2,2.8-3.4C150.1,128.8,149.6,127.9,148.5,127.9z M25.7,51.4c-0.1,0.5,0.1,0.9,0.6,1.1
		c0.5,0.2,1,0.1,1.4-0.3c0.9-1.2,1.9-2.4,2.7-3.7c0.4-0.6,0.2-1.2-0.4-1.6c-0.5-0.3-1.2-0.4-1.6,0.2c-0.7,1-1.4,1.9-2.1,2.9
		C25.9,50.4,25.5,50.8,25.7,51.4z M18.3,101.1c0-1.4-0.6-2.5-0.6-3.8c0-0.9-0.6-1.4-1.5-1.3c-1,0.1-1,0.9-0.9,1.7
		c0.1,1.2,0.2,2.3,0.5,3.5c0.2,0.8,0.6,1.3,1.4,1.3C18.2,102.5,18.3,101.8,18.3,101.1z M163.1,83.8c-0.1-1.3-0.1-2.3-0.2-3.4
		c0-0.5-0.2-1-0.5-1.4c-0.4-0.5-0.8-0.6-1.4-0.4c-0.6,0.1-0.8,0.6-0.7,1.1c0.1,1.4,0.2,2.8,0.3,4.2c0.1,0.7,0.4,1.4,1.4,1.2
		C163,84.9,163,84.2,163.1,83.8z M152.1,55.1c0.8,1.6,1.5,3.2,2.6,4.6c0.3,0.4,0.9,0.3,1.4,0c0.5-0.4,0.6-0.9,0.4-1.4
		c-0.6-1.3-1.3-2.6-2-3.9c-0.3-0.5-0.9-0.8-1.5-0.6C152.4,54.1,152,54.5,152.1,55.1z M129.4,28.7c-0.6,0-1,0.1-1.2,0.6
		c-0.2,0.5-0.2,1.1,0.3,1.4c1.2,0.8,2.4,1.7,3.7,2.5c0.6,0.4,1.3,0.3,1.7-0.3c0.4-0.6,0.2-1.2-0.4-1.7c-1.1-0.7-2.2-1.5-3.3-2.2
		C130,28.8,129.6,28.8,129.4,28.7z M109.1,157.2c1.6-0.5,3.2-1,4.8-1.6c0.6-0.2,0.6-0.8,0.4-1.3c-0.2-0.5-0.6-0.9-1.2-0.7
		c-1.4,0.4-2.9,0.8-4.3,1.3c-0.6,0.2-1.1,0.7-1,1.3C107.9,156.8,108.4,157.2,109.1,157.2z"/>
	<path class="st0" d="M68.5,136.4c0,2-1.7,3.1-3.6,2.4c-0.7-0.3-1.5-0.5-2.3-0.6c-0.9-0.2-1.4-1.1-1.1-2c0.3-0.8,0.6-1.6,0.8-2.4
		c0.2-0.6,0.5-0.9,1.1-0.8c1.1,0.3,2.1,0.6,3.1,1.1C67.6,134.6,68.4,135.3,68.5,136.4z"/>
	<path class="st0" d="M117.4,141.9c0.1,1.1-0.4,1.9-1.5,2.3c-1.1,0.5-2.1,0.1-2.8-0.8c-1-1.3-1.6-2.8-1.3-4.5
		c0.3-1.6,2.5-2.3,3.7-1.2C116.8,138.9,117.4,140,117.4,141.9z"/>
	<path class="st0" d="M77.7,148.2c-0.6-0.1-1.4-0.1-1.7-1c-0.3-0.9,0.2-1.7,1.2-1.8c0.8,0,1.5,0,2.3,0.1c1,0.1,1.2,0.6,0.7,1.5
		C79.7,148,78.8,148.2,77.7,148.2z"/>
	<path class="st0" d="M99,142.8c0.1-1.7,0.9-2.6,2-2.7c1.2-0.1,2,0.4,2.4,1.5c0.2,0.5,0.2,0.9-0.5,1.1c-1.1,0.2-2.2,0.4-3.3,0.6
		C99.1,143.3,99,142.9,99,142.8z"/>
	<path class="st0" d="M69.4,40.2c0.2,1.1-0.6,1.7-1.5,2.1c-0.8,0.4-1.3-0.2-1.8-0.7c-0.8-0.8-1.1-1.9-1.3-3c-0.1-0.9,0.3-1.5,1-1.8
		c0.9-0.4,1.7-0.3,2.3,0.4C68.9,38,69.5,39,69.4,40.2z"/>
	<path class="st0" d="M59.7,45c-0.1,1.1-1.2,2.1-2,2.1c-0.6,0-0.9-0.4-1.2-0.9c-0.3-0.5,0-0.9,0.4-1.2c0.4-0.3,0.9-0.5,1.3-0.8
		c0.3-0.2,0.6-0.5,0.9-0.3C59.6,44.3,59.7,44.8,59.7,45z"/>
	<path class="st0" d="M46.3,48.5c0-1.2,1.1-2.1,2.2-1.7c0.4,0.1,0.8,0.4,1,0.8c0.1,0.4-0.3,0.7-0.6,0.9c-0.3,0.3-0.6,0.5-1,0.7
		c-0.3,0.2-0.5,0.8-1.1,0.5C46.2,49.5,46.3,49,46.3,48.5z"/>
	<path class="st0" d="M135,51.9c0.1,0.5-0.3,0.9-0.7,1.2c-0.5,0.4-0.8-0.2-1.1-0.4c-0.3-0.2-0.6-0.5-0.9-0.7c-0.3-0.3-0.8-0.5-0.7-1
		c0.1-0.5,0.6-0.6,1-0.7C133.8,49.9,134.9,50.7,135,51.9z"/>
	<path class="st0" d="M92.4,35.8c0-0.8,0.3-1.9,1.5-2.5c0.7-0.3,1.5-0.2,2.1,0.4c0.9,1,0.9,2.2,0.4,3.4c-0.6,1.6-1.2,2.1-2.2,1.9
		C93,38.7,92.4,37.8,92.4,35.8z"/>
</g>
</svg>
