<svg id="Layer_1" data-name="Layer 1" xmlns="http://www.w3.org/2000/svg" viewBox="0 0 541.07 177.48"><title>superlawyers</title><path d="M421.44,175.29c3-7.64,6-14.85,8.67-22.18a11.58,11.58,0,0,0,.49-6.19c-4-17.65-8.26-35.25-12.43-52.86a6.6,6.6,0,0,0-.68-2.38c-1-1.35-2.24-2.54-3.38-3.79-1.13,1.26-2.91,2.36-3.27,3.81-1.88,7.73-3.43,15.55-5.06,23.35-1.89,9.11-4,18.2-5.5,27.38-.72,4.36-3.44,3.75-6.2,3.58s-6.26,1.35-7-3.85c-1.14-8-3.17-16-4.86-23.92a4,4,0,0,0-2.05-2.65c-1.1,4.87-2.21,9.75-3.28,14.63-.93,4.23-2,8.43-2.69,12.69-.79,4.88-4.45,2.73-7,3.11-2.93.43-5.12-.19-5.76-3.73-1.54-8.5-3.33-16.95-5-25.42-1.46-7.5-2.58-15.08-4.45-22.48-.78-3.06-3.1-5.73-5.31-9.62,6.7-1,13.73-.65,22.56,0-8.64,5.54-4.48,11.89-3.62,17.62a248.77,248.77,0,0,0,6.61,30.89,36.27,36.27,0,0,0,1.38-4.37c1.5-8,3-16,4.31-24.07,1.14-7,.62-13.74-6.47-19.87,8-1.34,15-.54,22.14-.65,0,1.1.15,1.93,0,2-5.58,2.25-4.13,6.57-3.35,10.82,2,11,3.86,22,5.82,32.94a4.73,4.73,0,0,0,2.06,3.2c.53-2.45,1.11-4.9,1.58-7.37,1.83-9.65,3.57-19.31,5.46-28.95.83-4.27,1.53-8.4-2.62-12.11h32.08c.11.56.3,1.11.21,1.16-4.82,2.72-4.38,6.58-3.24,11.29,2.07,8.56,3.41,17.3,5.09,26,.2,1.06.64,2.08,1.37,4.35a28,28,0,0,0,1.94-4.28c2-8.92,4-17.87,6-26.8.89-3.93,2-7.86-3-10.43l.5-1.37,11.84-.59c.34.94.64,1.41.54,1.53-7.06,8.45-6.87,19.37-9.6,29.21-4.94,17.78-8.86,35.85-13.26,53.79C430.91,177,430.85,177,421.44,175.29Z" transform="translate(-28.3 -0.84)"/><path d="M131.85,145.6c0,9-.21,17.93.18,26.82.07,1.79,2.44,3.48,4.27,5.89H116.36c0-.7-.11-1.81.13-1.91,4.75-1.87,3.73-5.94,3.73-9.59,0-21.83,0-43.67,0-65.5,0-4.06.57-8.11-5.25-8.41-.25,0-.46-.79-1-1.74l15.51-7.28c.37,2.58.65,4.49.93,6.41l2.12,1.85c.62-1.52.91-3.34,1.93-4.53,6.07-7.12,16-6.13,20.19,2.25a33.58,33.58,0,0,1,3.56,12.31c.54,8.27,1.1,16.74-.09,24.87C155.7,144.17,149.14,148.51,131.85,145.6Zm-.72-27.41.55,0c0,4.83-.14,9.67,0,14.49.21,5.39,2.86,9.22,6.63,9.27,5,.07,5.89-4.06,7-7.73a8.54,8.54,0,0,0,.49-2.43c.12-10.61.42-21.22.17-31.81-.09-3.93-1.05-8.8-5.89-9.26s-6.53,4.39-7.2,8.15C131.83,105.25,131.69,111.75,131.13,118.19Z" transform="translate(-28.3 -0.84)"/><path d="M59.79,68.44c-6,1.45-3.71-3.24-4.22-5.2-1.06-4.11-2.63-7.31-7.35-7.39-4.16-.07-7.3,3.44-7.46,8.38a17.85,17.85,0,0,0,.85,6.34c1.31,3.76,3,7.39,4.63,11,5.4,11.94,11.48,23.64,16,35.91,1.87,5.09,1.23,11.54.29,17.14-1.58,9.45-11,14.17-21.81,12.16a13.94,13.94,0,0,0-6.36.74c-2.92.89-4.45.11-4.86-2.89a78.59,78.59,0,0,1-1-15.53c1.27.92,2.9,1.6,3.74,2.82,1.1,1.6,1.08,4.23,2.44,5.34,2.38,2,5.53,4.41,8.19,4.23s6.19-2.81,7.41-5.31c4.11-8.45,0-16.24-3.62-23.71-4.93-10.16-10.5-20-15.35-30.22a34.75,34.75,0,0,1-2.89-11.53c-1.28-13.8,8-22,21.67-19.86a49.55,49.55,0,0,0,8.62.22c2.74-.06,3.5,1.26,3.1,3.75C61.12,59.28,60.49,63.71,59.79,68.44Z" transform="translate(-28.3 -0.84)"/><path d="M65.43,91.17,82.77,83.4V96.72q0,15.75,0,31.5a25.32,25.32,0,0,0,.07,3.49c.45,3.36-.1,7.63,4.44,8.41s6.38-2.86,7.81-6.34a14.61,14.61,0,0,0,1.15-5.29c.16-9.82.16-19.65.19-29.48,0-3-.15-5.87-4.46-5.49-.48,0-1-1.1-2-2.19l18-8.06v17.87c0,11.33-.16,22.67.11,34,.07,2.87,1.54,5.7,2.69,9.66l-12.18,2.3-1.33-7.2c-1.44,1.26-2.41,2-3.27,2.88-4,4-10.5,5.68-15.06,3.66-5.26-2.33-7-7-7.06-12.22-.15-11.16-.1-22.33,0-33.5,0-3.93.44-7.9-5.42-7.56C66.26,93.16,66,92.33,65.43,91.17Z" transform="translate(-28.3 -0.84)"/><path d="M262,51.48c7.92,0,14.19-.07,20.46.06,1.11,0,2.21.87,3.31,1.33a19,19,0,0,0-2.4,2.34c-1,1.34-2.43,2.82-2.44,4.25q-.22,39.45,0,78.92c0,1.18,2.13,3.28,3.39,3.37,8.46.64,12.9-1.22,14.16-8.85.15-.89,1.69-1.56,2.58-2.33.5,1.05,1.49,2.15,1.41,3.16A76.66,76.66,0,0,1,300.91,145a4.23,4.23,0,0,1-3.12,2.61c-9.72-.35-19.42-1-29.12-1.57a13.43,13.43,0,0,1-3-.05,11.45,11.45,0,0,1-2.62-1.6,9,9,0,0,0,1.89-1.68c1-1.53,2.51-3.18,2.52-4.8q.34-38.74.17-77.48c0-1.84-2.08-3.68-3.21-5.5C263.92,54.15,263.34,53.37,262,51.48Z" transform="translate(-28.3 -0.84)"/><path d="M311.09,89.42c4.26-2,8.11-4.42,12.32-5.56,11-3,18.16,2.26,18.55,13.53s0,22.65.14,34c0,4.53-1.84,9.95,5.67,11.84l-1,1.49L333,147.26l-.93-6.94c-3.77,5.48-8.14,7.28-13.46,6.74-5-.52-8.3-3.19-9.62-8.06-3.88-14.28,2.17-25.69,16.19-30.93,2.25-.84,5.83-.41,5.64-4.37-.25-5,1.08-11.16-4.3-13.92-2.35-1.21-6.5.47-9.59,1.52C314.76,92,312.92,94.28,311.09,89.42Zm19.12,21.14a21.1,21.1,0,0,0-2.48,1c-7.25,4.2-10.55,12.86-8.23,23.17.52,2.31,3,4.17,4.57,6.23,2.05-1.85,5.69-3.57,5.86-5.58C330.62,127.36,330.21,119.29,330.21,110.56Z" transform="translate(-28.3 -0.84)"/><path d="M492.2,135.36c-3.08,6.94-7.58,11.48-15.44,11.69-8.1.22-13.95-3.53-16.92-10.75a52.07,52.07,0,0,1,1.26-43.94c3.11-6.45,8.73-10,16.3-9,7.07.92,11,5.46,13.24,11.94,3.71,10.67,3.68,10.87-6.06,15.92-4.43,2.29-8.92,4.48-13.13,7.13a6.45,6.45,0,0,0-2.6,4.56,49,49,0,0,0,.92,10.87c.76,4,2,7.94,6.91,8.67s8.19-2,10.59-5.86C488.47,134.58,489.31,132.4,492.2,135.36ZM467.75,113l2.33,1c3.35-2.52,8.74-4.5,9.58-7.68,1.31-4.93-.26-10.73-1.14-16.06-.21-1.21-2.59-2.73-4-2.83-1.12-.07-3.21,1.73-3.43,2.94C469.72,97.91,468.8,105.48,467.75,113Z" transform="translate(-28.3 -0.84)"/><path d="M200.94,133.63c.06,1.57.69,3.42.08,4.65-3.06,6.09-8.25,8.66-15,8.73-7.2.06-12.45-3.41-15.19-9.48-6.89-15.26-6.48-30.73,1-45.73a14.6,14.6,0,0,1,14.08-8.62c6.58.12,10.81,3.63,13.76,9.13a25,25,0,0,1,1.47,3.15c3.66,9.8,3,11.4-6.21,16-4.17,2.07-8.25,4.37-12.52,6.2-3,1.27-4,3.19-3.63,6.21.57,4.09.57,8.38,1.87,12.23,2.61,7.72,10.09,8.7,15.37,2.32,1.14-1.39,2.07-3,3.1-4.43Zm-21.66-19.88c4.56-2.83,10.71-2.94,11.35-8.89.49-4.62-.63-9.51-1.65-14.14-.31-1.44-2.53-3.18-4.07-3.39-1.08-.15-3.09,1.82-3.64,3.25C178.48,97.77,178.23,105.25,179.28,113.75Z" transform="translate(-28.3 -0.84)"/><path d="M540.15,146.74c0-4.25-4.69-8.9-.94-15.63,1.77,3.1,2.65,5,3.87,6.72,2.9,3.95,8.23,5.27,12,3.14a7.91,7.91,0,0,0,2.86-10.82c-4.24-6.85-9.63-13-14.28-19.6-2.36-3.35-5-6.87-6-10.7-2.1-8.38,4.67-16.44,13.43-16.59,5-.08,10,.49,15.59.8-.39,4.46-.81,9.3-1.23,14.14l-1.51.7c-.69-1.14-1.37-2.28-2-3.42-1.53-2.57-2.51-6.23-4.77-7.38-1.94-1-6,.1-7.94,1.69-3,2.4-2.12,6.28,0,9,3.82,5,8.05,9.72,12.22,14.45,5.11,5.79,9,12,7.77,20.18-1.37,8.79-8.73,14.17-17.55,13.33C548.13,146.46,544.63,146.74,540.15,146.74Z" transform="translate(-28.3 -0.84)"/><path d="M518.52,145.45h-19c5-3.41,3.75-8.16,3.77-12.44q.06-16.48,0-32.95c0-3.35.94-7.48-4.87-6.75-.3,0-.73-1-1.57-2.16l16-7.66c.2,3.42.35,6.11.59,10.36,5.35-5.82,9-13.13,18.32-9.87-.31,4.1-.58,8.5-1.05,12.87-.08.69-1.11,1.28-1.71,1.92a15.81,15.81,0,0,1-1.58-1.59c-1.19-1.53-2.76-4.61-3.38-4.42-2.31.69-5.14,2-6.23,3.92a22.36,22.36,0,0,0-2.77,9.86c-.35,9.31-.07,18.63-.12,28,0,3.92-.75,8,4.43,9.95Z" transform="translate(-28.3 -0.84)"/><path d="M229,145.38H209.11c6.9-4.69,4.55-10.95,4.69-16.54.25-10,.1-20,0-29.94,0-2.76.52-6.14-4.23-5.35-.37.06-1.44-1.26-1.31-1.56a4.24,4.24,0,0,1,1.82-2c4.27-2.16,8.61-4.21,13.59-6.61.19,3.27.35,6.08.6,10.45,1.79-2.22,2.78-3.3,3.61-4.5,2.85-4.12,6.53-6.69,11.72-6.06,1,.12,2.68,1.38,2.65,2.06a103.1,103.1,0,0,1-1.21,11.34c-.12.76-1,1.39-1.59,2.07a23.51,23.51,0,0,1-1.71-1.89c-1.05-1.43-2-4.08-3.05-4.11-1.86,0-4.7,1-5.47,2.43-1.88,3.59-3.74,7.63-3.95,11.57-.54,10.29-.41,20.63,0,30.93C225.38,140.13,227.56,142.49,229,145.38Z" transform="translate(-28.3 -0.84)"/><path d="M160.63,26.62V1.35c4.53,0,8.85-.36,13.06.18,1.76.22,4.46,2.23,4.64,3.68.33,2.74-.86,5.67-1.61,9.45,1.61,1.58,4.42,4.35,2,8.39-.9,1.51-2.76,3.24-4.33,3.41C170,26.92,165.51,26.62,160.63,26.62Zm7.49-12.13c-1,.3-4.18.39-4.68,1.58-.92,2.22-1.05,7-.17,7.33a19.94,19.94,0,0,0,9.78.93c1.52-.21,3.91-2.84,3.78-4.16-.18-1.82-2.18-3.67-3.8-5C172.2,14.43,170.51,14.75,168.12,14.49ZM168.07,3c-3.75-.45-5.52.67-5.48,4.88,0,3.91,1.25,5.31,5.16,5.19,6.09-.19,8.8-1.54,8.53-5.18C175.88,2.4,171.37,3.59,168.07,3Z" transform="translate(-28.3 -0.84)"/><path d="M122.62,1.61C130,1.22,137.44-.44,142.14,7a12.89,12.89,0,0,1-.28,14.58c-4.78,7.19-12.17,4.85-19.24,5.09Zm2,12.25c0,2.33.14,4.67,0,7-.23,3.05,1.1,4.05,4,4.16,8.79.34,13.57-4.49,12.66-13.08-.6-5.67-5.89-9.33-12.94-8.91-6.54.39-2.68,5.48-3.69,8.37A7.61,7.61,0,0,0,124.65,13.86Z" transform="translate(-28.3 -0.84)"/><path d="M41.1,17.94l4.78,8-.85.88a44.92,44.92,0,0,1-3.44-3.6c-1.21-1.57-1.89-3.69-3.37-4.86A7.92,7.92,0,0,0,33,16.91c-.77.07-1.6,2.39-1.94,3.79a30.33,30.33,0,0,0-.35,5.15H29.17c0-7.62,0-15.23,0-22.84,0-.41.48-1.19.73-1.19,4.4.07,8.93-.38,13.14.57,3.57.8,4.43,4.69,3.43,7.8C45.68,12.72,43.39,14.78,41.1,17.94Zm-5.39-3.63c5.79,0,8.39-1.65,8.56-5.2.19-3.95-2.79-5.92-8.41-6.18-4.2-.19-5,1.93-4.94,5.49S31,15.41,35.71,14.31Z" transform="translate(-28.3 -0.84)"/><path d="M51.21,26.13c1.1-3,2.14-5.94,3.31-8.88C56.35,12.62,58.19,8,60.17,3.43,61.3.83,63.5-.06,64.81,2.84A248.74,248.74,0,0,1,74,26.58C66.41,18.42,59.17,17.76,51.21,26.13ZM69,18.93l-5.75-14-1.41.19-5.35,13.8Z" transform="translate(-28.3 -0.84)"/><path d="M114.77,26.35h-15V1.76h14.94l.1,1.21c-2.76,0-5.53.15-8.28,0-3.62-.24-4.92,1.13-4.94,4.88,0,3.9,1.22,5.49,5.13,5.19,2.67-.21,5.37,0,8.06,0l0,1.74c-2.53,0-5.07.17-7.58,0-4-.34-5.54,1-5.62,5.28-.08,4.6,2.1,5.29,5.79,5.05,2.44-.15,4.91,0,7.37,0Z" transform="translate(-28.3 -0.84)"/><path d="M184.18.87l9.36,12.49L202.78.84l1.44.92c-4.36,7.8-12.48,14.11-9.1,25l-2.75.06c1.94-10.51-4.28-17.43-9.67-24.72Z" transform="translate(-28.3 -0.84)"/><path d="M74.86,1.71H93.71c-8.07,2.73-8.07,2.73-8.07,11.18V26.36h-2c-.12-1.81-.32-3.62-.36-5.43-.06-2.82,0-5.64,0-8.45C83.31,4.27,83.31,4.27,74.86,1.71Z" transform="translate(-28.3 -0.84)"/></svg>