<?xml version="1.0" encoding="utf-8"?>
<!-- Generator: Adobe Illustrator 23.1.0, SVG Export Plug-In . SVG Version: 6.00 Build 0)  -->
<svg version="1.1" id="Layer_1" xmlns="http://www.w3.org/2000/svg" xmlns:xlink="http://www.w3.org/1999/xlink" x="0px" y="0px"
	 viewBox="0 0 387 192" style="enable-background:new 0 0 387 192;" xml:space="preserve">
<path d="M55.5,4.6c0-0.5,0-1,0-1.6C56,2.9,56.4,2.8,57,2.7c-0.4-0.6-0.8-1.1-1.2-1.8c0.9-0.1,1.7-0.1,2.6-0.3c0.4-0.1,0.7-0.4,1-0.7
	c0.2,0,0.3,0,0.5,0c0.2,0.2,0.4,0.5,0.7,0.6c0.9,0.3,1.8,0.4,2.7,0.8c2.8,1,4.8,2.8,5.9,5.7c0.9,2.2,0.1,3.9-0.7,5.7
	c-0.2,0.4-0.1,0.9-0.2,1.4c-0.1,0.5-0.4,1.1-0.5,1.6c-0.1,0.2-0.1,0.6,0,0.6c0.8,0.6,0.5,1.1,0,1.8c-0.4,0.7,0.1,1.8-0.9,2.4
	c-0.2,0.1-0.3,0.3-0.4,0.3c-2.6,0.6-4.2,3.7-3.3,6.3c0.1,0.2,0.8,0.4,1,0.3c0.8-0.5,1.3-0.5,2.2,0.1c0.8,0.5,2.3,0.5,3.2,0
	c1.5-0.7,2.5-0.7,3.9,0.2c0.7,0.5,1.6,0.7,2.4,0.7c1.5,0.1,3.1,0.2,4.5-0.1c1.9-0.3,3.9-0.8,5.7-1.5c1-0.4,1.7-1.7,2.6-2.4
	c0.9-0.7,1.9-1.3,2.9-1.9c2-1.1,4.1-2.1,6.1-3.3c1.7-1,3.2-2.3,4.8-3.5c1.2-0.8,2.3-1.7,3.5-2.6c0.3-0.3,0.4-0.8,0.7-1.2
	c0.5-0.8,0.8-1.6,1.4-2.3c0.7-0.9,1.7-1.6,2.4-2.4c0.2-0.2,0.1-0.7,0.2-1.1c0.1-0.4,0.2-0.8,0.4-1.2c0.1-0.2,0.4-0.3,0.7-0.5
	c0.1,0.3,0.3,0.5,0.4,0.8c0.2,0.8,0.5,1.4,1.4,1.5c0.2,0,0.5,0.2,0.6,0.4c0.7,1.2,1.3,2.5,2,3.8c0.2-0.1,0.6-0.4,1.1-0.5
	c0.2-0.1,0.4,0.2,0.6,0.3c-0.1,0.2-0.2,0.4-0.4,0.5c-1,0.8-2.1,1.5-3.1,2.3c-1,0.7-1.2,2.4-0.7,3.6c0.1,0.3,0.4,0.9,0.3,1.1
	c-0.6,0.9-0.4,1.6,0.3,2.2c0.6,0.5,1.2,1,1.9,1.4c0.2,0.5,0.2,0.8-0.3,1.4c-0.5,0.5-0.1,1.9,0.1,2.8c0.1,0.3,0.5,0.7,0.8,0.9
	c0.3,0.2,0.7,0.4,1,0.6c0.2-0.5,0.5-1,0.4-1.5c-0.1-0.7-0.5-1.3-0.9-2c0.3-0.2,0.6-0.5,1.2-1c0.3,1.2,0.5,2.3,0.8,3.4
	c0.2,0.7,0.6,1.4,0.7,2.1c0.1,0.9,0.2,1.9,0.1,2.8c-0.1,0.9-0.3,1.7-0.5,2.6c-0.1,0.4-0.2,0.7-0.3,1.4c-0.3-0.4-0.5-0.6-0.5-0.8
	c-0.1-1.2-0.1-2.5-0.1-3.7c0-0.3,0.1-0.5,0.3-0.8c0.1-0.3,0.5-0.8,0.5-0.8c-0.4-0.3-0.8-0.8-1.3-0.8c-2-0.3-3-1.2-3.1-3.3
	c0-0.6-0.1-1.1-0.8-1.2c-0.2-0.1-0.4-0.3-0.6-0.5c-0.7-1.5-2.1-1.8-3.6-1.7c-1.2,0-2.6,0.8-3.6-0.5c0,0-0.4,0-0.4,0.1
	c0,0.3-0.2,0.8,0,1c1.1,2,0.7,3.9,0.1,6c-0.3,1-0.2,2.1-0.3,2.8c1.5,0.7,2.7,1.2,3.9,1.7c0.9,0.4,1.7,0.7,2.6,1
	c1.5,0.6,2.9,1.1,4.4,1.6c1.2,0.5,2.5,1,3.7,1.5c0.1,0,0.2,0,0.2,0.1c1.4,2.1,3.9,2.8,5.8,4.1c2.4,1.6,4.7,3.3,7,5
	c2.3,1.7,4.2,4,6.3,6c0.3,0.3,0.5,0.8,0.7,1.2l-0.1,0.1c-0.3-0.2-0.7-0.4-1-0.7c-2.4-2.2-4.8-4.4-7.3-6.6c-1.4-1.2-3.1-2.3-4.6-3.3
	c-1.7-1.2-3.5-2.3-5.2-3.5c-0.6-0.4-1.2-0.7-1.9-0.9c-0.5-0.1-1,0-1.6,0c0.1,0.6,0,1.3,0.3,1.8c0.3,0.5,0.9,0.9,1.4,1
	c1.8,0.3,2.8,1.9,4.3,2.6c0.7,0.3,1.2,0.8,1.8,1.2c0.2,0.2,0.3,0.5,0.4,0.8l-0.1,0.1c-0.5-0.2-1-0.4-1.5-0.6
	c-1.1-0.5-1.9-1.6-3.3-1.7c-0.4-0.1-0.8-0.7-1.2-1c-0.1-0.1-0.2-0.4-0.3-0.4c-2.3,0.3-3.3-2-5.3-2.5c-1.4-0.3-2.6-1.4-4-1.9
	c-1.1-0.5-2.3-0.7-3.5-1.1c-0.8-0.3-1.7-0.6-2.9-1c0,1.8,0,3.2,0,4.6c0,0.4-0.4,0.7-0.6,1c0,0,0,0,0,0c0-1.9,0-3.9,0-6
	c-3.5-0.8-7-1.6-10.5-2.5c0.8-0.9,8.7,0.5,10.3,1.8c0.2-0.3,0.3-0.6,0.5-0.9c0.5,0.4,0.9,0.7,1.3,1c0.2,0.2,0.5,0.5,0.7,0.5
	c1.5-0.1,2.6,0.7,3.9,1.4c1.3,0.7,2.7,1.1,4.1,1.6c1,0.4,1.9,0.9,2.9,1.4c1-1.3,0.7-2.2-0.8-3c-2-0.9-3.9-1.9-5.9-2.7
	c-0.9-0.4-2-0.4-3-0.6c-0.2-0.1-0.4-0.4-0.7-0.4c-0.5-0.2-1.1-0.3-1.7-0.3c-1.8-1.3-4-1.5-6.1-1.9c-0.7-0.1-1.3-0.6-1.9-0.9
	c0.1-0.1,0.1-0.3,0.2-0.4c0.4,0,0.8-0.1,1.2,0c0.9,0.2,1.9,0.4,2.8,0.7c0.6,0.2,1.2,0.5,1.8,0.7c0.4,0.1,0.9,0,1.5,0
	c0-2.7,0.1-5.3,0-7.9c0-1-0.8-1.2-1.5-0.5c-1.9,1.8-3.9,3.7-5.8,5.5c-2.8,2.6-5.8,4.5-9.6,5.4c-1.7,0.4-3.2,1.4-4.9,2
	c-1,0.4-2.3,0.3-3.2,0.9c-1.4,1-3.5,0-4.6,1.6c0.7,1.6,0.9,3.1,0,4.7c-0.6,1.1-1.2,2.3-1,3.7c0.1,0.5,0,1,0,1.4
	c0.3,1.6-0.5,2.9-1.1,4.3c-0.1,0.1-0.3,0.3-0.3,0.4c0.2,3.5-1.8,6.9-0.9,10.4c0.2,0.9,0.7,1.8,1.1,2.6c0.1,0.3,0.3,0.5,0.3,0.8
	c0,1.4,0.9,2.1,1.7,3c0.3,0.4,0.9,0.6,1.1,1c0.2,0.4,0,1-0.1,1.5c-0.1,0.5-0.5,1-0.5,1.5c0,2.1,0.2,4.1,0.3,6.2
	c0.1,2.5,0.3,4.9,0.5,7.4c0.1,2.1,0,4.2,0.2,6.2c0.1,1.4,0.7,2.7,0.6,4.1c-0.1,1.5-0.7,3-1.1,4.5c-0.3,1.2-0.7,2.3-1.1,3.4
	c-0.4,1.2-0.9,2.3-1.3,3.4c0,0.1,0,0.2-0.1,0.2c-0.3,1.5-0.5,3.1-0.9,4.6c-0.3,1.4-0.8,2.8-1.2,4.2c-0.1,0.2-0.2,0.5-0.2,0.7
	c0,2.4,0,4.9,0.1,7.3c0.1,2.3,0.6,4.7,0.4,7c-0.2,2.9-0.8,5.8-1.2,8.7c-0.2,1.2-0.5,2.5-0.8,3.7c-0.3,1.5-0.6,2.9-1,4.4
	c-0.3,1.3-0.8,2.5-1.3,3.7c0,0,0,0.1,0,0.1c-0.4,2.8-1.3,5.6-0.7,8.4c0.4,1.7,1.6,2.9,3.2,3.9c1.6,1,3.3,0.9,5.1,0.6
	c1.4-0.3,2.3,0.4,2.9,1.7c0.8,1.6,1.8,3.1,2.6,4.6c0.6,1.1,1.3,2.1,1.7,3.2c0.2,0.5,0.1,1.3-0.1,1.9c-0.2,0.8,0,1.4,0.8,1.4
	c1.3,0.1,1.9,0.7,2.5,2c1,1.9,1.3,3.8,1.4,5.8c0.1,1.3-0.6,1.7-1.6,1.9c-1.9,0.4-3.8,0.6-5.6,1c-8.4,1.8-16.9,1.4-25.4,1.3
	c-2.4,0-4.8-0.4-7.1-0.8c-2.1-0.4-4.1-1-6.2-1.5c-0.7-0.2-1.3-0.5-1.9-0.9c-0.2-0.1-0.4-0.7-0.3-1c0.1-0.4,0.4-0.7,0.8-0.9
	c0.3-0.2,0.7-0.3,1.2-0.4c0.5,0.1,1.1,0.2,2,0.4c-1.5-1.9-2.4-2.1-4-1.1c-0.5,0.3-1,0.8-1.5,1c-0.3,0.1-0.8,0.1-1-0.1
	c-0.2-0.2-0.3-0.9-0.1-1.1c0.5-0.6,1-1.3,2-1.2c1,0.1,1.9-0.1,2.6-1.1c0.2-0.3,0.9-0.3,1.4-0.3c1,0,1.4-0.4,1.3-1.4c0-0.3,0-0.6,0-1
	c-0.1-1.1,0.5-1.4,1.5-1.3c0.6,0.1,1.3,0.4,1.6-0.7c-1.4,0-2.8,0-3.9,0c-0.3,1.3-0.5,2.4-0.8,3.6c-0.6,0-1.3,0-2.1,0
	c0.1-0.5,0.2-0.8,0.3-1.2c0.4,0.2,0.8,0.3,1.1,0.5c0,0,0.3-0.4,0.2-0.5c-0.2-0.4-0.5-0.8-0.9-1c-0.8-0.3-1.7-0.5-2.4-0.8
	c-0.2-0.1-0.3-0.7-0.4-1.1c-1.5,0.6-3.3,1.3-5.1,2.1c-0.7-1.5,0.3-2.2,0.9-2.9c0.6-0.6,1.3-1.1,2-1.6c0.3-0.2,0.7-0.2,1.5-0.4
	c-0.2-1-0.4-2.1-0.7-3.2c-0.1-0.3-0.1-0.5-0.2-0.8c-0.2-1.8-0.5-3.5-0.7-5.3c-0.3-2.8-0.6-5.6-0.9-8.4c-0.3-2.4-0.5-4.7-0.8-7.1
	c-0.2-1.7-0.5-3.4-0.7-5.2c-0.3-2-0.2-4.1-0.8-6c-0.7-1.9-0.2-3.7-0.7-5.5c-0.6-1.9-0.3-3.9-0.7-5.8c-0.8-3.5-1.1-7.1-1.5-10.6
	c-0.4-3.7-1-7.4-1.5-11.1c0-0.1-0.1-0.2-0.2-0.4c-1.3,0.6-2,1.7-2.7,2.8c-0.4,0.6-0.6,1.3-1,2c-0.6,1.1-0.9,1-1.7,0.1
	c1.2-2,2.2-3.9,3.4-5.7c0.7-1.1,1.7-2.2,2.6-3.2c0.7-0.7,0.8-1.5,0-2.4c-0.5,0.6-0.9,1.1-1.6,2c-0.1-0.7-0.3-1.2-0.3-1.6
	c0-1.9-0.5-3.4-1.9-4.9c-0.8-0.9-1.7-2.3-0.4-3.7c0.1-0.1,0.1-0.2,0.1-0.3c0.3-1.9,0.5-3.8,0.9-5.7c0.2-1,0.7-2,1.1-3
	c0.3-0.8,0.7-1.6,1-2.3c0.3-0.9,0.6-1.8,0.8-2.7c0.6-2.4,1.1-4.8,1.7-7.2c0.4-1.7,0.9-3.4,1.4-5.1c0.5-1.6,1.2-3.3,1.8-4.7
	c0.4,0.2,1.2,0.7,1.3,0.5c0.6-0.5,1.1-1.1,1.3-1.8c0.4-1.6,0.5-3.3,0.9-4.9c0.3-1.2,0.8-2.3,0.9-3.5c0.2-0.8,0.3-1.6,0.5-2.8
	c-0.8,0.3-1.4,0.5-1.9,0.7c-0.1,0.1-0.1,0.3-0.2,0.4c-0.2-0.3-0.4-0.6-0.5-0.9c-0.1-0.3-0.4-0.6-0.3-0.9c0.1-0.2,0.5-0.5,0.8-0.6
	c1.2-0.4,2.3-0.7,3.5-1c0-0.1,0-0.3,0-0.4c-0.7-0.1-1.3-0.2-2-0.4c0.2-0.4,0.4-0.7,0.6-1.1c-0.4-0.3-0.7-0.5-1.1-0.8
	c-0.4,0.7-0.7,1.2-1.1,2.1c0.7-0.1,1.2-0.1,1.7-0.2c-0.1,0.8-0.7,0.9-1.3,0.8c-0.3,0-0.9-0.3-0.9-0.4c0-0.7,0.1-1.4,0.5-2.1
	c-0.1-0.3-0.4-0.8-0.3-0.9c0.4-0.4,0.8-0.8,1.3-0.9c0.7-0.1,1.3-0.2,1.4-1.1c0-0.2,0.2-0.5,0.3-0.4c1.3,0.1,1-1,1.3-1.7
	c0.7-1.5,0.8-3,0.9-4.6c0-0.4,1-1,1.7-1.2c1.2-0.4,2.1-0.7,2.8-2.1c0.6-1.3,2-2.3,3.2-3.2c0.5-0.4,1.2-0.4,1.9-0.6
	c0.2-0.1,0.5,0,0.7,0.1c0.5,0.1,0.9,0.4,1.3,0.5c1.2,0.2,2.6-0.4,3.6,0.7c0.1,0.2,0.7,0,1-0.1c0.1-1.5,0.2-2.9,0.2-4.3
	c0-0.5-0.6-1-0.9-1.4c-0.2-0.3-0.3-0.7-0.5-1c0.3-0.1,0.6-0.4,0.8-0.4c1.4-0.1,2.8-0.2,4.3-0.3c0-0.5,0.1-0.9,0.1-1.5
	c-1,0.1-1.8,0.1-2.9,0.2c-0.5-0.5-1.2-1.3-0.5-2.4c0.1-0.2-0.1-0.6-0.1-1c-0.1-0.8-0.1-1.6-0.1-2.5c0.1-0.1,0.2-0.1,0.4-0.2
	c-0.6-0.1-1.3-0.3-1.9-0.4c1-0.6,2.3-0.7,2.3-2.3c0-1.7-1.3-1.2-2.5-1.5c0.7-0.3,1.1-0.4,1.5-0.6C56,5.9,57.1,4.8,55.5,4.6L55.5,4.6
	z M36.7,96.3c-2.4,1.7-5.7,2-6.2,5.2c-0.7-0.1-1.3-0.3-1.7-0.1c-0.3,0.1-0.5,0.8-0.4,1.2c0.2,1.6,0.5,3.3,0.7,4.9
	c0.3,2,0.5,3.9,0.7,5.9c0.2,1.7,0.1,3.3,0.6,5c0.6,2.1,0.6,4.4,0.9,6.6c0.3,2.9,0.6,5.7,0.9,8.6c0,0,0,0.1,0,0.1
	c0.4,2.4,0.9,4.9,1.3,7.3c0.6,3.7,1,7.4,1.5,11.2c0.3,1.9,0.5,3.8,0.7,5.8c0.2,1.7,0.2,3.5,0.6,5.3c0.7,3,0.7,6.1,0.9,9.1
	c0,0.4,0.1,0.9,0.2,1.3c0.2,0,0.4,0,0.5,0c0.1-2,0.1-4.1,0.2-5.8c0.7-0.2,1.2-0.3,1.6-0.4c0.3-0.1,0.7-0.3,1-0.3
	c1,0.2,2.1,0.5,3.1,0.9c1.6,0.6,3.1,1.3,4.7,2c0.8,0.4,1.6,0.9,2.4,1.2c0.3,0.2,0.7,0.2,1.1,0.2c-0.1-0.3-0.2-0.6-0.3-0.9
	c-0.1-0.1-0.1-0.3-0.2-0.4c-0.5-2.1-1.1-4.2-1.6-6.3c0-0.2-0.2-0.3-0.3-0.5c-0.3,0.2-0.6,0.4-0.9,0.6c-0.1,0-0.2-0.1-0.3-0.1
	c0.1-0.6,0.3-1.2,0.4-1.7c-0.3-0.3-0.9-0.5-1-0.8c-0.6-2.2-1-4.5-1.6-6.7c-0.2-0.6-0.8-1.3-1.4-1.6c-1-0.6-2.2-0.7-2.6-2.1
	c-0.1-0.4-0.5-0.7-0.8-1.1c-1.1-1.5-2.9-1.4-4.3-2.1c-1-0.5-2.1-1.9-2-2.9c0-0.3,0.5-0.8,0.8-0.8c1.1-0.1,2.2-0.1,3.4,0
	c0.3,0,0.5,0.1,0.8,0.2c0.5,0.2,0.9,0.5,1.4,0.7c0.2-0.3,0.2-0.4,0.2-0.4c0-0.1,0.1-0.2,0-0.4c-0.3-2.2,0-4.2,2-5.7
	c0.3-0.2,0.3-1.6,0-2c-0.7-0.7-0.6-1.3-0.6-2.1c0-0.6,0-1.2,0-2c-0.5,0.4-0.8,0.6-1.1,0.9c-0.1-0.1-0.2-0.1-0.4-0.2
	c0.2-0.8,0.4-1.6,0.7-2.3c1-2.3,1.4-4.5,0.1-6.9c-0.1-0.2,0-0.4,0-0.6c0-0.9,0-1.8,0-2.6c-0.2-2.1,0.3-4.1,0.8-6.2
	c0-0.2,0.1-0.3,0.1-0.5c0.4-0.8,0.9-1.5,1.2-2.4c0.2-0.6,0-1.3,0-2c-1.5,0.8-2.1,0.5-2.1-0.9c0-0.6,0.3-1.1,0.5-1.6
	c0.1-0.3,0.1-0.7,0-1c-0.4-1.2-1-2.3-1.2-3.6c-0.4-2.8-0.6-5.6-0.8-8.4c-0.1-0.8,0-1.6-0.2-2.3c-0.7-2.3-0.3-4.6,0.1-6.9
	c0.3-2,0.1-4.1,0.2-6.1c0-0.4,0.1-0.9,0.1-1.3c0.1,0,0.2,0,0.3,0c0,0.5,0.1,1,0.1,1.5c0,1.5-0.1,3-0.1,4.6c0,0.5-0.1,1.2,0.8,1
	c0.1-0.7,0.1-1.4,0.4-2c0.6-1.5,1.3-2.9,1.9-4.3c0.1-0.2,0-0.7-0.1-0.8c-1.3-0.8-0.9-1.8-0.5-2.8c0.5-1.6,0.9-3.2,1.6-4.7
	c0.7-1.5,0.8-1.4-0.8-2.1c-0.1,0.6-0.3,1.1-0.4,1.7c-0.1,0-0.3-0.1-0.4-0.1c0-2.4,1.5-4.5,1.7-6.9c0.4,0.6,0.6,1,0.9,1.2
	c0.2,0.1,0.9,0,1-0.2c0.4-1.1,1.3-2.1,0.6-3.5c-0.4-0.1-0.8-0.1-1.2-0.2c-0.1,0.8-0.3,1.4-0.4,2c-0.1,0-0.2,0-0.3,0
	c0-1.2,0-2.5,0-3.7c0.1,0,0.1,0,0.2,0c0.2,0.3,0.4,0.6,0.6,1c1.1-1.7-1-2.7-0.3-4.4c-0.6,0.4-0.9,0.5-1.1,0.6
	c-0.4-1-0.9-1.9-1.1-2.8c-0.3-1.2-0.8-1.7-2.2-1.5c-0.3,0.9-0.6,1.9-0.8,2.8c-0.3,1.4-0.6,2.8-0.9,4.1c-0.4,1.8-0.9,3.7-1.3,5.5
	c-0.3,1.4-0.6,2.8-1,4.2c-0.2,0.7-0.5,1.3-0.8,1.9c-0.6,1-1.3,1.9-1.9,2.8c-1.2,1.8-2.5,3.7-3.6,5.5c-0.9,1.5-1.8,3-2.4,4.7
	c-0.8,2.2,0.1,4.5,0.9,6.5c0.9,2.2,0.4,4.1-0.4,6c-0.3,0.6-0.7,1.1-0.3,1.7c0.6,0.8,1.6,0.8,2.4,0.5c0.9-0.4,1.8-0.8,2.3-1.5
	c0.6-0.7,1.1-0.6,1.7-0.5C36.7,95.8,36.7,96.2,36.7,96.3z M59.5,165.6c0.2-0.7,0.4-1.2,0.5-1.7c0.2-2.4-0.7-4.7,0-7.1
	c0.1-0.2-0.1-0.4-0.1-0.7c-1.4,0.3-2.7,0.6-3.9,1c-0.1,0-0.3,0.2-0.3,0.3c-0.2,0.9-0.5,1.9-0.7,2.8c-0.5,2.9,0.5,5.7,0.7,8.6
	c0.1,1.1,0.8,1.6,1.9,1.5c0.3,0,0.6,0,1,0c0,0.6-0.1,1.1,0,1.6c0,0.3,0.3,0.5,0.5,0.7c0.2-0.2,0.4-0.4,0.5-0.7
	c0.3-0.9,0.4-1.8,0.8-2.7c0.1-0.4,0.6-0.6,0.7-0.9C61,166.7,60.7,166.2,59.5,165.6z M43.8,147.8c0.2-2.1,2.6-3.5,1.8-5.8
	c-0.2-0.1-0.3-0.1-0.5-0.2c-0.7,1.4-1.4,2.8-2.1,4.1C43.3,146.5,43.5,147.1,43.8,147.8z M61,10.3c0.4,0.3,0.9,0.5-0.1,1.1
	c-0.6,0.4-1.1,1-0.8,2c0.1,0.4-0.3,0.9-0.5,1.6c0.8-0.4,1.4-0.7,2.3-1.1c-1.3-0.5-1.3-0.9-0.5-1.6c1.2-0.9,1.3-1.7,0.4-3.7
	C61.5,9.3,61.2,9.8,61,10.3z M108.5,17.8c-0.7,0.6-1.4,1.1-1.9,1.8c-0.1,0.2,0.5,1.2,0.9,1.4c1,0.5,1.5-0.3,1.8-1
	C109,19.3,108.8,18.7,108.5,17.8z M44.6,84.1c-0.6,0.5-1.4,0.9-1.7,1.6c-0.3,0.6-0.1,1.5-0.1,2.2c0.1,0,0.2,0,0.3,0.1
	c0.8-0.9,1.6-1.8,2.4-2.8C45.2,84.8,45,84.4,44.6,84.1z M48.7,132.1c-0.1-0.1-0.3-0.1-0.4-0.2c-0.3,0.8-0.6,1.7-0.8,2.5
	c-0.2,0.7-0.1,1.4-0.2,2.2c0.6-0.1,1-0.2,1.4-0.2C48.7,134.9,48.7,133.5,48.7,132.1z M43.5,90.2c0,0.5,0,0.9,0,1.3
	c0,0.8,0.6,0.8,1.1,0.7c0.8-0.2,1.3-1.7,0.8-2.5C44.9,89.8,44.3,90,43.5,90.2z M112.1,19.3c1.5-1.1,0.1-2.2,0.3-3.3
	C110.7,16,110.6,16.5,112.1,19.3z M46.7,40.4c0.8-0.4,1.4-0.7,2-1.2c1.3-0.9,1.3-1,1.2-1.4c-1.1,0.5-2.3,1-3.5,1.5
	C46.5,39.6,46.6,40,46.7,40.4z M53,34.7c-0.1,0-0.2-0.1-0.3-0.1c-0.7,0.9-1.5,1.7-2.2,2.6c0.1,0.1,0.2,0.3,0.3,0.4
	c0.7-0.3,1.4-0.6,2-0.8C52.9,35.9,52.9,35.3,53,34.7z M52.9,37.5c-0.6,0.8-1,1.6-1.5,2.3c-0.1,0.2-0.3,0.4-0.4,0.6
	c0.3,0,0.5,0.2,0.8,0.1C52.7,40.4,53.4,38.6,52.9,37.5z M49.2,102.8c-0.6,0.7-1.2,1.3-1.8,1.9c0.2,0.2,0.5,0.4,0.7,0.6
	c0.1,0.1,0.2,0.1,0.3,0.1C49.6,103.7,49.6,103.7,49.2,102.8z M52.3,53.3c-1.1-0.3-1.6,0.3-2,1.1c0,0,0.5,0.5,0.8,0.5
	C52.1,54.9,52.7,54.5,52.3,53.3z M48.1,43.6c0.8-0.7,1.4-1.2,2-1.7c0.1-0.1,0.1-0.4,0.1-0.4c-0.2-0.1-0.5-0.2-0.6-0.2
	C48.8,41.7,48,42.2,48.1,43.6z M42.1,173.9c1.3,0,1.5-0.2,1.2-1.3c-0.4,0-0.8,0-1.2,0C42.1,173.1,42.1,173.5,42.1,173.9z M49.6,44.8
	c0-0.2-0.1-0.3-0.1-0.5c-0.9-0.4-1.5,0.1-1.9,1.4C48.3,45.4,49,45.1,49.6,44.8z M53,144.4c-0.1-0.1-0.1-0.3-0.2-0.4
	c-0.4,0.1-0.9,0.1-1,0.4c-0.1,0.3,0.2,0.7,0.3,1.1C52.4,145.1,52.7,144.8,53,144.4z M46.7,37.8c0.1,0.1,0.1,0.3,0.2,0.4
	c0.5-0.2,1-0.5,1.4-0.7c0.2-0.1,0.3-0.4,0.4-0.5c-0.2-0.1-0.6-0.2-0.7-0.1C47.5,37.1,47.1,37.5,46.7,37.8z M44.2,179.3
	c0.1,0.5,0.2,0.9,0.2,1.3c0.4-0.3,0.8-0.7,1.2-1c-0.1-0.1-0.1-0.2-0.2-0.3C45.1,179.4,44.7,179.4,44.2,179.3z"/>
<path d="M106.5,157.1c0.2-0.1,0.4-0.3,0.6-0.3c1.4,0.1,1.6-0.7,1.8-1.9c0.7-5.9,0.6-11.8,0.5-17.6c0-1.4-0.3-2.8-0.6-4.2
	c-0.1-0.4-0.8-0.8-1.4-1c-0.4-0.2-1-0.1-1.4-0.2c0-0.1,0-0.2,0-0.4c0.3-0.1,0.5-0.2,0.8-0.2c4.1,0,8.2-0.1,12.2,0.1
	c1.4,0.1,2.8,0.9,4,1.8c1.3,0.9,1.7,2.3,1.8,3.9c0.2,2.9-0.8,5.1-3,6.9c-1.2,1-1.2,1.6-0.1,3c2,2.4,3.9,4.8,5.9,7.1
	c1.5,1.7,3.4,2.9,5.9,2.7c1-0.1,1.6-0.6,1.6-1.6c0-7.2,0-14.3,0-21.5c0-1.1-0.6-1.6-1.7-1.7c-0.2,0-0.4-0.1-0.7-0.2
	c0.7-0.6,8.5-0.7,9.9-0.1c-0.5,0.1-0.7,0.2-1,0.2c-1.4,0.1-2,0.8-2,2.1c0,6.8,0,13.7,0,20.5c0,1.4,0.7,2.1,2.1,2.1
	c0.8,0,1.7,0,2.5,0c1.2,0,2.4-1.1,2.9-2.3c0.6-1.6,1.4-3.2,2.1-4.7c0.3-0.7,0.6-1.4,0.8-2.2c0.3-0.9,0.5-1.9,0.9-2.8
	c0.5-1.4,1.1-2.7,1.7-4.1c0.7-1.6,1.3-3.2,2-4.8c0.8-1.8,1.5-3.6,2.3-5.4c0.2,0,0.4,0,0.6,0c0.5,1.2,1.1,2.4,1.6,3.6
	c0.7,1.6,1.4,3.3,2.1,4.9c0.4,0.9,0.6,1.8,1,2.6c0.7,1.7,1.4,3.3,2.1,5c0.3,0.7,0.5,1.4,0.8,2.1c0.6,1.6,1,3.2,1.8,4.7
	c0.6,1.2,1.5,2.2,2.3,3.2c0.2,0.2,0.7,0.2,1,0.2c0.3,0.1,0.7,0.1,1,0.2c0,0.1,0,0.2,0,0.4c-2.7,0-5.3,0-8.1,0
	c0.3-3.2-1.8-5.7-2.5-8.8c-2.5,0-5.1,0-7.6,0c-0.4,0-0.9,0.5-1.1,0.9c-0.4,0.9-0.6,1.8-0.9,2.7c-0.3,0.9-0.6,1.7-0.8,2.6
	c-0.4,1.4-0.1,1.7,1.2,2.1c0.1,0,0.2,0.2,0.3,0.5c-0.5,0-0.9,0.1-1.4,0.1c-7,0-14-0.1-21,0.1c-3,0.1-5.1-1.2-6.8-3.4
	c-1.1-1.4-2.1-3-3.1-4.5c-0.5-0.8-1-1.9-1.7-2.2c-1.2-0.4-2.6-0.3-3.9-0.4c-0.1,0-0.2,0.5-0.2,0.8c0,2.2,0,4.3,0,6.5
	c0,1.6,0.8,2.3,2.3,2.4c0.4,0,0.7,0.1,1.1,0.2c0,0.1,0,0.2,0,0.3c-3.4,0-6.8,0-10.1,0C106.6,157.3,106.5,157.2,106.5,157.1z
	 M113.3,138.8c0,1,0,2,0,3c0,3.2,0,3.2,3.3,3.1c0.6,0,1.3,0,1.8-0.3c1.2-0.7,1.9-2,2.2-3.3c0.5-2.1,0.1-4.2-1-6.1
	c-0.8-1.3-2.2-1.9-3.5-2.3c-1.9-0.6-2.7,0.2-2.7,2.2C113.3,136.3,113.3,137.6,113.3,138.8z M156.5,138.1c-0.1,0-0.3-0.1-0.4-0.1
	c-0.6,1.4-1.1,2.8-1.7,4.3c-0.4,1-0.7,2-1.2,2.9c-0.5,0.9-0.3,1.3,0.7,1.3c1.4,0,2.9,0.1,4.3,0.1c0.2,0,0.7-0.4,0.7-0.5
	c-0.1-0.7-0.2-1.4-0.5-2c-0.3-0.9-0.7-1.7-1-2.6C157.1,140.4,156.8,139.2,156.5,138.1z"/>
<path d="M253.5,131.9c-0.4,0.1-0.9,0.1-1.4,0.2c0,1.1-0.4,2.3,0.5,3.4c0.1,0.1,0.1,0.3,0.2,0.4c0.3,1.4,0.5,2.7,0.9,4.1
	c0.6,2,1.4,3.9,2,5.9c0.4,1.4,0.7,2.8,1.3,4.2c2.8-6.1,4.8-12.5,7.5-19c0.7,1.2,1.3,2.1,1.7,3.1c1.1,2.4,2.1,4.7,3,7.2
	c0.6,1.5,1.1,3.1,1.7,4.7c0.5,1.3,1.2,2.6,1.9,4.2c0.4-1.1,0.7-2,1.1-2.9c0.5-1.4,1-2.7,1.4-4.1c0.3-1.1,0.6-2.3,0.9-3.4
	c0.3-1.2,0.3-2.5,1-3.4c0.7-1,0.5-2,0.6-3.1c0-0.3-0.1-0.7-0.1-1.1c-0.5-0.1-1-0.2-1.4-0.3c0-0.1,0-0.2,0-0.4c4.6,0,9.3,0,13.9,0
	c0,0.1,0,0.2,0,0.2c-0.4,0.2-0.7,0.3-1.4,0.6c1.8,4,4.2,7.7,6.5,11.6c1.2-2.1,2.3-4.1,3.4-6.1c0.7-1.2,1.4-2.4,2-3.6
	c0.3-0.6,0.2-1.3,0.2-2c-0.5-0.2-0.8-0.3-1.2-0.5c0.7-0.6,6.6-0.7,8-0.1c-0.3,0.1-0.4,0.3-0.6,0.3c-2,0-2.9,1.6-3.9,2.9
	c-1,1.3-1.9,2.8-2.7,4.2c-0.9,1.5-1.6,3.1-2.5,4.5c-1.8,2.9-1.4,6.2-1.4,9.3c0,0.6,0,1.1,0.1,1.7c0.3,1.6,0.9,2.1,2.5,2.2
	c0.3,0,0.6,0.1,1,0.2c0,0.1,0,0.2,0,0.3c-3.5,0-6.9,0-10.4,0c0-0.1,0-0.2-0.1-0.3c0.3-0.1,0.6-0.1,0.8-0.3c0.5-0.4,1.4-0.9,1.4-1.4
	c0.1-3.1,0.2-6.2-0.1-9.2c-0.1-1.2-1.1-2.4-1.8-3.6c-0.6-1.1-1.3-2.1-1.9-3.1c-1.6-2.6-3-5.2-5.4-7.2c-0.2-0.2-1.1-0.1-1.2,0.2
	c-0.6,1-1.1,2.1-1.5,3.3c-0.6,1.8-1.2,3.7-1.8,5.5c-0.5,1.5-0.9,3-1.5,4.4c-0.6,1.8-1.4,3.5-2,5.3c-0.3,0.8-0.5,1.6-0.8,2.5
	c-0.3,1.2-0.6,2.3-1,3.5c-0.2,0.5-0.6,0.8-1.2,1.5c-2.7-6.4-5.3-12.6-7.9-18.8c-0.1,0-0.2,0-0.3,0c-0.6,1.5-1.1,3.1-1.8,4.6
	c-0.6,1.6-1.4,3.2-2,4.7c-0.3,0.8-0.6,1.6-0.9,2.5c-0.5,1.5-1,3-1.6,4.4c-0.2,0.5-0.4,1.1-0.8,1.5c-0.3,0.2-1.2,0.2-1.3,0
	c-0.4-0.8-0.5-1.7-0.8-2.5c-0.4-1.1-0.9-2.2-1.3-3.3c-0.3-0.9-0.6-1.7-0.9-2.6c-0.8-2.7-1.6-5.3-2.4-8c-0.6-1.8-1.4-3.6-2.1-5.5
	c-0.2-0.6-0.2-1.2-0.5-1.8c-0.5-1-1.2-1.9-2.5-2.1c3-0.4,5.9-0.3,8.9-0.3C253.4,131.5,253.4,131.7,253.5,131.9z"/>
<path d="M369.4,136.9c-0.4-0.8-0.6-1.8-1.1-2.5c-0.4-0.6-1.1-1.4-1.8-1.5c-1.7-0.3-3.5-0.7-5,0.7c-0.4,0.3-0.6,0.9-0.8,1.4
	c-0.7,2.5,0.9,4,2.6,5.4c1.7,1.5,3.5,2.9,5.1,4.5c2.5,2.4,2.9,6.8,1.2,9.4c-1.1,1.7-2.7,3.1-5,3.3c-1.1,0.1-2.1,0.5-3.1,0.5
	c-1,0-2-0.5-3-0.5c-2-0.1-4.1-0.2-6.1,0c-2.2,0.1-3.8-0.9-5.2-2.3c-1.6-1.7-2.9-3.6-4.4-5.4c-0.3-0.4-0.6-0.8-0.8-1.3
	c-0.7-1.9-2.3-1.6-3.8-1.6c-0.6,0-0.9,0.2-0.9,0.8c0,2.5,0,5,0.1,7.6c0,0.9,0.7,1.4,1.6,1.5c0.4,0.1,0.9,0.1,1.3,0.2
	c0,0.1,0,0.2-0.1,0.4c-3.2,0-6.4,0-9.7,0c0-0.1-0.1-0.1-0.1-0.2c0.2-0.1,0.4-0.3,0.6-0.3c1.2-0.1,1.7-0.8,1.7-1.9
	c0-3.4,0.1-6.9,0.1-10.3c0-3.4,0-6.8,0-10.2c0-1.9-0.3-2.2-2.2-2.4c-0.2,0-0.5-0.1-0.7-0.2c0-0.1,0-0.2,0-0.3
	c0.2-0.1,0.5-0.2,0.7-0.2c4,0,7.9-0.2,11.9,0.1c2.1,0.2,4.2,1,5.5,3.3c1,1.7,0.8,3.4,0.5,5c-0.4,1.7-1.6,3.2-3,4.3
	c-1.1,1-1.1,1.5-0.2,2.7c1.4,1.7,2.7,3.5,4.1,5.2c1.2,1.4,2.5,2.7,3.9,3.9c0.7,0.6,1.7,0.7,2.9,1.1c0-2.3,0-4.2,0-6.2
	c0.1,0,0.3,0,0.4,0c0.3,0.7,0.7,1.4,0.9,2.2c0.4,1.6,2.1,3.2,3.8,3.1c1.4-0.1,2.9,0.3,4.1-0.8c0.6-0.6,1.1-1.1,1.3-2.1
	c0.5-3.4-1.7-5.1-3.9-6.9c-1.7-1.4-3.2-2.9-4.6-4.5c-1.5-1.8-1.8-4.1-1.2-6.2c0.5-1.6,1.4-3.1,3.4-3.7c1.8-0.6,3.5-1.4,5.4-1.2
	c1.2,0.1,2.4,0.5,3.7,0.9c0,1.7,0,3.5,0,5.4C369.6,136.9,369.5,136.9,369.4,136.9z M337.5,144.8c1.6,0,3.1,0,4.5,0
	c0.2,0,0.5-0.1,0.7-0.3c1.7-1.3,1.7-3.3,2.1-5c0.2-0.7-0.4-1.6-0.5-2.4c-0.2-1.2-0.8-2.2-1.8-2.9c-0.8-0.5-1.6-0.9-2.5-1.2
	c-1.8-0.6-2.6,0-2.6,1.9c0,1.5,0,3,0,4.6C337.5,141.2,337.5,142.9,337.5,144.8z"/>
<path d="M240,157.4c-0.1-1,0-1.8-0.2-2.5c-0.6-1.7-1.4-3.4-1.9-5.1c-0.3-0.9-0.6-1.3-1.6-1.3c-2.1,0-4.2,0-6.2,0
	c-0.8,0-1.2,0.2-1.3,1.1c-0.1,0.7-0.5,1.3-0.7,2c-0.4,1-0.7,2-1.2,3c-0.4,0.9,0,2,1.1,2.1c0.3,0.1,0.6,0.1,0.9,0.2
	c0,0.1,0,0.2,0,0.4c-8.4,0-16.7,0-25.1,0c0-0.1-0.1-0.2-0.1-0.3c0.3-0.1,0.6-0.3,0.9-0.3c1.2-0.1,1.8-0.8,1.8-1.9c0-7,0-14.1,0-21.1
	c0-1-0.8-1.7-1.8-1.8c-0.4,0-0.7-0.1-1.3-0.1c1-0.7,9.6-0.7,10.8,0c-0.5,0.1-0.9,0.2-1.2,0.2c-1.5,0.1-2,0.6-2,2.1
	c0,6.3,0,12.6,0,18.8c0,1.9,0.5,2.4,2.4,2.5c1.4,0,2.8,0,4.2,0c1.7,0.1,2.2-0.7,3.1-2.5c0.1-0.2,0.2-0.4,0.3-0.6
	c0.7,0.7,0.7,1.8-0.1,4.1c1.1,0.6,2.2,0.4,2.7-0.7c0.6-1.2,1.1-2.6,1.6-3.8c0.7-1.5,1.4-3,2-4.5c0.4-0.8,0.6-1.7,0.9-2.5
	c0.4-1.1,0.9-2.1,1.4-3.2c0.3-0.8,0.6-1.6,0.9-2.4c0.6-1.6,1.2-3.3,1.8-4.9c0.4-1,0.8-2,1.2-2.9c0.2-0.4,0.6-0.8,1.1-1.3
	c0.9,2.1,1.7,3.8,2.4,5.6c0.6,1.5,1.1,3,1.7,4.5c0.6,1.6,1.4,3.1,2.1,4.7c0.3,0.7,0.6,1.4,0.8,2.1c0.5,1.5,1,3.1,1.6,4.5
	c0.8,1.7,1.4,3.7,3.1,4.8c0.5,0.4,1.3,0.3,2,0.4C247.7,157.6,241.8,157.8,240,157.4z M236.3,146.1c-0.4-1.3-0.7-2.4-1.1-3.4
	c-0.4-1-0.8-2-1.2-3c-0.2-0.4-0.5-0.7-0.7-1c-0.3,0.3-0.7,0.6-0.8,0.9c-0.7,1.7-1.4,3.5-2.1,5.3c-0.2,0.5-0.1,1,0,1.5
	c0,0.1,0.7,0.2,1,0.2c1.3,0,2.6,0.1,3.9,0.1C235.7,146.6,236.1,146.3,236.3,146.1z"/>
<path d="M188.9,124.6c-0.8,0-1.7,0-2.5,0c-2.8-0.2-5.2-1.4-7.1-3.4c-1.6-1.6-2.5-3.6-3.3-5.8c-0.8-2.3-0.8-4.5-0.4-6.6
	c0.5-2.5,1.7-5,3.8-6.8c1.7-1.5,3.6-2.5,5.9-3.1c2.1-0.6,4.3-0.7,6.4-0.4c3.5,0.5,6.8,1.6,8.9,4.6c0.9,1.3,1.5,2.8,1.9,4.3
	c0.4,1.4,0.8,2.9,0.6,4.3c-0.2,2.3-0.7,4.5-1.9,6.6c-1,1.7-2.2,3-3.7,4.1c-2.3,1.8-4.9,2.5-7.8,2.3
	C189.5,124.6,189.2,124.6,188.9,124.6C188.9,124.6,188.9,124.6,188.9,124.6z M198,112.5C198,112.5,198.1,112.5,198,112.5
	c0.1-0.6,0.1-1.2,0.1-1.8c0.1-2.5-0.8-4.7-2.2-6.7c-1.4-1.8-3.2-3-5.4-3.6c-2.6-0.8-4.7-0.1-6.8,1.4c-2.7,1.8-2.9,4.8-3.4,7.6
	c-0.3,1.6,0.2,3.2,0.5,4.9c0.3,1.8,0.9,3.5,2,4.9c1.9,2.6,4.5,4.1,8,4.1c4.2,0,6.9-3.6,7.4-7C198.1,114.9,198,113.7,198,112.5z"/>
<path d="M229.4,117.4c0-2.9,0.1-5.9,0-8.8c-0.1-2.9,0.6-5.8-0.9-8.6c-0.7-0.1-1.6-0.2-2.5-0.4c1-0.8,7.2-0.9,8.6-0.1
	c-0.3,0.1-0.6,0.2-0.8,0.3c-1.5,0.3-1.9,0.7-1.9,2.3c-0.1,3.9-0.1,7.8-0.1,11.8c0,3.2,0,6.3-0.1,9.5c0,0.4-0.3,0.8-0.4,1.3
	c-0.4-0.2-0.9-0.2-1.2-0.5c-2.4-2.3-4.9-4.7-7.3-7c-2.2-2.2-4.4-4.4-6.6-6.7c-1.1-1.1-2.1-2.3-3.2-3.4c-0.1-0.1-0.4-0.2-0.5-0.3
	c-0.1,0.2-0.3,0.4-0.3,0.6c0,0.5,0,1,0,1.6c0,3.6,0.1,7.1,0.1,10.7c0,3.5,0.1,3.6,3,4.9c-2.8,0-5.6,0-8.7,0c0.9-0.4,1.6-0.7,2.1-1.1
	c0.4-0.3,0.7-0.9,0.7-1.3c0.1-3.6,0.1-7.1,0.2-10.7c0.1-4.1,0.3-8.1,0.5-12.2c0-0.2,0.1-0.4,0.2-1c6.4,6.6,12.8,12.9,18.9,19.5
	C229.2,117.5,229.3,117.4,229.4,117.4z"/>
<path d="M107.3,124.8c-0.7-0.3-1.3-0.4-1.6-0.7c-3-3-6-6-9-8.9c-1.6-1.6-3.3-3.2-5-4.8c-1.1-1.1-2.1-2.2-3.1-3.4
	c-0.2-0.2-0.4-0.3-0.6-0.4c-0.1,0.3-0.3,0.6-0.3,0.9c0,2.7,0.1,5.4,0.1,8c0,1.7,0,3.4,0.1,5c0.1,2.2,0.5,2.7,2.9,3.6
	c-0.7,0.6-7.4,0.6-8.4-0.1c0.4-0.1,0.7-0.1,1-0.2c0.8-0.3,1.5-0.7,1.5-1.7c0-1.5-0.1-3.1,0.1-4.6c0.7-6.1,0.5-12.3,0.6-18.5
	c0-0.2,0.1-0.5,0.4-0.9c3.1,3.1,6.3,6.2,9.4,9.4c3.2,3.2,6.2,6.6,9.6,9.8c-0.1-5.8,0.7-11.6-0.5-17.4c-1-0.2-1.8-0.3-2.7-0.4
	c0.9-0.8,7.2-0.9,8.6,0c-0.8,0.1-1.4,0.3-2.3,0.4c-0.2,1.1-0.5,2.3-0.5,3.5c-0.1,6.5-0.1,13-0.1,19.4
	C107.3,123.4,107.3,123.8,107.3,124.8z"/>
<path d="M308.4,157.4c1-0.6,1.7-0.9,2.3-1.4c0.3-0.2,0.5-0.7,0.5-1.1c0-7.1,0.1-14.2,0-21.2c0-0.9-0.8-1.7-1.8-1.7
	c-0.4,0-0.8-0.1-1.3-0.1c0-0.1,0-0.3,0-0.4c5.5,0,10.9,0,16.4,0c-0.3,1.5-0.6,3-0.9,4.6c-0.5-0.8-0.8-1.5-1.2-2.1
	c-0.2-0.2-0.6-0.4-0.9-0.5c-1.7-0.1-3.4-0.1-5-0.1c-0.3,0-0.8,0.4-0.8,0.7c-0.1,2.8,0,5.5,0,8.5c2.8-0.2,5.5,0.6,8.2-0.9
	c-0.2,1.9,0.3,3.7-0.9,5.3c-0.3-0.2-0.4-0.2-0.4-0.3c-0.5-2-0.5-1.9-2.6-2c-1-0.1-2.1-0.4-3.1-0.4c-0.4,0-1.2,0.7-1.2,1.1
	c-0.1,2.8-0.1,5.7,0,8.5c0,0.9,0.6,1.5,1.6,1.5c0.5,0,1,0.4,1.6,0.4c0.6,0.1,1.2,0,1.9-0.1c0.2,0,0.4-0.3,0.6-0.3
	c2.1,0.2,2.9-1.3,3.5-2.9c0,0,0.1,0,0.3-0.1c0.8,1.7-0.5,3.2-0.5,5C319.4,157.4,314.1,157.4,308.4,157.4z"/>
<path d="M248.9,98.2c0.5,0.9,1,1.9,1.4,2.9c0.6,1.6,1.1,3.3,1.8,4.9c0.6,1.6,1.4,3,2,4.6c0.8,2.1,1.5,4.3,2.4,6.4
	c0.9,2,1.8,3.9,3,5.7c0.5,0.8,1.7,1.1,2.6,1.6c-0.3,0.4-6,0.6-7.8,0.1c0-0.3,0.1-0.7,0-1c-0.4-1.3-0.8-2.6-1.3-3.9
	c-0.3-0.9-0.7-1.8-0.9-2.7c-0.2-0.7-0.6-1.1-1.3-1.1c-2.2,0-4.5,0-6.9,0c-0.5,1.5-1.1,3-1.6,4.6c-0.3,0.7-0.6,1.5-0.7,2.3
	c-0.2,1,0.2,1.6,1.3,1.5c0.2,0,0.4,0.1,0.6,0.3c-2.8,0.4-5.5,0.4-8.3,0c0.7-0.3,1.3-0.6,2-0.9c1.4-0.7,1.9-2,2.4-3.4
	c0.5-1.6,1.4-3,2-4.5c0.6-1.5,1-3,1.6-4.5c0.6-1.6,1.4-3.1,2-4.7c0.3-0.7,0.6-1.4,0.9-2.1c0.3-0.9,0.5-1.9,0.9-2.8c0.4-1,1-2,1.5-3
	C248.5,98.2,248.7,98.2,248.9,98.2z M250.4,113.9c0.3-1.2-0.8-4.8-2.4-8.1c-1,0.4-3.3,7.1-3.1,8.1
	C246.6,113.9,248.5,113.9,250.4,113.9z"/>
<path d="M119.5,115.5c-0.8,1.9-1.6,3.7-2.4,5.5c-0.6,1.4,0,2.5,1.8,3c-0.7,0.5-6.9,0.6-8.2,0.1c0.7-0.3,1.3-0.4,1.8-0.7
	c1.3-0.8,2-1.9,2.4-3.5c0.4-1.5,1.3-2.9,1.9-4.4c0.6-1.4,1.1-2.8,1.7-4.2c0.7-1.7,1.5-3.4,2.2-5.1c0.3-0.7,0.5-1.4,0.8-2.1
	c0.5-1.6,1-3.1,1.6-4.7c0.2-0.5,0.8-0.8,1.2-1.2c0.3,0.4,0.8,0.8,1,1.3c0.5,1,1,2.1,1.4,3.1c0.3,0.9,0.6,1.8,0.9,2.7
	c0.2,0.7,0.5,1.4,0.8,2.2c0.6,1.5,1.4,2.9,2,4.4c0.6,1.6,1.1,3.2,1.8,4.8c0.6,1.4,1.5,2.8,2,4.2c0.4,1.1,1,1.8,1.9,2.3
	c0.6,0.3,1.3,0.5,2.1,0.8c-0.4,0.1-0.6,0.3-0.8,0.3c-2.2,0-4.4,0-6.6,0c-0.7,0-0.9-0.2-0.8-0.9c0.2-1.6-0.7-2.9-1.3-4.4
	c-0.4-0.9-0.7-1.8-0.9-2.7c-0.1-0.7-0.5-0.9-1.1-0.9C124.1,115.5,121.8,115.5,119.5,115.5z M126.1,114c0-0.8,0-1.4-0.2-2
	c-0.5-1.5-1-3-1.6-4.5c-0.2-0.6-0.7-1.2-1-1.7c-0.4,0.7-0.8,1.5-1.1,2.2c-0.4,1-0.9,2-1.3,3c-0.3,0.9-0.6,1.9-0.9,2.9
	c0.5,0,0.8,0.1,1,0.1C122.7,114,124.2,114,126.1,114z"/>
<path d="M79.3,135.7c0.4-1.6,0.7-3.2,1-4.5c7.6,0.2,15,0.1,22.3,0.1c0,1.7,0,3.3,0,4.9c-0.1,0-0.2,0-0.3,0c-0.1-0.2-0.3-0.4-0.3-0.7
	c-0.1-1.3-1.2-1.9-2.2-2c-2-0.2-4-0.1-6.1-0.1c0,0.3-0.1,0.6-0.1,0.9c0,6.6,0,13.2,0.1,19.8c0,2.1,0.3,2.4,2.4,2.6
	c0.4,0,0.7,0.2,1.1,0.2c0,0.1,0,0.2,0,0.3c-3.6,0-7.2,0-10.7,0c0-0.1,0-0.2-0.1-0.3c0.2-0.1,0.5-0.2,0.7-0.3c1.3-0.2,2-0.9,2.1-2.2
	c0-6.8,0-13.5,0.1-20.3c0-0.7-0.2-0.9-0.9-0.9c-2,0-3.9-0.1-5.9,0.2c-0.8,0.1-1.5,1.1-2.3,1.8c-0.2,0.1-0.3,0.4-0.4,0.5
	C79.6,135.8,79.5,135.8,79.3,135.7z"/>
<path d="M135.3,103.1c-0.6-1-0.4-3.7,0.5-4.4c0.2-0.1,0.5-0.2,0.7-0.1c1.1,0.1,2.2,0.5,3.3,0.5c5,0,9.9,0,14.9,0
	c0.8,0,1.6-0.2,2.6-0.3c0,1.5,0,3.1,0,4.7c-0.1,0-0.1,0.1-0.2,0.1c-0.1-0.2-0.3-0.4-0.3-0.6c-0.1-1.1-0.8-1.6-1.8-1.7
	c-1.7-0.2-3.4-0.4-5.1-0.7c-1-0.1-1.4,0.4-1.4,1.3c0,6.4,0,12.9,0.1,19.3c0,1.6,0.9,2.5,2.5,2.6c0.3,0,0.7,0.1,1,0.4
	c-3.4,0.3-6.8,0.3-10.2,0.2c0-0.1,0-0.2,0-0.3c0.5-0.2,1-0.3,1.4-0.6c0.7-0.4,0.8-1.2,0.8-1.9c0-6.5,0-13,0.1-19.4
	c0-1.1-0.3-1.6-1.5-1.5c-1.9,0.3-3.9,0.3-5.7,0.7C136.3,101.5,135.8,102.4,135.3,103.1z"/>
<path d="M172.4,157.2c0.7-0.4,1.3-0.7,1.9-1.1c0.3-0.2,0.5-0.7,0.5-1c0-7.2,0-14.3,0-21.5c0-1.1-0.6-1.6-1.7-1.7
	c-0.4,0-0.8-0.1-1.2-0.1c0-0.1,0-0.2,0-0.4c3.4,0,6.9,0,10.3,0c0,0.1,0,0.2,0,0.3c-0.2,0.1-0.4,0.2-0.6,0.2
	c-1.7,0.2-2.4,0.9-2.4,2.6c0,5.8,0,11.7,0,17.5c0,0.9,0.4,1.9,0.8,2.8c0.1,0.2,0.7,0.4,1,0.4c1.9,0,3.8,0.1,5.6,0
	c1.1,0,1.9-0.8,2.2-1.9c0.1-0.3,0.2-0.7,0.3-1.2c0.9,1.2,0.6,4.4-0.3,5.1c-0.2,0.1-0.4,0.2-0.7,0.2c-5.1,0-10.2,0-15.3,0
	C172.8,157.5,172.6,157.3,172.4,157.2z"/>
<path d="M264.1,124.3c1.9-0.8,2.2-1.6,2.2-3.3c0-6.3,0-12.6,0-18.9c0-1.9,0.1-2.3-2.1-2.3c-0.2,0-0.4-0.1-0.7-0.4
	c3.3-0.5,6.6-0.4,9.9-0.2c0,0.2,0,0.3,0,0.5c-0.5,0.1-1,0.2-1.4,0.2c-0.9,0-1.3,0.4-1.3,1.3c0,6.4,0,12.9,0,19.3
	c0,1,0.6,1.9,1.7,1.9c1.8,0.1,3.6,0.1,5.4,0c1,0,1.5-0.8,1.9-1.6c0.2-0.5,0.6-0.9,0.9-1.4c0.1,0,0.2,0.1,0.3,0.1
	c0,0.3,0.1,0.6,0,0.9c-0.2,0.9-0.4,1.9-0.5,2.8c-0.1,0.9-0.6,1.4-1.5,1.4c-4.8,0-9.5,0-14.3,0C264.5,124.5,264.3,124.3,264.1,124.3z
	"/>
<path d="M34.4,168.1c-0.5-0.3-1-0.5-1.4-0.8c-2.7-2.5-5.5-4.9-8.1-7.6c-1.8-1.9-3.3-4.2-4.8-6.3c-1.6-2.2-3-4.5-4.4-6.7
	c-0.9-1.4-1.6-2.9-2.3-4.3c-0.9-1.8-1.9-3.6-2.7-5.4c-0.4-1-0.6-2-1-3c-0.4-1.2-0.9-2.3-1.3-3.4c-0.4-1.1-0.7-2.2-0.9-3.3
	c-0.5-2-0.9-4-1.4-6.1c0-0.1,0-0.2-0.1-0.4c-0.8-6.4-1-12.8-0.7-19.2c0.1-1.8,0.2-3.8,0.8-5.5c0.4-1.4,0.4-2.7,0.7-4
	c0.4-2,0.9-3.9,1.5-5.8c0.7-2.1,1.4-4.2,2.2-6.3c0.7-1.8,1.4-3.5,2.3-5.2c1.2-2.3,2.4-4.6,3.8-6.8c1.9-2.8,3.9-5.6,5.9-8.3
	c1.4-1.8,2.9-3.6,4.6-5.2c1.9-1.9,3.9-3.6,6-5.4c0.2-0.2,0.8,0,1.4,0C15.9,64.6,6.1,84.5,6.2,108.5c0.1,24,10.2,43.7,28.7,59.1
	C34.7,167.8,34.6,167.9,34.4,168.1z"/>
<path d="M170.7,99.5c-0.3,0.1-0.6,0.2-0.9,0.2c-1.3,0-1.7,0.9-1.7,1.9c-0.1,6.5,0,13,0,19.5c0,1.5,1.2,2.6,2.7,2.7
	c0.3,0,0.5,0.1,0.8,0.1c-0.6,0.6-8.9,0.8-10.5,0.1c0.5-0.1,0.8-0.2,1-0.3c0.5-0.3,1.1-0.5,1.3-0.9c0.4-0.9,0.7-2,0.7-2.9
	c0.1-5.9,0.1-11.8,0-17.6c0-0.8-0.5-1.6-0.7-2.5c-0.6-0.1-1.3-0.2-1.9-0.3c0-0.1,0-0.3,0-0.4c3.1-0.4,6.2-0.2,9.3-0.1
	C170.7,99.2,170.7,99.4,170.7,99.5z"/>
<path d="M333.8,163c-3.6,3.4-5.7,10-3.9,12.4c-1.1,0-2,0-3.2,0c1.5-4.7-1.1-8.2-3.6-11.7c-0.2-0.2-0.7-0.2-1.2-0.3
	c-1.4,4.1-2.8,8.1-4.1,12.1c-0.1,0-0.2,0.1-0.3,0.1c-1.5-2.6-2.5-5.3-3.5-8.2c-0.7-0.2-1,0.1-1.2,0.9c-0.2,1.1-0.6,2.1-1,3.1
	c-0.4,1-0.9,2-1.3,3.1c-0.2,0.7-0.5,1-1.2,0.8c-1.4-4.2-2.7-8.2-4.1-12.4c1,0,1.9,0,2.4,0c0.8,3,1.6,5.8,2.5,9
	c1.9-2.7,2.2-5.8,3.8-8.5c1.2,0.9,1.4,2.4,1.9,3.7c0.6,1.4,1.2,2.8,1.8,4.2c0.8-0.2,1-0.8,1.2-1.7c0.3-1.4,0.9-2.7,1.3-4.1
	c0.2-0.8,0.2-1.7,0.3-2.6c1.7,0,3.3,0,4.9,0c1.2,2,2.3,4,3.6,6.2c1.1-2.3,2-4.1,3.1-6.1C332.3,163,333,163,333.8,163z"/>
<path d="M18.7,155.3c-0.2-0.1-0.6-0.1-0.7-0.3c-1.5-2.3-3.1-4.7-4.5-7c-0.8-1.4-1.5-2.8-2.2-4.2c-0.7-1.3-1.4-2.5-2-3.8
	c-0.4-0.8-0.6-1.6-0.9-2.4c-0.5-1.1-1-2.3-1.4-3.4c-0.4-1.1-0.6-2.2-0.9-3.3c-0.4-1.4-0.9-2.9-1.3-4.3c0-0.2-0.1-0.3-0.1-0.5
	c-0.3-2.1-0.5-4.2-0.9-6.2c-1.4-6.6-0.7-13.4-0.6-20c0-2.6,0.8-5.1,1.3-7.7c0.3-1.6,0.6-3.2,1-4.8c0.3-1.2,0.8-2.4,1.2-3.5
	c0.3-0.8,0.5-1.7,0.8-2.5c0.5-1.6,1-3.3,1.7-4.9c0.5-1.3,1.3-2.5,1.9-3.8c0.3-0.6,0.6-1.2,0.9-1.7c1-1.7,1.9-3.4,3-5.1
	c1.1-1.8,2.1-3.7,3.4-5.4c1.5-2,3.2-3.8,4.8-5.6c0.4-0.4,0.7-0.9,1.1-1.2c0.2-0.2,0.4-0.2,1-0.4c-0.2,0.7-0.3,1.1-0.5,1.4
	c-2.1,2.5-4.3,4.8-6.2,7.4c-1.6,2.1-2.7,4.4-4.1,6.7c-0.9,1.5-1.8,3-2.6,4.6c-0.7,1.4-1.2,2.9-1.8,4.3c-0.7,1.7-1.4,3.4-2.1,5
	c-0.3,0.7-0.5,1.5-0.7,2.3C6.5,86,6.3,87.2,6,88.4c-0.4,1.9-0.9,3.7-1.3,5.6c0,0.2-0.1,0.4-0.1,0.6c-0.8,5.4-1,10.9-0.8,16.3
	c0,0.5,0,1,0,1.6c0.3,3,0.4,6,0.9,8.9c0.3,2.3,0.9,4.7,1.5,7c0.4,1.6,0.9,3.2,1.4,4.8c0.8,2.2,1.8,4.4,2.8,6.5
	c0.6,1.3,1.1,2.7,1.7,3.9c1.1,2,2.3,4,3.5,5.9c0.8,1.3,1.7,2.7,2.5,4C18.3,154.1,18.5,154.7,18.7,155.3
	C18.8,155.3,18.7,155.3,18.7,155.3z"/>
<path d="M117.4,92.1c-1.5,0-3,0-4.7,0c1.8-2,1-4.4,1.1-6.5c0-0.3-0.6-0.7-1-0.8c-1.9-0.1-3.8-0.1-5.6,0c-0.3,0-0.8,0.5-0.8,0.8
	c-0.1,1.6-0.1,3.2,0.1,4.8c0,0.5,0.5,1,0.9,1.6c-1.3,0-2.8,0-4.3,0c0.2-0.4,0.5-0.7,0.5-1.1c0-4.3,0-8.5,0-12.8
	c-0.4-0.1-0.8-0.2-1.2-0.3c0-0.1,0-0.2,0-0.3c1.6,0,3.2,0,4.8,0c-1.3,1.6-0.6,3.6-0.7,5.4c0,0.1,0.5,0.4,0.8,0.5c1.9,0,3.8,0,5.6,0
	c0.7,0,1.1-0.3,1-1.1c-0.2-1.3-0.3-2.5-0.5-3.8c-0.1-0.3-0.5-0.6-0.9-1c1.7,0,3.3,0,4.9,0c-1.3,0.4-1.1,1.4-1.1,2.3
	c0,3.3,0,6.6,0,9.8C116.2,90.6,116.3,91.5,117.4,92.1z"/>
<path d="M165.5,175.7c-3,0.4-5-1.2-6.2-3.6c-0.5-1-0.4-2.3-0.4-3.5c0-2.5,1.3-4.2,3.6-5.2c3-1.3,5.7-0.8,8.1,1.1
	c1.3,1,2.2,4.1,1.5,6.1c-0.7,2-1.7,3.5-3.5,4.4C167.8,175.5,166.6,175.5,165.5,175.7z M166,174.9c0.6-0.1,1.4-0.1,1.9-0.4
	c1.7-0.9,1.7-2.8,2.2-4.4c0.2-0.7-0.4-1.6-0.5-2.4c-0.1-1.9-1.2-2.8-2.7-3.8c-2.2-1.4-5.6,0.4-5.6,2.8c0,1.2,0,2.5,0,3.7
	C161.2,172.5,163.4,175.3,166,174.9z"/>
<path d="M136.9,90c0.8,1.3,0.4,2.2-0.9,2.2c-2.4,0-4.8,0-7.4-0.2c1.3-1.1,1.1-2.5,1.1-3.8c0-2.6,0-5.3,0-7.9c0-1.1,0.3-2.3-1.3-2.8
	c0.2-0.1,0.3-0.2,0.5-0.2c2.4,0,4.9,0,7.3,0c0.3,0,0.7,0.3,0.7,0.4c-0.1,0.5-0.2,1.1-0.3,1.3c-1.7-0.2-3-0.3-4.6-0.5
	c0,1.7-0.1,3,0,4.4c0,0.3,0.6,0.9,1,0.9c1,0,2.1-0.2,3.3-0.3c0,0.6,0,1.4,0,2.2c-1.2-1.8-2.8-0.8-4.3-1c0,1.8,0,3.4,0,5
	c0,0.2,0.1,0.5,0.3,0.6c0.7,0.7,3.7,0.4,4.3-0.3C136.7,90.1,136.8,90.1,136.9,90z"/>
<path d="M248.9,175.3c-1.5,0.6-2.7,0.2-3.5-1.1c-0.8-1.2-1.6-2.4-2.6-3.4c-0.4-0.4-1.2-0.3-2-0.5c0.1,1.8-0.4,3.5,0.5,5.1
	c-0.9,0-1.8,0-2.7,0c0-4.1,0-8.2,0-12.5c2.2,0,4.4-0.4,6.5,0.7c0.4,0.2,0.9,0.8,1,1.2c0.3,1.5,0.4,3-1.1,4.1c-0.7,0.5-0.6,1.2,0,1.9
	C246.2,172.3,247.5,173.8,248.9,175.3z M240.8,169.3c2.2,0.4,2.4,0.3,3.3-1.3c1.1-2-0.5-4-2.3-4.5c-0.6-0.2-1,0.1-1,0.8
	C240.8,166,240.8,167.7,240.8,169.3z"/>
<path d="M92.9,77.3c0,0.8,0,1.5,0,2.3c-0.6-0.3-1.1-0.7-1.6-0.8c-3.4-0.4-3.4-0.4-3.4,3c0,2.5-0.1,5,0.1,7.5c0,0.9,0.6,1.7,0.9,2.7
	c-1.3,0-2.8,0-4.4,0c1.2-0.5,1-1.6,1-2.5c0-3.2,0-6.4,0-9.6c0-0.3,0-0.7-0.1-1.2c-1.7,0.2-3.4-0.6-4.9,0.7c-0.7-1.4-0.3-2.2,1.1-2.2
	C85.4,77.3,89.1,77.3,92.9,77.3z"/>
<path d="M126.8,45.8c0.5,0.2,1.1,0.4,1.6,0.7c1.2,0.9,2.4,1.8,3.6,2.8c1.5,1.3,3.1,2.7,4.5,4.1c1.9,1.9,3.7,3.9,5.5,6
	c1.3,1.5,2.4,3.1,3.5,4.7c1.2,1.7,2.4,3.5,3.5,5.3c0.7,1.1,1.2,2.4,1.8,3.6c0.6,1.2,1.3,2.4,1.9,3.6c0.6,1.4,1.2,2.8,1.7,4.3
	c0.5,1.2,1,2.4,1.3,3.6c0.4,1.3,0.7,2.6,1,3.9c0.2,0.8,0.5,1.7,0.7,2.5c0.1,0.4-0.1,0.8-0.4,1.2c-0.3-0.9-0.7-1.7-1-2.6
	c-0.3-0.9-0.5-1.8-0.7-2.7c-0.5-1.8-1-3.7-1.7-5.5c-0.6-1.5-1.4-2.9-2-4.3c-0.3-0.6-0.5-1.3-0.8-1.9c-1.2-2.8-2.8-5.4-4.4-7.9
	c-1.5-2.3-3-4.5-4.7-6.6c-1.5-1.8-2.9-3.6-4.6-5.2c-2.5-2.5-5.1-4.8-7.8-7.1c-0.7-0.7-1.6-1.1-2.4-1.7
	C126.8,46.4,126.8,46.1,126.8,45.8C126.7,45.9,126.8,45.8,126.8,45.8z"/>
<path d="M357.1,175.3c-1.8,0.6-2.2,0.2-3.8-1.6c-0.8-0.9-1.5-2-2.3-2.9c-0.3-0.3-1-0.4-1.4-0.3c-0.3,0.1-0.7,0.7-0.6,1.1
	c0.1,1.3,0.3,2.5,0.5,3.9c-0.8,0-1.7,0-2.5,0c0.1-1,0.3-2,0.3-2.9c0-2.4,0-4.8,0-7.2c0-0.7-0.3-1.5-0.4-2.3c2.1-0.2,4.5-0.6,6.7,0.7
	c1.3,0.7,1.6,2.5,0.7,3.7c-0.3,0.4-0.4,0.9-0.7,1.3c-0.3,0.4-0.6,0.8-1,1.2C354.1,171.8,355.6,173.6,357.1,175.3z M352.6,166.6
	c0.1-1.1-0.3-2-1.6-2.5c-0.4-0.2-1-0.6-1.2-0.4c-0.4,0.3-0.9,0.9-0.9,1.3c-0.1,1.1-0.1,2.2,0,3.3c0,0.7,0.5,1.2,1.3,1.2
	C351.8,169.7,352.7,168.7,352.6,166.6z"/>
<path d="M104.2,41.2c0,1.6,0,3.1,0,4.7c0,1.1,0.5,1.2,1.5,1c1-0.2,2,0,3,0.1c0.5,0,0.9,0.1,1.4,0.3c0.6,0.3,1.5,0.6,1.6,1
	c0.1,0.6-0.3,1.5-0.8,1.9c-2.6,2-5.6,1.9-8.6,1.5c-0.7-0.1-1.5-1.2-1.7-2c-0.2-0.7,0.6-1.4,1.5-1.8c0.5-0.2,1.1-1,1.2-1.6
	c0.2-1.3,0.1-2.6,0.2-3.9C103.6,42,104,41.6,104.2,41.2C104.2,41.3,104.2,41.2,104.2,41.2z"/>
<path d="M208.5,169.1c-0.1,2.2-0.4,4.3-2.2,5.9c-1.4,1.2-4.6,0.6-5.3-1.1c-0.8-1.6-1.6-3.3-1.3-5.1c0.3-2.1,0.7-4.3,2.8-5.7
	c1.2-0.7,3.7-0.4,4.5,0.7C208.1,165.5,208.5,167.2,208.5,169.1z M205.2,174.7c0.4-0.7,0.9-1.3,0.9-1.9c0.1-2.7,0.7-5.4-0.7-8
	c-0.5-1-1.7-1.6-2.3-1c-0.6,0.7-1.3,1.5-1.4,2.4c-0.2,1.9-0.2,3.8,0,5.7C202.1,174.1,203.4,175.1,205.2,174.7z"/>
<path d="M88.2,184.1c0.1-0.1,0.3-0.2,0.4-0.2c1.6-0.3,3.1-0.5,4.7-0.7c2.1-0.3,4.2-0.5,6.3-0.9c1.4-0.3,2.7-0.9,4.1-1.3
	c1.1-0.3,2.3-0.5,3.4-0.9c1.1-0.3,2.1-0.8,3.1-1.2c0.6-0.3,1.3-0.5,1.9-0.8c2.3-1.1,4.7-2,6.9-3.2c2.2-1.2,4.4-2.6,6.5-4.1
	c2.8-2,5.5-4.3,8.3-6.4c0.4-0.3,0.8-0.8,1.2-1.1c0.2-0.1,0.5-0.1,0.8-0.1c-0.1,0.2,0,0.6-0.2,0.7c-1,1-1.9,2-3,2.9
	c-2.5,1.9-5,3.9-7.6,5.7c-1.9,1.3-3.9,2.3-5.9,3.4c-1.2,0.7-2.4,1.5-3.7,2.1c-0.7,0.4-1.5,0.6-2.2,0.9c-0.9,0.4-1.9,0.8-2.8,1.2
	c-0.7,0.3-1.3,0.6-2.1,0.9c-1.1,0.3-2.3,0.6-3.4,0.9c-1.3,0.4-2.5,0.8-3.8,1.2c-0.1,0-0.2,0.1-0.3,0.1c-1.9,0.3-3.8,0.7-5.7,1
	c-1.9,0.3-3.8,0.5-5.8,0.7c-0.4,0-0.8-0.1-1.3-0.2C88.2,184.3,88.2,184.2,88.2,184.1z"/>
<path d="M178.5,175.4c-1.1,0-2,0-3,0c0-4.1,0-8.2,0-12.5c2.2-0.1,4.4-0.5,6.5,0.6c0.4,0.2,0.8,0.9,0.9,1.4c0.3,1.6,0.3,3.2-1.4,4.2
	c-0.4,0.2-0.9,0.3-1.3,0.4c0.4-1.1,0.9-2,1.1-2.9c0.2-0.9-1.3-2.8-2.2-3c-0.7-0.2-1.4,0-1.4,0.9c0,3.2,0,6.5,0,9.7
	C177.9,174.5,178.2,174.8,178.5,175.4z"/>
<path d="M336.3,175.4c0.2-0.8,0.4-1.6,0.4-2.3c0-2.8,0-5.5,0-8.3c0-0.5-0.2-1.1-0.4-1.8c2,0,4.1,0,6.3,0c0,0.4,0,0.9,0,1.5
	c-0.9-0.3-1.7-0.6-2.5-0.8c-1-0.3-1.3,0.2-1.4,1c0,0,0,0.1,0,0.1c0.1,4-0.7,3.2,3.1,3.2c0.2,0,0.4,0,0.7,0c0,0.5,0,0.9,0.1,1.5
	c-1-0.1-1.9-0.1-2.8-0.2c-0.9-0.1-1.1,0.3-1.1,1.1c0.1,0.8-0.1,1.7,0,2.5c0.1,0.6,0.3,1.5,0.6,1.5c0.8,0.2,1.7,0.1,2.5-0.1
	c0.4-0.1,0.8-0.6,1.2-1c0.4,1.3,0,2-1.2,2c-1.8,0-3.6,0-5.4-0.1C336.4,175.4,336.3,175.4,336.3,175.4z"/>
<path d="M218.6,169.1c-0.4,1.6-0.6,3.3-1.2,4.6c-0.4,0.9-1.2,1.8-2.6,1.9c-1.7,0.1-3.1-0.2-4-1.8c-1.4-2.4-0.8-5.1-0.6-7.6
	c0.1-0.9,1-1.9,1.7-2.7c0.8-0.9,1.9-0.8,3-0.8c1.3,0,2.2,0.9,2.6,1.9C218,166,218.2,167.6,218.6,169.1z M211.3,169
	c0.3,1.5,0.6,3,1.1,4.4c0.5,1.7,2.2,2,3.1,0.6c0.7-1,1.1-2.3,1.1-3.5c0-1.7-0.3-3.4-0.7-5.1c-0.1-0.6-0.6-1.2-1.1-1.6
	c-0.6-0.4-1.3-0.7-1.9,0.2C212,165.6,211.4,167.2,211.3,169z"/>
<path d="M267.8,175.4c-1.1,0-2,0-2.9,0c-0.3-1.1-0.6-2.2-1-3.3c-0.4-1.1-1.4-1.2-2.4-1.1c-2.1,0.1-2.4,0.3-2.7,2.3
	c-0.1,0.3-0.3,0.7-0.5,1.2c0.1,0.1,0.3,0.4,0.6,0.8c-0.9,0.1-1.6,0.1-2.5,0.1c0.8-1.7,1.6-3.2,2.3-4.8c0.3-0.7,0.5-1.3,0.8-2
	c0.5-1.5,1-3.1,1.6-4.6c0.2-0.5,0.6-0.9,1.1-1.5c0.7,1.8,1.3,3.4,1.9,5c0.6,1.5,1.4,3,2,4.6c0.2,0.4,0.2,1,0.4,1.4
	C266.8,174.1,267.3,174.7,267.8,175.4z M261.6,166.5c-0.1,0-0.3,0-0.4,0c-0.4,1.2-0.8,2.3-1.2,3.6c1.1,0,2,0,3,0
	C262.5,168.8,262.1,167.7,261.6,166.5z"/>
<path d="M305.3,175.4c-1.1,0-2,0-2.9,0c-0.6-1.4-1.2-2.8-1.8-4.3c-1.3,0.3-2.8-0.8-3.8,0.6c-0.7,1-1,2.3-1.6,3.7c-0.3,0-0.9,0-1.3,0
	c0.6-1.6,1.1-3.1,1.7-4.6c1-2.5,2-4.9,3-7.3c0.1-0.2,0.4-0.5,0.6-0.4c0.3,0.1,0.6,0.3,0.7,0.5c0.6,1.6,1,3.2,1.7,4.7
	c0.9,2.1,1.9,4.2,2.9,6.3C304.6,174.8,304.9,175,305.3,175.4z M300.3,170.4c-0.5-1.5-0.9-2.6-1.2-3.8c-0.1,0-0.2,0-0.4,0
	c-0.5,1.1-1,2.3-1.5,3.7C298.2,170.3,299.1,170.3,300.3,170.4z"/>
<path d="M146.4,164.4c-0.3-0.8,0.3-1.5,1.1-1.5c3.3-0.1,6.6,0,10.1,0c0,0.7-0.1,1.3-0.1,1.6c-1.3-0.1-2.5-0.2-3.6-0.2
	c-0.3,0-0.7,0.6-0.8,0.9c-0.1,2.9,0,5.8,0,8.7c0,0.5,0.3,0.9,0.5,1.5c-0.8,0-1.7,0-2.7,0c0-1.8,0-3.7,0-5.6c0-1.6,0-3.1,0-4.7
	c0-0.7-0.2-1-0.9-0.9C148.8,164.2,147.7,164.3,146.4,164.4z"/>
<path d="M231.5,175.4c-0.7,0-1.6,0-2.6,0c0-2.2,0-4.3,0-6.5c0-1.3,0-2.6,0-4c0-0.3-0.4-0.8-0.5-0.8c-1.2,0-2.5,0.1-3.8,0.2
	c-0.2-0.8,0.2-1.6,1.2-1.6c3.2,0,6.4,0,9.7,0c0,0.6,0,1,0,1.5c-1.1-0.1-2.2-0.2-3.3-0.2c-0.8,0-1.1,0.3-1.1,1.2c0.1,2.5,0,5,0,7.4
	C231,173.6,231.3,174.4,231.5,175.4z"/>
<path d="M140.2,53.2c0.5,0.4,1.1,0.7,1.5,1.1c1.7,1.9,3.4,3.8,4.9,5.8c1.3,1.7,2.3,3.6,3.4,5.4c0.9,1.4,1.8,2.8,2.6,4.3
	c0.7,1.2,1.2,2.4,1.8,3.6c0.7,1.4,1.4,2.7,2.1,4.1c0.4,0.7,0.6,1.5,0.9,2.3c0.3,1.1,0.5,2.2,0.9,3.2c0.4,1.1,1.1,2.2,1.2,3.4
	c0.2,1.9,1.5,3.6,0.7,5.9c-0.4-1.1-0.8-2-1.1-2.9c-0.4-1.3-0.5-2.7-0.9-4c-0.4-1.2-0.9-2.4-1.3-3.6c-0.3-0.9-0.5-1.9-0.9-2.8
	c-0.3-0.9-0.8-1.7-1.2-2.6c-0.3-0.7-0.6-1.4-1-2.1c-1-1.9-1.9-3.7-3-5.5c-1-1.8-2-3.6-3.2-5.3c-0.8-1.2-1.8-2.4-2.7-3.5
	c-1.5-1.9-3.1-3.8-4.6-5.7C140.3,53.9,140.3,53.6,140.2,53.2C140.2,53.3,140.2,53.2,140.2,53.2z"/>
<path d="M126.8,174c-0.3,0.4-0.6,1-1,1.3c-2,1.2-4,2.3-6.1,3.3c-2.1,1-4.1,2-6.2,2.9c-2,0.8-4,1.5-6.1,2.3c-1.1,0.4-2.2,0.9-3.3,1.3
	c0,0-0.1,0-0.1,0c-1.5,0.3-3,0.5-4.5,0.8c-1.9,0.4-3.8,0.9-5.8,1.2c-1.7,0.2-3.4,0.2-5.1,0.3c0-0.2-0.1-0.3-0.1-0.5
	c0.3-0.1,0.6-0.3,0.9-0.3c2.4-0.3,4.9-0.5,7.2-0.8c2.2-0.4,4.3-0.9,6.4-1.5c2.3-0.7,4.7-1.4,7-2.3c2-0.8,3.9-1.8,5.8-2.7
	c2.2-1.1,4.4-2.1,6.6-3.2c1-0.5,1.9-1.3,2.9-1.9C125.7,174.1,126.3,174.1,126.8,174L126.8,174z"/>
<path d="M358.3,175.5c0.1-0.9,0.2-1.5,0.3-2.1c0.1-0.1,0.2-0.2,0.3-0.3c0.4,2,1.9,1.8,3.2,1.7c1.2-0.1,1.6-1.3,1.2-2.5
	c-0.6-1.8-2.4-2.3-3.5-3.6c-1.5-1.7-1.7-3.2-0.4-4.9c0.4-0.5,1.2-0.8,1.9-1c0.8-0.2,1.7-0.1,2.5,0c0.3,0,0.6,0.4,0.8,0.7
	c0.1,0.2-0.1,0.5-0.2,0.8c-0.3-0.2-0.5-0.4-0.8-0.5c-0.8-0.1-1.6-0.4-2.3-0.2c-0.5,0.2-1.2,1.1-1.1,1.6c0.1,0.7,0.8,1.4,1.4,2
	c1,1.1,2.3,2,3.1,3.2c0.5,0.7,0.6,2,0.3,2.9c-0.3,1-1.1,2.1-2.5,2.1C361.2,175.5,359.9,175.5,358.3,175.5z"/>
<path d="M285.1,163c1.1,0,2.2,0,3.1,0c-0.1,0.6-0.3,1.1-0.3,1.6c0,2.8,0,5.6,0,8.4c0,1.2,0.6,1.8,1.8,1.7c0.7,0,1.6,0.4,2.1-0.6
	c0-0.1,0.4-0.1,0.4,0c0.2,0.4,0.3,0.8,0.4,1.3c-2.5,0-4.9,0-7.3,0C286.1,173.4,285.9,164,285.1,163z"/>
<path d="M270.3,175.4c0.2-0.9,0.4-1.5,0.4-2.2c0-2.7,0-5.4,0-8.2c0-0.6-0.2-1.3-0.4-2c0.7,0,1.7,0,2.5,0c0,3.2,0,6.3,0,9.5
	c0,0.8-0.2,2,0.8,2.1c1,0.2,2.3,0.8,3.2-0.5c0.1-0.1,0.3,0,0.5-0.1c0,0.5,0,0.9,0,1.4C275,175.4,272.6,175.4,270.3,175.4z"/>
<path d="M118.3,48.4c0,1.8,0,3.6,0,5.5c0.5,0,0.9,0.1,1.2,0.1c1.5,0,3.1-0.1,4.6,0.1c0.9,0.1,0.7,1.1,0.3,1.4
	c-0.8,0.6-1.8,1.2-2.8,1.4c-2.3,0.4-4.6,0.2-6.8-0.7c-0.3-0.1-0.8-0.8-0.7-0.9c0.3-0.5,0.8-0.9,1.3-1.3c0,0,0.2,0,0.2,0
	c2.3-0.1,2.3-0.1,2.3-2.5c0-1,0-2.1,0-3.1C118.1,48.4,118.2,48.4,118.3,48.4z"/>
<path d="M254,163c-0.6,1-0.7,11.2-0.1,12.4c-0.9,0-1.7,0-2.6,0c0-4.1,0.1-8.2,0-12.4C251.9,163,252.9,163,254,163z"/>
<path d="M195.5,175.4c-0.7,0-1.7,0-2.4,0c0.1-1.1,0.3-2,0.4-3c0.1-2.3,0-4.7,0-7.1c-0.5-0.2-0.9-0.3-1.4-0.5c1-0.7,1.8-1.3,2.7-1.9
	c0.6,0.3,0.7,0.6,0.6,1.4c-0.2,1.8-0.2,3.7-0.2,5.5C195.2,171.7,195.4,173.5,195.5,175.4z"/>
<path d="M18.8,155.3c1.2,0.1,1.4,1.3,2.1,2c1.5,1.5,2.8,3.2,4.2,4.8c1.6,1.7,3.2,3.4,5,4.9c1.5,1.4,3.1,2.6,4.7,4
	c0.2,0.2,0.3,0.5,0.5,0.7c-0.4,0-0.9,0.2-1.1,0c-1.6-1.3-3.2-2.5-4.7-3.9c-1.8-1.6-3.5-3.3-5.2-5.1c-1.4-1.5-2.7-3.3-4-4.9
	C19.6,157.1,18.5,156.6,18.8,155.3C18.7,155.3,18.8,155.3,18.8,155.3z"/>
<path d="M93.8,171.2c0,0.9,0,1.8,0,2.7c0,0.3-0.3,0.6-0.4,0.8c-0.1-0.2-0.3-0.5-0.4-0.7c-0.1-0.2-0.1-0.4-0.5-0.7
	c-0.1,0.4-0.2,0.9-0.4,1.4c-1.1,0.3-1.3-0.6-1.6-1.7c-0.4,0.9-0.5,1.4-0.7,1.8c-0.1,0-0.2,0-0.4-0.1c0-1,0-1.9,0-2.8
	c-1.2-0.2-1.4,0.4-1.5,1.3c-0.1,0.5-0.3,1-0.4,1.5c-0.1-0.5-0.2-1.1-0.4-1.6c-0.2-0.6-0.3-1.2-0.5-1.9c0.3,0,0.7-0.1,1.1-0.1
	c0.5,0,1.1,0.2,1.5,0.1c1.1-0.2,1.7,0.2,2.2,1.1c0.1,0.2,0.3,0.3,0.5,0.4c0.1-0.2,0.3-0.4,0.3-0.5C92.3,171.3,92.8,171,93.8,171.2z"
	/>
<path d="M126.8,174c-0.5-1,0.7-1.1,1-1.4c1.6-1.4,3.5-2.5,5.2-3.9c2-1.7,3.9-3.6,5.9-5.4c0.3-0.3,0.8-0.4,1.2-0.6
	c0.1,0.1,0.1,0.3,0.2,0.4c-1.1,1.1-2.2,2.3-3.4,3.4c-1.9,1.7-3.8,3.4-5.7,5c-1,0.9-2.1,1.7-3.2,2.4C127.6,174.1,127.2,174,126.8,174
	C126.8,174,126.8,174,126.8,174z"/>
<path d="M49.5,12c1,0,1.8,0,2.8,0c-0.1,0.3-0.2,0.6-0.2,0.8c0,0.7-0.1,1.4,0,2.1c0,1.1,1.1,2.2-0.3,3.2c-0.2,0.1-0.2,0.6-0.4,1.3
	c-0.3-2.1-2.2-3.3-2.2-5.3C49.2,13.5,49.4,12.8,49.5,12z"/>
<path d="M33.1,46.1c-0.3,0.4-0.6,0.8-0.9,1.1c-1.9,1.7-3.8,3.4-5.7,5c-0.2,0.2-0.6,0.2-0.9,0.3c0.1-0.3,0.2-0.6,0.4-0.8
	c1.9-1.8,3.8-3.7,5.7-5.5c0.3-0.3,0.8-0.4,1.2-0.5C32.8,45.7,33,45.9,33.1,46.1z"/>
<path d="M55.5,4.6c0,0.4,0,0.8,0,1.4C55,5.9,54.5,6,54.1,6c0-0.5,0-0.9,0-1.5C54.6,4.5,55,4.5,55.5,4.6C55.5,4.6,55.5,4.6,55.5,4.6z
	"/>
<path d="M33,57.7c0-0.9,0.1-1.8,0.1-2.6c0.1,0,0.2,0,0.4,0c0,0.9,0,1.8,0,2.7C33.4,57.7,33.2,57.7,33,57.7z"/>
<path d="M42.2,76.5c0-0.6,0-1.2,0-1.8c0.1,0,0.2,0,0.3,0c0,0.6,0,1.2,0,1.8C42.4,76.5,42.3,76.5,42.2,76.5z"/>
<path d="M43.5,72c0,0.7-0.1,1.4-0.1,2.2C42.5,73.3,42.7,72.4,43.5,72L43.5,72z"/>
<path d="M43.5,72.1c0-0.7,0.1-1.4,0.1-2.1c0.1,0,0.3,0,0.4,0.1C44,70.7,44.7,71.6,43.5,72.1C43.5,72,43.5,72.1,43.5,72.1z"/>
</svg>
