<?xml version="1.0" encoding="utf-8"?>
<!-- Generator: Adobe Illustrator 21.0.0, SVG Export Plug-In . SVG Version: 6.00 Build 0)  -->
<svg version="1.1" xmlns="http://www.w3.org/2000/svg" xmlns:xlink="http://www.w3.org/1999/xlink" x="0px" y="0px"
	 viewBox="0 0 126.9 113" style="enable-background:new 0 0 126.9 113;" xml:space="preserve">
<style type="text/css">
	.st0{display:none;}
	.st1{display:inline;}
	.st2{fill:#999999;}
</style>
<g id="Layer_2" class="st0">
	<rect x="-94.1" y="-61.7" class="st1" width="317" height="247"/>
</g>
<g id="Layer_1">
	<g>
		<path class="st2" d="M1.2,101.7c0-0.4,0-0.7,0.1-1c0.8-2.6,1.7-5.2,2.5-7.9c0.2-0.6,0.2-1.4,0.1-2.1c-0.7-2.5-1.5-5-2.3-7.4
			c-0.6-1.9-0.3-2.2,1.6-2.2c3.9,0,7.8,0,11.8,0c0.4,0,0.9-0.2,1.3-0.4c-0.2-0.4-0.4-0.8-0.5-1.2c-0.5-1.2-1.2-2.3-1.5-3.6
			c-1.1-4.2-2.4-8.3-3.1-12.5c-1.4-7.8-0.8-15.5,1.5-23.1c0.9-2.8,1.8-5.6,2.9-8.3c1-2.2,2.3-4.2,3.6-6.2c1.4-2.2,3-4.3,4.7-6.4
			c1.3-1.6,2.9-3,4.4-4.4c1.1-1,2.2-2,3.3-2.9c1.6-1.2,3.3-2.4,5-3.4c1.9-1.1,3.9-2.1,5.9-3c6.9-3.2,14.2-4.2,21.8-4.1
			c5.1,0.1,10,0.7,14.8,2.3c8.3,2.8,15.7,7.2,21.7,13.7c3.1,3.4,6.3,7,8.3,11.2c1.6,3.2,2.9,6.6,4.1,10c0.8,2.4,1.5,4.8,1.9,7.3
			c0.7,4.3,1.1,8.6,0.7,13c-0.4,4.3-1.2,8.4-2.5,12.5c-0.6,1.9-1.3,3.7-2,5.6c-0.2,0.6-0.7,1.1-0.9,1.6c-0.2,0.6-0.4,1.2-0.3,1.8
			c0.1,0.3,0.9,0.5,1.4,0.5c4,0,8,0,12,0c1.4,0,1.5,0.2,1.1,1.5c-0.7,2.3-1.6,4.6-2.2,7c-0.3,1.1-0.3,2.3,0,3.4
			c0.6,2.4,1.5,4.7,2.3,7.1c0.1,0.4,0.2,0.9,0.4,1.5c-0.6,0-1,0.1-1.4,0.1c-2,0-4,0-6,0c-1.3,0-1.6,0.3-1.6,1.6c0,2.3,0,4.6,0,6.8
			c0,1.1-0.4,1.6-1.5,1.5c-0.2,0-0.4,0-0.6,0c-33.8,0-67.5,0-101.3,0c-2.1,0-2.1-0.1-2.1-2.2c0-2,0-3.9,0-5.9c0-1.5-0.3-1.9-1.9-1.9
			c-2,0-3.9,0-5.9,0C2.1,101.8,1.7,101.8,1.2,101.7z M63,85.7c6.7,0,13.4,0,20,0c5.6,0,11.2,0,16.8,0c0.7,0,1.8-0.4,2.1-0.9
			c2.7-3.9,4.9-8,6.6-12.5c1.6-4.5,2.7-9,2.8-13.8c0-3.2-0.2-6.4-0.4-9.6c-0.2-2.3-0.4-4.6-1.1-6.8c-0.8-2.7-2-5.4-3.2-7.9
			c-1.5-3-2.9-6-5-8.7c-2.8-3.4-5.7-6.6-9.2-9.3c-3.6-2.8-7.5-4.9-11.7-6.7c-2.2-1-4.5-1.7-6.9-2.3C67,5.4,60.2,5.3,53.3,6.8
			c-4.2,0.9-8.2,2.5-12.1,4.4c-1.9,0.9-3.7,1.9-5.4,3.1c-2.2,1.6-4.1,3.6-6.1,5.3c-3,2.5-5.3,5.5-7.3,8.8c-4.2,6.6-7,13.7-7.5,21.4
			c-0.4,5.6-0.4,11.2,0.9,16.8c0.7,3.2,1.6,6.2,3.1,9.1c1.3,2.6,3.1,5,4.3,7.7c0.9,1.9,2.2,2.3,4,2.3C39.1,85.7,51.1,85.7,63,85.7z
			 M54.9,96.6c1,0.5,1.3,0.2,1.7-0.5c0.3-0.5,0.8-1,1.3-1.1c0.7-0.2,1.3,0.2,1.6,1.1c0.1,0.4,0.6,0.7,1,0.8c0.7,0.2,1.4,0.1,2.1,0.1
			c0.3,0,0.7-0.2,1-0.3c-0.1-0.3-0.3-0.6-0.3-0.9c-0.2-0.7-0.4-1.3-0.4-2c0-0.2,0.4-0.5,0.6-0.8c0.2,0.3,0.5,0.6,0.6,0.9
			c0.1,0.6,0,1.3,0.1,1.9c0.1,1.1,0.5,1.4,1.5,1.2c0.7-0.1,1.4,0,2,0.1c1,0.1,1.9,0.2,2.7-0.6c0.8-0.9,0.8-2.8,0.1-3.7
			c-0.7-1-1.8-1.2-3.2-0.6c-1,0.4-1.5-0.1-2-0.8c-0.2-0.2-0.4-0.5-0.5-0.8c-0.3,0.2-0.5,0.5-0.8,0.7c-0.2,0.2-0.4,0.5-0.6,0.4
			c-0.2,0-0.4-0.3-0.5-0.5c-0.1-0.2-0.1-0.4-0.2-0.6c-1.1,0.2-1.8,1.4-1.6,2.4c0.2,0.8,0.2,1.6,0.3,2.4c-0.2,0-0.3,0.1-0.5,0.1
			c-0.6-1.4-1.3-2.9-2-4.3c-0.2-0.3-0.6-0.8-0.9-0.8c-0.4,0-0.9,0.3-1.1,0.7C56.3,92.8,55.6,94.7,54.9,96.6z M70.1,105
			c1.9,2.2,3.1,2.7,4.3,1.6c1.1-0.9,1.2-3.1,0.2-4.3c-1-1.1-2.3-1-4.1,0.6c-0.2-0.4-0.4-0.9-0.7-1.2c-0.6-0.5-1.2-1.2-1.9-1.4
			c-0.8-0.2-1.8-0.1-2.7,0c-0.3,0-0.9,0.5-0.9,0.8c-0.1,1.5-0.1,3,0,4.5c0,0.4,0.6,1,1,1.1C67.5,107.4,68.8,106.9,70.1,105z
			 M92.7,105.9c1.6,1.5,2.9,1.6,4,0.4c1-1.1,0.9-3.2-0.3-4.1c-0.5-0.4-1.2-0.6-1.8-0.6c-1.6,0-1.9,1.6-2.7,2.6
			c-0.8-0.4-1.6-0.7-2.4-1c0.1-0.1,0.1-0.3,0.2-0.4c0.4,0.1,0.7,0.2,1,0.3c0.4,0.1,0.7,0.2,1.1,0.3c0.2-1.1-0.4-1.4-1.1-1.6
			c-0.9-0.3-2-0.2-2.5,0.6c-0.3,0.5-0.1,1.3-0.1,2c-0.3,0.5-0.7,1.1,0,1.9C89.2,107.4,90.2,107.3,92.7,105.9z M77.4,101.8
			c0.4-0.7,0.6-1.1,0.8-1.5c0,0-0.4-0.4-0.6-0.4c-0.9-0.1-2.4,1.5-2.2,2.4c0.2,1.1,0.2,2.3,0.4,3.4c0.1,0.4,0.5,0.7,0.8,1.1
			c0.3-0.4,0.7-0.7,0.7-1.1c0.1-0.8,0-1.7,0-2.5c0.1,0,0.3,0,0.4,0c0,0.5,0,1.1,0.1,1.6c0.2,1.2,1.3,2.2,2.4,2.3
			c1.1,0.1,2.1-0.6,2.4-1.7c0.3-1.1,0.3-2.4-0.7-3.1c-0.6-0.5-1.8-0.4-2.7-0.5C78.7,101.8,78.1,101.8,77.4,101.8z M72.9,93.2
			c1.1,0,1.4,0.6,1.5,1.3c0,0.4-0.1,0.8,0,1.2c0.1,0.4,0.5,0.7,0.8,1c0.2-0.3,0.5-0.6,0.6-1c0.1-0.6-0.1-1.2,0.1-1.8
			c0.1-0.4,0.5-0.7,0.8-1c0.2,0.3,0.5,0.6,0.6,1c0.1,0.7,0.1,1.4,0.2,2.1c0.1,0.3,0.4,0.6,0.7,0.6c0.1,0,0.6-0.3,0.6-0.6
			c0-1.1,0.1-2.2-0.1-3.3c-0.1-0.4-0.8-1-1.2-1c-1.7-0.1-3.4-0.1-5,0c-0.4,0-0.9,0.6-1,1c-0.1,1-0.1,2,0,3c0,0.4,0.5,0.7,0.7,1
			c0.2-0.3,0.6-0.6,0.6-1C72.9,95,72.9,94.1,72.9,93.2z M46.4,107c0.1-0.1,0.3-0.1,0.4-0.2c0-1.2,0-2.5,0-3.7c0-1.1-0.5-1.5-1.7-1.4
			c-0.8,0-1.6,0-2.3,0c-1.9-0.2-2.6,0.3-2.6,2.2c0,0.7-0.1,1.4,0,2c0,0.3,0.4,0.6,0.6,1c0.2-0.3,0.5-0.6,0.5-1
			c0.2-0.8,0.1-1.6,0.3-2.3c0-0.2,0.4-0.4,0.7-0.5c0.1,0,0.4,0.4,0.4,0.6c0.1,0.8,0,1.5,0.1,2.3c0.1,0.3,0.4,0.6,0.7,0.9
			c0.3-0.3,0.7-0.6,0.8-0.9c0.1-0.6,0-1.3,0.1-1.9c0.1-0.4,0.4-0.7,0.6-1c0.2,0.3,0.6,0.6,0.6,0.9c0.1,0.7,0,1.4,0.1,2
			C45.8,106.3,46.2,106.6,46.4,107z M29.6,103.5c0.6-0.8,0.9-1.7,1.5-2c0.5-0.2,1.3,0.3,2,0.5c0.4,0.1,0.8,0.1,1.1,0.2
			c0-0.4,0.1-0.9-0.1-1.2c-1.2-1.6-4.8-1-5.3,0.9c-0.3,1.1-0.2,2.4,0.1,3.6c0.3,1.4,1.7,1.8,2.8,1.7c0.9-0.1,1.7-0.8,2.5-1.4
			c0.2-0.2,0-0.9,0-1.3c-0.4,0.2-1,0.3-1.2,0.6c-0.5,0.8-1.3,1-1.9,0.5C30.5,105.1,30.2,104.3,29.6,103.5z M49.5,97.2
			c0.1,0.1,0.2,0.1,0.3,0.2c0.8-0.5,1.9-0.8,2.3-1.5c0.7-1,0.6-2.3-0.1-3.4c-0.7-0.9-1.7-0.9-2.7-0.6c-0.1,0-0.2,0-0.4,0
			c-0.7,0-1,0.4-1,1.1c0,1.6,0,3.2,0,4.8c0,0.3,0.4,0.7,0.6,1c0.3-0.3,0.6-0.5,0.8-0.8C49.5,97.7,49.5,97.4,49.5,97.2z M79.3,94.4
			c0,1.7,0.8,2.6,2.3,2.6c1.5,0,2.3-1,2.3-2.7c0-1.5-1-2.7-2.3-2.7C80.1,91.6,79.3,92.5,79.3,94.4z M58.8,106.8c0-1.4,0-2.7,0-4
			c0-0.3-0.3-0.8-0.5-0.8c-0.9-0.1-1.9-0.1-2.8,0c-0.2,0-0.5,0.4-0.5,0.6c-0.2,1-0.3,1.9-0.4,2.9c-0.1,1.2,0.5,1.8,1.7,1.6
			C57.2,107,58.1,106.9,58.8,106.8z M86.6,94.2c-0.1,0-0.2,0-0.3,0c-0.2-0.6-0.4-1.2-0.7-1.7c-0.2-0.3-0.7-0.5-1-0.7
			c-0.1,0.4-0.4,0.8-0.3,1.1C84.6,94,85,95,85.4,96c0.3,0.6,0.3,1.1-0.3,1.4c-0.4,0.3-1.1,0.6-0.5,1.1c0.3,0.2,1,0.1,1.5-0.1
			c0.3-0.1,0.5-0.5,0.6-0.9c0.6-1.6,1.2-3.2,1.8-4.8c0.1-0.3-0.1-0.7-0.2-1c-0.4,0.2-0.9,0.3-1.1,0.6C87,93,86.8,93.6,86.6,94.2z
			 M44.9,97.1c1.7,0,2.5-0.8,2.5-2.5c0-2-0.7-2.9-2.4-2.9c-1.6,0-2.5,1-2.4,2.7C42.7,96.1,43.6,97.1,44.9,97.1z M53.4,107
			c0.2-0.1,0.3-0.1,0.5-0.2c0-1.2,0-2.4,0-3.6c0-1-0.6-1.5-1.5-1.5c-0.7-0.1-1.4,0-2,0.2c-0.3,0.1-0.7,0.6-0.7,0.9
			c0,1.1,0,2.2,0.1,3.3c0,0.3,0.4,0.5,0.5,0.7c0.2-0.3,0.5-0.5,0.5-0.8c0.1-0.7,0-1.4,0.2-2c0.1-0.4,0.6-0.7,0.8-1.1
			c0.3,0.4,0.6,0.8,0.7,1.3c0.1,0.6,0,1.2,0.1,1.8C52.8,106.4,53.2,106.7,53.4,107z M35.3,101.7c0,1.8,0,3.4,0,5
			c0.9,0.2,1.2-0.2,1.2-0.9c0-0.4,0-0.9,0-1.3c0.1-1.3,0.3-1.4,1.8-1.3c0,0.9,0,1.9,0,2.8c0,0.3,0.4,0.5,0.5,0.8
			c0.2-0.3,0.5-0.5,0.5-0.8c0.1-1.2,0.1-2.3,0-3.5c0-0.3-0.5-0.8-0.8-0.8C37.5,101.7,36.5,101.7,35.3,101.7z M87.4,106.7
			c0-0.6,0-1.3,0-2c0-3.1-0.1-3.2-3.2-3c-0.7,0-1,0.3-1,1c0,1.1,0,2.2,0,3.2c0,0.3,0.4,0.6,0.5,0.9c0.2-0.3,0.6-0.6,0.7-0.9
			c0.1-0.7,0-1.4,0.1-2.1c0.1-0.3,0.5-0.5,0.8-0.8c0.2,0.3,0.6,0.5,0.7,0.8c0.1,0.7,0.1,1.4,0.1,2.1C86.3,106.6,86.5,107,87.4,106.7
			z M39.8,90.2c-0.6,0-1.2-0.1-1.8,0c-0.4,0.1-0.7,0.3-1,0.5c0.3,0.2,0.7,0.5,1,0.5c1,0,1.3,0.4,1.3,1.4c-0.1,1.1-0.1,2.2,0,3.2
			c0,0.3,0.4,0.6,0.6,0.9c0.2-0.3,0.7-0.6,0.7-0.9c0.1-1,0.1-2.1,0.1-3.1c0-0.9,0.2-1.6,1.3-1.6c0.2,0,0.5-0.4,0.7-0.5
			c-0.3-0.2-0.5-0.5-0.8-0.5C41.2,90.2,40.5,90.2,39.8,90.2z M59.9,106.8c0.2,0.1,0.3,0.1,0.5,0.2c0.2-0.4,0.5-0.7,0.6-1.1
			c0.1-1.6,0-3.2,0-4.8c0-0.2-0.3-0.5-0.4-0.7c-0.2,0.2-0.7,0.4-0.7,0.7C59.9,102.9,59.9,104.9,59.9,106.8z M48.4,101.7
			c-0.1,0.1-0.3,0.1-0.4,0.2c0,1.7,0,3.3,0,5c0.2,0,0.3,0,0.5,0.1c1.1-1.2,0.3-2.7,0.5-4.1C49,102.5,48.6,102.1,48.4,101.7z"/>
		<path class="st2" d="M70,94.7c-0.3-1-0.3-1.8-1.3-1.8c-1,0-1.1,0.7-1.1,1.4c0,0.7,0.1,1.6,1.1,1.5C69.1,95.6,69.5,95,70,94.7z
			 M66.2,94.4C66.2,94.4,66.2,94.4,66.2,94.4c0-0.2,0-0.5,0-0.7c-0.1-0.3-0.3-0.5-0.4-0.7c-0.2,0.3-0.4,0.5-0.5,0.8
			c-0.1,0.4-0.1,0.9,0,1.3c0,0.2,0.3,0.5,0.5,0.7c0.2-0.2,0.4-0.4,0.4-0.6C66.3,94.9,66.2,94.6,66.2,94.4z M58.4,92.5
			c-0.2,0-0.5,0-0.7,0c0,0.5,0,0.9,0,1.4c0.2,0,0.7,0,0.7-0.1C58.4,93.4,58.4,93,58.4,92.5z"/>
		<path class="st2" d="M65.5,103.5c0,0.3,0,0.6,0,1c0,1.1,0.6,1.6,1.7,1.3c1.1-0.3,1.7-1.3,1.6-2.7c-0.1-1.1-1-1.8-2.3-1.7
			c-1.3,0-0.9,1-1,1.7C65.5,103.2,65.5,103.4,65.5,103.5z M74,105c-0.7,0-1.3,0-1.9,0c0,0.2,0,0.6,0.1,0.7
			C72.9,106.1,73.5,106,74,105z"/>
		<path class="st2" d="M50.6,92.9c-1.2,0.3-1.2,1-1.1,1.6c0,0.5-0.2,1.4,0.7,1.2c0.5-0.1,0.9-0.9,1-1.4
			C51.3,93.9,50.8,93.3,50.6,92.9z"/>
		<path class="st2" d="M80.8,94.9c0,0.1-0.1,0.2-0.1,0.3c0.3,0.2,0.7,0.7,1,0.7c0.5-0.1,0.8-0.5,1.5-1
			C82.1,94.9,81.4,94.9,80.8,94.9z M82.3,93.8c0-0.2,0.1-0.4,0.1-0.6c-0.4-0.1-0.8-0.2-1.2-0.2c-0.1,0-0.2,0.3-0.3,0.5
			C81.4,93.6,81.9,93.7,82.3,93.8z"/>
		<path class="st2" d="M57.6,103.4c0-0.1,0-0.2,0-0.4c-0.3-0.1-0.6-0.3-0.9-0.2c-0.3,0.1-0.5,0.4-0.7,0.6c0.3,0.1,0.5,0.3,0.8,0.3
			C57,103.8,57.3,103.6,57.6,103.4z M57.6,105.4c-0.1-0.2-0.2-0.4-0.3-0.6c-0.4,0.2-0.9,0.4-1.3,0.6c0,0,0.2,0.5,0.2,0.5
			C56.7,105.7,57.1,105.6,57.6,105.4z"/>
		<path class="st2" d="M46.3,94.3c-0.1-0.7-0.2-1.4-1.2-1.4c-1,0-1.1,0.7-1.1,1.5c0,0.7,0.1,1.4,1.1,1.4
			C46,95.7,46.2,95.2,46.3,94.3z"/>
		<path class="st2" d="M66.3,52.6c-0.4,2.7-0.6,5.3-1.4,7.7c-1,3.3-4.2,5.2-7.4,4.9c-3.2-0.3-5.9-2.6-6.7-5.9
			c-1.2-4.7-1.1-9.4,0.3-14c1.6-5.5,6.8-5.8,10.4-4.4c1.8,0.8,2.9,2.3,3.4,4.2C65.5,47.5,65.8,50.1,66.3,52.6z M54.7,52.7
			c0.2,1.2,0.4,2.4,0.5,3.6c0.1,0.9,0.2,1.9,0.4,2.8c0.3,1.2,1.2,1.9,2.4,2c1.3,0.1,1.8-0.8,2.3-1.8c0.1-0.3,0.3-0.6,0.3-0.9
			c0.6-3.9,0.7-7.9-0.1-11.8c-0.3-1.7-1-2.3-2.4-2.4c-1.4,0-2.2,0.5-2.5,2.2C55.2,48.5,55,50.6,54.7,52.7z"/>
		<path class="st2" d="M94.5,52.3c-0.4,2.5-0.6,5.2-1.3,7.8c-0.8,3.1-3.3,4.9-6.4,5.1c-3,0.2-6-1.3-7.1-4.1c-0.7-1.9-1.1-4-1.2-6.1
			c-0.3-3.8-0.1-7.6,1.5-11.2c0.5-1.2,1.7-2.4,2.9-2.9c4.8-2,9.7-0.2,10.6,5.4C93.9,48.3,94.1,50.2,94.5,52.3z M89.6,53.2
			c-0.3-2.2-0.6-4.6-1-7c-0.2-1.1-0.9-2-2.2-2c-1.1-0.1-2.1,0.7-2.5,2.1c-0.3,1.1-0.5,2.3-0.6,3.4c-0.3,3.2-0.3,6.5,0.7,9.6
			c0.5,1.4,1.1,1.8,2.4,1.8c1.2,0,1.9-0.7,2.1-1.9C89,57.3,89.3,55.3,89.6,53.2z"/>
		<path class="st2" d="M32.5,50.4c0-1.2-0.1-2.5,0-3.7c0-0.3,0.6-0.8,0.9-0.9c2.4-0.9,4.1-2.6,5.4-4.8c0.3-0.5,1.1-0.8,1.6-0.8
			c2.6-0.2,2.8,0,2.8,2.6c0,6.7,0,13.4,0,20.1c0,1.6-0.2,1.8-1.8,1.8c-0.6,0-1.2,0-1.8,0c-1.2,0-1.6-0.5-1.6-1.7
			c0.1-4.7,0.1-9.5,0.2-14.2c0-0.3-0.2-0.6-0.3-0.9c-0.3,0.1-0.6,0.2-0.8,0.4c-1.5,0.8-2.9,1.7-4.4,2.5
			C32.7,50.7,32.6,50.6,32.5,50.4z"/>
		<path class="st2" d="M39.8,26.9c0.2,2.1,0.4,3.7,0.4,5.3c0,0.5-0.4,0.9-0.6,1.4c-0.4-0.2-1-0.4-1.3-0.7c-0.7-0.8-2.9-0.9-3.8-0.1
			c-0.2,0.2-0.4,0.6-0.7,0.7c-0.3,0.2-0.8,0.3-1.1,0.2c-0.2-0.1-0.4-0.7-0.3-1c1-2.9,2.7-5.1,5.5-6.4C39.4,25.6,39.8,25.9,39.8,26.9
			z M35.9,30.1c0.1,0.2,0.2,0.5,0.2,0.7c0.6-0.1,1.3,0,1.7-0.4c0.2-0.3-0.1-1.1-0.2-1.6C37,29.2,36.5,29.6,35.9,30.1z"/>
		<path class="st2" d="M47.3,76.8c-1.1,0.2-2-0.2-2.6-1.2c-0.2-0.4,0-0.9,0-1.4c0.4,0.1,0.9,0.2,1.3,0.4c0.7,0.3,1.3,0.6,2,0.8
			c0.2,0,0.7-0.4,0.8-0.7c0.1-0.3-0.2-0.8-0.5-0.9c-0.5-0.3-1.1-0.4-1.7-0.6c-1.2-0.3-2.1-1.4-2-2.3c0.2-1.3,1-2,2.5-2.1
			c1.2-0.1,2.4-0.1,3,1.2c0.2,0.3,0.1,0.8,0.1,1.2c-0.5,0-1.1,0.1-1.4-0.2c-0.7-0.7-1.4-0.9-2.3-0.6c-0.2,0.1-0.4,0.3-0.4,0.5
			c0,0.2,0.2,0.4,0.4,0.5c0.6,0.2,1.1,0.4,1.7,0.5c1.7,0.4,2.6,1.5,2.4,3c-0.1,1.1-1.3,1.9-2.9,1.9C47.6,76.8,47.5,76.8,47.3,76.8z"
			/>
		<path class="st2" d="M87.2,34c0.5,0.1,1.1,0.2,1.6,0.3c0.4,0.1,0.8,0.3,1.2,0.2c0.3,0,0.4-0.5,0.6-0.7c-0.2-0.1-0.5-0.4-0.7-0.4
			c-2.6-0.2-3.4-1.5-2.6-3.9c0.2-0.7,0.7-1.1,1.5-1.1c0.8,0,1.7,0,2.5,0c0.7,0,1.1,0.3,1.1,1c0,1.6,0,3.3-0.1,4.9
			c0,0.3-0.1,0.6-0.3,0.9c-1.2,1.5-4.1,1.1-4.9-0.6C87.1,34.3,87.1,34.2,87.2,34z M91.2,30.6c-0.7-0.5-1.1-1.1-1.5-1
			c-0.4,0.1-1,0.8-1,1.1c0.1,0.5,0.7,0.9,1.1,1.3C90.2,31.6,90.6,31.2,91.2,30.6z"/>
		<path class="st2" d="M68.2,33.5c-1.7,0.4-1.7,0.4-2.7-1.3c-0.2-0.4-0.5-0.7-0.8-1c-0.1,0.4-0.3,0.8-0.4,1.2
			c-0.1,0.3,0,0.6-0.2,0.8c-0.1,0.2-0.5,0.4-0.7,0.3c-0.2,0-0.5-0.3-0.5-0.5c0-2.1-0.1-4.2,0-6.2c0-0.3,0.5-0.7,0.9-0.8
			c0.6-0.1,1.3-0.2,1.9,0c0.8,0.2,1.9,0.4,2.2,1c0.6,0.9,0.5,2.1-0.4,3c-0.6,0.6-0.6,1.3-0.2,1.9C67.6,32.4,67.9,32.9,68.2,33.5z
			 M64.2,28c0,0.2,0,0.4,0,0.6c0.4,0.2,0.9,0.7,1.2,0.6c0.5-0.1,0.8-0.7,1.2-1.1c-0.4-0.3-0.8-0.7-1.2-0.8
			C65,27.4,64.6,27.8,64.2,28z"/>
		<path class="st2" d="M75.9,72.9c0-1-0.1-2.1,0-3.1c0-0.3,0.5-0.6,0.7-0.8c0.2,0.3,0.6,0.6,0.5,0.9c0,1.1,0.3,1.4,1.5,1.2
			c1.6-0.4,2.6,0.7,2.6,2.4c0,1.1,0.2,2.4-1,3.1c-0.5,0.3-1.2,0.3-1.7,0.4c-0.4,0-0.9-0.3-1.3-0.2c-1.5,0.5-1.4-0.5-1.4-1.5
			C75.9,74.4,75.9,73.6,75.9,72.9C75.9,72.9,75.9,72.9,75.9,72.9z M80,73.5c0-0.6-0.3-1.3-1.3-1.5c-0.8-0.1-1.4,0.6-1.5,1.7
			c0,1,0.6,1.9,1.4,1.9C79.3,75.7,79.9,74.9,80,73.5z"/>
		<path class="st2" d="M60.3,76.7c-0.3,0.8,0.2,2-1.4,2c0-1,0-2,0-3c0-0.9,0-1.8,0-2.8c0-1.8,0-1.8,1.7-1.8c0.2,0,0.3,0,0.5-0.1
			c1.1-0.3,2.1-0.4,2.7,0.8c0.7,1.3,0.7,3.5-0.1,4.2c-0.4,0.4-0.9,0.6-1.4,0.7C61.6,76.8,61,76.7,60.3,76.7z M60.2,73.9
			c0.1,0.8,0.4,1.8,1.3,1.6c0.6-0.1,1.3-1.1,1.6-1.8c0.3-0.6-0.9-1.7-1.5-1.6C60.5,72.3,60.2,73,60.2,73.9z"/>
		<path class="st2" d="M54.4,30.6c-0.3-1.5,1.2-2.8,2.7-2.8c2.1,0,3.4,1.2,3.3,3.2c0,1.7-1.3,2.8-3.1,2.8
			C55.3,33.8,54.4,32.8,54.4,30.6z M55.8,30.5c0,0.2,0,0.4,0,0.5c0.5,0.3,0.9,0.9,1.5,1c0.9,0.1,1.2-0.7,1.2-1.4
			c0-0.8-0.5-1.2-1.2-1.1C56.7,29.7,56.3,30.2,55.8,30.5z"/>
		<path class="st2" d="M72.3,64.7c-0.4,0-0.9,0-1.3,0c-1.3-0.1-1.2-1.1-1.1-2c0.1-1-0.6-2.5,1.1-2.8c0.9-0.2,1.9-0.2,2.7,0
			c1.9,0.6,0.8,2.3,1,3.5c0.2,0.8-0.3,1.4-1.2,1.4C73.1,64.8,72.7,64.7,72.3,64.7C72.3,64.7,72.3,64.7,72.3,64.7z"/>
		<path class="st2" d="M45.4,27.9c1.7-0.2,1.7,0,1.4,1.7c-0.4,2-1.7,3.1-3.3,4.1c-0.8,0.5-1.4,0.2-1.6-0.7c-0.2-1.4-0.3-2.8-0.4-4.1
			c0-0.4,0.4-0.7,0.6-1.1c0.4,0.3,0.9,0.6,1.1,1c0.3,0.6,0.3,1.3,0.4,2c0.2,0,0.3,0,0.5,0.1C44.6,29.9,45,29,45.4,27.9z"/>
		<path class="st2" d="M82.6,33.6c-1.5,0-1.7-0.3-1.7-1.6c0-1,0.1-2,0.1-3c0-0.7,0.3-1,1.1-1c0.6,0,1.1,0,1.7-0.1
			c1.2-0.1,2.3,0.6,2.4,1.9c0.1,0.9,0.1,1.8,0,2.7c-0.1,0.4-0.6,0.7-1,1.1c-0.3-0.4-0.7-0.7-0.8-1.2c-0.1-0.7,0-1.4-0.1-2.1
			c-0.1-0.3-0.5-0.6-0.7-0.9c-0.3,0.3-0.7,0.6-0.8,0.9c-0.2,0.9-0.1,1.7-0.2,2.6C82.7,33.3,82.7,33.5,82.6,33.6z"/>
		<path class="st2" d="M66.9,74.2c0.3,1.5,0.4,1.5,1.5,1.1c0.4-0.2,1-0.1,1.7-0.1c-0.7,1.4-1.7,2.1-2.8,1.8c-1.1-0.3-1.8-1-2-2.1
			c-0.1-0.5,0-1.1,0-1.7c0-1.2,0.5-1.9,1.6-2.2c1.2-0.4,2.4-0.1,3,0.9c0.3,0.4,0.4,1.2,0.2,1.7c-0.1,0.3-0.8,0.5-1.2,0.6
			C68.2,74.2,67.6,74.2,66.9,74.2z M67.8,73.7c0.4-0.4,0.7-0.6,1-0.9c-0.3-0.3-0.7-0.7-1-0.7c-0.3,0-0.6,0.5-0.9,0.7
			C67.1,73,67.4,73.3,67.8,73.7z"/>
		<path class="st2" d="M53.6,28c0.1,2.2-1.7,5-3.7,5.7c-0.8,0.3-1.3-0.2-1.4-1c-0.2-1.3-0.3-2.6-0.4-3.9c0-0.3,0.4-0.6,0.7-0.9
			c0.4,0.3,0.9,0.5,1.1,0.8c0.3,0.7,0.3,1.5,0.5,2.2c0.1,0,0.3,0,0.4,0c0.3-0.6,0.7-1.2,0.9-1.9C51.9,27.8,52.1,27.7,53.6,28z"/>
		<path class="st2" d="M57.3,73.9c-0.1,0.8,0.2,1.8-0.2,2.4c-0.3,0.4-1.4,0.2-2.1,0.3c-2.4,0.4-3-0.2-3-2.6c0-0.7-0.1-1.5,0-2.1
			c0.1-0.4,0.5-0.7,0.8-1c0.2,0.3,0.4,0.6,0.5,0.9c0.1,0.7,0.1,1.4,0.1,2c0,0.8,0.3,1.8,1.1,1.6c0.6-0.1,1.2-1,1.5-1.7
			c0.2-0.5,0-1.3,0-1.9c0-0.4,0.3-0.7,0.5-1c0.3,0.4,0.7,0.7,0.8,1.1C57.4,72.6,57.3,73.2,57.3,73.9C57.3,73.9,57.3,73.9,57.3,73.9z
			"/>
		<path class="st2" d="M71.2,30c-0.4,0-0.8,0-1.2-0.1c-0.3-0.1-0.7-0.2-0.7-0.4c-0.1-0.2,0.1-0.7,0.4-0.8c1-0.7,2-0.5,3.1-0.1
			c1,0.4,0.8,1.2,0.8,1.9c0,0.2,0,0.4,0,0.6c0,2.3-0.9,3.1-3.2,2.6c-0.7-0.1-1.4-0.4-1.4-1.3c0-1,0.4-1.5,1.3-1.6
			c0.4-0.1,0.7-0.2,1.1-0.3C71.3,30.2,71.3,30.1,71.2,30z M71.3,31c-0.3,0.5-0.6,0.8-0.7,1.1c0,0.1,0.5,0.5,0.6,0.4
			c0.3-0.1,0.5-0.4,0.6-0.7C71.9,31.7,71.6,31.4,71.3,31z"/>
		<path class="st2" d="M75.2,31.4c-0.3-0.7-0.7-1.3-1-2c0,0-0.1-0.1-0.1-0.1c0-0.4,0-1,0.1-1c1.1-0.1,0.4-2.4,2-1.7
			c0.7,0.3,1.1,2.5,0.8,3.3c-0.2,0.8,0,1.7,0,2.5c0,0.4,0,0.8,0,1.2c-0.5,0-1.3,0.1-1.5-0.1c-0.4-0.5-0.5-1.2-0.8-1.9
			C74.9,31.5,75,31.5,75.2,31.4z"/>
		<path class="st2" d="M71.6,73.8c0-0.1,0-0.2,0-0.2c0-2.6,0.3-2.8,2.9-2.6c0.3,0,0.7,0.2,0.7,0.4c0,0.3-0.2,0.7-0.4,0.8
			c-1.8,0.3-1.5,1.6-1.6,2.8c0,0.2,0,0.4,0,0.6c0,0.5,0,1.3-0.8,1.2c-0.3-0.1-0.7-0.7-0.8-1.1C71.5,75,71.6,74.4,71.6,73.8
			C71.6,73.8,71.6,73.8,71.6,73.8z"/>
		<path class="st2" d="M78.5,30.9c0-0.6-0.1-1.2,0-1.8c0.1-0.3,0.5-0.5,0.7-0.7c0.2,0.2,0.6,0.5,0.6,0.7c0.1,1.3,0.1,2.5,0,3.8
			c0,0.2-0.4,0.6-0.7,0.6c-0.2,0-0.6-0.4-0.7-0.6C78.4,32.2,78.5,31.5,78.5,30.9C78.5,30.9,78.5,30.9,78.5,30.9z"/>
		<path class="st2" d="M79.1,24.9c0.6,0.7,0.9,1,1.3,1.4c-0.4,0.3-0.7,0.7-1.1,1c-0.3-0.3-0.7-0.6-0.8-0.9
			C78.5,26,78.8,25.6,79.1,24.9z"/>
		<path class="st2" d="M70,94.7c-0.5,0.4-0.9,1-1.4,1c-1,0.1-1.1-0.8-1.1-1.5c0-0.7,0.2-1.4,1.1-1.4C69.7,92.9,69.7,93.7,70,94.7z"
			/>
		<path class="st2" d="M66.2,94.4c0,0.2,0.1,0.5,0,0.7c-0.1,0.2-0.3,0.4-0.4,0.6c-0.2-0.2-0.4-0.4-0.5-0.7c-0.1-0.4-0.1-0.9,0-1.3
			c0.1-0.3,0.3-0.5,0.5-0.8c0.1,0.2,0.3,0.5,0.4,0.7C66.3,93.9,66.2,94.1,66.2,94.4C66.2,94.4,66.2,94.4,66.2,94.4z"/>
		<path class="st2" d="M58.4,92.5c0,0.5,0,0.9,0,1.3c0,0-0.5,0-0.7,0.1c0-0.5,0-0.9,0-1.4C57.9,92.5,58.1,92.5,58.4,92.5z"/>
		<path class="st2" d="M65.5,103.5c0-0.2,0-0.3,0-0.5c0.1-0.7-0.3-1.7,1-1.7c1.3,0,2.2,0.6,2.3,1.7c0.1,1.4-0.5,2.4-1.6,2.7
			c-1.1,0.3-1.7-0.2-1.7-1.3C65.5,104.2,65.5,103.8,65.5,103.5z"/>
		<path class="st2" d="M74,105c-0.5,1-1.1,1.1-1.7,0.7c-0.1-0.1-0.1-0.5-0.1-0.7C72.7,105,73.2,105,74,105z"/>
		<path class="st2" d="M94,104.7c0.6,0.2,1.2,0.3,1.7,0.4c-0.2,0.2-0.4,0.6-0.7,0.7C94.3,106.1,94.1,105.7,94,104.7z"/>
		<path class="st2" d="M94.1,103.1c0.5,0,1,0,1.5,0c0,0.2,0,0.3,0,0.5c-0.5,0-1,0.1-1.5,0.1C94.2,103.5,94.2,103.3,94.1,103.1z"/>
		<path class="st2" d="M79.8,104.8c0.5,0.1,1,0.1,1.4,0.2c0,0.1,0.1,0.2,0.1,0.3c-0.4,0.2-0.7,0.5-1.1,0.5c-0.2,0-0.4-0.5-0.7-0.8
			C79.6,105,79.7,104.9,79.8,104.8z"/>
		<path class="st2" d="M81.4,103.7c-0.8,0-1.3,0-1.9,0C80.2,102.6,80.4,102.6,81.4,103.7z"/>
		<path class="st2" d="M50.6,92.9c0.2,0.4,0.6,1,0.6,1.4c-0.1,0.5-0.6,1.3-1,1.4c-0.9,0.2-0.6-0.7-0.7-1.2
			C49.4,93.8,49.4,93.1,50.6,92.9z"/>
		<path class="st2" d="M80.8,94.9c0.7,0,1.3,0,2.4,0c-0.7,0.5-1.1,0.9-1.5,1c-0.3,0-0.7-0.4-1-0.7C80.7,95.1,80.7,95,80.8,94.9z"/>
		<path class="st2" d="M82.3,93.8c-0.5-0.1-0.9-0.2-1.4-0.3c0.1-0.2,0.2-0.5,0.3-0.5c0.4,0,0.8,0.2,1.2,0.2
			C82.4,93.4,82.4,93.6,82.3,93.8z"/>
		<path class="st2" d="M57.6,103.4c-0.3,0.1-0.6,0.3-0.8,0.3c-0.3,0-0.5-0.2-0.8-0.3c0.2-0.2,0.4-0.5,0.7-0.6
			c0.3-0.1,0.6,0.1,0.9,0.2C57.6,103.2,57.6,103.3,57.6,103.4z"/>
		<path class="st2" d="M57.6,105.4c-0.4,0.2-0.9,0.3-1.4,0.5c0,0-0.2-0.5-0.2-0.5c0.4-0.2,0.9-0.4,1.3-0.6
			C57.4,105,57.5,105.2,57.6,105.4z"/>
		<path class="st2" d="M46.3,94.3c0,0.9-0.3,1.4-1.2,1.4c-0.9,0-1.1-0.7-1.1-1.4c0-0.7,0.1-1.5,1.1-1.5
			C46.1,92.9,46.2,93.6,46.3,94.3z"/>
		<path class="st2" d="M67.8,73.7c-0.4-0.4-0.7-0.6-0.9-0.9c0.3-0.3,0.6-0.7,0.9-0.7c0.4,0,0.7,0.5,1,0.7
			C68.5,73,68.2,73.3,67.8,73.7z"/>
	</g>
</g>
</svg>
