<svg xmlns="http://www.w3.org/2000/svg" xmlns:xlink="http://www.w3.org/1999/xlink" viewBox="0 0 360 358.57"><defs><style>.cls-1{isolation:isolate;}.cls-2{opacity:0.2;mix-blend-mode:multiply;}.cls-3{fill:url(#linear-gradient);}.cls-4{fill:#231f20;}.cls-5{fill:url(#linear-gradient-2);}.cls-6{fill:url(#linear-gradient-3);}.cls-7{opacity:0.3;}.cls-8{fill:url(#linear-gradient-4);}.cls-9{fill:url(#linear-gradient-5);}.cls-10{fill:url(#linear-gradient-6);}.cls-11{fill:url(#linear-gradient-7);}.cls-12{fill:url(#linear-gradient-8);}.cls-13{fill:url(#linear-gradient-9);}.cls-14{fill:url(#linear-gradient-10);}.cls-15{fill:url(#linear-gradient-11);}.cls-16{fill:url(#linear-gradient-12);}.cls-17{fill:url(#linear-gradient-13);}.cls-18{fill:url(#linear-gradient-14);}.cls-19{fill:url(#linear-gradient-15);}.cls-20{fill:url(#linear-gradient-16);}.cls-21{fill:url(#linear-gradient-17);}.cls-22{fill:url(#linear-gradient-18);}.cls-23{fill:url(#linear-gradient-19);}.cls-24{fill:url(#linear-gradient-20);}.cls-25{fill:url(#linear-gradient-21);}.cls-26{fill:url(#linear-gradient-22);}.cls-27{fill:url(#linear-gradient-23);}</style><linearGradient id="linear-gradient" x1="306.6" y1="210.86" x2="306.6" y2="579.31" gradientUnits="userSpaceOnUse"><stop offset="0" stop-color="#eb2227"/><stop offset="1" stop-color="#be202e"/></linearGradient><linearGradient id="linear-gradient-2" x1="306.6" y1="207.38" x2="306.6" y2="575.83" gradientUnits="userSpaceOnUse"><stop offset="0" stop-color="#f58821"/><stop offset="1" stop-color="#f58821"/></linearGradient><linearGradient id="linear-gradient-3" x1="306.6" y1="244.36" x2="306.6" y2="560.04" gradientUnits="userSpaceOnUse"><stop offset="0" stop-color="#fff"/><stop offset="1" stop-color="#e6e7e7"/></linearGradient><linearGradient id="linear-gradient-4" x1="220.76" y1="439.27" x2="290.46" y2="369.56" gradientUnits="userSpaceOnUse"><stop offset="0" stop-color="#e6e7e7"/><stop offset="0.57" stop-color="#f8f8f8"/><stop offset="1" stop-color="#fff"/></linearGradient><linearGradient id="linear-gradient-5" x1="312.27" y1="432.46" x2="391.42" y2="353.31" xlink:href="#linear-gradient-4"/><linearGradient id="linear-gradient-6" x1="200.46" y1="331.73" x2="214.48" y2="317.71" gradientUnits="userSpaceOnUse"><stop offset="0.19" stop-color="#e6e7e7"/><stop offset="1" stop-color="#fff"/></linearGradient><linearGradient id="linear-gradient-7" x1="218.11" y1="318.99" x2="230.87" y2="306.22" xlink:href="#linear-gradient-6"/><linearGradient id="linear-gradient-8" x1="235.18" y1="307.79" x2="249.09" y2="293.88" xlink:href="#linear-gradient-6"/><linearGradient id="linear-gradient-9" x1="254.58" y1="297.56" x2="273.06" y2="279.08" xlink:href="#linear-gradient-6"/><linearGradient id="linear-gradient-10" x1="287.84" y1="289.58" x2="308.02" y2="269.4" xlink:href="#linear-gradient-6"/><linearGradient id="linear-gradient-11" x1="310.75" y1="290.82" x2="325.44" y2="276.13" xlink:href="#linear-gradient-6"/><linearGradient id="linear-gradient-12" x1="332.2" y1="295.54" x2="349.37" y2="278.37" xlink:href="#linear-gradient-6"/><linearGradient id="linear-gradient-13" x1="353.2" y1="304.56" x2="369.74" y2="288.02" xlink:href="#linear-gradient-6"/><linearGradient id="linear-gradient-14" x1="372.27" y1="313.95" x2="387.13" y2="299.09" xlink:href="#linear-gradient-6"/><linearGradient id="linear-gradient-15" x1="387.32" y1="326.44" x2="402.01" y2="311.76" xlink:href="#linear-gradient-6"/><linearGradient id="linear-gradient-16" x1="398.22" y1="338.83" x2="418.2" y2="318.85" xlink:href="#linear-gradient-6"/><linearGradient id="linear-gradient-17" x1="241.64" y1="518.3" x2="269.01" y2="490.93" xlink:href="#linear-gradient-6"/><linearGradient id="linear-gradient-18" x1="276.05" y1="524.73" x2="295.53" y2="505.24" xlink:href="#linear-gradient-6"/><linearGradient id="linear-gradient-19" x1="301.64" y1="521.01" x2="318.58" y2="504.07" xlink:href="#linear-gradient-6"/><linearGradient id="linear-gradient-20" x1="324.46" y1="522.59" x2="341.83" y2="505.22" xlink:href="#linear-gradient-6"/><linearGradient id="linear-gradient-21" x1="350.12" y1="514.97" x2="373.08" y2="492.01" xlink:href="#linear-gradient-6"/><linearGradient id="linear-gradient-22" x1="282.87" y1="158.74" x2="282.87" y2="195.85" xlink:href="#linear-gradient-3"/><linearGradient id="linear-gradient-23" x1="69.7" y1="158.74" x2="69.7" y2="195.85" xlink:href="#linear-gradient-3"/></defs><title>LeadCounselBadge_4C</title><g class="cls-1"><g id="Layer_1" data-name="Layer 1"><g class="cls-2"><path class="cls-3" d="M296.18,227.69c5.73,2.8,15.11,2.8,20.84,0l11.11-5.43c5.73-2.8,14-1.33,18.47,3.26l8.59,8.9c4.43,4.59,13.24,7.8,19.58,7.13l12.3-1.3c6.34-.67,13.65,3.55,16.24,9.38l5,11.3c2.59,5.83,9.77,11.85,16,13.39l12,3c6.19,1.54,11.61,8,12.05,14.37l.86,12.34c.44,6.36,5.13,14.48,10.42,18L469.89,329c5.29,3.56,8.18,11.49,6.41,17.62l-3.42,11.89c-1.76,6.13-.13,15.36,3.62,20.52l7.28,10c3.75,5.16,3.75,13.6,0,18.75l-7.28,10c-3.75,5.16-5.38,14.39-3.62,20.52l3.42,11.89c1.76,6.13-1.13,14.06-6.41,17.62l-10.26,6.91c-5.29,3.56-10,11.68-10.42,18l-.86,12.34c-.44,6.36-5.87,12.83-12.05,14.37l-12,3c-6.19,1.54-13.37,7.57-16,13.4l-5,11.3c-2.59,5.83-9.9,10-16.24,9.38l-12.3-1.3c-6.34-.67-15.15,2.54-19.58,7.13l-8.59,8.9c-4.43,4.59-12.74,6.06-18.47,3.26L317,569.08c-5.73-2.8-15.11-2.8-20.84,0l-11.12,5.43c-5.73,2.8-14,1.33-18.47-3.26l-8.59-8.9c-4.43-4.59-13.24-7.8-19.58-7.13l-12.3,1.3c-6.34.67-13.65-3.55-16.24-9.38l-5-11.3c-2.59-5.83-9.77-11.86-16-13.4l-12-3c-6.19-1.54-11.61-8-12.05-14.37L164,492.75c-.44-6.36-5.13-14.48-10.42-18L143.3,467.8c-5.29-3.56-8.18-11.49-6.41-17.62l3.42-11.89c1.76-6.13.13-15.36-3.62-20.52l-7.28-10c-3.75-5.16-3.75-13.6,0-18.75l7.28-10c3.75-5.16,5.38-14.39,3.62-20.52l-3.42-11.89c-1.76-6.13,1.13-14.06,6.41-17.62l10.26-6.91c5.29-3.56,10-11.68,10.42-18l.86-12.34c.44-6.36,5.87-12.83,12.05-14.37l12-3c6.19-1.54,13.37-7.57,16-13.39l5-11.3c2.59-5.83,9.9-10,16.24-9.38l12.3,1.3c6.34.67,15.15-2.54,19.58-7.13l8.59-8.9c4.43-4.59,12.74-6.06,18.47-3.26Z" transform="translate(-126.6 -217.36)"/><path class="cls-4" d="M296.18,227.69c5.73,2.8,15.11,2.8,20.84,0l11.11-5.43c5.73-2.8,14-1.33,18.47,3.26l8.59,8.9c4.43,4.59,13.24,7.8,19.58,7.13l12.3-1.3c6.34-.67,13.65,3.55,16.24,9.38l5,11.3c2.59,5.83,9.77,11.85,16,13.39l12,3c6.19,1.54,11.61,8,12.05,14.37l.86,12.34c.44,6.36,5.13,14.48,10.42,18L469.89,329c5.29,3.56,8.18,11.49,6.41,17.62l-3.42,11.89c-1.76,6.13-.13,15.36,3.62,20.52l7.28,10c3.75,5.16,3.75,13.6,0,18.75l-7.28,10c-3.75,5.16-5.38,14.39-3.62,20.52l3.42,11.89c1.76,6.13-1.13,14.06-6.41,17.62l-10.26,6.91c-5.29,3.56-10,11.68-10.42,18l-.86,12.34c-.44,6.36-5.87,12.83-12.05,14.37l-12,3c-6.19,1.54-13.37,7.57-16,13.4l-5,11.3c-2.59,5.83-9.9,10-16.24,9.38l-12.3-1.3c-6.34-.67-15.15,2.54-19.58,7.13l-8.59,8.9c-4.43,4.59-12.74,6.06-18.47,3.26L317,569.08c-5.73-2.8-15.11-2.8-20.84,0l-11.12,5.43c-5.73,2.8-14,1.33-18.47-3.26l-8.59-8.9c-4.43-4.59-13.24-7.8-19.58-7.13l-12.3,1.3c-6.34.67-13.65-3.55-16.24-9.38l-5-11.3c-2.59-5.83-9.77-11.86-16-13.4l-12-3c-6.19-1.54-11.61-8-12.05-14.37L164,492.75c-.44-6.36-5.13-14.48-10.42-18L143.3,467.8c-5.29-3.56-8.18-11.49-6.41-17.62l3.42-11.89c1.76-6.13.13-15.36-3.62-20.52l-7.28-10c-3.75-5.16-3.75-13.6,0-18.75l7.28-10c3.75-5.16,5.38-14.39,3.62-20.52l-3.42-11.89c-1.76-6.13,1.13-14.06,6.41-17.62l10.26-6.91c5.29-3.56,10-11.68,10.42-18l.86-12.34c.44-6.36,5.87-12.83,12.05-14.37l12-3c6.19-1.54,13.37-7.57,16-13.39l5-11.3c2.59-5.83,9.9-10,16.24-9.38l12.3,1.3c6.34.67,15.15-2.54,19.58-7.13l8.59-8.9c4.43-4.59,12.74-6.06,18.47-3.26Z" transform="translate(-126.6 -217.36)"/></g><path class="cls-5" d="M296.18,224.21c5.73,2.8,15.11,2.8,20.84,0l11.11-5.43c5.73-2.8,14-1.33,18.47,3.26l8.59,8.9c4.43,4.59,13.24,7.8,19.58,7.13l12.3-1.3c6.34-.67,13.65,3.55,16.24,9.38l5,11.3c2.59,5.83,9.77,11.85,16,13.39l12,3c6.19,1.54,11.61,8,12.05,14.37l.86,12.34c.44,6.36,5.13,14.48,10.42,18l10.26,6.91c5.29,3.56,8.18,11.49,6.41,17.62L472.89,355c-1.76,6.13-.13,15.36,3.62,20.52l7.28,10c3.75,5.16,3.75,13.6,0,18.75l-7.28,10c-3.75,5.16-5.38,14.39-3.62,20.52l3.42,11.89c1.76,6.13-1.13,14.06-6.41,17.62l-10.26,6.91c-5.29,3.56-10,11.68-10.42,18l-.86,12.34c-.44,6.36-5.87,12.83-12.05,14.37l-12,3c-6.19,1.54-13.37,7.57-16,13.4l-5,11.3c-2.59,5.83-9.9,10-16.24,9.38l-12.3-1.3c-6.34-.67-15.15,2.54-19.58,7.13l-8.59,8.9c-4.43,4.59-12.74,6.06-18.47,3.26L317,565.6c-5.73-2.8-15.11-2.8-20.84,0L285.06,571c-5.73,2.8-14,1.33-18.47-3.26l-8.59-8.9c-4.43-4.59-13.24-7.8-19.58-7.13l-12.3,1.3c-6.34.67-13.65-3.55-16.24-9.38l-5-11.3c-2.59-5.83-9.77-11.86-16-13.4l-12-3c-6.19-1.54-11.61-8-12.05-14.37L164,489.27c-.44-6.36-5.13-14.48-10.42-18l-10.26-6.91c-5.29-3.56-8.18-11.49-6.41-17.62l3.42-11.89c1.76-6.13.13-15.36-3.62-20.52l-7.28-10c-3.75-5.16-3.75-13.6,0-18.75l7.28-10c3.75-5.16,5.38-14.39,3.62-20.52l-3.42-11.89c-1.76-6.13,1.13-14.06,6.41-17.62l10.26-6.91c5.29-3.56,10-11.68,10.42-18l.86-12.34c.44-6.36,5.87-12.83,12.05-14.37l12-3c6.19-1.54,13.37-7.57,16-13.39l5-11.3c2.59-5.83,9.9-10,16.24-9.38l12.3,1.3c6.34.67,15.15-2.54,19.58-7.13l8.59-8.9c4.43-4.59,12.74-6.06,18.47-3.26Z" transform="translate(-126.6 -217.36)"/><g class="cls-2"><path class="cls-4" d="M302.08,550.2H302c-3.11-.09-6.25-.28-9.33-.56a2.32,2.32,0,0,1,.42-4.62c3,.27,6,.45,9.05.54a2.32,2.32,0,0,1-.07,4.64Zm9.21,0a2.32,2.32,0,0,1-.07-4.64c3-.09,6.05-.28,9-.55a2.32,2.32,0,1,1,.42,4.62c-3.09.28-6.23.48-9.33.57Zm-27.54-1.66-.35,0c-3.07-.47-6.17-1-9.2-1.7a2.32,2.32,0,0,1,1-4.53c2.94.64,5.93,1.19,8.91,1.65a2.32,2.32,0,0,1-.35,4.61Zm45.87,0a2.32,2.32,0,0,1-.35-4.61c3-.46,6-1,8.91-1.66a2.32,2.32,0,0,1,1,4.53c-3,.66-6.12,1.24-9.19,1.71Zm-63.86-3.88a2.31,2.31,0,0,1-.63-.09c-3-.85-6-1.8-8.92-2.83a2.32,2.32,0,1,1,1.54-4.38c2.84,1,5.74,1.92,8.64,2.74a2.32,2.32,0,0,1-.63,4.55Zm81.84,0A2.32,2.32,0,0,1,347,540c2.89-.82,5.8-1.75,8.64-2.75a2.32,2.32,0,0,1,1.54,4.37c-2.93,1-5.93,2-8.91,2.84A2.33,2.33,0,0,1,347.61,544.58Zm-99.23-6.06a2.31,2.31,0,0,1-.9-.18c-2.86-1.21-5.72-2.53-8.51-3.91a2.32,2.32,0,0,1,2.07-4.15c2.7,1.34,5.47,2.62,8.25,3.79a2.32,2.32,0,0,1-.9,4.46ZM365,538.46A2.32,2.32,0,0,1,364,534c2.76-1.17,5.53-2.45,8.22-3.79a2.32,2.32,0,1,1,2.07,4.15c-2.78,1.39-5.63,2.7-8.48,3.91A2.32,2.32,0,0,1,365,538.46ZM231.88,530.3a2.31,2.31,0,0,1-1.16-.31c-2.69-1.56-5.37-3.21-8-4.93a2.32,2.32,0,1,1,2.56-3.86c2.51,1.66,5.1,3.27,7.71,4.78a2.32,2.32,0,0,1-1.16,4.33Zm149.53-.05a2.32,2.32,0,0,1-1.16-4.33c2.6-1.5,5.19-3.11,7.7-4.78a2.32,2.32,0,0,1,2.57,3.86c-2.59,1.72-5.26,3.37-7.94,4.93A2.3,2.3,0,0,1,381.41,530.25ZM216.52,520.11a2.31,2.31,0,0,1-1.4-.47c-2.48-1.87-4.93-3.84-7.29-5.87a2.32,2.32,0,1,1,3-3.52c2.29,2,4.67,3.87,7.07,5.69a2.32,2.32,0,0,1-1.4,4.17Zm180.21,0a2.32,2.32,0,0,1-1.4-4.17c2.4-1.81,4.77-3.72,7.06-5.69a2.32,2.32,0,1,1,3,3.52c-2.36,2-4.81,4-7.28,5.86A2.31,2.31,0,0,1,396.74,520.07Zm-194.2-11.93a2.31,2.31,0,0,1-1.61-.65c-2.23-2.16-4.42-4.42-6.51-6.71a2.32,2.32,0,1,1,3.43-3.13c2,2.22,4.16,4.41,6.32,6.51a2.32,2.32,0,0,1-1.61,4Zm208.17,0a2.32,2.32,0,0,1-1.61-4c2.16-2.1,4.29-4.29,6.31-6.51a2.32,2.32,0,1,1,3.43,3.13c-2.09,2.29-4.28,4.55-6.51,6.71A2.31,2.31,0,0,1,410.71,508.09ZM190.13,494.54a2.31,2.31,0,0,1-1.81-.86c-1.95-2.41-3.85-4.92-5.64-7.45a2.32,2.32,0,1,1,3.78-2.69c1.74,2.45,3.58,4.88,5.47,7.23a2.32,2.32,0,0,1-1.8,3.78Zm233-.06a2.32,2.32,0,0,1-1.8-3.77c1.89-2.35,3.73-4.78,5.47-7.23a2.32,2.32,0,1,1,3.78,2.68c-1.8,2.53-3.69,5-5.65,7.46A2.31,2.31,0,0,1,423.12,494.48ZM179.47,479.54a2.32,2.32,0,0,1-2-1.1c-1.64-2.63-3.21-5.35-4.68-8.08a2.32,2.32,0,0,1,4.08-2.2c1.43,2.65,3,5.29,4.54,7.84a2.32,2.32,0,0,1-2,3.54Zm254.3-.08a2.32,2.32,0,0,1-2-3.54c1.59-2.56,3.12-5.21,4.55-7.85a2.32,2.32,0,1,1,4.08,2.2c-1.47,2.73-3,5.46-4.69,8.1A2.32,2.32,0,0,1,433.77,479.46Zm-263-16.11a2.32,2.32,0,0,1-2.11-1.35c-1.3-2.82-2.53-5.71-3.65-8.6a2.32,2.32,0,1,1,4.32-1.68c1.09,2.79,2.28,5.6,3.54,8.33a2.32,2.32,0,0,1-2.1,3.29Zm271.76-.12a2.32,2.32,0,0,1-2.1-3.29c1.26-2.73,2.45-5.55,3.54-8.36a2.32,2.32,0,1,1,4.32,1.68c-1.12,2.9-2.35,5.8-3.65,8.62A2.32,2.32,0,0,1,442.51,463.23Zm-278.43-17a2.32,2.32,0,0,1-2.21-1.61c-.94-3-1.81-6-2.56-9a2.32,2.32,0,0,1,4.5-1.13c.73,2.91,1.57,5.85,2.49,8.72a2.32,2.32,0,0,1-2.21,3ZM449.17,446a2.32,2.32,0,0,1-2.21-3c.91-2.86,1.74-5.8,2.48-8.72a2.32,2.32,0,1,1,4.5,1.13c-.76,3-1.61,6-2.55,9A2.32,2.32,0,0,1,449.17,446ZM159.58,428.35a2.32,2.32,0,0,1-2.28-1.89c-.57-3-1.05-6.16-1.43-9.24a2.32,2.32,0,1,1,4.6-.57c.37,3,.84,6,1.39,9a2.32,2.32,0,0,1-2.28,2.75Zm294.07-.17a2.32,2.32,0,0,1-2.28-2.74c.55-3,1-6,1.38-9a2.32,2.32,0,1,1,4.6.56c-.38,3.09-.86,6.2-1.42,9.24A2.32,2.32,0,0,1,453.65,428.18ZM157.32,410.08a2.32,2.32,0,0,1-2.31-2.18c-.19-3.09-.29-6.24-.29-9.35a2.32,2.32,0,0,1,2.32-2.32h0a2.32,2.32,0,0,1,2.32,2.32c0,3,.1,6.07.28,9.07a2.32,2.32,0,0,1-2.17,2.46Zm298.57-.18h-.14a2.32,2.32,0,0,1-2.17-2.45c.18-3,.27-6.05.27-9.06V398a2.32,2.32,0,1,1,4.64,0v.33c0,3.13-.1,6.27-.28,9.37A2.32,2.32,0,0,1,455.89,409.91ZM157.3,391.67h-.14a2.32,2.32,0,0,1-2.18-2.45c.19-3.11.47-6.24.84-9.31a2.32,2.32,0,0,1,4.6.56c-.36,3-.64,6-.82,9A2.32,2.32,0,0,1,157.3,391.67Zm298.56-.53a2.32,2.32,0,0,1-2.31-2.17c-.19-3-.47-6-.85-9a2.32,2.32,0,1,1,4.6-.57c.38,3.08.68,6.21.87,9.31a2.32,2.32,0,0,1-2.17,2.46ZM159.52,373.4a2.35,2.35,0,0,1-.42,0,2.32,2.32,0,0,1-1.86-2.7c.56-3.05,1.23-6.13,2-9.14a2.32,2.32,0,1,1,4.5,1.12c-.73,2.92-1.37,5.9-1.92,8.86A2.32,2.32,0,0,1,159.52,373.4Zm294.06-.52A2.32,2.32,0,0,1,451.3,371c-.56-3-1.21-5.93-2-8.85a2.32,2.32,0,1,1,4.5-1.14c.76,3,1.44,6.08,2,9.13a2.32,2.32,0,0,1-1.85,2.71A2.3,2.3,0,0,1,453.58,372.88ZM164,355.54a2.32,2.32,0,0,1-2.21-3c.94-3,2-5.94,3.1-8.84a2.32,2.32,0,1,1,4.33,1.67c-1.09,2.81-2.1,5.69-3,8.57A2.32,2.32,0,0,1,164,355.54Zm285.09-.5a2.32,2.32,0,0,1-2.21-1.61c-.92-2.87-1.94-5.74-3-8.54a2.32,2.32,0,1,1,4.32-1.69c1.13,2.89,2.18,5.85,3.13,8.81a2.32,2.32,0,0,1-2.21,3Zm-278.45-16.7a2.32,2.32,0,0,1-2.11-3.29c1.29-2.82,2.7-5.64,4.17-8.38a2.32,2.32,0,1,1,4.09,2.19c-1.43,2.66-2.79,5.39-4,8.13A2.32,2.32,0,0,1,170.61,338.34Zm271.77-.44a2.32,2.32,0,0,1-2.11-1.34c-1.26-2.73-2.63-5.45-4.06-8.09a2.32,2.32,0,0,1,4.08-2.21c1.47,2.73,2.88,5.54,4.19,8.35a2.32,2.32,0,0,1-2.1,3.29ZM179.33,322.1a2.32,2.32,0,0,1-2-3.54c1.64-2.64,3.38-5.27,5.17-7.8a2.32,2.32,0,0,1,3.79,2.68c-1.74,2.46-3.42,5-5,7.56A2.32,2.32,0,0,1,179.33,322.1Zm254.31-.38a2.32,2.32,0,0,1-2-1.09c-1.59-2.56-3.28-5.09-5-7.54a2.32,2.32,0,1,1,3.78-2.69c1.8,2.52,3.54,5.14,5.18,7.78a2.32,2.32,0,0,1-2,3.55ZM190,307.06a2.32,2.32,0,0,1-1.81-3.77c1.95-2.42,4-4.81,6.08-7.11a2.32,2.32,0,1,1,3.43,3.12c-2,2.22-4,4.54-5.9,6.89A2.32,2.32,0,0,1,190,307.06Zm233-.33a2.31,2.31,0,0,1-1.8-.86c-1.89-2.34-3.88-4.65-5.91-6.87a2.32,2.32,0,0,1,3.42-3.13c2.1,2.29,4.15,4.67,6.1,7.09a2.32,2.32,0,0,1-1.8,3.78Zm-220.6-13.29a2.32,2.32,0,0,1-1.62-4c2.23-2.16,4.55-4.29,6.9-6.31a2.32,2.32,0,1,1,3,3.52c-2.28,2-4.53,4-6.69,6.12A2.31,2.31,0,0,1,202.36,293.44Zm208.17-.29a2.31,2.31,0,0,1-1.61-.65c-2.16-2.09-4.42-4.14-6.71-6.1a2.32,2.32,0,1,1,3-3.53c2.36,2,4.69,4.13,6.92,6.29a2.32,2.32,0,0,1-1.61,4ZM216.33,281.44a2.32,2.32,0,0,1-1.4-4.17c2.47-1.88,5-3.7,7.62-5.42a2.32,2.32,0,1,1,2.57,3.86c-2.5,1.67-5,3.43-7.39,5.25A2.31,2.31,0,0,1,216.33,281.44Zm180.21-.26a2.31,2.31,0,0,1-1.39-.47c-2.41-1.81-4.9-3.58-7.41-5.24a2.32,2.32,0,0,1,2.56-3.87c2.59,1.71,5.16,3.53,7.64,5.4a2.32,2.32,0,0,1-1.4,4.17Zm-164.89-9.94a2.32,2.32,0,0,1-1.17-4.33c2.68-1.56,5.45-3.05,8.22-4.44a2.32,2.32,0,0,1,2.08,4.15c-2.69,1.34-5.37,2.79-8,4.3A2.31,2.31,0,0,1,231.64,271.25ZM381.16,271a2.31,2.31,0,0,1-1.16-.31c-2.61-1.5-5.3-2.95-8-4.29a2.32,2.32,0,0,1,2.06-4.15c2.78,1.38,5.56,2.87,8.25,4.42a2.32,2.32,0,0,1-1.16,4.33Zm-133.08-8a2.32,2.32,0,0,1-.91-4.45c2.85-1.21,5.78-2.35,8.7-3.39a2.32,2.32,0,0,1,1.55,4.37c-2.83,1-5.67,2.11-8.43,3.28A2.31,2.31,0,0,1,248.08,263Zm116.57-.19a2.31,2.31,0,0,1-.9-.18c-2.78-1.17-5.63-2.27-8.47-3.27a2.32,2.32,0,1,1,1.53-4.38c2.94,1,5.88,2.16,8.74,3.37a2.32,2.32,0,0,1-.9,4.46Zm-99.24-5.95a2.32,2.32,0,0,1-.64-4.55c3-.85,6-1.62,9.07-2.29a2.32,2.32,0,0,1,1,4.53c-2.94.65-5.9,1.39-8.79,2.22A2.31,2.31,0,0,1,265.42,256.88Zm81.85-.14a2.31,2.31,0,0,1-.63-.09c-2.89-.82-5.85-1.55-8.8-2.19a2.32,2.32,0,0,1,1-4.53c3,.66,6.09,1.42,9.08,2.26a2.32,2.32,0,0,1-.63,4.55Zm-63.87-3.81a2.32,2.32,0,0,1-.35-4.61c3.07-.48,6.19-.87,9.28-1.15a2.32,2.32,0,0,1,.43,4.62c-3,.28-6,.65-9,1.12Zm45.88-.08-.35,0c-3-.45-6-.82-9-1.09a2.32,2.32,0,0,1,.41-4.62c3.09.28,6.21.65,9.28,1.12a2.32,2.32,0,0,1-.35,4.61Zm-27.55-1.63a2.32,2.32,0,0,1-.07-4.64c3.11-.1,6.26-.1,9.35,0a2.32,2.32,0,0,1,2.25,2.38,2.28,2.28,0,0,1-2.38,2.25c-3-.09-6-.08-9.07,0Z" transform="translate(-126.6 -217.36)"/></g><path class="cls-6" d="M302.08,546.72H302c-3.11-.09-6.25-.28-9.33-.56a2.32,2.32,0,0,1,.42-4.62c3,.27,6,.45,9.05.54a2.32,2.32,0,0,1-.07,4.64Zm9.21,0a2.32,2.32,0,0,1-.07-4.64c3-.09,6.05-.28,9-.55a2.32,2.32,0,1,1,.42,4.62c-3.09.28-6.23.48-9.33.57Zm-27.54-1.66-.35,0c-3.07-.47-6.17-1-9.2-1.7a2.32,2.32,0,0,1,1-4.53c2.94.64,5.93,1.19,8.91,1.65a2.32,2.32,0,0,1-.35,4.61Zm45.87,0a2.32,2.32,0,0,1-.35-4.61c3-.46,6-1,8.91-1.66a2.32,2.32,0,0,1,1,4.53c-3,.66-6.12,1.24-9.19,1.71Zm-63.86-3.88a2.31,2.31,0,0,1-.63-.09c-3-.85-6-1.8-8.92-2.83a2.32,2.32,0,0,1,1.54-4.38c2.84,1,5.74,1.92,8.64,2.74a2.32,2.32,0,0,1-.63,4.55Zm81.84,0a2.32,2.32,0,0,1-.63-4.55c2.89-.82,5.8-1.75,8.64-2.75a2.32,2.32,0,0,1,1.54,4.37c-2.93,1-5.93,2-8.91,2.84A2.33,2.33,0,0,1,347.61,541.1ZM248.38,535a2.31,2.31,0,0,1-.9-.18c-2.86-1.21-5.72-2.53-8.51-3.91a2.32,2.32,0,0,1,2.07-4.15c2.7,1.34,5.47,2.62,8.25,3.79a2.32,2.32,0,0,1-.9,4.46ZM365,535a2.32,2.32,0,0,1-.91-4.45c2.76-1.17,5.53-2.45,8.22-3.79a2.32,2.32,0,1,1,2.07,4.15c-2.78,1.39-5.63,2.7-8.48,3.91A2.32,2.32,0,0,1,365,535Zm-133.08-8.16a2.31,2.31,0,0,1-1.16-.31c-2.69-1.56-5.37-3.21-8-4.93a2.32,2.32,0,1,1,2.56-3.86c2.51,1.66,5.1,3.27,7.71,4.78a2.32,2.32,0,0,1-1.16,4.33Zm149.53-.05a2.32,2.32,0,0,1-1.16-4.33c2.6-1.5,5.19-3.11,7.7-4.78a2.32,2.32,0,0,1,2.57,3.86c-2.59,1.72-5.26,3.37-7.94,4.93A2.3,2.3,0,0,1,381.41,526.77ZM216.52,516.64a2.31,2.31,0,0,1-1.4-.47c-2.48-1.87-4.93-3.84-7.29-5.87a2.32,2.32,0,1,1,3-3.52c2.29,2,4.67,3.87,7.07,5.69a2.32,2.32,0,0,1-1.4,4.17Zm180.21,0a2.32,2.32,0,0,1-1.4-4.17c2.4-1.81,4.77-3.72,7.06-5.69a2.32,2.32,0,1,1,3,3.52c-2.36,2-4.81,4-7.28,5.86A2.31,2.31,0,0,1,396.74,516.59Zm-194.2-11.93a2.31,2.31,0,0,1-1.61-.65c-2.23-2.16-4.42-4.42-6.51-6.71a2.32,2.32,0,1,1,3.43-3.13c2,2.22,4.16,4.41,6.32,6.51a2.32,2.32,0,0,1-1.61,4Zm208.17,0a2.32,2.32,0,0,1-1.61-4c2.16-2.1,4.29-4.29,6.31-6.51a2.32,2.32,0,1,1,3.43,3.13c-2.09,2.29-4.28,4.55-6.51,6.71A2.31,2.31,0,0,1,410.71,504.61ZM190.13,491.06a2.31,2.31,0,0,1-1.81-.86c-1.95-2.41-3.85-4.92-5.64-7.45a2.32,2.32,0,1,1,3.78-2.69c1.74,2.45,3.58,4.88,5.47,7.23a2.32,2.32,0,0,1-1.8,3.78Zm233-.06a2.32,2.32,0,0,1-1.8-3.77c1.89-2.35,3.73-4.78,5.47-7.23a2.32,2.32,0,1,1,3.78,2.68c-1.8,2.53-3.69,5-5.65,7.46A2.31,2.31,0,0,1,423.12,491ZM179.47,476.06a2.32,2.32,0,0,1-2-1.1c-1.64-2.63-3.21-5.35-4.68-8.08a2.32,2.32,0,0,1,4.08-2.2c1.43,2.65,3,5.29,4.54,7.84a2.32,2.32,0,0,1-2,3.54Zm254.3-.08a2.32,2.32,0,0,1-2-3.54c1.59-2.56,3.12-5.21,4.55-7.85a2.32,2.32,0,1,1,4.08,2.2c-1.47,2.73-3,5.46-4.69,8.1A2.32,2.32,0,0,1,433.77,476Zm-263-16.11a2.32,2.32,0,0,1-2.11-1.35c-1.3-2.82-2.53-5.71-3.65-8.6a2.32,2.32,0,1,1,4.32-1.68c1.09,2.79,2.28,5.6,3.54,8.33a2.32,2.32,0,0,1-2.1,3.29Zm271.76-.12a2.32,2.32,0,0,1-2.1-3.29c1.26-2.73,2.45-5.55,3.54-8.36a2.32,2.32,0,1,1,4.32,1.68c-1.12,2.9-2.35,5.8-3.65,8.62A2.32,2.32,0,0,1,442.51,459.75Zm-278.43-17a2.32,2.32,0,0,1-2.21-1.61c-.94-3-1.81-6-2.56-9a2.32,2.32,0,0,1,4.5-1.13c.73,2.91,1.57,5.85,2.49,8.72a2.32,2.32,0,0,1-2.21,3Zm285.09-.17a2.32,2.32,0,0,1-2.21-3c.91-2.86,1.74-5.8,2.48-8.72a2.32,2.32,0,1,1,4.5,1.13c-.76,3-1.61,6-2.55,9A2.32,2.32,0,0,1,449.17,442.56ZM159.58,424.87A2.32,2.32,0,0,1,157.3,423c-.57-3-1.05-6.16-1.43-9.24a2.32,2.32,0,1,1,4.6-.57c.37,3,.84,6,1.39,9a2.32,2.32,0,0,1-2.28,2.75Zm294.07-.17a2.32,2.32,0,0,1-2.28-2.74c.55-3,1-6,1.38-9a2.32,2.32,0,1,1,4.6.56c-.38,3.09-.86,6.2-1.42,9.24A2.32,2.32,0,0,1,453.65,424.7ZM157.32,406.6a2.32,2.32,0,0,1-2.31-2.18c-.19-3.09-.29-6.24-.29-9.35a2.32,2.32,0,0,1,2.32-2.32h0a2.32,2.32,0,0,1,2.32,2.32c0,3,.1,6.07.28,9.07a2.32,2.32,0,0,1-2.17,2.46Zm298.57-.18h-.14a2.32,2.32,0,0,1-2.17-2.45c.18-3,.27-6.05.27-9.06v-.35a2.32,2.32,0,1,1,4.64,0v.33c0,3.13-.1,6.27-.28,9.37A2.32,2.32,0,0,1,455.89,406.43ZM157.3,388.19h-.14a2.32,2.32,0,0,1-2.18-2.45c.19-3.11.47-6.24.84-9.31a2.32,2.32,0,0,1,4.6.56c-.36,3-.64,6-.82,9A2.32,2.32,0,0,1,157.3,388.19Zm298.56-.53a2.32,2.32,0,0,1-2.31-2.17c-.19-3-.47-6-.85-9a2.32,2.32,0,1,1,4.6-.57c.38,3.08.68,6.21.87,9.31a2.32,2.32,0,0,1-2.17,2.46ZM159.52,369.92a2.35,2.35,0,0,1-.42,0,2.32,2.32,0,0,1-1.86-2.7c.56-3.05,1.23-6.13,2-9.14a2.32,2.32,0,1,1,4.5,1.12c-.73,2.92-1.37,5.9-1.92,8.86A2.32,2.32,0,0,1,159.52,369.92Zm294.06-.52a2.32,2.32,0,0,1-2.28-1.89c-.56-3-1.21-5.93-2-8.85a2.32,2.32,0,1,1,4.5-1.14c.76,3,1.44,6.08,2,9.13a2.32,2.32,0,0,1-1.85,2.71A2.3,2.3,0,0,1,453.58,369.4ZM164,352.06a2.32,2.32,0,0,1-2.21-3c.94-3,2-5.94,3.1-8.84a2.32,2.32,0,1,1,4.33,1.67c-1.09,2.81-2.1,5.69-3,8.57A2.32,2.32,0,0,1,164,352.06Zm285.09-.5a2.32,2.32,0,0,1-2.21-1.61c-.92-2.87-1.94-5.74-3-8.54a2.32,2.32,0,0,1,4.32-1.69c1.13,2.89,2.18,5.85,3.13,8.81a2.32,2.32,0,0,1-2.21,3Zm-278.45-16.7a2.32,2.32,0,0,1-2.11-3.29c1.29-2.82,2.7-5.64,4.17-8.38a2.32,2.32,0,1,1,4.09,2.19c-1.43,2.66-2.79,5.39-4,8.13A2.32,2.32,0,0,1,170.61,334.86Zm271.77-.44a2.32,2.32,0,0,1-2.11-1.34c-1.26-2.73-2.63-5.45-4.06-8.09a2.32,2.32,0,0,1,4.08-2.21c1.47,2.73,2.88,5.54,4.19,8.35a2.32,2.32,0,0,1-2.1,3.29Zm-263.05-15.8a2.32,2.32,0,0,1-2-3.54c1.64-2.64,3.38-5.27,5.17-7.8a2.32,2.32,0,0,1,3.79,2.68c-1.74,2.46-3.42,5-5,7.56A2.32,2.32,0,0,1,179.33,318.62Zm254.31-.38a2.32,2.32,0,0,1-2-1.09c-1.59-2.56-3.28-5.09-5-7.54a2.32,2.32,0,1,1,3.78-2.69c1.8,2.52,3.54,5.14,5.18,7.78a2.32,2.32,0,0,1-2,3.55ZM190,303.58a2.32,2.32,0,0,1-1.81-3.77c1.95-2.42,4-4.81,6.08-7.11a2.32,2.32,0,1,1,3.43,3.12c-2,2.22-4,4.54-5.9,6.89A2.32,2.32,0,0,1,190,303.58Zm233-.33a2.31,2.31,0,0,1-1.8-.86c-1.89-2.34-3.88-4.65-5.91-6.87a2.32,2.32,0,1,1,3.42-3.13c2.1,2.29,4.15,4.67,6.1,7.09a2.32,2.32,0,0,1-1.8,3.78ZM202.36,290a2.32,2.32,0,0,1-1.62-4c2.23-2.16,4.55-4.29,6.9-6.31a2.32,2.32,0,1,1,3,3.52c-2.28,2-4.53,4-6.69,6.12A2.31,2.31,0,0,1,202.36,290Zm208.17-.29a2.31,2.31,0,0,1-1.61-.65c-2.16-2.09-4.42-4.14-6.71-6.1a2.32,2.32,0,1,1,3-3.53c2.36,2,4.69,4.13,6.92,6.29a2.32,2.32,0,0,1-1.61,4ZM216.33,278a2.32,2.32,0,0,1-1.4-4.17c2.47-1.88,5-3.7,7.62-5.42a2.32,2.32,0,1,1,2.57,3.86c-2.5,1.67-5,3.43-7.39,5.25A2.31,2.31,0,0,1,216.33,278Zm180.21-.26a2.31,2.31,0,0,1-1.39-.47c-2.41-1.81-4.9-3.58-7.41-5.24a2.32,2.32,0,0,1,2.56-3.87c2.59,1.71,5.16,3.53,7.64,5.4a2.32,2.32,0,0,1-1.4,4.17Zm-164.89-9.94a2.32,2.32,0,0,1-1.17-4.33c2.68-1.56,5.45-3.05,8.22-4.44a2.32,2.32,0,0,1,2.08,4.15c-2.69,1.34-5.37,2.79-8,4.3A2.31,2.31,0,0,1,231.64,267.77Zm149.52-.23a2.31,2.31,0,0,1-1.16-.31c-2.61-1.5-5.3-2.95-8-4.29a2.32,2.32,0,0,1,2.06-4.15c2.78,1.38,5.56,2.87,8.25,4.42a2.32,2.32,0,0,1-1.16,4.33Zm-133.08-8a2.32,2.32,0,0,1-.91-4.45c2.85-1.21,5.78-2.35,8.7-3.39a2.32,2.32,0,0,1,1.55,4.37c-2.83,1-5.67,2.11-8.43,3.28A2.31,2.31,0,0,1,248.08,259.54Zm116.57-.19a2.31,2.31,0,0,1-.9-.18c-2.78-1.17-5.63-2.27-8.47-3.27a2.32,2.32,0,1,1,1.53-4.38c2.94,1,5.88,2.16,8.74,3.37a2.32,2.32,0,0,1-.9,4.46Zm-99.24-5.95a2.32,2.32,0,0,1-.64-4.55c3-.85,6-1.62,9.07-2.29a2.32,2.32,0,0,1,1,4.53c-2.94.65-5.9,1.39-8.79,2.22A2.31,2.31,0,0,1,265.42,253.4Zm81.85-.14a2.31,2.31,0,0,1-.63-.09c-2.89-.82-5.85-1.55-8.8-2.19a2.32,2.32,0,0,1,1-4.53c3,.66,6.09,1.42,9.08,2.26a2.32,2.32,0,0,1-.63,4.55Zm-63.87-3.81a2.32,2.32,0,0,1-.35-4.61c3.07-.48,6.19-.87,9.28-1.15a2.32,2.32,0,0,1,.43,4.62c-3,.28-6,.65-9,1.12Zm45.88-.08-.35,0c-3-.45-6-.82-9-1.09a2.32,2.32,0,0,1,.41-4.62c3.09.28,6.21.65,9.28,1.12a2.32,2.32,0,0,1-.35,4.61Zm-27.55-1.63a2.32,2.32,0,0,1-.07-4.64c3.11-.1,6.26-.1,9.35,0a2.32,2.32,0,0,1,2.25,2.38,2.28,2.28,0,0,1-2.38,2.25c-3-.09-6-.08-9.07,0Z" transform="translate(-126.6 -217.36)"/><g class="cls-7"><path class="cls-4" d="M224.66,448.15l17.22-98H266l-13.54,77h41.07l-3.68,21" transform="translate(-126.6 -217.36)"/><path class="cls-4" d="M357.33,348.35c13.25,0,22.82,2.5,31.21,7.07l-6.48,19.14a55.14,55.14,0,0,0-24.29-5.3c-23.55,0-31.06,18.84-31.06,37.83,0,13.84,7.22,21.93,23.26,21.93a63.92,63.92,0,0,0,20.17-3.54l3.09,19.14a75.42,75.42,0,0,1-29,5.3c-27.38,0-42.1-17.37-42.1-42.69C302.13,373.52,322.15,348.35,357.33,348.35Z" transform="translate(-126.6 -217.36)"/></g><path class="cls-8" d="M241.88,345.13H266l-13.54,77h41.07l-3.68,21H224.66Z" transform="translate(-126.6 -217.36)"/><path class="cls-9" d="M357.33,343.36c13.25,0,22.82,2.5,31.21,7.07l-6.48,19.14a55.14,55.14,0,0,0-24.29-5.3c-23.55,0-31.06,18.84-31.06,37.83,0,13.84,7.22,21.93,23.26,21.93a63.92,63.92,0,0,0,20.17-3.54l3.09,19.14a75.42,75.42,0,0,1-29,5.3c-27.38,0-42.1-17.37-42.1-42.69C302.13,368.54,322.15,343.36,357.33,343.36Z" transform="translate(-126.6 -217.36)"/><g class="cls-7"><path class="cls-4" d="M190.92,324.63l3.34-3.93,17.52,14.94,8.14-9.55,3.39,2.89-11.48,13.47Z" transform="translate(-126.6 -217.36)"/><path class="cls-4" d="M222.63,318.87c2.21,2.18,4.65,2.38,7.49,0a14.5,14.5,0,0,0,3.76-4.94l2.87,2.06a17.56,17.56,0,0,1-4.81,6.26c-5.27,4.43-10.29,3.39-14.38-1.47-3.77-4.48-4.45-9.83.63-14.1,4.51-3.8,9-2.33,12.63,2l1.62,1.92Zm-2.31-2.68,6.21-5.23-.34-.41c-1.81-2.14-3.79-2.9-5.84-1.17S218.36,313.36,220.31,316.19Z" transform="translate(-126.6 -217.36)"/><path class="cls-4" d="M250.28,309.29l-1.4-2.38a8,8,0,0,1-4.16,6.12c-3.38,2-6.52,1.19-8.4-2-2.31-3.95-.59-7,2.93-9l4.8-2.82-.65-1.1c-1-1.74-2.67-1.87-5-.5a14.53,14.53,0,0,0-4.75,4.46l-2.69-3a17.29,17.29,0,0,1,5.86-5.49c4.8-2.82,8.4-2.39,10.82,1.74l6.78,11.56Zm-4.45-7.09-4,2.35c-1.74,1-2.2,2.29-1.3,3.82s2.26,1.73,4,.73c2.42-1.42,3.19-3.78,2-5.84Z" transform="translate(-126.6 -217.36)"/><path class="cls-4" d="M257,283.93a6.38,6.38,0,0,1,7,1.33l-3.65-10.06,4.72-1.71,9.34,25.78-4.57,1.65-1.09-3a6.68,6.68,0,0,1-4.73,5.57c-5.07,1.84-8.84-1.57-10.85-7.1S251.81,285.81,257,283.93Zm7.06,15.26c3-1.09,3.47-4.06,2.2-7.58s-3.53-5.51-6.54-4.41-3.21,3.83-1.89,7.47S261.15,300.25,264.06,299.19Z" transform="translate(-126.6 -217.36)"/><path class="cls-4" d="M296.66,267.56a19,19,0,0,1,7.94.86l-.44,4.14a17.71,17.71,0,0,0-6-.65c-6.17.52-9.3,4.14-8.76,10.56s4.24,9.46,10.41,8.94a17.79,17.79,0,0,0,5.83-1.65l1.13,4a19,19,0,0,1-7.69,2.18c-8.23.7-14.07-4.24-14.82-13S288.43,268.26,296.66,267.56Z" transform="translate(-126.6 -217.36)"/><path class="cls-4" d="M317.11,296.24c-6.28-.6-9.06-5.26-8.48-11.25s4.23-10,10.47-9.43,9,5.25,8.44,11.24S323.34,296.85,317.11,296.24Zm1.6-16.69c-3.11-.3-4.69,1.87-5.08,5.93s.74,6.49,3.86,6.79,4.65-1.87,5-5.93S321.83,279.85,318.71,279.55Z" transform="translate(-126.6 -217.36)"/><path class="cls-4" d="M339.35,279.37l-3.44,12.28c-.57,2,.06,3.45,2.09,4,2.66.75,4.62-.72,5.5-3.86l2.93-10.45,4.85,1.36-5.38,19.24-4.73-1.32.93-3.34a6.58,6.58,0,0,1-7,2.05c-4.25-1.19-5.35-4.15-4.2-8.25L334.5,278Z" transform="translate(-126.6 -217.36)"/><path class="cls-4" d="M360.85,308.93l5.62-11.42c.93-1.88.53-3.41-1.39-4.36-2.51-1.24-4.74-.27-6.19,2.69l-4.8,9.76-4.51-2.22,8.81-17.89,4.36,2.15-1.53,3.1a6.65,6.65,0,0,1,7.4-.67c4.1,2,4.64,5,2.73,8.92l-6,12.16Z" transform="translate(-126.6 -217.36)"/><path class="cls-4" d="M373.56,317.36a21.75,21.75,0,0,1-5.21-5.61l3-2.32a17.8,17.8,0,0,0,4.34,4.84c1.67,1.2,2.84,1.27,3.67.1.7-1,.32-1.85-1.18-3.73-3.77-4.78-4.14-7-2.22-9.7,2.38-3.31,5.85-3.21,9.83-.36a15.51,15.51,0,0,1,4.8,5.11l-2.85,2.42a14.91,14.91,0,0,0-4-4.42c-1.61-1.15-2.68-1.42-3.47-.31s-.1,2.05,1.85,4.57c2.43,3.11,3.83,5.68,1.72,8.63C381.42,320,377.61,320.26,373.56,317.36Z" transform="translate(-126.6 -217.36)"/><path class="cls-4" d="M390.63,320.13c-2,2.41-1.94,4.86.72,7.46a14.49,14.49,0,0,0,5.28,3.27l-1.78,3.05a17.61,17.61,0,0,1-6.69-4.19c-4.92-4.82-4.35-9.92.09-14.46,4.1-4.18,9.36-5.37,14.1-.72,4.21,4.13,3.18,8.71-.8,12.77l-1.76,1.79Zm2.45-2.56,5.8,5.68.37-.38c2-2,2.53-4,.61-5.93S395.71,315.36,393.08,317.57Z" transform="translate(-126.6 -217.36)"/><path class="cls-4" d="M398.56,341.52c-2.32-2.94-1.43-5.27,1.32-7.44l17.39-13.71,3.11,3.94L403,338a1.41,1.41,0,0,0-.27,2.31,5.1,5.1,0,0,0,1.05,1l-2.87,2.41A11,11,0,0,1,398.56,341.52Z" transform="translate(-126.6 -217.36)"/></g><path class="cls-10" d="M190.92,322.19l3.34-3.93,17.52,14.94,8.14-9.55,3.39,2.89L211.83,340Z" transform="translate(-126.6 -217.36)"/><path class="cls-11" d="M222.63,316.44c2.21,2.18,4.65,2.38,7.49,0a14.5,14.5,0,0,0,3.76-4.94l2.87,2.06a17.56,17.56,0,0,1-4.81,6.26c-5.27,4.43-10.29,3.39-14.38-1.47-3.77-4.48-4.45-9.83.63-14.1,4.51-3.8,9-2.33,12.63,2l1.62,1.92Zm-2.31-2.68,6.21-5.23-.34-.41c-1.81-2.14-3.79-2.9-5.84-1.17S218.37,310.92,220.32,313.75Z" transform="translate(-126.6 -217.36)"/><path class="cls-12" d="M250.28,306.86l-1.4-2.38a8,8,0,0,1-4.16,6.12c-3.38,2-6.52,1.19-8.4-2-2.31-3.95-.59-7,2.93-9l4.8-2.82-.65-1.1c-1-1.74-2.67-1.87-5-.5a14.53,14.53,0,0,0-4.75,4.46l-2.69-3a17.29,17.29,0,0,1,5.86-5.49c4.8-2.82,8.4-2.39,10.82,1.74l6.78,11.56Zm-4.45-7.09-4,2.35c-1.74,1-2.2,2.29-1.3,3.82s2.26,1.73,4,.73c2.42-1.42,3.19-3.78,2-5.84Z" transform="translate(-126.6 -217.36)"/><path class="cls-13" d="M257,281.5a6.38,6.38,0,0,1,7,1.33l-3.65-10.06,4.72-1.71,9.34,25.78-4.57,1.65-1.09-3A6.68,6.68,0,0,1,264,301c-5.07,1.84-8.84-1.57-10.85-7.1S251.81,283.37,257,281.5Zm7.06,15.26c3-1.09,3.47-4.06,2.2-7.58s-3.53-5.51-6.54-4.41-3.21,3.83-1.89,7.47S261.16,297.81,264.06,296.76Z" transform="translate(-126.6 -217.36)"/><path class="cls-14" d="M296.66,265.12a19,19,0,0,1,7.94.86l-.44,4.14a17.71,17.71,0,0,0-6-.65c-6.17.52-9.3,4.14-8.76,10.56s4.24,9.46,10.41,8.94a17.79,17.79,0,0,0,5.83-1.65l1.13,4a19,19,0,0,1-7.69,2.18c-8.23.7-14.07-4.24-14.82-13S288.44,265.82,296.66,265.12Z" transform="translate(-126.6 -217.36)"/><path class="cls-15" d="M317.11,293.81c-6.28-.6-9.06-5.26-8.48-11.25s4.23-10,10.47-9.43,9,5.25,8.44,11.24S323.35,294.41,317.11,293.81Zm1.6-16.69c-3.11-.3-4.69,1.87-5.08,5.93s.74,6.49,3.86,6.79,4.65-1.87,5-5.93S321.84,277.41,318.72,277.12Z" transform="translate(-126.6 -217.36)"/><path class="cls-16" d="M339.35,276.94l-3.44,12.28c-.57,2,.06,3.45,2.09,4,2.66.75,4.62-.72,5.5-3.86l2.93-10.45,4.85,1.36-5.38,19.24-4.73-1.32.93-3.34a6.58,6.58,0,0,1-7,2.05c-4.25-1.19-5.35-4.15-4.2-8.25l3.66-13.08Z" transform="translate(-126.6 -217.36)"/><path class="cls-17" d="M360.85,306.49l5.62-11.42c.93-1.88.53-3.41-1.39-4.36-2.51-1.24-4.74-.27-6.19,2.69l-4.8,9.76-4.51-2.22,8.81-17.89,4.36,2.15-1.53,3.1a6.65,6.65,0,0,1,7.4-.67c4.1,2,4.64,5,2.73,8.92l-6,12.16Z" transform="translate(-126.6 -217.36)"/><path class="cls-18" d="M373.56,314.93a21.75,21.75,0,0,1-5.21-5.61l3-2.32a17.8,17.8,0,0,0,4.34,4.84c1.67,1.2,2.84,1.27,3.67.1.7-1,.32-1.85-1.18-3.73-3.77-4.78-4.14-7-2.22-9.7,2.38-3.31,5.85-3.21,9.83-.36a15.51,15.51,0,0,1,4.8,5.11l-2.85,2.42a14.91,14.91,0,0,0-4-4.42c-1.61-1.15-2.68-1.42-3.47-.31s-.1,2.05,1.85,4.57c2.43,3.11,3.83,5.68,1.72,8.63C381.43,317.52,377.61,317.83,373.56,314.93Z" transform="translate(-126.6 -217.36)"/><path class="cls-19" d="M390.63,317.7c-2,2.41-1.94,4.86.72,7.46a14.49,14.49,0,0,0,5.28,3.27l-1.78,3.05a17.61,17.61,0,0,1-6.69-4.19c-4.92-4.82-4.35-9.92.09-14.46,4.1-4.18,9.36-5.37,14.1-.72,4.21,4.13,3.18,8.71-.8,12.77l-1.76,1.79Zm2.45-2.56,5.8,5.68.37-.38c2-2,2.53-4,.61-5.93S395.71,312.92,393.08,315.14Z" transform="translate(-126.6 -217.36)"/><path class="cls-20" d="M398.56,339.08c-2.32-2.94-1.43-5.27,1.32-7.44l17.39-13.71,3.11,3.94L403,335.56a1.41,1.41,0,0,0-.27,2.31,5.1,5.1,0,0,0,1.05,1l-2.87,2.41A11,11,0,0,1,398.56,339.08Z" transform="translate(-126.6 -217.36)"/><g class="cls-7"><path class="cls-4" d="M260.77,511.1l4.52,15.46-7.58-2.46-3.77-14.52-6-1.95-3.91,12-6-2,10.46-32.14,14.72,4.79c6.76,2.2,9.3,7.51,7.35,13.5A10.28,10.28,0,0,1,260.77,511.1Zm-.07-16.2-7.77-2.53-3.41,10.47,7.77,2.53c3.33,1.09,6.13-.14,7.23-3.52S264,496,260.7,494.91Z" transform="translate(-126.6 -217.36)"/><path class="cls-4" d="M288.6,529.77l.41-3.37a9.79,9.79,0,0,1-8.64,2.88c-4.79-.58-7.28-3.69-6.72-8.23.68-5.59,4.62-7.27,9.61-6.65l6.8.83.19-1.56c.3-2.48-1.22-3.84-4.55-4.24a17.92,17.92,0,0,0-8,.82l-.42-4.92a21.26,21.26,0,0,1,9.84-1c6.8.82,10,3.93,9.3,9.78l-2,16.38Zm.95-10.27-5.7-.69c-2.47-.3-3.86.6-4.12,2.77s.92,3.38,3.34,3.68c3.43.41,5.94-1.33,6.3-4.25Z" transform="translate(-126.6 -217.36)"/><path class="cls-4" d="M312.24,531c-4.73.09-6.85-2-6.95-6.63L305,511.22l-3.3.06-.11-5.24,3.3-.06-.12-6.35,6.2-.13.13,6.36,5.18-.11.11,5.24-5.19.11.25,12.5c0,1.63.66,2.38,2.59,2.34a13.3,13.3,0,0,0,2.33-.3l.24,4.57A15.54,15.54,0,0,1,312.24,531Z" transform="translate(-126.6 -217.36)"/><path class="cls-4" d="M327.73,519.14c1,3.7,3.39,5.47,7.9,4.75a18,18,0,0,0,7.11-2.83l1.71,4a21.58,21.58,0,0,1-9,3.55c-8.37,1.33-13-3-14.25-10.68-1.13-7.12,1.54-13.2,9.61-14.49,7.17-1.14,11,3.24,12.06,10.15l.49,3.05Zm-.74-4.3,9.88-1.58-.11-.65c-.54-3.41-2.16-5.47-5.42-4.94C327.94,508.21,326.73,510.61,327,514.83Z" transform="translate(-126.6 -217.36)"/><path class="cls-4" d="M353.18,498a7.9,7.9,0,0,1,8.57,1.75l-4.35-12.48,5.85-2,11.13,32-5.67,2-1.3-3.74a8.23,8.23,0,0,1-5.92,6.79c-6.28,2.19-10.89-2.07-13.28-8.93S346.75,500.2,353.18,498Zm8.48,18.95c3.74-1.31,4.35-5,2.83-9.33s-4.27-6.85-8-5.55-4,4.68-2.44,9.19S358.06,518.16,361.66,516.91Z" transform="translate(-126.6 -217.36)"/></g><path class="cls-21" d="M260.77,508.1l4.52,15.46-7.58-2.46L254,506.58l-6-1.95-3.91,12-6-2,10.46-32.14,14.72,4.79c6.76,2.2,9.3,7.51,7.35,13.5A10.28,10.28,0,0,1,260.77,508.1Zm-.07-16.2-7.77-2.53-3.41,10.47,7.77,2.53c3.33,1.09,6.13-.14,7.23-3.52S264,493,260.7,491.91Z" transform="translate(-126.6 -217.36)"/><path class="cls-22" d="M288.6,526.77l.41-3.37a9.79,9.79,0,0,1-8.64,2.88c-4.79-.58-7.28-3.69-6.72-8.23.68-5.59,4.62-7.27,9.61-6.65l6.8.83.19-1.56c.3-2.48-1.22-3.84-4.55-4.24a17.92,17.92,0,0,0-8,.82l-.42-4.92a21.26,21.26,0,0,1,9.84-1c6.8.82,10,3.93,9.3,9.78l-2,16.38Zm.95-10.27-5.7-.69c-2.47-.3-3.86.6-4.12,2.77s.92,3.38,3.34,3.68c3.43.41,5.94-1.33,6.3-4.25Z" transform="translate(-126.6 -217.36)"/><path class="cls-23" d="M312.24,528c-4.73.09-6.85-2-6.95-6.63L305,508.22l-3.3.06-.11-5.24,3.3-.06-.12-6.35,6.2-.13.13,6.36,5.18-.11.11,5.24-5.19.11.25,12.5c0,1.63.66,2.38,2.59,2.34a13.3,13.3,0,0,0,2.33-.3l.24,4.57A15.54,15.54,0,0,1,312.24,528Z" transform="translate(-126.6 -217.36)"/><path class="cls-24" d="M327.74,516.14c1,3.7,3.39,5.47,7.9,4.75a18,18,0,0,0,7.11-2.83l1.71,4a21.58,21.58,0,0,1-9,3.55c-8.37,1.33-13-3-14.25-10.68-1.13-7.12,1.54-13.2,9.61-14.49,7.17-1.14,11,3.24,12.06,10.15l.49,3.05Zm-.74-4.3,9.88-1.58-.11-.65c-.54-3.41-2.16-5.47-5.42-4.94C327.94,505.2,326.74,507.61,327,511.83Z" transform="translate(-126.6 -217.36)"/><path class="cls-25" d="M353.18,495a7.9,7.9,0,0,1,8.57,1.75l-4.35-12.48,5.85-2,11.13,32-5.67,2-1.3-3.74a8.23,8.23,0,0,1-5.92,6.79c-6.28,2.19-10.89-2.07-13.28-8.93S346.75,497.2,353.18,495Zm8.48,18.95c3.74-1.31,4.35-5,2.83-9.33s-4.27-6.85-8-5.55-4,4.68-2.44,9.19S358.06,515.16,361.66,513.91Z" transform="translate(-126.6 -217.36)"/><g class="cls-2"><polygon class="cls-4" points="275.45 174.94 281.44 162.72 287.5 174.91 300.98 176.82 291.26 186.35 293.6 199.76 281.53 193.46 269.5 199.83 271.76 186.41 261.99 176.93 275.45 174.94"/><polygon class="cls-4" points="62.29 174.94 68.28 162.72 74.33 174.91 87.81 176.82 78.09 186.35 80.43 199.76 68.36 193.46 56.33 199.83 58.59 186.41 48.82 176.93 62.29 174.94"/></g><polygon class="cls-26" points="263.38 172.95 273.15 182.43 270.89 195.85 282.92 189.48 294.99 195.78 292.65 182.37 302.37 172.84 288.89 170.93 282.83 158.74 276.84 170.96 263.38 172.95"/><polygon class="cls-27" points="50.21 172.95 59.98 182.43 57.72 195.85 69.75 189.48 81.82 195.78 79.48 182.37 89.2 172.84 75.72 170.93 69.66 158.74 63.67 170.96 50.21 172.95"/></g></g></svg>