<?xml version="1.0" encoding="utf-8"?>
<!-- Generator: Adobe Illustrator 23.1.0, SVG Export Plug-In . SVG Version: 6.00 Build 0)  -->
<svg version="1.1" id="Layer_1" xmlns="http://www.w3.org/2000/svg" xmlns:xlink="http://www.w3.org/1999/xlink" x="0px" y="0px"
	 viewBox="0 0 224 225" style="enable-background:new 0 0 224 225;" xml:space="preserve">
<g>
	<path d="M111,225.1c0-3.3,0-6.6,0-10c0.6,0,1.1,0,1.5-0.1c0.5-0.1,1-0.4,1.5-0.5c0.9-0.2,1.7-0.3,2.6-0.4c0.3,1.7,0.2,1.8-1.2,1.8
		c-0.7,0-1.4,0-2,0c-0.1,0-0.2,0.1-0.4,0.1c0,0.2-0.1,0.4-0.1,0.7c-0.1,2.1,0,2.2,2.2,2.3c0.4,0,0.9,0,1.3,0.1
		c0.2,0,0.3,0.3,0.5,0.5c-0.2,0.2-0.4,0.4-0.6,0.4c-1.1,0-2.2,0-3.3,0c0,1.1,0,2,0,3.1c1.2,0,2.5,0,3.9,0c0,0.7-0.1,1.4-0.1,2
		C114.9,225.1,113,225.1,111,225.1z"/>
	<path d="M35.1,66.4c0.6-0.6,1.4-1.1,1.6-1.7c0.5-1.2,1.6-2.1,2.1-3.1c0.7-1.6,2.2-2.5,2.9-3.8c0.7-1.3,1.7-2.1,2.5-3.3
		c0.3-0.6,1.1-0.9,1.6-1.4c0.4-0.4,0.8-0.8,1.2-1.2c0.9-0.9,1.8-1.9,2.6-2.8c0.8-0.9,1.6-1.8,2.5-2.7c0.9-0.8,2-1.4,2.8-2.3
		c1-1.1,2.6-1.3,3.4-2.8c0.3-0.5,1.1-1.3,2.2-1.3c0.5,0,1-0.7,1.5-1.1c0.3-0.3,0.7-0.5,1-0.7c0.6-0.4,1.3-0.8,1.9-1.1
		c0.5-0.3,0.9-0.6,1.4-0.9c0.3-0.2,0.5-0.4,0.8-0.6c0.1-0.1,0.1-0.3,0.2-0.3c0.9-0.4,1.9-0.7,2.8-1.1c1-0.5,1.9-1,2.9-1.6
		c0.2-0.1,0.3-0.3,0.5-0.3c1-0.4,2.5-0.5,3-1.2c1-1.3,2.9-0.2,3.6-1.8c0.1-0.1,0.5-0.1,0.8-0.1c0.5-0.1,1.2,0.1,1.3-0.7
		c0-0.1,0.1-0.2,0.2-0.2c1.6,0.4,2.8-1,4.3-1.1c0.8-0.1,1.6-0.5,2.4-0.8c0.1,0,0.2-0.1,0.3-0.1c2.1-0.4,4.2-0.7,6.2-1.1
		c0.9-0.2,1.7-0.5,2.5-0.8c0.5-0.1,1-0.2,1.5-0.2c1.4-0.1,2.8,0,4.2-0.1c0.9,0,1.8,0.2,2.5-0.7c0.1-0.2,0.7-0.2,1-0.2
		c3.5,0,7,0,10.4,0c0.4,0,0.9,0.4,1.3,0.5c0.4,0.1,0.7,0.3,1.1,0.3c1.6,0.1,3.1,0.1,4.7,0.1c1.1,0,2.2,0,3.3,0.7
		c0.7,0.5,1.9,0.2,2.9,0.4c0.7,0.1,1.3,0.5,2,0.6c0.7,0.2,1.3,0.2,2,0.3c0.7,0.1,1.6-0.2,1.9,0.8c0,0.1,0.1,0.1,0.2,0.1
		c1.8-0.4,3,1.2,4.7,1.1c0.3,0,0.7,0.4,1,0.5c0.5,0.2,1.1,0.3,1.7,0.4c0.5,0.1,1.2-0.1,1.3,0.7c0,0.1,0.2,0.3,0.4,0.3
		c0.9,0,1.4,0.5,2.2,0.9c1.1,0.7,2.7,0.6,3.7,1.4c0.9,0.7,2.3,0.4,2.7,1.7c0,0.1,0.2,0.1,0.3,0.1c1.3,0,2.1,0.9,3,1.7
		c0.2,0.2,0.6,0.2,0.9,0.3c0.3,0.2,0.5,0.4,0.8,0.6c0.2,0.1,0.4,0.3,0.6,0.4c0.8,0.6,1.6,1.1,2.4,1.7c0.1,0.1,0.2,0.2,0.4,0.3
		c1.2,0.2,1.9,0.9,2.6,1.8c0.5,0.6,1.4,0.8,2,1.3c0.5,0.3,1.1,0.7,1.5,1.1c1.2,1.1,2.3,2.3,3.4,3.4c0.1,0.1,0.3,0.3,0.5,0.3
		c1.1,0.1,1.5,1.1,2.2,1.8c0.4,0.4,0.8,1,1.3,1.3c1,0.6,1.5,1.5,2.1,2.5c0.5,1,1.5,1.7,2.3,2.5c1.1,1.1,2.4,2.1,3.2,3.5
		c0.4,0.7,0.7,1.6,1.3,2.1c1.2,1,1.2,2.9,2.7,3.6c0.1,0,0.2,0.2,0.2,0.3c0.2,1.3,0.9,2.1,1.8,2.9c0.2,0.2,0.1,0.5,0.2,0.8
		c0.2,0.3,0.4,0.7,0.6,1c0.1,0.1,0.2,0.1,0.3,0.2c0.4,1,0.8,2,1.2,2.9c0.5,1,1.1,1.9,1.7,2.9c0.1,0.2,0.1,0.5,0.2,0.8
		c0.5,1.2,1.1,2.3,1.7,3.5c0,0.1,0.1,0.1,0.1,0.2c0.4,1.4,0.7,2.8,1.2,4.2c0.1,0.5,0.4,0.9,0.7,1.4c0.1,0.1,0.2,0.2,0.2,0.3
		c0.4,1.6,0.7,3.1,1.1,4.7c0.2,0.8,0.6,1.5,0.8,2.3c0.2,0.6,0.2,1.3,0.3,1.9c0.2,1-0.3,2.3,0.9,3c0.1,0.1,0.1,0.5,0.1,0.8
		c0,1.3,0,2.6,0.1,4c0.1,0.7,0.5,1.4,0.7,2.1c0.1,0.3,0.1,0.6,0.1,0.9c0,5.3,0,10.6,0,16c0,0.2,0.1,0.5,0,0.6
		c-1.5,1.8-0.6,4-0.9,6.1c-0.1,0.6,0.2,1.3-0.7,1.6c-0.2,0.1-0.2,0.6-0.3,1c-0.2,1.4,0.3,2.9-0.9,4.2c-0.3,0.3-0.1,1.1-0.2,1.6
		c-0.1,0.8,0.1,1.6-0.7,2.1c-0.2,0.1-0.1,0.6-0.2,0.9c-0.1,0.8,0.1,1.7-0.9,2.2c-0.2,0.1-0.1,0.6-0.2,0.9c-0.1,0.7-0.1,1.4-0.8,2
		c-0.7,0.7-0.9,2-1.2,3.1c-0.2,0.7,0.2,1.6-0.9,1.8c-0.1,0-0.1,0.4-0.2,0.7c-0.2,0.5-0.5,0.9-0.7,1.3c0,0.1-0.1,0.1-0.2,0.2
		c-0.4,1-0.8,1.9-1.2,2.9c-0.1,0.3-0.4,0.6-0.6,0.9c-0.1,0.2-0.3,0.3-0.3,0.4c0,1.3-1,2-1.7,2.9c-0.2,0.2-0.1,0.5-0.3,0.8
		c-0.2,0.3-0.5,0.7-0.7,1c-0.1,0.1-0.2,0.2-0.2,0.4c-0.1,1.2-1,1.9-1.8,2.8c-0.5,0.6-0.9,1.4-1.3,2.1c-0.3,0.4-0.6,0.7-1,1.1
		c-1.1,1.1-1.4,2.8-2.8,3.7c-0.9,0.6-1.4,1.8-2.2,2.6c-1.1,1.2-2.3,2.2-3.4,3.4c-0.9,0.9-1.7,1.8-2.5,2.6c-0.8,0.8-1.8,1.5-2.6,2.3
		c-1.1,1-2.1,2.1-3.4,2.8c-1.2,0.7-1.8,2.2-3.5,2.3c-0.3,0-0.7,0.5-1,0.9c-1,1.1-2.9,1.2-3.6,2.7c-0.1,0.2-0.5,0.1-0.8,0.3
		c-0.4,0.2-0.8,0.5-1.2,0.7c-0.3,0.1-0.6,0.2-0.8,0.3c-0.4,0.2-0.7,0.4-1.1,0.7c-0.1,0.1-0.1,0.2-0.2,0.2c-1,0.4-2,0.8-3,1.2
		c-1,0.5-1.9,1.1-2.9,1.7c-0.3,0.2-0.7,0.1-1,0.3c-0.3,0.1-0.6,0.4-0.9,0.6c-0.3,0.2-0.6,0.3-0.9,0.4c-0.8,0.1-1.5,0.2-2.2,0.8
		c-0.9,0.7-2.3,0.9-3.4,1.2c-0.7,0.2-1.4-0.1-1.9,0.7c-0.1,0.2-0.6,0.2-0.9,0.3c-1,0.1-2.1-0.2-2.9,0.9c-0.2,0.2-0.8,0.1-1.2,0.1
		c-1,0.1-2,0.1-3,0.8c-0.7,0.5-2,0.3-3,0.4c-0.9,0.1-1.9-0.2-2.6,0.8c-0.1,0.2-0.6,0.1-0.9,0.1c-3.2,0.1-6.5,0.1-9.7,0.2
		c-0.5,0-1,0.5-1.5,0.5c-0.9,0.1-1.8,0.1-2.7,0c-0.5,0-1-0.5-1.4-0.5c-3.2-0.1-6.5-0.1-9.7-0.2c-0.4,0-0.8-0.3-1.2-0.5
		c-0.4-0.1-0.8-0.4-1.2-0.4c-1-0.1-1.9,0-2.9-0.1c-0.6-0.1-1.1-0.5-1.7-0.6c-0.8-0.2-1.6-0.3-2.4-0.4c-0.6-0.1-1.4,0.2-1.7-0.7
		c0-0.1-0.1-0.1-0.2-0.1c-1.7-0.4-3.4-0.8-5.1-1.2c-0.5-0.1-1-0.5-1.5-0.7c-0.1,0-0.1-0.1-0.2-0.2c-1.2-0.4-2.4-0.7-3.7-1.1
		c-0.5-0.1-1.2,0.1-1.3-0.7c0-0.1-0.1-0.1-0.2-0.2c-1-0.4-2.2-0.6-3.1-1.3c-0.9-0.7-2.2-0.5-2.9-1.6c-0.1-0.2-0.5-0.2-0.7-0.3
		c-0.4-0.2-0.8-0.5-1.2-0.7c-0.2-0.1-0.4-0.2-0.6-0.3c-0.6-0.1-1.2,0.1-1.4-0.8c0-0.1-0.3-0.2-0.4-0.2c-1.3,0-2-0.9-2.6-1.8
		c-0.1-0.1-0.2-0.1-0.3-0.2c-0.7-0.4-1.5-0.6-2.1-1.1c-1.1-1.1-2.7-1.3-3.7-2.7c-0.7-1.1-2.2-1.6-3.3-2.4c-0.6-0.4-1-1-1.5-1.5
		c-0.8-0.8-1.6-1.5-2.4-2.3c-0.5-0.5-1-0.9-1.6-1.4c-0.6-0.5-1.2-1.1-1.8-1.7c-0.4-0.4-0.8-0.7-1.1-1.1c-1.3-1.4-2.6-2.9-3.9-4.3
		c-0.5-0.6-0.9-1.5-1.4-2.2c-0.2-0.3-0.6-0.5-0.9-0.8c-1.1-1.1-1.3-2.9-2.7-3.7c-0.2-0.1-0.1-0.5-0.3-0.7c-0.5-0.7-1.1-1.4-1.7-2.1
		c-0.1-0.1-0.3-0.1-0.3-0.2c-0.4-1-0.7-2-1.1-3c-0.4-0.9-0.9-1.7-1.4-2.6c-0.5-1-0.9-2.1-1.6-3c-0.8-1-0.7-2.5-1.8-3.3
		c-0.1-0.1-0.2-0.3-0.2-0.4c-0.1-0.8,0.1-1.6-0.9-2c0.4-1.6-1-2.6-1.1-4.1c0-0.5-0.5-1.1-0.7-1.6c-0.1-0.1-0.2-0.3-0.2-0.4
		c-0.1-1.1-0.4-2.1-0.8-3.1c-0.8-2.1-0.9-4.5-1.3-6.7c-0.1-0.8,0.1-1.6-0.8-2.1c-0.2-0.1-0.2-0.7-0.2-1c0-1.8,0-3.5-0.1-5.3
		c0-0.9,0.3-1.9-0.7-2.6c-0.1-0.1-0.1-0.5-0.1-0.8c0-3.3,0-6.6,0-9.8c0-0.3,0.1-0.7,0.2-1c0.2-0.5,0.6-1,0.6-1.6
		c0.1-2,0-3.9,0.1-5.9c0-0.6,0.4-1.1,0.6-1.7c0.1-0.4,0.2-0.8,0.3-1.1c0.2-1.4-0.4-3.1,0.9-4.2c0,0,0-0.1,0-0.1
		c0.4-1.9,0.7-3.9,1.1-5.8c0.1-0.3,0.2-0.5,0.4-0.8c0.1-0.1,0.4-0.2,0.3-0.3c-0.2-1.6,1.2-2.8,1.2-4.3c0-0.5,0.4-0.9,0.6-1.3
		c0-0.1,0.2-0.1,0.2-0.2c-0.3-1.2,0.9-2,1.2-3c0.1-0.6,0.6-1,0.8-1.6c0.5-1.2,0.8-2.5,1.3-3.7c0.2-0.4,0.5-0.8,0.8-1
		c1-0.7,0.6-2.2,1.7-2.9C35.1,67.6,35,66.8,35.1,66.4z M107.9,60.6c-0.1,0.1-0.2,0.3-0.3,0.3c-2.4,0.2-4.8,0.5-7.1,0.9
		c-2.9,0.5-5.9,0.3-8.9,0.4c-0.5,0-0.9,0.1-1.4,0.2c-0.8,0.2-1.5,0.6-2.3,0.6c-2.5,0.1-5,0.1-7.4,0.1c-0.5,0-0.9,0.1-1.4,0.3
		c-0.5,0.2-1,0.5-1.6,0.6c-3,0.1-6,0.1-9,0.2c-0.4,0-0.8,0.1-1.3,0.3c-0.5,0.2-1,0.5-1.6,0.6c-0.8,0.1-1.7,0-2.5,0
		c-1.4,0-2.8,0-4.1,0c0,2.5,0,4.8,0,7.1c2.4,0,4.7,0,7,0c0.7,0,1.1,0.2,0.9,1c-0.4,1.3-0.8,2.6-1.1,3.8c0,0,0,0.1-0.1,0.1
		c-1.1,0.3-0.7,1.3-0.8,2c0,0.3,0,0.8-0.1,0.9c-1.1,0.5-0.7,1.6-0.9,2.4c0,0.2-0.1,0.6-0.2,0.6c-1,0.2-0.7,1-0.8,1.6
		c-0.1,0.4,0,0.9-0.3,1.2c-1,1.4-1.6,2.9-1.8,4.6c0,0.2,0,0.5-0.1,0.6c-1.5,0.8-0.4,2.7-1.7,3.8c-0.6,0.5-0.1,2-1,3
		c-0.6,0.7-0.2,1.9-1,2.9c-0.6,0.7-0.5,2-1.1,3c-0.7,1.2-0.8,2.7-1.2,4.1c0,0.1,0,0.3-0.1,0.3c-1.1,0.4-0.7,1.4-0.9,2.1
		c0,0.3-0.1,0.8-0.2,0.9c-1,0.3-0.7,1.1-0.8,1.8c-0.1,0.4,0,1-0.2,1.1c-0.9,0.3-0.6,1.1-0.8,1.7c-0.3,1.2-0.7,2.3-1.1,3.4
		c0,0.1-0.1,0.1-0.2,0.1c-0.2,0.5-0.6,0.9-0.7,1.4c-0.4,1.4-0.4,3.1-1.2,4.2c-0.7,0.9-0.7,1.8-0.9,2.7c0,0.2-0.1,0.4-0.3,0.5
		c-0.6,0.6-1,3.3-0.6,3.9c0.6,0.9,1.2,1.7,1.9,2.5c1,1.3,1.8,2.6,3.6,2.8c0.1,0,0.3,0.1,0.4,0.2c0.6,1.1,1.9,1.2,2.9,1.7
		c1.4,0.7,3,1.4,4.7,1.2c0.1,0,0.3,0,0.3,0.1c0.5,1,1.4,0.7,2.2,0.8c1.1,0.1,2.2,0,3.4,0.1c0.4,0,1.1-0.1,1.3,0.2
		c0.7,0.9,1.6,0.6,2.4,0.7c1.3,0,2.6,0,4,0c0.3,0,0.7-0.1,1-0.2c0.6-0.2,1.1-0.5,1.7-0.6c2-0.4,4.1,0.5,6-0.9c1-0.7,2.5-0.2,3.8-1.1
		c0.9-0.7,2.4-0.6,3.2-1.3c0.6-0.5,1.1-0.7,1.8-1c0.6-0.2,1.1-0.7,1.6-1.2c0.5-0.5,0.9-1.1,1.3-1.7c0.6-0.9,1.5-1.7,1.6-2.6
		c0.3-1.5,0.1-3.1,0-4.7c0-0.2-0.1-0.6-0.3-0.6c-0.8-0.2-0.6-0.8-0.7-1.3c-0.3-1.2-0.7-2.5-1.1-3.7c0,0,0-0.1-0.1-0.1
		c-1-0.4-0.7-1.3-0.8-2c0-0.3,0-0.7-0.2-0.8c-1.4-0.8-1-2.6-1.6-3.8c-0.7-1.6-1.3-3.3-2.1-4.9c-0.5-1-0.3-2.2-1.1-3.2
		c-0.5-0.7-0.2-1.7-0.9-2.6c-0.6-0.8-0.5-2.2-1.1-3.3c-0.6-1.2-0.8-2.6-1.2-3.9c0-0.1-0.2-0.3-0.2-0.4c-0.2-0.4-0.6-0.8-0.6-1.3
		c-0.1-1.5-1.3-2.6-1.4-4.2c0-0.5-0.7-1.4-0.7-2.2c0-0.1-0.2-0.2-0.2-0.4c-0.2-0.4-0.5-0.9-0.7-1.3c-0.5-1.4-0.6-3.1-1.4-4.3
		c-0.6-0.9-0.4-1.7-0.8-2.5c-0.1-0.2-0.2-0.4-0.3-0.6c-0.2-0.4-0.4-0.9-0.6-1.3c-0.1-0.3,0-0.7-0.1-0.8c-1.2-0.5-0.7-1.6-0.9-2.4
		c0-0.2-0.1-0.6-0.2-0.6c-1.1-0.4-0.6-1.3-0.6-2c0.2-0.1,0.2-0.1,0.3-0.1c10.6,0,21.2,0,31.8,0c0.8,0,0.8,0.4,0.8,1
		c-0.5,7.7,0.7,15.5-0.8,23.2c-0.3,1.4-0.2,2.9-0.2,4.4c-0.1,8.3-0.1,16.6-0.2,25c0,0.4-0.1,0.9-0.2,1.3c-0.2,0.7-0.6,1.4-0.6,2.1
		c-0.1,9.2-0.1,18.5-0.2,27.7c0,0.4-0.1,0.9-0.2,1.3c-0.2,0.6-0.5,1.1-0.5,1.7c-0.1,1.7,0,3.4,0,5.1c-1.4,0.4-2.6,0.1-3.7,1
		c-0.9,0.7-2.5,0-3.8,1c-0.7,0.6-2.1,0.1-3.2,1c-0.8,0.6-2.1,0.3-3.2,0.9c-0.9,0.5-1.3,0.8-1.2,1.8c0,0.5,0,1,0,1.4c0,2,0,2,2,2
		c12.8,0,25.5,0,38.3,0c4.1,0,4.1,0,3.8-4.2c0-0.1,0-0.3,0-0.4c-0.1-0.2-0.2-0.5-0.4-0.5c-1.4-0.2-2.4-1.5-4-1.1
		c-0.1,0-0.4,0-0.4-0.1c-0.5-1.2-1.5-0.7-2.3-0.8c-0.3,0-0.7,0-0.8-0.2c-0.5-1-1.4-0.7-2.2-0.8c-0.5-0.1-1.4,0-1.6-0.3
		c-0.5-0.8-1.2-0.8-1.8-0.7c-1.3,0.1-1.7-0.6-1.7-1.7c0-0.7,0.2-1.6-0.2-2c-0.7-0.7-0.6-1.4-0.6-2.2c-0.1-8.8-0.1-17.6-0.2-26.4
		c0-0.5-0.1-1-0.2-1.5c-0.1-0.6-0.5-1.1-0.5-1.7c-0.1-9.7-0.1-19.4-0.2-29c0-0.4-0.1-0.8-0.2-1.2c-0.2-0.6-0.6-1.3-0.6-1.9
		c-0.1-8-0.1-16-0.2-24c0-1.1,0.3-1.3,1.4-1.3c10.2,0,20.4,0,30.6,0c0.3,0,0.6,0,0.9,0.1c0.2,0.1,0.3,0.1,0.5,0.2
		c-1.8,0.8-1.2,2.3-1.5,3.6c0,0.1-0.2,0.1-0.3,0.1c-0.2,0.2-0.4,0.4-0.4,0.6c-0.2,1-0.1,1.8-0.9,2.7c-0.6,0.8-0.5,2.1-1.1,3.2
		c-0.7,1.1-0.8,2.6-1.1,4c0,0.1,0,0.3-0.1,0.3c-1,0.4-0.8,1.4-0.9,2.2c0,0.3,0,0.8-0.1,0.8c-1.1,0.3-0.7,1.3-0.8,2
		c-0.1,0.3,0,0.9-0.2,1c-1,0.3-0.6,1.2-0.8,1.8c-0.4,1.2-0.8,2.3-1.3,3.5c0,0-0.1,0-0.1,0.1c-0.2,0.4-0.5,0.9-0.6,1.3
		c-0.4,1.4-0.7,2.8-1.1,4.2c0,0.1-0.1,0.2-0.2,0.3c-0.2,0.5-0.5,1-0.7,1.5c-0.1,0.4,0,1.2-0.2,1.3c-1.1,0.5-0.7,1.5-0.9,2.3
		c0,0.3-0.1,0.7-0.3,0.7c-0.8,0.3-0.6,0.9-0.7,1.5c0,0.2,0,0.6-0.1,0.7c-1.1,0.5-0.8,1.5-0.9,2.4c0,0.3-0.2,0.5-0.3,0.7
		c-0.2,0.5-0.6,0.9-0.7,1.4c-0.4,1.4-0.4,3-1.2,4.1c-0.7,0.9-0.7,1.8-0.9,2.8c0,0.2-0.1,0.5-0.2,0.5c-0.9,0.2-0.6,0.9-0.7,1.4
		c0,0.3-0.1,0.5-0.2,0.8c-0.2,0.6-0.4,1.2-0.8,1.7c-0.8,1.1-0.3,2.1-0.2,3.3c0.3,1.8,1.5,2.7,2.5,3.9c0.7,0.9,1.8,1.5,2.8,2.2
		c1,0.7,2,1.4,3.1,1.8c1.5,0.5,3,0.8,4.6,1.1c0.1,0,0.2,0.1,0.3,0.2c0.7,0.3,1.3,0.7,2,0.7c1.3,0.1,2.6,0.1,3.8,0.1
		c0.3,0,0.7,0.1,1,0.2c0.5,0.2,1,0.6,1.6,0.6c1.8,0.1,3.6,0,5.4,0c0.3,0,0.7-0.1,1-0.2c0.7-0.2,1.3-0.6,2-0.6
		c1.2-0.1,2.5-0.1,3.7-0.1c0.4,0,0.9,0,1-0.2c0.6-1,1.6-0.7,2.4-0.8c0.3,0,0.6-0.1,0.8-0.2c1.3-0.6,2.6-1.2,3.8-1.8
		c0.8-0.4,1.6-0.7,2.2-1.2c1-0.8,1.9-1.9,2.9-2.7c1.2-1,1.5-2.5,2-3.8c0.4-0.9,0.8-2.5-0.6-3.4c-0.1-0.1-0.1-0.4-0.1-0.7
		c-0.4-1.3-0.4-3-1.2-3.9c-0.8-0.9-0.5-2-1-2.7c-0.6-0.9-0.6-1.9-1-2.8c-0.4-0.8-1-1.5-0.9-2.6c0-0.1-0.3-0.3-0.4-0.4
		c-0.2-0.3-0.4-0.5-0.5-0.8c-0.2-0.8,0.3-1.9-0.9-2.3c0.2-1.4-0.6-2.6-1.1-3.9c-0.2-0.4-0.1-1-0.3-1.4c-0.1-0.4-0.6-0.7-0.7-1
		c-0.4-1.3-0.8-2.7-1.2-4.1c0-0.1-0.2-0.2-0.3-0.4c-0.2-0.4-0.6-0.8-0.6-1.3c-0.1-1.6-1.5-2.7-1.2-4.3c-0.9-0.4-0.7-1.3-0.8-2
		c0-0.2-0.1-0.4-0.2-0.4c-1-0.4-0.7-1.2-0.8-1.9c0-0.3,0-0.8-0.2-0.9c-1-0.4-0.7-1.3-0.9-2c-0.3-1.3-0.6-2.6-1.3-3.7
		c-0.4-0.7-0.7-1.3-0.8-2.1c0-0.1-0.1-0.3-0.1-0.3c-1-0.2-0.7-1.1-0.8-1.7c-0.1-0.6,0.1-1.3-0.8-1.5c-0.1,0-0.1-0.3-0.2-0.5
		c-0.1-0.9,0.2-1.9-0.9-2.5c-0.1,0,0-0.3-0.1-0.5c-0.2-0.7-0.4-1.3-0.7-2.3c2.8,0,5.7,0,8.5,0c0-2.6,0-4.8,0-7.2c-2.3,0-4.6,0-6.8,0
		c-0.4,0-0.8-0.1-1.1-0.2c-0.5-0.2-1-0.6-1.6-0.6c-3-0.1-6-0.1-9-0.1c-0.4,0-0.9,0-1-0.1c-0.8-1-1.8-0.7-2.8-0.7
		c-2.2-0.1-4.5,0-6.7-0.1c-0.6,0-1.1-0.1-1.7-0.2c-0.8-0.2-1.6-0.6-2.4-0.7c-2.6-0.1-5.2-0.1-7.8-0.2c-0.5,0-1,0-1.6-0.1
		c-1.4-0.2-2.8-0.5-4.3-0.7c-0.5-0.1-1,0-1.6-0.1c-0.2,0-0.4-0.2-0.5-0.3c0.1-0.2,0.2-0.4,0.4-0.5c0.7-0.8,1.7-1.4,1.6-2.6
		c-0.2-1.6,0.6-3.3-0.8-5c-0.6-0.7-0.9-2-1.9-2.4c-1-0.4-1.8-1.4-3.2-1.2c-1.6,0.3-3.3-0.3-4.8,0.9c-1,0.8-2.2,1.1-2.3,2.6
		c0,0.1-0.1,0.4-0.2,0.4c-1,0.2-0.7,1-0.8,1.6c-0.1,0.8,0.1,1.6,0,2.4C105.7,58.5,106.7,59.5,107.9,60.6z M114.2,189.3
		c0.1,0,0.2,0,0.4,0c0.5,1.1,0.9,2.2,1.4,3.3c0.1,0.2,0.6,0.2,0.9,0.3c0.2-0.9,1.5-1.2,1.2-2.3c0-0.1,0.3-0.4,0.4-0.5
		c0.1,0.2,0.4,0.4,0.4,0.6c0,0.7,0,1.5,0,2.2c2.1,0.6,2.1,0.5,2.2-1.4c0.2-2.6-0.9-4.8-1.4-7.5c-0.6,0.2-1.4,0.2-1.6,0.6
		c-0.5,1-0.8,2.1-1.2,3.1c-0.1,0.2-0.3,0.3-0.5,0.4c-0.1,0-0.3-0.2-0.4-0.4c-0.4-1.2-0.8-2.3-1.2-3.5c-0.6,0-1.2,0-1.7,0
		c-0.5,1.5,0.4,3.1-1,4.3c-0.1,0.1-0.1,0.5-0.1,0.7c0,0.9,0,1.8,0,2.6c0,0.7-0.2,1.4,1,1.4c1.1,0,1.1-0.6,1.1-1.4
		C114.1,190.9,114.2,190.1,114.2,189.3z M107.9,189.9C107.9,189.9,107.9,189.9,107.9,189.9c0,0.8,0,1.6,0,2.4c0,0.9,0.7,0.8,1.2,0.8
		c0.3,0,0.8-0.5,0.8-0.8c0.1-1.3,0.1-2.6,0.1-3.8c0-0.9,0-1.6,1.2-1.6c0.3,0,0.7-0.7,0.7-1.1c0-0.6-0.3-1.6-0.5-1.6
		c-1.7,0.1-3.6-0.9-5.1,0.8c-0.5,0.5-0.6,0.7,0,1.1c1.1,0.7,1.7,1.6,1.5,3C107.9,189.3,107.9,189.6,107.9,189.9z"/>
	<path d="M1.8,111c0.4-0.8,0.6-2.2,1.4-2.7c1.2-0.7,2.7-2.1,4.2-1.2c1,0.6,2.4,1.2,2.6,2.7c0.1,0.6,0.7,1.2,0.8,1.8
		c0,0.6-0.5,1.1-0.8,1.7c-0.3,0.4-0.6,0.8-0.9,1.2c-1.1,1.4-2.8,1.7-4.3,0.7c-0.6-0.4-1.2-0.6-1.9-1.1C1.8,113.3,2.3,112.3,1.8,111z
		"/>
	<path d="M220.9,111.9c0,0.8,0,1.3,0,1.8c-0.1,1.2-0.9,2.2-2.1,2.3c-1,0.1-2.1,0.1-3.1,0c-1.8-0.1-2.6-1.1-2.7-2.8
		c0-0.3,0-0.6,0-0.8c-0.5-2,1.1-2.9,2.2-4.1c0.6-0.7,4.1,0.2,4.8,0.7C221.5,109.7,220.7,111.1,220.9,111.9z"/>
	<path d="M194.3,183.7c-0.5-0.9-1-1.9-1.6-2.8c-0.2-0.4-0.5-0.8-0.7-1.2c-0.1-0.2-0.1-0.6-0.2-0.6c-1.4-0.5-0.7-1.6-0.7-2.4
		c0-0.1,0.6-0.4,0.7-0.3c0.4,0.2,0.7,0.6,0.9,0.9c0.5,0.9,0.8,1.9,1.2,2.9c0.2,0.5,0.7,0.8,0.9,1.3c0.5,1,0.8,2.1,1.2,3.1
		c0,0.1,0,0.2,0.1,0.2c2.2,0.9-0.4,1.2-0.2,1.9c-0.2,0-0.5,0.1-0.7,0c-1.1-1-2.2-1.7-3.7-1.9c-0.2,0-0.3-0.3-0.5-0.5
		c-0.2-0.1-0.5-0.4-0.6-0.3c-0.2,0-0.4,0.4-0.4,0.6c0,0.6-0.3,1.3,0.6,1.6c0.1,0,0.2,0.4,0.3,0.6c0.1,0.6-0.1,1.2,0.8,1.4
		c0.1,0,0.1,0.4,0.2,0.6c0.2,0.6,0.4,1.1,0.7,1.8c-0.5,0.5-2,0.6-2.7-0.1c-0.2-0.2-0.5-0.4-0.8-0.5c-0.8-0.3-1.9,0.2-2.3-1
		c0-0.1-0.4-0.1-0.6-0.1c-0.6-0.1-1.1,0.1-1.5-0.7c-0.2-0.3-1.1-0.3-1.6-0.5c-0.3-0.1-0.8-0.4-0.9-0.7c-0.1-0.3,0.3-0.9,0.6-0.9
		c0.4-0.1,0.8,0.2,1.2,0.3c0.1,0,0.2,0.3,0.3,0.3c1.1,0.4,2.3,0.8,3.4,1.2c0.3,0.1,0.7,0.2,1,0.4c0.4,0.1,0.8,0.3,1.2,0.4
		c-0.1-0.6,0-1.2-0.2-1.7c-0.5-1-1.1-1.8-1.6-2.7c-0.3-0.5-0.7-0.9-0.9-1.5c-0.3-0.8,0-1.3,1-1c0.7,0.2,1.6-0.1,2,0.9
		c0,0.1,0.6,0.1,0.9,0.2c0.3,0.1,0.7,0.1,0.8,0.2c0.4,1.2,1.3,0.6,2,0.7C194,183.9,194.1,183.8,194.3,183.7z"/>
	<path d="M38.7,188.4c-0.7-0.3-1.3-1.1-1.8,0.3c-0.2,0.6-1,0.9-1.5,1.4c-0.5,0.4-1.2,0.8-1.3,1.3c-0.3,1.1-1.1,0.5-1.7,0.5
		c0,0-0.3-0.6-0.2-0.7c0.8-0.8,1.6-1.5,2.4-2.2c0.5-0.5,0.9-1.1,1.3-1.7c0.8-1,1.5-2.1,2.3-3c0.3-0.3,1-0.1,1.7-0.2c0,2.8,0,5.4,0,8
		c0,0.4,0,0.8,0,1.2c0,0.3,0.2,0.5,0.4,0.8c0.2-0.2,0.5-0.3,0.7-0.5c0.5-0.5,0.9-1,1.4-1.5c0.5-0.5,1-1,1.6-1.5
		c0.3-0.2,0.6-0.5,1-0.6c0.3-0.1,0.6,0.1,0.9,0.2c-0.2,0.3-0.4,0.5-0.6,0.8c-0.8,0.9-1.6,1.9-2.4,2.8c-0.6,0.7-1.3,1.4-1.9,2.1
		c-0.4,0.5-0.8,1.1-1.2,1.6c-0.2,0.2-0.7,0.3-0.7,0.3c-0.4-0.6-0.9-1.2-1-1.9c-0.1-2-0.1-3.9,0-5.9
		C38.2,189.6,38.5,189.1,38.7,188.4z"/>
	<path d="M22,173c1.6,0,3,0,4.4,0c0.2,0,0.5-0.1,0.6-0.3c0.8-1.1,1.8-0.5,2.7-0.4c0.1,0.1,0.1,0.2,0.2,0.3c-1.1,1.1-2.3,2.3-3.4,3.4
		c-0.9,0.9-1.8,1.8-2.6,2.6c-0.4,0.4-0.7,0.8-1.1,1.1c-0.1,0.1-0.7-0.1-0.7-0.2c0-0.6-0.4-1.2,0.4-1.7c1.2-0.8,2.2-2,3.2-3.1
		c0.1-0.1-0.2-0.7-0.2-0.7c-0.8,0-1.8-0.1-2.3,0.3c-1.2,1-2.5,0.3-3.7,0.6c0,0-0.3-0.6-0.3-0.7c0.9-0.8,1.6-1.7,2-3
		c0.2-0.7,1.1-1.2,1.8-1.9c-0.9-0.2-1.6-1-2.1,0.2c0,0,0,0.1-0.1,0.1c-1.3,0.4-2.6,0.9-3.9,1.3c-0.2,0.1-0.6-0.2-0.8-0.4
		c0.2-0.2,0.3-0.5,0.5-0.7c1.4-1,3.1-1.4,4.6-2.1c0.9-0.5,2.3-0.4,3-1.5c0.2-0.3,1-0.2,1.6-0.2c0.5,1.5-0.7,2.1-1.3,2.9
		c-0.1,0.2-0.4,0.3-0.5,0.5c-0.2,1.2-1,1.9-1.8,2.6C22,172.2,22,172.6,22,173z"/>
	<path d="M123,9c0-0.4,0-0.5,0-0.5c-0.2-2.2,1.1-3.4,2.8-4.6c1-0.7,1.9-0.8,2.9-0.8c0.5,0,0.9,0.4,1.3,0.6c0.2,0.1,0.3,0.2,0.5,0.2
		c2,0.4,3.3,2.1,3.3,4.1c0,0.3-0.1,0.7,0,1c0.4,1.4-0.9,2.3-1.2,3.5c-0.2,0.6-1.3,1.1-2.1,1.2c-1.4,0.2-2.8,0.2-4.2,0
		c-0.8-0.1-1.7-0.6-2.3-1.2C123,11.6,122.8,10.2,123,9z M124.9,8.6c0,1-0.4,2.1,0.9,2.8c1,0.6,1.7,1.7,3,1.5c0.7-0.1,1.6-0.4,1.9-1
		c0.4-0.8,1.7-1.2,1.3-2.4c-0.1-0.2,0.1-0.5,0.1-0.8c0.1-2.3-0.7-4.1-3.5-3.8c-0.5,0.1-1,0-1.4,0c-1.1,0.1-2.2,1.1-2.3,2.2
		C124.9,7.7,124.9,8.1,124.9,8.6z"/>
	<path d="M34.4,47c-0.3,0-0.6-0.1-1,0c-0.9,0.2-1.4-0.6-2.1-0.8c-0.9-0.3-1-1.1-1.5-1.5c-1-0.9-0.9-1.9-0.9-2.9
		c0-0.7-0.3-1.5,0.7-1.9c0.1,0,0.1-0.3,0.2-0.4c0.1-1.2,1.2-1.5,1.8-2.3c1.3-1.6,3.1-1.1,4.6-0.9c0.9,0.1,1.7,1,2.5,1.6
		c1.4,1.2,1.1,2.9,1.3,4.5c0.1,1.3-0.8,1.9-1.5,2.8c-0.5,0.6-1,1.3-1.7,1.6c-0.7,0.3-1.6,0.3-2.4,0.4C34.4,47,34.4,47,34.4,47z
		 M34.8,45.2c0.9-0.1,2,0.3,2.6-1c0.2-0.5,0.7-0.9,1.1-1.3c0.8-0.7,0.7-1.7,0.3-2.4c-0.8-1.3-1.8-2.5-3.2-3.1
		c-0.4-0.2-1.1,0-1.6,0.1c-0.3,0.1-0.6,0.4-1,0.4c-1.1,0-1.6,1-1.9,1.6C29.7,42.4,31.6,45.2,34.8,45.2z"/>
	<path d="M4.9,86.5c1.3-0.8,2.3-1.6,3.5-2.2c1-0.5,2.2-0.7,3.1-1.3c0.7-0.6,1.4-0.9,2.3-1c0.1,0,0.2-0.7,0.1-0.7
		c-0.9-0.4-1.4-1.5-2.6-1.3c-1.1,0.2-2.1-0.2-2.9-0.9C8.2,78.9,8,78.6,8,78.4c0-0.2,0.4-0.5,0.6-0.4c1.2,0.3,2.7-0.3,3.7,0.9
		c0.2,0.2,0.7,0.3,1,0.2c1.6-0.3,2.8,0.8,4.2,1c0.1,0,0.3,0.6,0.2,0.8c-0.2,0.4-0.6,0.8-1,1c-0.9,0.4-1.9,0.7-2.9,1.1
		c-0.3,0.1-0.6,0.4-0.9,0.6c-0.1,0.1-0.1,0.2-0.2,0.3c-1,0.4-2.1,0.8-3.1,1.2c-0.2,0.1-0.4,0.3-0.6,0.4c0.1,0.2,0.3,0.3,0.4,0.5
		c0.6,1.2,1.7,1,2.8,1c0.7,0,1.3-0.1,1.8,0.7c0.1,0.3,0.9,0.2,1.3,0.3c0.2,0.1,0.4,0.3,0.6,0.4c-0.2,0.2-0.3,0.5-0.5,0.5
		c-1.3,0-2.9,0.4-3.9-0.2c-1.3-0.8-2.5-0.5-3.7-0.9C6.8,87.6,6,87,4.9,86.5z"/>
	<path d="M124.8,223.9c-0.5,0-1.1,0-1.8-0.1c0-1.6,0.1-3.2,0-4.8c0-0.7-0.5-1.4-0.6-2.1c-0.2-0.9-0.2-1.8-0.3-2.7
		c1.6-0.8,2.1,0.6,3,1.1c0.2,0.1,0.4,0.4,0.6,0.6c0.7,0.5,1.5,1,2.2,1.6c0.8,0.7,1.6,1.6,2.4,2.3c0.1,0.1,0.7-0.3,0.7-0.4
		c-0.1-1.3,0.5-2.6-0.6-3.8c-0.4-0.5-0.2-1.6-0.3-2.5c0.7,0,1.2,0,2,0c0,1.5-0.1,3,0,4.5c0,0.5,0.5,1.1,0.5,1.6
		c0.2,1.1,0.3,2.3,0.3,3.4c0,0.1-0.4,0.3-0.6,0.3c-0.4,0-0.9-0.1-1.2-0.3c-1-0.8-1.9-1.8-2.9-2.6c-1.1-0.9-2.1-1.8-3.2-2.6
		c-0.2-0.1-0.6,0-0.9,0c0.1,0.9-0.5,2,0.5,2.7c0.1,0.1,0.2,0.3,0.3,0.5C124.9,221.7,124.8,222.8,124.8,223.9z"/>
	<path d="M196.8,59.6c0.4-0.6,0.8-1.1,1-1.6c0.2-0.5,0.2-1,0.2-1.5c0.1-0.9,0-1.8,0.7-2.7c0.6-0.8,0.4-2.2,0.3-3.4
		c-0.1-0.6-0.7-0.6-1.1,0c-0.2,0.2-0.5,0.4-0.8,0.6c-0.7,0.5-1.6,0.9-2.2,1.5c-0.8,0.7-1.5,0.8-2.6,0.1c0.7-0.5,1-1.6,2.2-1.6
		c0.3,0,0.7-0.5,1-0.9c1.1-1.2,2.9-1.3,3.8-2.8c0.2-0.3,1-0.3,1.4-0.2c0.2,0,0.4,0.6,0.3,1c-0.1,1.3,0.1,2.6-0.8,3.7
		c-0.4,0.5-0.2,1.5-0.3,2.2c-0.1,0.7-0.4,1.4-0.6,2.1c-0.1,0.2-0.1,0.6,0,0.8c0.1,0.1,0.6,0.2,0.8,0.1c0.7-0.4,1.3-1,2-1.4
		c0.7-0.5,1.4-0.9,2.1-1.4c0.5-0.3,1-0.6,1.4-0.9c0.7,1.4,0.4,1.9-1,2.7c-1.4,0.8-2.7,1.8-4,2.6C199.7,59.1,198.7,60.6,196.8,59.6z"
		/>
	<path d="M205.1,73.7c0-1.5,0.2-2.8,1.7-3.8c0.7-0.5,1.3-0.7,2-0.9c0.4-0.1,0.7-0.4,1.1-0.6c0.3-0.1,0.7-0.2,1-0.1
		c0.8,0.2,1.6,0.5,2.4,0.9c0.6,0.3,1.3,0.7,1.4,1.2c0.3,1.6,1.7,3,1.1,4.9c-0.1,0.3-0.3,0.5-0.5,0.8c-0.1,0.2-0.3,0.3-0.4,0.5
		c-0.2,1.6-1.2,2.3-2.7,2.4c-0.4,0-0.8,0.4-1.2,0.5c-0.7,0-1.4,0-2.1-0.1c-0.2,0-0.4-0.3-0.6-0.3c-1.4-0.2-2.1-1.1-2.5-2.4
		c-0.3-1-0.7-1.9-1.1-2.9C204.9,73.8,205,73.7,205.1,73.7z M214.1,74.1c-0.3-0.8,0-1.5-0.8-2.4c-1.3-1.5-2.7-1.8-4.4-1.6
		c-0.3,0-0.6,0.1-0.8,0.3c-0.6,0.6-1.1,1.2-1.7,1.8c-0.7,0.7-0.6,2.1,0,2.9c0.2,0.2,0.3,0.4,0.4,0.7c0.4,1.5,1.4,2.2,3,2.2
		c0.9,0,1.6-0.2,2.5-0.9C213.4,76.3,214.3,75.6,214.1,74.1z"/>
	<path d="M185.4,36.3c0.5-0.3,1-0.7,1.6-1c0.2-0.1,0.5-0.2,0.8-0.2c0.6,0,1.1,0,1.7,0c1.6-0.2,2.6,0.7,3.7,1.8
		c0.9,0.8,0.7,2,1.6,2.8c0.7,0.7-0.4,3.6-1.3,4.4c-0.6,0.5-1.1,1.1-1.6,1.6c-0.2,0.2-0.4,0.3-0.7,0.4c-0.6,0.1-1.1,0-1.7,0.1
		c-1.7,0.5-2.9-0.7-4.1-1.4c-0.7-0.4-1.1-1.7-1.3-2.6c-0.2-0.8-0.1-1.8-0.1-2.6c0.1-0.9-0.3-2,0.9-2.4c0.1-0.1,0.1-0.5,0.2-0.8
		C185.2,36.2,185.3,36.3,185.4,36.3z M193.1,40.6c0.3-2.2-1.5-3.9-3.7-3.8c-1.3,0-2.5,0.3-3.2,1.2c-0.5,0.7-1.7,1.4-1.2,2.6
		c0.4,1,0.6,2.2,1.3,2.9c0.6,0.7,1.8,1,2.7,1.3c0.3,0.1,0.7-0.3,1.1-0.4c0.2-0.1,0.3-0.3,0.5-0.4C192.7,43.5,193.1,42.9,193.1,40.6z
		"/>
	<path d="M46.9,36.9c-0.9,0.1-1.5,0.2-2-0.9c-0.5-1.1-1.6-2-2.4-3c-0.5-0.7-1-1.4-1.5-2.1c-0.4-0.5-0.7-1.1-1.2-1.8
		c2.1,0,4-0.4,5.5,0.1c1.2,0.4,2.4,0.8,3.7,0.8c0.3,0,0.7-0.2,1-0.3c-0.2-0.3-0.4-0.5-0.6-0.8c-0.5-0.7-0.9-1.5-1.4-2.2
		c-0.4-0.6-0.8-1.1-1.3-1.7c-0.2-0.2-0.4-0.5-0.6-0.7c0.2-0.1,0.4-0.4,0.5-0.4c0.4,0,1,0,1.3,0.3c0.9,0.9,1.8,1.9,2.6,3
		C51,28,51.4,29,52,29.6c0.7,0.6,1.2,1.2,0.7,2.5c-1-0.2-2-0.5-3-0.7c-0.2-0.1-0.5-0.2-0.7-0.2c-1.7-0.1-3.4-0.2-5.2-0.2
		c-0.3,0-0.5,0.3-0.8,0.4c0.1,0.2,0.2,0.4,0.4,0.6c0.8,1,1.5,2.2,2.5,2.8C47,35.4,46.9,36,46.9,36.9z"/>
	<path d="M77.1,209c1.2,0.2,2.4-0.5,3.4,0.8c0.4,0.5,1.3,0.3,1.9,1c0.9,1,1.5,2,1.6,3.4c0.2,2.1-1,3.4-2.2,4.6
		c-1,1.1-2.4,1.3-3.8,1.1c-0.4-0.1-0.7-0.4-1.1-0.5c-0.6-0.2-1.3-0.3-1.9-0.4c-0.3-0.1-0.6-0.2-1-0.3c0.1-0.3,0.3-0.6,0.4-0.9
		c0.1-0.1,0.2-0.2,0.2-0.3c0.4-1.5,0.8-3,1.3-4.6c0.1-0.4,0.4-0.8,0.5-1.2c0.1-0.4,0.3-0.7,0.4-1.1C77,210.2,77,209.7,77.1,209z
		 M76.7,216c0.2,0.7,0.3,1.8,0.7,1.9c1.1,0.2,2.3,0.3,3.3-0.1c0.7-0.3,1.8-1,1.5-2.3c0-0.1,0.2-0.4,0.4-0.5c0.6-0.3,0.5-0.6,0.1-1
		c-0.2-0.2-0.3-0.4-0.4-0.7c-0.4-1.8-1.5-2.6-3.3-2.5c-0.6,0-0.9,0.3-0.9,0.9c0,0.6,0.1,1.6-0.2,1.8C76.7,214.3,77,215.1,76.7,216z"
		/>
	<path d="M16.8,147.3c0,0.6,0,1.1,0.1,1.7c0.1,0.4,0.3,0.7,0.6,1c0.5,0.5,0.5,2.6-0.1,3.1c-0.5,0.5-0.9,1.2-1.5,1.5
		c-0.6,0.2-1.4,0.1-2.1,0c-0.7-0.1-1.4-0.5-2.1-0.4c-0.3,0-0.6,0.7-0.8,1.2c-0.5,0.8-0.9,1.6-1.4,2.4c-0.8-0.7-0.8-2.2,0-2.9
		c0.2-0.2,0.3-0.5,0.4-0.8c0.2-0.3,0.6-0.6,0.7-1c0.2-0.5,0.1-1.1,0.2-1.6c-0.3,0.1-0.6,0.2-1,0.3c-0.9,0.1-1.7,0.2-2.6,0.3
		c-0.1,0-0.3-0.6-0.2-0.7c0.4-0.4,0.7-1,1.2-1.2c0.7-0.3,1.7,0,2-1c1.5,0.4,2.5-1.1,4-1.1c0.2,0,0.5-0.1,0.7-0.2
		c0.5-0.3,1-0.6,1.5-0.9C16.6,147.1,16.7,147.2,16.8,147.3z M15.7,149.8c-0.8,0.2-1.9,0.2-2.6,0.7c-0.3,0.2-0.2,1.8,0.2,2.1
		c0.6,0.5,1.7,0.5,2.6,0.7c0-0.1,0-0.3,0-0.4c0.3-0.5,0.6-0.9,0.8-1.3C16.4,151,16.1,150.5,15.7,149.8z"/>
	<path d="M165.9,16.1c0,2.1,0.5,4.2-0.1,6c-0.5,1.5-0.7,3-0.8,4.5c0,0.2-0.3,0.4-0.5,0.4c-0.4,0-0.8-0.2-1.1-0.4
		c-0.1,0,0-0.5,0.1-0.7c0.6-1.1,0.5-1.5-0.6-2.1c-0.7-0.4-1.4-1-2.1-1.6c-0.5-0.4-1.4,0-1.9,0.2c-0.8,0.3-1.8,0.3-2.7,0.3
		c0-0.2-0.1-0.5,0-0.5c0.5-0.4,0.9-0.9,1.5-1.1c1.6-0.5,2.5-1.8,3.5-2.9c0.7-0.7,2.1-0.8,2.6-1.6C164.4,15.8,165.1,16.1,165.9,16.1z
		 M163.6,18.3c-0.8,0.6-1.6,1.1-2.4,1.7c-0.2,0.1-0.3,0.7-0.2,0.7c0.6,0.4,0.8,1.5,1.8,1.3c0.4-0.1,0.9,0,1.1-0.2
		C164.4,21.4,164,18.9,163.6,18.3z"/>
	<path d="M207.1,149.9c-0.2-2,1.8-3.6,3.6-2.7c0.6,0.3,1.1,1,1.3,1.6c0.3,1.2,1,1.5,2,1.3c0.9-0.1,1.9,0.2,2.5-0.9
		c0.1-0.2,0.8-0.1,1.6-0.2c-0.7,0.9-0.8,1.8-1.9,2c-1.2,0.2-2.4,0.7-3.6,1.1c-0.1,0.1-0.3,0.7-0.2,0.7c1.1,0.5,2.2,1,3.6,1.5
		c-0.3,0.4-0.7,0.9-1.2,1.4c0,0-0.5-0.3-0.8-0.5c-0.2-0.1-0.3-0.2-0.5-0.2c-0.8-0.1-1.6,0.1-2-0.8c-1.6,0.3-2.7-1.2-4.2-1.2
		c-0.7,0-1.4-0.2-1.3-1.2C206.1,151,205.7,150,207.1,149.9c-0.2,1.1,0.7,1.8,1.4,2c2.2,0.7,2.8,0.1,2.5-2.1c0-0.2-0.1-0.5-0.2-0.8
		c-0.9,0-1.8,0-2.7,0c0,0.1,0.1,0.2,0.1,0.3C207.9,149.5,207.5,149.7,207.1,149.9z"/>
	<path d="M53.9,196.2c0,1.5,0.5,3.3-0.1,4.3c-1,1.6-0.5,3.2-0.9,4.7c-0.2,0.9-0.8,1.7-1.6,2.6c-0.1-0.7-0.4-1.4-0.2-2
		c0.4-1.4-0.5-2.1-1.3-2.8c-0.6-0.6-1.6-0.9-2.5-1.1c-0.5-0.1-1.2,0.3-1.8,0.5c0,0.1,0,0.2,0.1,0.3c-0.4-0.3-0.9-0.5-1.3-0.9
		c-0.1-0.1-0.2-0.4-0.2-0.5c0-0.1,0.3-0.3,0.4-0.3c1.4-0.1,2.2-1.4,3.4-1.8c1-0.3,1.4-1.6,2.6-1.5c0.5,0,1-0.7,1.5-1
		c0.5-0.3,1-0.6,1.5-1C53.6,196,53.8,196.1,53.9,196.2z M52.1,201.9c0-0.6,0-1.2,0-1.8c0-1.3-0.4-1.6-1.5-1c-0.5,0.3-1,0.5-1.4,0.9
		c-0.2,0.2-0.1,0.7,0,0.9C49.8,201.9,50.7,202.4,52.1,201.9z"/>
	<path d="M86.9,15.9c-0.6,0-1.1,0-1.7,0c0-0.4-0.1-1,0.1-1.3c0.9-1.1,0.7-2.4,0.8-3.6c0.1-0.8,0.1-1.5,0.7-2.2
		c0.4-0.4,0.2-1.4,0.3-2.2c0-0.5,0-1,0-1.5c0.6,0,1.1,0,1.7,0c0.4,0.5,0.7,1.3,1.2,1.7c1.3,0.9,1.2,2.7,2.7,3.4
		c0.6,0.3,0.9,1.4,1.3,2.2c0.1,0.2,0.2,0.3,0.3,0.5c0.2,0.3,0.4,0.6,0.5,0.9c-0.6,0-1.3,0.2-1.7-0.1c-0.6-0.4-1.1-1.1-1.3-1.4
		c-1,0.3-1.8,0.6-2.5,0.6c-2.2,0.2-2.2,0.2-2.3,2.4C86.9,15.5,86.9,15.7,86.9,15.9z M88,12c0.4,0,0.6,0,0.8,0.1
		c1.1,0.2,1.5-0.7,2.2-1.2c-0.3-0.3-0.6-0.6-0.9-1c0-0.1,0-0.2-0.1-0.2c-0.4-0.5-0.8-1.1-1.3-1.5c0,0-0.7,0.3-0.7,0.5
		C88,9.7,88,10.8,88,12z"/>
	<path d="M179.8,201.6c-0.5,0.5-1,1-1.7,1.6c-0.3-1.4,0.2-2.6-1-3.4c-0.2-0.1-0.1-0.8-0.1-1.2c-0.1-0.7,0.2-1.4-0.8-1.8
		c-0.2-0.1-0.1-0.8-0.2-1.2c-0.2-0.9-0.6-1.7-0.8-2.6c-0.1-0.3,0.1-0.8,0.1-0.8c0.9,0,1.8,0,2.6,0.2c0.4,0.1,0.8,0.5,1.2,0.8
		c1,0.6,1.9,1.2,2.9,1.7c0.2,0.1,0.5,0.2,0.8,0.2c0.5,0.1,1.1-0.1,1.3,0.8c0,0.2,0.8,0.2,1.2,0.3c0.2,0.1,0.4,0.3,0.6,0.4
		c-0.1,0.2-0.3,0.3-0.4,0.5c-0.2,0.2-0.4,0.3-0.5,0.5c-0.3,0.7-0.6,0.7-0.9,0c-0.3-0.5-1.8-0.8-2-0.4c-0.6,1.1-1.8,1.3-2.7,2
		c-0.5,0.4-0.5,1.6,0.1,2c0.1,0.1,0.2,0.1,0.3,0.2C179.8,201.3,179.8,201.4,179.8,201.6z M177.9,195.8c0,0.5,0,1,0.1,1.4
		c0.1,0.2,0.3,0.6,0.5,0.6c0.4,0.1,0.9,0.1,1.3-0.1c0.2-0.1,0.3-0.7,0.4-0.7c0.6-0.1,0.9-0.2,0.8-0.9c-0.1-0.6-0.3-1.1-1.1-1.2
		c-0.4,0-0.7-0.4-1.1-0.7c-0.2-0.1-0.4-0.3-0.6-0.2c-0.2,0.1-0.3,0.3-0.4,0.5C177.9,195,177.9,195.4,177.9,195.8z"/>
	<path d="M59,25.4c-0.2,2-0.2,2-1.6,3.7c-0.1-0.6-0.3-1-0.3-1.4c-0.1-2.3-0.1-4.6-0.2-6.9c0-0.6-0.2-1.2-0.5-1.6
		c-0.9-1.1,0.6-1.3,0.8-2c0.2-0.4,0.6,0.1,0.9,0.6c0.3,0.5,1.1,0.8,1.6,1.2c1.1,0.9,2.3,1.8,3.4,2.6c0.2,0.1,0.3,0.3,0.5,0.4
		c0.7,0.4,1.4,0.7,2.1,1.2c0.1,0.1-0.1,0.9-0.2,0.9c-0.6,0.2-1.2,0.4-1.7-0.5c-0.2-0.3-1.3-0.6-1.8-0.3C61,23.8,60.1,24.6,59,25.4z
		 M61.1,23.2c-0.1-0.9,0.1-1.7-0.2-2c-0.7-0.7-1.7-1.3-2.8-2.1c0,1.4-0.3,2.7,0.1,3.7C58.4,23.1,59.9,23,61.1,23.2z"/>
	<path d="M113,4.2c-0.2,1,0.1,1.5,1.2,2c1.2,0.6,2.7,0.9,3.5,2.2c0.4,0.6,0.2,2.1-0.4,2.6c-0.5,0.4-1,0.9-1.4,1.4
		c-0.8,0.9-3,0.7-4,0c-0.7-0.5-1.1-0.9-0.8-1.7c0.1-0.2,0.6-0.4,0.7-0.3c0.5,0.4,0.9,1.1,1.4,1.4c0.4,0.2,1.1,0.1,1.5-0.1
		c0.8-0.5,2-1.2,1.1-2.3c-0.5-0.6-1-1.5-2.2-1.4c-0.5,0-1.1-0.5-1.5-1c-0.7-0.7-1.2-1.5-1.1-2.7c0.1-1,0.9-1.3,1.4-1.9
		c0.6-0.7,3.5-0.1,4.2,0.6c0.2,0.2,0.2,0.7,0.3,1c-0.3-0.1-0.8,0-1-0.2c-0.7-0.6-1.3-1.1-1.9,0.1C113.7,4,113.3,4,113,4.2z"/>
	<path d="M144.7,215.1c0.4,0.7,0.8,1.3,1,2c0.1,0.2,0,0.6-0.1,0.9c-0.3,0.6-0.6,1.2-0.8,1.5c-0.8,0.5-1.4,0.9-2,1.3
		c-0.5,0.3-2.3,0-2.7-0.5c-0.1-0.2-0.4-0.2-0.6-0.4c-0.1-0.1-0.3-0.4-0.3-0.5c0-0.2,0.3-0.3,0.5-0.3c1,0,1.9,0.1,2.9,0
		c0.5-0.1,1.1-0.5,1.3-0.9c0.3-0.5-0.2-0.9-0.5-1.4c-0.8-1.3-1.9-0.7-2.8-0.8c-1.7-0.1-2.6-0.9-2.6-2.6c0-0.5,0-1.1,0.1-1.5
		c0.1-0.3,0.4-0.5,0.6-0.7c0.4-0.3,0.9-0.7,1.3-0.8c0.9-0.2,1.8-0.2,2.9-0.3c-0.1,0.7-0.1,1.2-0.1,1.8c-0.6-0.3-0.9-0.6-1.3-0.7
		c-1.1-0.3-1.7,0.7-2.3,1.3c-0.4,0.5,0.1,1.5,0.9,1.6c0.5,0.1,1.1,0,1.5,0.1c0.5,0.1,0.9,0.4,1.4,0.6
		C143.6,214.9,144.2,215,144.7,215.1z"/>
	<path d="M5.2,141.8c0.4,0.8,1,1.9,1.6,3c-0.5,0.1-1.1,0.1-1.3,0.2c-1.8-1.1-1.4-2.7-1.5-4.2c-0.1-1.3,0.6-2.1,1.4-2.9
		c0.6-0.6,1.2-1.1,1.8-1.6c0.2-0.2,0.5-0.2,0.8-0.2c0.7,0,1.4,0,2.2,0c1.6,0,3.4,1.4,3.8,3c0.1,0.3,0.5,0.6,0.5,0.9
		c0.2,0.8,0.3,1.7,0.2,2.6c0,0.2-0.9,0.4-1.6,0.7c0-1.3,0.2-2.3-0.1-3.1c-0.2-0.8-0.9-1.8-1.6-1.9c-1.1-0.3-2.5-0.3-3.7,0
		c-0.7,0.2-1.3,1.1-1.8,1.8C5.6,140.4,5.5,141,5.2,141.8z"/>
	<path d="M211.3,161.1c0.6,0,1,0,1.9,0c-0.9,1.7-1.6,3.3-2.4,4.8c-1.6,0.6-2.6-0.5-3.8-1.1c-0.9-0.5-1.7-1.1-2.6-1.6
		c-1-0.5-2-0.9-2.9-1.3c-0.1-0.1-0.1-0.5,0-0.8c0.2-0.4,0.4-0.7,0.6-1c0.2-0.3,0.5-0.6,0.6-1c0.2-0.6,0.4-1.1,0.6-1.9
		c0.4,0,0.9,0,1.3,0.1c-0.2,0.8-0.4,1.4-0.6,2.1c0,0.2,0,0.4-0.1,0.5c-0.4,0.3-1.2,0.4-0.7,1c0.5,0.6,1.1,1.6,2.3,1.2
		c0.3-0.1,0.5-0.3,0.7-0.5c0.4-0.7,0.7-1.4,1.1-2.2c0.1-0.1,0.4-0.3,0.5-0.2c0.2,0.1,0.4,0.3,0.4,0.4c0,0.6,0.2,1.2-0.6,1.6
		c-0.7,0.4-0.5,1.5,0.2,2c0.3,0.2,0.6,0.6,1,0.8c1.1,0.3,2.3-0.5,2.5-1.6C211.1,162,211.2,161.6,211.3,161.1z"/>
	<path d="M16,71c-1.1,0.4-1.3-0.8-2-1.2c-0.7-0.4-1.3-1.2-1.8-2c-0.1-0.1,0.1-0.7,0.3-0.8c0.3-0.2,0.7-0.1,1.1-0.1
		c2.8,0,5.6,0,8.4,0.1c0.4,0,0.7,0.3,1,0.5c-0.3,0.2-0.7,0.5-1,0.5c-1.2,0-1.9,0.1-2.2,1.6c-0.2,0.8-0.9,1.6-0.8,2.6
		c0,0.3,0,0.6,0.2,0.8c1,1.4,1,1.4,0.6,3.1c-0.4-0.4-0.8-0.8-1.1-1.2c-0.8-0.8-1.6-1.6-2.3-2.5C15.9,72.1,16,71.5,16,71
		c0.6,0,1.3,0,1.6,0c0.5-0.9,0.9-1.4,1.2-2.1c0.1-0.2-0.2-0.8-0.3-0.8c-1-0.1-2-0.1-3.1-0.1c-0.2,0-0.5,0.2-0.5,0.4
		c0,0.2,0.1,0.7,0.2,0.7C16.3,69.4,16,70.2,16,71z"/>
	<path d="M155,210c-0.3,1.2-1,1.8-1.9,1.8c-1.5,0-1.3,0.9-1.3,1.8c0,1.1,0.5,1.5,1.5,1.4c1-0.1,1.9-0.1,2.9-0.1
		c0.2,0,0.4,0.2,0.5,0.4c0,0-0.2,0.4-0.3,0.4c-1.4,0.4-2.8,0.8-4.2,1.2c-0.8,0.2-1.2,0-1.2-0.9c0-0.4-0.4-0.8-0.7-1.2
		c-0.1-0.1-0.2-0.2-0.2-0.3c-0.4-1.3-0.8-2.7-1.2-4c-0.1-0.3-0.3-0.6-0.5-0.8c-0.6-0.6-0.4-1.2,0.1-1.9c0.7-0.9,1.5-0.8,2.4-1
		c0.3,0,0.5-0.2,0.7-0.4c0.4-0.2,0.7-0.3,1.1-0.5c0.1,0.2,0.3,0.5,0.2,0.6c-0.2,0.4-0.5,0.9-0.9,1.2c-0.3,0.2-0.8,0-1.2,0.2
		c-0.4,0.1-0.9,0.4-0.9,0.6c0,0.4,0.2,0.9,0.4,1.3c0.5,1,1.2,1.5,2.3,0.9c0.3-0.2,0.6-0.6,0.9-0.8C154,210,154.4,210.1,155,210z"/>
	<path d="M90.4,212.2c1.7,1.4,3.6,0.6,5.4,1c0.2,0.6,0.1,0.9-0.6,0.9c-1,0-2.1,0-3.3,0c0.1,1-0.2,2.2,0.3,2.7
		c0.5,0.5,1.8,0.3,2.8,0.4c0,0.3,0,0.6,0,1c0,0.6-0.3,0.7-0.9,0.4c-0.8-0.3-1.8-0.8-2.5-0.5c-1.2,0.4-0.5,1.7-0.7,2.6
		c-0.1,0.5-0.1,1.3,0.9,1.3c0.7,0,1.4,0.1,2.1,0.1c0.3,0.8,0.1,1.1-0.7,1c-1.1-0.1-2.2-0.2-3.3-0.2c-0.6,0-0.9-0.2-0.8-0.9
		c0-1.3,0.1-2.6,0.1-3.9c0-0.1,0-0.3,0-0.3c1.4-1.3,0.8-3,1-4.6C90.1,212.9,90.3,212.6,90.4,212.2z"/>
	<path d="M219.6,137.1c0.5,0.8,0.8,1.4,1.2,2.1c0.1,0.1,0.2,0.4,0.1,0.4c-0.9,1-0.8,2.6-2,3.3c-0.4,0.2-1,0.1-1.5,0
		c-0.1,0-0.2-0.5-0.1-0.7c0.3-0.4,0.7-0.8,1.2-1.1c0.9-0.7,0.8-1.4,0-2.3c-0.5-0.5-0.8-1.2-1.6-0.8c-0.6,0.3-1.2,0.7-1.7,1.1
		c-0.9,0.9-1.6,1.9-2.3,2.7c-0.9-0.4-1.6-0.7-2.3-1c0,0-0.1,0-0.1,0c-0.6-0.4-0.6-4.3,0-4.7c0.4-0.3,0.7-0.6,1.3-1.1
		c0,0.8,0.7,1.4-0.4,2.2c-0.5,0.3-0.6,1.4,0.1,2.1c0.6,0.6,1,1.4,1.8,0.1c0.5-0.8,1.1-1.5,1.8-2.1c0.5-0.5,1.2-1,1.8-1.1
		c0.7-0.2,1.6-0.3,2.1,0.6C219,137,219.6,137.1,219.6,137.1z"/>
	<path d="M145.9,16.4c-0.4,0.5-0.8,1.3-1.3,1.5c-0.5,0.2-1.4,0.5-1.8-0.5c0-0.1-0.3-0.3-0.5-0.3c-1.7,0-2.6-1.4-3.1-2.4
		c-0.5-1.1-0.4-2.8,0-4.1c0.3-1,1.4-1.7,2.1-2.5c1.2-1.3,2.7-1,4.2-0.9c0.8,0.1,1.5,0.6,2.3,1c0,0.5,0,1.1,0,1.8
		c-0.3,0-0.6,0-0.8-0.1c-0.3-0.2-0.5-0.8-0.8-0.8c-1.3-0.1-2.7-0.2-4,0.1c-0.4,0.1-1.5,0.8-1.5,1.8c0,0.5-0.3,1-0.5,1.6
		c0.2,0.5,0.2,1.3,0.6,1.9c0.5,0.7,0.8,1.6,1.9,1.6c0.9,0,1.8,0,2.7,0C145.7,16.2,145.8,16.3,145.9,16.4z"/>
	<path d="M101,4c-0.3,2.2,0.3,2.9,2.3,3.1c2,0.2,3,1.3,2.6,3.3c-0.1,0.6-0.7,1.1-1.1,1.5c-1.2,1.4-2.8,1.2-4.3,0.9
		c-0.6-0.1-1-1-1.4-1.6c0.8-0.1,1.6-0.5,2.1,0.5c0.2,0.3,1.5,0.3,2.2,0.1c0.4-0.1,0.6-0.9,0.7-1.4c0.1-0.5,0.1-1-0.6-1.5
		c-1-0.6-1.9-0.8-2.9-1c-1.6-0.4-1.7-2.5-0.7-3.9c1.4-1.9,3.2-0.5,4.7-0.8c0.1,0,0.3,0.3,0.4,0.5c-0.2,0.1-0.4,0.4-0.6,0.4
		C103.2,4,102.1,4,101,4z"/>
	<path d="M220.5,88.8c-0.2,0-0.7,0.1-1.2,0.2c-1.1-3.3-1.9-3.8-4.2-2.5c1.1,0.7,0.7,1.9,0.8,2.9c0,0.2-0.3,0.4-0.4,0.5
		c-0.2-0.2-0.4-0.3-0.5-0.5c-0.4-0.8-0.6-1.6-1-2.3c-0.1-0.2-0.6-0.2-0.9-0.2c-1.1,0-2.2,0.1-3.4,0.1c-0.2,0-0.5-0.3-0.7-0.4
		c0.2-0.2,0.4-0.5,0.7-0.6c1.5-0.7,3.2-0.7,4.7-1.2c1-0.3,1.9-0.8,3.1-0.8c1.8,0,2.4,0.6,2.5,2.4C220,87.1,220.3,87.8,220.5,88.8z"
		/>
	<path d="M100.9,214.1c1.7,0,3.1,0,4.6,0c0.2,0,0.5,0.3,0.4,0.4c-0.1,0.2-0.3,0.5-0.4,0.5c-0.2,0.1-0.6,0.1-0.8,0
		c-1.4-0.4-1.9,0.6-2.4,1.5c-0.2,0.3,0.1,1.1,0.4,1.3c0.8,0.5,1.7,0.6,2.5,1c0.3,0.1,0.5,0.5,0.8,0.8c-0.1,0.1-0.1,0.2-0.2,0.3
		c-1,0-1.9,0-2.9,0c-0.9,0-1.1,0.3-1.1,1.1c0,0.5,0,1,0,1.6c0,1.6-0.1,1.7-1.9,1.2c0.3-1-0.5-2.2,0.7-3.1c0.2-0.2,0.2-0.8,0.2-1.1
		C100.9,217.8,100.9,216,100.9,214.1z"/>
	<path d="M19.9,53.2c-0.1,0.8-0.2,1.6-0.4,2.7c0.4,0.3,0.7,1.3,2,1.4c0.8,0.1,1.5,1,2.3,1.5c0.8,0.5,1.6,0.9,2.4,1.3
		c0.2,0.1,0.6,0.2,0.6,0.4c0,0.2-0.2,0.5-0.4,0.6c-0.8,0.7-1.5,0.6-2.6-0.4c-0.1-0.1-0.1-0.3-0.3-0.4c-1-0.5-2.1-0.9-3.1-1.4
		c-0.1,0-0.2,0-0.3-0.1c-1.3-0.9-1.3-0.9-2.6,0c-0.3,0.2-0.9,0.1-1.4,0.1c-0.1,0-0.3-0.5-0.2-0.5c1.2-0.9,1.2-2.6,2.4-3.5
		c0.5-0.4,0.6-1.2,0.9-1.8C19.6,53.1,19.7,53.1,19.9,53.2z"/>
	<path d="M196.8,172c0.2,0,0.5,0,0.7,0c0.5-0.1,1.5-0.3,1.5-0.4c0-0.8-0.1-1.7-0.4-2.3c-0.4-0.7-0.8-2.2-0.4-2.9
		c0.1-0.1,0.3-0.3,0.4-0.2c0.2,0,0.4,0.2,0.4,0.3c0.4,1,0.6,2.1,1.1,2.9c0.8,1.1,1,2.6,2.1,3.5c0.1,0.1,0.3,0.2,0.4,0.1
		c1.2-0.3,1.4,1.1,2.3,1.3c0.1,0,0,0.9,0,1.4c-0.3-0.1-0.6-0.2-0.9-0.3c-0.2-0.1-0.3-0.3-0.5-0.3c-1.2-0.2-1.8-1.1-2.5-1.8
		c-0.3-0.2-0.7-0.3-1.1-0.3c-1.6,0-3.2,0-4.8-0.1c-0.3,0-0.6-0.3-0.8-0.4c0.3-0.2,0.5-0.5,0.8-0.5C195.5,172,196.1,172.1,196.8,172
		C196.8,172,196.8,172,196.8,172z"/>
	<path d="M178.8,25c-0.8-0.1-1.5-0.2-2.3-0.3c0-0.1,0-0.3-0.1-0.4c-1.6,1-2.9,2.3-3.6,4.2c-0.2,0.7-1.4,1-1.6,1.7
		c-0.5,1.3-1.2,0.7-1.9,0.4c0.4-1.2,1.5-1.9,1.9-3.1c0.3-1,1.3-1.8,2.1-2.6c1-0.9,1-2.2-0.1-3c-0.2-0.1-0.3-0.4-0.3-0.6
		c0.1-0.2,0.4-0.4,0.6-0.4c1.1-0.1,1.6,1,2.4,1.5c0.2,0.1,0.3,0.4,0.5,0.4c1.3-0.2,1.6,1.1,2.5,1.5C178.9,24.6,178.8,24.8,178.8,25z
		"/>
	<path d="M71.3,19.5c1.1-0.2,2-0.4,3-0.5c0.2,0,0.4,0.3,0.7,0.5c-0.2,0.2-0.4,0.4-0.6,0.4c-1.1,0.4-2.2,0.8-3.3,1.2
		c-0.2,0.1-0.3,0.5-0.5,0.7c-0.1,0-0.3,0-0.3-0.1c-0.5-1.3-0.8-2.6-1.4-3.8c-0.5-1.1-1.1-2-1.6-3c-0.1-0.3-0.1-0.6-0.2-0.9
		c-0.1-0.3-0.2-0.7-0.3-1c-0.1-0.3-0.4-0.5-0.6-0.7c0.3-0.1,0.6-0.3,0.8-0.3c0.3,0,0.8,0.1,1,0.4c0.5,0.7,0.8,1.8,1.2,2.2
		c0.8,0.9,0.7,1.9,1,2.8C70.4,18.3,71,19,71.3,19.5z"/>
	<path d="M63.2,202.4c-0.6,0.9-1.2,1.9-1.7,2.8c-0.6,1-1,2.1-1.6,3.1c0,0.1,0,0.2,0,0.4c-0.2,0.4-1.8,0.5-0.3,1.4
		c0.5,0.3,0.9,0.9,1.6,1.1c0.4,0.1,0.5,0.9,0.8,1.4c-0.1,0.1-0.2,0.1-0.3,0.2c-0.9-0.4-1.8-0.8-2.6-1.2c-0.5-0.2-0.9-0.5-1.3-0.7
		c-0.2-0.1-0.5-0.2-0.5-0.3c0-0.2,0.1-0.5,0.3-0.7c0.2-0.4,0.4-0.9,0.7-1.2c0.8-0.8,0.6-2.2,1.7-2.8c0.1,0,0.1-0.1,0.2-0.2
		c0.4-1,1-1.9,1.3-3c0.3-1.1,1-0.7,1.7-0.7C62.9,202.2,63.1,202.3,63.2,202.4z"/>
	<path d="M183.8,28.2c0.8,1.4-0.7,1.9-1.2,2.6c-0.6,1-1.8,1.6-2.5,2.5c-0.9,1.1-1.6,2.3-2.4,3.5c-0.5-0.4-1-0.7-1.4-1
		c-0.1-0.1-0.1-0.4-0.1-0.5c0.5-0.4,1-0.8,1.5-1.2c0.4-0.4,0.9-0.7,1.2-1.2c0.8-1.2,1.5-2.5,2.4-3.5
		C181.9,28.7,182.5,27.5,183.8,28.2z"/>
	<path d="M170.5,208.2c-0.3-0.4-0.6-0.7-0.9-1c-0.7-0.8-1.6-1.5-1.8-2.8c-0.1-0.5-0.6-1.3-1.1-1.4c-0.8-0.3-0.6-0.8-0.8-1.3
		c-0.1-0.3-0.4-0.5-0.5-0.8c-0.2-0.5-0.3-1.1-0.4-1.7c0.2,0,0.6-0.2,0.7-0.1c0.4,0.3,1,0.7,1,1.1c0.1,1.4,1,2.1,1.9,2.9
		c0.6,0.5,0.8,1.5,1.1,2.2c0.4,0.7,1.6,0.8,2.1,0.3c0.3-0.3,0.8-0.5,1.2-0.7c0.2-0.1,0.5,0.2,0.7,0.3c-0.1,0.2-0.3,0.5-0.5,0.7
		c-0.5,0.5-1.1,1.1-1.6,1.5C171.5,207.8,171.1,207.9,170.5,208.2z"/>
	<path d="M27.1,185.9c0-0.6,0-1.1,0-1.5c2.5-2.1,5-4.1,7.4-6.1c0.8,0.9,0.6,1.8-0.8,2.8c-1,0.8-2,1.7-2.9,2.7
		C30.1,184.6,28,185.9,27.1,185.9z"/>
	<path d="M22.3,48.5c0,0,0.2-0.2,0.2-0.2c0.8,0.1,0.1-1.8,1.3-1c0.5,0.3,0.8,1,1.3,1.4c0.7,0.5,1.5,0.9,2.2,1.4
		c0.4,0.3,0.8,0.7,1.2,1c1.1,0.8,2.2,1.5,3.3,2.3c-1,0.9-2,0.7-2.9-0.1c-1-0.9-2.2-1.5-3.3-2.3c-0.5-0.4-1-0.7-1.5-1.1
		C23.6,49.4,22.9,49,22.3,48.5z"/>
	<path d="M13.3,164.1c-0.4-0.2-0.8-0.3-1.2-0.5c0.2-0.2,0.6-0.4,0.7-0.7c0.3-0.9,1.4-0.7,1.6-1c0.6-1.1,2.3-0.4,2.7-1.7
		c0,0,0.1-0.1,0.1-0.1c1.3-0.4,2.6-0.8,3.9-1.1c0.2-0.1,0.6,0.2,0.9,0.4c-0.2,0.2-0.5,0.4-0.6,0.7c-0.4,1.3-2.3,0.4-2.7,1.8
		c0,0.1-0.5,0-0.8,0.1c-0.4,0.1-0.7,0.4-1,0.6c-0.1,0-0.1,0.2-0.1,0.2C15.6,163.2,14.5,163.6,13.3,164.1z"/>
	<path d="M154.4,10.3c0.5,0.3,0.9,0.6,1.3,0.9c0.1,0.1,0,0.6,0,0.7c-0.9,0.1-0.6,0.8-0.7,1.3c-0.1,0.3-0.3,0.6-0.5,0.9
		c-0.1,0.1-0.3,0.1-0.3,0.2c0,0.9-0.5,1.6-0.9,2.4c-0.5,0.8-0.6,1.8-1.1,2.7c-0.8,1.5-1.3,0.3-1.7,0.4
		C151.7,16.5,153.1,13.3,154.4,10.3z"/>
	<path d="M135.4,127.7c0.3-0.8,0.5-1.4,0.7-2c0.1-0.3,0.2-0.5,0.4-0.8c0.2-0.3,0.4-0.6,0.5-0.9c0.2-0.9,0.1-1.6,0.8-2.5
		c0.8-1.1,0.9-2.7,1.3-4.1c0.2-0.5,0.5-0.9,0.7-1.4c0.1-0.3,0.2-0.7,0.3-1c0.1-0.8-0.1-1.6,0.9-2c0.1-0.1,0.1-0.5,0.2-0.8
		c0.2-0.4,0.4-0.8,0.6-1.2c0.1-0.1,0.2-0.2,0.2-0.3c-0.4-1.7,1.2-2.9,1.1-4.5c0-0.4,0.4-0.8,0.6-1.1c0.1-0.1,0.2-0.1,0.3-0.2
		c0.4-1.2,0.8-2.3,1.2-3.5c0.4-1.3,0.4-2.9,1.2-3.9c0.7-1,0.4-2.4,1-2.8c1.5-1,0.1-3.1,1.7-3.8c0.1-0.1,0-0.5,0.1-0.8
		c0.2-0.4,0.4-0.8,0.6-1.2c0.1-0.2,0.2-0.4,0.3-0.6c0.3-0.9,0.2-1.8,0.9-2.8c0.8-1.2,0.9-2.9,1.3-4.3c0.1-0.3,0.3-0.6,0.5-1
		c0.1-0.3,0.4-0.6,0.4-0.8c-0.2-1.2,0.6-2.1,1.1-3c0.1-0.1,0.4-0.3,0.5-0.2c0.2,0.1,0.3,0.3,0.4,0.5c0.4,1.4,0.3,3.2,1.2,4.1
		c1.1,1.1,0.2,2.9,1.6,3.7c0.2,0.1,0,0.9,0.2,1.3c0.2,0.5,0.5,1,0.7,1.5c0.1,0.3,0.3,0.6,0.3,1c0.1,0.7-0.1,1.6,0.9,2
		c0.1,0,0.1,0.4,0.1,0.7c0,0.6-0.1,1.3,0.7,1.6c0.2,0.1,0.2,0.6,0.2,1c0.1,0.7-0.3,1.6,0.8,1.9c0.1,0,0.1,0.4,0.2,0.5
		c0.2,0.9-0.2,2,0.9,2.5c0.1,0.1,0,0.5,0.1,0.7c0.3,0.7,0.6,1.5,0.8,2.2c0.1,0.3,0,0.6,0.1,0.8c0.2,0.5,0.5,0.9,0.7,1.4
		c0.2,0.4,0.3,0.7,0.4,1.1c0.1,0.7-0.1,1.5,0.9,1.8c0.1,0,0.1,0.5,0.2,0.8c0.1,0.8-0.2,1.7,0.8,2.2c0.2,0.1,0.1,0.7,0.2,1.1
		c0.1,0.7-0.2,1.5,0.8,1.8c0.1,0,0.1,0.2,0.1,0.3c0,0.8,0.4,1.5,0.8,2.2c0.7,1.2,0.8,2.7,1.2,4c0.2,0.5,0.5,1,0.7,1.5
		c0.2,0.4,0.2,0.8,0.3,1.2c0.1,0.7-0.2,1.5,0.8,1.8c0.1,0,0.2,0.3,0.2,0.5c0.1,0.9-0.2,1.9,0.9,2.6c0.3,0.2,0.1,1,0.2,1.6
		C171.6,128.3,136.1,128.1,135.4,127.7z"/>
	<path d="M52.9,128c0.2-0.9-0.4-1.8,0.8-2.2c0.1,0,0.1-0.1,0.1-0.2c0.4-1.5,0.8-2.9,1.3-4.4c0.4-1.2,1-2.3,1.4-3.4
		c0.1-0.3,0.3-0.6,0.4-0.9c0.2-0.8-0.2-1.9,0.9-2.3c-0.4-1.6,1.1-2.8,1.1-4.3c0-0.4,0.4-0.8,0.6-1.2c0.1-0.1,0.2-0.2,0.2-0.3
		c0.4-1.4,0.5-2.9,1.3-4.1c0.8-1.2,0.3-2.9,1.6-3.9c0.2-0.2,0.2-0.7,0.2-1.1c0.1-0.7-0.2-1.4,0.8-1.8c0.2-0.1,0.2-0.7,0.2-1.1
		c0.1-0.7-0.2-1.5,0.8-1.8c0.1,0,0.1-0.1,0.1-0.2c-0.1-1,0.5-1.8,0.9-2.6c0.4-0.8,0.4-1.7,0.9-2.6c0.8-1.2,0.9-2.8,1.3-4.3
		c0.1-0.4,0.4-0.8,0.6-1.2c0.1-0.1,0.2-0.2,0.2-0.3c0.1-0.9,0.5-1.6,0.9-2.4c0.7-1.4,0.8-3,1.2-4.6c0.1-0.3,0.2-0.5,0.4-0.8
		c0.2,0.2,0.4,0.4,0.6,0.6c1.1,0.6,0.5,2.1,1.1,2.6c1.2,1.2,0.1,3.1,1.7,4c0.2,0.1,0,0.7,0.2,1c0.2,0.6,0.5,1.1,0.7,1.6
		c0,0,0.1,0,0.1,0.1c-0.1,1.2,0.8,2.1,1.1,3.1c0.2,0.8-0.2,1.8,0.9,2.2c0.2,0.1,0.1,0.7,0.1,1c0.1,0.7-0.2,1.5,0.8,1.8
		c0.1,0,0.1,0.2,0.1,0.3c0.4,1.3,0.4,3,1.2,4c0.9,1.2,0.4,2.9,1.8,3.9c0.2,0.1,0.1,0.7,0.2,1.1c0.1,0.7-0.2,1.5,0.8,1.8
		c0.1,0,0.1,0.3,0.2,0.5c0.1,0.9-0.2,1.9,0.9,2.5c0.2,0.1,0,0.6,0.1,0.9c0.1,0.4,0.3,0.7,0.5,1.1c0.1,0.1,0.2,0.2,0.3,0.4
		c0.4,1.4,0.7,2.8,1.2,4.2c0.1,0.5,0.4,0.9,0.6,1.3c0.1,0.3,0.3,0.6,0.4,0.9c0.2,0.8-0.2,1.8,0.9,2.2c0.1,0,0.1,0.4,0.1,0.7
		c0.1,0.8-0.2,1.7,0.8,2.2c0.1,0.1,0.1,0.4,0.1,0.7c0.1,0.6-0.2,1.3,0.7,1.6c0.2,0.1,0.2,0.7,0.3,1.1c0.1,0.7-0.2,1.5,0.8,1.8
		c-0.1,0.3-0.1,0.7-0.3,0.8c-0.2,0.2-0.6,0.1-0.9,0.1c-11.7,0-23.4,0-35,0C54,128,53.5,128,52.9,128z"/>
</g>
</svg>
