<?xml version="1.0" encoding="utf-8"?>
<!-- Generator: Adobe Illustrator 21.0.0, SVG Export Plug-In . SVG Version: 6.00 Build 0)  -->
<svg version="1.1" id="Layer_1" xmlns="http://www.w3.org/2000/svg" xmlns:xlink="http://www.w3.org/1999/xlink" x="0px" y="0px"
	 viewBox="0 0 300 300" style="enable-background:new 0 0 300 300;" xml:space="preserve">
<style type="text/css">
	.st0{fill:#999999;}
</style>
<path class="st0" d="M150.3,17.1c4.1,0,8.3-0.4,12.3,0.1c2.7,0.4,5.6,0.3,8.2,0.9c1.7,0.4,3.6,0.2,5,0.9c1.7,0.8,3.5,0.3,4.9,1
	c1.3,0.7,2.8,0.3,3.9,0.9c1.2,0.8,2.6,0.3,3.4,1c0.9,0.7,2,0.4,2.6,0.9c1.2,1,3,0.3,3.9,1.6c0,0,0.1,0,0.1,0
	c1.4,0.4,2.8,0.7,4.2,1.2c1.2,0.4,2.3,1,3.4,1.6c0,0,0,0.1,0.1,0.1c1.2,0.4,2.4,0.8,3.5,1.3c1.1,0.5,2.1,1.1,3.2,1.7
	c0.1,0.1,0.2,0.1,0.3,0.2c1,0.4,2.1,0.7,3,1.2c0.7,0.4,1.2,1,1.8,1.5c0.1,0,0.1,0.1,0.2,0.2c1,0.4,2,0.8,2.9,1.2
	c0.8,0.4,1.6,0.9,2.4,1.4c0.9,0.5,1.7,1.1,2.5,1.6c1.2,0.8,2.3,1.7,3.5,2.5c0.7,0.5,1.4,0.8,2.1,1.3c0.7,0.5,1.2,1,1.9,1.5
	c0.6,0.5,1.3,0.9,1.9,1.3c0.7,0.5,1.3,1.1,2,1.6c0.4,0.4,0.8,0.8,1.2,1.2c1.8,1.4,3.7,2.8,5.4,4.2c0.8,0.7,1.5,1.7,2.2,2.4
	c0.8,0.8,1.8,1.6,2.6,2.4c0.8,0.7,1.5,1.5,2.2,2.2c0.8,0.8,1.4,1.7,2.2,2.6c0.7,0.8,1.3,1.6,2,2.3c0.8,0.9,1.7,1.7,2.5,2.7
	c0.5,0.6,0.9,1.4,1.4,2.1c0.4,0.6,0.7,1.2,1.2,1.6c0.8,0.7,1.4,1.4,1.9,2.3c0.3,0.6,0.9,1.1,1.4,1.7c0.5,0.7,0.9,1.5,1.5,2.2
	c1,1.2,1.1,3,2.7,3.8c0.1,0,0.1,0.2,0.1,0.3c0,1.3,1.1,2,1.7,2.9c0.5,1,0.7,2.4,1.4,2.9c1,0.7,0.4,2.2,1.6,2.6
	c0.1,0,0.1,0.3,0.2,0.5c0.1,0.6-0.1,1.3,0.8,1.4c0,0,0.1,0.1,0.1,0.2c0.4,1,0.7,2.1,1.1,3.1c0.4,1,1,1.9,1.5,2.8
	c0.1,0.1,0.2,0.3,0.2,0.4c0.4,1.2,0.5,2.7,1.3,3.5c1,1.1,0.3,2.8,1.7,3.7c0.1,0.1,0.1,0.3,0.1,0.4c0.1,0.9,0.3,1.8,0.8,2.7
	c0.7,1.2,0.8,2.9,1.2,4.4c0.1,0.4,0.4,0.8,0.6,1.3c0.2,0.4,0.3,0.8,0.3,1.2c0.2,1-0.3,2.1,0.8,2.9c0.2,0.2,0.1,0.9,0.1,1.4
	c0.1,0.9-0.3,1.9,0.8,2.6c0.2,0.1,0.1,0.8,0.2,1.1c0.2,1.3-0.3,2.7,0.8,3.9c0.3,0.3,0.2,1.2,0.2,1.7c0.1,1.4-0.2,2.9,0.8,4.2
	c0.3,0.5,0.1,1.3,0.2,2c0,1.9,0,3.8,0.1,5.6c0,0.6,0.4,1.2,0.6,1.9c0.1,0.3,0.2,0.6,0.2,0.9c0,4.4,0,8.8,0,13.2
	c0,0.6-0.5,1.2-0.6,1.9c-0.1,1.5-0.2,2.9-0.2,4.4c-0.1,1.8,0,3.6-0.6,5.4c-0.5,1.5-0.3,3.2-0.4,4.9c0,0.4-0.4,0.9-0.6,1.3
	c-0.1,0.3-0.3,0.6-0.3,0.8c-0.1,0.9,0,1.8-0.1,2.6c-0.1,0.5-0.4,0.9-0.6,1.4c-0.2,0.5-0.2,1-0.3,1.5c-0.1,0.9,0.3,2-0.8,2.6
	c-0.1,0-0.1,0.1-0.1,0.2c-0.1,1.2-0.2,2.3-0.9,3.5c-0.8,1.5-0.7,3.3-1.3,5c-0.4,1.4-1.2,2.7-1.7,4c0,0,0,0.1-0.1,0.1
	c-0.4,1.2-0.7,2.5-1.1,3.7c-0.4,1.1-1.1,2.2-1.7,3.3c-0.4,0.8-0.8,1.6-1.1,2.4c-0.5,1.2-0.8,2.4-1.3,3.6c-0.4,0.9-1.1,1.7-1.6,2.6
	c-0.4,0.8-0.8,1.6-1.2,2.4c-0.5,0.9-1,1.7-1.5,2.6c-0.4,0.7-0.9,1.5-1.3,2.2c-0.8,1.3-1.4,2.8-2.6,3.9c-0.1,0.1-0.2,0.2-0.2,0.3
	c-0.1,1.2-1.2,1.8-1.8,2.8c-0.5,0.8-0.8,1.7-1.4,2.2c-1.2,0.9-1.5,2.5-2.7,3.5c-0.9,0.8-2,1.7-2.4,3.2c-0.2,0.9-1.3,1.6-2,2.4
	c-1.2,1.2-2.3,2.5-3.5,3.7c-0.8,0.8-1.7,1.6-2.6,2.4c-0.4,0.4-0.9,0.8-1.3,1.2c-1.3,1.2-2.5,2.4-3.8,3.7c-0.8,0.8-1.4,1.7-2.3,2.4
	c-1.2,0.8-1.8,2.3-3.4,2.6c-0.5,0.1-1,0.6-1.4,1c-0.5,0.5-0.7,1.1-1.2,1.6c-0.4,0.4-0.9,0.7-1.4,0.9c-0.7,0.4-1.5,0.8-2.1,1.2
	c-0.7,0.5-1.3,1-2,1.5c-1.2,0.8-2.5,1.7-3.8,2.5c-1.2,0.8-2.4,1.7-3.6,2.4c-0.9,0.5-1.8,0.9-2.7,1.4c-0.9,0.5-1.8,1.1-2.8,1.6
	c-0.8,0.5-1.7,0.8-2.5,1.3c-0.9,0.5-1.7,1-2.6,1.5c-0.1,0.1-0.2,0.3-0.4,0.3c-1.1,0.4-2.4,0.6-3.4,1.2c-1,0.7-2.5,0.4-3.2,1.6
	c0,0.1-0.2,0.1-0.3,0.1c-1.3,0.4-2.6,0.7-3.8,1.2c-1.3,0.5-2.6,1.1-3.9,1.7c0,0-0.1,0-0.1,0c-1.5,0.4-3.1,0.8-4.6,1.2
	c-0.6,0.2-1.2,0.5-1.9,0.7c-0.3,0.1-0.5,0.1-0.8,0.2c-0.9,0.1-1.9-0.1-2.6,0.8c-0.2,0.2-0.8,0.1-1.3,0.2c-0.9,0.1-1.8-0.1-2.6,0.7
	c-0.5,0.5-1.8,0.2-2.7,0.3c-0.7,0.1-1.6-0.2-2.1,0.7c-0.1,0.2-0.6,0.2-0.9,0.2c-1.2,0-2.3,0-3.5,0.1c-0.9,0-1.8-0.2-2.5,0.7
	c-0.2,0.2-0.7,0.2-1,0.2c-1.8,0.1-3.6,0-5.4,0.2c-1.1,0.1-2.1,0.4-3.2,0.6c-0.3,0.1-0.6,0.1-0.9,0.1c-4.4,0-8.7,0-13.1,0
	c-0.5,0-0.9-0.3-1.4-0.4c-0.5-0.1-1-0.3-1.5-0.3c-2.3-0.1-4.6-0.1-6.8-0.2c-0.5,0-1-0.4-1.4-0.6c-0.3-0.1-0.6-0.2-0.9-0.2
	c-1.2-0.1-2.3,0-3.5-0.1c-0.6-0.1-1.1-0.4-1.7-0.6c-0.3-0.1-0.6-0.2-0.9-0.2c-1.4-0.3-3,0.4-4.4-0.9c-0.4-0.4-1.5-0.1-2.2-0.2
	c-0.5-0.1-0.9-0.4-1.4-0.6c-0.4-0.1-0.8-0.3-1.2-0.3c-0.9-0.1-2,0.2-2.7-0.8c0,0-0.1,0-0.1,0c-1.6-0.4-3.1-0.7-4.7-1.1
	c-0.4-0.1-0.7-0.3-1-0.5c-0.2-0.1-0.3-0.3-0.4-0.3c-1.5-0.4-3-0.7-4.4-1.3c-1.1-0.4-2.1-1-3.2-1.5c-0.1-0.1-0.3-0.1-0.4-0.2
	c-1.2-0.4-2.7-0.5-3.6-1.3c-0.8-0.8-2.3-0.3-2.7-1.6c0-0.1-0.5-0.1-0.8-0.2c-0.4-0.2-0.7-0.4-1.1-0.6c-0.2-0.1-0.4-0.2-0.6-0.3
	c-0.6-0.1-1-0.4-1.5-0.7c-0.7-0.5-1.6-0.8-2.3-1.3c-1-0.6-2.1-1-3.1-1.6c-0.9-0.5-1.8-1-2.6-1.5c-0.4-0.2-0.6-0.6-1-0.8
	c-1.2-0.8-2.4-1.6-3.6-2.3c-0.8-0.5-1.7-1-2.4-1.6c-1-1.1-2.7-1.2-3.5-2.6c-0.4-0.6-1.3-0.8-2-1.3c-0.6-0.5-1.2-1-1.8-1.5
	c-0.8-0.7-1.7-1.5-2.5-2.2c-1.1-1-2.5-1.7-3.4-2.9c-0.7-0.9-1.9-1.5-2.7-2.3c-0.8-0.8-1.4-1.8-2.2-2.6c-0.8-0.8-1.7-1.4-2.6-2.2
	c-0.4-0.4-0.8-0.8-1.1-1.2c-1.1-1.4-2.1-2.9-3.3-4.3c-0.7-0.9-1.7-1.6-2.5-2.5c-0.6-0.7-0.9-1.5-1.4-2.2c-0.3-0.5-0.5-1.1-1-1.3
	c-0.7-0.3-0.8-0.9-1.1-1.4c-0.6-0.8-1.2-1.5-1.7-2.3c-0.8-1.2-1.5-2.3-2.3-3.5c-0.2-0.3-0.4-0.5-0.6-0.8c-0.5-0.7-0.9-1.5-1.4-2.3
	c-0.6-1-1.1-2.1-1.7-3.1c-0.5-0.9-1.1-1.7-1.6-2.6c-0.5-0.8-0.8-1.6-1.3-2.4c-0.5-0.9-1-1.8-1.6-2.7c0-0.1-0.1-0.1-0.2-0.2
	c-0.4-1.1-0.7-2.2-1.2-3.2c-0.6-1.1-0.8-2.5-1.7-3.5c-0.5-0.6-0.7-1.5-1-2.3c-0.5-1.4-0.8-2.8-1.3-4.2c-0.1-0.4-0.4-0.8-0.6-1.2
	c-0.1-0.1-0.2-0.2-0.2-0.3c-0.4-1.4-0.7-2.8-1.1-4.2c-0.2-0.5-0.4-1-0.6-1.6c-0.1-0.4-0.2-0.9-0.3-1.4c-0.1-0.6,0.1-1.3-0.7-1.7
	c-0.2-0.1-0.2-0.8-0.3-1.2c-0.2-1,0.3-2.1-0.8-3c-0.3-0.3-0.1-1.2-0.2-1.8c-0.1-1,0.1-1.9-0.7-2.9c-0.5-0.6-0.2-2-0.3-3
	c0-0.7,0.1-1.4-0.7-1.9c-0.2-0.1-0.2-0.7-0.2-1c-0.1-1.2,0-2.3-0.1-3.5c-0.2-1.5-0.7-2.9-0.8-4.4c-0.1-6.7-0.1-13.4-0.1-20.2
	c0-1.4,0-2.7,0.1-4.1c0.1-1.3,0.6-2.5,0.8-3.8c0.2-1.3-0.3-2.9,0.3-4c1-1.9,0.3-4,1-5.7c0.6-1.4,0.7-2.6,0.8-4c0-0.3,0.3-0.6,0.5-1
	c0.2-0.4,0.3-0.9,0.4-1.3c0.2-1-0.4-2.2,0.9-2.8c0,0,0-0.1,0-0.1c0.4-1.6,0.7-3.2,1.1-4.8c0.1-0.5,0.4-1,0.7-1.5
	c0-0.1,0.1-0.1,0.1-0.2c0.4-1.3,0.7-2.7,1.2-4c0.5-1.3,1.1-2.6,1.7-3.9c0.1-0.3,0.1-0.5,0.2-0.8c0.3-0.7,0.6-1.3,0.9-1.9
	c0-0.1,0.1-0.1,0.1-0.2c0.4-1.1,0.4-2.5,1.2-3.2c0.8-0.8,0.3-2.3,1.6-2.7c0.1,0,0.1-0.4,0.1-0.6c0.1-0.5-0.1-1.3,0.8-1.4
	c0,0,0.1-0.1,0.1-0.1c0.4-0.9,0.7-1.9,1.1-2.8c0.4-0.9,1-1.7,1.5-2.6c0.5-0.9,1-1.8,1.5-2.7c0.5-0.8,0.9-1.5,1.4-2.3
	c0.5-0.8,1-1.6,1.6-2.4c0.3-0.5,0.6-1.1,1-1.4c1.2-0.9,1.2-2.6,2.7-3.4c0.6-0.3,0.8-1.4,1.2-2.1c0.3-0.5,0.6-1.2,1-1.4
	c1.6-0.8,1.8-2.5,2.9-3.6c1.2-1.2,2.4-2.3,3.6-3.5c0.7-0.8,1.3-1.7,2.1-2.4c0.8-0.9,1.8-1.6,2.6-2.5c0.8-0.8,1.5-1.7,2.3-2.5
	c0.8-0.8,1.8-1.6,2.6-2.4c0.9-0.9,1.7-1.8,2.6-2.6c0.7-0.7,1.5-1.4,2.4-1.9c1.4-0.7,2.5-1.8,3.6-3c0.1-0.1,0.3-0.2,0.4-0.2
	c1.1-0.1,1.6-1.1,2.4-1.7c0.5-0.4,1-0.8,1.6-1.2c0.7-0.5,1.5-0.9,2.3-1.3c0.5-0.3,0.9-0.6,1.4-0.9c0.5-0.3,1-0.6,1.4-0.9
	c0.8-0.6,1.5-1.2,2.3-1.8c0.7-0.5,1.6-0.7,2.4-1.2c0.8-0.5,1.6-1.1,2.4-1.6c0.2-0.1,0.5-0.2,0.7-0.3c0.4-0.2,0.8-0.5,1.2-0.7
	c0.2-0.1,0.5-0.2,0.7-0.2c0.5-0.1,1.2,0.1,1.2-0.8c0-0.1,0.1-0.1,0.2-0.2c1-0.4,2.2-0.5,2.9-1.2c0.9-0.8,2.2-0.6,3-1.6
	c0.4-0.6,1.4-0.7,2.1-1c1.2-0.4,2.5-0.8,3.7-1.3c0.6-0.2,1.1-0.5,1.7-0.8c0,0,0.1-0.1,0.1-0.1c1-0.3,2.1-0.8,3.2-1
	c0.7-0.2,1.4-0.3,2.1-0.7c1.2-0.7,2.7-0.9,4.1-1.3c0.9-0.2,1.8,0.2,2.5-0.8c0.2-0.3,1.2-0.1,1.8-0.2c0.7-0.1,1.5,0.2,2-0.7
	c0.1-0.2,0.8-0.1,1.2-0.2c1-0.1,2.2,0.4,3-0.8c0.1-0.2,0.5-0.1,0.8-0.1c1.7-0.2,3.5,0.1,5.1-0.8c0.5-0.3,1.3-0.2,2-0.1
	c1.9,0.1,3.8-0.6,5.6-0.8C142,16.9,146.2,17.1,150.3,17.1z M20.9,149.7c0,3.6,0,7.3,0,10.9c0,0.4-0.1,0.9,0.1,1
	c1.2,0.7,0.7,1.8,0.7,2.8c0.1,1.4,0.1,2.8,0.1,4.2c0,0.3,0,0.8,0.2,0.9c0.9,0.5,0.7,1.4,0.7,2.1c0.1,0.9-0.2,2.1,0.3,2.7
	c0.8,1,0.5,2.1,0.7,3.1c0.3,1.8,0.7,3.6,1.1,5.4c0,0.2,0.1,0.3,0.2,0.4c0.2,0.5,0.5,0.9,0.6,1.4c0.4,1.5,0.7,3.1,1.1,4.6
	c0.2,0.9,0.4,1.9,0.9,2.6c0.8,1,0.9,2,1,3.2c0,0.1,0.1,0.2,0.2,0.3c0.2,0.4,0.5,0.8,0.7,1.2c0.1,0.3,0.1,0.6,0.2,0.9
	c0.2,0.6,0.5,1.2,0.7,1.8c0.1,0.3,0.1,0.9,0.2,0.9c1,0.2,0.7,1,0.8,1.6c0,0.2,0.2,0.4,0.4,0.7c0.2,0.3,0.4,0.6,0.5,0.9
	c0.1,0.3,0,0.7,0.1,0.9c0.9,1.1,1.5,2.4,1.9,3.7c0,0.1,0.1,0.2,0.2,0.3c0.5,0.9,1.1,1.9,1.6,2.8c0.5,0.9,0.8,1.9,1.3,2.8
	c0.8,1.3,1.8,2.4,2.6,3.7c0.5,0.9,0.9,1.9,1.3,2.9c0,0.1,0.1,0.2,0.2,0.3c1,1.2,2.4,2,2.6,3.7c0,0.1,0.2,0.2,0.3,0.3
	c0.5,0.5,1.3,0.9,1.4,1.5c0.3,1.2,1.1,1.9,1.9,2.7c0.5,0.4,0.8,1,1.2,1.5c0.7,1,1.4,2.1,2.2,3.1c0.8,0.9,1.7,1.6,2.5,2.4
	c0.4,0.3,0.7,0.7,1.1,1c0.5,0.6,1,1.3,1.6,1.9c1.1,1.2,2.2,2.3,3.3,3.5c1.1,1.1,2.2,2.1,3.3,3.1c0.5,0.5,1.2,0.9,1.7,1.4
	c0.8,0.8,1.4,1.9,2.3,2.4c1.5,0.7,2.7,1.7,3.7,3c0.4,0.4,0.9,0.9,1.4,1c1.2,0.3,1.8,1,2.5,1.9c0.4,0.5,1,0.8,1.5,1.1
	c0.7,0.4,2,0.6,2.2,1.2c0.5,1.2,2,0.5,2.4,1.7c0.1,0.4,0.8,0.7,1.3,0.9c0.9,0.5,1.9,0.9,2.9,1.4c0.1,0,0.2,0.2,0.3,0.2
	c0.9,0.5,1.7,1,2.6,1.5c0.2,0.1,0.4,0.1,0.5,0.2c0.9,0.6,1.7,1.2,2.6,1.7c1,0.5,2.1,0.8,3.1,1.1c0.1,0,0.2,0.1,0.2,0.1
	c0.1,0.9,0.8,0.7,1.3,0.8c0.3,0,0.5,0.1,0.7,0.3c0.4,0.2,0.8,0.5,1.2,0.7c0.2,0.1,0.6,0,0.7,0.1c0.4,1,1.3,0.7,2,0.9
	c0.3,0,0.7,0.1,0.7,0.2c0.2,0.8,0.9,0.6,1.4,0.7c0.3,0.1,0.5,0.2,0.8,0.4c0.3,0.2,0.6,0.4,0.9,0.5c1.4,0.4,2.8,0.8,4.2,1.2
	c0.1,0,0.2,0.1,0.3,0.2c1.4,0.5,2.8,1.1,4.2,1.6c1.7,0.5,3.5,0.8,5.3,1.2c0.2,0,0.3,0.1,0.4,0.2c0.6,0.2,1.2,0.5,1.8,0.6
	c0.7,0.1,1.7-0.1,2.2,0.3c0.9,0.8,1.8,0.6,2.8,0.7c0.7,0.1,1.4,0.1,2.1,0.2c0.8,0.2,1.6,0.6,2.4,0.7c0.9,0.1,1.9,0.1,2.9,0.1
	c0.3,0,0.6,0.1,0.9,0.3c0.5,0.2,0.9,0.6,1.4,0.6c3.1,0.1,6.2,0.1,9.2,0.2c0.4,0,0.8,0.1,1.1,0.2c0.5,0.2,0.9,0.5,1.4,0.6
	c2.5,0.1,5,0,7.4,0c0.3,0,0.8,0,0.9-0.2c0.4-0.8,1-0.6,1.7-0.6c3-0.1,6.1-0.1,9.1-0.1c0.4,0,0.7-0.2,1.1-0.3
	c0.4-0.2,0.8-0.5,1.2-0.5c2-0.4,4.1,0.1,6.1-0.9c1.5-0.7,3.5-0.2,5.2-1.1c1-0.5,2.3-0.1,3.5-0.9c1.3-0.9,3.2-0.8,4.8-1.2
	c1.4-0.3,2.8-0.7,4.2-1.1c0.1,0,0.2-0.1,0.2-0.1c0.3-0.9,1.1-0.6,1.7-0.8c0.5-0.1,0.9-0.4,1.4-0.6c0.2-0.1,0.5-0.2,0.8-0.2
	c1.3-0.4,2.8-0.5,3.7-1.2c0.7-0.6,1.3-0.7,2.1-0.8c0.1,0,0.2-0.1,0.3-0.2c0.4-0.2,0.9-0.5,1.3-0.7c0.2-0.1,0.5-0.1,0.8-0.3
	c1-0.5,1.9-1.2,2.9-1.6c0.9-0.4,1.9-0.7,2.8-1.1c0.7-0.3,1.5-0.5,1.9-1.1c0.8-1.1,2.1-1,2.9-1.7c0.7-0.6,1.9-0.8,2.7-1.4
	c0.9-0.7,1.6-1.7,2.9-1.8c0.1,0,0.3-0.1,0.4-0.2c0.8-0.7,1.3-1.7,2.5-1.7c0.1,0,0.3,0,0.3-0.1c0.6-1.5,2.5-1.5,3.4-2.7
	c0.3-0.4,0.7-0.7,1.1-0.9c0.7-0.5,1.6-0.8,2.2-1.4c0.9-0.8,1.7-1.7,2.5-2.5c0.4-0.4,0.8-0.7,1.3-1.1c1.4-1.1,2.9-2.1,4.3-3.3
	c0.9-0.8,1.6-1.8,2.5-2.6c0.8-0.8,1.8-1.3,2.5-2.1c0.8-0.8,1.3-2,2.2-2.7c1.4-1,2-2.5,3.1-3.6c0.7-0.8,1.3-1.6,2-2.3
	c0.5-0.6,1.2-1.1,1.7-1.8c0.8-1,1.3-2.2,2.2-3.1c0.8-0.8,1.7-1.5,1.9-2.7c0-0.1,0.1-0.2,0.2-0.2c0.8-0.6,1.6-1.3,1.7-2.4
	c0-0.2,0.1-0.4,0.2-0.5c0.8-0.6,1.5-1.3,1.7-2.4c0-0.2,0.2-0.4,0.3-0.5c0.5-0.7,1.1-1.3,1.5-2c0.5-0.9,0.6-2.2,1.3-2.7
	c1.1-0.6,0.7-1.9,1.7-2.6c0.7-0.5,0.8-1.9,1.2-2.9c0.1-0.2,0.2-0.3,0.3-0.5c0.5-0.9,1.1-1.7,1.5-2.6c0.4-1,0.7-2.1,1.1-3.2
	c0,0,0-0.1,0.1-0.1c1.4-0.3,0.6-1.9,1.6-2.7c0.6-0.4,0.6-1.8,1-2.7c0.7-1.6,1.3-3.4,2-5c0.6-1.5,0.9-3.1,1.2-4.7
	c0.2-1.5,1.5-2.8,1.2-4.4c1.2-0.8,0.7-2,0.9-3c0-0.3-0.1-0.8,0.1-0.9c1.2-1.1,0.7-2.4,0.9-3.7c0.1-0.4,0-1.2,0.2-1.2
	c1-0.4,0.7-1.3,0.7-2c0.1-1.4,0.1-2.7,0.1-4.1c0-0.3,0.2-0.7,0.3-1c0.2-0.4,0.5-0.8,0.5-1.2c0.1-2.7,0.1-5.4,0.2-8.2
	c0-1-0.4-2.1,0.7-2.8c0.1-0.1,0.1-0.5,0.1-0.7c0-2.5,0-5,0-7.6c0-0.3-0.1-0.7-0.2-1c-0.2-0.5-0.5-0.9-0.5-1.4
	c-0.1-3.1-0.1-6.2-0.2-9.2c0-0.4,0-0.9-0.2-1c-0.9-0.4-0.6-1.2-0.7-1.9c0-1.1,0-2.2-0.1-3.4c0-0.3-0.1-0.6-0.2-0.9
	c-0.2-0.5-0.6-0.9-0.7-1.3c-0.2-1.4-0.1-2.8-0.8-4.2c-0.7-1.3-0.2-3-1.1-4.5c-0.5-0.9,0-2.1-0.9-3.2c-0.8-0.9-0.8-2.5-1.2-3.8
	c-0.4-1.4-0.7-2.9-1.1-4.3c0-0.1-0.1-0.2-0.2-0.3c-0.6-1.2-1.2-2.3-1.7-3.6c-0.5-1.2-0.8-2.5-1.2-3.7c0-0.1-0.2-0.2-0.3-0.4
	c-0.2-0.3-0.4-0.7-0.6-1c-0.4-1-0.7-2-1.1-3c0,0-0.1-0.1-0.1-0.1c-0.8,0-0.6-0.7-0.8-1.2c-0.1-0.3-0.4-0.6-0.6-0.8
	c-0.1-0.2-0.3-0.3-0.4-0.5c-0.4-1-0.8-2-1.1-3c0-0.1-0.1-0.1-0.1-0.2c-0.6-0.9-1.2-1.7-1.8-2.6c-0.3-0.4-0.6-0.9-0.8-1.3
	c-0.5-0.9-0.9-1.9-1.3-2.8c0-0.1-0.1-0.1-0.1-0.2c-0.8-0.7-1.6-1.3-1.7-2.5c0-0.2-0.3-0.3-0.4-0.5c-0.5-0.6-1-1.2-1.4-1.8
	c-0.5-0.7-0.7-1.5-1.3-2.1c-0.7-0.7-1.5-1.3-1.7-2.3c0-0.2-0.2-0.4-0.3-0.6c-0.8-0.8-1.7-1.5-2.4-2.4c-1.1-1.4-2.2-2.9-3.2-4.4
	c-0.3-0.4-0.8-0.8-1.2-1.2c-0.8-0.8-1.7-1.5-2.5-2.3c-1.2-1.2-2.3-2.5-3.5-3.7c-0.7-0.7-1.6-1.3-2.3-2c-0.6-0.6-1.2-1.2-1.8-1.8
	c-0.4-0.4-0.8-0.8-1.2-1.2c-0.8-0.8-1.6-1.7-2.5-2.5c-1.1-1-2.3-1.9-3.5-2.8c-0.6-0.5-1.3-0.9-1.9-1.3c-0.3-0.2-0.6-0.4-0.9-0.7
	c-0.6-0.4-1.1-0.9-1.7-1.2c-0.7-0.5-1.5-0.9-2.2-1.4c-0.8-0.5-1.5-1-2.3-1.6c-0.2-0.1-0.5-0.1-0.5-0.1c-0.3-1.4-1.9-0.7-2.4-1.8
	c-0.2-0.4-0.8-0.6-1.3-0.9c-1-0.5-2.2-0.7-3-1.4c-1.1-0.9-2.2-1.5-3.6-1.9c-0.1,0-0.3-0.1-0.4-0.2c-0.9-0.5-1.7-1.1-2.6-1.5
	c-1-0.5-2.1-0.7-3.2-1.1c-0.1,0-0.1-0.1-0.2-0.2c-0.5-1.2-2.2-0.4-2.7-1.6c-1.7-0.2-3.2-0.9-4.6-1.9c-0.9-0.6-2.2-0.8-3.3-1.1
	c-1.5-0.4-3.1-0.8-4.6-1.2c-0.1,0-0.2,0-0.2-0.1c-0.5-1.1-1.6-0.7-2.4-0.8c-0.2,0-0.6,0-0.7-0.1c-0.8-1-1.9-0.7-3-0.9
	c-0.4,0-0.9,0-1-0.2c-0.8-0.9-1.9-0.7-2.9-0.8c-0.6,0-1.5,0.1-1.7-0.2c-1-1.3-2.3-0.6-3.5-0.8c-0.5-0.1-1.4,0.1-1.6-0.2
	c-0.7-1-1.6-0.7-2.5-0.7c-1.5-0.1-3-0.1-4.6-0.1c-0.3,0-0.7-0.1-1-0.3c-0.4-0.2-0.8-0.5-1.2-0.5c-7.5,0-15,0-22.4,0
	c-0.3,0-0.6,0.1-0.9,0.3c-0.4,0.2-0.8,0.5-1.2,0.5c-1.9,0.1-3.8,0.1-5.6,0.1c-0.3,0-0.9,0-1,0.2c-0.4,0.8-1,0.6-1.6,0.6
	c-1,0.1-2,0-3,0.1c-0.4,0-0.9,0-1,0.2c-0.6,1.1-1.6,0.7-2.4,0.8c-0.5,0.1-1.3-0.1-1.5,0.2c-0.8,1-1.9,0.6-2.9,0.8
	c-0.4,0.1-0.9,0-1,0.2c-0.7,1-1.8,0.7-2.7,0.8c-0.4,0.1-0.9,0-1.1,0.3c-1.2,1.2-3.1,0.7-4.4,1.6c-1,0.7-2.4,0.8-3.7,1.1
	c0,0-0.1,0-0.1,0.1c-1.3,1.1-3,1.3-4.5,1.8c-1,0.4-2.2,0.5-3,1.2c-0.6,0.6-1.2,0.8-1.9,0.8c-0.2,0-0.3,0.2-0.5,0.3
	c-0.4,0.2-0.7,0.5-1.1,0.6c-0.2,0.1-0.7,0.1-0.8,0.2c-0.4,1.2-1.8,1-2.7,1.6c-1,0.7-2.3,1.2-3.4,2c-0.7,0.4-1.5,0.8-2.2,1.2
	c-0.9,0.6-1.9,1.2-2.8,1.7c-0.6,0.4-1.2,0.8-1.8,1.1c-0.9,0.5-1.8,0.8-2.7,1.3c-0.5,0.3-0.8,0.7-1.2,1.1c-0.6,0.5-1.1,1.1-1.7,1.5
	c-0.7,0.5-1.6,0.6-2.1,1.2c-0.8,0.9-1.5,1.6-2.7,2c-0.5,0.2-0.9,0.7-1.3,1.1c-0.9,0.9-1.8,1.8-2.8,2.6c-0.6,0.5-1.4,0.9-2,1.4
	c-1,0.9-1.9,1.8-2.9,2.7c-0.5,0.5-0.8,1-1.3,1.5c-0.5,0.5-1,0.9-1.4,1.4c-0.8,0.7-1.7,1.3-2.3,2.2c-0.5,0.8-1,1.4-1.8,1.9
	c-0.5,0.3-0.8,0.8-1.2,1.3c-1.1,1.4-1.9,3.1-3.3,4.2c-1.2,1-1.6,2.5-2.7,3.4c-0.3,0.3-0.6,0.5-0.8,0.8c-0.4,0.7-0.8,1.6-1.2,2.3
	c-0.3,0.5-0.8,1-1.2,1.5c-0.6,0.7-1.5,1.2-1.6,2.2c0,0.2-0.1,0.5-0.2,0.5c-1.2,0.4-0.8,1.9-1.7,2.5c-0.4,0.3-0.7,0.9-1,1.4
	c-0.5,0.9-0.9,1.8-1.4,2.7c-0.3,0.5-0.7,1-1,1.5c-0.5,0.9-1.1,1.8-1.6,2.7c-0.4,0.9-0.7,1.9-1.1,2.8c0,0.1-0.2,0.1-0.3,0.2
	c-0.2,0.3-0.5,0.5-0.6,0.8c-0.1,1.1-1.4,1.8-1.1,3.1c0,0-0.1,0.1-0.2,0.1c-0.2,0.4-0.5,0.8-0.7,1.2c-0.2,0.5-0.5,1-0.7,1.5
	c-0.1,0.2-0.2,0.4-0.3,0.6c-0.4,1.3-0.8,2.5-1.3,3.8c-0.2,0.7-0.5,1.3-0.7,2c-0.1,0.1-0.1,0.4-0.2,0.4c-1.4,1-1,2.7-1.6,4
	c-0.8,1.6-0.9,3.5-1.3,5.3c0,0.1,0,0.2,0,0.2c-1.2,0.8-0.7,2.1-0.9,3.2c0,0.3,0,0.7-0.2,0.8c-1,0.6-0.6,1.6-0.7,2.5
	c-0.1,0.6-0.1,1.2-0.3,1.7c-0.2,0.6-0.5,1.1-0.6,1.7c-0.1,1-0.1,2.1-0.2,3.1c0,0.3-0.1,0.6-0.2,0.9c-0.2,0.5-0.6,1-0.6,1.5
	c-0.1,1.8-0.1,3.6-0.1,5.4c0,0.3-0.1,0.7-0.2,1c-0.2,0.5-0.6,0.9-0.6,1.4C20.9,142.4,20.9,146,20.9,149.7z"/>
<path class="st0" d="M209.1,231.6c0,0.5,0,0.7-0.6,1c-1.2,0.7-2.3,1.8-3.4,2.6c-0.7,0.5-1.5,0.7-2.1,1.2c-0.9,0.8-2.2,0.8-2.9,1.9
	c0,0.1-0.1,0-0.2,0.1c-1,0.4-2.5,0.5-3,1.2c-0.7,1.1-2.3,0.3-2.6,1.7c0,0.1-0.5,0-0.8,0.1c-0.4,0.2-0.7,0.4-1.1,0.6
	c-0.1,0-0.1,0.2-0.1,0.2c-1.1,0.4-2.3,0.7-3.4,1.1c-0.4,0.1-0.8,0.4-1.1,0.6c-0.1,0.1-0.2,0.3-0.3,0.3c-0.8,0.1-1.8-0.2-2.1,0.9
	c-1.7-0.5-2.8,1.2-4.4,1.2c-0.4,0-0.9,0.4-1.3,0.6c-0.1,0-0.2,0.1-0.3,0.2c-1.7,0.4-3.4,0.8-5.2,1.1c-0.9,0.2-1.7,0-2.5,0.7
	c-0.5,0.5-1.6,0.3-2.4,0.4c-1.1,0.1-2.2,0-3.3,0.7c-0.7,0.4-1.8,0.3-2.7,0.3c-2,0.1-4.1-0.3-6,0.3c-3.4,1.1-6.8,0.3-10.2,0.6
	c-0.6,0-1.3-0.4-1.9-0.6c-0.3-0.1-0.5-0.1-0.8-0.1c-2-0.1-3.9-0.1-5.9-0.1c-1.3,0-2.6-0.2-3.9-0.8c-0.8-0.4-2-0.1-3-0.2
	c-0.7-0.1-1.4-0.5-2.1-0.7c-0.9-0.2-1.9-0.2-2.8-0.4c-0.6-0.1-1.2-0.4-1.7-0.7c-0.1,0-0.1-0.1-0.2-0.1c-1.6-0.4-3.2-0.7-4.7-1.1
	c-0.4-0.1-0.7-0.4-1.1-0.6c-0.5-0.2-1-0.3-1.5-0.4c-0.5-0.1-1.3,0.3-1.4-0.7c0-0.1-0.1-0.2-0.1-0.2c-1.4,0.2-2.5-0.7-3.8-1.1
	c-0.3-0.1-0.6-0.3-0.9-0.5c-0.2-0.1-0.3-0.3-0.4-0.4c-0.8-0.1-1.4-0.3-2.1-0.8c-1-0.7-2.4-0.8-3.5-1.3c-0.9-0.4-1.8-1.1-2.6-1.6
	c-0.5-0.3-0.9-0.6-1.4-0.9c-1-0.5-2-1-3-1.5c-0.5-0.2-1-0.5-1.3-0.9c-0.6-0.9-2-0.5-2.4-1.8c-0.2-0.5-1.2-0.7-1.8-1.1
	c-0.6-0.4-1.3-0.8-1.9-1.3c-0.3-0.2-0.6-0.5-0.9-0.7c-0.7-0.5-1.3-1.1-2.1-1.6c-1.5-1-2.6-3.3-4.9-2.2c-1,0.5-2.4,0.4-3,1.6
	c-0.1,0.1-0.2,0.2-0.4,0.2c-0.7,0.2-1.4,0.4-2.3,0.7c0-0.4-0.2-1-0.2-1.6c0-2.4-0.2-4.8,0.1-7.2c0.1-1.3-0.6-1.9-1.2-2.6
	c-0.7-0.8-1.6-1.4-2-2.5c-0.1-0.5-0.6-0.9-1-1.3c-0.8-0.8-1.7-1.6-2.5-2.4c-0.1-0.1-0.1-0.3-0.1-0.4c-0.2-1.1-1-1.6-1.7-2.3
	c-0.6-0.5-0.8-1.4-1.3-2c-0.4-0.6-0.9-1.2-1.4-1.8c-0.1-0.1-0.4-0.2-0.4-0.3c-0.2-1.7-1.5-2.9-2.3-4.3c-0.7-1.3-1.2-2.8-2.1-3.7
	c-0.8-0.8-0.5-2-1.6-2.7c-0.7-0.5-0.8-2-1.2-3c-0.1-0.2-0.2-0.4-0.4-0.6c-0.1-0.1-0.4-0.2-0.4-0.2c0.4-1.3-1.1-2-1.1-3.2
	c0-0.6,0.3-1.4-0.8-1.6c-0.1,0-0.1-0.4-0.1-0.5c-0.2-0.8,0.4-2-0.9-2.4c-0.1,0-0.1-0.4-0.1-0.7c-0.1-0.8,0.1-1.7-0.8-2.2
	c-0.1,0-0.1-0.1-0.1-0.2c-0.4-1.8-0.7-3.6-1.1-5.4c-0.1-0.4-0.5-0.8-0.6-1.3c-0.2-0.5-0.3-1-0.4-1.5c-0.1-1.2,0.2-2.5-0.8-3.6
	c-0.3-0.4-0.2-1.2-0.2-1.8c-0.1-1.2,0.2-2.6-0.2-3.7c-1.4-3.7-0.7-7.4-0.8-11.2c-0.1-3.8,0-7.5,0.1-11.3c0-0.8,0.5-1.6,0.6-2.5
	c0.2-1.1,0.2-2.1,0.3-3.2c0.1-1.3-0.2-2.6,0.8-3.7c0.3-0.3,0.1-1,0.1-1.5c0.1-0.9-0.2-1.9,0.8-2.5c0.1,0,0.1-0.2,0.1-0.3
	c0.4-1.9,0.8-3.9,1.2-5.8c0.1-0.5,0.4-1,0.7-1.4c0.4-0.6,0.3-1.5-0.4-1.9c-0.2-0.1-0.3-0.5-0.3-0.6c0.1-0.2,0.4-0.4,0.6-0.4
	c1.6,0,3.1,0,4.7,0.1c0.3,0,0.5,0.3,0.7,0.4c-0.2,0.2-0.5,0.5-0.7,0.5c-1,0.1-2.1,0-3.2,0c0,0.7-0.1,1.2-0.1,1.7
	c-0.1,0.6,0.1,1.2-0.7,1.5c-0.2,0.1-0.2,0.7-0.3,1.1c-0.1,1,0.2,2-0.8,2.7c-0.2,0.2-0.1,0.8-0.1,1.2c-0.1,0.9,0.2,2-0.8,2.7
	c-0.3,0.2-0.1,1.1-0.2,1.6c-0.1,0.9,0.3,2-0.8,2.7c-0.2,0.1-0.1,0.6-0.2,0.9c-0.1,1.2,0.1,2.4-0.2,3.6c-1.6,6.6-0.6,13.4-0.8,20
	c0,1.2,0.5,2.4,0.6,3.6c0.2,1.3,0.2,2.6,0.3,3.9c0.1,1-0.1,2,0.7,2.9c0.3,0.4,0.2,1.2,0.3,1.9c0.2,1-0.3,2.2,0.8,3.1
	c0.3,0.3,0.1,1.2,0.2,1.9c0.1,0.7-0.2,1.5,0.7,2c0.2,0.1,0.2,0.7,0.2,1c0.1,0.8-0.2,1.7,0.8,2.2c0.1,0.1,0.1,0.4,0.2,0.7
	c0.1,0.8-0.3,1.8,0.8,2.3c0.2,0.1,0.1,0.7,0.2,1c0.1,0.6-0.3,1.4,0.7,1.6c0.1,0,0.1,0.4,0.2,0.5c0.2,0.8-0.3,2,1,2.4
	c0,0,0,0.1,0,0.1c0.3,1.1,0.4,2.5,1.1,3.2c0.9,0.8,0.4,2.2,1.6,2.8c0.6,0.3,0.3,1.3,1,2c0.7,0.7,0.9,1.9,1.3,2.9
	c0.1,0.3,0.4,0.5,0.6,0.7c0.1,0.1,0.3,0.3,0.3,0.4c0.1,1.3,1,1.9,1.7,2.8c0.5,0.7,0.6,1.9,1.3,2.3c0.9,0.6,0.6,1.9,1.6,2.4
	c0.6,0.3,0.8,1.3,1.3,2c0.5,0.7,1.1,1.2,1.6,1.9c0.8,1,1.6,2.1,2.4,3.1c0.5,0.6,0.9,1.1,1.4,1.7c0.1,0.1,0.3,0.2,0.4,0.3
	c0.2,0.2,0.3,0.5,0.5,0.8c0.1-0.4,0.4-0.7,0.4-1.1c0-2.5,0-5,0-7.6c0-1.1,0.9-1.7,1.8-2.1c1.3-0.7,3.1-0.5,4.1-1.8
	c0,0,0.1-0.1,0.1-0.1c1-0.3,2-0.7,3-1c0.8-0.2,1.5-0.3,2.2-0.7c1.4-0.7,3.1-0.8,4.6-1.4c1.5-0.6,3.1-0.6,4.4-1.2
	c0.9-0.4,1.8-0.6,2.7-0.7c0.6-0.1,1.4,0.2,1.7-0.7c0-0.1,0.5-0.2,0.8-0.2c0.8,0,1.7-0.1,2.5-0.1c0.3,0,0.7,0,0.8-0.1
	c1.1-1.3,2.6-0.6,4-0.9c0.5-0.1,1-0.4,1.5-0.6c0.3-0.1,0.6-0.2,0.9-0.2c1.1-0.1,2.2-0.1,3.2-0.1c0.7,0,1.5,0.2,1.8-0.7
	c0.1-0.2,0.6-0.2,0.9-0.2c1.4-0.1,3,0.2,4.3-0.2c3.4-1.2,7.1-0.2,10.5-1.1c4.1-1.1,8.2-0.5,12.3-0.7c4-0.2,8.1-0.2,12.1-0.2
	c5.8,0,11.6,0.2,17.4,0.3c1.1,0,2.1,0.5,3.2,0.7c3,0.5,3.7-0.2,3-3.2c0-0.2-0.5-0.2-0.8-0.4c-0.2,0.9-0.9,0.7-1.5,0.7
	c-0.2,0-0.4,0-0.4,0.1c-0.7,1.4-1.8,0.7-2.9,0.8c0-0.8-0.1-1.5-0.1-2.3c0-0.2,0.3-0.4,0.4-0.6c0.2,0.2,0.4,0.4,0.5,0.6
	c0.1,0.2-0.1,0.7,0,0.8c0.2,0.2,0.7,0.5,0.9,0.5c0.4-0.2,0.9-0.6,1-1c0.5-1.4,1-0.6,1.6-0.1c0.1-0.1,0.2-0.1,0.3-0.2
	c0.3-0.5,0.6-0.9,0.9-1.4c0.4,0.7,1.7,0.8,1.4,2.1c-0.2,1.1,0,2.2,0,3.4c0.2,0,0.3,0.1,0.5,0.1c0.2-0.3,0.5-0.6,0.5-0.9
	c0-1.5,1.6-1.8,2.2-2.9c0-0.1,0.6,0,0.6,0.1c0.1,0.2,0.2,0.7,0,0.8c-0.5,0.5-1.2,0.9-1.8,1.4c0,0.5,0,1,0,1.3
	c2.5,1.5,5.2,1.3,7.8,1.4c0.4,0,0.8,0.4,1.2,0.5c0.4,0.1,0.7,0.3,1.1,0.3c1,0.1,1.9,0,2.9,0.1c0.7,0,1.5-0.2,2,0.7
	c0.2,0.3,0.9,0.2,1.4,0.3c1.3,0.2,2.7-0.3,3.9,0.8c0.5,0.5,1.8,0.1,2.7,0.2c0.6,0.1,1.3-0.2,1.6,0.7c0,0.1,0.5,0.2,0.7,0.2
	c1.1,0.2,2.4-0.3,3.3,0.9c0.1,0.2,0.5,0.1,0.8,0.1c0.8,0.1,1.8-0.3,2.3,0.8c0.1,0.1,0.5,0.1,0.8,0.2c1,0.1,2.2-0.2,2.9,0.9
	c0,0,0.1,0,0.2,0.1c1.5,0.4,3.1,0.5,4.4,1.2c1.1,0.6,2.6,0.4,3.4,1.6c0.2,0.2,0.7,0.2,1.1,0.3c0.6,0.1,1.3-0.1,1.6,0.7
	c0,0.1,0.5,0.2,0.7,0.2c0.3,0.1,0.6,0,0.8,0.1c0.3,0.2,0.5,0.6,0.8,0.9c0.3-0.3,0.6-0.6,0.8-0.9c0.2-0.3,0.5-0.6,0.7-0.9
	c0.9-1.2,1.7-2.3,2.6-3.5c0.2-0.2,0.2-0.5,0.3-0.8c0.2-0.3,0.4-0.6,0.6-0.9c0.1-0.1,0.2-0.1,0.2-0.2c0.4-1,0.8-2,1.2-2.9
	c0.1-0.2,0.3-0.4,0.4-0.6c0.1-0.3,0.3-0.7,0.2-0.9c-0.2-0.4-0.7-1-1-1c-1.3,0.3-1.9-1.3-3-1.1c-1.3,0.3-1.9-0.6-2.6-1.2
	c-0.8-0.8-1.3-1.7-2.7-1.9c-0.9-0.1-1.6-1.2-2.4-1.7c-0.5-0.3-1.3-0.3-0.9-1.3c0,0,0,0,0,0c1.5-0.1,2.6,0.6,3.3,2c0.5,0,1,0,1.3,0
	c0.6,0.7,1.2,1.3,1.7,2c0.8,1,1.8,1,2.9,1c0.2,0,0.5,0.1,0.5,0.2c0.3,1.3,1.4,0.7,2.1,1c1.3,0.5,2.8,0.9,3.9,1.9
	c0.1,0.1,0,0.5,0,0.8c-0.6,0-1.2,0-1.6,0c-0.7,1.1-1.4,2.1-2,3.1c-0.4,0.7-0.7,1.5-1.1,2.2c-0.6,0.9-1.2,1.8-1.8,2.7
	c-0.3,0.5-0.7,0.9-0.9,1.4c-0.4,1.1-1.1,2-2.1,2.7c-0.2,0.1-0.1,0.5-0.2,0.8c-0.2,0.3-0.5,0.6-0.6,0.9c-0.2,0.3-0.3,0.7-0.3,1
	c0,4.4,0,8.9,0,13.3c0,0.8,0,1.7-0.1,2.5c0,0.2,0,0.3,0,0.5c-0.2,0.4-1.4,0.4-0.6,1.3c0.4,0.4,1,0.7,1.3,1.1
	c0.3,0.5,0.4,1.1,0.6,1.6c-0.1,0.1-0.2,0.2-0.3,0.3c-0.3-0.2-0.6-0.3-0.8-0.5c-0.7-0.6-1.1-1.7-2.4-1.6c-0.2,0-0.5,0.1-0.7,0
	c-0.3-0.1-0.5-0.3-0.7-0.4c0.2-0.1,0.4-0.3,0.6-0.4c1.4-0.5,2.2-1.5,2.2-2.8c-1.5-0.4-2.9-0.8-4.4-1.4c-1.3-0.5-2.5-1.2-3.8-1.6
	c-0.8-0.3-1.7-0.5-2.6,0.5c-1,1.3-2.5,2.2-3.7,3.3c-0.5,0.4-0.9,1-1.3,1.5c-0.2,0.2-0.5,0.3-0.7,0.4c-0.7,0.5-1.4,1-2.1,1.6
	C211.1,230.9,210.4,231.9,209.1,231.6c-0.5-1.3,1-1.3,1.4-1.9c0.4-0.6,1.4-0.9,2.1-1.4c0.9-0.8,1.6-1.6,2.5-2.4
	c0.4-0.4,0.8-0.7,1.3-1.1c0.5-0.5,1.1-0.9,1.6-1.4c0.4-0.4,0.6-0.8,1-1.2c-0.1-0.1-0.1-0.2-0.2-0.3c-2,0.5-3.5-1.5-5.5-1
	c-0.1,0-0.2-0.2-0.4-0.2c-0.5-0.2-0.9-0.6-1.4-0.6c-0.8-0.1-1.6-0.1-2.4-0.1c-0.3,0-0.6-0.2-0.8-0.3c-0.4-0.2-0.7-0.5-1.1-0.6
	c-0.9-0.1-2.1,0.2-2.7-0.2c-1.3-1.1-2.6-0.6-4-0.8c-0.5-0.1-1-0.4-1.4-0.6c-0.3-0.1-0.6-0.2-0.9-0.3c-2.3-0.2-4.5-0.2-6.8-0.9
	c-2.3-0.7-5-0.2-7.5-1c-1.6-0.5-3.4-0.2-5.1-0.2c-1.5-0.1-3.2,0.2-4.5-0.3c-1.2-0.5-2.4-0.4-3.6-0.5c-0.1,0-0.2,0-0.2,0
	c-8.8,0-17.6,0-26.4,0c-1.9,0-3.8,0.5-5.7,0.7c-2.5,0.2-5-0.1-7.4,0.4c-2,0.4-3.9,0.7-5.9,0.7c-0.7,0-1.4,0.1-2,0.1
	c-0.3,0-0.5,0.1-0.8,0.2c-0.6,0.2-1.1,0.5-1.7,0.6c-1.3,0.1-2.9-0.3-3.9,0.3c-1.5,0.9-3,0.5-4.4,0.8c-0.3,0.1-0.6,0.1-0.9,0.2
	c-0.6,0.2-1.2,0.6-1.9,0.7c-0.9,0.2-2-0.2-2.6,0.3c-1,0.9-2.1,0.6-3.2,0.8c-0.4,0.1-1.1,0.1-1.2,0.3c-0.2,0.8-0.9,0.6-1.4,0.6
	c-0.8,0.1-2-0.2-2.3,0.2c-0.8,1-1.7,0.6-2.5,0.8c-0.3,0-0.7,0-0.8,0.2c-0.3,1.1-1.2,0.7-1.9,0.8c-0.4,0.1-0.8,0-1,0.2
	c-1.4,1-3.2,1.3-4.8,1.7c-0.7,0.2-1.2,0.3-1.3,1.1c-0.2,0.9,0.5,0.8,0.9,1.1c1.2,1.1,2,2.6,3.8,3c0.5,0.1,0.9,0.7,1.3,1.1
	c0.6,0.5,1.3,1.1,2,1.6c0.7,0.5,1.4,0.9,2.2,1.3c0.8,0.5,1.5,1.3,2.4,1.5c1.1,0.3,1.7,1.1,2.6,1.6c0.8,0.5,1.7,1,2.6,1.4
	c0.9,0.4,1.9,0.8,2.9,1.2c0.1,0,0.1,0.1,0.1,0.2c1,0.6,2,1.2,3.1,1.7c1.1,0.5,2.4,0.7,3.6,1.1c0,0,0.1,0,0.1,0.1
	c0.3,1.2,1.3,0.7,2,0.9c0.3,0.1,0.8,0,0.8,0.1c0.3,1.1,1.2,0.7,2,0.8c0.3,0,0.8,0,0.9,0.2c0.4,1,1.3,0.7,2,0.7c0.4,0,1,0,1,0.1
	c0.5,1.2,1.5,0.7,2.3,0.8c0.3,0.1,0.6,0.1,0.9,0.2c0.5,0.2,1,0.6,1.5,0.7c0.9,0.1,2.2-0.2,2.8,0.3c1.5,1.1,3,0.6,4.5,0.8
	c0.3,0,0.7,0,0.8,0.1c0.6,1.1,1.7,0.7,2.6,0.8c0.9,0.1,1.8,0,2.6,0.1c1.4,0,3.1-0.3,4.3,0.2c1.7,0.8,3.4,0.4,5.1,0.5
	c1.3,0.1,2.6,0,3.8,0c0.3,0,0.6,0,0.9-0.1c0.9-0.2,1.8-0.5,2.7-0.6c2-0.1,4-0.1,6-0.2c0.4,0,0.8-0.1,1.2-0.3
	c0.6-0.2,1.1-0.5,1.7-0.6c1-0.1,2.1-0.1,3.1-0.1c0.3,0,0.8,0,0.9-0.2c0.5-0.8,1.4-0.6,2.1-0.7c0.7,0,1.7,0.2,2-0.2
	c0.7-1,1.7-0.6,2.6-0.8c0.4-0.1,1.2,0,1.2-0.2c0.5-1.1,1.5-0.7,2.3-0.8c0.3,0,0.8,0,0.8-0.1c0.5-1.2,1.6-0.7,2.4-0.9
	c0.2-0.1,0.6-0.1,0.6-0.2c0.1-1.1,0.9-0.6,1.4-0.8c0.2-0.1,0.4-0.1,0.6-0.2c0.4-0.2,0.8-0.6,1.3-0.8c1.1-0.4,2.3-0.7,3.4-1.1
	c0.1,0,0.1-0.1,0.2-0.2c0.9-0.6,1.8-1.2,2.8-1.6c0.9-0.5,1.9-0.8,2.9-1.2c0.1,0,0.1-0.2,0.2-0.2c0.8-0.5,1.5-1.4,2.4-1.6
	c1.4-0.3,2.3-1.2,3.4-1.9c0.4-0.3,0.9-0.5,1.3-0.8c0.9-0.5,2.1-0.8,2.5-1.5C207.6,231.3,208.3,231.6,209.1,231.6z M90.5,216
	c-0.3,0.8,0.2,0.9,0.8,0.8c0.5,0,1.2,0.2,1-0.8C91.7,216,91.1,216,90.5,216c0-0.4,0.2-1-0.6-1c-0.2,0-0.4-0.2-0.4-0.3
	c-0.4-1-0.7-2-1-3c-0.1-0.2-0.2-0.3-0.3-0.4c-0.1,0-0.4,0.1-0.4,0.2c0,0.9,0,1.8,0.2,2.6c0.1,0.6,0.6,1,1,1.8
	C89.3,215.8,89.9,215.9,90.5,216z M149.3,207.1c-0.1,0.6,0,1,0.7,1c1,0,2,0,2.9,0c0.1-0.1,0.1-0.3,0.2-0.4c-0.3-0.2-0.5-0.5-0.8-0.6
	C151.3,207,150.3,207.1,149.3,207.1c-0.1-0.3-0.2-0.9-0.2-0.9c-1.1,0-0.8-0.8-0.8-1.4c0-0.9,0.1-1.9,0-2.9c0-0.2-0.3-0.5-0.4-0.7
	c-0.2,0.2-0.4,0.4-0.5,0.6c-0.2,0.6-0.3,1.2-0.6,2c0.1,0.3,0.4,1,0.5,1.6C147.5,207,147.7,207.2,149.3,207.1z M186.5,208.1
	c0.3,0,0.6,0,0.7,0c0.4-0.9,0.7-1.6,0.9-2.3c0.1-0.4,0.2-0.9,0-1.2c-0.4-0.6-1.2-1-1.5-1.7c-0.6-1.2-1.3-0.4-1.9-0.2
	c0.1,0.2,0.3,0.3,0.5,0.3c1,0.2,1.4,0.7,1.4,1.8C186.4,205.9,186.5,207,186.5,208.1c-0.6,0.1-1.2,0.2-1.8,0.3
	C185.9,209.3,186.4,209.2,186.5,208.1z M83.5,211.9c-0.6,0.1-1.2,0.2-1.7,0.3c0.6,1.3,1.4,2.4,1.6,3.5c0.2,1,0.3,1.9,1.1,2.7
	c0.5,0.6,1.4,0.5,1.9-0.1c-0.5-0.4-1.1-0.8-1.4-1.3c-0.3-0.5-0.4-1.1-0.4-1.7c0-0.1,0.7-0.2,1.1-0.4c0.2-0.1,0.5-0.3,0.7-0.4
	c-0.2-0.1-0.5-0.4-0.7-0.4c-0.7-0.1-1.4,0-2.1,0C83.6,213.2,83.5,212.5,83.5,211.9c0.6,0,1.2,0,1.9,0c0.1-0.1,0.1-0.2,0.2-0.3
	c-0.2-0.2-0.4-0.5-0.7-0.5C84.3,211,83.5,211,83.5,211.9z M199.3,207.2c-0.6,0-1.3-0.1-2.1-0.1c0.2-1.3-0.4-2.6,0.9-3.7
	c-0.6-0.1-1.1-0.1-1.7-0.1c0,0.7,0,1.3-0.1,1.9c0,0.3-0.1,0.7-0.2,1c-0.2,0.5-0.6,1-0.7,1.5c-0.1,0.8,0,1.6-0.2,2.4
	c-0.2,1.1,0.3,1,1.1,0.9c0-1,0-1.8,0-2.7c1.7-0.3,1.7-0.3,2,1.8c0.3,0,0.5,0,0.8,0c0.1,1.7,0.7,2.2,1.9,1.5
	c-0.3-0.3-0.8-0.6-0.8-0.9c-0.1-0.9-0.5-0.7-1.1-0.6C199.2,209.1,199.2,208.1,199.3,207.2c1-0.4,1.2-0.9,0.7-2.9c-0.5,0-1.1,0-1.4,0
	C198.8,205.3,199,206.3,199.3,207.2z M210.9,211.8c1,0,2,0,3,0c0.1,1.1,0.1,2,0.2,3.2c0.4-0.3,0.9-0.5,0.9-0.6
	c-0.1-1.9-0.2-3.8-0.4-5.7c0-0.3-0.6-0.6-1-0.7c-0.2,0-0.5,0.4-0.8,0.6c-0.1,0.1-0.1,0.3-0.2,0.4
	C211.6,209.7,211.1,210.7,210.9,211.8c-0.6,0.5-1.2,1-2.1,1.8c0.9,0.1,1.5,0.2,2.2,0.3C210.9,213.1,210.9,212.5,210.9,211.8z
	 M172.8,208c0-1.4,0-2.7,0-4.1c0-0.2,0.2-0.5,0.4-0.6c0.1-0.1,0.4,0.1,0.5,0.2c0.7,0.9,1.4,1.8,2.1,2.8c0.4,0.6,0.8,1.1,1.3,1.8
	c0.4,0,0.9,0,1.6,0c0-0.6,0-1.1,0-1.6c0-1.4,0.1-2.8,0.1-4.2c0-0.3,0-0.7-0.1-1c0-0.1-0.5-0.1-0.5,0c-0.2,0.3-0.3,0.6-0.3,0.9
	c0,1.1,0,2.2,0,3.3c0,0.2-0.2,0.5-0.4,0.6c-0.2,0-0.4-0.2-0.6-0.4c-0.4-0.5-0.8-1.1-1.2-1.6c-0.7-0.9-1.4-1.8-2.2-2.8
	c-1.3,0-1.4,0.1-1.4,1.4c-0.1,1.5-0.1,3-0.2,4.5C171.8,207.9,172,208.3,172.8,208z M158.9,203.8c0-0.1-0.1-0.3-0.1-0.4
	c-0.3,0-0.7-0.1-1-0.1c-0.7,0-0.9-0.3-0.9-1c-0.1-1.1,0.3-1.5,1.4-1.2c0.2,0.1,0.5-0.2,0.8-0.3c-0.1-0.2-0.2-0.5-0.4-0.5
	c-1.1,0-2.2,0-3.3,0c0,2.7,0,5.2,0,7.8c0.9,0,1.8,0.1,2.6,0c0.4,0,0.7-0.3,1.1-0.5c-0.3-0.1-0.7-0.4-1-0.4c-0.8,0.1-1.1-0.3-1.1-1
	c0-0.3,0-0.6,0-1c-0.1-0.8,0.2-1.2,1.1-1.1C158.2,204,158.6,203.9,158.9,203.8z M93.4,215.8c0.7,0,1.3,0,2,0c0.8,0,1.8-0.4,2.3,0.7
	c0.1,0.1,1,0.1,1.1-0.1c0.4-0.8,1-0.7,1.6-0.6c0.2,0,0.5-0.1,0.7-0.2c0-0.1,0-0.2,0-0.3c-0.4,0-0.8-0.1-1.2-0.1c-1.3,0-2.5,0-3.8,0
	c-0.8,0-1-0.3-1-1.1c0.1-1.2,0.1-2.4-0.6-3.7c-0.6-1.1-1.2-1.3-2.3-1.3c-0.7,0.1-1.4,0-2.1,0.1c-0.3,0-0.5,0.4-0.7,0.5
	c0.1,0.1,0.1,0.2,0.2,0.4c1.2,0,2.4,0,3.5,0c0.2,0.5,0.3,1,0.5,1.4c1,1.8,1,2.4-0.3,3.8C93.4,215.3,93.4,215.5,93.4,215.8z
	 M107.8,210c0.5,0.7,0.9,1.3,1.4,1.8c0.1,0.1,0.6,0,0.9,0c-0.1-0.3-0.1-0.6-0.2-0.8c-0.6-0.8-1.5-1.4-1.7-2.3
	c-0.4-1.6-1.6-2.3-2.5-3.5c-0.7,1.3-0.6,4.7,0.1,5.6C106.1,209.3,107.2,210.2,107.8,210z M145.1,208c0-2.6,0-5.1,0-7.5
	c-1.3-0.3-1.6,0.3-1.6,1.4c0.1,1.4,0.1,2.8,0.1,4.2c0,0.7,0,1.3,0,2C144.2,208,144.6,208,145.1,208z M131.8,201.3
	c-0.1,0.7-0.2,1.4-0.2,2.1c0,0.7,0,1.5,1,1.8c1.2,0.3,1.2,1.3,1.2,2.3c-0.1,1.1-0.9,0.6-1.4,0.6c-0.2,0-0.4,0.1-0.6,0.3
	c-0.1,0.1,0,0.4,0,0.4c0.6,0.1,1.2,0.1,1.9,0.1c0.2,0,0.5-0.4,0.7-0.7c0.3-0.6,0.5-1.2,0.8-1.9c-0.5-0.6-1-1.7-1.8-2.1
	c-0.9-0.4-0.8-1.1-0.8-1.7c0-0.2,0.9-0.2,1.3-0.4c0.3-0.1,0.5-0.3,0.7-0.4c-0.2-0.2-0.4-0.5-0.6-0.5
	C133.2,201.2,132.6,201.3,131.8,201.3z M191.2,202.5c-0.2,0-0.3,0-0.5,0c-0.1,0.5-0.2,1-0.2,1.6c-0.1,0.7,0.1,1.5-0.3,2
	c-1.1,1.2-0.5,2.6-0.8,3.9c0.5,0,0.8,0,1,0c0.3-0.1,0.7-0.2,1-0.4c-0.2-0.2-0.5-0.4-0.7-0.6c-0.1-0.2-0.3-0.6-0.3-0.7
	c0.7-0.4,0.7-1.8,2-1.4c0.2,0.1,0.5-0.3,0.8-0.4c-0.2-0.1-0.5-0.4-0.7-0.4c-1.2,0.2-1.3-0.4-1.3-1.4
	C191.4,204.1,191.3,203.3,191.2,202.5z M165.4,208c0.8,0,1.8,0,2.8,0c0.2,0,0.3-0.3,0.5-0.5c-0.2-0.1-0.3-0.4-0.5-0.4
	c-0.6,0-1.1,0-1.7,0c-1.1,0-1.6-0.5-1.6-1.6c0-0.9,0-1.8,0.1-2.8c0.1-0.7,0.3-1.4,0.5-2.2c-1.1-0.5-1.4-0.4-1.5,0.5c0,1.7,0,3.4,0,5
	c0,0.3,0.2,0.7,0.4,0.9C164.6,207.3,164.9,207.6,165.4,208z M207.3,212.8c-0.3-0.4-0.5-0.6-0.6-0.9c-0.1-0.2-0.4-0.6-0.4-0.7
	c1.1-1,0.6-2.3,0.8-3.5c0-0.3,0.1-0.5,0.2-0.8c0.2-0.5,0.4-0.9,0.6-1.4c-0.5-0.2-1-0.3-1.8-0.6c0,1.5,0,2.6,0,3.8c0,0.4,0,0.9-0.2,1
	c-1.2,0.8-0.5,2-0.7,3C205.9,212.8,206.5,212.8,207.3,212.8z M217.1,208.3c0,0.1-0.1,0.2-0.1,0.3c1.5,0.8,0.7,2.2,0.8,3.3
	c0.1,1.2,0,2.5,0,3.8c0.1,0.1,0.3,0.1,0.4,0.2c0.5-0.7,1-1.4,1.5-2.2c0.1-0.1-0.2-0.6-0.3-0.6c-0.9-0.1-0.7-0.7-0.7-1.3
	c0-1.2,0-2.4,0-3.8C218.2,208.1,217.7,208.2,217.1,208.3z M183.1,201.6c-1-0.4-1.5-0.1-1.4,1c0,1.2,0,2.4,0,3.6c0,0.3-0.1,0.7-0.3,1
	c-0.2,0.6-0.5,1.1-0.9,1.8c1,0,1.5,0,2.2,0C182.6,206.5,182.2,204,183.1,201.6z M138.6,202c0,2.2,0,4.1,0,6.2
	c0.7-0.2,1.2-0.3,1.6-0.5c-1.4-2.2-0.3-4.5-0.8-6.6c-1.9-0.1-3.4,0.2-3.7,0.8C136.6,202,137.4,202,138.6,202z M123,202.4
	c0.3,2.1,0.6,4.2,1.1,6.2c0.1,0.2,1.4,0.6,1.6,0.4c0.7-0.9-0.4-0.7-0.9-1.1c0-1.8,0-3.6,0-5.5C124,202.4,123.5,202.4,123,202.4z
	 M110.6,204.4c0.6,2.5,1.2,4.9,1.7,7.3c0.1,0,0.3,0,0.4,0c0.1-0.6,0.4-1.2,0.3-1.7c-0.3-1.9-0.7-3.7-1-5.6c0-0.1-0.1-0.1-0.2-0.3
	C111.3,204.2,110.9,204.3,110.6,204.4z M121.7,211.1c-0.1-1.4,0.2-2.8-0.3-3.5c-0.8-1.1-0.5-2.1-0.6-3.1c-0.1-0.7-0.2-1.3-0.3-2.2
	C119.3,204,120.1,209.8,121.7,211.1z M221.7,216.8c0.1,0.1,0.2,0.1,0.3,0.2c0.5-0.4,1-0.8,1.5-1.3c0.1-0.1,0.2-0.3,0.1-0.4
	c0-0.1-0.1-0.4-0.2-0.4c-0.9-0.1-0.7-0.8-0.7-1.3c0-1.2,0-2.4,0-3.6c-0.1-0.1-0.2-0.2-0.4-0.2c-0.5,0.5-1.1,1-1.6,1.6
	c0,0,0.2,0.3,0.3,0.5c0.2,0.3,0.5,0.6,0.6,0.9C221.8,214.2,221.7,215.5,221.7,216.8z M95.7,207.3c0.3,0.8,0.5,1.3,0.7,1.9
	c0.4,1.4,0.7,2.8,1.1,4.2c0.1,0.3,0.8,0.4,1.2,0.5c0.2,0,0.4-0.2,0.6-0.4c-0.2-0.2-0.5-0.4-0.7-0.6c-0.1-0.1-0.3-0.2-0.3-0.3
	c-0.4-1.4-0.7-2.9-1-4.3c-0.1-0.3-0.1-0.7-0.2-1.1C96.6,207.2,96.1,207.3,95.7,207.3z M100.7,206.3c0.2,1,0.6,1.8,0.6,2.6
	c-0.1,1.4,0.7,2.1,1.7,2.9c0.1-0.5,0.2-1.3,0-1.5c-0.8-0.4-0.6-1-0.6-1.6c0-0.8,0-1.6,0-2.4C101.5,206.3,101,206.3,100.7,206.3z
	 M169.5,200.6c-0.1,0-0.2,0-0.3,0c-0.1,0.4-0.2,0.9-0.2,1.3c0,1.3-0.1,2.6,0,3.9c0,0.3,0.2,0.7,0.3,1c0.2-0.3,0.5-0.7,0.5-1
	c0.1-1.4,0-2.9,0-4.3C169.8,201.2,169.6,200.9,169.5,200.6z M153.4,200.2c-1.9,0.1-3.4,0.2-5.1,0.3c0.2,0.4,0.3,0.5,0.3,0.5
	c1.4,0.1,2.8,0.2,4.1,0.2C152.9,201.2,153,200.7,153.4,200.2z M129.4,204.5c-1,1.2-0.9,2.8,0,3.6
	C129.4,206.8,129.4,205.6,129.4,204.5z M104.4,211.1c-0.1,0.7-0.2,1.2-0.3,1.8c0.7,0,1.3-0.1,1.8-0.1c-0.1-0.4-0.3-0.6-0.5-0.8
	C105.2,211.8,104.9,211.6,104.4,211.1z M128.4,201.5c-0.1,0-0.3,0-0.4,0c0,0.8,0,1.5,0,2.3c0.1,0,0.3,0,0.4,0
	C128.4,203.1,128.4,202.3,128.4,201.5z M100.8,213.7c0.3,0,0.8,0.1,1.5,0.2c-0.1-0.7-0.2-1.2-0.3-1.7c0.1,0.1,0.1,0.3,0.2,0.4
	C101.7,213,101.3,213.4,100.8,213.7z M115.2,209.8c-0.4,0.3-0.8,0.5-1.1,0.7c0.3,0.1,0.7,0.4,1.1,0.4c0.2,0,0.5-0.3,0.7-0.4
	C115.7,210.3,115.4,210.1,115.2,209.8z"/>
<path class="st0" d="M156.9,120c1.8-0.1,3.3-0.2,4.8-0.2c0.9,0,1.8,0.1,2.4-0.7c0.1-0.2,0.6-0.2,0.9-0.2c1.1,0,2.2,0,3.4-0.1
	c0.9-0.1,1.7-0.4,2.6-0.6c0.8-0.1,1.6-0.2,2.4-0.3c1.6-0.1,3.3,0.3,4.9-0.7c0.4-0.3,1-0.2,1.5-0.2c2.8,0,5.7,0,8.4,0
	c2-2.3,0.9-4.9,1.3-7.3c0.2-0.9-0.7-2.2,0.8-2.8c-0.1-0.2-0.2-0.6-0.3-0.6c-0.5-0.1-1-0.1-1.5-0.1c-11.5,0-23,0-34.4,0
	c-8.2,0-16.5,0-24.7-0.1c-0.4,0-0.7,0-1.1,0c-0.2,0-0.3-0.3-0.5-0.4c0.1-0.2,0.3-0.4,0.4-0.4c0.5-0.1,1-0.1,1.6-0.1
	c21.2,0,42.3,0,63.5,0c1.4,0,2.9-0.1,4.3,0c0.3,0,0.6,0.3,0.8,0.5c-0.3,0.1-0.6,0.4-0.9,0.4c-1.4,0-2.7,0-4.1,0.1
	c-0.3,0-0.9,0.3-0.9,0.5c0.1,1.1,0.3,2.2,0.5,3.4c0.1,0.7,0.4,1.3,0.4,2c0.1,1.6,0,3.2,0,4.9c0.9,0,1.5,0,2.1,0c2.7,0,5.4,0,8,0.1
	c0.7,0,1.5-0.2,2,0.7c0.1,0.2,0.5,0.2,0.8,0.2c0.6,0,1.3,0,1.9,0.1c1.5,0.2,2.9-0.1,4.5,0.7c1.2,0.6,3,0.2,4.5,0.3
	c0.7,0,1.4,0,2,0.6c0.5,0.4,1.5,0.3,2.3,0.3c1.3,0.1,2.7,0.1,4,0.4c-0.7,0.6-0.8,1.8-2,1.8c-0.7,0-0.9,1.3-0.5,1.9
	c0.3,0.3,0.5,0.7,0.6,1.2c0.2,1,0.2,1.9,0.8,3c0.8,1.4,0.9,3.2,1.3,4.8c0.1,0.3,0.1,0.5,0.2,0.8c0.2,0.7,0.6,1.3,0.7,2
	c0.2,0.7-0.2,1.6,0.8,2.1c0.1,0.1,0.1,0.4,0.1,0.7c0.2,0.8-0.2,1.9,0.9,2.4c0,0,0,0.1,0,0.1c0.4,1.5,0.8,3,1.1,4.5
	c0.2,0.7-0.2,1.6,0.8,2.1c0.1,0,0.2,0.3,0.1,0.4c-0.4,1.5,0.9,2.5,1.2,3.8c0.1,0.2,0.6,0.4,0.9,0.5c1,0.1,2,0,3,0
	c0.3,0,0.6,0.2,0.7,0.4c0.1,0.2-0.2,0.5-0.4,0.7c-0.4,0.5-1,0.9-1.3,1.5c-0.7,1-1.4,1.6-2.7,1.6c-7.2-0.1-14.4,0-21.6,0
	c-0.7,0-1.4-0.1-2.2-0.2c-0.1-0.6-0.1-1.1-0.2-1.6c-0.1,0-0.1,0.1-0.2,0.1c-0.3-0.5-0.6-0.9-0.8-1.4c-0.3-0.8,0-1.1,0.8-1.1
	c1-0.1,1.6-0.7,2.3-1.5c0.8-0.9,0.7-1.8,1-2.7c0.4-1.2,1.1-2.3,1.7-3.4c0.1-0.3,0.1-0.7,0.2-1c0.1-0.4,0.4-0.7,0.6-1
	c0.1-0.2,0.2-0.3,0.3-0.5c0.4-1.3,0.4-2.9,1.2-3.7c1.1-1.1,0.2-2.9,1.7-3.7c0.1-0.1,0-0.5,0.1-0.7c0.2-0.5,0.4-0.9,0.7-1.4
	c0.1-0.1,0.1-0.2,0.2-0.3c0.4-1.3,0.4-2.9,1.2-3.8c0.9-1.1,0.5-2.3,1.1-3.1c0.4-0.6,0.8-1,0.8-1.7c0-1-0.3-1.4-1.4-1.4
	c-6.1,0-12.2,0-18.4,0c-1,0-2.1,0-3.1,0c-1.5,0-3.2-0.4-4.5,1.2c0,1,0.1,2.2,0,3.4c-0.2,1.4,0.6,2.2,1.5,3c0.5,0.4,0.6,0.6,0,1
	c-0.6,0.4-1.1,1-1.4,1.7c-0.5,1.1,0.6,1.7,1.2,2.1c0.6,0.4,0.6,0.8,0.6,1.4c0,4.4,0,8.8,0.1,13.2c0,3.2,0,6.5,0.1,9.7
	c0,0.4,0.3,0.8,0.5,1.3c0.1,0.2,0.3,0.4,0.3,0.6c0,1.4,0,2.8,0,4.1c-0.9,0.6-2.1-0.2-3,1.1c0.9,0.1,1.6,0.2,2.2,0.1
	c1.4-0.2,2.1,0.8,2.8,1.6c0.7,0.8,1.4,1.6,2.2,2.4c0.7,0.7,1.6,1.2,1.9,2.2c0.1,0.2,0.1,0.4,0.3,0.5c1,0.4,2,0.8,2.9,1.2
	c0.2,0.1,0.4,0.3,0.6,0.4c0.2,0.2,0.4,0.4,0.7,0.5c0.5,0.2,1.3-0.2,1.3,0.8c0,0,0.1,0.1,0.2,0.1c1,0.4,2,0.7,2.9,1.1
	c1,0.5,1.8,1.1,2.7,1.7c0.8,0.4,1.6,0.8,2.3,1.2c0.3,0.1,0.4,0.4,0.7,0.6c-0.2,0.2-0.4,0.4-0.7,0.5c-0.3,0.1-0.7,0-1.1,0
	c-16.2,0-32.3,0-48.5,0c-0.2,0-0.4,0.1-0.6,0c-0.4-0.1-0.8-0.4-1.2-0.5c0.4-0.2,0.7-0.4,1.1-0.6c0.5-0.3,1.4-0.5,1.6-0.9
	c0.4-1.2,2.2-0.5,2.5-1.8c0-0.1,0.5-0.1,0.7-0.2c0.4-0.2,0.7-0.4,1.1-0.7c0.1-0.1,0.2-0.3,0.3-0.3c1.3-0.1,2-0.8,2.8-1.8
	c0.1-0.1,0.4-0.1,0.7-0.2c0.5-0.1,1.2,0.2,1.2-0.8c0-0.1,0.2-0.2,0.4-0.2c1.3,0.1,1.8-0.9,2.6-1.8c0.7-0.9,1.7-1.6,2.6-2.4
	c0.4-0.3,0.8-0.6,1.1-1.1c0.9-1.6,2.3-1.9,4-1.8c0.6,0.1,1.2-0.1,1.8-0.2c0-0.2,0-0.3,0-0.5c-0.8-0.1-1.7-0.3-2.6-0.4
	c0-0.2-0.1-0.5-0.1-0.8c0-6,0-12.1,0.1-18.1c0-0.6,0.4-1.2,0.6-1.8c0.1-0.3,0.2-0.7,0.2-1c0-2.2,0.2-4.5,0.1-6.7
	c-0.1-1.5,0.7-2.4,1.9-3.3c-0.5-0.6-1-1.2-1.5-1.8c-0.1,0-0.2,0.1-0.3,0.1c0-0.8,0-1.7,0-2.5c1.1-0.6,1.8-1.5,1.7-2.8
	c0-0.6,0-1.2,0-1.8c0-1.3-0.9-2.3-2.1-2.3c-8,0-15.9,0-23.9,0c-0.4,0-1.1,0.3-1.1,0.5c-0.1,0.7-0.3,1.8,0.1,2.1
	c0.6,0.5,0.6,0.9,0.7,1.5c0.1,0.9-0.4,2.1,0.9,2.7c0,0,0,0.1,0,0.1c0.4,1.5,0.7,3.1,1.1,4.6c0.1,0.4,0.5,0.8,0.6,1.3
	c0.2,0.6,0.2,1.2,0.3,1.7c0.1,0.7-0.2,1.6,0.9,2c0.1,0,0.1,0.3,0.2,0.5c0.1,0.9,0.3,1.8,0.7,2.7c0.7,1.4,0.8,3.2,1.3,4.8
	c0.1,0.5,0.5,1,0.7,1.6c0.2,0.5,0.3,1.1,0.3,1.7c0.1,1.3,1.1,2.2,2.3,2.2c0.8,0,1.7,0,2.5,0c0.3,0,0.6,0.3,0.9,0.4
	c-0.2,0.2-0.4,0.4-0.6,0.6c-0.4,0.5-0.8,1.2-1.3,1.6c-0.6,0.5-0.8,1.5-1.8,1.5c-7.9,0-15.8,0-23.8,0c-0.2,0-0.5-0.1-0.4-0.3
	c-0.7-0.9-1.5-1.8-2.2-2.8c-0.1-0.2,0-0.9,0.1-0.9c1.1-0.3,2.3-0.6,3.4-0.8c0.5-0.9-0.2-2,1-2.4c0.1,0,0.1-0.5,0.2-0.8
	c0.1-0.7,0.2-1.3,0.7-2.1c0.5-0.7,0.8-2,1.2-3c0.3-0.6,0.1-1.3,0.8-2c0.7-0.7,0.8-2.1,1.2-3.2c0.2-0.6-0.2-1.3,0.8-1.5
	c0.1,0,0.1-0.1,0.1-0.2c0.4-1.2,0.7-2.5,1.1-3.7c0.5-1.3,1.1-2.5,1.7-3.8c0-0.1,0.1-0.1,0.2-0.2c0.4-1.2,0.7-2.4,1.1-3.5
	c0.1-0.4,0.4-0.8,0.6-1.1c0.5-0.5,0.3-1.6-0.3-1.9C158.4,121.6,158.2,121.4,156.9,120z M220.9,126.2c0,0.1-0.1,0.4-0.1,0.8
	c0,0.5,0.1,1.3-0.1,1.4c-0.9,0.4-0.8,1.2-0.9,2c0,0.1-0.1,0.3-0.1,0.3c-1,0.2-0.7,1.1-0.8,1.7c-0.1,0.4-0.4,0.8-0.7,1.2
	c-0.1,0.2-0.2,0.4-0.2,0.6c0,1.4-1.5,2.4-1.2,3.9c0,0.1-0.2,0.2-0.3,0.3c-0.2,0.2-0.4,0.4-0.5,0.7c-0.4,1.3-0.6,2.7-1.3,3.9
	c-0.4,0.7-0.7,1.3-0.7,2c0,0.1-0.1,0.3-0.2,0.4c-0.3,0.6-0.6,1.1-0.8,1.7c-0.1,0.3,0,0.7-0.2,0.9c-0.5,0.9-1,1.7-1.5,2.6
	c-0.1,0.1,0,0.4,0.1,0.4c0.7,0.4,1.3,1,2,1c5,0.1,9.9,0,14.9,0.1c1.2,0,1.6-0.7,1.4-1.6c-0.3-1.9-0.8-3.7-1.2-5.5
	c0-0.1,0-0.2-0.1-0.2c-1-0.4-0.7-1.4-0.8-2.1c0-0.4-0.2-0.8-0.3-1.1c-0.2-0.4-0.5-0.9-0.6-1.3c-0.4-1.7-0.8-3.4-1.1-5.1
	c0-0.1,0-0.2-0.1-0.2c-1.2-0.4-0.7-1.4-0.8-2.2c0-0.3,0-0.7-0.1-0.8c-1.1-0.5-0.7-1.4-0.8-2.2c-0.1-0.3,0-0.8-0.2-0.9
	c-1.1-0.5-0.6-1.5-0.8-2.3c-0.1-0.5-0.2-1.1-0.3-1.7C221.8,125.4,221.4,125.7,220.9,126.2z M166.9,145.1c-0.1-0.9,0.1-2.1-0.4-2.5
	c-0.6-0.6-0.6-1.2-0.7-1.9c0-0.4,0-1-0.2-1.1c-0.9-0.6-0.8-1.5-0.8-2.3c0-1.5-1.5-2.6-1.1-4.2c0,0-0.1-0.2-0.1-0.2
	c-1-0.2-0.6-1-0.7-1.6c-0.1-0.5-0.1-1-0.3-1.5c-0.1-0.4-0.5-0.8-0.6-1.2c-0.2-1,0.3-2.3-1-2.9c-0.2-0.1-0.4-0.4-0.6-0.7
	c-0.1,0.3-0.3,0.6-0.4,0.9c-0.4,1.2-0.7,2.4-1,3.6c0,0.1-0.2,0.2-0.2,0.3c-0.2,0.4-0.5,0.8-0.7,1.3c-0.4,1.2-0.8,2.3-1.2,3.5
	c0,0.1-0.1,0.1-0.2,0.2c-0.2,0.4-0.5,0.7-0.6,1.1c-0.4,1.2-0.7,2.4-1.1,3.5c0,0-0.1,0.1-0.1,0.1c-0.6,1.3-1.3,2.7-1.8,4
	c-0.5,1.2-0.4,2.7-1.2,3.5c-0.9,0.9-0.7,1.7-0.9,2.6c0,0.2-0.1,0.5-0.2,0.5c-1,0.2-0.7,1-0.5,1.5c0.2,0.3,0.8,0.5,1.3,0.5
	c5.2,0,10.4,0,15.6,0c1.4,0,1.6-0.3,1.4-1.9c-0.6,0.2-1.5-0.3-1.8,0.8c0,0.1-1.2,0-1.8-0.1c-0.2,0-0.3-0.4-0.5-0.6
	c-0.9-0.6-1.7-1.2-1.6-2.4c0.1-0.4,0-0.9,0-1c0.5-0.6,0.9-1,1.4-1.6C164.9,145.2,165.8,145.2,166.9,145.1z"/>
<path class="st0" d="M78.7,78.7c-0.4-1.1,0.8-1.3,1.2-2c0.7-1.1,1.8-1.9,2.7-2.8c1-1,2-2,3.1-2.9c0.6-0.5,1.3-0.7,1.9-1.2
	c0.6-0.5,1.2-1.1,1.8-1.6c0.4-0.4,0.8-1,1.3-1c1.1,0,1.6-0.8,2.3-1.3c1.3-0.8,2.4-1.8,3.7-2.6c0.9-0.6,1.9-0.9,2.8-1.4
	c0.9-0.5,1.8-1.2,2.7-1.7c0.8-0.4,1.8-0.6,2.4-1.2c0.8-0.8,2.1-0.5,2.6-1.6c0-0.1,0.1-0.1,0.2-0.2c1.2-0.4,2.4-0.7,3.5-1.1
	c0.4-0.1,0.7-0.4,1.1-0.6c0.1-0.1,0.2-0.2,0.2-0.2c1,0.1,1.7-0.5,2.5-0.9c0.8-0.4,1.7-0.4,2.5-0.9c1.3-0.8,3.1-0.8,4.6-1.2
	c0.6-0.2,1.1-0.4,1.7-0.7c0.1-0.1,0.2-0.2,0.4-0.3c1.8-0.4,3.5-0.8,5.3-1.1c0.9-0.2,1.8-0.2,2.8-0.6c1.2-0.5,2.8-0.2,4.1-0.4
	c0.8-0.1,1.6-0.4,2.4-0.6c0.5-0.1,0.9-0.2,1.4-0.2c6.9,0,13.8,0,20.7,0c0.4,0,0.9,0.4,1.3,0.5c0.3,0.1,0.7,0.3,1,0.3
	c1.2,0.1,2.4,0,3.6,0.2c0.9,0.1,1.7,0.5,2.5,0.7c0.8,0.2,1.6,0.1,2.4,0.3c0.8,0.1,1.6-0.2,2.3,0.7c0.2,0.3,1,0.1,1.5,0.2
	c0.9,0.1,1.9-0.2,2.4,0.8c0,0.1,0.1,0.1,0.2,0.1c1.6,0.4,3.4,0.4,4.7,1.2c1.2,0.7,2.9,0.3,3.8,1.6c0.1,0.2,0.5,0.1,0.8,0.2
	c0.7,0.2,1.7-0.3,2.1,0.9c0,0.1,0.6,0,0.9,0.1c0.4,0.2,0.7,0.4,1.1,0.6c0.1,0,0.1,0.2,0.1,0.2c1-0.1,1.8,0.6,2.6,1
	c0.9,0.5,2.2,0.5,2.9,1.2c0.6,0.7,1.6,0.5,1.9,0.9c0.5,0.7,1.2,0.8,1.9,1.1c1.1,0.5,2.4,1,3.1,1.9c1,1.2,2.9,1.1,3.4,2.7
	c1.1-0.2,1.5,0.9,2.4,1.2c0.5,0.2,0.3,1.2,1.2,0.9c0.2,1.2,1.6,0.7,2.2,1.7c0.5,0.9,1.8,1.4,2.7,2.2c1.3,1,2.6,2,3.8,3.1
	c0.8,0.8,1.4,1.8,2.2,2.6c0.8,0.8,1.8,1.4,2.6,2.2c0.8,0.9,1.6,1.9,2.3,2.9c0.5,0.6,1,1.3,1.6,1.9c0.8,0.9,1.6,1.9,2.3,2.8
	c0.6,0.7,1.3,1.4,1.7,2.1c0.5,0.9,1.7,1.5,1.2,2.9c0,0-0.1,0.1-0.1,0.1c-0.3-0.2-0.7-0.3-0.9-0.5c-0.4-0.4-0.8-1-1.1-1.5
	c-0.3-0.4-0.6-0.8-0.9-1.2c-0.4-0.5-0.7-1-1-1.5c-0.6-0.8-1.4-1.5-2-2.2c-0.6-0.7-1.2-1.5-1.8-2.3c-0.4-0.5-0.7-1-1.1-1.4
	c-0.8-0.8-1.8-1.4-2.6-2.2c-0.8-0.8-1.4-1.7-2.2-2.6c-0.3-0.4-0.7-0.8-1.1-1.1c-1.4-1.1-2.9-2.1-4.2-3.3c-0.9-0.8-1.7-1.7-2.6-2.5
	c-0.6-0.5-1.5-0.9-2.2-1.4c-0.7-0.5-1.3-1.1-2.1-1.8c-1,0-1.7-0.8-2.5-1.7c-0.1-0.1-0.3-0.3-0.5-0.3c-1.2,0-1.8-1-2.6-1.7
	c-0.1-0.1-0.1-0.1-0.2-0.2c-1-0.4-2-0.8-2.9-1.3c-0.9-0.5-1.7-1.1-2.6-1.7c-0.1,0-0.1-0.1-0.2-0.1c-1-0.4-2.4-0.5-3.1-1.2
	c-0.8-0.9-2.4-0.3-2.8-1.7c0-0.1-0.4-0.1-0.7-0.1c-0.5-0.1-1.3,0.2-1.4-0.7c0-0.1-0.1-0.1-0.2-0.1c-1.5,0.4-2.5-1.1-3.9-1.1
	c-0.6,0-1.3,0.2-1.5-0.7c0-0.1-0.3-0.2-0.5-0.2c-0.9-0.1-1.8-0.6-2.6-0.7c-1.5-0.2-2.9-1-4.4-1.2c-0.9-0.1-1.9,0.3-2.7-0.8
	c-0.2-0.3-1.1-0.2-1.7-0.2c-1.2-0.1-2.4,0.1-3.4-0.8c-0.1-0.1-0.3-0.1-0.5-0.1c-3.6-0.3-7.1-0.9-10.7-1c-5.1-0.1-10.3-0.3-15.3,0.2
	c-2.4,0.2-5,0.2-7.3,0.9c-1.5,0.4-3,0.3-4.3,0.9c-1.4,0.7-3,0.4-4.1,1c-1.2,0.7-2.6,0.4-3.5,1c-1.1,0.7-2.5,0.4-3.2,1
	c-0.9,0.8-2.3,0.4-2.7,1c-0.8,1-2.4,0.3-2.9,1.6c0,0.1-0.1,0.1-0.2,0.1c-1.5-0.4-2.4,0.9-3.7,1.3c-1,0.2-1.8,1-2.7,1.6
	c-0.2,0.1-0.4,0.1-0.7,0.2c-0.5,0.2-1.3,0-1.4,0.8c0,0.1-0.2,0.2-0.3,0.2c-1.7,0.2-3,1.2-4.2,2.1c-1.2,0.9-2.7,1.3-3.7,2.5
	c-0.5,0.6-1.7,0.7-2.3,1.4c-0.8,1-2.1,1-3,1.9c-0.2,0.2-0.1,0.7-0.4,0.8c-1,0.7-2.1,1.4-3.2,2.1c-0.5,0.4-1,0.8-1.5,1.2
	c-1.3,1.3-2.7,2.5-4,3.8c-0.7,0.7-1.4,1.3-2.2,1.9C79.3,78.9,79,78.8,78.7,78.7L78.7,78.7z"/>
<path class="st0" d="M148.2,273.3c0-4.6,0-9.3,0-13.9c0-0.5-0.5-1.2-0.9-1.3c-1.1-0.4-1-1.1-0.8-2c3.9,0,7.8,0,11.6,0
	c0.3,0,0.6,0.3,0.9,0.5c0.2,0.1,0.4,0.4,0.5,0.4c1.3-0.1,1.9,0.8,2.6,1.7c0.4,0.5,1,0.9,1.5,1.3c0.1,0.1,0.3,0.2,0.3,0.3
	c0.4,2.4,1.5,4.6,1,7.1c-0.2,1-0.6,2-1.1,3c-0.3,0.6-0.9,0.9-1.4,1.4c-0.5,0.5-0.9,0.9-1.4,1.4c-0.2,0.2-0.5,0.4-0.8,0.5
	c-3.5,1.8-7.3,0.8-10.9,1.2c-0.3,0-0.6,0.1-0.8,0c-0.4-0.1-0.9-0.4-1.3-0.5C147.5,274,147.8,273.7,148.2,273.3z M153,257.2
	c-0.2,1.4-0.9,2.9-0.4,4c0.7,1.7,0.4,3.4,0.5,5.1c0.1,1.9,0.1,3.9,0.1,5.9c0,1.1,0.5,1.6,1.6,1.5c1.5,0,2.5-0.6,3.5-1.8
	c1.2-1.4,1.7-3,1.7-4.7c0-1.5-0.1-3-0.7-4.6c-0.6-1.4-0.8-2.9-2-4c-1-0.9-1.9-1.9-3.5-1.5C153.7,257.1,153.6,257.1,153,257.2z"/>
<path class="st0" d="M115.1,268.8c-0.8,0-1.6,0-2.4,0c-0.6,0-1.4,0.2-1.6-0.8c0-0.1-0.3-0.2-0.5-0.2c-1.2,0-1.8-0.9-2.5-1.7
	c-0.3-0.3-0.7-0.5-0.9-0.8c-0.6-0.9-1.5-1.7-1.6-2.7c-0.3-2.1-0.1-4.3-0.2-6.4c0.9-0.3,0.5-1.4,0.9-1.7c1-0.6,0.9-1.7,1.6-2.5
	c1.1-1.2,2.7-1.5,3.7-2.6c0.2-0.2,0.8-0.2,1.1-0.2c1,0,1.9,0,2.9-0.1c1.8-0.1,3.2,1,4.8,1.6c1.4,0.5,2,1.9,3.2,2.5
	c0.2,0.1,0.2,0.4,0.2,0.6c0.1,0.5-0.1,1.2,0.8,1.4c0.1,0,0.2,0.6,0.2,0.9c0,1.8,0.1,3.5,0,5.3c0,0.5-0.4,0.9-0.6,1.3
	c-0.1,0.2-0.3,0.4-0.3,0.6c0,1.3-0.8,2-1.7,2.6c-0.3,0.2-0.7,0.6-0.8,0.9c-0.4,1.3-2.2,0.5-2.6,1.8c0,0.1-0.4,0.1-0.7,0.1
	C117,268.8,116.1,268.8,115.1,268.8C115.1,268.8,115.1,268.8,115.1,268.8z M116.3,250.5c-0.4,1.2-2.2,0.3-2.6,1.7
	c-0.3,0.8-1,1.5-1.6,2.3c-0.1,0.2-0.1,0.6-0.2,0.6c-0.9,0.1-0.7,0.8-0.8,1.4c-0.1,0.4,0,0.9-0.3,1.1c-1.3,1.1-0.6,2.9-1.5,4.3
	c-0.5,0.9-0.5,2.3,0.7,3.3c0.9,0.8,1.6,1.8,2.5,2.5c0.3,0.2,1,0.2,1.4,0c0.6-0.3,1.2-0.8,1.8-1.2c0.3-0.2,0.7-0.4,0.9-0.7
	c0.4-0.4,1-0.8,1.2-1.3c0.6-1.3,1.1-2.7,1.9-3.9c0.7-1.2,1-2.6,1.1-4c0.1-1.2,0.4-2.6-0.7-3.7c-0.7-0.7-1.2-1.6-2.2-1.8
	C117.3,251,116.9,250.7,116.3,250.5z"/>
<path class="st0" d="M233.6,92.3c0.5-0.1,0.7,0.1,1.1,0.5c1.1,1.1,1.1,2.9,2.6,3.6c0.1,0,0.1,0.2,0.2,0.3c0.7,1.4,1.2,3,2.1,4.3
	c0.8,1.2,1.4,2.4,1.9,3.7c0.4,1.1,1.2,2.2,1.7,3.3c0.1,0.3,0.1,0.6,0.2,0.9c0.1,0.3,0.4,0.7,0.6,1c0,0.1,0.2,0.1,0.2,0.1
	c-0.1,1.1,0.6,1.9,1,2.9c0.3,0.7-0.4,1.9,1,2.2c0.1,0,0.1,0.4,0.1,0.7c0.1,0.8-0.1,1.7,0.8,2.2c0.1,0,0.1,0.2,0.1,0.3
	c0.1,1,0.4,1.9,0.8,2.9c0.7,1.9,0.9,3.9,1.3,5.9c0.1,0.5,0.4,1,0.6,1.6c0.1,0.5,0.2,1.1,0.3,1.6c0.2,1.5-0.3,3.1,0.8,4.6
	c0.4,0.5,0.1,1.4,0.2,2.1c0.1,2,0.1,4.1,0.2,6.1c0,0.2,0,0.6,0.1,0.7c1.2,0.8,0.7,1.9,0.7,2.9c0.1,2,0,3.9,0,5.9c0,1,0.1,2-0.6,3
	c-0.5,0.8-0.2,2.1-0.3,3.2c-0.1,1.5,0.2,3.1-0.2,4.5c-0.5,2.2-0.5,4.6-1.2,6.7c-0.4,1.3-0.5,2.6-0.7,3.9c0,0.2-0.1,0.5-0.2,0.7
	c-0.2,0.5-0.6,0.9-0.7,1.4c-0.2,1,0.2,2.1-0.9,2.8c0,0,0,0.1,0,0.1c-0.4,1.6-0.8,3.1-1.2,4.7c-0.1,0.3-0.4,0.6-0.6,0.9
	c-0.1,0.1-0.3,0.1-0.3,0.2c0.4,1.3-1,1.9-1.1,3.1c0,0.6,0.3,1.4-0.8,1.8c-0.3,0.1-0.2,1.2-0.4,2.2c-0.5-0.4-0.9-0.7-1-1
	c-0.4-1.8,0-3,1.1-3.3c0.2-0.7-0.1-1.7,1-2c0.1,0,0.1-0.5,0.1-0.8c0.1-0.5-0.2-1.1,0.6-1.2c0.1,0,0.2-0.2,0.2-0.2
	c-0.4-1.7,1.2-2.8,1.1-4.5c0-0.4,0.4-0.8,0.6-1.2c0.1-0.4,0.2-0.7,0.3-1.1c0.2-1-0.3-2.1,0.8-2.9c0.4-0.3,0.1-1.5,0.2-2.2
	c0.1-0.6,0.4-1.2,0.6-1.8c0.1-0.3,0.2-0.7,0.3-1c0.1-1-0.1-2,0.2-2.9c1.1-3.3,0.4-6.9,1.1-10.2c0.7-3.1,0.5-6.1,0.5-9.2
	c0-1-0.6-1.9-0.6-2.9c-0.1-2-0.1-4-0.2-6c0-1,0-1.9-0.7-2.9c-0.5-0.6-0.2-1.9-0.3-2.8c-0.1-0.7,0.1-1.5-0.7-2.2
	c-0.4-0.4-0.2-1.4-0.3-2.2c-0.1-0.9,0.3-2-0.8-2.6c-0.1-0.1-0.1-0.5-0.1-0.8c-0.1-0.8,0.3-1.8-0.8-2.4c-0.2-0.1-0.1-0.7-0.2-1
	c-0.1-0.7,0.3-1.5-0.8-1.9c-0.2-0.1-0.2-0.7-0.2-1.1c-0.1-0.6,0.3-1.5-0.8-1.7c-0.1,0-0.1-0.6-0.2-0.9c-0.1-0.7,0.3-1.6-0.8-2
	c-0.1,0-0.1-0.4-0.1-0.7c-0.1-0.6,0.1-1.2-0.7-1.4c-0.1,0-0.1-0.2-0.2-0.3c-0.4-1.2-0.5-2.6-1.3-3.5c-0.8-0.9-0.4-2.4-1.7-2.9
	c-0.1,0-0.1-0.2-0.2-0.3c-0.1-1.7-1.3-2.9-2.1-4.3c-0.7-1.2-1.6-2.3-2-3.7c-0.2-0.6-1.1-1-1.4-1.6C233.6,93.8,233.6,93.1,233.6,92.3
	C233.5,92.4,233.5,92.4,233.6,92.3z"/>
<path class="st0" d="M193.7,266.6c-1.1,0.4-2.1-0.1-2.3,1c0,0.1-0.3,0.1-0.4,0.1c-0.7,0.1-1.5-0.1-1.7,0.9c0,0.1-0.4,0.1-0.7,0.1
	c0.1-0.8-0.5-1.6,0.7-2c0.1,0,0.1-0.4,0.1-0.5c0-3.8-0.1-7.6-0.1-11.4c-1.3-2.2-0.6-4.6-0.8-6.9c0-0.2,0-0.4,0-0.5
	c1.4-0.8,1.9,0.6,2.7,1.1c0.7,0.4,1.3,1,1.9,1.6c0.5,0.5,0.9,1,1.3,1.5c0.4,0.4,0.7,0.9,1.1,1.2c0.9,0.7,1.9,1.3,2.6,2.2
	c0.8,0.9,1.5,1.6,2.7,2c1,0.4,1.6,1.6,2.4,2.4c0.3,0.3,0.8,0.2,1.3,0.4c0.2,0.1,0.7,0.2,0.7,0.3c0,0.3-0.1,0.7-0.3,0.8
	c-0.6,0.4-1.4,0.5-1.9,1c-0.8,0.9-2.3,0.5-2.9,1.6c-0.1,0.2-0.7,0.1-1,0.2c-0.3,0.1-0.6,0.2-0.9,0.4c-0.2,0.1-0.5,0.2-0.7,0.4
	c0-0.3,0-0.6,0.1-0.9c0.2-0.6,0.6-1.1,0.6-1.7c0.2-1.1-0.9-1.7-1.5-2c-1-0.5-2.2-0.4-3.2,0.4c-0.2,0.2-0.5,0.5-0.6,0.4
	c-1.1-0.3-1.8,0.7-2.2,1.2c-0.4,0.6-0.2,1.8,0.1,2.6c0.2,0.7,0.9,1.3,1.9,1.1C193,265.8,193.3,266.3,193.7,266.6z M194.4,258.5
	c0.4-0.8-0.6-1.5-1.2-2c-0.7-0.6-1.2-1.9-2.6-1.3c0,1.5,0,3.1,0,4.8c0.6,0,1.2,0,1.6-0.2C192.8,259.5,193.5,259,194.4,258.5z"/>
<path class="st0" d="M129.1,257.4c0.9-0.7,1.8-1.4,2.8-2.1c0.2-0.1,0.5-0.2,0.8-0.2c2.3,0,4.6,0,6.9,0c0.3,0,0.5,0.3,0.8,0.4
	c0.3,0.2,0.5,0.3,0.8,0.5c0.4,0.2,0.8,0.5,1.2,0.6c0.3,0.1,0.8,0,0.9-0.1c0.4-0.4,1.5-0.7,1.8-0.3c0.1,0.1,0.2,0.5,0.1,0.5
	c-1.3,1.2-0.7,2.8-0.8,4.2c-0.1,1.3-0.5,1.5-1.5,0.9c-0.3-0.2-0.5-0.6-0.5-0.9c-0.1-1.3-0.8-2.1-1.7-2.9c-0.5-0.4-0.9-1-1.4-1.5
	c-0.2-0.2-0.4-0.3-0.7-0.3c-1,0-2.1-0.1-3.1,0c-0.3,0-0.6,0.4-0.9,0.6c-0.3,0.2-0.6,0.4-0.8,0.7c-0.4,0.6-0.8,1.1-1.1,1.7
	c-0.1,0.2-0.1,0.5-0.1,0.7c-0.2,0.5-0.5,1-0.7,1.5c-0.1,0.4-0.2,0.8-0.2,1.2c0,1.9,0,3.8-0.1,5.8c-0.1,1.6,0.5,2.6,1.8,3.7
	c1.9,1.6,3.8,0.6,5.7,0.7c0.2-1.4,2.1-0.3,2.4-1.7c0-0.1,1.1,0,1.7,0c0,0,0.1,0.4,0.1,0.5c-0.3,0.4-0.7,0.9-1.1,1.2
	c-0.6,0.4-1.2,0.9-1.9,1c-1.5,0.4-3.1,1-4.6,0.9c-1.5-0.2-3.1-0.5-4.4-1.4c-0.7-0.5-1.7-0.8-2.2-1.5c-0.5-0.6-1.6-1-1.4-2.1
	c0-0.2,0-0.5-0.1-0.5c-1.3-0.3-0.8-1.3-0.8-2c-0.1-1.5,0-3,0-4.5c-0.1-1.5,0.5-2.7,1.7-3.7c0.4-0.3,0.4-1,0.5-1.5
	C129,257.3,129,257.4,129.1,257.4z"/>
<path class="st0" d="M170.3,271.6c-0.2-1-0.3-1.7-0.4-2.4c-0.2-0.9,0.3-2-0.8-2.5c0,0-0.1-0.1-0.1-0.2c-0.1-1.6-0.8-3.2-1-4.7
	c-0.2-1.5-0.8-2.9-1.2-4.3c-0.1-0.5-1-0.8-1.5-1.3c-0.2-0.2-0.4-0.4-0.6-0.7c0.1-0.1,0.1-0.2,0.2-0.3c0.6,0,1.2,0.1,1.8,0
	c0.4-0.1,0.8-0.4,1.3-0.6c0.3-0.1,0.5-0.3,0.8-0.3c1.2-0.2,2.5,0.2,3.6-0.8c0.2-0.2,0.8-0.1,1.3-0.1c0.1,0.1,0.2,0.2,0.3,0.3
	c-0.6,0.6-1.2,1.2-2,2c0,0.7,0,1.7,0,2.7c0,0.2,0,0.5,0.1,0.6c1.3,0.7,0.7,2,0.9,3c0.1,0.5,0.4,0.9,0.6,1.4c0.1,0.4,0.2,0.7,0.3,1.1
	c0.1,0.9-0.2,2.1,0.2,2.7c0.8,1,0.7,2.2,0.9,3.3c0,0.2,0.4,0.4,0.6,0.4c0.9,0.1,1.8,0.3,2.7-0.5c0.7-0.7,1.8-1,2.8-1.4
	c0.2-0.1,0.4-0.1,0.5-0.3c0.4-1.2,0.8-2.4,1.3-3.6c0.1-0.3,0.3-0.6,0.4-1c0.2,0.3,0.5,0.6,0.6,0.9c0.1,0.9,0.1,1.8,0.1,2.6
	c0,0.3,0,0.6,0.1,0.8c0.2,0.4,0.4,0.8,0.7,1.2c-0.8,0.4-1.6,0.9-2.4,1.2c-1.1,0.3-2.4-0.2-3.5,0.9c-0.3,0.3-1.1,0-1.6,0.2
	c-0.8,0.2-1.5,0.5-2.2,0.8c-0.3,0.1-0.5,0.1-0.8,0.2c-1.2,0.2-2.4-0.2-3.4,0.8c-0.2,0.2-0.9,0.2-1.3,0.1c-0.2,0-0.4-0.7-0.3-0.8
	C169.3,272.3,170,271.9,170.3,271.6z"/>
<path class="st0" d="M104.1,48.2c0,0.3,0,0.7,0,0.7c-1.5,0.8-2.8,1.5-4.1,2.1c-0.3,0.1-0.6,0.1-0.9,0.2c-0.3,0.1-0.6,0.4-0.9,0.6
	c-0.3,0.2-0.5,0.3-0.8,0.5c-0.3,0.2-0.7,0.5-1,0.7c-0.9,0.5-1.9,0.9-2.9,1.4c0-0.5,0.1-0.9,0-1.1c-0.2-0.6-0.3-1.4-0.7-1.7
	c-0.7-0.4-1.6-0.5-2.2,0.4c-0.3,0.4-0.8,0.9-1.3,1.1c-1.2,0.4-0.6,1.2-0.7,2c0.1,0.1,0.3,0.1,0.4,0.2c0.5,0.2,0.9,0.4,1.4,0.6
	c-0.5,0.5-0.9,0.9-1.4,1.4c-0.2,0.2-0.3,0.3-0.5,0.5c-0.2,0.2-0.4,0.4-0.7,0.5c-0.1,0-0.2-0.1-0.3-0.1c0-1.9,0.1-3.8,0-5.7
	c0-0.7-0.4-1.3-0.6-1.9c-0.1-0.3-0.2-0.5-0.2-0.8c-0.1-1.8-0.2-3.5-0.3-5.3c0-0.3,0.3-0.6,0.4-0.8c0.3,0.2,0.6,0.3,0.8,0.5
	c0.5,0.4,0.9,1,1.5,1.2c1.2,0.3,1.9,1,2.5,2c0.1,0.1,0.4,0.1,0.6,0.1c1,0.2,1.5,1,2.2,1.6c0.6,0.6,1.4,1,2.1,1.4
	c0.4,0.2,0.8,0.4,1.5,0.7c0,0,0-0.3,0.1-0.3c1-0.2,1.4-0.8,1.2-1.8c-0.2-0.8-0.5-1.5-0.8-2.3c-0.1-0.2-0.3-0.3-0.3-0.5
	c-0.4-1.1-0.5-2.3-1.2-3.2c-0.9-1.1-0.9-2.9-2.5-3.5c-0.1,0-0.3-0.3-0.2-0.5c0.1-0.2,0.3-0.4,0.4-0.4c1.4-0.3,2.7-0.9,3.8-1.8
	c0.3-0.2,0.8-0.1,1.3-0.1c0,0.2,0.1,0.6,0,0.7c-0.9,0.8-0.9,2.9-0.1,3.8c0.2,0.3,0.4,0.6,0.5,1c0.2,0.5-0.1,1.3,0.8,1.4
	c0.1,0,0.1,0.5,0.2,0.7c0.1,0.4-0.2,1.1,0.7,1.2c0.1,0,0.3,0.4,0.2,0.6c-0.3,1.2,1,1.4,1.3,2.2C103.5,48.2,103.9,48.2,104.1,48.2
	L104.1,48.2z M90.4,51.2c0-0.7,0-1.2,0-1.4c-0.8-0.5-1.3-0.9-1.9-1.3c-0.2-0.1-0.5-0.2-0.6-0.1c-0.1,0.1-0.3,0.4-0.2,0.6
	c0.3,0.8,0.5,1.6,1.1,2.2C88.9,51.5,89.8,51.2,90.4,51.2z"/>
<path class="st0" d="M34.6,142.3c-0.9,0.2-1.6,0.2-2.4-0.5c-0.8-0.7-2-0.9-3-1.4c-0.8-0.4-1.7-0.9-1.7-2c0-0.8,0-1.5,0-2.3
	c0-0.3,0.3-0.6,0.6-0.7c0.1-0.1,0.4,0.3,0.7,0.5c0.3,0.2,0.6,0.5,0.9,0.5c3.2,0,6.3,0,9.5,0c0.7-2,0.4-2.8-1.4-3.8
	c-1.2-0.7-2.3-1.7-3.5-2.5c-0.7-0.5-1.5-0.9-2.2-1.4c-1.1-0.7-2.2-1.4-3.3-2.2c-0.1-0.1-0.1-0.4-0.1-0.8c0.5,0,0.9,0,1.3,0
	c0.7-0.1,1.4,0.2,1.8-0.7c0.1-0.3,1-0.2,1.5-0.3c1.1-0.1,2.3,0.2,3.2-0.8c0.1-0.1,0.4-0.1,0.6-0.1c1.3-0.2,2.8,0.2,3.9-0.9
	c0.2-0.2,0.8-0.1,1.3-0.2c0,1.5,0,3,0,4.4c0,0.1-0.6,0.5-0.7,0.4c-1.3-0.9-1.3-0.9-3-0.7c0,1.6-1.8,2.7-0.8,4.5
	c0.7,0.2,1.4,0.5,2.3,0.8c0.2-0.3,0.4-0.8,0.8-1.4c0.4,0.8,0.8,1.3,0,2.2c-0.5,0.6-0.5,1.6-0.5,2.5c-0.1,1.7,0,3.4,0,5.2
	c0,0.3-0.2,0.5-0.3,0.8c-0.2-0.2-0.4-0.3-0.7-0.5c-0.8-0.6-1.4-1.5-2.7-1.4c-2,0.2-4,0-6,0c-0.1,0.1-0.1,0.2-0.2,0.3
	c0.2,0.2,0.4,0.5,0.7,0.6c0.5,0.2,1.3-0.2,1.5,0.8c0,0.1,0.7,0.2,1.1,0.2C34.5,141.4,34.7,141.7,34.6,142.3L34.6,142.3z M37.3,127.9
	c-1.1,0-2.3,0-3.8,0c0.5,0.5,0.8,0.9,1.2,1.3c0.5,0.4,1,0.8,1.5,1.2C36.5,129.6,36.8,128.9,37.3,127.9z"/>
<path class="st0" d="M57.1,78.7c-1.1,0.2-1.3-1-2-1.4c-0.2-0.1-0.4-0.3-0.6-0.5c-0.4-0.3-0.9-0.7-1.3-0.9c-0.4-0.2-0.9-0.1-1.3-0.2
	c-0.3-0.1-0.7-0.2-0.7-0.4c-0.1-0.2,0.2-0.5,0.4-0.8c0.6-0.7,1.1-1.4,1.7-2c0.2-0.2,0.6-0.4,0.8-0.4c0.7,0.1,1.4,0.3,2.1,0.6
	c0.6,0.2,1.2,0.5,1.9,0.7c0.4,0.1,0.8,0.1,1.1,0.2c0.6,0.2,1.2,0.5,1.9,0.7c0.5,0.1,1,0.1,1.4,0.1C62,73.3,61.6,72.1,61,71
	c-0.5-1-1.3-1.9-1.6-3c-0.3-0.8-0.2-1.9,0.1-2.8c0.3-0.8,1.1-1.4,1.7-2c0.1-0.1,0.5-0.3,0.6-0.2c0.2,0.1,0.4,0.4,0.4,0.6
	c-0.2,1.3,0.6,1.9,1.6,2.4c0.5,0.2,0.9,0.7,1.2,1.1c0.8,0.8,1.3,2,2.3,2.5c1.3,0.7,2.7,2,4.5,1.1l0,0c0.2,0.5,0.4,0.9-0.4,1.2
	c-0.4,0.1-0.7,0.7-1,1.1c-0.8,0.8-1.5,1.6-2.3,2.4c-0.2,0.2-0.4,0.3-0.7,0.5c0,0-0.3-0.3-0.3-0.4c0.1-0.3,0.3-0.5,0.4-0.7
	c0.1-0.1,0.3-0.2,0.4-0.3c-1.1-1.1-2.1-2.1-3.2-3c-0.6-0.5-1.3-1-2-1.4c-0.1-0.1-0.8,0.4-0.7,0.5c0.2,0.5,0.5,0.9,0.7,1.4
	c0.1,0.2,0.2,0.4,0.3,0.6c0.1,0.6,0,1.3,0.9,1.5c0.1,0,0.1,0.5,0.2,0.7c0.2,0.4,0.5,0.8,0.7,1.2c0.1,0.3,0.2,0.6,0.3,0.9
	c0.1,0.3,0.1,0.7,0.3,1c0.1,0.2,0.4,0.4,0.5,0.6c-0.3,0.1-0.6,0.4-0.9,0.4c-0.7,0-1.6,0.3-1.9-0.7c0-0.1-0.1-0.1-0.2-0.1
	c-1.5,0.3-2.6-0.8-4-1c-0.7-0.1-1.5,0.2-1.9-0.8c-0.1-0.2-1-0.1-1.7,0.1c0.5,0.5,0.9,1.1,1.4,1.4C57.3,77.8,57.3,78.2,57.1,78.7
	L57.1,78.7z"/>
<path class="st0" d="M35.5,177.5c0-0.9,0-1.6,0-2.4c0-1.1-0.6-1.4-1.5-1.4c-1,0-2.1,0.1-3.1,0.1c-0.2,0.6-0.4,1.2-0.6,1.9
	c-1.3-1.5-1.8-3.2-1.5-5c0-0.3,0.3-0.5,0.4-0.7c0.2,0.2,0.4,0.3,0.6,0.5c0.4,0.5,2,0.5,2.7,0c0.2-0.1,0.3-0.4,0.4-0.4
	c1.9,0.2,3.5-0.9,5.3-1.1c1.1-0.1,1.7-0.8,2.4-1.3c0.2-0.1,0.4-0.3,0.6-0.5c0.1,0.2,0.3,0.5,0.3,0.7c0.1,0.7,0,1.4,0.1,2.1
	c0.1,0.6,0.5,1.2,0.6,1.8c0.1,0.3,0,0.7,0,1.1c-0.3-0.1-0.7-0.2-0.8-0.4c-0.7-1-1.8-0.8-2.3-0.3c-0.7,0.7-1.4,0.6-2.2,0.7
	c-0.3,0-0.6,0.2-0.7,0.2c0.2,1.3,0.4,2.4,0.6,3.6c1.9-0.1,4,0.6,5.1-1.9c2.3,1.1,1.4,3.1,1.7,5c-0.7,0-1.2-0.2-1.8-0.1
	c-1.2,0.2-2.5-0.1-3.6,0.8c-0.5,0.4-1.5,0.2-2.3,0.3c-1.6,0.1-3,0.7-4.2,1.8c-0.1,0.1-0.7-0.1-0.8-0.2c-0.1-0.5,0-1-0.2-1.5
	c-0.2-0.8-0.5-1.5-0.7-2.3c-0.1-0.5-0.1-1.1-0.2-1.7c0.4,0.1,0.7,0.1,0.7,0.2c0.2,1.1,1.1,0.9,1.8,0.9
	C33.3,177.8,34.3,177.6,35.5,177.5z"/>
<path class="st0" d="M56.1,90.4c0,0.8,0.5,1.8-0.8,2.1c-0.7,2.3-2.6,1.8-4.3,1.9c-0.9,0.1-1.7,0.2-2.6,0.2c0,0.2,0,0.3,0,0.5
	c0.9,0.4,1.9,0.9,2.8,1.3c0.4,0.1,0.8-0.1,1.3-0.1c0.2,0,0.6,0.1,0.7,0.3c0,0.3-0.1,0.6-0.2,0.8c-0.2,0.4-0.4,0.7-0.7,1.1
	c-0.2,0.3-0.4,0.6-0.6,0.9c-0.2,0.4-0.3,0.8-0.5,1.2c-0.1,0.2-0.3,0.5-0.4,0.6c-0.1,0-0.4-0.2-0.5-0.3c-0.5-0.6-0.8-1.3-1.7-1.6
	c-0.9-0.3-1.6-1.1-2.4-1.7c-0.1,0-0.1-0.1-0.2-0.1c-1-0.4-2.4-0.5-3-1.3c-1-1.2-2.2-0.8-3.5-0.9c0-0.8-0.2-1.6,0.8-1.9
	c0.1,0,0.2-0.2,0.2-0.4c0-1.2,1.1-1.9,1.6-2.9c0.4-0.9,1-1.5,1.4-2.3c0.5-0.9,3-1.8,3.6-1.2c0.9,1.1,2.6,1.7,2.3,3.6
	c-0.1,0.3,0.1,0.7,0.2,1.1c1-0.1,2,0.3,2.9-0.7c0.3-0.4,1.3-0.1,2-0.2C54.9,90.5,55.5,90.5,56.1,90.4C56.1,90.4,56.1,90.4,56.1,90.4
	z M47.1,90.6c-0.7-0.3-1.7,0.2-2-1c0-0.1-1.1,0-1.6,0.2c-0.4,0.1-0.6,0.6-1,1.1c0,0.3,0,0.8,0.1,1.1c1.6,0.7,3,1.4,4.6,2.1
	C47.1,92.9,47.1,91.8,47.1,90.6z"/>
<path class="st0" d="M259,92.1c0-0.2,0-0.6,0.1-0.9c0.1-0.2,0.3-0.4,0.4-0.6c0.1,0.1,0.3,0.3,0.4,0.4c1.3,1.1,1.4,2.8,2.3,4.1
	c1.5,2.4,0.8,4.6,0.6,7.1c-1.5,0-2.7,0-4,0c-0.3,0-0.5-0.3-0.8-0.5c-0.2-0.1-0.4-0.3-0.6-0.4c-0.1,0-0.3,0.3-0.4,0.4
	c-0.6,0.9-1.1,1.8-1.7,2.8c-0.2,0.3-0.1,0.7-0.3,1c-0.4,0.6-1,1.2-1.4,1.7c-0.6-0.9-1.1-1.5-1.3-2.2c-0.2-0.6-0.6-1.4,0.3-2
	c0.1-0.1,0.2-0.1,0.3-0.2c0.4-1,0.8-2,1.2-3c0.1-0.2,0.1-0.5,0.3-0.6c0.5-0.1,1-0.4,0.5-0.8c-0.3-0.2-1.2-0.2-1.5,0.1
	c-0.9,0.7-1.5,1.6-2.3,2.4c-0.1,0.1-0.4,0.2-0.5,0.1c-0.2-0.1-0.3-0.4-0.3-0.6c-0.4-1-0.6-2.2-1.2-3.1c-0.4-0.5-0.9-0.9-0.8-1.6
	c0-0.2,0.2-0.5,0.4-0.5c0.1,0,0.4,0.2,0.5,0.3c0.5,0.7,2.2,0.8,2.9,0.2c0.2-0.2,0.6-0.4,0.9-0.6c0.4-0.2,0.8-0.5,1.2-0.7
	c0.2-0.1,0.3-0.2,0.5-0.2c0.6-0.1,1.4,0.2,1.5-0.8c0,0,0.1-0.1,0.1-0.1C257.4,93.7,258.1,92.7,259,92.1z M257.1,99.1
	c2.1,0.5,2.4,0.4,4.1-0.8c0.6-0.5,1.1-1.9,0.6-2.4c-0.4-0.3-1.6-0.5-1.6-0.3c-0.4,1-1.3,0.8-2,0.9c-0.8,0.1-1.2,0.6-1.1,1.4
	C257,98.2,257.1,98.6,257.1,99.1z"/>
<path class="st0" d="M53.3,203.3c0.2,0.1,0.6,0,0.7,0.2c0.5,0.9,0.8,1.9,1.3,2.8c0.4,0.8,1.1,1.5,1.8,2.4c0,0,0,0.3,0,0.6
	c0,0.2-0.2,0.4-0.3,0.6c-0.2-0.1-0.4-0.3-0.6-0.4c-0.3-0.2-0.5-0.3-0.9-0.5c0,0.8,0,1.4-0.1,2c-0.1,0.4-0.3,0.7-0.6,1
	c-0.5,0.5-0.5,1.8,0.2,2.8c1.1-1.2,2.3-2.4,3.4-3.5c0.1-0.1,0.8,0.1,0.8,0.3c0.1,1.2,1.1,1.8,1.7,2.6c0.3,0.4,0.3,1.1,0.5,1.8
	c-0.6,0-0.9-0.1-1.3-0.1c-0.7,0-1.6-0.3-2,0.8c0,0.1-0.3,0.3-0.5,0.3c-1.2,0-1.8,0.8-2.5,1.7c-0.1,0.1-0.2,0.2-0.2,0.2
	c-1.6-0.1-2.2,1.4-3.4,2c-0.2,0.1-0.2,0.7-0.3,1.1c-0.1,0.3-0.2,0.5-0.3,0.8c-0.2-0.2-0.5-0.4-0.7-0.6c-1.2-0.9-1.2-2.7-2.7-3.5
	c-0.2-0.1,0-1,0-1.3c0.9,0.2,1.8,0.6,2.2,0.4c1-0.6,1.8-1.5,2.6-2.3c-0.1-0.1-0.1-0.2-0.2-0.4c-0.7,0-1.3,0-2-0.1
	c-0.8-0.1-1.6,0.1-2.3-0.7c-0.4-0.4-1.1-0.2-1.4,0.6c-0.1,0.3-0.5,0.6-0.7,0.9c-0.2-0.3-0.3-0.7-0.5-1c-0.4-0.7-0.9-1.3-1.3-2
	c-0.2-0.4-0.4-0.9-0.5-1.4c0.2-0.1,0.5-0.3,0.6-0.2c0.4,0.3,1,0.6,1.1,0.9c0.2,1.1,0.9,0.6,1.5,0.7c0.6,0.1,1.2,0,1.8,0.7
	c0.3,0.4,1.4,0.2,2.1,0.1c0.2,0,0.5-0.7,0.6-1.1c0.1-0.7-0.1-1.5,0.8-1.9c0.1,0,0.1-0.2,0.1-0.3c0.2-2.2,1.7-4.2,1.2-6.6
	C53.2,203.6,53.3,203.4,53.3,203.3L53.3,203.3z"/>
<path class="st0" d="M235.4,67.9c0,0.3,0,0.6-0.1,0.9c-1.2-0.3-1.7,0.8-2.6,1.2c-1,0.4-1.8,1-2.7,1.6c-0.7-0.8-0.7-1.9,0.1-2.7
	c0,0,0.1,0,0.1-0.1c0.2-1,0.7-1.8,1.2-2.6c0.4-0.7-0.1-1.9,1-2.4c0.1,0,0-0.4,0-0.9c-0.7,0.4-1.3,0.7-1.8,0.9
	c-0.2,0.1-0.5,0.3-0.7,0.3c-0.6,0.1-1.3-0.1-1.3,0.8c0,0,0,0.1-0.1,0.1c-1,0.4-2,0.7-3,1.1c-0.3,0.1-0.6,0.4-1,0.6
	c-0.2,0.1-0.4,0.2-0.6,0.2c-0.1,0-0.3-0.3-0.3-0.4c0.1-0.5,0.3-0.9,0.5-1.4c0-0.1,0.2-0.1,0.2-0.2c0.4-1.1,0.7-2.2,1.1-3.2
	c0.5-1.2,1.1-2.3,1.7-3.4c0.1-0.2,0.1-0.4,0.2-0.6c0.1-0.6,0-1.3,0.9-1.5c0.1,0,0.2-0.4,0.2-0.6c0.1-0.7,0.1-1.3,0.1-2.4
	c1.3,1,2.3,1.8,3.4,2.6c0.1-0.1,0.2-0.1,0.3-0.2c0.1,0.5,0.1,1.1,0.2,1.7c-1.5-0.1-2.2,0.5-2.1,1.9c0,0.3-0.4,0.6-0.6,1
	c-0.1,0.3-0.2,0.5-0.3,0.8c-0.1,0.5,0.2,1.2-0.7,1.3c-0.1,0-0.2,0.3-0.2,0.5c0,0.1,0.3,0.3,0.4,0.3c0.5-0.1,1-0.3,1.4-0.5
	c0.3-0.1,0.5-0.3,0.8-0.4c1-0.2,1.8-0.7,2.2-1.8c0-0.1,0.2-0.3,0.3-0.3c1-0.3,0.7-0.7,0-1c-0.1-0.1-0.2-0.2-0.4-0.4
	c0.8-0.4,1.3-0.7,2,0.1c0.4,0.6,1.1,0.9,1.7,1.4c0.5,0.4,0.9,0.8,1.3,1.3c0.1,0.1-0.3,0.7-0.4,0.6c-1.2-0.4-1.8,0.6-2.1,1.3
	c-0.6,1.1-0.9,2.4-1.3,3.7C234.4,67.6,234.8,67.9,235.4,67.9L235.4,67.9z"/>
<path class="st0" d="M260.9,161.9c0-0.4,0-0.9,0-1.4c0-0.6-0.2-1.4,0.7-1.7c0.1,0,0.1-0.3,0.2-0.5c0.2-1.3,1.3-1.7,2.3-2.3
	c1.4-0.9,2.7-0.9,4.2-0.8c0.9,0,2.8,1,3.5,1.7c0.5,0.5,1.1,0.9,1.6,1.4c0.1,0,0.1,0.1,0.2,0.2c0.1,1.6,1.6,2.9,0.9,4.6
	c-0.7,1.5-1.1,3-2.5,4.3c-2,1.9-4.1,2-6.3,1.5c-1.6-0.4-3.3-1-4.2-3C261.1,164.5,261,163.3,260.9,161.9z M262.1,163.7
	c0.7,0.2,1.6,0.2,1.7,0.4c0.3,1,1.1,0.7,1.7,0.7c1.2,0.1,2.3,0.3,3.5,0.1c1.3-0.2,2.8,0.5,4-1c0.6-0.7,0.9-1.3,0.7-2.1
	c-0.2-0.7-0.7-1.5-1.3-1.8c-1.2-0.5-2.2-1.3-3.7-1.1c-1.5,0.2-2.9,0-4.4,0.1c-1.4,0-2.2,0.8-2.2,2.3
	C261.9,162.1,262.1,162.9,262.1,163.7z"/>
<path class="st0" d="M40.5,159.9c0,0.3,0,0.5,0,0.7c0.1,1.8-0.6,3.2-1.9,4.5c-2.2,2.2-4.8,2.2-7.5,1.6c-0.9-0.2-1.8-1.2-2.5-2
	c-1.4-1.6-2.3-3.5-1.9-5.6c0.3-1.1,0.4-2.5,1.6-3.3c0.5-0.3,0.8-1,1.2-1.5c0-0.1,0.1-0.2,0.1-0.2c2-0.7,4.2-1.8,6.2-0.8
	c1.4,0.6,3.4,1.2,3.6,3.3C41.2,157.5,40.3,158.9,40.5,159.9z M29.3,162.9c0.8,0.3,2-0.4,2.8,0.8c0.1,0.2,1.1,0.1,1.2-0.1
	c0.5-0.9,1.2-0.6,1.9-0.6c0.7-0.1,1.5,0,2.2-0.2c0.6-0.2,1.1-0.8,1.6-1.2c0.1,0.1,0.2,0.1,0.4,0.2c0-1,0.2-2-0.1-2.9
	c-0.2-0.7-1-1.6-1.5-1.6c-2.6,0-5.3-1.1-7.7,0.8c-1.1-0.3-1.3,0.9-2.1,1.2c-0.6,0.2-0.5,2.3,0,2.7C28.5,162.2,28.8,162.5,29.3,162.9
	z"/>
<path class="st0" d="M119.8,42.5c0.1,0.6,0,0.9-0.7,0.9c-0.9,0.1-1.8-0.2-2.6,0.8c-0.4,0.4-1.6,0.2-2.4,0.2c0-1.1,0-2,0-3
	c0-0.7,0.3-1.7-0.8-2c-0.1,0-0.1-0.1-0.1-0.2c-0.4-1.6-0.8-3.1-1.1-4.7c-0.1-1-1-1.3-1.4-1.9c-0.1-0.2-0.3-0.3-0.4-0.5
	c0.2-0.1,0.4-0.4,0.6-0.4c0.6-0.1,1.3,0,1.9-0.1c0.5-0.1,1.2,0.2,1.3-0.7c0-0.1,0.3-0.2,0.5-0.2c2.1,0,4.3,0,6.4,0
	c0.2,0,0.5,0.1,0.7,0.3c0.3,0.3,0.6,0.6,1,1c0.3,0.5,0.7,1.1,1.1,1.6c0.1,0.2,0.2,0.4,0.2,0.5c0,1.4,0.1,2.9,0.1,4.3
	c0,1.4-0.7,2.3-1.8,3.2C121.3,42.4,120.6,42.4,119.8,42.5c0.1-0.3,0.3-0.7,0.5-1.1c0.1-0.2,0.4-0.2,0.4-0.4c0-2.2,0.8-4.4-0.7-6.4
	c-0.4-0.6-0.9-1.2-1.1-1.9c-0.3-0.9-0.8-1.1-1.6-1c-0.8,0-1.6,0-2.5,0c0.1,1-0.2,2.3,0.2,2.6c1.1,0.8,0.6,1.7,0.8,2.6
	c0.1,0.2,0,0.6,0.2,0.7c0.9,0.4,0.8,1.2,0.8,1.9C117.1,41.6,117.7,42.3,119.8,42.5z"/>
<path class="st0" d="M247.3,225.4c0,0.6,0,1.2,0,1.8c0,1.2-0.7,1.9-1.7,2.5c-0.5,0.3-1.1,0.8-1.2,1.2c-0.2,0.7-0.6,0.6-1,0.6
	c-1.3,0.1-2.6-0.1-3.8,0.2c-1.6,0.3-2.5-1-3.8-1.3c-0.4-0.1-0.7-0.6-0.9-1c-1-1.9-1.8-4-1.1-6.2c0.4-1.2,1.2-2.5,2.2-3.2
	c1.3-0.9,2.9-1.8,4.7-1.5c1,0.2,2.1,0.1,3.1,0.4c0.5,0.1,1,0.6,1.4,1c0.5,0.5,0.8,1.2,1.3,1.6C247.7,222.5,247.1,224,247.3,225.4z
	 M245.9,227.1c-0.1-0.2-0.4-0.5-0.6-0.9c-0.4-0.8-0.6-1.9-1.2-2.3c-1.2-0.7-1.7-2.3-3.4-2.3c-0.1,0-0.2-0.2-0.3-0.3
	c-0.3-0.2-0.5-0.5-0.8-0.6c-0.8-0.1-1.6,0-2.4,0c-1,0-1.4,0.9-1.7,1.5c-0.7,1.6,0.8,2.8,1.4,4.1c0,0,0.1,0,0.1,0.1
	c0.8,0.7,1.6,1.4,2.4,2c0.6,0.5,1.3,0.9,2,1.1c0.8,0.2,1.7,0.1,2.6,0.1c0.8,0,1.2-0.4,1.2-1.2C245.4,228,245.7,227.5,245.9,227.1z"
	/>
<path class="st0" d="M191.6,39.6c-0.4,1.1-0.5,2.5-1.3,3.3c-0.9,1-0.3,1.4,0.2,2c0.1,0.1,0.1,0.2,0.2,0.3c2.2,0,4.5,0.7,6-1.8
	c0.2,0.1,0.4,0.2,0.4,0.3c0.4,1.5-1.7,3.8-3.2,3.6c-0.2,0-0.4-0.1-0.5-0.2c-0.6-0.2-1.2-0.5-1.7-0.8c-0.4-0.2-0.9-0.5-1.3-0.7
	c-0.2-0.1-0.5-0.2-0.7-0.3c-0.8-0.1-1.6,0.1-2.2-0.8c-0.2-0.3-1.2-0.2-2-0.3c0.2-0.4,0.4-0.6,0.5-0.9c0.2-0.2,0.4-0.5,0.6-0.7
	c1-0.8,0.6-2.2,1.2-3c0.7-0.9,0.4-2,0.9-2.5c1-0.8,0.3-2.3,1.5-3c0.3-0.2,0.2-0.9,0.3-1.2c-0.5-0.5-0.8-0.8-1.1-1.1
	c0.1-0.1,0.2-0.2,0.2-0.3c0.7,0.1,1.6-0.5,1.9,0.7c0,0,0.1,0.1,0.1,0.1c1.2-0.2,2,0.9,3.1,1.1c0.7,0.1,1.6-0.3,1.9,0.8
	c0,0.2,0.7,0.1,1.1,0.2c0.7,0.1,1.5,0,1.5,1c0.1,0.8,0.6,1.8-0.7,2.2c-0.1,0-0.2,0.2-0.3,0.3c-0.2,0.2-0.4,0.3-0.5,0.5
	c-0.1-0.3-0.3-0.5-0.3-0.8c-0.1-0.7-0.1-1.3-0.1-2.2c-1.2-0.4-2.3-0.9-3.4-1.3c-1.1,1.6-2.1,3-1.1,4.8c1.3-0.1,1.9-2.1,3.2-1.3
	c-0.7,1.9-1.4,3.8-2.1,5.6c-0.1,0-0.2,0-0.4,0C193.5,41.9,193.3,40.5,191.6,39.6z"/>
<path class="st0" d="M160.7,29.9c-0.2-0.3-0.5-0.5-0.6-0.8c-0.3-0.4-0.5-0.8-0.8-1.3c-1-1.8-2.6-0.6-4-1c-0.2,1.3-0.3,2.3-0.5,3.4
	c-0.1,0-0.2,0-0.3,0c0,0.1,0,0.2,0.1,0.2c0.4,0.4,0.8,0.9,1.1,1.3c0.5-0.7,1-1.3,1.4-2c0.1-0.2,0.2-0.5,0.3-0.8c1,0.9,1,5.4,0.1,6.5
	c-0.4-0.8-0.8-1.7-1.3-2.4c-0.2-0.2-0.7-0.3-1-0.3c-0.3,0-0.7,0.4-0.8,0.6c-0.2,1.3-0.2,2.7-0.3,4.2c1.5,0,2.9,0.2,4.2-0.1
	c0.6-0.1,1.1-1,1.6-1.4c0.2-0.2,0.5-0.4,1-0.7c0,0.8,0,1.3,0,1.8c0,0.5,0,1,0,1.6c-3.9-0.2-7.8,0.2-11.6-0.3c0-0.1,0-0.3,0-0.4
	c0.6-0.2,1.1-0.4,1.8-0.6c0-3.8,0-7.6,0-11.5c3.3,0,6.5,0,9.8,0c0,1.4,0,2.6,0,3.9C160.9,29.7,160.8,29.8,160.7,29.9z"/>
<path class="st0" d="M81.7,55.3c-0.1-0.5-0.1-0.9-0.3-1C80.5,53.7,80,53,79.5,52c-0.3-0.7-0.9-1.5-2-1.5c-0.2,0-0.5-0.4-0.7-0.6
	c0.2-0.2,0.4-0.4,0.6-0.6c0.4-0.3,0.8-0.6,1.3-0.9c0.2-0.1,0.5-0.2,0.9-0.3c0,0.5,0,0.8,0,1.1c-0.2,1.4,0.6,2.3,1.6,3.1
	c0.5,0.4,1,0.8,1.2,1.4c0.3,1.2,1.1,1.9,2,2.6c0.9,0.7,1.3,2,1.8,3c0.1,0.1,0,0.4-0.1,0.5c-0.1,0.1-0.4,0-0.5,0
	c-0.9-0.2-1.8-0.5-2.7-0.7c-0.9-0.2-1.8,0.1-2.5-0.7c-0.2-0.3-0.9-0.2-1.4-0.2c-1-0.1-2,0.1-2.8-0.8c-0.4-0.4-1.4-0.2-2.2-0.3
	c0.1,0.4,0,0.8,0.1,0.9c0.9,0.6,1.4,1.6,2,2.5c0.9,1.2,1.7,3,3.9,2.6c0.2,0,0.5,0.2,0.7,0.4c-0.2,0.2-0.4,0.4-0.6,0.6
	c-0.8,0.6-1.5,1.2-2.3,1.8c-0.2,0.1-0.6,0.1-0.9,0.1c0.1-0.3,0.1-0.7,0.3-0.8c0.7-0.4,0.6-0.5,0-1c-0.6-0.6-0.9-1.5-1.4-2.2
	c-0.4-0.6-0.9-1.2-1.4-1.7c-0.4-0.5-1-1-1.4-1.5c-0.5-0.7-0.8-1.6-1.4-2.2c-0.3-0.3-1-0.2-1.7-0.3c0-0.2-0.1-0.6,0-0.7
	c0.7-0.7,1.3-1.4,2.1-1.9c0.4-0.3,1.2-0.1,1.8,0.1c0.5,0.1,1,0.5,1.5,0.6c1,0.2,2,0,3,0.8C79,55.5,80.4,55.2,81.7,55.3z"/>
<path class="st0" d="M227.7,237.4c-0.1,1.8,1.2,2.3,1.9,3.2c0.7,1.1,1.5,1.8,3.1,1.7c-0.5,1.5-1.9,1.9-2.6,3c-0.1,0-0.2-0.1-0.4-0.1
	c0-0.4,0-0.7,0-1.1c0.1-1.6-0.6-2.7-1.9-3.6c-0.9-0.6-1.5-1.5-2.2-2.3c-0.5-0.6-1.2-1.1-1.7-1.7c-0.5-0.8-1.9-1.3-1-3
	c0.6,0.2,1.3,0.5,1.9,0.7c0.4,0.1,0.8,0.3,1.2,0.3c1.1,0.1,2.2,0,3.2,0.1c0.9,0.1,1.7,0.1,2.6,0.6c0.8,0.5,2,0.2,3.1,0.3
	c0-0.1,0.1-0.2,0.1-0.4c-0.6-0.5-1.1-1-1.6-1.6c-0.1-0.2,0-0.6,0-0.9c0.3,0,0.8,0,1,0.1c0.7,0.8,1.3,1.7,2,2.5
	c0.2,0.2,0.7,0.2,1.1,0.3c0.5,0,1,0,1.6,0c0.3,1-0.1,1.5-0.9,2.1c-2.6,2-5.5,0.6-8.3,0.7C229.4,238.3,228.6,237.7,227.7,237.4z"/>
<path class="st0" d="M57.1,78.7c0.8-0.1,1.5-0.3,2,0.7c0.3,0.6,1.3,0.8,1.9,1.2c0.2,0.1,0.3,0.4,0.5,0.7c0.2-0.3,0.3-0.6,0.5-0.7
	c0.3-0.1,0.6,0.1,1,0.2c-0.1,0.3-0.2,0.6-0.3,0.8c-0.1,0.1-0.4,0.2-0.5,0.3c-0.5,0.8-0.7,1.7-1.3,2.3c-1.2,1-1.1,2.8-2.6,3.6
	c-0.2,0.1-0.1,0.8-0.3,1c-0.7,0.5-0.7,1.9-2,1.6c0,0,0,0,0,0c0.2-0.5,0.5-1,0.7-1.6c-0.5-0.6-1-1.4-1.8-2c-0.6-0.5-1.5-0.7-2.1-1.2
	c-1.3-0.9-2.5-1.8-3.7-2.8c-0.6-0.5-1.7-0.2-2.3,0.5c-0.8-0.9-0.7-0.9,0.2-1.8c0.5-0.6,0.8-1.4,1.2-2.1c0.4-0.6,0.7-1.2,1.3-1.6
	c0.5-0.3,0.8,0.1,0.7,0.6c-0.1,1.2,0.8,1.7,1.6,2.2c0.8,0.5,1.5,1.2,2.3,1.7c0.7,0.5,1.6,0.8,2.3,1.2c0.8,0.5,1.4,1.2,2.1,1.8
	c0.4-0.3,0.8-0.7,1.4-1.2c0-0.2,0-0.7,0.1-1.2c0.2-1.3-0.9-1.7-1.5-2.4C58.1,80,56.9,79.8,57.1,78.7C57.1,78.7,57.1,78.7,57.1,78.7z
	"/>
<path class="st0" d="M142.5,26.8c0,1.7,0,3.2,0,4.8c0.6,0,1.1,0,1.7,0c0.4-0.8,0.8-1.7,1.3-2.5c0.1-0.1,0.8,0,0.8,0.1
	c-0.1,2.1-0.2,4.2-0.3,6.2c0,0-0.1,0-0.3,0.1c-0.1-0.4-0.2-0.9-0.4-1.2c-0.4-0.6-1-1.1-1.5-1.5c-0.2-0.1-0.9,0.2-0.9,0.4
	c-0.1,0.7-0.1,1.4,0,2.1c0.1,0.5,0.3,1.1,0.6,1.6c0.1,0.3,0.4,0.6,0.6,0.8c0.1,0.2,0.3,0.3,0.4,0.5c-0.2,0.1-0.3,0.4-0.5,0.4
	c-1.3,0.1-2.5,0.2-3.8,0.2c-0.2,0-0.6-0.5-0.6-0.8c0-3-0.1-6,0-9c0-1.1-0.7-1.6-1.4-2.1c-0.2-0.2-0.3-0.3-0.5-0.5
	c0.2-0.1,0.3-0.3,0.5-0.4c0.2-0.1,0.4,0,0.6,0c3.1,0,6.3,0,9.6,0c0,0.8,0,1.6,0,2.4c0,0.2-0.2,0.4-0.4,0.5c-0.1,0.1-0.5,0-0.5-0.1
	C146.5,25.9,144.4,26.9,142.5,26.8z"/>
<path class="st0" d="M173.8,33.6c0,1.8,0.1,3.6-0.1,5.4c0,0.6-0.7,1.1-1.2,1.6c-0.1,0.1-0.6,0-0.6-0.1c-0.4-0.7-0.6-1.7-1.1-2.2
	c-0.9-0.8-0.7-2.1-1.7-2.8c-0.6-0.4-0.8-1.5-1.2-2.2c-0.4-0.7-0.7-1.5-1.1-2.2c-0.1-0.1-0.6-0.2-0.7-0.2c-0.4,0.6-0.9,1.2-1,1.9
	c-0.2,1.5-0.2,3.1-0.2,4.7c0,0.5-0.1,1.1,0.7,1.2c0.1,0,0.3,0.4,0.3,0.5c-0.1,0.2-0.4,0.4-0.6,0.4c-0.7,0-1.5-0.1-2.3-0.1
	c0-0.8-0.4-1.7,0.7-2c0.1,0,0.2-0.5,0.2-0.7c0-1,0-1.9,0.1-2.9c0.1-0.7,0.5-1.4,0.7-2.2c0.2-0.7,0.2-1.5,0.2-2.2
	c0-0.6,0.4-1.4-0.6-1.8c-0.2-0.1-0.1-0.9-0.2-1.4c0.4,0.1,0.7,0.1,1.1,0.2c0.4,0.1,0.8,0.3,1.2,0.3c1.5,0.1,2,0.6,2.6,2.1
	c0.3,0.8,1,1.3,1.5,2c0.1,0.2,0.2,0.4,0.3,0.6c0.5,1,0.9,2.1,1.3,3C172.8,34,173.3,33.8,173.8,33.6L173.8,33.6z"/>
<path class="st0" d="M65.4,220.6c-2.1,0.3-2.6,0.9-2.3,2.5c0.1,0.5,0.6,1.1,1,1.4c0.8,0.5,1.3,1.8,2.7,0.9c0.3-0.5,0.7-1.1,1.2-1.6
	c0.1-0.1,0.6-0.1,0.7,0c0.5,0.8,0.9,1.6,1.4,2.4c-0.1,0.1-0.3,0.3-0.4,0.4c-0.4-0.2-0.9-0.4-1.4-0.6c-0.1,0.1-0.3,0.4-0.6,0.5
	c-1.5,0.4-3.1,0.8-4.6,1.2c-0.4,0.1-0.7,0.4-1,0.6c-0.1,0-0.1,0.2-0.2,0.2c-1.8,0.5-3.6,0.9-5.7,1.4c0.1-1.1-0.6-2,0.8-2.4
	c0.1,0,0.1-0.4,0.2-0.6c0.1-0.5-0.1-1.2,0.8-1.2c0.1,0,0.2-0.2,0.2-0.4c0.1-0.7,0.2-1.2,0.8-1.7c0.7-0.6,0.8-1.9,1.2-2.8
	c0.1-0.3,0.2-0.5,0.4-0.8c0.2-0.3,0.4-0.6,0.6-0.9c0.3-0.5,0.5-1.1,0.8-1.6c0.4-0.5,0.8-0.6,1.2,0.1c0.3,0.5,0.8,1,1.2,1.5
	C64.7,219.4,65,219.9,65.4,220.6z M60.5,227.4c0.4,0,1.1,0.1,1.2,0c0.4-0.8,1.1-0.6,1.7-0.8c0.2,0,0.4-0.2,0.5-0.3
	c0-0.1-0.1-0.3-0.2-0.4c-0.4-0.4-0.8-0.7-1.3-1.2c-1.2,0.1-1.2,0.1-1.4,1.4C61,226.4,60.8,226.8,60.5,227.4z"/>
<path class="st0" d="M259,208.6c0-0.9,0-2,0-3c0-0.2-0.4-0.3-0.5-0.5c-0.2-0.2-0.4-0.5-0.3-0.7c0.1-0.2,0.5-0.4,0.7-0.4
	c0.4,0.1,0.8,0.4,1.1,0.6c0.3,0.2,0.7,0.4,1.1,0.7c0,0.7,0.1,1.3-0.6,2.1c-0.7,0.7-0.7,2.2-1.5,2.9c-0.8,0.7-0.5,2-1.6,2.6
	c-0.6,0.3-0.9,1.3-1.2,2.1c-0.3,0.7-0.3,1.2-1,0.3c-0.1-0.2-0.5-0.3-0.7-0.3c-1.2,0.2-1.2-1.2-2.1-1.4c0.2-0.2,0.4-0.7,0.5-0.6
	c0.6,0.1,1.2,0.3,1.8,0.6c0.4-0.2,0.8-0.6,1.4-1c0-0.3,0-0.9,0-1.5c-2.8-1.6-5.6-3.1-8.3-4.7c-0.4,0.2-0.8,0.5-1.5,0.9
	c0.1-1-0.5-1.9,0.7-2.3c0.1,0,0.1-0.4,0.2-0.6c0.4-0.8,0.7-1.5,1.2-2.3c0,0,0.9,0.2,0.9,0.4c0.1,0.9,0.4,1.5,1.4,1.5
	c0.2,0,0.4,0.3,0.6,0.5c0.1,0.1,0.2,0.4,0.2,0.4c1.2-0.2,1.8,0.9,2.7,1.2c0.8,0.3,1.4,1,2.1,1.4c0.2,0.2,0.5,0.3,0.8,0.4
	C257.5,208.2,258.1,208.4,259,208.6z"/>
<path class="st0" d="M273.7,136.9c-0.4-0.4-0.7-0.7-1-0.9c-0.5-0.2-1.4-0.4-1.6-0.2c-0.6,0.7-0.9,1.7-1.3,2.5
	c-0.2,0.4-0.4,0.7-0.7,1.1c-0.1,0.1-0.3,0.2-0.3,0.3c0.2,1-0.4,1.6-1,2.3c-0.1,0.1-0.3,0.2-0.5,0.3c-0.5,0.3-1,0.5-1.5,0.7
	c-0.2,0.1-0.6,0.2-0.8,0.1c-0.8-0.3-1.6-0.6-2.4-0.9c-0.2-0.1-0.4-0.2-0.5-0.3c-0.3-1.4-1.6-2.4-1.2-4c0.2-0.7,0.2-1.5,0-2.3
	c-0.2-1,0.2-1.3,1.2-1.4c0.6-0.1,1.2-0.4,1.8-0.6c0.3-0.1,0.6,0,0.9,0c-0.1,0.3-0.1,0.7-0.3,0.9c-0.7,0.7-1.9,1.2-2.2,2
	c-0.4,1-0.3,2.3,0,3.3c0.1,0.4,1.6,0.6,2.3,0.3c0.5-0.2,0.8-1.2,1.2-1.8c0.2-0.3,0.4-0.7,0.7-1c0.1-0.1,0.3-0.2,0.2-0.4
	c-0.2-1.7,1.4-2.3,2.2-3.4c0.3-0.4,1.5-0.1,2.3-0.2c1.3-0.1,1.8,0.9,2.6,1.6c1.3,1.3,0.8,2.9,0.7,4.4c0,0.6,0.1,1.5-0.2,1.8
	c-0.5,0.3-1.3,0.2-2,0.2c-0.2,0-0.5,0.1-0.7,0c-0.2-0.1-0.4-0.3-0.6-0.4c0.2-0.2,0.3-0.4,0.5-0.6
	C273.6,139.6,273.9,139.2,273.7,136.9z"/>
<path class="st0" d="M263.9,173.7c-0.6,0-1.2,0-1.8,0c-1.2-0.1-1.9,0.2-2.2,1.5c-0.1,0.6-1,1-0.8,1.9c0.1,0.6-0.2,1.2,0.7,1.6
	c0.3,0.1,0.2,1.1,0.2,1.7c0,0.1-0.3,0.3-0.5,0.2c-0.2,0-0.4-0.2-0.4-0.3c-0.2-1.6-1.6-2.9-1-4.6c0.1-0.4,0.4-0.7,0.6-1.1
	c0.1-0.1,0.2-0.3,0.2-0.4c-0.1-1.7,1.3-2.6,2.2-3.2c1.5-1,3.5-1.8,5.3-1c1.7,0.8,3.3,1.7,4.5,3.4c1.4,1.9,0.7,3.7,0.6,5.6
	c0,0.9-0.9,1.7-1.3,2.5c-0.1,0.2-0.3,0.6-0.2,0.8c0.1,0.3,0.4,0.6,0.6,1c-0.5,0-1.4,0.3-1.6,0.1c-0.7-0.9-1.6-0.7-2.5-0.8
	c-0.2,0-0.5-0.3-0.7-0.4c0.2-0.2,0.4-0.5,0.7-0.5c1.3-0.3,2.2-1.1,3.3-1.8c1-0.7,0.7-1.5,0.8-2.3c0.1-1-0.4-1.5-1.2-1.9
	c-0.9-0.5-1.7-1.3-2.7-1.6c-0.7-0.3-1.6-0.2-2.5-0.2C264.2,173.7,264,173.7,263.9,173.7C263.9,173.7,263.9,173.7,263.9,173.7z"/>
<path class="st0" d="M210.9,55.3c0.7,0,1.4,0,2,0c0.5,0,1,0.1,1-0.7c0-0.1,0.3-0.3,0.4-0.3c1.2-0.1,1.9-1,2.8-1.7
	c0.2-0.2,0.6-0.2,0.9-0.3c0.3-0.1,0.5-0.4,0.8-0.6c0.2-0.1,0.3-0.4,0.5-0.4c1.2-0.1,1.8-0.9,2.6-1.6c0.3-0.3,1-0.3,1.6-0.3
	c0.1,0,0.3,0.7,0.3,1.1c-0.1,1.2,0.2,2.4-0.8,3.4c-0.3,0.3-0.1,0.9-0.2,1.4c-0.1,0.8,0.3,1.7-0.8,2.3c-0.2,0.1-0.2,0.7-0.2,1.1
	c0,1.4,0,2.9,0,4.4c-0.9,0-1.6,0.4-2.1-0.7c-0.3-0.6-1.4-0.8-2.1-1.3c-0.2-0.1-0.4-0.4-0.6-0.5c0.2-0.2,0.4-0.5,0.6-0.5
	c0.8,0,1.2-0.5,1.1-1.1c0-0.6,0.7-1.6-0.6-1.8c0.1-0.9-1.6-0.7-1.2-1.8c0.8,0.1,1.7-0.4,2.1,0.7c0,0.1,0.5,0,0.6-0.1
	c0.4-0.5,0.1-2.8-0.3-3.3c-0.3,0.3-0.6,0.5-0.9,0.8c-0.7,0.5-1.4,1-1.5,2c-1.1-0.3-2,0.2-2.8,1c-0.2,0.2-0.1,0.7-0.1,1.1
	c-0.1,0.3-0.2,0.5-0.4,0.8c-0.3-0.2-0.6-0.3-0.8-0.5c-0.5-0.5-1-1-1.4-1.5C211.3,55.9,211.2,55.5,210.9,55.3L210.9,55.3z"/>
<path class="st0" d="M254,191.3c0-0.7,0.1-1.3,0.1-2c0.6,0,1.2,0,1.5,0c0.7,0.8,1.3,1.5,1.9,2.1c0.4,0.5,0.9,0.9,1.3,1.3
	c0.8,0.9,1.6,1.7,2.4,2.6c0.5,0.5,1,1,1.5,1.5c0.5,0.5,0.9,1,1.5,1.4c0.6,0.4,0.5,0.7-0.1,0.9c-0.5,0.2-1,0.3-1.5,0.3
	c-3,0-5.9-0.1-8.9-0.2c-0.9,0-1.9-0.2-2.6,0.7c-0.1,0.1-0.6,0-1,0c0.1-0.6,0.1-1.2,0.2-1.8c0.1-0.3,0.6-0.6,0.5-0.8
	c-0.1-1.2,0.9-1.9,1.3-2.8c0-0.1,0.3-0.2,0.4-0.1c0.2,0.1,0.3,0.3,0.3,0.5c0,0.4,0,0.8-0.1,1.3c1,0,1.9,0,2.9,0c0.2-1,0-1.9,0.9-2.6
	c0.3-0.2-0.1-0.8-0.4-1.4C255.8,191.2,255,191.6,254,191.3z M257.1,194.4c0,0.6-0.1,1.2-0.1,1.9c1,0,2,0,2.9,0
	C259.8,195.1,258.7,194.3,257.1,194.4z"/>
<path class="st0" d="M245.6,71.8c-0.7,1.6-1.3,3-2,4.7c0.6,0.1,1.4,0.1,2.2,0.2c1.5,0.2,2.6-0.4,3.4-1.8c0.1-0.2,0.5-0.3,0.7-0.2
	c0.5,0.1,1.4,1.9,1.3,2.4c-0.1,0.2-0.2,0.4-0.4,0.5c-0.1,0.1-0.5-0.1-0.5-0.2c-0.2-0.9-1-0.7-1.4-0.5c-1.4,1-2.9,0.8-4.4,0.7
	c-1.4,0-2.3,0.6-3.1,1.7c-0.3,0.5-0.8,0.8-1.3,1.2c-0.2,0.2-0.4,0.6-0.7,0.7c-0.3,0.2-0.8,0.3-0.9,0.2c-0.5-0.5-0.7-1.1-1.2-1.6
	c-0.4-0.5-0.9-0.9-1.4-1.4c-0.1-0.1-0.4-0.4-0.3-0.5c0.1-0.2,0.4-0.3,0.6-0.4c0.1-0.1,0.3,0,0.5,0c1.3,0.4,1.9-0.7,2.7-1.3
	c0.7-0.5,1.1-1.3,1.7-1.9c0.1-0.1,0.1-0.2,0.2-0.3c0.4-1.2,0.5-2.6,1.2-3.7c0.7-1.1,1-2,1-3.2c0-0.1,0.3-0.2,0.5-0.2
	c0.1,0,0.3,0.2,0.4,0.3c0.1,1.2,0.9,1.9,1.9,2.5c0.4,0.2,0.7,0.6,0.9,1c0.1,0.2-0.1,0.8-0.3,0.8C246.4,71.9,245.9,71.8,245.6,71.8z"
	/>
<path class="st0" d="M53.3,203.2c-1.4-0.4-2.4,0.7-3.7,1c-1,0.3-1.8,1-2.7,1.6c-0.2,0.1-0.5,0.3-0.8,0.3c-1.3,0.1-2.2,0.7-2.9,1.7
	c-0.4,0.5-1,0.9-1.5,1.3c-0.5-1.4-0.7-2.8-1.4-3.7c-0.6-0.7-0.9-1.1-0.6-1.9c0-0.1,0.1-0.1,0.2-0.1c1.1,1.1,2.4,1,3.6-0.1
	c0.1,0,0.1-0.1,0.2-0.1c1-0.4,2.2-0.5,3.1-1.2c1.1-0.9,2.4-1.1,3.4-2c0.1-0.1,0.1-0.4,0.1-0.7c-0.1-2.1-1-3-3.2-3.1
	c-0.2,0-0.5,0-1-0.1c0.2-0.7,0.1-1.5,0.5-1.7c0.7-0.5,2.4,0,2.8,0.5c0.8,1.2,1.5,2.5,1.9,3.9c0.3,0.9,1.2,1.6,1.6,2.5
	C53.2,201.9,53.2,202.6,53.3,203.2C53.3,203.3,53.3,203.2,53.3,203.2z"/>
<path class="st0" d="M260.4,127.9c0.5,0.3,1.1,0.8,1.2,0.7c0.5-0.4,1.1-1,1.3-1.6c0.2-0.7,0-1.6,0-2.4c0-0.7-1.5-1.9-2.2-1.6
	c-0.4,0.2-0.5,0.8-0.8,1.2c-0.1,0.2-0.3,0.4-0.5,0.6c-0.2-0.2-0.4-0.4-0.4-0.6c-0.2-0.9,0.1-1.9-0.9-2.5c-0.1,0,0-0.5,0.1-0.7
	c0.1-0.1,0.5,0,0.6,0.1c0.2,0.1,0.3,0.5,0.5,0.6c1.3,0.1,2.5,0.8,3.7,1.1c2.6,0.6,5.4,0.8,8.1,1.2c0.2,0,0.3,0.1,0.5,0.1
	c0,0.7,0.6,1.3-0.6,2c-1,0.6-2.2,1-3.1,1.8c-0.3,0.2-0.4,0.6-0.7,0.9c-1,1-2.8,1.2-3.5,2.6c0,0.1-0.1,0.2-0.2,0.2
	c-1.2,0-1.8,0.9-2.1,2C259.8,131.2,259.5,129.5,260.4,127.9z M266.9,123.9c-1,0-2,0-2.9,0c0,0.9,0,1.8,0,2.8
	c0.9-0.5,1.7-0.9,2.7-1.4C266.8,125.1,266.9,124.6,266.9,123.9z"/>
<path class="st0" d="M43.4,182.4c0-0.5,0-1,0.1-1.4c0-0.2,0.3-0.3,0.4-0.5c0.2,0.1,0.4,0.3,0.4,0.4c0.1,0.8,0,1.5,0.9,2.1
	c0.4,0.3,0.2,1.5,0.2,2.4c-0.9,0.4-1.7,0.8-2.5,1.3c-0.5,0.3-0.4,1.3,0,1.7c0.2,0.2,0.4,0.5,0.5,0.8c0.2,1.8,0.9,2.3,2.9,2
	c0-0.4,0-0.8,0.1-1.3c0-0.2,0.2-0.4,0.4-0.5c0.1-0.1,0.4,0,0.4,0.1c0.4,1,0.7,2,1,3c0.1,0.2-0.2,0.5-0.3,0.8
	c-0.2-0.2-0.4-0.4-0.6-0.5c-0.3-0.2-0.6-0.3-0.9-0.3c-1.4-0.1-2.8,0-4.2-0.1c-1.1-0.1-2.1-0.5-3.2-0.6c-0.9-0.1-1.9,0-2.9-0.1
	c-0.7,0-1.4-0.1-2.1-0.3c-0.2,0-0.4-0.6-0.3-0.6c1.4-1.1,2.8-2.2,4.2-3.3c0.4-0.4,0.9-0.7,1.3-1.1c1.1-1.2,2.2-2.4,3.3-3.6
	C42.7,182.5,43.1,182.5,43.4,182.4z M40.9,191.6c1.1-0.1,1.7-0.3,1.5-1.4c-0.1-0.8,0-1.6-1.1-1.5c-0.3,0-0.6,0.7-1,0.7
	c-1.1,0.2-0.9,1-0.7,1.5C39.8,191.2,40.5,191.3,40.9,191.6z"/>
<path class="st0" d="M211,55.2c-1.5,0.5-2.4-0.9-3.7-1.1c-0.8-0.1-1.5-1.1-2.3-1.6c0,0-0.1-0.1-0.1-0.1c-1.3,0.4-1.8-1.1-2.9-1.3
	c-0.6-0.1-1.1-0.6-1.6-1c-0.1-0.1-0.1-0.4-0.1-0.4c0.1-0.1,0.4-0.3,0.6-0.3c0.5-0.1,1-0.1,1.5-0.2c0.2,0,0.5-0.1,0.5-0.2
	c0.4-1,0.8-1.9,1.3-2.9c0.1-0.2,0.3-0.5,0.5-0.7c0.1-0.1,0.4-0.2,0.4-0.3c0.1-1.4,1.2-2.2,1.7-3.4c0.3-0.7,0.3-1.5,0.4-2.3
	c0.7,0.1,1.6-0.5,1.9,0.8c0,0.1,0.3,0.2,0.4,0.2c1.1-0.3,1.4,1,2.3,1.1c0.1,0,0.2,0.4,0.1,0.5c0,0.1-0.2,0.3-0.4,0.3
	c-0.5,0-1,0-1.1,0c-0.5,0.5-0.8,0.8-1.1,1.1c-0.1,0.1-0.2,0.2-0.2,0.3c-0.1,0.7,0,1.6-1,1.8c0.2,1.9-2,2.6-2.2,4.5
	c-0.1,0.5-0.9,1.1-0.6,2c1.1,0.4,2.2,0.8,3.3,1.1c0.5,0.1,1.1,0.3,1.5-0.6c0.1-0.3,1.1-0.3,1.9-0.5C211.7,53.3,211.3,54.3,211,55.2
	C210.9,55.3,211,55.2,211,55.2z"/>
<path class="st0" d="M34.6,142.3c0.8,0.1,1.8-0.3,2.2,0.9c0,0.1,0.5,0,0.7,0.1c0.7,0.4,1.4,0.8,2.1,1.2c0.1,0.1,0,0.6-0.1,0.7
	c-0.9,0.4-1.9,0.8-2.8,1.2c-0.4,0.2-0.7,0.4-1.1,0.6c-0.5,0.2-0.9,0.3-1.4,0.4c-0.6,0.1-1.3-0.2-1.5,0.7c-0.1,0.2-0.9,0.1-1.3,0.3
	c-0.2,0.1-0.4,0.3-0.7,0.5c0.2,0.2,0.4,0.5,0.6,0.5c2.2,0,4.4,0.1,6.6,0c0.3,0,0.5-0.4,0.8-0.6c0.1-0.1,0.3-0.3,0.4-0.3
	c0.2,0.1,0.4,0.3,0.4,0.4c0,1,0,2,0,3c0,0.1-0.2,0.3-0.4,0.4c-0.1,0-0.4-0.1-0.4-0.3c-0.5-1-1.3-1.6-2.4-1.6c-2.8-0.1-5.5,0-7.9,0
	c-0.5,0.4-0.8,0.7-1.2,0.9c-0.1-0.4-0.4-0.7-0.4-1.1c-0.1-1.2,0-2.4,0-3.4c1.8-0.6,3.3-1,4.8-1.5c1-0.3,1.9-0.8,3.1-1.4
	C34.5,143.5,34.6,142.9,34.6,142.3C34.6,142.3,34.6,142.3,34.6,142.3z"/>
<path class="st0" d="M255.1,83.5c-0.8,0.2-1.6-0.2-2.2,1c-0.4,0.7-1.7,0.9-2.8,1.4c1.2,0.5,1.4,1.9,2.8,1.6c0.1,0,0.4,0.6,0.4,0.7
	c-0.4,0.4-0.8,0.9-1.4,1.1c-0.6,0.2-1.4,0.1-1.7,1c0,0.1-0.6,0-0.9,0c0-0.3-0.1-0.7,0.1-0.9c0.9-1.2,1-1.2,0.5-3
	c-0.9,0.4-2.1,0.7-2.4,1.3c-0.5,1-1.4,0.5-2.1,1c0,0.5,0,1.1,0,1.7l0,0c-0.6,0.1-0.7-0.3-1.1-0.6c-0.9-0.7-0.4-2.1-1.7-2.5
	c-0.2-0.1-0.2-1-0.2-1.5c0-0.1,0.7-0.2,1-0.2c0.8-0.1,1.7,0.3,2-0.9c0-0.1,0.3-0.1,0.5-0.2c1.1-0.1,1.6-1,2.4-1.6
	c0.1-0.1,0.2-0.3,0.3-0.3c1.5,0,2.3-1.4,3.4-2.1c0.3-0.2,0.2-1.1,0.3-1.9c0.3,0.2,0.6,0.3,0.8,0.4c0.8,0.7,0.7,2.1,1.8,2.7
	C255.2,82,255.1,82.9,255.1,83.5L255.1,83.5z"/>
<path class="st0" d="M129.3,28.9c0.2,1.4,0.3,2.5,0.5,3.7c0.5,0,1.1,0,1.8,0c-0.2-1.2,0.6-1.1,1.3-1c0.9,0.1,0.6,0.8,0.7,1.3
	c0.1,0.8,0.1,1.5,0,2.3c0,0.2-0.7,0.5-0.7,0.5c-0.6-0.6-1.1-1.2-1.7-1.9c-0.4,0.5-0.8,0.9-0.9,1.1c0.1,0.9,0.3,1.7,0.3,2.4
	c0,1.1,0.2,2.1,1.6,2.3c0.2,0,0.3,0.3,0.5,0.4c-0.2,0.2-0.4,0.4-0.6,0.5c-1.6,0.1-3.1,0.1-4.7,0.2c-0.2,0-0.5-0.2-0.6-0.4
	c-0.1-0.1,0.1-0.5,0.3-0.5c1-0.6,0.5-1.3,0.3-2c-0.2-0.5-0.5-0.9-0.6-1.4c-0.1-0.9,0-1.8-0.1-2.6c-0.1-0.7,0.3-1.6-0.7-2.1
	c-0.2-0.1-0.1-0.7-0.2-1c-0.1-0.7,0.3-1.6-0.9-1.8c-0.1,0-0.2-0.4-0.1-0.5c0.1-0.2,0.3-0.4,0.5-0.4c1.3-0.1,2.6-0.1,3.8-0.1
	c0.2,0,0.6,0.3,0.6,0.4C129.6,28.4,129.4,28.8,129.3,28.9z"/>
<path class="st0" d="M180.6,30.8c0,0.6-0.2,1.2,0,1.6c0.4,0.7,0.9,1.4,1.5,2c0.7,0.8,1.6,1.4,2.4,2.1c0.2,0.3,0.2,0.8,0.2,1.3
	c0,0.7,0,1.4,0,2.2c-0.1,1.6-0.9,2.4-2.5,2.4c-1.1,0-2.2,0-3.2,0c-0.5,0-1.1,0.1-1.3-0.7c-0.1-0.2-1.1-0.2-1.6-0.3
	c-0.4-0.1-0.7-0.2-1.1-0.4c0.2-0.2,0.6-0.4,0.6-0.7c0.2-0.6,0.2-1.3,0.3-2c0.1-0.4,0.2-0.7,0.4-1c0.2,0.2,0.6,0.4,0.7,0.7
	c0.3,0.6,0.5,1.4,0.9,2c0.4,0.6,1.1,1.2,1.7,1.3c0.7,0.1,1.5,0.3,2.4-0.5c1.3-1.2,0-1.7-0.3-2.2c-0.6-0.9-1.6-1.5-2.4-2.2
	c-1.1-0.9-2-4.2-1.3-5.3c0.6-0.9,1.5-1.8,2.8-1.6c0.4,0.1,0.8,0.3,1.1,0.4c-0.3,0.3-0.5,0.6-0.8,0.9
	C180.8,30.9,180.7,30.8,180.6,30.8z"/>
<path class="st0" d="M256.1,113c0.4,0.2,0.9,0.4,1.3,0.6c0,0.1-0.1,0.2-0.1,0.3c1.7,0.1,2.6-0.8,2.7-2.4c0-0.6,0-1.3,0-1.9
	c0-0.6-0.2-1.4,0.7-1.7c0.1,0,0.1-0.3,0.2-0.5c0.4-1.5,1.1-2.2,2.7-2.2c0.6,0,1.1,0,1.7,0c1.6,0.1,2.6,1.1,2.6,2.8
	c0,0.8-0.1,1.6,0.7,2.3c0.3,0.3,0.3,1.1,0.3,1.5c-0.5,0.4-0.9,0.7-1.3,0.9c-0.5,0.2-1.1,0.3-1.6,0.4c-0.3,0-0.6-0.2-1-0.3
	c0.2-0.2,0.4-0.4,0.6-0.6c1.3-1.1,1.5-2.2,1.1-4.9c-0.9,0-1.8,0-2.6,0c-0.4,2.2-0.7,4.2-1.2,6.3c-0.1,0.4-0.6,0.7-0.8,1.1
	c-0.6,0.9-2.9,1.8-3.8,1.3c-0.7-0.3-1.3-0.8-1.9-1.2c-0.1,0.1-0.2,0.2-0.3,0.2C256.1,114.3,256.1,113.6,256.1,113L256.1,113z"/>
<path class="st0" d="M254.9,217.2c-1.1,1.5-2.1,2.9-3.4,4.7c-0.6,0.2-0.7-1.1-1.3-1.5c-0.7-0.5-1.3-1-1.9-1.5
	c-0.6-0.4-1.6-0.7-1.9-1.2c-0.3-0.6-0.7-0.6-1.1-0.8c-0.6-0.3-1.3-0.7-1.8-1.1c-1.1-1-1.3-1.1-2.5,0c0,0-0.2,0-0.6,0
	c0.2-0.6,0.4-1.1,0.6-1.6c0.5-1.4,2.3-2,2.4-3.7c0-0.2,0.5-0.3,0.9-0.5c0,0.8,0,1.4,0,1.7c0.8,0.7,1.5,1.4,2.1,2
	c0.1,0.1,0.3,0.3,0.4,0.3c1.1,0.2,1.8,1,2.6,1.8c0.6,0.6,1.5,0.9,2.2,1.3c0.2,0.1,0.4,0.4,0.7,0.5c0.3,0.1,0.7,0.2,0.8,0.1
	C253.6,216.6,254.3,217.1,254.9,217.2z"/>
<path class="st0" d="M71.7,70.7c0.3-0.4,0.5-0.9,0.8-1.4c-0.8-1-1.7-2.2-2.7-3.2c-0.8-0.8-1.8-1.4-2.6-2.2c-0.3-0.3-0.7-0.6-0.9-1
	c-0.6-1.3-1.7-0.9-2.7-1c-0.1,0-0.3-0.1-0.5-0.2c1-0.9,1.8-1.7,2.7-2.6c0.5-0.5,0.9-1,1.3-1.5c0.1-0.1,0.3-0.3,0.4-0.3
	c0.2,0.1,0.4,0.3,0.4,0.5c0.1,0.2,0,0.5,0,0.7c-0.2,1.3,0.8,1.9,1.6,2.6c0.5,0.4,0.9,0.9,1.4,1.4c0.8,0.9,1.7,1.7,2.5,2.6
	c0.5,0.5,1,1,1.5,1.6c0.2,0.3,0.3,1.7,0.1,1.9c-0.7,0.8-1.5,1.6-2.3,2.3C72.5,70.9,72,70.7,71.7,70.7C71.6,70.7,71.7,70.7,71.7,70.7
	z"/>
<path class="st0" d="M258.4,183.2c0.6,0.4,1.1,0.8,1.8,1.2c0.3,0.1,0.6,0.1,0.9,0.2c0.7,0.1,1.6-0.3,2,0.8c0,0.1,0.5,0.1,0.8,0.2
	c0.8,0.2,1.6-0.3,2.3,0.8c0.3,0.4,1.6,0.1,2.7,0.2c-0.3,1,0.6,2.2-0.8,3c-0.2,0.1-0.1,0.9-0.2,1.4c0,0.2-0.2,0.4-0.4,0.6
	c-0.2-0.2-0.5-0.4-0.5-0.6c-0.1-0.7-0.3-1.2-1.1-1.4c-0.9-0.2-1.7-0.3-2.6-0.8c-1.4-0.7-3.1-0.9-4.6-1.3c-0.2-0.1-0.5-0.1-0.6-0.2
	c-0.6-0.7-0.6-0.7-1.8-0.6c0,0.2-0.1,0.5-0.2,0.8c-0.1,0.1-0.3,0.3-0.4,0.3c-0.1,0-0.4-0.2-0.4-0.3c0.1-0.6,0.3-1.2,0.5-1.8
	c0.1-0.2,0.4-0.4,0.3-0.6c-0.1-1.2,0.3-2.1,1.1-3c0.1-0.1,0.3-0.3,0.5-0.2c0.2,0.1,0.4,0.3,0.4,0.4c0.1,0.4,0.1,0.8,0.1,1.2
	C258.2,183.3,258.3,183.3,258.4,183.2z"/>
<path class="st0" d="M36.5,102.2c0,0.4,0.1,0.9,0,1.3c-0.3,1.2,0.6,1.9,1.3,2.6c0.6,0.6,1.3,1.1,1.9,1.7c0.1,0,0.1,0.1,0.2,0.1
	c1.4,0.3,2.9,0.7,4.3,1.1c1.2,0.3,1.9-0.7,2.8-1.1c0.2-0.1,0.1-0.8,0.2-1.1c0.1-0.3,0.4-0.5,0.6-0.7c0.2,0.3,0.5,0.5,0.5,0.8
	c0,1.4-0.7,2.4-1.8,3.4c-1.8,1.8-3.8,2.1-6,1.7c-1.1-0.2-2.3-0.6-3.1-1.6c-0.2-0.2-0.6-0.3-0.7-0.6c-0.4-0.5-0.7-1-1.1-1.6
	c-0.1-0.2-0.2-0.4-0.2-0.5c0-1.6,0-3.3,0-4.9C35.6,102.6,36.2,102.4,36.5,102.2L36.5,102.2z"/>
<path class="st0" d="M271.1,147.4c-0.5,1.3-0.8,2.5-1.4,3.5c-0.5,0.9-1.3,1.9-2.2,2.2c-1.3,0.4-2.8,0.2-4.1,0
	c-1-0.1-1.8-2.4-1.4-3.4c0.1-0.2,0.3-0.3,0.4-0.4c0.2,0.2,0.4,0.3,0.5,0.6c0.3,0.9,0.7,1.5,1.8,1.3c0.4-0.1,0.9-0.5,1-0.9
	c0.4-0.8,1.4-1.1,1.4-2.3c0-0.6,0.5-1.3,1-1.7c1.1-1,2.1-2.5,4-1.9c0.9,0.3,1.8,0.7,2.5,1.3c0.4,0.3,0.3,1.2,0.3,1.8
	c0,0.2-0.3,0.5-0.4,0.7c-0.2-0.2-0.3-0.4-0.5-0.5c-0.2-0.2-0.5-0.5-0.8-0.5C272.3,147.3,271.7,147.4,271.1,147.4z"/>
<path class="st0" d="M67,240.5c-1.1,0.4-1.6-0.8-1.8-1.2c-0.8-1.6-1.8-3.4-0.9-5.1c0.6-1.3,0.9-2.8,2.5-3.8c1.6-1,3.2-2,5.1-1.7
	c1.2,0.2,2.2,0.6,3.1,1.5c0.4,0.4,1.2,0.5,0.9,1.4l0,0c-0.4-0.1-0.9-0.2-1.2-0.4c-0.5-0.5-2.2-0.7-2.7-0.2c-0.9,0.7-1.8,1.4-2.7,2.1
	c-0.3,0.3-0.3,1-0.7,1.3c-0.9,0.7-1.7,1.5-1.7,2.7c0,0.2-0.4,0.3-0.4,0.5c-0.1,0.6-0.2,1.6,0,1.6C67.2,239.4,66.9,240,67,240.5
	L67,240.5z"/>
<path class="st0" d="M75.8,231.6c0.5-0.1,0.7,0.1,1,0.5c1.8,1.9,0.7,4.1,0.8,6.1c0,0.9-0.8,1.7-1.6,2.3c-0.4,0.3-0.9,0.7-1.1,1
	c-1,1.2-2.2,0.8-3.4,0.9c-1,0.1-1.9,0-2.9,0c-0.6,0-1.7-1.2-1.7-1.9c0,0,0,0,0,0c0.4,0,0.8,0.1,1.2,0c0.9-0.1,2,0.1,2.7-0.3
	c1.2-0.8,2.2-1.8,3.2-2.9c1.2-1.3,2.3-2.8,1.9-4.8C75.7,232.2,75.8,231.9,75.8,231.6L75.8,231.6z"/>
<path class="st0" d="M78.8,78.8c0.5,1.4-0.9,1.9-1.5,2.8c-0.4,0.6-1,1.2-1.6,1.7c-0.8,0.8-1.8,1.6-2.5,2.4c-0.6,0.6-1,1.4-1.4,2.1
	c-0.4,0.5-0.6,1.1-1.1,1.6c-0.4,0.5-1,0.8-1.6,1.2c-0.1,0.1-0.2,0.2-0.2,0.3c-0.1,1.3-0.9,2-1.8,2.7C67,93.7,67.1,94,67,94.1
	c-0.4,0.8-0.8,1.5-1.3,2.3c-0.2,0.4-0.5,0.7-0.7,1c-0.4,0.6-0.7,1.3-1.1,1.9c-0.7,1.2-1.4,2.4-2.2,3.6c0.1,0.1,0.2,0.2,0.3,0.3
	c-0.4,0-0.9,0.1-1.3,0c-0.3,0-0.5-0.3-0.7-0.5c0.2-0.2,0.4-0.3,0.6-0.6c0.3-0.4,0.6-0.8,0.8-1.3c0.5-1,1-2,1.6-2.9
	c0.5-0.9,1-1.7,1.5-2.5c0.5-0.9,1.4-1.5,1.6-2.6c0.1-0.5,0.8-1,1.2-1.5c0.2-0.3,0.4-0.5,0.6-0.8c0.5-0.7,1.1-1.5,1.6-2.2
	c0.4-0.4,0.9-0.8,1.2-1.2c0.8-1.1,1.4-2.4,2.2-3.4c0.7-0.9,1.8-1.5,2.6-2.3c0.7-0.7,1.3-1.6,2.1-2.3C77.9,78.9,78.3,78.9,78.8,78.8
	C78.7,78.7,78.8,78.8,78.8,78.8z"/>
<path class="st0" d="M241.5,174.6c0-9.7-0.1-19.3,0-29c0.2,0,0.4,0,0.6,0c0.1,0.8,0.3,1.6,0.3,2.4c0,8,0,15.9,0,23.9
	c0,0.6,0,1.1,0,1.7c0,0.4-0.2,0.8-0.3,1.2C241.8,174.6,241.6,174.6,241.5,174.6z"/>
<path class="st0" d="M218.9,248.7c0,0.8,0,1.9,0,3.1c0,0.3-0.1,1-0.2,1c-1.2,0.2-2.4,0.4-3.6,0.4c-0.8,0-1.1-0.7-1.2-1.4
	c-0.1-1.1,0-2.2,0-3.1C215.6,247.1,217.1,246.6,218.9,248.7z"/>
<path class="st0" d="M94.1,253.1c-4.2,0.7-5.3-0.6-4.6-4.5c0.7-0.4,1.3-0.9,1.9-1.1c0.6-0.1,1.3-0.1,1.8,0.2
	c0.6,0.3,0.9,1.1,1.4,1.5c0.8,0.7,0.8,1.3,0.1,2.1C94.5,251.8,94.4,252.4,94.1,253.1z"/>
<path class="st0" d="M118.6,128.7c0.1,0.5,0.2,1,0.2,1.5c0,8.2,0,16.4,0,24.6c0,0.5-0.3,1-0.4,1.4c-0.2-0.5-0.4-0.9-0.5-1.4
	c0-8,0-16.1,0-24.1c0-0.7,0.2-1.3,0.3-2C118.3,128.7,118.5,128.7,118.6,128.7z"/>
<path class="st0" d="M97.3,104.2c3.4,0,6.8,0,10.2,0c0.4,0,0.7,0,1.1,0.1c0.2,0.1,0.4,0.3,0.6,0.4c-0.2,0.1-0.3,0.4-0.5,0.4
	c-0.4,0.1-0.8,0.1-1.2,0.1c-6.9,0-13.7,0-20.6,0c-0.2,0-0.3,0-0.5,0c-0.3-0.1-0.6-0.3-0.9-0.5c0.3-0.1,0.6-0.4,1-0.4
	C90.1,104.2,93.7,104.2,97.3,104.2C97.3,104.2,97.3,104.2,97.3,104.2z"/>
<path class="st0" d="M128.6,175.7c0.6,0,1.2,0,1.6,0c0.6-0.7,1-1.3,1.5-1.9c0.1-0.1,0.4-0.1,0.6,0c1.1,1,2.1,1.9,3.1,2.9
	c0.1,0.1,0.1,0.5,0.1,0.7c0,0.6-0.1,1,0.6,1.4c0.3,0.2,0.3,1,0.5,1.7c1.2,0,2.5,0,3.8,0c0.4,0,0.7,0.4,1.1,0.6
	c0.4,0.2,0.9,0.4,1.3,0.6c0.2,0.1,0.4,0.3,0.6,0.4c-0.2,0.2-0.5,0.6-0.6,0.5c-0.5-0.2-1.3,0.3-1.6-0.7c0-0.2-0.6-0.3-0.9-0.3
	c-1.6,0-3.1,0-4.5,0c-0.5-1.5-0.9-2.8-1.4-4.2c-0.1-0.3-0.4-0.6-0.7-0.7c-0.3-0.2-0.8-0.2-0.9-0.4c-0.6-0.9-0.8-1-1.3,0.1
	c-0.2,0.3-1.4,0.2-2.1,0.1C129.2,176.5,128.9,176,128.6,175.7L128.6,175.7z"/>
<path class="st0" d="M236.7,104.3c-0.2,0.7-0.4,1.3-0.6,1.9c-0.3-0.3-0.6-0.6-1-1.1c-4.9,0-10.1,0-15.2,0c-0.5,0-1,0-1.4-0.1
	c-0.2,0-0.4-0.3-0.7-0.5c0.2-0.1,0.4-0.3,0.6-0.4c0.3-0.1,0.7,0,1.1,0c5.5,0,10.9,0,16.4,0C236.1,104.2,236.2,104.2,236.7,104.3z"/>
<path class="st0" d="M93.4,118.2c0.5-0.1,1-0.3,1.5-0.3c5.7,0,11.4,0,17.1,0c0.3,0,0.7,0.3,1,0.5c-0.3,0.1-0.7,0.4-1,0.4
	c-5.6,0-11.2,0-16.8,0c-0.6,0-1.2-0.1-1.8-0.2C93.5,118.5,93.5,118.4,93.4,118.2z"/>
<path class="st0" d="M211.5,190.2c0.7-0.3,1.2-0.7,1.9-0.9c0.2-0.1,0.6,0.1,0.7,0.3c0.1,0.3,0.1,0.8-0.1,0.9c-0.7,0.4-1.5,0.7-2.3,1
	c-0.1,0.1-0.4-0.1-0.5-0.2c-1-1-2-1-3-0.1c-0.2,0.2-0.7,0.3-1,0.2c-1.2-0.2-2.1,0.4-2.7,1.3c-0.3,0.5-0.6,1.1-1.2,0.5
	c-0.2-0.3,0-1.2,0.3-1.7c0.7-1.1,1.8-1.3,3-1.2c0.5,0,1-0.2,1.4-0.5C209,189.1,210.7,189.2,211.5,190.2z"/>
<path class="st0" d="M201.4,195.2c-1.8,0.2-2.9-0.4-3.4-1.8c-0.7-0.2-1.7,0.4-2.1-0.9c-0.1-0.4-1.5-0.3-2-1.1
	c-0.3-0.4-0.7-0.6-1.2-0.9c-0.1,0.1-0.2,0.1-0.3,0.2c-0.3,0.2-0.5,0.5-0.8,0.6c0,0-0.4-0.3-0.3-0.4c0.2-0.2,0.5-0.4,0.6-0.7
	c0.2-0.3,0.3-0.8,0.4-1.1c0.1-0.3,0.3-0.5,0.4-0.7c0.2,0.2,0.4,0.3,0.7,0.5c0.3,0.2,0.6,0.3,0.9,0.4c0.3,0.2,0.6,0.3,1,0.5
	c-0.2,0.2-0.4,0.5-0.6,0.7c-0.1,0.1-0.1,0.3-0.2,0.4c0.5,0.7,1.8-0.2,2.1,1.1c0.1,0.4,1.6,0.3,2.5,0.5c0.1,0.9,0.3,1.8,1.6,1.6
	C200.9,194.2,201.1,194.7,201.4,195.2z"/>
<path class="st0" d="M68.8,117.4c0.3-0.2,0.6-0.5,0.8-0.5c3.8,0,7.6,0,11.4,0c0.3,0,0.5,0.3,0.8,0.5c-0.2,0.1-0.4,0.4-0.6,0.4
	c-2,0-4.1,0-6.1,0c-2,0-4.1,0-6.1,0C68.9,117.7,68.8,117.6,68.8,117.4z"/>
<path class="st0" d="M217,188.4c0.1-0.3,0.2-0.6,0.2-0.9c0.2,0.1,0.5,0.3,0.7,0.4c0.8,0.6,1.3,1.6,2.5,1.4c1.2-0.2,2.6,0.6,3.5-0.9
	c0.1-0.1,0.4-0.1,0.7-0.2c0.1-0.5,0.1-1.1,0.2-1.7c0.8,0,1.6-0.4,1.8,0.8c0,0,0,0,0,0c-0.6,0.4-1.3,0.7-1.7,1.3
	c-1.4,1.6-3.8,2.4-5.8,1.7c-0.5-0.2-0.8-0.8-1.2-1.2C217.6,188.9,217.3,188.6,217,188.4L217,188.4z"/>
<path class="st0" d="M54.2,103.2c0,2.4,0,4.8,0,7.1c0,0.4,0,0.7,0,1.1c-0.1,0.3-0.3,0.5-0.4,0.7c-0.1-0.2-0.4-0.5-0.4-0.7
	c0-1.6,0-3.2,0-4.8c0-1.1,0-2.2,0.1-3.3c0-0.3,0.3-0.9,0.5-0.9c0.7-0.1,1.5,0,2.2,0.1c-0.1,0.2-0.2,0.6-0.3,0.7
	C55.3,103.2,54.8,103.2,54.2,103.2z"/>
<path class="st0" d="M235.4,67.9c0-0.3,0-0.5,0-0.8c0.1,0.1,0.2,0.2,0.2,0.3c1.2-0.8,2.5-1.6,3.7-2.5c0.2-0.1,0-0.7,0.1-1
	c0.1-0.3,0.2-0.6,0.3-0.9c0.2,0.2,0.5,0.3,0.7,0.5c0.5,0.5,1,1,1.5,1.5c0.2,0.2,0.3,0.4,0.3,0.6c0,0.1-0.3,0.3-0.5,0.3
	c-0.6,0.1-1.1,0-1.7,0.1c-0.2,0-0.4,0.2-0.7,0.3c-0.3,0.2-0.6,0.4-0.9,0.6c-0.3,0.2-0.7,0.5-1,0.6C236.8,67.8,236.1,67.8,235.4,67.9
	C235.4,67.9,235.4,67.9,235.4,67.9z"/>
<path class="st0" d="M104.1,48.2c0-0.6,0.1-0.9,0.8-0.9c0.5,0,0.8-0.4,1.2-0.7c1.1-0.9,0.8-2.1,0.9-3.1c0.1-0.4,0.3-0.7,0.5-1
	c0.2,0.3,0.4,0.6,0.5,0.9c0.3,0.6,0.6,1.2,0.8,1.8c0.3,1.1-0.3,1.9-1.5,2.2c-0.5,0.1-0.9,0.6-1.4,0.7
	C105.5,48.2,104.8,48.1,104.1,48.2C104.1,48.2,104.1,48.2,104.1,48.2z"/>
<path class="st0" d="M68.4,104.1c-1.6,0-3.2,0-4.8,0c-0.3,0-0.5-0.3-0.8-0.4c0.3-0.1,0.5-0.4,0.8-0.4c3.1,0,6.3,0,9.4,0
	c0.3,0,0.5,0.3,0.8,0.4c-0.3,0.1-0.5,0.4-0.8,0.4C71.6,104.2,70,104.1,68.4,104.1C68.4,104.1,68.4,104.1,68.4,104.1z"/>
<path class="st0" d="M36.5,102.2c0.1-0.7-0.4-1.7,0.8-2c0.2,0,0.2-0.7,0.2-1.1c0-0.7,0.3-0.9,1-0.9c1.3-0.2,1.9,0.9,2.9,1.2
	c0.1,0,0.2,0.4,0.1,0.5c0,0.1-0.2,0.3-0.4,0.3c-0.4,0.1-0.8,0.1-1.2,0.1c-1.1,0-1.7,0.9-2.4,1.5C37.3,102.1,36.8,102.1,36.5,102.2
	C36.5,102.2,36.5,102.2,36.5,102.2z"/>
<path class="st0" d="M256.1,113c-0.6,0.2-1,0.1-1-0.6c0-1,0-1.9,0-2.9c-0.3-0.1-0.7-0.1-0.8-0.3c-0.2-0.3-0.2-0.9-0.2-1
	c1.1-0.4,2.2-0.8,3.3-1.1c0.1,0,0.5,0.2,0.5,0.4c0.1,0.2-0.1,0.5-0.2,0.6c-0.3,0.3-0.5,0.7-0.9,0.8c-1.4,0.4-0.8,1.5-0.9,2.3
	C256,111.8,256.1,112.4,256.1,113C256.1,113,256.1,113,256.1,113z"/>
<path class="st0" d="M137.5,35.2c0,0.8,0,1.2,0,1.6c-0.1,0.8,0,2.1-0.3,2.3c-1,0.4-2.2,0.3-3.3,0.4c-0.1,0-0.4-0.3-0.4-0.4
	c0-0.2,0.2-0.5,0.3-0.5c1.5-0.3,1.7-1.8,2.8-2.5C136.8,35.9,137,35.6,137.5,35.2z"/>
<path class="st0" d="M263.1,146.8c0,0.2-0.1,0.6-0.3,0.9c-0.1,0.2-0.3,0.4-0.5,0.6c-0.1-0.2-0.4-0.5-0.4-0.7
	c-0.1-0.9-0.1-1.7-0.1-2.6c0-0.2,0.3-0.6,0.5-0.6c1.1-0.1,2.1,0,3.2,0c0.2,0,0.4,0.3,0.4,0.5c0,0.1-0.1,0.4-0.2,0.5
	C264.9,145.8,264.1,146.2,263.1,146.8z"/>
<path class="st0" d="M245.3,90.5c1.1-0.1,1.2,1.1,1.9,1.5c0.2,0.1,0.5,0.5,0.7,0.5c0.9-0.1,1.5,0.5,2.2,1c0.2,0.1,0.3,0.4,0.3,0.6
	c-0.1,0.2-0.4,0.4-0.6,0.4c-0.6,0.1-1.2,0.3-1.8,0.2c-0.5-0.1-1-0.5-1.3-1C246.1,92.6,244.8,91.9,245.3,90.5
	C245.3,90.4,245.3,90.5,245.3,90.5z"/>
<path class="st0" d="M255.1,83.5c0.3,0.2,0.6,0.4,0.9,0.5c1.1,0.5,0.6,2,1.8,2.5c0.6,0.3,0.2,1.7-0.4,2.1c-0.5,0.3-0.6,1.1-1.5,1
	c-0.3-0.1-0.5-0.2-0.8-0.3c0.2-0.2,0.3-0.5,0.5-0.7c0.1-0.2,0.4-0.3,0.4-0.5c-0.1-1.1,0.7-2.5-0.8-3.4
	C255.1,84.5,255.2,83.9,255.1,83.5C255.1,83.5,255.1,83.5,255.1,83.5z"/>
<path class="st0" d="M173.8,33.6c0-1.5,0-3.1,0-4.4c-0.4-0.5-0.8-0.8-1.1-1.2c0.1-0.1,0.1-0.2,0.2-0.3c1,0,2.1,0,3.1,0
	c0.2,0,0.4,0.3,0.6,0.5c-0.2,0.2-0.3,0.5-0.5,0.5c-1.3,0.1-1.4,0.9-1.4,1.9c0,0.8-0.1,1.5,0,2.3C174.7,33.6,174.4,33.8,173.8,33.6
	C173.8,33.6,173.8,33.6,173.8,33.6z"/>
<path class="st0" d="M134.9,30.8c-0.2-0.8-0.3-1.3-0.5-2.1c-1.1-0.3-2.3-0.6-3.5-1c-0.1,0-0.3-0.3-0.3-0.4c0.1-0.2,0.3-0.4,0.4-0.4
	c1.1-0.1,2.2-0.3,3.2-0.1c0.5,0.1,1.1,0.9,1.3,1.4C135.7,29,135.8,29.9,134.9,30.8z"/>
<path class="st0" d="M274.2,149c0.9,1.5,0.4,2.8,0.6,4.1c-1.4,0-2.6,0-3.9,0c0-0.2,0-0.6,0-0.6c0.9-0.2,1.1-1.5,2.2-1.3
	c0.1,0,0.4-0.4,0.5-0.6C273.8,150.1,273.9,149.7,274.2,149z"/>
<path class="st0" d="M186.4,33.6c-0.6,0-1.1,0-1.7,0c0-1.5-0.5-2.6-2-3c-0.1,0,0-0.5-0.1-0.8c0.6,0.1,1.4-0.5,2,0.4
	c0.2,0.4,1.1,0.4,1.8,0.6C186.4,31.6,186.4,32.5,186.4,33.6z"/>
<path class="st0" d="M164.2,190.6c-0.4,0-0.7-0.1-1.2-0.1c0-0.5,0-0.9,0-1.4c0-0.5,0-0.9,0-1.5c-0.9-0.1-1.8-0.1-3-0.2
	c0.2-0.7,0.3-1.3,0.4-1.9c0.3,0.3,0.6,0.5,1.1,1c0.5,0,1.4,0,2.4,0C164,187.9,164.1,189.3,164.2,190.6L164.2,190.6z"/>
<path class="st0" d="M153,184.5c0.1-0.7,0.2-1.2,0.3-1.9c0.8,0,1.5,0,2.3,0c0.2,0,0.4,0.3,0.7,0.5c-0.2,0.2-0.4,0.4-0.7,0.5
	c-0.4,0.1-0.9,0-1.3,0c0,0.2-0.1,0.4-0.1,0.6c-0.2,1.1-1.8,1.9-2.8,1.3c-0.1-0.1-0.2-0.3-0.2-0.5c0-0.1,0.2-0.3,0.4-0.4
	C152,184.5,152.5,184.5,153,184.5z"/>
<path class="st0" d="M164.1,190.6c0.2,0,0.3-0.1,0.5-0.1c1.5,0.1,2.5-0.5,3.2-1.7c0.3-0.5,0.7-0.8,1.1-1.1c0.2-0.1,0.6-0.1,0.9-0.1
	c0,0.3,0,0.7-0.1,0.9c-0.9,0.9-1.8,1.8-2.7,2.7C166.3,191.8,164.6,191.5,164.1,190.6C164.2,190.6,164.1,190.6,164.1,190.6z"/>
<path class="st0" d="M128.6,175.7c-0.3,0.1-0.6,0-0.9,0.2c-0.3,0.2-0.4,0.7-0.7,0.7c-1,0.1-2.1,0-3.1,0c-0.1,0-0.2-0.4-0.2-0.6
	c0-0.2,0.3-0.3,0.5-0.3c0.4,0,0.9,0.2,1.3,0.1c0.5-0.1,0.9-0.4,1.4-0.8C127.6,175,128.7,174.3,128.6,175.7
	C128.6,175.7,128.6,175.7,128.6,175.7z"/>
<path class="st0" d="M161,184.7c-0.9-0.1-1.7-0.1-2.5-0.2c-0.2,0-0.3-0.5-0.4-0.7c1-0.2,1.4-1.9,2.9-1
	C161,183.3,161,183.9,161,184.7z"/>
<path class="st0" d="M240.4,136.5c0,0.5,0,1,0,1.5c0,0.2-0.3,0.4-0.4,0.4c-0.1,0-0.4-0.2-0.4-0.4c0-1,0-2,0-3.1
	c0-0.2,0.3-0.3,0.4-0.5c0.2,0.2,0.4,0.4,0.5,0.6C240.4,135.6,240.4,136,240.4,136.5C240.4,136.5,240.4,136.5,240.4,136.5z"/>
<path class="st0" d="M236.5,119.7c0-0.4,0-0.9,0-1.3c0-0.2,0.3-0.4,0.4-0.6c0.2,0.2,0.5,0.3,0.5,0.5c0,1,0,2,0,3.1
	c0,0.1-0.2,0.3-0.3,0.4c-0.2-0.1-0.4-0.3-0.4-0.4C236.5,120.8,236.5,120.3,236.5,119.7C236.4,119.7,236.5,119.7,236.5,119.7z"/>
<path class="st0" d="M189.1,191.4c-1.4,0-1.8-0.3-1.6-1.5c0-0.2,0.2-0.5,0.3-0.5c0.2,0,0.5,0.2,0.7,0.3c0.4,0.2,0.7,0.4,1.1,0.7
	c0.3,0.2,0.6,0.4,0.9,0.6c-0.3,0.1-0.6,0.3-0.9,0.4C189.5,191.4,189.3,191.4,189.1,191.4z"/>
<path class="st0" d="M241.4,142.5c0,0.5,0,1,0,1.5c0,0.2-0.3,0.3-0.5,0.4c-0.1,0-0.3-0.2-0.3-0.4c0-1.1-0.1-2.1,0-3.2
	c0-0.2,0.3-0.3,0.4-0.4c0.1,0.1,0.4,0.3,0.4,0.5C241.4,141.4,241.4,141.9,241.4,142.5z"/>
<path class="st0" d="M146.5,183.6c-0.6,0-1.1,0-1.6-0.1c-0.2,0-0.4-0.3-0.6-0.5c0.2-0.1,0.4-0.4,0.6-0.4c1-0.1,2-0.1,3,0
	c0.2,0,0.4,0.3,0.6,0.4c-0.2,0.2-0.4,0.5-0.6,0.5C147.4,183.6,146.9,183.5,146.5,183.6C146.5,183.6,146.5,183.6,146.5,183.6z"/>
<path class="st0" d="M121,172.8c-0.2,0-0.4,0-0.5-0.1c-0.6-0.8-1.4-1.1-2.4-1c-0.1,0-0.3-0.4-0.3-0.5c0.1-0.2,0.3-0.5,0.5-0.5
	c0.8,0,1.6,0.1,2.5,0.2C120.8,171.6,120.9,172.2,121,172.8L121,172.8z"/>
<path class="st0" d="M239.3,128.9c0,1.1,0.1,2.3,0.1,3.4c0,0.1-0.3,0.3-0.5,0.4c-0.1,0-0.4-0.2-0.4-0.4c0-1.1,0-2.3,0-3.4
	C238.8,128.9,239,128.9,239.3,128.9z"/>
<path class="st0" d="M237.6,127.6c0-1.1-0.1-2.3-0.1-3.4c0-0.1,0.2-0.4,0.3-0.4c0.1,0,0.4,0.2,0.4,0.3c0,1.2,0,2.3,0,3.5
	C238.1,127.6,237.9,127.6,237.6,127.6z"/>
<path class="st0" d="M185.4,187.4c0.9,0.2,1.5,0.3,2.1,0.4c0,0,0,0.5-0.1,0.6c-0.5,0.4-1.1,0.7-1.7,1.1
	C185.6,188.9,185.5,188.3,185.4,187.4z"/>
<path class="st0" d="M173.1,189.6c-0.4,0.3-0.6,0.5-0.8,0.8c-0.2-0.2-0.4-0.5-0.5-0.7c-0.2-0.4-0.5-0.7-0.7-1.1
	c-0.1-0.2-0.3-0.5-0.3-0.7c0-0.1,0.3-0.4,0.3-0.4c0.2,0.1,0.5,0.3,0.7,0.5C172.3,188.5,172.6,189,173.1,189.6z"/>
<path class="st0" d="M217,188.4c-0.1,0.8-1.2,1.3-1.9,1c-0.1-0.1-0.3-0.3-0.3-0.4c0.1-0.2,0.2-0.4,0.4-0.5
	C215.8,188.4,216.4,188.4,217,188.4C217,188.4,217,188.4,217,188.4z"/>
<path class="st0" d="M120.9,172.8c1.1-0.3,1.2,1,1.9,1.3c-0.2,0.2-0.5,0.4-0.7,0.6C121.7,174.1,121.4,173.4,120.9,172.8
	C121,172.8,120.9,172.8,120.9,172.8z"/>
<path class="st0" d="M47,103.1c0.3-0.4,0.5-0.7,0.8-0.9c0.2,0.4,0.5,0.7,0.5,1.1c0,0.3-0.3,0.7-0.4,1
	C47.6,103.9,47.4,103.6,47,103.1z"/>
</svg>
